<?xml version="1.0" encoding="UTF-8"?>
<svg width="707px" height="565px" viewBox="0 0 707 565" version="1.1" xmlns="http://www.w3.org/2000/svg" xmlns:xlink="http://www.w3.org/1999/xlink">
    <!-- Generator: Sketch 53.2 (72643) - https://sketchapp.com -->
    <title>Group 9 Copy</title>
    <desc>Created with Sketch.</desc>
    <defs>
        <polygon id="path-1" points="0.0828271273 0.216031122 379.820196 0.216031122 379.820196 624.288179 0.0828271273 624.288179"></polygon>
    </defs>
    <g id="Mockup-|-KFZ-Zulassungen" stroke="none" stroke-width="1" fill="none" fill-rule="evenodd">
        <g id="Group-9-Copy" transform="translate(-9.000000, 0.000000)">
            <g id="Group-3" transform="translate(364.500796, 398.220148) rotate(-306.000000) translate(-364.500796, -398.220148) translate(174.500796, 85.720148)">
                <mask id="mask-2" fill="white">
                    <use xlink:href="#path-1"></use>
                </mask>
                <g id="Clip-2"></g>
                <path d="M94.2759691,328.613863 C17.9701048,385.6211 7.61827848,443.594562 1.02475855,472.581293 C1.02475855,472.581293 0.0828271273,479.354525 0.0828271273,489.016769 C0.0828271273,496.736902 0.0828271273,506.399145 1.96668997,517.027613 L6.67634706,611.727263 C6.67634706,618.481171 12.3279356,624.288179 18.9214555,624.288179 L163.969475,623.312293 C170.572414,623.312293 176.224003,617.514947 176.224003,610.751376 L179.049797,532.496865 L316.571784,362.431716 C337.294275,340.208556 350.481315,315.096384 355.190972,285.133767 L356.132904,276.44741 L379.681189,38.7465555 C380.613701,27.1518632 376.855395,14.5909466 368.378012,7.82737605 C358.016766,-0.868643177 341.062001,-4.73354061 327.874961,10.7357114 C318.455647,21.3545171 314.678502,54.2158075 312.804058,62.9021645 C308.094401,93.821344 302.442813,139.233889 301.500881,170.162731 L301.500881,176.916639 C300.549531,190.44378 297.733156,203.004697 292.081567,215.565613 C260.99783,285.133767 198.830357,372.093959 198.830357,372.093959 L195.062631,376.925081 C192.227417,380.789979 187.51776,381.756203 182.808103,379.833416 C178.098446,376.925081 177.165934,371.127735 179.049797,367.262838 L260.99783,229.092754 C269.475213,213.642827 264.765556,192.376229 248.743302,181.747761 C232.739888,171.119293 211.066046,176.916639 202.598082,192.376229 L116.872904,305.434141 C113.114597,312.188049 101.81142,322.816517 94.2759691,328.613863" id="Fill-1" fill="#A5D2D2" mask="url(#mask-2)"></path>
            </g>
            <g id="Group-4" transform="translate(196.000000, 0.000000)">
                <polygon id="Path-8" fill="#005F96" points="239.863399 0 142.128459 108.837209 337.598339 108.837209"></polygon>
                <polygon id="Path-8-Copy" fill="#FFFFFF" points="57.0120482 97.9534884 0 163.255814 114.024096 163.255814"></polygon>
                <rect id="Rectangle" fill="#005F96" x="190.995929" y="97.9534884" width="97.7349398" height="136.046512"></rect>
                <rect id="Rectangle-Copy-9" fill="#FFFFFF" x="27.1485944" y="152.372093" width="59.7269076" height="81.627907"></rect>
            </g>
        </g>
    </g>
</svg>