<?xml version="1.0" encoding="UTF-8"?>
<svg width="580px" height="656px" viewBox="0 0 580 656" version="1.1" xmlns="http://www.w3.org/2000/svg" xmlns:xlink="http://www.w3.org/1999/xlink">
    <!-- Generator: Sketch 53.2 (72643) - https://sketchapp.com -->
    <title>Group 22 Copy</title>
    <desc>Created with Sketch.</desc>
    <defs>
        <polygon id="path-1" points="0.532013143 0.229415084 216.060013 0.229415084 216.060013 174.967949 0.532013143 174.967949"></polygon>
    </defs>
    <g id="Mockup-|-KFZ-Zulassungen" stroke="none" stroke-width="1" fill="none" fill-rule="evenodd">
        <g id="Group-22-Copy">
            <path d="M394,333.506709 C394,290.15426 428.92,255 472,255 C515.08,255 550,290.15426 550,333.506709 C550,376.84574 515.08,412 472,412 C428.92,412 394,376.84574 394,333.506709" id="Fill-1" fill="#A4D1D1"></path>
            <g id="Group-5" transform="translate(363.000000, 434.000000)">
                <mask id="mask-2" fill="white">
                    <use xlink:href="#path-1"></use>
                </mask>
                <g id="Clip-4"></g>
                <path d="M216.066495,174.967949 L216.066495,110.217122 L216.040569,110.217122 C216.014643,49.4644033 167.792578,0.229415084 108.305735,0.229415084 C48.8059296,0.229415084 0.583864825,49.4644033 0.557938984,110.217122 L0.532013143,110.217122 L0.532013143,174.967949 L216.066495,174.967949 Z" id="Fill-3" fill="#A4D1D1" mask="url(#mask-2)"></path>
            </g>
            <path d="M30,333.506709 C30,290.15426 64.92,255 108,255 C151.08,255 186,290.15426 186,333.506709 C186,376.84574 151.08,412 108,412 C64.92,412 30,376.84574 30,333.506709" id="Fill-6" fill="#A4D1D1"></path>
            <path d="M214,609 L214,544.522843 L213.974259,544.522843 C213.948517,484.026896 166.069766,435 107.006435,435 C47.930234,435 0.0514825284,484.026896 0.0257412642,544.522843 L0,544.522843 L0,609 L214,609 Z" id="Fill-8" fill="#A4D1D1"></path>
            <path d="M215,386.493291 C215,343.15426 249.917016,308 293.006666,308 C336.082984,308 371,343.15426 371,386.493291 C371,429.84574 336.082984,465 293.006666,465 C249.917016,465 215,429.84574 215,386.493291" id="Fill-10" fill="#FFFFFF"></path>
            <path d="M400,656 L400,591.522843 L399.961388,591.522843 C399.948517,531.026896 352.069766,482 292.993565,482 C233.930234,482 186.051483,531.026896 186.025741,591.522843 L186,591.522843 L186,656 L400,656 Z" id="Fill-12" fill="#FFFFFF"></path>
            <polygon id="Fill-14" fill="#006097" points="244.108733 273 226.922528 229.986676 186 244.793869 238.878695 116 297 144.219803"></polygon>
            <polygon id="Fill-16" fill="#006097" points="342.891267 273 360.077472 229.986676 401 244.793869 348.121305 116 290 144.219803"></polygon>
            <path d="M197,98.5 C197,44.0937669 241.104081,0 295.506644,0 C349.895919,0 394,44.0937669 394,98.5 C394,152.906233 349.895919,197 295.506644,197 C241.104081,197 197,152.906233 197,98.5" id="Fill-18" fill="#A4D1D1"></path>
            <polygon id="Fill-20" fill="#006097" points="295 37 312.922534 75.1838227 353 81.317246 323.993794 111.031725 330.845067 153 295 133.177298 259.154933 153 266.006206 111.031725 237 81.317246 277.077466 75.1838227"></polygon>
        </g>
    </g>
</svg>