<?xml version="1.0" encoding="UTF-8"?>
<svg width="531px" height="535px" viewBox="0 0 531 535" version="1.1" xmlns="http://www.w3.org/2000/svg" xmlns:xlink="http://www.w3.org/1999/xlink">
    <!-- Generator: Sketch 53.2 (72643) - https://sketchapp.com -->
    <title>Group 8 Copy</title>
    <desc>Created with Sketch.</desc>
    <defs>
        <polygon id="path-1" points="0.261630836 0.247089097 141.434094 0.247089097 141.434094 143.106492 0.261630836 143.106492"></polygon>
    </defs>
    <g id="Mockup-|-KFZ-Zulassungen" stroke="none" stroke-width="1" fill="none" fill-rule="evenodd">
        <g id="Group-8-Copy" transform="translate(-93.000000, -98.000000)">
            <g id="Group-7">
                <polyline id="Path-7" stroke="#005F96" stroke-width="28" stroke-linecap="round" points="359.707944 208.298024 359.707944 390.793773 438.629209 461.159354"></polyline>
                <g id="Group-20" transform="translate(365.822470, 362.933324) rotate(63.000000) translate(-365.822470, -362.933324) translate(98.322470, 89.433324)">
                    <path d="M267.015453,546.111197 C119.776854,546.111197 9.09494702e-13,426.871699 9.09494702e-13,280.320564 C9.09494702e-13,177.204949 60.7310722,82.5254087 154.731472,39.1019559 L175.148946,82.8995407 C98.2075633,118.430015 48.4975621,195.923619 48.4975621,280.320564 C48.4975621,400.26005 146.52326,497.836097 267.015453,497.836097 C387.507646,497.836097 485.521219,400.26005 485.521219,280.320564 L534.018781,280.320564 C534.018781,426.871699 414.254051,546.111197 267.015453,546.111197" id="Fill-1" fill="#A6D2D3"></path>
                    <g id="Group-5" transform="translate(125.414322, 0.000000)">
                        <mask id="mask-2" fill="white">
                            <use xlink:href="#path-1"></use>
                        </mask>
                        <g id="Clip-4"></g>
                        <polygon id="Fill-3" fill="#A6D2D3" mask="url(#mask-2)" points="36.5442159 143.106492 141.434094 40.100359 0.261630836 0.240928443"></polygon>
                    </g>
                    <path d="M301.594517,60.6768173 C294.655183,59.8080834 287.563206,59.2680597 280.494713,59.0802253 L281.72759,12.1333793 C290.334244,12.3681722 298.999605,13.0138527 307.465359,14.0821606 L301.594517,60.6768173 Z" id="Fill-6" fill="#FFFFFF"></path>
                    <path d="M368.970235,90.1585261 C356.221654,83.5072212 342.785288,78.0739289 329.041875,74.0019451 L343.337972,28.3145253 C360.164134,33.2821067 376.597276,39.9334117 392.195251,48.0654381 L368.970235,90.1585261 Z M435.513407,143.345083 C426.387977,132.538205 416.083488,122.519453 404.906987,113.58736 L436.115219,76.688738 C449.748094,87.5911463 462.324729,99.8190391 473.488949,113.026119 L435.513407,143.345083 Z M476.227806,217.094562 C472.05197,203.720304 466.451438,190.668462 459.635,178.297273 L502.904028,155.692389 C511.267981,170.845901 518.108983,186.823362 523.230523,203.194887 L476.227806,217.094562 Z" id="Fill-8" fill="#FFFFFF"></path>
                    <path d="M534.018781,265.060617 L486.771251,265.638 C486.676732,258.384632 486.239584,251.119235 485.471619,244.010212 L532.423778,238.669423 C533.38078,247.34219 533.912448,256.231476 534.018781,265.060617" id="Fill-10" fill="#FFFFFF"></path>
                </g>
            </g>
        </g>
    </g>
</svg>