<svg width="120" height="142" viewBox="0 0 120 142" fill="none" xmlns="http://www.w3.org/2000/svg">
<path d="M90.9677 0H119.613C119.806 0 120 0.193975 120 0.387951V81.4699C120 81.4699 114.194 102.807 90.9677 120.265C67.7419 137.723 60 141.602 60 141.602C60 141.602 52.2581 137.723 29.0323 120.265C5.80645 102.807 0 81.4699 0 81.4699V0.387951C0 0.193975 0.193548 0 0.387097 0H29.0323H90.9677Z" fill="url(#paint0_linear)"/>
<path d="M85.8754 9.23877C96.4039 9.60295 109.788 9.23877 109.788 9.23877C110.144 9.23877 110.323 9.42086 110.323 9.60295V78.6149C110.323 78.6149 105.148 96.8238 85.697 111.755C66.246 126.687 59.8219 129.964 59.8219 129.964C59.8219 129.964 53.3977 126.687 33.9468 111.755C14.4959 96.8238 9.67773 78.6149 9.67773 78.6149V9.60295C9.67773 9.42086 9.85618 9.23877 10.0346 9.23877H85.8754Z" fill="#CCEBD6"/>
<path d="M60.0003 9.23876L46.9736 9.23877C46.9736 9.23877 45.546 9.23877 33.9468 9.23877C22.3476 9.23877 10.0346 9.23877 10.0346 9.23877C9.85618 9.23877 9.67773 9.42086 9.67773 9.60295V78.6149C9.67773 78.6149 14.4959 96.8238 33.9468 111.755C53.3977 126.687 59.8219 129.964 59.8219 129.964V9.23877L60.0003 9.23876Z" fill="#80CE99"/>
<circle cx="60" cy="60.6025" r="29" stroke="#007D29" stroke-width="4"/>
<path d="M73 60.6025C73 68.9287 71.3628 76.3682 68.8063 81.6517C66.1825 87.0743 62.9419 89.6025 60 89.6025C57.0581 89.6025 53.8175 87.0743 51.1937 81.6517C48.6372 76.3682 47 68.9287 47 60.6025C47 52.2764 48.6372 44.8368 51.1937 39.5534C53.8175 34.1308 57.0581 31.6025 60 31.6025C62.9419 31.6025 66.1825 34.1308 68.8063 39.5534C71.3628 44.8368 73 52.2764 73 60.6025Z" stroke="#007D29" stroke-width="4"/>
<line x1="31" y1="51.6025" x2="88" y2="51.6025" stroke="#007D29" stroke-width="4"/>
<line x1="31" y1="51.6025" x2="88" y2="51.6025" stroke="#007D29" stroke-width="4"/>
<line x1="31" y1="51.6025" x2="88" y2="51.6025" stroke="#007D29" stroke-width="4"/>
<line x1="31" y1="69.6025" x2="88" y2="69.6025" stroke="#007D29" stroke-width="4"/>
<line x1="31" y1="69.6025" x2="88" y2="69.6025" stroke="#007D29" stroke-width="4"/>
<line x1="31" y1="69.6025" x2="88" y2="69.6025" stroke="#007D29" stroke-width="4"/>
<defs>
<linearGradient id="paint0_linear" x1="120" y1="47.6024" x2="9.34602e-07" y2="47.6024" gradientUnits="userSpaceOnUse">
<stop stop-color="#118B39"/>
<stop offset="1" stop-color="#4CB970"/>
</linearGradient>
</defs>
</svg>
