<svg width="120" height="142" viewBox="0 0 120 142" fill="none" xmlns="http://www.w3.org/2000/svg">
<path d="M91 0H119.6C119.8 0 120 0.2 120 0.4V81.5C120 81.5 114.2 102.8 91 120.3C67.8 137.8 60 141.6 60 141.6C60 141.6 52.3 137.7 29 120.3C5.8 102.8 0 81.5 0 81.5V0.4C0 0.2 0.2 0 0.4 0H29H91Z" fill="url(#paint0_linear)"/>
<path d="M85.9002 9.19995C96.4002 9.59995 109.8 9.19995 109.8 9.19995C110.2 9.19995 110.3 9.39995 110.3 9.59995V78.6C110.3 78.6 105.1 96.7999 85.7002 111.7C66.2002 126.7 59.8002 130 59.8002 130C59.8002 130 53.4002 126.7 33.9002 111.8C14.5002 96.8 9.7002 78.6 9.7002 78.6V9.59995C9.7002 9.39995 9.9002 9.19995 10.1002 9.19995H85.9002Z" fill="#CCEBD6"/>
<path d="M59.9996 9.19995H46.9996C46.9996 9.19995 45.5996 9.19995 33.9996 9.19995C22.3996 9.19995 9.99961 9.19995 9.99961 9.19995C9.79961 9.19995 9.59961 9.39995 9.59961 9.59995V78.6C9.59961 78.6 14.3996 96.7999 33.8996 111.7C53.3996 126.7 59.7996 130 59.7996 130V9.19995H59.9996Z" fill="#80CE99"/>
<path d="M86.6366 52.4156H35.1475C33.292 52.4156 31.9004 50.9081 31.9004 49.1686C31.9004 47.3131 33.408 45.9215 35.1475 45.9215H86.7525C88.608 45.9215 89.9996 47.4291 89.9996 49.1686C89.9996 50.9081 88.492 52.4156 86.6366 52.4156Z" fill="#008C2E"/>
<path d="M38.1631 54.619V75.1451C38.1631 86.5098 47.3244 95.5552 58.5732 95.5552H62.864C74.2287 95.5552 83.2741 86.3938 83.2741 75.1451V54.619H38.1631ZM56.9497 88.4812L59.8488 75.8409H52.427L64.3715 58.214L61.9362 70.8543H69.3581L56.9497 88.4812Z" fill="#008C2E"/>
<path d="M51.2663 34.0929V43.8341H44.6562V34.0929C44.6562 32.2375 46.1638 30.8459 47.9033 30.8459C49.8747 30.7299 51.2663 32.2375 51.2663 34.0929Z" fill="#008C2E"/>
<path d="M77.0115 34.0929V43.8341H70.4014V34.0929C70.4014 32.2375 71.9089 30.8459 73.6484 30.8459C75.5039 30.7299 77.0115 32.2375 77.0115 34.0929Z" fill="#008C2E"/>
<defs>
<linearGradient id="paint0_linear" x1="120" y1="70.801" x2="0" y2="70.801" gradientUnits="userSpaceOnUse">
<stop stop-color="#168F3D"/>
<stop offset="1" stop-color="#4BB86F"/>
</linearGradient>
</defs>
</svg>
