<svg width="120" height="142" viewBox="0 0 120 142" fill="none" xmlns="http://www.w3.org/2000/svg">
<path d="M91 0H119.6C119.8 0 120 0.2 120 0.4V81.5C120 81.5 114.2 102.8 91 120.3C67.8 137.8 60 141.6 60 141.6C60 141.6 52.3 137.7 29 120.3C5.8 102.8 0 81.5 0 81.5V0.4C0 0.2 0.2 0 0.4 0H29H91Z" fill="url(#paint0_linear)"/>
<path d="M85.9002 9.2002C96.4002 9.6002 109.8 9.2002 109.8 9.2002C110.2 9.2002 110.3 9.4002 110.3 9.6002V78.6002C110.3 78.6002 105.1 96.8002 85.7002 111.7C66.2002 126.7 59.8002 130 59.8002 130C59.8002 130 53.4002 126.7 33.9002 111.8C14.5002 96.8002 9.7002 78.6002 9.7002 78.6002V9.6002C9.7002 9.4002 9.9002 9.2002 10.1002 9.2002H85.9002Z" fill="#CCEBD6"/>
<path d="M59.9996 9.2002H46.9996C46.9996 9.2002 45.5996 9.2002 33.9996 9.2002C22.3996 9.2002 9.99961 9.2002 9.99961 9.2002C9.79961 9.2002 9.59961 9.4002 9.59961 9.6002V78.6002C9.59961 78.6002 14.3996 96.8002 33.8996 111.7C53.3996 126.7 59.7996 130 59.7996 130V9.2002H59.9996Z" fill="#80CE99"/>
<path d="M79.6996 42.9004C89.3996 42.9004 97.2996 50.8004 97.2996 60.5004C97.2996 70.2004 89.3996 78.1004 79.6996 78.1004C69.9996 78.1004 62.0996 70.2004 62.0996 60.5004C62.0996 50.8004 69.9996 42.9004 79.6996 42.9004ZM79.6996 38.9004C67.7996 38.9004 58.0996 48.6004 58.0996 60.5004C58.0996 72.4004 67.7996 82.1004 79.6996 82.1004C91.5996 82.1004 101.3 72.4004 101.3 60.5004C101.3 48.6004 91.5996 38.9004 79.6996 38.9004Z" fill="#33B05C"/>
<path d="M79.7004 56.7002C81.8004 56.7002 83.5004 58.4002 83.5004 60.5002C83.5004 62.6002 81.8004 64.3002 79.7004 64.3002C77.6004 64.3002 75.9004 62.6002 75.9004 60.5002C75.9004 58.4002 77.6004 56.7002 79.7004 56.7002ZM79.7004 52.7002C75.4004 52.7002 71.9004 56.2002 71.9004 60.5002C71.9004 64.8002 75.4004 68.3002 79.7004 68.3002C84.0004 68.3002 87.5004 64.8002 87.5004 60.5002C87.5004 56.2002 84.0004 52.7002 79.7004 52.7002Z" fill="#33B05C"/>
<path d="M74.4998 58.5H58.7998V62.5H74.4998V58.5Z" fill="#33B05C"/>
<path d="M100.7 58.5H85V62.5H100.7V58.5Z" fill="#33B05C"/>
<path d="M81.7002 65.7002H77.7002V81.4002H81.7002V65.7002Z" fill="#33B05C"/>
<path d="M58.0998 24.5996C50.1998 24.5996 43.7998 30.9996 43.7998 38.8996C43.7998 46.7996 50.1998 53.1996 58.0998 53.1996C58.4998 53.1996 58.9998 53.1996 59.3998 53.0996C61.5998 47.0996 66.2998 42.3996 72.2998 40.1996C72.2998 39.7996 72.3998 39.2996 72.3998 38.8996C72.3998 30.9996 65.9998 24.5996 58.0998 24.5996Z" fill="#008C2E"/>
<path d="M79.7 82.1003C67.8 82.1003 58.1 72.4003 58.1 60.5003C58.1 59.3003 58.2 58.2003 58.4 57.1003C58.3 57.1003 58.2 57.1003 58.1 57.1003C44 57.0003 32.5 68.6003 32.5 82.6003V96.8003H83.7V82.6003C83.7 82.3003 83.7 82.0002 83.7 81.7002C82.4 82.0002 81.1 82.1003 79.7 82.1003Z" fill="#008C2E"/>
<defs>
<linearGradient id="paint0_linear" x1="120" y1="70.801" x2="0" y2="70.801" gradientUnits="userSpaceOnUse">
<stop stop-color="#168F3D"/>
<stop offset="1" stop-color="#4BB86F"/>
</linearGradient>
</defs>
</svg>
