<svg width="120" height="142" viewBox="0 0 120 142" fill="none" xmlns="http://www.w3.org/2000/svg">
<path d="M90.9677 0H119.613C119.806 0 120 0.193975 120 0.387951V81.4699C120 81.4699 114.194 102.807 90.9677 120.265C67.7419 137.723 60 141.602 60 141.602C60 141.602 52.2581 137.723 29.0323 120.265C5.80645 102.807 0 81.4699 0 81.4699V0.387951C0 0.193975 0.193548 0 0.387097 0H29.0323H90.9677Z" fill="url(#paint0_linear)"/>
<path d="M85.8754 9.23877C96.4039 9.60295 109.788 9.23877 109.788 9.23877C110.144 9.23877 110.323 9.42086 110.323 9.60295V78.6149C110.323 78.6149 105.148 96.8238 85.697 111.755C66.246 126.687 59.8219 129.964 59.8219 129.964C59.8219 129.964 53.3977 126.687 33.9468 111.755C14.4959 96.8238 9.67773 78.6149 9.67773 78.6149V9.60295C9.67773 9.42086 9.85618 9.23877 10.0346 9.23877H85.8754Z" fill="#CCEBD6"/>
<path d="M60.0003 9.23876L46.9736 9.23877C46.9736 9.23877 45.546 9.23877 33.9468 9.23877C22.3476 9.23877 10.0346 9.23877 10.0346 9.23877C9.85618 9.23877 9.67773 9.42086 9.67773 9.60295V78.6149C9.67773 78.6149 14.4959 96.8238 33.9468 111.755C53.3977 126.687 59.8219 129.964 59.8219 129.964V9.23877L60.0003 9.23876Z" fill="#80CE99"/>
<path d="M60 31.6025L68.6757 49.7389L88.5317 52.4209L74.0376 66.3118L77.6336 86.1058L60 76.5545L42.3664 86.1058L45.9624 66.3118L31.4683 52.4209L51.3243 49.7389L60 31.6025Z" fill="#008C2E"/>
<defs>
<linearGradient id="paint0_linear" x1="120" y1="52.1024" x2="5.7528e-07" y2="52.1024" gradientUnits="userSpaceOnUse">
<stop stop-color="#168F3D"/>
<stop offset="1" stop-color="#4BB86F"/>
</linearGradient>
</defs>
</svg>
