<svg width="120" height="142" viewBox="0 0 120 142" fill="none" xmlns="http://www.w3.org/2000/svg">
<path d="M91 0H119.6C119.8 0 120 0.2 120 0.4V81.5C120 81.5 114.2 102.8 91 120.3C67.8 137.8 60 141.6 60 141.6C60 141.6 52.3 137.7 29 120.3C5.8 102.8 0 81.5 0 81.5V0.4C0 0.2 0.2 0 0.4 0H29H91Z" fill="url(#paint0_linear)"/>
<path d="M85.9002 9.19995C96.4002 9.59995 109.8 9.19995 109.8 9.19995C110.2 9.19995 110.3 9.39995 110.3 9.59995V78.6C110.3 78.6 105.1 96.7999 85.7002 111.7C66.2002 126.7 59.8002 130 59.8002 130C59.8002 130 53.4002 126.7 33.9002 111.8C14.5002 96.8 9.7002 78.6 9.7002 78.6V9.59995C9.7002 9.39995 9.9002 9.19995 10.1002 9.19995H85.9002Z" fill="#CCEBD6"/>
<path d="M59.9996 9.19995H46.9996C46.9996 9.19995 45.5996 9.19995 33.9996 9.19995C22.3996 9.19995 9.99961 9.19995 9.99961 9.19995C9.79961 9.19995 9.59961 9.39995 9.59961 9.59995V78.6C9.59961 78.6 14.3996 96.7999 33.8996 111.7C53.3996 126.7 59.7996 130 59.7996 130V9.19995H59.9996Z" fill="#80CE99"/>
<path d="M83.0295 45.6929C84.7171 44.6702 86.0029 43.3328 86.8869 41.9168C87.2083 41.3661 86.8065 40.6581 86.1636 40.6581H78.8507C77.7257 40.6581 76.8417 39.7927 76.8417 38.6914V35.3873C76.8417 34.2859 77.7257 33.4206 78.8507 33.4206H86.1636C86.8065 33.4206 87.2083 32.7126 86.8869 32.1619C86.0832 30.6672 84.7975 29.3298 83.0295 28.3071C79.6543 26.4191 75.2345 26.5764 72.1004 28.7791C70.6539 29.8018 69.6092 31.1392 68.8055 32.4766H36.5806C34.0894 32.4766 32 34.5219 32 36.9607C32 39.3994 34.0894 41.4448 36.5806 41.4448H68.8055C69.5288 42.8608 70.6539 44.1982 72.1807 45.2209C75.3148 47.4236 79.6543 47.5809 83.0295 45.6929Z" fill="#33B05C"/>
<path d="M84.4 72.8C80.9 72.7 78 75.5 78 79V79.1C78 82.7 80.8 85.5 84.3 85.5C87.8 85.5 90.7 82.6 90.7 79.1C90.6 75.7 87.9 72.8 84.4 72.8Z" fill="#008C2E"/>
<path d="M37.7008 72.8C34.2008 72.7 31.3008 75.6 31.2008 79.1C31.1008 82.6 34.0008 85.5 37.5008 85.6C41.0008 85.7 43.9008 82.8 44.0008 79.3C44.0008 75.6 41.3008 72.8 37.7008 72.8Z" fill="#008C2E"/>
<path d="M98.8003 74.2C98.6003 70.7 97.2003 68 94.2003 66.1C92.1003 64.8 89.8003 63.9 87.3003 63.5C83.5003 62.9 80.2003 61.2 77.0003 59.1C74.8003 57.6 72.6003 56.1 70.3003 54.8C67.8003 53.3 65.1003 52.1 62.1003 51.9C58.3003 51.6 54.4003 51.7 50.5003 51.5C50.5003 51.5 50.5003 51.6 50.5003 51.5C48.1003 51.5 45.6003 51.4 43.2003 51.5C40.0003 51.6 36.9003 52.3 34.6003 54.8C33.5003 56.1 32.5003 57.4 31.5003 58.8C30.7003 59.9 29.9003 60.7 28.5003 61C24.5003 62 21.9003 64.5 21.4003 68.8C21.2003 70.6 20.9003 72.3 21.0003 74.1C21.0003 75.9 21.4003 77.7 21.7003 79.5C21.9003 80.4 22.4003 81.2 23.4003 81.3C25.0003 81.4 26.7003 81.3 28.3003 81.3C29.0003 81.3 29.4003 80.9 29.4003 80.1C29.4003 79.4 29.5003 78.7 29.6003 78.1C30.0003 74.5 32.6003 71.7 36.1003 71.1C40.0003 70.5 43.3003 72.2 44.7003 75.6C45.2003 76.8 45.4003 78.2 45.6003 79.6C45.7003 80.6 46.2003 80.9 47.1003 81C56.1003 81.1 65.0003 81.2 74.0003 81.3C75.7003 81.3 76.2003 80.8 76.2003 79.1C76.2003 76.6 77.1003 74.6 79.0003 73C82.8003 69.8 89.6003 70.8 91.4003 75.9C91.9003 77.3 92.0003 78.8 92.2003 80.3C92.3003 80.9 92.4003 81.2 93.0003 81.2C94.2003 81.2 95.4003 81.3 96.6003 81.2C98.1003 81.1 98.7003 80.4 98.7003 78.9C98.9003 77.2 98.9003 75.7 98.8003 74.2ZM27.2003 66.1C25.3003 66.3 24.4003 67.5 23.8003 69.1C23.4003 70.2 23.0003 71.3 22.7003 72.4H22.4003C22.4003 71.8 22.3003 71.1 22.4003 70.6C22.8003 68.9 23.1003 67.3 23.6003 65.7C24.1003 64.3 25.9003 63.6 27.2003 64.1C27.6003 64.3 28.1003 64.8 28.1003 65.2C28.2003 65.4 27.6003 66.1 27.2003 66.1ZM53.1003 62H35.9003C35.9003 59 34.6003 53.1 53.0003 53.8L53.1003 62ZM55.6003 61.9V53.8C69.4003 53.8 72.9003 59.3 72.9003 61.9H55.6003ZM91.1003 69.1C90.1003 68.4 89.7003 67.1 90.2003 66.5C91.0003 65.6 91.9003 66.1 92.7003 66.4C94.3003 67 96.1003 69.1 96.8003 70.8C94.7003 70.6 92.7003 70.3 91.1003 69.1Z" fill="#008C2E"/>
<defs>
<linearGradient id="paint0_linear" x1="120" y1="70.801" x2="0" y2="70.801" gradientUnits="userSpaceOnUse">
<stop stop-color="#168F3D"/>
<stop offset="1" stop-color="#4BB86F"/>
</linearGradient>
</defs>
</svg>
