<?xml version="1.0" encoding="utf-8"?>
<!-- Generator: Adobe Illustrator 24.3.0, SVG Export Plug-In . SVG Version: 6.00 Build 0)  -->
<svg version="1.1" id="image1" xmlns="http://www.w3.org/2000/svg" xmlns:xlink="http://www.w3.org/1999/xlink" x="0px" y="0px"
	 viewBox="0 0 1466 658" style="enable-background:new 0 0 1466 658;" xml:space="preserve">
<style type="text/css">
	.st0{fill:#009C33;}
	.st1{fill:#D4E5D3;}
	.st2{fill:url(#SVGID_1_);}
	.st3{fill:url(#SVGID_2_);}
	.st4{fill:url(#SVGID_3_);}
	.st5{fill:url(#SVGID_4_);}
	.st6{clip-path:url(#SVGID_6_);fill:url(#SVGID_7_);}
	.st7{fill:#FAD1B6;}
	.st8{clip-path:url(#SVGID_9_);fill:#D4E5D3;}
	.st9{fill:url(#SVGID_13_);}
	.st10{fill:none;}
	.st11{fill:url(#SVGID_14_);}
	.st12{fill:#0B8735;}
	.st13{fill:#C8DFC7;}
	.st14{fill:#59B267;}
	.st15{fill:#FFFFFF;}
	.st16{fill:url(#SVGID_15_);}
	.st17{fill:url(#SVGID_16_);}
	.st18{fill:url(#SVGID_17_);}
	.st19{fill:url(#SVGID_18_);}
	.st20{fill:url(#SVGID_19_);}
	.st21{fill:none;stroke:#009C33;stroke-width:1.39;stroke-linecap:round;stroke-linejoin:round;}
	.st22{fill:none;stroke:#C8DFC7;stroke-width:1.67;stroke-linecap:round;stroke-linejoin:round;}
	.st23{fill:#4DBA71;}
	.st24{fill:none;stroke:#C8DFC7;stroke-width:1.37;stroke-linecap:round;stroke-linejoin:round;}
	.st25{fill:#66C485;}
</style>
<g id="Ebene_2">
	<g>
		<polygon class="st0" points="282.9,631.9 269.6,631.9 265.3,518.1 287,518.1 		"/>
		<polygon class="st0" points="258.3,512.1 258.3,517.9 296.7,533.8 571.3,533.8 571.3,528.1 296.7,528.1 		"/>
		<rect x="506.7" y="417" class="st0" width="21.7" height="95.7"/>
		<rect x="258.4" y="428.5" class="st0" width="269.8" height="17.7"/>
		<rect x="258.4" y="455.7" class="st0" width="269.8" height="17.7"/>
		<rect x="258.4" y="481.4" class="st0" width="269.8" height="17.7"/>
		<rect x="258.4" y="417" class="st0" width="21.7" height="95.7"/>
		<polygon class="st0" points="329.4,631.9 316,631.9 311.8,533.8 333.5,533.8 		"/>
		<polygon class="st0" points="511.9,631.9 498.6,631.9 494.3,518.1 516,518.1 		"/>
		<polygon class="st0" points="558.4,631.9 545,631.9 540.8,533.8 562.4,533.8 		"/>
		<polygon class="st1" points="571.3,528.1 296.7,528.1 258.3,512.1 528.9,511.7 		"/>
	</g>
	<g>
		<path class="st1" d="M431.8,422.9c0,0,10.3-4.3,11.5-4.3c4.1,0,11.4,8.6,11.5,9.9h-16L431.8,422.9z"/>
		<linearGradient id="SVGID_1_" gradientUnits="userSpaceOnUse" x1="459.1673" y1="398.4138" x2="343.1824" y2="411.8225">
			<stop  offset="0" style="stop-color:#C8DFC7"/>
			<stop  offset="0.1689" style="stop-color:#ABD3AD"/>
			<stop  offset="0.4082" style="stop-color:#87C58F"/>
			<stop  offset="0.6334" style="stop-color:#6EBA79"/>
			<stop  offset="0.8371" style="stop-color:#5EB46C"/>
			<stop  offset="1" style="stop-color:#59B267"/>
		</linearGradient>
		<path class="st2" d="M438.6,418.6c-9.5,0.4-29.9,2-42.1,1.9c-0.9-16.8-8-45.8-8-45.8s-11.9,47.6-8.1,55.7c2,4.4,5,6.7,7.9,6.6
			c12.1,2.3,53.1-7.4,53.1-7.4S441.8,421.9,438.6,418.6z"/>
		<linearGradient id="SVGID_2_" gradientUnits="userSpaceOnUse" x1="362.6626" y1="547.4672" x2="441.255" y2="547.4672">
			<stop  offset="0" style="stop-color:#C8DFC7"/>
			<stop  offset="0.1689" style="stop-color:#ABD3AD"/>
			<stop  offset="0.4082" style="stop-color:#87C58F"/>
			<stop  offset="0.6334" style="stop-color:#6EBA79"/>
			<stop  offset="0.8371" style="stop-color:#5EB46C"/>
			<stop  offset="1" style="stop-color:#59B267"/>
		</linearGradient>
		<path class="st3" d="M365.1,472.9c0,0-8.8,37.8,7.3,50.2c19.3,14.7,36,19.2,43.7,27.2c0.9,20.1,1.7,68.2,1.7,68.2s2.3,3.4,8.8,3.5
			c6.4,0.1,6.4-4.3,6.4-4.3s11.9-73.8,7.2-82.9c-4.7-9.1-54.2-61.5-54.2-61.5L365.1,472.9z"/>
		<path class="st0" d="M417.7,618.5c1,2.4,14.5,0.6,14.5,0.6s0.7-1.3,0.7-1.3c1,5.9,2.3,16.6,4.6,19.3c3.5,4,11.1,12.6,5.5,15.3
			c-5.7,2.6-17.3,1-20.2-6.2c-2.9-7.1-5.4-6.2-7-9c-1.6-2.7-0.8-9.5,1-11.4C417.9,624.8,417.4,621.4,417.7,618.5z"/>
		<linearGradient id="SVGID_3_" gradientUnits="userSpaceOnUse" x1="331.2896" y1="549.3481" x2="410.8207" y2="549.3481">
			<stop  offset="0" style="stop-color:#C8DFC7"/>
			<stop  offset="0.1689" style="stop-color:#ABD3AD"/>
			<stop  offset="0.4082" style="stop-color:#87C58F"/>
			<stop  offset="0.6334" style="stop-color:#6EBA79"/>
			<stop  offset="0.8371" style="stop-color:#5EB46C"/>
			<stop  offset="1" style="stop-color:#59B267"/>
		</linearGradient>
		<path class="st4" d="M331.7,472.9c0,0-3.9,42.5,12.7,55.2c30.3,11,31.7,16,39.6,24.1c1,20.6,1.7,70,1.7,70s2.3,3.5,9,3.6
			c6.5,0.1,6.6-4.4,6.6-4.4s13.3-78.4,8.5-87.6c-4.8-9.3-40.8-44.2-40.8-44.2L331.7,472.9z"/>
		<linearGradient id="SVGID_4_" gradientUnits="userSpaceOnUse" x1="319.0669" y1="424.354" x2="388.4743" y2="424.354">
			<stop  offset="0" style="stop-color:#C8DFC7"/>
			<stop  offset="0.1689" style="stop-color:#ABD3AD"/>
			<stop  offset="0.4082" style="stop-color:#87C58F"/>
			<stop  offset="0.6334" style="stop-color:#6EBA79"/>
			<stop  offset="0.8371" style="stop-color:#5EB46C"/>
			<stop  offset="1" style="stop-color:#59B267"/>
		</linearGradient>
		<path class="st5" d="M351.2,358.4c-8.7,11.2-32.1,16.5-32.1,16.5s4.3,35.5,7.1,56.3c2.8,20.8,5.5,41.7,5.5,41.7s-1,2.5,4.6,4.4
			s-0.2,4,14.2,8.5c9.1,2.8,22.7,4.5,22.7,4.5c6.9-3.2,20.6-15,12.7-22c-1.9-16-2.4-21.3-2.1-27.4c0.2-3.5,1.1-20.5,1.6-25
			c2.5-20.9,3.2-41.1,3.2-41.1c-12-4.4-25.1-12.5-25.1-12.5L351.2,358.4z"/>
		<g>
			<defs>
				<path id="SVGID_5_" d="M351.2,358.4c-8.7,11.2-32.1,16.5-32.1,16.5s4.3,35.5,7.1,56.3c2.8,20.8,3,39.7,3,39.7s4,0.7,9.7,2.5
					s0.3,8.1,7.8,10.9c8.9,3.4,26.5,5.9,26.5,5.9c6.9-3.2,22.1-2.7,14.1-9.7c-1.9-16-3.8-33.6-3.5-39.7c0.2-3.5,1.1-20.5,1.6-25
					c2.5-20.9,3.2-41.1,3.2-41.1c-12-4.4-25.1-12.5-25.1-12.5L351.2,358.4z"/>
			</defs>
			<clipPath id="SVGID_6_">
				<use xlink:href="#SVGID_5_"  style="overflow:visible;"/>
			</clipPath>
			<linearGradient id="SVGID_7_" gradientUnits="userSpaceOnUse" x1="305.0663" y1="450.0805" x2="339.9359" y2="450.0805">
				<stop  offset="0" style="stop-color:#C8DFC7"/>
				<stop  offset="0.1689" style="stop-color:#ABD3AD"/>
				<stop  offset="0.4082" style="stop-color:#87C58F"/>
				<stop  offset="0.6334" style="stop-color:#6EBA79"/>
				<stop  offset="0.8371" style="stop-color:#5EB46C"/>
				<stop  offset="1" style="stop-color:#59B267"/>
			</linearGradient>
			<path class="st6" d="M328.6,400.9l7.5-2.9l3.8,104.2h-34.9C305.1,502.2,307,408.1,328.6,400.9z"/>
		</g>
		<path class="st7" d="M349.9,348.3l-2.5,18.6c0,0,8,6.4,16.2,3c0,0-1.1-9.3,0.6-14.7C365.4,351.8,349.9,348.3,349.9,348.3z"/>
		<g>
			<defs>
				<path id="SVGID_8_" d="M349.9,348.3l-2.5,18.6c0,0,8,6.4,16.2,3c0,0-1.1-9.3,0.6-14.7C365.4,351.8,349.9,348.3,349.9,348.3z"/>
			</defs>
			<use xlink:href="#SVGID_8_"  style="overflow:visible;fill:#D4E5D3;"/>
			<clipPath id="SVGID_9_">
				<use xlink:href="#SVGID_8_"  style="overflow:visible;"/>
			</clipPath>
			<path class="st8" d="M349.7,346.5c0,0-1.1,20,14.1,18.4c15.2-1.6,4.9-15.2,4.9-15.2S358,339.4,349.7,346.5z"/>
		</g>
		<path class="st1" d="M357.7,317.9c8.9-1.1,17.1,6.1,18.4,16.2c0.3,2.8,0.1,5.5-0.6,7.9c-0.5,3.3-1.1,8.3-4.1,12.6
			c-1.5,2.2-1.5,2.8-2.1,4c-1.7,3.4-2,2.5-9,0c-2.5-0.9-5.2-2.2-7.1-3.7c-4-3.1-6.8-6.8-7.9-11.5c-0.7-1.6-1.2-3.4-1.4-5.3
			C342.6,328.1,348.8,319,357.7,317.9z"/>
		<g>
			<path class="st0" d="M340,334c-0.8-6.1,4.4-11.4,4.4-11.4s-2.2-5.6,10.2-7.7c18.7-3.2,23.3,6.4,21.8,11.5
				c2.2,4.3-0.3,12.6-0.3,12.6c0-4.4-0.7-8.4-1.5-10.4c-1.6,1.3-5.7,3-19.7,1.5c0,0,2.4,8.3-0.4,9.1c0,0-0.3,5.3-0.9,5.5
				c-0.6,0.2-2.7-5.6-2.7-5.6c-0.3,0.2,0.5,4.7,0.2,6.4c-0.4,2.2-1,6-0.1,7.4C347.2,352,340.7,339.2,340,334z"/>
			<path class="st0" d="M347.3,348.4c0.2,0.3,0.3,0.4,0.3,0.4C347.4,348.6,347.3,348.5,347.3,348.4z"/>
		</g>
		<path class="st1" d="M353.1,345.9c0,0,0.4,0.6-1.4,0.3c-4-0.6-8.9-10.3-1.1-7.7L353.1,345.9z"/>
		<g>
			<defs>
				<path id="SVGID_10_" d="M319.1,374.9c-8.3,2.8-11.7,24.9-16.4,48.3c-0.5,2.7-2.9,15.7-2.9,15.7s8.5,15.6,17.5,32.5
					c5.9,11.2,14.5,20.5,14.5,20.5s7.7-7,5.9-10.5c-8-15.7-17-39-19.9-44.4c2.3-5.4,18.5-27.6,18.2-39.1c0,0-7.1-21.2-13.5-23.1
					C321.4,374.6,320.3,374.5,319.1,374.9z"/>
			</defs>
			<linearGradient id="SVGID_11_" gradientUnits="userSpaceOnUse" x1="299.8087" y1="433.2899" x2="338.0186" y2="433.2899">
				<stop  offset="0" style="stop-color:#C8DFC7"/>
				<stop  offset="0.1689" style="stop-color:#ABD3AD"/>
				<stop  offset="0.4082" style="stop-color:#87C58F"/>
				<stop  offset="0.6334" style="stop-color:#6EBA79"/>
				<stop  offset="0.8371" style="stop-color:#5EB46C"/>
				<stop  offset="1" style="stop-color:#59B267"/>
			</linearGradient>
			<use xlink:href="#SVGID_10_"  style="overflow:visible;fill:url(#SVGID_11_);"/>
			<clipPath id="SVGID_12_">
				<use xlink:href="#SVGID_10_"  style="overflow:visible;"/>
			</clipPath>
		</g>
		<path class="st0" d="M385.7,622.2c1,2.5,14.9,0.6,14.9,0.6s0.7-1.4,0.7-1.4c1.1,6,2.4,17,4.7,19.7c3.6,4.2,11.4,13,5.6,15.7
			c-5.8,2.7-17.7,1-20.7-6.3c-3-7.3-5.5-6.4-7.1-9.2s-0.8-9.8,1.1-11.7C385.8,628.7,385.3,625.2,385.7,622.2z"/>
		<linearGradient id="SVGID_13_" gradientUnits="userSpaceOnUse" x1="346.4804" y1="365.885" x2="366.9491" y2="365.885">
			<stop  offset="0" style="stop-color:#C8DFC7"/>
			<stop  offset="0.1689" style="stop-color:#ABD3AD"/>
			<stop  offset="0.4082" style="stop-color:#87C58F"/>
			<stop  offset="0.6334" style="stop-color:#6EBA79"/>
			<stop  offset="0.8371" style="stop-color:#5EB46C"/>
			<stop  offset="1" style="stop-color:#59B267"/>
		</linearGradient>
		<path class="st9" d="M348.7,358c0,0,6.5,7.2,14.7,2.8c0,0,3.9,4,3.5,6.3c-0.4,2.2-1.5,7.9-9.7,6.6c-8.2-1.3-10.7-5.9-10.7-5.9
			S346.4,360.3,348.7,358z"/>
	</g>
</g>
<g id="Ebene_1">
	<rect x="260" y="319" class="st10" width="309" height="339"/>
	
		<linearGradient id="SVGID_14_" gradientUnits="userSpaceOnUse" x1="1056.6035" y1="380.31" x2="1056.6035" y2="11.32" gradientTransform="matrix(1 0 0 -1 0 660)">
		<stop  offset="0.36" style="stop-color:#59B267"/>
		<stop  offset="0.72" style="stop-color:#C8DFC7"/>
		<stop  offset="0.76" style="stop-color:#ABD3AD"/>
		<stop  offset="0.82" style="stop-color:#87C58F"/>
		<stop  offset="0.88" style="stop-color:#6EBA79"/>
		<stop  offset="0.93" style="stop-color:#5EB46C"/>
		<stop  offset="0.98" style="stop-color:#59B267"/>
	</linearGradient>
	<path class="st11" d="M650.7,540.5l-2.6-20.4c-0.8-6,1.9-10.9,6-10.9h7.4c0,0,8.9-68,46.2-73.1c27.7-3.8,169.7-20.5,181.6-33
		c46.4-49,74.2-81.1,100.4-81.1h115c9.1,0,16.4,7.4,16.4,16.4v74.8h303c3.1,0.1,5.8,2.3,6.3,5.4l14.6,96.9c0,0,17.6-6.9,20,17.3
		c2.4,24.2-21.8,20.7-21.8,20.7l-60.4,19.2L701.6,576h-11c-6,0-14.6-3.3-19.1-7.3l-11.2-10C655.7,554.6,651.5,546.5,650.7,540.5z"/>
	<path class="st12" d="M721.6,542.5l-9.5-36.5h-50c-0.3,2-0.5,3.2-0.5,3.2h-7.4c-4.1,0-6.8,4.9-6,10.9l2.5,20.4
		c0.8,6,5,14.1,9.5,18.2l11.2,10c4.5,4,13.1,7.3,19.1,7.3h11l73.4-0.3l6.6-33.1L721.6,542.5z"/>
	<path class="st12" d="M1443.2,553.5c0,0,24.2,3.5,21.8-20.7c-2.4-24.2-20-17.3-20-17.3l-0.3-2.1c-8.2,5.7-19.3,12.9-25.9,15.9
		c-11.5,5.1-54.4,13.2-54.4,13.2s1.1,17.5,2,30.4l16.4-0.1L1443.2,553.5z"/>
	<path class="st12" d="M834,575.4l461.2-2.2v-16.3H834V575.4z"/>
	<path class="st12" d="M863.3,494.9c-62.9,0-87.8,7.9-100.3,34.4l-6.5,31.9c-0.6,3.8-0.9,7.7-0.9,11.6h155.7
		C911.3,529.8,906.2,494.9,863.3,494.9z"/>
	<path class="st0" d="M832.8,638.4c37.5-1.7,66.5-32.5,64.8-68.8s-33.4-64.2-70.9-62.5c-37.5,1.7-66.5,32.5-64.8,68.8
		S795.3,640.2,832.8,638.4z"/>
	<path class="st13" d="M834.4,622.3c27-1.3,47.9-23.9,46.7-50.6c-1.2-26.7-24.2-47.3-51.2-46.1c-27,1.3-47.9,23.9-46.7,50.6
		C784.4,603,807.3,623.6,834.4,622.3z"/>
	<path class="st14" d="M797.7,574.3c1,18.6,16.9,32.8,35.5,31.8c18.6-1,32.8-16.9,31.8-35.5c-1-18.5-16.7-32.7-35.2-31.8
		C811.1,539.8,796.8,555.6,797.7,574.3z"/>
	<path class="st13" d="M790.1,582.4l-1.4-12.8l26.4-1.4c0.1-0.5,0.3-1,0.5-1.4l-20.7-15.4l8-10.1l19.6,17.5c0.4-0.3,0.9-0.5,1.3-0.7
		l-4.1-26.1l12.8-1.3l1.8,26c0.7,0.1,1.3,0.3,2,0.5l16.2-21l9.8,8.5l-17.2,18.7c0.8,1.1,1.5,2.3,2,3.6l26-2.3l0.4,12.9h-26.1
		c-0.1,0.4-0.3,0.8-0.4,1.2l20.6,17.1l-8.8,9.5L840,586.8c-0.7,0.4-1.4,0.8-2.2,1.1l5.5,25.8l-12.7,2.3l-3.5-27.3
		c-0.5-0.1-1-0.3-1.5-0.4l0.3,0.2l-15.2,22.1l-10.4-7.7l17.1-20.7c-0.7-1-1.3-2.1-1.8-3.2L790.1,582.4z"/>
	<path class="st15" d="M834.4,564.1c0.1,2,1.8,3.6,3.8,3.5c2-0.1,3.6-1.8,3.5-3.8c-0.1-2-1.8-3.6-3.8-3.5
		C835.9,560.3,834.3,562,834.4,564.1z"/>
	<path class="st15" d="M818.7,566.5c0.1,2,1.8,3.6,3.8,3.5s3.6-1.8,3.5-3.8c-0.1-2-1.8-3.6-3.8-3.5
		C820.2,562.8,818.6,564.5,818.7,566.5z"/>
	<path class="st15" d="M821.5,582.1c0.1,2,1.8,3.6,3.8,3.5c2-0.1,3.6-1.8,3.5-3.8s-1.8-3.6-3.8-3.5
		C823,578.4,821.4,580.1,821.5,582.1z"/>
	<path class="st15" d="M837.4,579.6c0.1,2,1.8,3.6,3.8,3.5c2-0.1,3.6-1.8,3.5-3.8c-0.1-2-1.8-3.6-3.8-3.5
		C838.9,575.9,837.3,577.6,837.4,579.6z"/>
	<path class="st12" d="M1331.7,494.9c-62.9,0-87.8,7.9-100.3,34.4l-6.5,31.9c-0.6,3.8-0.9,7.7-0.9,11.6h155.7
		C1379.8,529.8,1374.6,494.9,1331.7,494.9z"/>
	<path class="st0" d="M1301.3,638.5c37.5-1.7,66.5-32.5,64.8-68.8c-1.7-36.2-33.4-64.2-70.9-62.5c-37.5,1.7-66.5,32.5-64.8,68.8
		C1232.1,612.3,1263.8,640.3,1301.3,638.5z"/>
	<path class="st13" d="M1302.9,622.3c27-1.3,47.9-23.9,46.7-50.6c-1.2-26.7-24.2-47.3-51.2-46.1c-27,1.3-47.9,23.9-46.7,50.6
		C1252.9,603,1275.8,623.6,1302.9,622.3z"/>
	<path class="st14" d="M1266.2,574.3c1,18.6,16.9,32.8,35.5,31.8s32.8-16.9,31.8-35.5c-1-18.5-16.7-32.7-35.2-31.8
		C1279.6,539.8,1265.2,555.6,1266.2,574.3z"/>
	<path class="st13" d="M1258.5,582.4l-1.4-12.8l26.4-1.4c0.1-0.5,0.3-1,0.5-1.4l-20.7-15.4l8-10.1l19.6,17.5
		c0.4-0.3,0.9-0.5,1.3-0.7l-4.1-26.1l12.8-1.3l1.8,26c0.7,0.1,1.3,0.3,2,0.5l16.2-21l9.8,8.5l-17.2,18.7c0.8,1.1,1.5,2.3,2,3.6
		l26-2.3l0.4,12.9h-26.1c-0.1,0.4-0.3,0.8-0.4,1.2l20.6,17.1l-8.8,9.5l-18.8-18.6c-0.7,0.4-1.4,0.8-2.2,1.1l5.5,25.8L1299,616
		l-3.5-27.3c-0.5-0.1-1-0.3-1.5-0.4l0.3,0.2l-15.2,22.1l-10.4-7.7l17.1-20.6c-0.7-1-1.3-2.1-1.8-3.2L1258.5,582.4z"/>
	<path class="st15" d="M1302.9,564.1c0.1,2,1.8,3.6,3.8,3.5c2-0.1,3.6-1.8,3.5-3.8s-1.8-3.6-3.8-3.5
		C1304.4,560.3,1302.8,562,1302.9,564.1z"/>
	<path class="st15" d="M1287.1,566.5c0.1,2,1.8,3.6,3.8,3.5s3.6-1.8,3.5-3.8c-0.1-2-1.8-3.6-3.8-3.5
		C1288.6,562.8,1287,564.5,1287.1,566.5z"/>
	<path class="st15" d="M1289.9,582.1c0.1,2,1.8,3.6,3.9,3.5c2-0.1,3.6-1.8,3.5-3.9c-0.1-2-1.8-3.6-3.9-3.5
		C1291.4,578.4,1289.9,580.1,1289.9,582.1z"/>
	<path class="st15" d="M1305.8,579.6c0.1,2,1.8,3.6,3.8,3.5c2-0.1,3.6-1.8,3.5-3.8s-1.8-3.6-3.8-3.5
		C1307.3,575.9,1305.7,577.6,1305.8,579.6z"/>
	<path class="st13" d="M905.8,398.3c0,0,37-39,58.1-56.3c10.3-8.5,9.7-10.4,5.6-14.3c-21,11.3-45.4,38.6-80.2,75.5
		c-1.2,1.3-3.9,2.6-7.6,4C890.7,407.9,899.5,404.7,905.8,398.3z"/>
	<path class="st0" d="M916.8,413.5h174.8V335h-96.4L916.8,413.5z"/>
	<path class="st13" d="M938,411.6h142.3c3.9,0,7-3.1,7-7v-60.7c0-3.9-3.1-7-7-7h-81.8c-1.9,0-3.7,0.7-5,2.1L933,399.7
		c-2.7,2.7-2.8,7.2,0,9.9C934.3,410.9,936.1,411.7,938,411.6z"/>
	<path class="st15" d="M1434.5,446c-10.3-4.5-29.1-10.4-30.2-6s16.3,24.2,35.2,39.2L1434.5,446z"/>
	<path class="st15" d="M681.4,482.7c1-7.5,2.8-17.6,4.7-20.8c7.1-11.5,24.4-18.2,47.6-18.5c0,1.8-1.2,6.6-5.7,13.2
		C723.1,464,708.8,480.8,681.4,482.7z"/>
	<rect x="907.9" y="329.5" class="st10" width="198" height="228"/>
	<path class="st0" d="M937,396.4l-9,9.8l5.7,5.4l12.4-4L937,396.4z"/>
	<path class="st0" d="M970.6,402.4l-3.9-28.6c-0.7-5.1-7-7.9-13.6-5.4c-14.4,5.3-19.9,35.3-19.2,36.7c3.8,7.4,13.5,6.9,24.9,6.8
		C966,411.9,971.3,407.6,970.6,402.4z"/>
	<path class="st0" d="M970.6,402.4l-3.9-28.6c-0.7-5.1-7-7.9-13.6-5.4c-14.4,5.3-19.9,35.3-19.2,36.7c3.8,7.4,13.5,6.9,24.9,6.8
		C966,411.9,971.3,407.6,970.6,402.4z"/>
	<path class="st0" d="M970.6,402.4l-3.9-28.6c-0.7-5.1-7-7.9-13.6-5.4c-14.4,5.3-19.9,35.3-19.2,36.7c3.8,7.4,13.5,6.9,24.9,6.8
		C966,411.9,971.3,407.6,970.6,402.4z"/>
	<path class="st14" d="M1036.1,467.6c12.8,0,23.2-3.2,23.2-7.2c0-4-10.4-7.2-23.2-7.2c-12.8,0-23.2,3.2-23.2,7.2
		C1012.9,464.4,1023.3,467.6,1036.1,467.6z"/>
	<path class="st0" d="M583.5,108h12.3V632h-12.3V108z"/>
	
		<linearGradient id="SVGID_15_" gradientUnits="userSpaceOnUse" x1="637.963" y1="593.886" x2="541.765" y2="593.886" gradientTransform="matrix(1 0 0 -1 0 660)">
		<stop  offset="0" style="stop-color:#C8DFC7"/>
		<stop  offset="0.17" style="stop-color:#ABD3AD"/>
		<stop  offset="0.41" style="stop-color:#87C58F"/>
		<stop  offset="0.63" style="stop-color:#6EBA79"/>
		<stop  offset="0.84" style="stop-color:#5EB46C"/>
		<stop  offset="1" style="stop-color:#59B267"/>
	</linearGradient>
	<path class="st16" d="M565.7,109.3h48.5L638,22.9h-96.2L565.7,109.3z"/>
	
		<linearGradient id="SVGID_16_" gradientUnits="userSpaceOnUse" x1="637.963" y1="646.4948" x2="541.765" y2="646.4948" gradientTransform="matrix(1 0 0 -1 0 660)">
		<stop  offset="0" style="stop-color:#C8DFC7"/>
		<stop  offset="0.17" style="stop-color:#ABD3AD"/>
		<stop  offset="0.41" style="stop-color:#87C58F"/>
		<stop  offset="0.63" style="stop-color:#6EBA79"/>
		<stop  offset="0.84" style="stop-color:#5EB46C"/>
		<stop  offset="1" style="stop-color:#59B267"/>
	</linearGradient>
	<path class="st17" d="M541.8,22.8H638l-6.1-14.5c-1-2.5-3.5-4.1-6.1-4.1H554c-2.7,0-5.2,1.6-6.1,4.1L541.8,22.8z"/>
	
		<linearGradient id="SVGID_17_" gradientUnits="userSpaceOnUse" x1="625.857" y1="655.7671" x2="553.951" y2="655.7671" gradientTransform="matrix(1 0 0 -1 0 660)">
		<stop  offset="0" style="stop-color:#C8DFC7"/>
		<stop  offset="0.17" style="stop-color:#ABD3AD"/>
		<stop  offset="0.41" style="stop-color:#87C58F"/>
		<stop  offset="0.63" style="stop-color:#6EBA79"/>
		<stop  offset="0.84" style="stop-color:#5EB46C"/>
		<stop  offset="1" style="stop-color:#59B267"/>
	</linearGradient>
	<path class="st18" d="M622.9,0H557c-1.7,0-3,1.4-3,3v2.5c0,1.7,1.4,3,3,3h65.9c1.7,0,3-1.4,3-3V3C625.9,1.4,624.5,0,622.9,0z"/>
	
		<linearGradient id="SVGID_18_" gradientUnits="userSpaceOnUse" x1="618.271" y1="550.67" x2="561.457" y2="550.67" gradientTransform="matrix(1 0 0 -1 0 660)">
		<stop  offset="0" style="stop-color:#C8DFC7"/>
		<stop  offset="0.17" style="stop-color:#ABD3AD"/>
		<stop  offset="0.41" style="stop-color:#87C58F"/>
		<stop  offset="0.63" style="stop-color:#6EBA79"/>
		<stop  offset="0.84" style="stop-color:#5EB46C"/>
		<stop  offset="1" style="stop-color:#59B267"/>
	</linearGradient>
	<path class="st19" d="M616.5,106.8h-53.3c-1,0-1.8,0.8-1.8,1.8v1.5c0,1,0.8,1.8,1.8,1.8h53.3c1,0,1.8-0.8,1.8-1.8v-1.5
		C618.3,107.6,617.5,106.8,616.5,106.8z"/>
	
		<linearGradient id="SVGID_19_" gradientUnits="userSpaceOnUse" x1="647.809" y1="637.1022" x2="532" y2="637.1022" gradientTransform="matrix(1 0 0 -1 0 660)">
		<stop  offset="0" style="stop-color:#C8DFC7"/>
		<stop  offset="0.17" style="stop-color:#ABD3AD"/>
		<stop  offset="0.41" style="stop-color:#87C58F"/>
		<stop  offset="0.63" style="stop-color:#6EBA79"/>
		<stop  offset="0.84" style="stop-color:#5EB46C"/>
		<stop  offset="1" style="stop-color:#59B267"/>
	</linearGradient>
	<path class="st20" d="M646,20.4H533.8c-1,0-1.8,0.8-1.8,1.8v1.5c0,1,0.8,1.8,1.8,1.8H646c1,0,1.8-0.8,1.8-1.8v-1.5
		C647.8,21.2,647,20.4,646,20.4z"/>
	<path class="st1" d="M587.6,103.9h4.1c1.3,0,2.3-0.9,2.5-2.2L604.7,31c0.2-1.4-0.7-2.7-2.2-2.9c-0.2,0-0.2,0-0.4,0H577
		c-1.5,0-2.6,1.1-2.6,2.6c0,0.2,0,0.2,0,0.4l10.5,70.8C585.2,103,586.3,103.9,587.6,103.9z"/>
	<path class="st1" d="M573.4,103.9h3.6c1.5,0,2.6-1.1,2.6-2.6c0-0.2,0-0.2,0-0.4l-11.4-70.7c-0.2-1.2-1.3-2.2-2.5-2.2h-13.6
		c-1.5,0-2.6,1.2-2.5,2.6c0,0.2,0,0.5,0.1,0.7l21.3,70.8C571.3,103.2,572.3,103.9,573.4,103.9z"/>
	<path class="st1" d="M606.4,103.9h-3.6c-1.5,0-2.6-1.1-2.6-2.6c0-0.2,0-0.2,0-0.4l11.4-70.7c0.2-1.2,1.3-2.2,2.5-2.2h13.7
		c1.5,0,2.6,1.2,2.5,2.6c0,0.2,0,0.5-0.1,0.7l-21.3,70.8C608.5,103.2,607.5,103.9,606.4,103.9z"/>
	<path class="st13" d="M195,621.8c0,0,0-8.1,12.1-16.2c12.1-8.1,17.5-24.3,4-24.3s17.5-9.4,16.2-20.2c-1.3-10.8-6.7-4-8.1-9.4
		c-1.3-5.4,9.4-29.6-1.3-18.9c-10.8,10.8-12.1,20.2-16.2,10.8c-4-9.4-12.1-5.4-9.4,8.1c2.7,13.5-0.4,15.3-7,9
		c-6.6-6.3-25.5-9-14.7,9.9c10.8,18.9-1.1,24,7.6,34.9S195,608.3,195,621.8z"/>
	<path class="st21" d="M212.3,551c0,0-17.7,30.5-18,43.7s-0.4,18.9-10.3,26"/>
	<path class="st21" d="M201.2,558c0,0,0.5,10-1.4,17.9c0,0,4.9-5.8,8.1-7.9"/>
	<path class="st21" d="M195,572.5c0,0-0.1,11.8-0.6,20.4c0,0,5.8-9.6,9-11.6"/>
	<path class="st13" d="M85.6,621.8c0,0,0-8.1-12.1-16.2c-12.1-8.1-17.5-24.3-4-24.3c13.5,0-17.5-9.4-16.2-20.2
		c1.3-10.8,6.7-4,8.1-9.4c1.3-5.4-9.4-29.6,1.3-18.9c10.8,10.8,12.1,20.2,16.2,10.8c4-9.4,12.1-5.4,9.4,8.1
		c-2.7,13.5,0.4,15.3,6.9,9c6.5-6.3,25.5-9,14.7,9.9c-10.8,18.9,1.1,24-7.6,34.9C93.6,616.4,85.6,608.3,85.6,621.8z"/>
	<path class="st21" d="M68.3,551c0,0,17.7,30.5,18,43.7c0.3,13.2,0.4,18.9,10.3,26"/>
	<path class="st21" d="M79.5,558c0,0-0.4,10,1.4,17.9c0,0-4.9-5.8-8.1-7.9"/>
	<path class="st21" d="M85.6,572.5c0,0,0.1,11.8,0.6,20.4c0,0-5.8-9.6-9-11.6"/>
	<path class="st14" d="M146.3,632c0,0-14.6-8.1-9.7-37.4c4.9-29.3-4-61.8-19.3-80.3C99.4,492.8,69.9,481,69.9,481
		s-14.6,38.9,8.1,79.6C100.7,601.2,134.9,632,146.3,632z"/>
	<path class="st22" d="M80.1,499.6c0,0,36.7,54.3,39.3,80.2c2.5,25.9,6.3,39.9,26.9,52.3"/>
	<path class="st22" d="M102.9,511.6c0,0-0.2,19.8,4.6,34.9c0,0-9.8-10.8-16.3-14.2"/>
	<path class="st22" d="M117.2,539.2c0,0-3.6,19.8,1.3,34.9c0,0-9.9-13-16.4-16.4"/>
	<path class="st23" d="M143.3,632.4c0,0,11.9-6.6,7.9-30.5c-4-23.9,3.3-50.5,15.8-65.6c14.6-17.6,38.6-27.2,38.6-27.2
		s11.9,31.8-6.7,65S152.6,632.4,143.3,632.4z"/>
	<path class="st24" d="M197.3,524.3c0,0-30,44.3-32.1,65.4c-2.1,21.1-5.1,32.6-22,42.7"/>
	<path class="st24" d="M178.6,534.1c0,0,0.2,16.2-3.7,28.5c0,0,8-8.8,13.3-11.6"/>
	<path class="st24" d="M167,556.7c0,0,2.9,16.2-1,28.5c0,0,8.1-10.6,13.4-13.4"/>
	<path class="st25" d="M49.4,632.2c0,0,49.9-19.2,73.6-14c23.7,5.2,44.7-10.5,59.3-12.6c14.7-2.1,12.6-1.6,31.5,6.8
		c19,8.4,61.9,13.7,64.6,15.3l51.3,4.7L49.4,632.2z"/>
	<path class="st0" d="M74.6,550.7l0.1-0.2c0,0,27.6,6.4,44.3,18c14.4,10,22.7,27.5,18.1,43.3c-2.6,9,0.8,14.3,4.1,17.1
		C108.3,610.3,77,554.9,74.6,550.7z"/>
	<path class="st12" d="M82.3,593.4c-20.5-21-8.7-41.2-7.6-42.8c2.3,4.2,33.7,59.7,66.5,78.4c1.5,1.3,3.2,2.3,5,3
		C135.5,632,103.6,615.4,82.3,593.4z"/>
	<path class="st25" d="M0,632.2c0,0,49.9-19.2,73.6-14s44.7-10.5,59.3-12.6c14.7-2.1,12.6-1.6,31.5,6.8c19,8.4,45.7,14.1,50.4,12.1
		c0,0,3.1-18.3,9.4-20.4c0,0-7.3,14.7-5.8,19.4c0,0,4.7-15.7,8.9-17.8c0,0-6.3,14.1-2.6,21c0,0,1.6-8.9,2.6-10.5c0,0-1,10,1.6,11.5
		l51.3,4.7L0,632.2z"/>
</g>
</svg>
