<svg width="120" height="142" viewBox="0 0 120 142" fill="none" xmlns="http://www.w3.org/2000/svg">
<path d="M91 0H119.6C119.8 0 120 0.2 120 0.4V81.5C120 81.5 114.2 102.8 91 120.3C67.8 137.8 60 141.6 60 141.6C60 141.6 52.3 137.7 29 120.3C5.8 102.8 0 81.5 0 81.5V0.4C0 0.2 0.2 0 0.4 0H29H91Z" fill="url(#paint0_linear)"/>
<path d="M85.9002 9.2002C96.4002 9.6002 109.8 9.2002 109.8 9.2002C110.2 9.2002 110.3 9.4002 110.3 9.6002V78.6002C110.3 78.6002 105.1 96.8002 85.7002 111.7C66.2002 126.7 59.8002 130 59.8002 130C59.8002 130 53.4002 126.7 33.9002 111.8C14.5002 96.8002 9.7002 78.6002 9.7002 78.6002V9.6002C9.7002 9.4002 9.9002 9.2002 10.1002 9.2002H85.9002Z" fill="#CCEBD6"/>
<path d="M59.9996 9.2002H46.9996C46.9996 9.2002 45.5996 9.2002 33.9996 9.2002C22.3996 9.2002 9.99961 9.2002 9.99961 9.2002C9.79961 9.2002 9.59961 9.4002 9.59961 9.6002V78.6002C9.59961 78.6002 14.3996 96.8002 33.8996 111.7C53.3996 126.7 59.7996 130 59.7996 130V9.2002H59.9996Z" fill="#80CE99"/>
<path d="M86.4 66.8003C82.6 66.7003 79.5 69.7003 79.5 73.5003V73.6003C79.5 77.5003 82.5 80.6003 86.3 80.6003C90.1 80.6003 93.2 77.5003 93.2 73.7003C93.2 69.9003 90.2 66.9003 86.4 66.8003Z" fill="#008C2E"/>
<path d="M35.8998 66.8002C32.0998 66.7002 28.8998 69.8002 28.8998 73.6002C28.7998 77.4002 31.8998 80.6002 35.6998 80.6002C39.4998 80.7002 42.6998 77.6002 42.6998 73.8002C42.6998 69.8002 39.7998 66.8002 35.8998 66.8002Z" fill="#008C2E"/>
<path d="M102 68.4001C101.8 64.6001 100.2 61.7001 97.0004 59.6001C94.7004 58.2001 92.2004 57.2001 89.6004 56.8001C85.5004 56.1001 81.9004 54.4001 78.5004 52.0001C76.1004 50.4001 73.7004 48.8001 71.2004 47.3001C68.4004 45.7001 65.5004 44.4001 62.3004 44.1001C58.1004 43.8001 53.9004 43.9001 49.8004 43.6001C49.8004 43.6001 49.8004 43.7001 49.8004 43.6001C47.2004 43.6001 44.5004 43.5001 41.9004 43.6001C38.4004 43.7001 35.1004 44.4001 32.6004 47.2001C31.4004 48.6001 30.3004 50.0001 29.3004 51.5001C28.5004 52.7001 27.5004 53.5001 26.1004 53.9001C21.7004 55.0001 19.0004 57.7001 18.4004 62.3001C18.2004 64.2001 17.9004 66.1001 17.9004 68.0001C18.0004 69.9001 18.3004 71.9001 18.7004 73.8001C18.9004 74.7001 19.4004 75.7001 20.6004 75.7001C22.4004 75.8001 24.2004 75.7001 25.9004 75.7001C26.7004 75.7001 27.1004 75.3001 27.1004 74.4001C27.1004 73.7001 27.2004 72.9001 27.3004 72.2001C27.7004 68.3001 30.5004 65.2001 34.3004 64.6001C38.5004 63.9001 42.1004 65.8001 43.7004 69.5001C44.3004 70.8001 44.4004 72.3001 44.6004 73.8001C44.7004 74.9001 45.2004 75.3001 46.2004 75.3001C55.9004 75.4001 65.6004 75.5001 75.3004 75.6001C77.2004 75.6001 77.7004 75.1001 77.7004 73.3001C77.7004 70.6001 78.7004 68.4001 80.7004 66.7001C84.8004 63.2001 92.2004 64.3001 94.1004 69.9001C94.6004 71.4001 94.8004 73.1001 94.9004 74.7001C95.0004 75.4001 95.1004 75.7001 95.8004 75.7001C97.1004 75.7001 98.4004 75.8001 99.7004 75.6001C101.4 75.5001 102 74.7001 102 73.1001C102.1 71.6001 102.1 70.0001 102 68.4001ZM24.5004 59.6001C22.5004 59.8001 21.5004 61.1001 20.8004 62.8001C20.3004 64.0001 20.0004 65.2001 19.6004 66.4001H19.3004C19.3004 65.7001 19.2004 65.0001 19.3004 64.4001C19.7004 62.6001 20.0004 60.8001 20.6004 59.1001C21.1004 57.6001 23.1004 56.8001 24.5004 57.4001C24.9004 57.6001 25.5004 58.2001 25.5004 58.6001C25.5004 58.8001 24.9004 59.5001 24.5004 59.6001ZM52.5004 55.1001H33.9004C33.9004 51.8001 32.5004 45.5001 52.4004 46.2001L52.5004 55.1001ZM55.2004 55.0001V46.2001C70.2004 46.2001 73.9004 52.1001 73.9004 55.0001H55.2004ZM93.7004 62.8001C92.7004 62.0001 92.2004 60.6001 92.7004 60.0001C93.5004 59.0001 94.5004 59.5001 95.4004 59.9001C97.1004 60.6001 99.1004 62.8001 99.8004 64.7001C97.6004 64.5001 95.4004 64.2001 93.7004 62.8001Z" fill="#008C2E"/>
<rect x="95" y="39" width="4" height="18" transform="rotate(90 95 39)" fill="#33B05C"/>
<rect x="95" y="39" width="4" height="18" transform="rotate(90 95 39)" fill="#33B05C"/>
<rect x="95" y="39" width="4" height="18" transform="rotate(90 95 39)" fill="#33B05C"/>
<rect x="88" y="50" width="4" height="18" transform="rotate(-180 88 50)" fill="#33B05C"/>
<rect x="88" y="50" width="4" height="18" transform="rotate(-180 88 50)" fill="#33B05C"/>
<rect x="88" y="50" width="4" height="18" transform="rotate(-180 88 50)" fill="#33B05C"/>
<defs>
<linearGradient id="paint0_linear" x1="120" y1="70.801" x2="0" y2="70.801" gradientUnits="userSpaceOnUse">
<stop stop-color="#168F3D"/>
<stop offset="1" stop-color="#4BB86F"/>
</linearGradient>
</defs>
</svg>
