<svg width="120" height="142" viewBox="0 0 120 142" fill="none" xmlns="http://www.w3.org/2000/svg">
<g clip-path="url(#clip0)">
<path d="M91 0H119.6C119.8 0 120 0.2 120 0.4V81.5C120 81.5 114.2 102.8 91 120.3C67.8 137.8 60 141.6 60 141.6C60 141.6 52.3 137.7 29 120.3C5.7 102.9 0 81.5 0 81.5V0.4C0 0.2 0.2 0 0.4 0H29H91Z" fill="url(#paint0_linear)"/>
<path d="M86.0002 9.19995C96.5002 9.59995 109.9 9.19995 109.9 9.19995C110.3 9.19995 110.4 9.39995 110.4 9.59995V78.6C110.4 78.6 105.2 96.8 85.8002 111.7C66.3002 126.6 59.9002 129.9 59.9002 129.9C59.9002 129.9 53.5002 126.6 34.0002 111.7C14.5002 96.8 9.7002 78.6 9.7002 78.6V9.59995C9.7002 9.39995 9.9002 9.19995 10.1002 9.19995C10.1002 9.19995 86.0002 9.19995 86.0002 9.19995Z" fill="#CCEBD6"/>
<path d="M60.0998 9.19995H47.0998C47.0998 9.19995 45.6998 9.19995 34.0998 9.19995C22.4998 9.19995 10.1998 9.19995 10.1998 9.19995C9.9998 9.19995 9.7998 9.39995 9.7998 9.59995V78.6C9.7998 78.6 14.5998 96.8 34.0998 111.7C53.5998 126.6 59.9998 129.9 59.9998 129.9V9.19995H60.0998Z" fill="#80CE99"/>
<path d="M54.1996 45.1C54.1996 54.7 50.3996 59.7 43.3996 59.7C36.3996 59.7 32.5996 54.7 32.5996 45.1C32.5996 35.4 36.2996 30.4 43.3996 30.4C50.4996 30.5 54.1996 35.6 54.1996 45.1ZM40.0996 45.3C40.0996 51.8 40.9996 54 43.3996 54C45.7996 54 46.6996 51.6 46.6996 45.2C46.6996 38.6 45.7996 36.3 43.3996 36.3C40.9996 36.3 40.0996 38.6 40.0996 45.3ZM68.1996 29H74.6996L51.8996 84.1H45.3996L68.1996 29ZM87.3996 67.9C87.3996 77.5 83.6996 82.5 76.5996 82.5C69.4996 82.5 65.7996 77.5 65.7996 67.9C65.7996 58.2 69.4996 53.2 76.5996 53.2C83.5996 53.3 87.3996 58.3 87.3996 67.9ZM73.2996 68.1C73.2996 74.6 74.1996 76.8 76.5996 76.8C79.0996 76.8 79.8996 74.4 79.8996 68C79.8996 61.4 78.9996 59.1 76.5996 59.1C74.0996 59.1 73.2996 61.4 73.2996 68.1Z" fill="#008C2E"/>
</g>
<defs>
<linearGradient id="paint0_linear" x1="120" y1="70.8" x2="0" y2="70.8" gradientUnits="userSpaceOnUse">
<stop stop-color="#168F3D"/>
<stop offset="1" stop-color="#4BB86F"/>
</linearGradient>
<clipPath id="clip0">
<rect width="120" height="141.6" fill="white"/>
</clipPath>
</defs>
</svg>
