<svg width="358" height="142" viewBox="0 0 358 142" fill="none" xmlns="http://www.w3.org/2000/svg">
<path d="M209.968 0.397583H238.613C238.806 0.397583 239 0.591558 239 0.785534V81.8675C239 81.8675 233.194 103.205 209.968 120.663C186.742 138.12 179 142 179 142C179 142 171.258 138.12 148.032 120.663C124.806 103.205 119 81.8675 119 81.8675V0.785534C119 0.591558 119.194 0.397583 119.387 0.397583H148.032H209.968Z" fill="url(#paint0_linear)"/>
<path d="M204.875 9.63611C215.404 10.0003 228.788 9.63611 228.788 9.63611C229.144 9.63611 229.323 9.8182 229.323 10.0003V79.0122C229.323 79.0122 224.148 97.2212 204.697 112.152C185.246 127.084 178.822 130.361 178.822 130.361C178.822 130.361 172.398 127.084 152.947 112.152C133.496 97.2212 128.678 79.0122 128.678 79.0122V10.0003C128.678 9.8182 128.856 9.63611 129.035 9.63611H204.875Z" fill="#CCEBD6"/>
<path d="M179 9.6361L165.974 9.63611C165.974 9.63611 164.546 9.63611 152.947 9.63611C141.348 9.63611 129.035 9.63611 129.035 9.63611C128.856 9.63611 128.678 9.8182 128.678 10.0003V79.0122C128.678 79.0122 133.496 97.2212 152.947 112.153C172.398 127.084 178.822 130.361 178.822 130.361V9.63611L179 9.6361Z" fill="#80CE99"/>
<path d="M196.036 61.844C188.71 61.844 184.936 67.024 184.936 76.94C184.936 86.708 188.784 91.888 196.036 91.888C203.288 91.888 207.136 86.708 207.136 76.866C207.136 67.024 203.288 61.844 196.036 61.844ZM196.036 67.764C198.552 67.764 199.44 70.132 199.44 76.94C199.44 83.526 198.552 85.968 196.036 85.968C193.52 85.968 192.632 83.674 192.632 77.014C192.632 70.132 193.52 67.764 196.036 67.764ZM161.996 38.46C154.67 38.46 150.896 43.64 150.896 53.556C150.896 63.324 154.744 68.504 161.996 68.504C169.248 68.504 173.096 63.324 173.096 53.482C173.096 43.64 169.248 38.46 161.996 38.46ZM161.996 44.38C164.512 44.38 165.4 46.748 165.4 53.556C165.4 60.142 164.512 62.584 161.996 62.584C159.48 62.584 158.592 60.29 158.592 53.63C158.592 46.748 159.48 44.38 161.996 44.38ZM164.068 93.442H170.728L194.112 36.906H187.452L164.068 93.442Z" fill="#008C2E"/>
<defs>
<linearGradient id="paint0_linear" x1="239" y1="48" x2="119" y2="48" gradientUnits="userSpaceOnUse">
<stop stop-color="#118B39"/>
<stop offset="1" stop-color="#4CB970"/>
</linearGradient>
</defs>
</svg>
