<?xml version="1.0" encoding="utf-8"?>
<!-- Generator: Adobe Illustrator 24.3.0, SVG Export Plug-In . SVG Version: 6.00 Build 0)  -->
<svg version="1.1" id="Ebene_1" xmlns="http://www.w3.org/2000/svg" xmlns:xlink="http://www.w3.org/1999/xlink" x="0px" y="0px"
	 viewBox="0 0 120 142" style="enable-background:new 0 0 120 142;" xml:space="preserve">
<style type="text/css">
	.st0{fill:url(#SVGID_1_);}
	.st1{fill:#CCEBD6;}
	.st2{fill:#80CE99;}
	.st3{fill:#008C2E;}
</style>
<linearGradient id="SVGID_1_" gradientUnits="userSpaceOnUse" x1="120" y1="1007" x2="9.094947e-13" y2="1007" gradientTransform="matrix(1 0 0 1 0 -936)">
	<stop  offset="0" style="stop-color:#118B39"/>
	<stop  offset="1" style="stop-color:#4CB970"/>
</linearGradient>
<path class="st0" d="M91,0h28.6c0.2,0,0.4,0.2,0.4,0.4v81.3c0,0-5.8,21.4-29,38.9S60,142,60,142s-7.7-3.9-31-21.4
	C5.8,103.1,0,81.7,0,81.7V0.4C0,0.2,0.2,0,0.4,0H29H91z"/>
<path class="st1" d="M85.9,9.6c10.5,0.4,23.9,0,23.9,0c0.4,0,0.5,0.2,0.5,0.4v69.2c0,0-5.2,18.3-24.6,33.2
	c-19.5,14.9-25.9,18.3-25.9,18.3s-6.4-3.3-25.9-18.3C14.5,97.5,9.7,79.2,9.7,79.2V10c0-0.2,0.2-0.4,0.4-0.4H85.9z"/>
<path class="st2" d="M60,9.6H47c0,0-1.4,0-13,0s-24,0-24,0c-0.2,0-0.4,0.2-0.4,0.4v69.2c0,0,4.8,18.3,24.3,33.2s25.9,18.3,25.9,18.3
	V9.6H60z"/>
<path class="st3" d="M77,62c-7.3,0-11.1,5.2-11.1,15.1c0,9.8,3.8,14.9,11.1,14.9s11.1-5.2,11.1-15S84.3,62,77,62z M77,68
	c2.5,0,3.4,2.4,3.4,9.2c0,6.6-0.9,9-3.4,9s-3.4-2.3-3.4-9C73.6,70.3,74.5,68,77,68z M43,38.6c-7.3,0-11.1,5.2-11.1,15.1
	c0,9.8,3.8,14.9,11.1,14.9s11.1-5.2,11.1-15S50.2,38.6,43,38.6z M43,44.5c2.5,0,3.4,2.4,3.4,9.2c0,6.6-0.9,9-3.4,9s-3.4-2.3-3.4-9
	C39.6,46.8,40.5,44.5,43,44.5z M45.1,93.7h6.7L75.2,37h-6.7L45.1,93.7z"/>
</svg>
