<svg id="Ebene_1" data-name="Ebene 1" xmlns="http://www.w3.org/2000/svg" xmlns:xlink="http://www.w3.org/1999/xlink" viewBox="0 0 628 314.5"><defs><style>.cls-1{fill:none;}.cls-2{clip-path:url(#clip-path);}.cls-3{fill:#e6f5eb;}.cls-4{fill:#b3e1c2;}.cls-5{fill:#80ce99;}.cls-6{fill:#4dba71;}.cls-7{fill:#1aa648;}.cls-8{clip-path:url(#clip-path-2);}.cls-9{fill:#ccebd6;}.cls-10{fill:#99d7ad;}.cls-11{fill:#66c485;}.cls-12{fill:#33b05c;}.cls-13{fill:#008c2e;}.cls-14{fill:#006d24;}.cls-15{fill:#004e19;}</style><clipPath id="clip-path"><path class="cls-1" d="M218.51,314.5c0-.17,0-.33,0-.5a95.5,95.5,0,0,1,191,0c0,.17,0,.33,0,.5H628c0-.17,0-.33,0-.5C628,140.58,487.42,0,314,0S0,140.58,0,314c0,.17,0,.33,0,.5Z"/></clipPath><clipPath id="clip-path-2"><path class="cls-1" d="M313.5,185.5a129,129,0,0,0-129,129h34c0-.17,0-.33,0-.5a95.5,95.5,0,0,1,191,0c0,.17,0,.33,0,.5h33A129,129,0,0,0,313.5,185.5Z"/></clipPath></defs><g class="cls-2"><polygon class="cls-3" points="313.5 314.5 -10.5 80.5 -134.5 390.5 313.5 314.5"/><polygon class="cls-4" points="314.5 314.5 197.5 -43.5 -16.5 78.5 314.5 314.5"/><polygon class="cls-5" points="314 315 425 -31 197 -44 314 315"/><polygon class="cls-6" points="314.5 314.5 424.5 -31.5 615.5 96.5 314.5 314.5"/><polygon class="cls-7" points="314.5 314.5 693.5 315.5 615.5 96.5 314.5 314.5"/></g><g class="cls-8"><polygon class="cls-9" points="313.5 314.5 -10.5 80.5 -134.5 390.5 313.5 314.5"/><polygon class="cls-10" points="314.5 314.5 197.5 -43.5 -16.5 78.5 314.5 314.5"/><polygon class="cls-11" points="314 315 425 -31 197 -44 314 315"/><polygon class="cls-12" points="314.5 314.5 424.5 -31.5 615.5 96.5 314.5 314.5"/><polygon class="cls-13" points="314.5 314.5 693.5 315.5 615.5 96.5 314.5 314.5"/></g><path class="cls-14" d="M327.41,309.79l185.89-76-198.42,31a24,24,0,1,0,12.53,45Z"/><path class="cls-15" d="M327.41,309.79l185.89-76L292.7,295.22a24,24,0,0,0,34.71,14.57Z"/></svg>