<svg width="135" height="71" viewBox="0 0 135 71" fill="none" xmlns="http://www.w3.org/2000/svg">
<path d="M36.7227 17.0386C36.7227 17.0386 51.1318 1.77903 60.6249 0.480339C70.118 -0.818351 86.3918 0.805007 86.9004 1.94136C87.4089 3.07771 71.6436 32.6229 70.6265 31.8112C69.6094 30.9995 62.6591 18.175 61.981 18.3373C60.6249 18.8243 48.7586 18.9867 46.5548 20.61C44.3511 22.2334 36.7227 17.0386 36.7227 17.0386Z" fill="#009C33"/>
<path d="M50.1665 12.052C42.2303 9.01258 33.4498 12.8963 30.4104 20.8325C27.371 28.7687 31.2547 37.5492 39.1909 40.5886C47.1271 43.628 55.9076 39.7444 58.947 31.8081C61.9864 23.8719 58.1027 15.0914 50.1665 12.052ZM50.842 28.5999C49.4911 31.977 45.7763 33.6655 42.3992 32.3147C39.0221 30.9638 37.3335 27.249 38.6843 23.8719C40.0352 20.4948 43.75 18.8062 47.1271 20.1571C50.5042 21.5079 52.024 25.2227 50.842 28.5999Z" fill="#80CE99"/>
<path d="M2.65138 14.0905L0 7.67102L5.96565 4.89502L37.9484 17.9075L34.4684 26.9295L22.2056 22.0715L20.3828 21.3775L18.3942 17.734L13.9199 18.6015L10.9371 13.917L6.62854 15.652L2.65138 14.0905Z" fill="#80CE99"/>
<path d="M71.2969 41.6069L44.0442 31.9547C43.0349 31.6219 42.0254 31.9547 41.3525 32.7868C40.175 34.4509 39.3339 37.6129 43.5396 41.7733C49.9322 48.0971 60.3622 58.415 67.5959 58.7478C74.9979 59.2471 71.2969 41.6069 71.2969 41.6069Z" fill="#009C33"/>
<path d="M58.1933 37.0248C58.1933 37.0248 75.8604 40.1982 61.8258 18.4857C54.8911 7.62942 82.9601 -0.220481 86.0972 1.44971C101.948 9.80067 97.6552 18.8197 110.534 24.9994C117.469 28.3398 104.92 46.3779 104.92 46.3779C104.92 46.3779 105.415 52.8916 96.004 56.7331C89.0693 59.5724 76.0255 58.2362 67.2745 58.7373C53.9004 59.5724 58.1933 37.0248 58.1933 37.0248Z" fill="#009C33"/>
<path d="M85.6914 52.0685L111.002 62.4325L126.088 31.1758L100.61 20.8118L85.6914 52.0685Z" fill="#009C33"/>
<path d="M108.951 67.4242L110.741 62.997L125.384 30.6448L127.825 25.7068L134.658 29.6231L116.435 71L108.951 67.4242Z" fill="#007D29"/>
</svg>
