<svg width="208" height="79" viewBox="0 0 208 79" fill="none" xmlns="http://www.w3.org/2000/svg">
<path d="M-18 72.5899C-18 76.0548 43.4612 78.8267 119.065 78.8267C194.844 78.8267 256.131 76.0548 256.131 72.5899C256.131 69.125 194.67 66.353 119.065 66.353C43.4612 66.353 -18 69.125 -18 72.5899Z" fill="#C8DFC7"/>
<path d="M166.385 39.3268L160.623 53.7062L161.147 70.5111L156.083 70.1646L153.988 54.7457L155.56 44.0045L148.75 54.0527L150.147 67.9124L145.607 67.2194L142.639 50.9343L151.544 38.2874L166.385 39.3268Z" fill="#007D29"/>
<path d="M160.972 70.3378L161.146 73.1097H155.734L152.619 72.4169L156.083 70.1646L160.972 70.3378Z" fill="#009C33"/>
<path d="M150.32 67.566L150.146 70.3379L141.939 69.6449L142.463 68.7787L144.908 67.9125L145.606 67.2195L150.32 67.566Z" fill="#009C33"/>
<path d="M170.051 38.9804C170.4 40.0199 171.448 40.5396 172.496 40.1931C173.543 39.8466 174.067 38.8072 173.718 37.7677L173.543 37.4212C173.194 36.3817 172.147 35.862 171.099 36.2085C170.051 36.555 169.178 36.7282 169.527 37.7677L170.051 38.9804Z" fill="#6FC178"/>
<path d="M163.939 16.2852C163.939 16.2852 166.558 18.8838 167.257 19.9233C167.955 20.9628 169.701 24.7742 169.701 24.7742L173.717 36.5549L169.003 38.1141L164.987 26.1602L161.844 19.4036L163.939 16.2852Z" fill="#009C33"/>
<path d="M134.082 33.09C134.606 34.1295 135.654 34.6492 136.527 34.3027L137.574 33.783C138.447 33.4365 138.796 32.2238 138.273 31.1843C137.749 30.1448 136.701 29.6251 135.828 30.1448L134.78 30.6646C133.907 31.011 133.558 32.0505 134.082 33.09Z" fill="#009C33"/>
<path d="M151.543 38.2873L148.924 22.6952C148.924 18.7105 151.368 15.5921 154.86 15.2456L158.702 14.7259C162.194 14.2061 165.337 16.4583 165.861 19.5767L166.334 39.5001L151.543 38.2873Z" fill="#009C33"/>
<path d="M151.193 17.1514L145.081 24.4277L136.002 29.7983L137.923 33.6097L145.954 30.4913L151.542 27.0264L151.193 17.1514Z" fill="#009C33"/>
<path d="M160.447 4.15796C159.749 4.3312 159.05 4.3312 158.352 4.50445C157.304 4.6777 156.235 3.86913 155.362 4.38887C154.314 4.90861 154.433 5.67823 153.987 7.44963C153.638 8.83559 154.19 8.46014 152.618 9.32637C152.793 9.49962 152.241 12.1273 152.415 12.3005C154.685 14.3795 161.146 14.3795 161.146 12.4738C161.32 10.3948 161.844 6.92989 160.796 4.85094C160.622 4.6777 160.622 4.50445 160.447 4.15796Z" fill="#6FC178"/>
<path d="M154.264 7.68068C154.438 6.6412 154.511 5.71721 155.558 5.37072C156.431 5.02423 157.479 4.67774 158.352 4.50449C159.05 4.33124 159.749 4.33125 160.447 4.158C159.923 2.77203 159.225 1.21282 156.955 0.866332C154.86 0.519841 152.241 1.21282 151.018 3.29177C149.796 5.54396 150.669 8.31589 151.193 10.3948C151.368 10.9146 151.542 11.2611 151.717 11.6076C153.463 10.9146 153.915 9.23989 154.264 7.68068Z" fill="#007D29"/>
<path d="M159.051 6.92989C158.702 7.10313 157.829 6.92989 156.956 7.10313C156.257 7.10313 154.861 6.92989 155.384 8.31585C155.734 9.87506 157.305 9.18208 158.353 8.66234C159.4 8.14261 159.4 7.79611 160.099 7.79611C160.797 7.96936 161.496 7.79611 161.496 7.79611C161.496 7.79611 162.194 6.41015 161.321 6.06366C160.448 5.71717 160.273 6.2369 159.051 6.92989Z" fill="#007D29"/>
<path d="M153.114 8.66235C153.114 8.66235 155.035 10.9145 156.432 10.7413C157.829 10.5681 159.749 7.79613 161.495 9.70183C161.495 9.70183 161.495 12.647 161.146 12.9935C160.622 13.34 159.575 14.7259 156.607 14.033C153.638 13.34 151.892 13.34 152.241 11.4343C152.416 9.35534 153.114 8.66235 153.114 8.66235Z" fill="#007D29"/>
<path d="M62.3181 19.9233C62.3181 19.7501 62.3181 19.5769 62.3181 19.5769V16.6317C62.3181 15.419 61.4451 14.5527 60.2229 14.5527L53.9371 15.5922C52.7148 15.5922 51.8418 16.6317 51.8418 17.6712V19.4036C51.8418 20.6163 52.7148 21.4826 53.9371 21.4826H59.8736H60.0483H63.715V19.7501L62.3181 19.9233Z" fill="#009C33"/>
<path d="M127.621 20.9629C127.621 20.7897 127.446 20.6164 127.446 20.6164L126.923 17.6713C126.748 16.4585 127.446 15.4191 128.494 15.2458H134.78C135.828 15.0726 137.05 15.7656 137.224 16.9783L137.574 18.7107C137.748 19.9235 137.05 20.9629 136.002 21.1362L130.066 22.3489H129.891L126.224 23.0419L125.875 21.3094L127.621 20.9629Z" fill="#009C33"/>
<path d="M60.5723 22.8685C60.5723 22.8685 61.7945 18.5374 63.366 13.34C64.9374 8.14264 66.6835 0.17334 76.1122 0.17334H113.129C122.557 0.17334 124.478 7.96939 126.049 13.34L128.843 22.8685H60.5723Z" fill="#009C33"/>
<path d="M46.9531 49.2018L48.0008 58.9036C48.0008 60.8093 47.6515 62.3685 49.5722 62.3685L139.494 62.1952C141.415 62.1952 141.066 60.636 141.066 58.7303L141.939 49.0286L46.9531 49.2018Z" fill="#59B267"/>
<path d="M140.891 36.555C140.891 34.9958 140.542 33.9563 140.018 33.2633C139.843 32.9168 139.494 32.7436 139.32 32.5703L128.669 22.6953L60.5724 22.8686L50.2706 32.9168C49.9214 33.09 49.5722 33.4365 49.3976 33.783L49.223 33.9563C48.5246 34.9958 48.1754 36.2085 48.1754 38.1142L46.9531 49.2019L142.113 49.0286L140.891 36.555Z" fill="#009C33"/>
<path d="M65.2871 20.7896L66.684 14.8993C67.9062 9.52867 67.0332 6.75674 74.3666 6.5835H114.701C122.034 6.5835 121.161 9.52867 122.383 14.726L123.78 20.6164L65.2871 20.7896Z" fill="white"/>
<path d="M124.828 21.4826L64.4141 21.6558L65.9855 14.8993C66.1601 14.033 66.3347 13.1668 66.5093 12.4738C67.2078 8.66241 67.7316 6.06372 74.3666 6.06372H114.701C121.336 6.06372 121.859 8.66241 122.558 12.4738C122.732 13.1668 122.907 14.033 123.082 14.8993L124.828 21.4826ZM66.3347 20.0966H122.907L121.685 14.8993C121.51 14.033 121.336 13.1668 121.161 12.4738C120.463 8.83565 120.113 7.27644 114.701 7.27644H74.3666C68.9538 7.27644 68.6046 8.83565 67.9062 12.4738C67.7316 13.1668 67.557 14.033 67.3824 14.8993L66.3347 20.0966Z" fill="white"/>
<path d="M60.3978 72.9365H53.5882C51.4929 72.9365 49.5723 71.3773 49.5723 69.4716V62.5417H64.2391V69.4716C64.4137 71.3773 62.6677 72.9365 60.3978 72.9365Z" fill="#007D29"/>
<path d="M135.304 72.7631H128.494C126.225 72.7631 124.479 71.2039 124.479 69.2982V62.3684H139.145V69.2982C139.145 71.2039 137.399 72.7631 135.304 72.7631Z" fill="#007D29"/>
<path d="M50.7945 53.0132L50.4453 58.0373C50.4453 59.25 51.3183 60.1163 52.366 60.1163H61.0963C62.3185 60.1163 62.8423 59.25 62.1439 58.2106C60.9217 56.4781 58.3026 53.8794 52.7152 51.6272C51.8422 51.1075 50.7945 51.8005 50.7945 53.0132Z" fill="#59B267"/>
<path d="M139.145 52.6668L139.494 57.6909C139.494 58.9036 138.795 59.7698 137.573 59.7698H128.843C127.621 59.7698 127.097 58.9036 127.795 57.8641C129.017 56.1317 131.637 53.533 137.224 51.2808C138.097 50.7611 138.97 51.454 139.145 52.6668Z" fill="#59B267"/>
<path d="M118.366 59.7698H70.8736C69.4768 59.7698 67.5561 58.9035 66.5085 57.6908L62.4925 53.0132C61.4449 51.9737 61.9687 50.9342 63.3656 50.9342L125.874 50.761C127.271 50.761 127.62 51.6272 126.747 52.8399L122.732 57.5176C121.684 58.9035 119.763 59.7698 118.366 59.7698Z" fill="#009C33"/>
<path d="M59.8741 43.8313C55.1598 43.8313 52.5407 42.2721 52.1915 38.9804C52.0169 38.2874 52.0169 37.5944 52.1915 37.0747C52.1915 37.0747 52.7153 35.6887 53.5883 35.6887C54.636 35.6887 53.9376 35.6887 54.1122 35.6887H54.2868H54.4614H54.636C59.3503 36.0352 66.5092 37.2479 68.4298 39.1536C68.4298 39.1536 70.1759 41.4058 66.5092 42.965H66.1599C66.3346 42.965 63.1916 43.8313 59.8741 43.8313Z" fill="white"/>
<path d="M129.192 43.6579C133.906 43.6579 136.525 42.0987 136.875 38.807C137.049 38.1141 137.049 37.4211 136.875 36.9013C136.875 36.9013 136.351 35.5154 135.478 35.5154C134.43 35.5154 135.128 35.5154 134.954 35.5154H134.779H134.605H134.43C129.716 35.8619 122.557 37.0746 120.636 38.9803C120.636 38.9803 118.89 41.2325 122.557 42.7917H122.906C122.906 42.9649 125.874 43.6579 129.192 43.6579Z" fill="white"/>
</svg>
