<svg width="208" height="97" viewBox="0 0 208 97" fill="none" xmlns="http://www.w3.org/2000/svg">
<path d="M-32 90.397C-32 94.0639 29.1663 96.9974 104.408 96.9974C179.823 96.9974 240.816 94.0639 240.816 90.397C240.816 86.7301 179.649 83.7966 104.408 83.7966C29.1663 83.7966 -32 86.7301 -32 90.397Z" fill="#C8DFC7"/>
<path d="M70.0023 38.5641C70.0023 38.3903 70.0023 38.2165 70.0023 38.2165V35.2625C70.0023 34.0461 69.1335 33.1772 67.9171 33.1772L61.8352 34.2199C60.6188 34.2199 59.75 35.2625 59.75 36.3051V38.0428C59.75 39.2591 60.6188 40.128 61.8352 40.128H67.7433H67.9171H71.5662V38.3903L70.0023 38.5641Z" fill="#009C33"/>
<path d="M135.167 39.6077C135.167 39.4339 134.994 39.2602 134.994 39.2602L134.472 36.3061C134.299 35.0897 134.994 34.0471 136.036 33.8733H142.292C143.334 33.6996 144.551 34.3947 144.725 35.611L145.072 37.3487C145.246 38.5651 144.551 39.6077 143.508 39.7815L137.6 40.9978H137.426L133.777 41.6929L133.43 39.9552L135.167 39.6077Z" fill="#009C33"/>
<path d="M68.2695 41.3454C68.2695 41.3454 69.4859 37.0012 71.0498 31.7882C72.6137 26.5751 74.3514 18.5818 83.7349 18.5818H120.574C129.957 18.5818 131.869 26.4014 133.433 31.7882L136.213 41.3454H68.2695Z" fill="#009C33"/>
<path d="M54.8867 67.9316L55.9293 77.6626C55.9293 79.574 55.5818 81.138 57.4932 81.138L146.984 80.9642C148.895 80.9642 148.548 79.4003 148.548 77.4888L149.417 67.7578L54.8867 67.9316Z" fill="#59B267"/>
<path d="M148.374 55.2476C148.374 53.6837 148.026 52.6411 147.505 51.946C147.331 51.5985 146.984 51.4247 146.81 51.251L136.21 41.3462H68.3125L58.1883 51.7723C57.8408 51.946 57.4932 52.2936 57.3195 52.6411L57.1457 52.8149C56.4506 53.8575 56.1031 55.0739 56.1031 56.9853L54.8867 67.9327L149.59 67.7589L148.374 55.2476Z" fill="#009C33"/>
<path d="M73.127 39.4333L74.5171 33.5252C75.7335 28.1384 74.8646 25.3581 82.1629 25.1843H122.303C129.602 25.1843 128.733 28.1384 129.949 33.3514L131.339 39.2595L73.127 39.4333Z" fill="white"/>
<path d="M132.214 39.9558L72.0898 40.1296L73.6538 33.3526C73.8275 32.4838 74.0013 31.615 74.1751 30.9199C74.8701 27.097 75.3914 24.4905 81.9946 24.4905H122.135C128.738 24.4905 129.26 27.097 129.955 30.9199C130.128 31.615 130.302 32.4838 130.476 33.3526L132.214 39.9558ZM74.0013 38.5657H130.302L129.086 33.5264C128.912 32.6576 128.738 31.7887 128.564 31.0937C127.869 27.4445 127.522 25.8806 122.135 25.8806H81.9946C76.6078 25.8806 76.2603 27.4445 75.5652 31.0937C75.3914 31.7887 75.2177 32.6576 75.0439 33.5264L74.0013 38.5657Z" fill="white"/>
<path d="M68.2658 91.7376H61.4889C59.4036 91.7376 57.4922 90.1737 57.4922 88.2622V81.3115H72.0887V88.2622C72.0887 90.1737 70.351 91.7376 68.2658 91.7376Z" fill="#009C33"/>
<path d="M142.639 91.564H135.862C133.603 91.564 131.865 90.0001 131.865 88.0887V81.1379H146.462V88.0887C146.636 90.0001 144.898 91.564 142.639 91.564Z" fill="#009C33"/>
<path d="M58.535 71.7547L58.1875 76.794C58.1875 78.0104 59.0563 78.8792 60.0989 78.8792H68.7873C70.0037 78.8792 70.525 78.0104 69.83 76.9678C68.6136 75.2301 66.0071 72.6236 60.4465 70.3646C59.5776 69.8433 58.7088 70.5383 58.535 71.7547Z" fill="#59B267"/>
<path d="M146.462 71.4083L146.809 76.4476C146.809 77.6639 146.114 78.5328 144.898 78.5328H136.209C134.993 78.5328 134.472 77.6639 135.167 76.6213C136.383 74.8836 138.99 72.2771 144.55 70.0181C145.419 69.4968 146.462 70.1919 146.462 71.4083Z" fill="#59B267"/>
<path d="M125.955 78.5311H78.6901C77.3 78.5311 75.3885 77.6623 74.3459 76.4459L70.3493 71.7542C69.3066 70.7115 69.8279 69.6689 71.2181 69.6689L133.427 69.8427C134.817 69.8427 135.165 70.7116 134.296 71.9279L130.299 76.6197C129.257 77.6623 127.345 78.5311 125.955 78.5311Z" fill="#009C33"/>
<path d="M67.7468 62.545C63.0551 62.545 60.4486 60.9811 60.101 57.6795C59.9273 56.9845 59.9273 56.2894 60.101 55.7681C60.101 55.7681 60.6223 54.3779 61.4912 54.3779C62.5338 54.3779 61.8387 54.3779 62.0125 54.3779H62.1862H62.36H62.5338C67.2255 54.7255 74.35 55.9418 76.2615 57.8533C76.2615 57.8533 77.9991 60.1123 74.35 61.6762H74.0025C74.0025 61.6762 71.0484 62.545 67.7468 62.545Z" fill="white"/>
<path d="M136.733 62.3712C141.425 62.3712 144.031 60.8073 144.379 57.5057C144.552 56.8106 144.552 56.1155 144.379 55.5942C144.379 55.5942 143.857 54.2041 142.988 54.2041C141.946 54.2041 142.641 54.2041 142.467 54.2041H142.293H142.12H141.946C137.254 54.5516 130.13 55.768 128.218 57.6795C128.218 57.6795 126.48 59.9384 130.13 61.5024H130.477C130.303 61.5024 133.431 62.3712 136.733 62.3712Z" fill="white"/>
<path d="M83 39.6126C83 39.6126 85.0765 52.7276 100.027 52.9953C111.863 53.2629 123 45 123.5 39.0001C118.516 37.9295 83 39.6126 83 39.6126Z" fill="white"/>
<path d="M117.787 29.2247C116.397 27.3133 114.833 25.2281 113.964 23.1428C113.096 21.4052 112.922 19.6675 112.922 17.756C110.663 18.9724 108.578 21.5789 108.578 24.3592C107.187 23.8379 107.361 21.4052 106.145 18.6249C104.233 14.1069 102.843 13.0643 101.801 9.93647C100.584 5.76604 100.932 0.726765 99.0203 -2.92236C99.5416 -2.05352 98.499 -1.35845 98.3253 0.205462C98.3253 1.59561 95.3712 4.72343 94.5024 5.76604C94.5024 5.76604 94.6761 3.85459 95.0237 2.98575C94.1548 4.02836 92.2434 9.58893 91.5483 12.1955C90.5057 16.1921 89.9844 23.6641 91.8959 27.487C89.2893 25.0543 88.2467 22.1002 86.509 19.1462C86.3353 21.0576 86.509 22.4478 85.814 24.1854C85.2927 25.7494 84.2501 26.9657 83.7287 28.5296C82.6861 31.3099 82.8599 34.6115 83.555 37.218C90.3319 55.2899 106.145 51.2933 110.489 48.513C112.574 47.1228 114.659 45.7327 116.745 44.3425C118.135 43.4737 119.699 42.2573 120.22 40.6934C122.305 36.523 120.046 32.3525 117.787 29.2247Z" fill="#80CE99"/>
<path d="M104.583 39.3036C104.583 39.1298 104.583 38.7823 104.583 38.6085C104.583 37.0446 105.626 36.002 105.8 34.4381C105.974 33.2217 105.8 31.1365 105.279 30.0939C105.452 32.3529 103.02 32.8742 102.672 34.7856C102.324 33.048 102.672 30.9628 102.498 29.2251C102.324 28.0087 102.324 26.9661 101.977 25.9235C101.803 25.2284 101.282 24.3596 100.587 23.4907C101.108 24.7071 101.108 26.6185 100.761 27.8349C100.587 28.8775 99.8917 29.9201 99.5442 30.9628C99.1966 32.0054 99.1967 33.048 99.0229 33.9168C98.6753 33.3955 98.8491 32.5267 98.5016 31.8316C98.154 31.1365 97.8065 30.4414 97.1114 29.9201C97.1114 30.9627 97.6327 31.8316 97.2852 32.8742C96.9377 33.9168 96.4164 34.9594 95.8951 36.002C95.3738 37.0446 95.2 38.261 95.3738 39.3036C95.5475 40.3462 95.7213 41.3888 96.0688 42.2577C96.5901 44.3429 96.4164 46.4281 96.4164 48.6871C96.4164 48.8609 96.4164 49.7297 96.5901 50.251H96.7639C96.7639 50.251 96.7639 50.251 96.7639 50.0772C96.7639 50.0772 96.5901 50.251 96.7639 50.5987C99.5442 52 107.906 50.251 110.844 48.6871C111.018 47.992 108.928 47.8182 108.928 46.7756C108.928 42.2577 104.583 40.6938 104.583 39.3036Z" fill="#007D29"/>
<path d="M111.236 48.5703C111.236 48.5703 119.691 45.4811 118.612 40.3044C117.533 35.1276 115.194 34.7825 115.374 32.1941C115.374 32.1941 113.215 33.2294 114.115 35.6453C114.115 35.6453 110.877 35.8178 111.236 33.9197C111.236 33.9197 109.258 36.8532 109.797 38.4062C110.337 40.1318 109.617 41.8574 109.617 41.8574C109.617 41.8574 106.199 40.3044 106.559 38.5788C106.559 38.5788 103.681 40.3044 104.58 43.0653C105.48 45.6537 105.84 49.7951 105.84 49.7951C105.84 49.7951 107.639 49.7951 111.236 48.5703Z" fill="#007D29"/>
<path d="M105.509 17.766C105.509 17.766 104.71 18.5642 105.509 16.1696C104.87 11.3804 105.509 5.79297 105.509 5.79297C105.509 5.79297 104.072 9.94361 103.592 11.54C103.113 13.1364 102.954 16.4888 105.509 17.766Z" fill="#009C33"/>
<path d="M96.8693 50.7485C95.0777 50.143 85.5806 46.9322 88.4356 42.1409C91.2906 37.3496 92.556 36.9763 92.556 34.394C92.556 34.394 94.5 37.5 93 41C93 41 96.4972 37.6649 96.3181 35.7713C96.3181 35.7713 98.1095 39.7307 97.3929 41.2801C96.6764 42.8295 98.2887 43.6902 98.2887 43.6902C98.2887 43.6902 100.618 43.5181 100.438 41.7966C100.438 41.7966 103.126 43.8624 101.872 46.4447C100.797 49.0269 101.872 49.8877 101.872 49.8877C101.872 49.8877 98.6609 51.3539 96.8693 50.7485Z" fill="#007D29"/>
<path d="M88.8873 15.6935C88.8873 15.6935 88.4498 12.3401 89.6164 10.1045C90.9287 7.54952 89.1789 5.79297 89.1789 5.79297C89.1789 5.79297 90.3454 7.23015 89.4705 8.9867C88.7415 10.1045 86.7 13.2982 88.8873 15.6935Z" fill="#009C33"/>
<path opacity="0.4" d="M98.1582 26.6934C98.1582 26.6934 101.811 23.0265 98.8539 19.5343C95.8972 16.042 95.2015 14.8197 95.7233 12.5497C95.7233 12.5497 95.5493 14.4705 96.7668 15.3435C96.7668 15.3435 95.2015 8.00979 97.2886 4.69214C97.2886 4.69214 91.0274 12.7244 93.8101 18.312C93.8101 18.312 92.5927 17.2643 92.5927 16.2166C92.5927 16.2166 91.5491 18.312 93.4623 19.8835C95.3754 21.455 99.2017 23.0265 98.1582 26.6934Z" fill="white"/>
<path opacity="0.4" d="M108.001 37.6953C108.001 37.6953 108.186 34.293 110.211 32.762C112.237 31.231 111.316 28.3391 111.316 28.3391C111.316 28.3391 112.606 29.1896 112.421 30.7207C112.421 30.7207 115.368 28.6793 113.895 26.2977C112.421 23.9161 112.237 21.8748 112.606 21.1943C112.606 21.1943 110.764 23.2357 111.501 25.1069C111.501 25.1069 110.58 24.4265 110.58 23.9161C110.58 23.9161 108.186 25.9575 109.843 29.0195C111.132 31.9115 106.528 33.6126 108.001 37.6953Z" fill="white"/>
<path opacity="0.4" d="M87.8262 25.5942C87.8262 25.5942 90.825 29.1944 89.943 32.4518C89.061 35.7091 86.415 37.7664 86.7678 38.795C86.7678 38.795 85.1803 36.9092 85.8858 34.3376C85.8858 34.3376 85.8859 35.5377 86.415 35.1948C86.415 35.1948 85.1803 32.7947 86.415 30.3945C86.415 30.3945 86.2386 30.7374 86.7678 31.2517C87.1206 31.766 87.1206 32.7947 87.1206 32.7947C87.1206 32.7947 89.2374 28.1658 87.8262 25.5942Z" fill="white"/>
</svg>
