<svg width="181" height="56" viewBox="0 0 181 56" fill="none" xmlns="http://www.w3.org/2000/svg">
<path d="M21.8526 35.2934C21.8526 32.7948 19.8379 30.7646 17.5131 30.7646L4.33953 33.2633C1.8598 33.2633 0 35.2934 0 37.792V41.6962C0 44.1948 2.01478 46.2249 4.33953 46.2249H16.8932H17.3581H18.598C19.5279 43.8825 20.6128 39.9783 21.8526 35.2934Z" fill="#009C33"/>
<path d="M159.014 35.2934C159.014 32.7948 161.028 30.7646 163.353 30.7646L176.527 33.2633C179.006 33.2633 180.866 35.2934 180.866 37.792V41.6962C180.866 44.1948 178.851 46.2249 176.527 46.2249H163.973H163.508H159.169C158.239 43.8825 159.014 35.4496 159.014 35.2934Z" fill="#009C33"/>
<path d="M161.182 48.411L161.027 48.0986L157.618 35.9178L155.448 28.1096C152.193 16.7096 148.319 0 128.481 0L50.8343 0.156164C30.9964 0.156164 27.1218 17.0219 23.8672 28.2658C23.0923 30.7644 22.4723 33.263 21.8524 35.4493C20.6125 40.1342 19.5277 43.8822 18.7527 46.2247C18.2878 47.7863 18.1328 48.5671 18.1328 48.5671L156.378 48.411H159.478H161.182ZM26.1919 45.9123L29.6016 31.389C30.0665 29.5151 30.3765 27.7973 30.6865 26.2356C32.2363 18.1151 33.1662 12.6493 47.2697 12.6493L132.045 12.4931C146.149 12.4931 147.079 17.8027 148.629 26.0795C148.939 27.6411 149.249 29.3589 149.714 31.2329L153.278 45.7562L26.1919 45.9123Z" fill="#009C33"/>
<path d="M161.182 48.4111H159.477H156.378L18.1327 48.5673L12.8633 54.0331L168.931 55.5947L161.182 48.4111Z" fill="#009C33"/>
<path d="M149.558 31.2329C149.093 29.3589 148.783 27.6411 148.473 26.0795C146.923 17.9589 145.993 12.4932 131.89 12.4932L47.2691 12.6493C33.1657 12.6493 32.2358 18.1151 30.6859 26.2356C30.376 27.7973 30.066 29.5151 29.601 31.3891L26.1914 45.9123L153.123 45.7562L149.558 31.2329Z" fill="white"/>
<path opacity="0.1" d="M65.094 8.1203L59.6696 12.6491C59.6696 12.6491 45.8761 45.7559 101.98 45.9121C101.98 45.9121 31.5013 52.6957 27.0012 48.4998C21.501 48.4998 15.6544 1.40523 65.094 8.1203Z" fill="#009C33"/>
<path d="M76.8711 45.9122C76.8711 45.9122 80.5907 42.1643 80.9007 41.6958C81.0556 41.3835 87.4099 39.5095 92.3694 37.7917C93.4543 37.4794 94.3842 37.167 95.1591 36.8547L97.7938 35.4492L99.8086 36.0739L94.2292 38.104L90.9746 39.3533H89.7347L87.5649 40.6026L83.3804 41.852L84.3103 43.4136L81.6756 45.7561H76.8711V45.9122Z" fill="#009C33"/>
<path d="M131.891 38.2601L136.695 38.8848L137.935 37.167L141.035 39.978V42.4766L143.825 42.0081L146.459 44.3505L145.684 45.756H142.74L144.909 44.819L144.754 44.0382L143.979 42.4766L141.655 42.9451L139.175 43.4136L139.64 41.8519L140.105 40.6026L138.865 39.1971L136.695 41.2273H135.145L130.961 42.1643L124.917 43.4136L122.592 39.6656L125.382 39.978L125.072 41.5396L125.382 42.1643L127.861 42.3204L129.101 40.7588L134.061 40.6026L134.526 39.8218L132.356 38.8848L130.961 38.7286L130.806 39.6656L129.101 38.7286L131.891 38.2601Z" fill="#009C33"/>
<path d="M93.4554 37.9477H97.7949L99.6547 38.4162L103.219 39.3532L104.459 37.6354L105.389 37.9477L107.869 37.0107L107.094 38.8847L105.544 40.6025H103.374L101.515 41.2272L99.1898 40.7587L97.9499 39.8217L95.9351 40.2902L95.3152 38.5724L92.6805 39.5094L92.0605 39.0409L93.4554 37.9477Z" fill="#009C33"/>
<path d="M105.233 21.0822V17.8028L97.4841 14.211L95.7793 12.4932H105.233L100.429 13.5863L104.458 15.6165L104.303 16.7096L106.008 17.1781L106.628 17.8028L106.008 18.2712L107.403 18.8959L106.473 19.5206L107.868 20.7699L108.023 21.5507L105.233 21.0822Z" fill="#009C33"/>
<path d="M133.75 25.4548L135.3 26.2356L143.514 23.8932L147.389 17.8028L145.064 16.085L141.034 20.1452L141.654 21.5507L133.75 25.4548Z" fill="#009C33"/>
<path d="M117.323 20.7699L108.489 22.4877L98.1047 20.7699L99.9645 25.1425L87.2559 27.3288L89.8906 31.389L97.6397 32.1699L98.2597 36.3863L105.854 38.8849L113.448 37.011L124.917 43.4137L132.356 39.1973V33.8877L139.485 32.1699L143.515 27.7973L138.865 29.3589L134.526 25.1425L132.666 19.6767L122.282 20.7699L117.943 17.8027L117.323 20.7699Z" fill="#59B267"/>
<path d="M116.703 19.6766L108.024 21.5506L97.6398 19.6766L99.4996 24.2054L86.791 26.2355L89.2707 30.4519L97.0199 31.0766L97.7948 35.293L105.389 37.9478L112.983 36.0739L125.072 41.5396L131.891 38.2602V32.7944L138.865 31.0766L143.515 27.7971L138.4 28.2656L132.821 24.3615L132.666 19.6766H121.817L117.478 16.7095L116.703 19.6766Z" fill="#007D29"/>
</svg>
