<svg width="208" height="97" viewBox="0 0 208 97" fill="none" xmlns="http://www.w3.org/2000/svg">
<path d="M-14 90.3473C-14 93.8933 47.2066 96.7301 122.672 96.7301C198.137 96.7301 259.343 93.8933 259.343 90.3473C259.343 86.8013 198.137 83.9645 122.672 83.9645C47.2066 83.7872 -14 86.8013 -14 90.3473Z" fill="#C8DFC7"/>
<path d="M27.2068 53.5566L28.0786 69.773L26.6836 86.6869L31.566 87.5587L34.5302 72.0398L36.9715 60.1827L41.6796 71.3424L37.669 84.7688L42.3769 84.9432L48.3055 69.4243L41.8539 55.3003L27.2068 53.5566Z" fill="#009C33"/>
<path d="M26.6753 86.6873L26.1523 89.4772L31.3834 90.5234H34.5127L31.5578 87.5591L26.6753 86.6873Z" fill="#007D29"/>
<path d="M37.6592 84.4204L37.3105 87.2103L45.5058 88.0822L45.1572 87.036L42.8903 85.8153L42.3671 84.9435L37.6592 84.4204Z" fill="#007D29"/>
<path d="M21.4532 16.0641C20.9301 15.1923 19.7095 14.8435 18.8377 15.3666C17.9658 15.8897 17.6172 17.1103 18.1404 17.9822L18.3147 18.3309C18.8378 19.2028 20.0584 19.5515 20.9302 19.0284C21.8021 18.5053 22.6738 18.1566 22.1507 17.2847L21.4532 16.0641Z" fill="#59B267"/>
<path d="M31.733 37.3409C31.733 37.3409 28.5945 35.2485 27.7227 34.3766C26.8508 33.5048 24.4096 30.0174 24.4096 30.0174L18.3066 19.0321L22.317 17.114L27.897 26.8787L34.3486 31.0636L31.733 37.3409Z" fill="#009C33"/>
<path d="M63.9861 46.7556C63.6373 47.8019 62.5912 48.4993 61.7194 48.1506L60.673 47.8019C59.8011 47.4531 59.2781 46.4069 59.6268 45.3607C59.9756 44.3145 61.0219 43.617 61.8937 43.9657L62.9399 44.3145C63.8117 44.6632 64.3348 45.7094 63.9861 46.7556Z" fill="#59B267"/>
<path d="M41.8444 55.3001L47.2498 40.4787C47.9473 36.4682 46.2036 32.9808 42.7162 31.9346L39.0545 30.714C35.7415 29.6678 32.0797 31.2371 31.2079 34.2014L27.1973 53.3821L41.8444 55.3001Z" fill="#009C33"/>
<path d="M44.8184 33.3271L51.7931 39.6044L61.5578 43.7893L60.3373 47.9742L51.7931 45.7074L45.6902 43.0918L44.8184 33.3271Z" fill="#009C33"/>
<path d="M41.6795 23.2114C42.377 22.3396 42.9 21.9908 43.9462 21.9908C44.9924 21.9908 45.8644 22.1652 46.9106 22.5139C47.6081 22.6883 48.3055 22.8627 49.003 23.037C49.1773 21.6421 49.8747 20.7702 51.0953 19.5496C49.526 19.5496 48.1311 19.0265 46.5617 18.5034C44.6437 17.8059 41.505 16.7597 39.5869 17.9803C37.4945 19.3753 38.1919 22.5139 38.0176 24.7807C38.0176 25.3038 38.0176 25.6526 38.0176 26.1757C39.5869 26.0013 40.8077 24.2576 41.6795 23.2114Z" fill="#009C33"/>
<path d="M48.8272 22.8614C48.1297 22.687 47.4321 22.3383 46.7346 22.3383C45.8628 22.1639 44.8166 21.9896 43.7704 21.8152C42.7242 21.8152 42.0266 22.1639 41.5035 23.0358C40.6317 24.2564 39.4111 26.0001 37.8418 26.0001C37.8418 26.1744 37.8418 26.5232 38.0161 26.6975C39.0623 29.6618 44.9909 32.2774 45.8628 30.5337C46.909 28.6156 48.8272 25.8257 48.8272 23.3845C48.8272 23.3845 48.8272 23.2102 48.8272 22.8614Z" fill="#59B267"/>
<path d="M13.4274 20.2509L20.751 15.0198C28.2489 8.91688 38.3624 0.547131 39.9317 0.198391C39.9317 0.198391 41.3265 -0.499083 42.1984 0.721506C43.2446 2.11646 42.1984 3.16267 42.1984 3.16267L21.6229 16.066L14.2992 20.5996C14.2992 20.5996 14.1248 21.6459 13.6017 21.2971C12.9042 20.774 12.5555 19.7278 13.4274 20.2509Z" fill="#007D29"/>
<path d="M143.334 36.9887C143.334 36.8143 143.334 36.64 143.334 36.64V33.6757C143.334 32.4551 144.206 31.5833 145.427 31.5833L151.704 32.8038C152.925 32.8038 153.796 33.85 153.796 34.8963V36.64C153.796 37.8606 152.925 38.7324 151.704 38.7324H145.776H145.601H141.939V36.9887H143.334Z" fill="#009C33"/>
<path d="M77.9372 38.0364C77.9372 37.8621 78.1115 37.6877 78.1115 37.6877L78.6347 34.7234C78.809 33.5028 78.1115 32.4566 77.0653 32.2822L71.8342 35.0722C70.788 34.8978 70.0906 35.0721 69.9162 36.1184L69.0443 37.1646C68.87 38.3852 68.5213 38.0364 69.7419 38.2108L75.6705 39.4314H75.8448L79.5065 40.1289L79.8552 38.3852L77.9372 38.0364Z" fill="#009C33"/>
<path d="M145.069 39.9567C145.069 39.9567 143.849 35.5975 142.279 30.3664C140.71 25.1353 138.966 17.1143 129.55 17.1143H92.5839C83.1679 17.1143 81.2498 24.9609 79.6805 30.3664L76.8906 39.9567H145.069Z" fill="#009C33"/>
<path d="M158.502 66.4598L157.455 76.2245C157.455 78.1425 157.804 79.7119 155.886 79.7119L66.0858 79.5375C64.1677 79.5375 64.5164 77.9682 64.5164 76.0501L63.6445 66.2854L158.502 66.4598Z" fill="#59B267"/>
<path d="M64.6907 53.7284C64.6907 52.1591 65.0394 51.1128 65.5626 50.4154C65.7369 50.0666 66.0857 49.8922 66.2601 49.7179L76.8966 39.7788L145.075 39.9532L155.363 50.241C155.712 50.4154 156.06 50.7641 156.235 51.1128L156.409 51.2872C157.107 52.3334 157.455 53.554 157.455 55.4721L158.676 66.6317L63.6445 66.4574L64.6907 53.7284Z" fill="#009C33"/>
<path d="M140.195 37.863L138.8 31.9344C137.579 26.529 138.451 23.7391 131.128 23.5647H90.8484C83.5249 23.5647 84.3967 26.529 83.1761 31.7601L81.7812 37.6887L140.195 37.863Z" fill="#E6F5EB"/>
<path d="M82.4781 31.7578C82.6524 30.886 82.8269 30.0141 83.0013 29.3167C83.6987 25.4805 84.2219 22.865 90.8479 22.865H131.127C137.753 22.865 138.276 25.4805 138.974 29.3167C139.148 30.0141 139.323 30.886 139.497 31.7578L141.066 38.5583L80.7344 38.3839L82.4781 31.7578ZM138.102 32.1066C137.928 31.2347 137.753 30.3629 137.579 29.6654C136.882 26.0036 136.533 24.4343 131.127 24.4343H90.8479C85.4424 24.4343 85.0938 26.0036 84.3963 29.6654C84.2219 30.3629 84.0475 31.2347 83.8731 32.1066L82.6526 37.1633H139.323L138.102 32.1066Z" fill="#E6F5EB"/>
<path d="M145.247 90.3489H152.047C154.139 90.3489 156.058 88.7796 156.058 86.8615V79.8867H141.41V86.8615C141.236 88.7796 142.98 90.3489 145.247 90.3489Z" fill="#007D29"/>
<path d="M70.4401 90.3489H77.2403C79.5071 90.3489 81.2509 88.7796 81.2509 86.8615V79.8867H66.6038V86.8615C66.4294 88.6052 68.1733 90.3489 70.4401 90.3489Z" fill="#007D29"/>
<path d="M154.838 70.2945L155.187 75.3512C155.187 76.5718 154.315 77.4437 153.269 77.4437H144.55C143.33 77.4437 142.806 76.5718 143.504 75.5256C144.724 73.7819 147.34 71.1663 152.92 68.8995C153.792 68.5508 154.838 69.0739 154.838 70.2945Z" fill="#59B267"/>
<path d="M66.6143 69.9454L66.2656 75.0021C66.2656 76.2227 66.9631 77.0945 68.1836 77.0945H76.9021C78.1227 77.0945 78.6458 76.2227 77.9483 75.1765C76.7277 73.4328 74.1121 70.8172 68.5323 68.5504C67.6605 68.2017 66.6143 68.7248 66.6143 69.9454Z" fill="#59B267"/>
<path d="M87.1894 77.097H134.618C136.013 77.097 137.931 76.2252 138.977 75.0046L142.988 70.2966C144.034 69.2504 143.511 68.2042 142.116 68.2042L79.5171 68.0298C78.1221 68.0298 77.7734 68.9016 78.6452 70.1222L82.6558 74.8302C83.8764 76.2252 85.7945 77.097 87.1894 77.097Z" fill="#009C33"/>
<path d="M145.604 61.0523C150.312 61.0523 152.927 59.483 153.276 56.1699C153.45 55.4725 153.45 54.775 153.276 54.2519C153.276 54.2519 152.753 52.8569 151.881 52.8569C150.835 52.8569 151.532 52.8569 151.358 52.8569H151.183H151.009H150.835C146.127 53.2057 138.978 54.4263 137.059 56.3443C137.059 56.3443 135.316 58.6111 138.977 60.1805H139.326C139.326 60.1805 142.291 61.0523 145.604 61.0523Z" fill="white"/>
<path d="M76.3712 61.0523C71.6633 61.0523 69.0479 59.483 68.6991 56.1699C68.5248 55.4725 68.5248 54.775 68.6991 54.2519C68.6991 54.2519 69.2221 52.8569 70.094 52.8569C71.1402 52.8569 70.4428 52.8569 70.6172 52.8569H70.7915H70.9658H71.1401C75.8481 53.2057 82.9973 54.4263 84.9154 56.3443C84.9154 56.3443 86.6591 58.6111 82.9974 60.1805H82.6487C82.8231 60.1805 79.6843 61.0523 76.3712 61.0523Z" fill="white"/>
</svg>
