<?xml version="1.0" encoding="utf-8"?>
<!-- Generator: Adobe Illustrator 24.3.0, SVG Export Plug-In . SVG Version: 6.00 Build 0)  -->
<svg version="1.1" id="Layer_1" xmlns="http://www.w3.org/2000/svg" xmlns:xlink="http://www.w3.org/1999/xlink" x="0px" y="0px"
	 viewBox="0 0 210 107" style="enable-background:new 0 0 210 107;" xml:space="preserve">
<style type="text/css">
	.st0{fill:none;}
	.st1{fill:#C8DFC7;}
	.st2{fill:#009C33;}
	.st3{clip-path:url(#SVGID_2_);}
	.st4{fill:#59B267;}
	.st5{opacity:0.4;fill:#FFFFFF;enable-background:new    ;}
</style>
<rect x="0.1" y="0.1" class="st0" width="209.9" height="106.9"/>
<path class="st1" d="M0.1,75.1c0,1.3,47,2.4,105,2.4S210,76.5,210,75.1s-47-2.4-104.9-2.4S0.1,73.8,0.1,75.1z"/>
<path class="st2" d="M33.5,63.1c0,0,0,3.2,3.5,0c3.5-3.2,8-0.6,11.8-2.4c3.8-1.8,15.9-8.7,15.9-8.7v9.1l-4.3,3.4
	c0,0-0.1,8.6,0.5,8.8s6.6,2.7,6.9,1.6c0.3-1.1-1.3-3.3-2.1-4.9c-0.8-1.6-1.2-2.7,0.2-3.7c1.4-1,10.6-7.6,10.9-10.4
	c0,0,1.3,5.1,0.7,5.7c-0.6,0.6-3,4.1-2.7,5.3c0.3,1.2,2.6,4.6,2.8,5.3c0.3,0.8,6.5,1.1,6.7,0.6S79,67.4,79,66.8
	c0-0.6,9.7-7.9,8.7-14.8c0,0,15.7-2.3,33.6,10.1c0,0,1.6,8,3.7,9.4c0,0,0.9,3.4,3.4,3.7c2.5,0.3,2.3-0.9,1.8-2.1l-0.6-1.3l0,0
	c-0.9-2-1.7-4.1-2.4-6.2c0,0,3.6,0.5,4.1-0.4c0,0,5.4,7.4,7.6,7.7c0,0,0.4,1.3,3.4,1.3c3.8-0.1,2.3-2,1.5-2.3
	c-0.7-0.2-7.7-6.7-8-9.1c0,0,10.6-4.7,11.7-12c2.7-0.2,5.4-0.2,8.2,0c2.6,0.3,7.5-1.7,7.9-3.4c0.4-1.7-1.7-2.4-2.3-2.6
	c-0.6-0.2-6.7-5.6-10-5.3c0,0-2.3-2-2.9-1.8c-1,0.2-3.6,3-4.3,3.1c-0.6,0-12.3,7.5-15.8,6.2c-3.6-1.3-29.1-13.4-38.1-12.5
	c-9,0.9-18.7,2.9-26.1,10.3C58.8,50.2,52,54,44.5,55.7C39.7,56.7,32.2,60.8,33.5,63.1z"/>
<g>
	<defs>
		<path id="SVGID_1_" d="M33.5,63.1c0,0,0,3.2,3.5,0c3.5-3.2,8-0.6,11.8-2.4c3.8-1.8,15.9-8.7,15.9-8.7v9.1l-4.3,3.4
			c0,0-0.1,8.6,0.5,8.8s6.6,2.7,6.9,1.6c0.3-1.1-1.3-3.3-2.1-4.9c-0.8-1.6-1.2-2.7,0.2-3.7c1.4-1,10.6-7.6,10.9-10.4
			c0,0,1.3,5.1,0.7,5.7c-0.6,0.6-3,4.1-2.7,5.3c0.3,1.2,2.6,4.6,2.8,5.3c0.3,0.8,6.5,1.1,6.7,0.6S79,67.4,79,66.8
			c0-0.6,9.7-7.9,8.7-14.8c0,0,15.7-2.3,33.6,10.1c0,0,1.6,8,3.7,9.4c0,0,0.9,3.4,3.4,3.7c2.5,0.3,2.3-0.9,1.8-2.1l-0.6-1.3l0,0
			c-0.9-2-1.7-4.1-2.4-6.2c0,0,3.6,0.5,4.1-0.4c0,0,5.4,7.4,7.6,7.7c0,0,0.4,1.3,3.4,1.3c3.8-0.1,2.3-2,1.5-2.3
			c-0.7-0.2-7.7-6.7-8-9.1c0,0,10.6-4.7,11.7-12c2.7-0.2,5.4-0.2,8.2,0c2.6,0.3,7.5-1.7,7.9-3.4c0.4-1.7-1.7-2.4-2.3-2.6
			c-0.6-0.2-6.7-5.6-10-5.3c0,0-2.3-2-2.9-1.8c-1,0.2-3.6,3-4.3,3.1c-0.6,0-12.3,7.5-15.8,6.2c-3.6-1.3-29.1-13.4-38.1-12.5
			c-9,0.9-18.7,2.9-26.1,10.3C58.8,50.2,52,54,44.5,55.7C39.7,56.7,32.2,60.8,33.5,63.1z"/>
	</defs>
	<clipPath id="SVGID_2_">
		<use xlink:href="#SVGID_1_"  style="overflow:visible;"/>
	</clipPath>
	<g class="st3">
		<path class="st4" d="M149.6,52l-2-1.2c-1.2-0.3-2.4,0.2-3.1,1.2c-1.1,1.8-4.4,9.2-8.7,10.8C135.8,62.8,151,63,149.6,52z"/>
		<path class="st4" d="M118.3,66.7l3-4.7c0,0-7.6-13.5-33.6-10L118.3,66.7z"/>
		<path class="st4" d="M63.3,55.9l1.3-4c0,0-12,4.2-15.9,8.7S63.3,55.9,63.3,55.9z"/>
		<path class="st5" d="M69.9,33.4L67,42.2c0,0,22.6-14.8,56.3,5.3c0,0,4.2,2.4,7.6,0.7c3.4-1.8,13.2-7.4,13.2-7.4L113.4,31
			L69.9,33.4z"/>
	</g>
</g>
<path class="st2" d="M151,75.8l-0.3-1.3c0,0,5.6-1.1,11.5-2c0.3,0,1.1-0.2,1.5-1.8l-0.4-0.3c-4.2-3.5-8.7-18.3-7-20.9
	c0.4-0.6,1.1-0.7,1.7-0.4c0,0,0,0,0,0c3,1.5,7.9,14.7,7.2,20.9c5.8,2.9,22.8,3,23,3v1.3c-0.7,0-16.8,0-23.3-3
	c-0.2,1.3-1.2,2.2-2.5,2.4C156.6,74.7,151,75.8,151,75.8z M157.3,50.3c0,0-0.2,0.4-0.1,1.8c0.4,4.6,3.6,14.2,6.7,17
	C164.2,63,159.6,51.3,157.3,50.3L157.3,50.3z"/>
</svg>
