<svg width="208" height="97" viewBox="0 0 208 97" fill="none" xmlns="http://www.w3.org/2000/svg">
<path d="M-30 89.9361C-30 93.4716 30.9892 96.2999 106.186 96.2999C181.383 96.2999 242.372 93.4716 242.372 89.9361C242.372 86.4006 181.383 83.5723 106.186 83.5723C30.9892 83.5723 -30 86.4006 -30 89.9361Z" fill="#C8DFC7"/>
<path d="M71.3879 37.5845C71.3879 37.4108 71.3879 37.237 71.3879 37.237V34.2832C71.3879 33.067 70.5191 32.1982 69.3029 32.1982L63.0479 33.4145C61.8317 33.4145 60.9629 34.457 60.9629 35.4995V37.237C60.9629 38.4532 61.8317 39.322 63.0479 39.322H68.9554H69.1292H72.7779V37.5845H71.3879Z" fill="#009C33"/>
<path d="M136.538 38.6298C136.538 38.456 136.365 38.2823 136.365 38.2823L135.843 35.3285C135.669 34.1123 136.365 33.0697 137.407 32.896L141.403 34.1123C142.446 33.9385 144.01 34.981 144.183 36.0235L145.747 36.8923C145.921 38.1085 145.573 39.151 144.531 39.3248L138.971 39.846H138.797L135.148 40.541L134.801 38.8035L136.538 38.6298Z" fill="#009C33"/>
<path d="M69.8223 40.3655C69.8223 40.3655 71.0386 36.0217 72.6023 30.8092C74.1661 25.5967 75.9036 17.6042 85.2861 17.6042H122.121C127.507 17.6042 127.334 19.6892 129.071 22.8167C129.592 23.6855 130.982 25.5967 131.33 26.4655C132.025 28.203 134.457 29.2455 134.979 30.6355L137.759 40.1917L69.8223 40.3655Z" fill="#009C33"/>
<path d="M56.2656 66.9492L57.3082 76.6792C57.3082 78.5904 56.9606 80.1542 58.8719 80.1542L147.137 79.9804C149.048 79.9804 148.701 78.4167 148.701 76.5054L150.786 66.7754L56.2656 66.9492Z" fill="#59B267"/>
<path d="M148.006 59.1323C148.006 57.5685 147.832 56.526 147.311 55.831L146.094 54.441L142.272 53.3985C142.098 53.051 144.531 51.3135 144.531 48.7073L141.751 44.711L138.797 43.321L137.754 40.0198L69.8181 40.1935L59.5669 50.4448C59.2194 50.6185 58.8719 50.966 58.6982 51.3135L58.5244 51.4873C57.8294 52.5298 57.4819 53.746 57.4819 55.6573L56.2656 66.7773L150.959 66.6035L148.006 59.1323Z" fill="#009C33"/>
<path d="M131.33 34.1114C131.156 33.2426 128.376 31.8526 128.202 31.1576C127.507 27.3351 125.075 23.3389 118.472 23.3389H83.5483C76.9458 23.3389 76.4246 25.9451 75.7296 29.7676C75.5558 30.4626 75.3821 31.3314 75.2083 32.2001L73.6445 38.9764L133.762 38.8026L131.33 34.1114Z" fill="#E6F5EB"/>
<path d="M69.6475 90.7522H62.8712C60.7862 90.7522 58.875 89.1884 58.875 87.2772V80.3271H73.47V87.2772C73.6438 89.0147 71.7325 90.7522 69.6475 90.7522Z" fill="#007D29"/>
<path d="M144.181 90.5805H137.404C135.146 90.5805 133.408 89.0168 133.408 87.1055V80.1555H148.003V87.1055C148.003 89.0168 146.266 90.5805 144.181 90.5805Z" fill="#007D29"/>
<path d="M59.9139 70.5966L59.5664 75.6354C59.5664 76.8516 60.4351 77.7204 61.4776 77.7204H70.1651C71.3814 77.7204 71.9027 76.8516 71.2077 75.8091C69.9914 74.0716 67.3851 71.4654 61.8251 69.2066C60.9564 68.8591 60.0877 69.5541 59.9139 70.5966Z" fill="#59B267"/>
<path d="M148.011 70.2497L148.359 75.2884C148.359 76.5047 147.664 77.3734 146.448 77.3734H137.76C136.544 77.3734 136.023 76.5047 136.718 75.4622C137.934 73.7247 140.54 71.1184 146.1 68.8597C146.969 68.5122 147.838 69.2072 148.011 70.2497Z" fill="#59B267"/>
<path d="M127.332 77.547H80.072C78.682 77.547 76.7707 76.6782 75.7282 75.462L71.732 70.7707C70.6895 69.7282 71.2108 68.6857 72.6008 68.6857L134.977 68.512C136.367 68.512 136.714 69.3807 135.846 70.597L131.849 75.2882C130.633 76.6782 128.722 77.547 127.332 77.547Z" fill="#009C33"/>
<path d="M69.123 61.3909C64.4318 61.3909 61.8255 59.8271 61.478 56.5258C61.3042 55.8308 61.3042 55.1358 61.478 54.6146C61.478 54.6146 61.9992 53.2246 62.8679 53.2246C63.9104 53.2246 63.2155 53.2246 63.3893 53.2246H63.563H63.7367H63.9105C68.6018 53.5721 75.7254 54.7884 77.6367 56.6996C77.6367 56.6996 79.3742 58.9584 75.7255 60.5221H75.378C75.5517 60.6959 72.4243 61.3909 69.123 61.3909Z" fill="white"/>
<path d="M143.485 62.0857C148.176 62.0857 139.663 60.8694 140.01 57.7419C140.184 57.0469 131.323 54.7882 129.412 56.6995C129.412 56.6995 127.674 58.9582 131.323 60.522H131.67C131.844 60.522 140.184 62.0857 143.485 62.0857Z" fill="white"/>
<path d="M103.54 -11C103.54 -11 96.1036 -6.17228 102.265 0.191553C108.427 6.55539 103.54 14.4553 103.54 14.4553C103.54 14.4553 109.489 6.77486 106.727 1.72768C103.965 -3.3195 101.415 -8.58613 103.54 -11Z" fill="#59B267"/>
<path d="M90.8209 -5.91089C90.8209 -5.91089 85.9528 -2.02107 89.9194 3.01278C93.886 8.04664 90.8209 14.4534 90.8209 14.4534C90.8209 14.4534 94.7874 8.27545 92.9844 4.15684C91.0011 0.267044 89.3785 -3.85158 90.8209 -5.91089Z" fill="#59B267"/>
<path d="M116.27 -2.09131C116.27 -2.09131 111.379 0.956634 115.419 5.09312C119.46 9.2296 116.27 14.4546 116.27 14.4546C116.27 14.4546 120.311 9.44731 118.397 6.18167C116.483 2.91602 114.569 -0.567341 116.27 -2.09131Z" fill="#59B267"/>
</svg>
