<svg width="208" height="67" viewBox="0 0 208 67" fill="none" xmlns="http://www.w3.org/2000/svg">
<path d="M-5 61.8193C-5 64.3193 43.1425 66.3193 102.5 66.3193C161.858 66.3193 210 64.3193 210 61.8193C210 59.3193 161.858 57.3193 102.5 57.3193C43.1425 57.3193 -5 59.3193 -5 61.8193Z" fill="#C8DFC7"/>
<path d="M126.386 52.389C126.386 52.389 133.622 30.4102 114.783 29.4546C95.3977 28.3625 94.3055 27.1339 94.3055 27.1339C94.3055 27.1339 78.4699 9.52363 53.0784 11.1618C27.0043 12.8 16.6292 17.851 17.1753 17.5779C17.1753 17.5779 17.1753 18.8066 17.9944 18.67C19.3595 18.5335 9.5305 29.4546 9.25747 35.8708C8.98445 42.2869 11.7147 52.5255 11.7147 52.5255H126.386V52.389Z" fill="#009C33"/>
<path d="M127.477 39.9661C125.293 39.9661 119.969 39.9661 119.423 39.4201C115.873 35.5977 118.33 34.6421 118.33 34.6421H125.429C126.658 36.2803 127.204 38.1914 127.477 39.9661Z" fill="white"/>
<path d="M90.6193 28.7718C89.6637 24.2669 76.1489 16.3491 65.9103 15.1205C55.2623 14.4379 49.1191 14.8474 49.1191 14.8474L49.3922 28.7718C49.3922 28.7718 85.8413 28.7718 90.6193 28.7718Z" fill="#CCEBD6"/>
<path d="M49.3914 29.3181C49.1183 29.3181 48.8453 29.045 48.8453 28.772L48.5723 14.8476C48.5723 14.5746 48.8453 14.3016 49.1183 14.3016C49.2548 14.3016 51.0295 14.165 54.4424 14.165C57.9917 14.165 61.9506 14.3016 66.046 14.5746C76.148 15.8032 90.3455 23.721 91.3011 28.772C91.3011 28.9085 91.3011 29.1816 91.1646 29.3181C91.028 29.4546 90.8915 29.5911 90.755 29.5911C85.8405 29.4546 49.3914 29.3181 49.3914 29.3181ZM49.6644 15.3937L49.9374 28.0894C54.4424 28.0894 83.1103 28.0894 89.7994 28.226C87.7517 23.994 75.4655 16.8953 65.9095 15.6667C61.9506 15.3937 57.9917 15.2571 54.4424 15.2571C52.1216 15.2571 50.4835 15.3937 49.6644 15.3937Z" fill="#59B267"/>
<path d="M47.2076 14.8477C47.2076 14.8477 28.9147 16.2128 25.2288 18.9431C25.2288 18.9431 24.8193 27.8165 21.543 28.7721H47.3441V14.8477H47.2076Z" fill="#CCEBD6"/>
<path d="M20.8613 28.7722C20.8613 28.4992 21.1344 28.2262 21.4074 28.2262C23.4551 27.5436 24.5472 22.2196 24.6837 18.9432C24.6837 18.8067 24.8202 18.5337 24.9567 18.5337C28.7791 15.8034 46.5259 14.3018 47.345 14.3018C47.4815 14.3018 47.618 14.3018 47.7545 14.4383C47.891 14.5748 47.891 14.7113 47.891 14.8478V28.7722C47.891 29.0452 47.618 29.3183 47.345 29.3183H21.5439C21.1344 29.4548 20.8613 29.1818 20.8613 28.7722ZM46.6624 15.5304C43.5226 15.8034 29.4617 17.1685 25.7758 19.3528C25.6393 20.8544 25.2298 25.9054 23.3186 28.2262H46.6624V15.5304Z" fill="#59B267"/>
<path d="M10.0763 32.3214C9.66674 33.55 9.2572 34.6421 8.84766 35.8707C9.12068 39.2836 9.66674 42.8329 10.3493 46.1093C10.8954 45.6997 11.3049 45.2902 11.851 45.0171C11.851 40.7852 12.124 36.5533 12.5335 32.3214C11.9875 31.9118 11.3049 31.6388 10.7589 31.2292C10.4858 31.6388 10.3493 32.0483 10.0763 32.3214Z" fill="#59B267"/>
<path d="M101.268 38.7376C101.268 38.7376 95.9443 36.0073 83.2486 36.0073C70.5528 36.0073 30.5542 36.0073 30.5542 36.0073C30.5542 36.0073 15.9473 36.1438 15.9473 48.157C15.9473 50.6143 15.9473 52.5255 15.9473 52.5255H101.268V38.7376Z" fill="#009C33"/>
<path d="M47.207 29.3181H50.8929V14.165L47.207 14.3016V29.3181Z" fill="#59B267"/>
<path d="M127.616 46.6555C127.206 49.9318 126.387 52.3891 126.387 52.3891H114.92V49.9319H120.927V47.6111L127.616 46.6555Z" fill="#59B267"/>
<path d="M87.7523 52.389H46.3887V51.2969H87.4793L87.7523 52.389Z" fill="#59B267"/>
<path d="M33.4205 38.7375C39.0176 38.7375 43.7955 42.0139 45.9798 46.7919C45.9798 46.7919 47.3449 49.2491 47.3449 52.662C45.7067 52.662 44.7511 52.662 44.7511 52.662H19.4961C19.4961 44.8807 25.7757 38.7375 33.4205 38.7375Z" fill="#59B267"/>
<path d="M21.543 52.5254C21.543 59.078 26.867 64.4021 33.4197 64.4021C39.9723 64.4021 45.2964 59.078 45.2964 52.5254C45.2964 45.9727 39.9723 40.6487 33.4197 40.6487C26.867 40.6487 21.543 45.9727 21.543 52.5254Z" fill="#009C33"/>
<path d="M33.4212 59.4876C37.2436 59.4876 40.3834 56.3478 40.3834 52.5254C40.3834 48.7031 37.2436 45.5632 33.4212 45.5632C29.5988 45.5632 26.459 48.7031 26.459 52.5254C26.459 56.3478 29.5988 59.4876 33.4212 59.4876Z" fill="#59B267"/>
<path d="M101.268 38.7375C106.865 38.7375 111.643 42.0139 113.827 46.7919C113.827 46.7919 115.193 49.2491 115.193 52.662C113.554 52.662 112.599 52.662 112.599 52.662H87.3438C87.3438 44.8807 93.6234 38.7375 101.268 38.7375Z" fill="#59B267"/>
<path d="M89.3906 52.5254C89.3906 59.078 94.7147 64.4021 101.267 64.4021C107.82 64.4021 113.144 59.078 113.144 52.5254C113.144 45.9727 107.82 40.6487 101.267 40.6487C94.7147 40.6487 89.3906 45.9727 89.3906 52.5254Z" fill="#009C33"/>
<path d="M101.267 59.4876C105.089 59.4876 108.229 56.3478 108.229 52.5254C108.229 48.7031 105.089 45.5632 101.267 45.5632C97.4445 45.5632 94.3047 48.7031 94.3047 52.5254C94.3047 56.3478 97.4445 59.4876 101.267 59.4876Z" fill="#59B267"/>
<path d="M11.0312 49.1128L20.4507 50.2049L19.4951 52.3891H11.8503C11.7138 52.3891 11.4408 51.024 11.0312 49.1128Z" fill="#59B267"/>
<path d="M84.0664 27.8164L84.6125 23.448C84.749 22.6289 85.7046 22.2194 86.6602 22.6289C88.8444 23.448 89.8 28.0895 89.6635 28.3625C89.1174 29.4546 87.6158 29.4546 85.8411 29.4546C84.8855 29.1816 84.0664 28.499 84.0664 27.8164Z" fill="#009C33"/>
<path d="M193.142 23.4479C193.142 23.3114 193.142 23.1749 193.142 23.1749L193.552 20.8542C193.688 19.8986 194.644 19.3525 195.463 19.489L200.104 21.4002C200.923 21.5367 201.606 22.4923 201.333 23.3114L201.06 24.6765C200.923 25.6321 199.968 26.1782 199.149 26.0417L194.507 25.0861H194.371L191.504 24.54L191.777 23.1749L193.142 23.4479Z" fill="#009C33"/>
<path d="M142.905 14.1647C142.905 14.0282 143.042 14.0282 143.042 13.8917L143.998 11.7074C144.407 10.8884 143.998 9.93277 143.178 9.52323L138.264 8.56763C137.445 8.29461 136.489 8.70415 136.08 9.52323L135.534 10.8884C135.124 11.7075 135.534 12.663 136.353 13.0726L140.721 14.8473L140.858 14.9838L143.452 16.0759L143.998 14.8473L142.905 14.1647Z" fill="#009C33"/>
<path d="M194.097 25.9051C194.097 25.9051 193.824 22.3557 193.415 18.1238C193.005 13.7554 192.869 7.47572 185.633 5.97407L157.239 0.240493C150.003 -1.26116 147.273 4.60893 145.362 8.43132L141.812 15.3935L194.097 25.9051Z" fill="#007D29"/>
<path d="M200.377 48.2935L198.193 55.6652C197.92 57.1669 197.92 58.3955 196.418 58.1225L127.478 44.3346C125.977 44.0616 126.523 42.8329 126.796 41.3313L127.615 33.6865L200.377 48.2935Z" fill="#59B267"/>
<path d="M130.21 24.2667C130.483 23.0381 130.893 22.3555 131.302 21.8095C131.439 21.6729 131.712 21.5364 131.985 21.3999L141.677 15.3933L193.962 25.9049L200.242 35.3243C200.515 35.5973 200.651 35.8704 200.788 36.1434V36.2799C201.197 37.099 201.197 38.1911 200.924 39.6928L200.105 48.4296L127.07 33.8227L130.21 24.2667Z" fill="#007D29"/>
<path d="M190.686 23.5847L190.55 18.8067C190.413 14.5748 191.506 12.3906 185.908 11.2985L154.92 5.15537C149.323 4.06326 149.596 6.38399 147.821 10.3429L145.773 14.7113L190.686 23.5847Z" fill="#CCEBD6"/>
<path d="M147.274 9.93315C147.547 9.25058 147.82 8.70453 148.093 8.15847C149.185 5.29168 150.005 3.38049 155.192 4.4726L186.181 10.6157C191.368 11.7078 191.232 13.619 191.232 16.7588C191.232 17.3049 191.232 17.9875 191.232 18.67L191.505 24.1306L145.227 14.8476L147.274 9.93315ZM190.003 18.8065C190.003 18.124 190.003 17.4414 190.003 16.7588C190.003 13.892 190.003 12.6634 185.908 11.7078L154.919 5.56471C150.687 4.74563 150.278 5.83774 149.185 8.56801C148.912 9.11407 148.776 9.79664 148.366 10.3427L146.728 14.0286L190.14 22.7654L190.003 18.8065Z" fill="#CCEBD6"/>
<path d="M186.453 64.6752L191.64 65.7673C193.279 66.0403 194.917 65.0847 195.19 63.583L196.282 58.1225L184.951 55.8018L183.859 61.2623C183.723 62.764 184.815 64.2656 186.453 64.6752Z" fill="#007D29"/>
<path d="M128.98 53.0714L134.168 54.1635C135.806 54.4365 137.444 53.4809 137.717 51.9793L138.809 46.5187L127.479 44.198L126.386 49.6586C126.25 51.2967 127.342 52.7984 128.98 53.0714Z" fill="#007D29"/>
<path d="M196.965 50.7508L196.419 54.7097C196.282 55.6653 195.463 56.2113 194.644 56.0748L187.955 54.7097C187.136 54.5731 186.726 53.7541 187.409 53.0715C188.638 51.9794 190.958 50.2047 195.6 49.3856C196.419 49.1126 197.102 49.7952 196.965 50.7508Z" fill="#59B267"/>
<path d="M129.255 36.9626L128.163 40.785C127.89 41.7406 128.436 42.5596 129.255 42.6962L135.944 44.0613C136.763 44.1978 137.446 43.6518 137.036 42.8327C136.354 41.331 134.852 38.8738 130.893 36.28C130.347 35.734 129.528 36.007 129.255 36.9626Z" fill="#59B267"/>
<path d="M143.997 45.6997L180.446 53.0714C181.538 53.3444 183.176 52.9349 184.132 52.1158L187.954 49.1125C188.91 48.4299 188.773 47.6108 187.681 47.4743L139.628 37.7819C138.536 37.5088 138.126 38.1914 138.672 39.147L140.993 43.3789C141.539 44.471 142.904 45.4266 143.997 45.6997Z" fill="#009C33"/>
<path d="M191.23 42.1502C194.916 42.8327 197.1 42.0137 197.919 39.6929C198.056 39.1469 198.192 38.6008 198.192 38.1913C198.192 38.1913 198.056 37.0992 197.237 36.8261C196.418 36.6896 196.964 36.6896 196.827 36.6896H196.691H196.554H196.418C192.868 36.1436 186.998 36.007 185.36 37.2357C185.36 37.2357 183.585 38.6008 186.316 40.512L186.589 40.6485C186.589 40.512 188.773 41.7406 191.23 42.1502Z" fill="white"/>
<path d="M138.127 31.502C134.441 30.8194 132.803 29.1813 132.94 26.5875C132.94 26.0414 133.076 25.4954 133.213 25.0858C133.213 25.0858 133.759 24.1303 134.578 24.2668C135.397 24.4033 134.851 24.2668 134.987 24.2668H135.124H135.26H135.397C138.946 25.2224 144.27 27.2701 145.362 29.0447C145.362 29.0447 146.454 30.9559 143.315 31.6385H143.042C143.178 31.9115 140.721 32.048 138.127 31.502Z" fill="white"/>
<path d="M115 7.78387C115 7.78387 117.38 4.48867 119.2 7.78387L122 26.3193H121.16L115 7.78387Z" fill="#80CE99"/>
<path d="M103 14.1237C103 14.1237 103.963 11.1554 106.3 12.8331L114 24.0612L113.312 24.3193L103 14.1237Z" fill="#80CE99"/>
<path d="M132 4.52607C132 4.52607 129.958 1.90535 128.208 4.38814L125 18.3193H125.729L132 4.52607Z" fill="#80CE99"/>
</svg>
