<svg width="148" height="93" viewBox="0 0 148 93" fill="none" xmlns="http://www.w3.org/2000/svg">
<path d="M130.729 17.3912C129.775 7.58887 121.664 0 111.964 0C104.012 0 97.3334 4.90114 94.471 12.0157C93.9939 12.0157 93.5169 12.0157 93.0398 12.0157C85.8837 12.0157 79.5227 16.1263 76.3422 22.1342C75.8651 22.1342 75.388 22.1342 75.07 22.1342C72.6846 22.1342 70.6173 22.7666 68.709 23.7152C76.6602 24.8219 83.4983 29.7231 87.1559 36.6795C87.792 36.6795 88.269 36.5214 88.9051 36.5214C96.2202 36.5214 102.422 41.2645 104.808 47.7466C119.756 47.7466 137.09 47.7466 137.09 47.7466C141.542 44.7427 144.405 39.6835 144.405 33.8337C144.405 25.4543 138.521 18.4979 130.729 17.3912Z" fill="#66C485"/>
<path d="M90.1553 35.8632C89.5204 35.8632 89.0443 35.8632 88.4094 36.0236C84.7587 28.965 77.9336 23.8315 69.9974 22.8689C69.0451 22.7085 67.934 22.7085 66.8229 22.7085C66.188 22.7085 65.5531 22.7085 64.9182 22.7085C61.2676 13.404 52.5378 6.98706 42.2207 6.98706C29.5228 6.98706 19.0469 17.0937 17.7771 29.9275C7.61878 31.5318 0 40.6759 0 51.5846C0 59.285 3.80938 66.0227 9.52345 69.8729H79.5209H89.5205C89.8379 69.8729 89.9967 69.8729 90.3141 69.8729C99.6788 69.8729 107.139 62.333 107.139 52.868C107.139 50.943 106.821 49.0179 106.187 47.2532C103.647 40.6759 97.4566 35.8632 90.1553 35.8632Z" fill="#009C33"/>
<path d="M38.1756 39.5955H51.3084L45.7704 54.5855H55.897L26.7832 86.1776L38.0174 59.9046H29.1566L38.1756 39.5955Z" fill="#80CE99"/>
<path d="M120.687 29.1133H129.7L125.998 38.9459H132.758L112.961 59.3916L120.526 42.3796H114.57L120.687 29.1133Z" fill="#007D29"/>
<path d="M10.4775 86.1772L8.14844 92" stroke="#007D29" stroke-width="1.75" stroke-miterlimit="10" stroke-linecap="round" stroke-linejoin="round"/>
<path d="M39.5967 86.1772L37.2676 92" stroke="#007D29" stroke-width="1.75" stroke-miterlimit="10" stroke-linecap="round" stroke-linejoin="round"/>
<path d="M67.5459 86.1772L65.2168 92" stroke="#007D29" stroke-width="1.75" stroke-miterlimit="10" stroke-linecap="round" stroke-linejoin="round"/>
<path d="M96.6592 86.1772L94.3301 92" stroke="#007D29" stroke-width="1.75" stroke-miterlimit="10" stroke-linecap="round" stroke-linejoin="round"/>
<path d="M124.606 86.1772L122.277 92" stroke="#007D29" stroke-width="1.75" stroke-miterlimit="10" stroke-linecap="round" stroke-linejoin="round"/>
<path d="M146.731 86.1772L144.402 92" stroke="#007D29" stroke-width="1.75" stroke-miterlimit="10" stroke-linecap="round" stroke-linejoin="round"/>
</svg>
