<svg width="208" height="82" viewBox="0 0 208 82" fill="none" xmlns="http://www.w3.org/2000/svg">
<path d="M-27 75.7375C-27 78.8499 32.935 81.3398 106.832 81.3398C180.729 81.3398 240.665 78.8499 240.665 75.7375C240.665 72.6252 180.729 70.1353 106.832 70.1353C32.935 70.1353 -27 72.6252 -27 75.7375Z" fill="#C8DFC7"/>
<path d="M49.7363 24.5685C49.7363 24.3986 49.7363 24.2286 49.7363 24.0587L49.3964 21.1695C49.2264 19.9798 48.2067 19.13 47.187 19.3L41.2386 20.9995C40.049 21.1695 39.3691 22.1892 39.3691 23.2089L39.5391 24.9084C39.7091 26.0981 40.7288 26.9479 41.7485 26.7779L47.5269 26.0981H47.6968L51.2659 25.7582L51.0959 24.0587L49.7363 24.5685Z" fill="#009C33"/>
<path d="M113.299 18.9602C113.299 18.7902 113.129 18.7902 113.129 18.6203L112.279 15.901C111.939 14.8813 112.449 13.6916 113.639 13.3517L119.757 12.6719C120.777 12.332 121.967 13.0118 122.307 14.0315L122.816 15.7311C123.156 16.7508 122.646 17.9405 121.457 18.2804L115.848 19.9799H115.678L112.279 20.9996L111.77 19.47L113.299 18.9602Z" fill="#009C33"/>
<path d="M48.377 27.4567C48.377 27.4567 49.0568 23.2079 50.0765 17.9393C50.9262 12.6708 51.946 4.683 61.1234 3.83324L96.9835 0.0942708C106.161 -0.925447 108.71 6.55248 110.75 11.6511L114.319 20.6586L48.377 27.4567Z" fill="#009C33"/>
<path d="M38.0098 54.649L39.8793 63.9964C40.0492 65.8659 40.0492 67.3955 41.9187 67.2255L128.935 58.0481C130.804 57.8781 130.294 56.3485 130.124 54.479V44.9617L38.0098 54.649Z" fill="#59B267"/>
<path d="M127.746 32.8961C127.576 31.3665 127.236 30.3468 126.557 29.667C126.387 29.497 126.047 29.1571 125.707 28.9872L114.32 20.4895L48.3781 27.4576L39.5406 38.5045C39.2007 38.8444 39.0307 39.0144 38.8608 39.3543L38.6909 39.5242C38.181 40.544 37.8411 41.9036 38.011 43.7731V54.6501L130.126 44.7928L127.746 32.8961Z" fill="#009C33"/>
<path d="M52.7949 25.0778L53.6447 19.1295C54.3245 13.861 53.1348 11.1417 60.2728 10.2919L99.362 6.21307C106.5 5.53326 105.82 8.42246 107.69 13.521L109.729 19.1295L52.7949 25.0778Z" fill="#E6F5EB"/>
<path d="M110.579 19.6378L52.1152 25.9261L52.965 19.128C53.135 18.2782 53.135 17.4284 53.135 16.7486C53.4749 13.0097 53.6448 10.4604 60.103 9.78056L99.1922 5.70169C105.65 5.02187 106.33 7.40122 107.52 11.1402C107.69 11.82 108.03 12.6698 108.2 13.5195L110.579 19.6378ZM53.6448 24.2266L108.54 18.4482L106.84 13.6895C106.5 12.8397 106.33 11.9899 106.16 11.3101C105.141 7.74112 104.631 6.3815 99.3621 6.89136L60.273 10.9702C55.0044 11.4801 54.8345 13.0097 54.6645 16.7486C54.6645 17.4284 54.4946 18.2782 54.4946 19.2979L53.6448 24.2266Z" fill="#E6F5EB"/>
<path d="M53.4806 76.5732L46.8525 77.2531C44.813 77.423 42.9435 76.0634 42.6036 74.1939L41.9238 67.3958L56.1999 65.8662L56.8797 72.6643C57.0496 74.5338 55.5201 76.2333 53.4806 76.5732Z" fill="#007D29"/>
<path d="M125.873 68.7551L119.245 69.4349C117.206 69.6049 115.336 68.2453 114.996 66.3758L114.316 59.5777L128.592 58.0481L129.272 64.8462C129.612 66.8857 128.083 68.5852 125.873 68.7551Z" fill="#007D29"/>
<path d="M42.0881 58.049L42.258 62.9776C42.258 64.1673 43.2777 65.017 44.2974 64.8471L52.7951 63.9973C53.9847 63.8274 54.4946 62.9776 53.6448 62.1278C52.2852 60.5982 49.566 58.2189 43.9575 56.5194C42.7678 56.1795 41.9181 56.8593 42.0881 58.049Z" fill="#59B267"/>
<path d="M127.575 48.7015L128.425 53.6301C128.594 54.8198 127.915 55.8395 126.725 55.8395L118.227 56.6893C117.038 56.8592 116.358 56.0095 117.038 54.9897C118.057 53.1203 120.267 50.2311 125.365 47.5118C126.385 47.002 127.405 47.5118 127.575 48.7015Z" fill="#59B267"/>
<path d="M108.202 57.8791L62.1444 62.6378C60.7847 62.8077 58.7453 62.1279 57.7256 61.1082L53.3068 57.0293C52.2871 56.0096 52.4571 55.1598 53.9866 54.9899L114.66 48.5317C116.019 48.3617 116.529 49.2115 115.68 50.4011L112.28 55.3298C111.431 56.5195 109.561 57.7091 108.202 57.8791Z" fill="#009C33"/>
<path d="M50.0815 48.1917C45.4928 48.7016 42.9436 47.342 42.0938 44.2828C41.9238 43.603 41.9238 42.9232 41.9238 42.4133C41.9238 42.4133 42.2637 41.0537 43.2834 40.8838C44.3031 40.7138 43.6234 40.8837 43.7933 40.7138H43.9632H44.1332H44.3032C48.8919 40.5438 56.0299 41.0537 58.0694 42.7532C58.0694 42.7532 60.1088 44.7927 56.5398 46.6622L56.1999 46.8321C56.0299 46.6622 53.3107 47.8518 50.0815 48.1917Z" fill="white"/>
<path d="M117.042 41.0534C121.63 40.5435 123.84 38.844 124.01 35.6149C124.01 34.9351 124.01 34.2552 123.84 33.7454C123.84 33.7454 123.16 32.3858 122.31 32.5557C121.291 32.7257 121.97 32.5557 121.8 32.5557H121.631H121.461H121.291C116.872 33.2355 109.904 35.275 108.374 37.4844C108.374 37.4844 106.845 39.8637 110.584 40.8834H110.923C110.923 40.8834 113.983 41.3933 117.042 41.0534Z" fill="white"/>
<path d="M180.939 4.68142C180.599 4.85137 180.769 6.72085 180.599 7.74057C180.429 8.76029 178.729 10.6298 178.899 9.61005C179.069 8.59033 178.219 6.21099 178.049 6.04104C177.879 5.87109 178.049 6.72085 178.049 7.74057C178.219 8.76029 177.879 10.4598 177.03 10.9697C176.18 11.4795 175.84 8.42038 175.33 8.25043C174.82 8.08048 175.84 10.4598 176.01 11.8194C176.18 13.349 175.16 14.0288 173.631 15.3885C172.101 16.7481 168.362 18.7875 168.362 18.7875C168.362 18.7875 168.532 18.1077 168.532 16.918C168.532 15.7284 168.022 14.1988 167.682 13.519C167.172 13.0091 167.342 14.8786 167.682 16.0683C167.852 17.4279 167.002 18.7875 164.793 20.3171C163.263 21.3368 162.584 23.0363 162.414 24.0561H162.244V23.8861C162.244 23.8861 161.904 20.657 163.943 17.9378C165.983 15.2185 167.682 12.1593 167.342 10.2899C167.172 8.42038 165.133 5.19127 164.793 5.36123C164.283 5.53118 166.663 8.76029 166.153 9.10019C165.643 9.4401 163.094 6.89081 162.924 7.40066C162.754 7.91052 165.303 9.10019 165.133 10.4598C164.963 11.9894 161.224 8.59034 161.564 9.4401C161.904 10.4598 164.283 11.4795 164.623 12.4993C164.963 13.519 163.773 16.918 162.584 17.7678C161.564 18.6176 160.884 15.8983 159.864 16.2382C158.845 16.4082 161.054 17.4279 161.224 18.9575C161.394 20.487 160.374 22.0166 160.884 23.5462C160.544 23.5462 160.204 23.3762 159.864 23.3762C157.995 23.3762 156.635 24.5659 154.766 25.9255C153.406 26.9453 152.047 27.4551 151.027 27.965C150.857 27.965 150.857 28.1349 150.687 28.1349H150.517C150.517 28.1349 149.497 28.4748 149.667 29.3246C149.667 29.4946 149.837 29.4946 149.837 29.4946C149.837 29.6645 149.837 29.8345 149.837 30.0044C149.837 30.1744 149.837 30.1744 150.007 30.3443C150.177 30.5143 150.177 30.6842 150.347 30.8542L150.517 31.0241C150.857 31.364 152.556 31.1941 153.916 31.364C154.596 31.364 155.446 31.8739 156.125 32.2138C154.936 34.7631 153.916 38.842 149.667 39.3518C145.248 39.8617 135.901 39.5218 131.482 40.0316C127.063 40.7115 124.854 41.3913 122.645 44.2805C120.945 46.4899 121.965 48.0194 121.625 50.2288C122.475 49.719 122.645 48.3593 122.645 47.6795C122.645 46.4899 122.475 45.1302 124.004 44.7903C122.815 48.6992 125.704 52.0983 125.704 55.1575C125.704 58.2166 122.985 59.5762 122.985 62.2955C122.985 64.8448 124.004 69.0936 124.344 70.9631C124.514 72.8326 124.344 72.8326 124.514 73.8523C124.514 74.872 125.194 74.1922 125.704 74.702C125.704 75.2119 125.704 75.3819 125.874 76.2316C125.874 76.7415 128.593 76.7415 128.593 76.4016C129.273 75.042 127.233 73.6823 126.554 72.6626C126.214 71.133 125.534 68.9237 125.364 66.8842C125.534 67.2241 125.704 67.3941 126.044 67.564C125.704 65.0147 125.704 62.2955 127.064 61.2758L127.233 61.1058C127.403 60.9359 127.573 60.9359 127.743 60.9359C128.593 60.7659 129.613 60.256 130.632 59.5762C130.463 61.1058 131.312 61.7856 131.992 63.1453C132.672 64.6748 135.901 71.133 136.411 71.8129C136.921 72.4927 136.411 72.4927 136.751 73.0025C137.091 73.5124 137.771 73.3424 137.771 73.3424C137.771 73.3424 138.28 74.0222 138.45 74.3621C138.62 74.7021 141 74.5321 141.17 74.1922C141.34 73.8523 139.98 72.6626 138.96 72.1528C137.941 71.6429 132.842 61.7856 134.541 60.9359C138.62 58.8964 140.15 56.3471 140.83 54.6476C145.248 55.3274 150.687 55.1575 154.256 55.1575C154.256 56.5171 154.256 58.3866 154.086 59.4063C153.746 61.1058 152.556 68.5837 152.217 69.6035C151.877 70.7931 151.367 71.4729 151.197 71.8129C151.027 72.3227 151.367 72.3227 151.707 73.0025C152.047 73.6823 151.707 73.6823 151.877 74.3621C152.047 75.042 153.406 75.2119 153.746 74.702C154.256 74.1922 153.236 73.0025 153.066 72.3227C152.896 71.6429 155.106 63.6551 155.956 62.1255C156.465 61.2758 157.655 58.3866 158.675 56.0072C161.394 57.0269 163.264 58.8964 165.133 60.426C167.342 62.9753 168.532 65.8645 168.532 65.8645C168.872 67.3941 168.362 67.2241 168.532 67.9039C168.702 68.5837 168.532 68.2438 169.042 68.5837C169.552 68.7537 169.552 69.9434 170.062 70.2833C170.571 70.6232 171.761 70.4532 172.101 70.1133C172.441 69.7734 172.611 70.1133 172.441 69.6035C171.931 67.2241 170.911 69.9434 170.232 66.0344C169.892 64.5049 168.362 62.2955 166.833 59.9161C164.963 57.8767 162.754 55.4974 161.734 53.6279C161.054 52.4382 161.054 51.2485 161.054 50.0589C162.074 46.9997 163.094 43.4307 163.263 41.7312C163.433 40.3715 163.263 37.3124 163.263 34.9331C163.263 34.4232 163.263 33.2335 163.263 32.5537C163.603 32.3838 163.943 32.0438 164.283 31.7039C165.813 29.6645 165.303 27.4551 165.303 27.4551C165.303 27.4551 166.832 27.1152 168.192 26.0955C169.552 25.0758 170.232 23.0363 170.232 23.0363C170.232 23.0363 168.192 21.8467 166.323 22.3565C164.453 22.8664 163.773 24.7359 163.773 24.7359C163.773 24.7359 163.773 24.7359 163.603 24.5659C163.773 23.8861 164.453 22.6964 165.813 21.5068C167.682 19.8072 170.232 19.2974 173.631 17.2579C177.03 15.2185 181.109 10.7997 181.448 8.76029C181.618 7.06076 181.278 4.51147 180.939 4.68142ZM125.194 64.8448C125.194 65.0147 125.194 65.0147 125.194 64.8448C125.194 65.3546 125.194 65.6945 125.194 66.0344C125.024 65.6945 125.024 65.1847 125.194 64.8448Z" fill="#006D24"/>
<path d="M122.396 3.47485C122.396 3.47485 124.422 -0.0752525 126.617 2.76483L132.356 20.1603L131.512 20.3378L122.396 3.47485Z" fill="#80CE99"/>
<path d="M153.515 7.65265C153.515 7.65265 152.286 3.86922 149.301 6.10488L139.82 21.2386L140.698 21.5826L153.515 7.65265Z" fill="#80CE99"/>
<path d="M141.069 2.83011C141.069 2.83011 138.377 -0.00448287 136.694 3.16358L134.844 20.3378H135.685L141.069 2.83011Z" fill="#80CE99"/>
</svg>
