<?xml version="1.0" encoding="UTF-8"?>
<svg width="516px" height="567px" viewBox="0 0 516 567" version="1.1" xmlns="http://www.w3.org/2000/svg" xmlns:xlink="http://www.w3.org/1999/xlink">
    <!-- Generator: Sketch 53.2 (72643) - https://sketchapp.com -->
    <title>Group 3</title>
    <desc>Created with Sketch.</desc>
    <defs>
        <polygon id="path-1" points="0 0 516 0 516 579 0 579"></polygon>
    </defs>
    <g id="Mockup-|-KFZ-Kennzeichen" stroke="none" stroke-width="1" fill="none" fill-rule="evenodd">
        <g id="Group-3" transform="translate(0.000000, -6.000000)">
            <mask id="mask-2" fill="white">
                <use xlink:href="#path-1"></use>
            </mask>
            <g id="Clip-2"></g>
            <path d="M47.5365517,303.229907 L47.5365517,302.571756 L47.5365517,301.913604 C48.1967816,299.280998 49.5172414,293.357634 50.1774713,292.04133 C52.1581609,282.169057 54.7990805,272.954934 58.7604598,263.740812 C65.3627586,245.97072 75.2662069,229.51693 85.8298851,215.037595 L87.8105747,212.404989 L89.7912644,209.772382 C91.1117241,207.797928 92.4321839,206.481625 93.7526437,204.50717 C97.0537931,201.216412 99.6947126,197.925654 102.995862,195.293048 C108.937931,189.369683 115.54023,183.446319 122.142529,178.839258 C135.347126,168.966984 148.551724,161.069165 161.096092,155.803953 C173.64046,150.53874 186.184828,146.58983 196.748506,143.957224 C199.389425,143.299073 202.030345,142.640921 204.671264,142.640921 C207.312184,141.982769 209.953103,141.982769 211.933793,141.324618 C214.574713,141.324618 216.555402,140.666466 218.536092,140.666466 L221.837241,140.666466 L225.138391,140.666466 L230.42023,140.666466 L235.041839,140.666466 L239.003218,140.666466 L240.323678,140.666466 L240.323678,174.232197 C240.323678,185.420774 253.528276,192.00229 262.111264,184.762622 L272.674943,177.522955 C301.064828,157.778407 327.474023,135.401254 352.562759,111.049645 C361.145747,103.809978 361.145747,90.6469459 352.562759,83.4072784 L351.902529,82.7491269 C327.474023,59.0556699 301.064828,36.678516 272.674943,16.9339685 L261.451034,9.03614954 C252.868046,1.79648212 239.663448,8.37799796 239.663448,19.5665749 L239.663448,53.1323056 L238.342989,53.1323056 L235.702069,53.1323056 C233.721379,53.1323056 231.08046,53.7904572 229.09977,53.7904572 C226.458851,53.7904572 223.817931,54.4486088 221.177011,55.1067604 C218.536092,55.764912 215.895172,55.764912 213.254253,56.4230635 C211.933793,56.4230635 210.613333,57.0812151 208.632644,57.0812151 C207.312184,57.0812151 205.331494,57.7393667 204.011034,58.3975183 C200.709885,59.0556699 197.408736,59.7138215 194.107586,61.0301246 C190.806437,61.6882762 187.505287,63.0045794 183.543908,64.3208825 C180.242759,65.6371857 176.281379,66.9534889 172.32,68.269792 C157.134713,73.5350047 140.628966,80.7746721 124.123218,91.3050974 C107.617471,101.177371 90.4514943,114.340403 75.2662069,129.477889 C67.3434483,137.375708 60.0809195,145.273527 52.8183908,154.487649 C49.5172414,159.094711 46.216092,163.701772 42.9149425,168.308833 C41.5944828,170.941439 39.6137931,172.915894 38.2933333,175.5485 L35.6524138,179.49741 L33.6717241,183.446319 C21.7875862,203.849018 12.5443678,226.884324 6.60229885,250.577781 C3.96137931,262.424509 1.98068966,274.271238 0.660229885,286.776118 C0.660229885,290.066876 0,292.699482 0,295.99024 L0,298.622846 C0.660229885,310.469575 11.223908,321 24.4285057,321 C35.6524138,321 44.8956322,313.760333 47.5365517,303.229907 Z" id="Path" fill="#005F96" mask="url(#mask-2)"></path>
            <path d="M394.517701,399.018587 C401.12,393.758639 407.062069,388.498692 413.664368,382.581251 C416.965517,379.293783 419.606437,376.006316 422.907586,373.376342 C424.228046,371.403862 425.548506,370.088875 426.868966,368.116395 L428.849655,365.486421 L430.830345,362.856447 C442.054253,348.391591 451.297471,331.954254 457.89977,314.201931 C461.20092,304.997023 463.841839,295.792114 466.482759,285.929712 C466.482759,284.614725 468.463448,279.354778 469.123678,276.06731 L469.123678,275.409817 L469.123678,274.752323 C471.764598,264.889922 481.007816,257 492.231724,257 C505.436322,257 516,267.519895 516,280.669765 L516,283.299738 C516,286.587206 515.33977,289.217179 515.33977,292.504647 C514.01931,304.339529 512.038621,316.831905 509.397701,328.666787 C503.455632,352.336552 494.212414,375.348823 482.328276,395.73112 L480.347586,399.676081 L477.706667,403.621041 C476.386207,406.251015 474.405517,408.880989 473.085057,410.853469 C469.783908,415.455924 466.482759,420.715871 463.181609,424.660832 C455.91908,433.86574 448.656552,441.755662 440.733793,449.645583 C424.888276,464.767933 408.382529,477.917802 391.876782,487.780204 C375.371034,497.642606 358.865287,505.532528 343.68,510.792475 C339.718621,512.107462 336.417471,513.422449 332.456092,514.737436 C329.154943,516.052423 325.193563,516.709916 321.892414,518.024903 C318.591264,518.682397 315.290115,519.33989 311.988966,520.654877 C310.668506,521.312371 308.687816,521.312371 307.367356,521.969864 C306.046897,521.969864 304.726437,522.627357 302.745747,522.627357 C300.104828,523.284851 297.463908,523.942344 294.822989,523.942344 C292.182069,524.599838 289.541149,524.599838 286.90023,525.257331 C284.25931,525.257331 282.278621,525.914825 280.297931,525.914825 L277.657011,525.914825 L276.336552,525.914825 L276.336552,559.446991 C276.336552,570.62438 263.131954,577.199315 254.548966,569.966886 L243.325057,562.076965 C215.595402,542.352161 189.186207,519.997384 164.097471,496.327619 L163.437241,495.670126 C154.854253,488.437698 154.854253,475.287828 163.437241,468.0554 C188.525977,443.728142 214.935172,422.030858 243.325057,401.648561 L253.888736,394.416133 C262.471724,387.183705 275.676322,393.758639 275.676322,404.936028 L275.676322,438.468195 L276.996782,438.468195 L280.958161,438.468195 L285.57977,438.468195 L290.861609,438.468195 L294.162759,438.468195 L297.463908,438.468195 C299.444598,438.468195 302.085517,437.810701 304.066207,437.810701 C306.707126,437.153208 308.687816,437.153208 311.328736,436.495714 C313.969655,435.838221 316.610575,435.180727 319.251494,435.180727 C331.135632,431.235767 343.01977,427.290806 355.564138,422.030858 C368.108506,416.770911 381.313103,408.880989 394.517701,399.018587 Z" id="Path" fill="#A5D2D2" mask="url(#mask-2)"></path>
        </g>
    </g>
</svg>