<?xml version="1.0" encoding="UTF-8"?>
<svg width="589px" height="591px" viewBox="0 0 589 591" version="1.1" xmlns="http://www.w3.org/2000/svg" xmlns:xlink="http://www.w3.org/1999/xlink">
    <!-- Generator: Sketch 53.2 (72643) - https://sketchapp.com -->
    <title>Group 12</title>
    <desc>Created with Sketch.</desc>
    <defs>
        <polygon id="path-1" points="0.253114035 0.802142857 288.254912 0.802142857 288.254912 433.2605 0.253114035 433.2605"></polygon>
        <polygon id="path-3" points="0.00787692308 0.585702924 184.2088 0.585702924 184.2088 324.192982 0.00787692308 324.192982"></polygon>
        <polygon id="path-5" points="0.991384615 0.106519954 185.177077 0.106519954 185.177077 453 0.991384615 453"></polygon>
    </defs>
    <g id="Mockup-|-KFZ-Kennzeichen" stroke="none" stroke-width="1" fill="none" fill-rule="evenodd">
        <g id="Group-12">
            <g id="Group-3" transform="translate(168.000000, 0.000000)">
                <mask id="mask-2" fill="white">
                    <use xlink:href="#path-1"></use>
                </mask>
                <g id="Clip-2"></g>
                <path d="M202.480735,199.510143 C199.598224,202.648357 196.668969,205.475857 193.724134,207.914964 C179.747851,219.333714 162.187906,225.641214 144.254013,225.641214 C126.288958,225.641214 108.729013,219.333714 94.7838925,207.914964 C91.8078947,205.460321 88.8786404,202.632821 86.0272917,199.525679 C73.4377303,185.263893 66.5041228,167.009429 66.5041228,148.133536 C66.5041228,105.348179 101.390296,70.5481786 144.254013,70.5481786 C187.11773,70.5481786 221.972741,105.348179 221.972741,148.133536 C221.972741,167.024964 215.054715,185.279429 202.480735,199.510143 M144.254013,0.792821429 C64.8525219,0.792821429 0.253114035,65.1728214 0.253114035,144.280679 C0.253114035,172.80425 8.58902412,200.333536 24.3571382,223.870143 C25.2764254,225.268357 26.2424561,226.651036 27.3019737,228.018179 L27.6291776,228.655143 L144.254013,433.2605 L260.707456,228.841571 C260.910011,228.422107 261.159309,228.064786 261.455351,227.723 L264.135307,223.854607 C279.919002,200.224786 288.254912,172.6955 288.254912,144.280679 C288.254912,65.1728214 223.639923,0.792821429 144.254013,0.792821429" id="Fill-1" fill="#006097" mask="url(#mask-2)"></path>
            </g>
            <g id="Group-6" transform="translate(202.000000, 267.000000)">
                <mask id="mask-4" fill="white">
                    <use xlink:href="#path-3"></use>
                </mask>
                <g id="Clip-5"></g>
                <polygon id="Fill-4" fill="#FFFFFF" mask="url(#mask-4)" points="124.702185 176.251855 111.451415 199.944487 98.2158769 176.251855 0.00787692308 0.585702924 0.00787692308 239.58706 188.577671 324.19763 188.577671 63.3535499"></polygon>
            </g>
            <g id="Group-9" transform="translate(403.000000, 138.000000)">
                <mask id="mask-6" fill="white">
                    <use xlink:href="#path-5"></use>
                </mask>
                <g id="Clip-8"></g>
                <path d="M54.5884615,66.1454479 C50.4913846,76.9298434 45.6023077,87.450827 39.1749231,97.2745436 L36.5552308,101.132754 L36.3115385,101.50463 L0.991384615,164.75449 L0.991384615,453.004648 L185.177077,368.340945 L185.177077,0.106519954 L54.5884615,66.1454479 Z" id="Fill-7" fill="#A4D1D1" mask="url(#mask-6)"></path>
            </g>
            <path d="M0,229.986295 L0,591 L186,506.052855 L186,239.63942 C169.742496,214.760154 155.307584,182.948417 154.584686,153 L0,229.986295 Z" id="Fill-10" fill="#A4D1D1"></path>
        </g>
    </g>
</svg>