<?xml version="1.0" encoding="utf-8"?>
<!-- Generator: Adobe Illustrator 24.0.3, SVG Export Plug-In . SVG Version: 6.00 Build 0)  -->
<svg version="1.1" id="Ebene_1" xmlns="http://www.w3.org/2000/svg" xmlns:xlink="http://www.w3.org/1999/xlink" x="0px" y="0px"
	 viewBox="0 0 884 462" style="enable-background:new 0 0 884 462;" xml:space="preserve">
<style type="text/css">
	.st0{filter:url(#Adobe_OpacityMaskFilter);}
	.st1{fill-rule:evenodd;clip-rule:evenodd;fill:#FFFFFF;}
	.st2{mask:url(#mask-2_1_);fill-rule:evenodd;clip-rule:evenodd;fill:#FFFFFF;}
	.st3{filter:url(#Adobe_OpacityMaskFilter_1_);}
	.st4{mask:url(#mask-4_1_);fill-rule:evenodd;clip-rule:evenodd;fill:#A4D1D1;}
	.st5{filter:url(#Adobe_OpacityMaskFilter_2_);}
	.st6{mask:url(#mask-6_1_);fill-rule:evenodd;clip-rule:evenodd;fill:#006097;}
	.st7{filter:url(#Adobe_OpacityMaskFilter_3_);}
	.st8{mask:url(#mask-8_1_);fill-rule:evenodd;clip-rule:evenodd;fill:#FFFFFF;}
	.st9{filter:url(#Adobe_OpacityMaskFilter_4_);}
	.st10{mask:url(#mask-8_2_);fill-rule:evenodd;clip-rule:evenodd;fill:#FFFFFF;}
	.st11{filter:url(#Adobe_OpacityMaskFilter_5_);}
	.st12{mask:url(#mask-8_3_);fill-rule:evenodd;clip-rule:evenodd;fill:#A4D1D1;}
	.st13{fill:#005F96;}
	.st14{font-family:'Futura-Bold';}
	.st15{font-size:116px;}
</style>
<title>Group 2</title>
<desc>Created with Sketch.</desc>
<g id="Mockup-_x7C_-KFZ-Kennzeichen">
	<g id="Group-2" transform="translate(0.000000, -2.000000)">
		<g id="Group-14-Copy">
			<g id="Group-3" transform="translate(0.000000, 2.655214)">
				<g id="Clip-2">
				</g>
				<defs>
					<filter id="Adobe_OpacityMaskFilter" filterUnits="userSpaceOnUse" x="0" y="0.2" width="882.6" height="457">
						<feColorMatrix  type="matrix" values="1 0 0 0 0  0 1 0 0 0  0 0 1 0 0  0 0 0 1 0"/>
					</filter>
				</defs>
				<mask maskUnits="userSpaceOnUse" x="0" y="0.2" width="882.6" height="457" id="mask-2_1_">
					<g class="st0">
						<polygon id="path-1_1_" class="st1" points="0,0.2 882.6,0.2 882.6,457.1 0,457.1 						"/>
					</g>
				</mask>
				<path id="Fill-1" class="st2" d="M872.4,218.8L72.6,456.5c-7.5,2.2-15.3-2.2-17.5-9.8L0.6,256.3c-2.2-7.6,2.1-15.6,9.6-17.9
					L810,0.7c7.5-2.2,15.3,2.1,17.5,9.8L882,200.9C884.2,208.5,879.9,216.5,872.4,218.8"/>
			</g>
			<g id="Group-6" transform="translate(0.000000, 83.270313)">
				<g id="Clip-5">
				</g>
				<defs>
					<filter id="Adobe_OpacityMaskFilter_1_" filterUnits="userSpaceOnUse" x="0.7" y="0.9" width="883" height="379.4">
						<feColorMatrix  type="matrix" values="1 0 0 0 0  0 1 0 0 0  0 0 1 0 0  0 0 0 1 0"/>
					</filter>
				</defs>
				<mask maskUnits="userSpaceOnUse" x="0.7" y="0.9" width="883" height="379.4" id="mask-4_1_">
					<g class="st3">
						<polygon id="path-3_1_" class="st1" points="0.7,0.9 883.7,0.9 883.7,380.3 0.7,380.3 						"/>
					</g>
				</mask>
				<path id="Fill-4" class="st4" d="M872.1,224.9L52.9,380c-7.7,1.5-15.1-3.7-16.5-11.6L1,173.1c-1.4-7.8,3.6-15.4,11.3-16.8
					L831.4,1.2c7.7-1.5,15.1,3.7,16.5,11.5l35.5,195.4C884.8,215.9,879.8,223.4,872.1,224.9"/>
			</g>
			<g id="Group-9" transform="translate(0.000000, 235.355372)">
				<g id="Clip-8">
				</g>
				<defs>
					<filter id="Adobe_OpacityMaskFilter_2_" filterUnits="userSpaceOnUse" x="0" y="0.2" width="862" height="227.1">
						<feColorMatrix  type="matrix" values="1 0 0 0 0  0 1 0 0 0  0 0 1 0 0  0 0 0 1 0"/>
					</filter>
				</defs>
				<mask maskUnits="userSpaceOnUse" x="0" y="0.2" width="862" height="227.1" id="mask-6_1_">
					<g class="st5">
						<polygon id="path-5_1_" class="st1" points="0,0.2 862,0.2 862,227.4 0,227.4 						"/>
					</g>
				</mask>
				<path id="Fill-7" class="st6" d="M847.8,227.4H14.1C6.3,227.4,0,220.9,0,213V14.6C0,6.7,6.3,0.2,14.1,0.2h833.7
					c7.8,0,14.1,6.4,14.1,14.4V213C862,220.9,855.6,227.4,847.8,227.4"/>
			</g>
			<g id="Clip-11">
			</g>
			<defs>
				<filter id="Adobe_OpacityMaskFilter_3_" filterUnits="userSpaceOnUse" x="106.2" y="260.9" width="732.9" height="175.2">
					<feColorMatrix  type="matrix" values="1 0 0 0 0  0 1 0 0 0  0 0 1 0 0  0 0 0 1 0"/>
				</filter>
			</defs>
			<mask maskUnits="userSpaceOnUse" x="106.2" y="260.9" width="732.9" height="175.2" id="mask-8_1_">
				<g class="st7">
					<polygon id="path-7_1_" class="st1" points="0,462.7 881.6,462.7 881.6,0.7 0,0.7 					"/>
				</g>
			</mask>
			<polygon id="Fill-10" class="st8" points="106.2,436.2 839.1,436.2 839.1,260.9 106.2,260.9 			"/>
			<defs>
				<filter id="Adobe_OpacityMaskFilter_4_" filterUnits="userSpaceOnUse" x="37.2" y="393.7" width="31.9" height="42.5">
					<feColorMatrix  type="matrix" values="1 0 0 0 0  0 1 0 0 0  0 0 1 0 0  0 0 0 1 0"/>
				</filter>
			</defs>
			<mask maskUnits="userSpaceOnUse" x="37.2" y="393.7" width="31.9" height="42.5" id="mask-8_2_">
				<g class="st9">
					<polygon id="path-7_2_" class="st1" points="0,462.7 881.6,462.7 881.6,0.7 0,0.7 					"/>
				</g>
			</mask>
			<path id="Fill-12" class="st10" d="M45.3,429h1.3c10,0,13.9-5.6,13.9-14c0-9.2-4.7-14-13.9-14h-1.3V429z M37.2,393.7h11.7
				c12.1,0,20.2,9.2,20.2,21.3c0,11.9-8.3,21.2-20.2,21.2H37.2V393.7z"/>
			<defs>
				<filter id="Adobe_OpacityMaskFilter_5_" filterUnits="userSpaceOnUse" x="26.6" y="276.9" width="53.1" height="53.1">
					<feColorMatrix  type="matrix" values="1 0 0 0 0  0 1 0 0 0  0 0 1 0 0  0 0 0 1 0"/>
				</filter>
			</defs>
			<mask maskUnits="userSpaceOnUse" x="26.6" y="276.9" width="53.1" height="53.1" id="mask-8_3_">
				<g class="st11">
					<polygon id="path-7_3_" class="st1" points="0,462.7 881.6,462.7 881.6,0.7 0,0.7 					"/>
				</g>
			</mask>
			<path id="Fill-13" class="st12" d="M26.6,303.4c0-14.7,11.9-26.6,26.5-26.6c14.7,0,26.6,11.9,26.6,26.6
				c0,14.7-11.9,26.6-26.6,26.6C38.4,330,26.6,318.1,26.6,303.4"/>
		</g>
		<text transform="matrix(1 0 0 1 195.0014 392.1866)" class="st13 st14 st15">CARBON</text>
	</g>
</g>
</svg>
