<svg xmlns="http://www.w3.org/2000/svg" width="147" height="102" viewBox="0 0 147 102">
    <g fill="none" fill-rule="evenodd">
        <path fill="#006097" d="M0 38L0 38.003 9.334 51.002 0 63.997 0 64 147 64 137.666 51.157 147 38z"/>
        <path fill="#A4D1D1" d="M85.92 0L73.502 6.235 61.087 0 53.001 11.281 39.103 11.512 37.194 25.248 24.994 31.897 29.706 44.941 22 56.487 32.251 65.85 30.805 79.649 44.247 83.191 49.391 96.075 62.943 92.978 73.502 102 84.06 92.978 97.609 96.075 102.76 83.191 116.195 79.649 114.749 65.85 125 56.487 117.297 44.941 122.01 31.897 109.809 25.248 107.904 11.512 94.003 11.281z"/>
        <g>
            <path fill="#FFF" d="M.039 33.325C.039 15.045 14.86.223 33.14.223c18.283 0 33.102 14.822 33.102 33.102 0 18.28-14.819 33.101-33.102 33.101C14.86 66.426.04 51.604.04 33.325" transform="translate(40 17)"/>
            <path fill="#006097" d="M43.526 22.203c-1.156-1.011-3.275-2.023-6.699-2.023-4.242 0-6.602 2.12-7.276 6.554h12.386l-1.638 4.917H28.973c-.048.433-.048.915-.048 1.445 0 .578 0 1.252.048 1.686h10.215l-1.635 4.916h-8.002c.674 4.58 3.134 6.799 7.325 6.799 3.323 0 5.446-.967 6.65-2.075v6.41c-.963.626-3.564 1.545-7.662 1.545-6.94 0-11.615-3.812-12.916-12.679h-4.146l1.59-4.916h2.027a15.213 15.213 0 01-.097-1.686c0-.53.048-1.012.097-1.445h-3.617l1.59-4.917h2.46c1.252-7.854 5.35-12.53 13.012-12.53 3.712 0 6.554 1.015 7.662 1.737v6.262z" transform="translate(40 17)"/>
        </g>
    </g>
</svg>
