<?xml version="1.0" encoding="UTF-8"?>
<svg width="785px" height="544px" viewBox="0 0 785 544" version="1.1" xmlns="http://www.w3.org/2000/svg" xmlns:xlink="http://www.w3.org/1999/xlink">
    <!-- Generator: Sketch 53.2 (72643) - https://sketchapp.com -->
    <title>Group 8 Copy</title>
    <desc>Created with Sketch.</desc>
    <g id="Mockup-|-KFZ-Kennzeichen" stroke="none" stroke-width="1" fill="none" fill-rule="evenodd">
        <g id="Group-8-Copy">
            <polygon id="Fill-1" fill="#006097" points="0 202 0 202.018012 49.8468522 271.509006 0 340.981988 0 341 785 341 735.153148 272.337566 785 202"></polygon>
            <polygon id="Fill-2" fill="#A4D1D1" points="459.320109 0 393.00923 33.2550717 326.716813 0 283.537207 60.1644577 209.325143 61.3968082 199.13483 134.65729 133.986977 170.119556 159.148928 239.682986 118 301.263727 172.736012 351.201515 165.019434 424.793075 236.794683 443.682986 264.264223 512.400325 336.630215 495.883148 393.00923 544 449.388246 495.883148 521.735777 512.400325 549.242238 443.682986 620.980566 424.793075 613.263988 351.201515 668 301.263727 626.869533 239.682986 652.031484 170.119556 586.88363 134.65729 576.711778 61.3968082 502.481254 60.1644577"></polygon>
            <g id="Group-7" transform="translate(214.000000, 92.000000)">
                <path d="M0.207446486,176.565818 C0.207446486,79.1656043 79.404787,0.189485405 177.07783,0.189485405 C274.769257,0.189485405 353.948214,79.1656043 353.948214,176.565818 C353.948214,273.966031 274.769257,352.94215 177.07783,352.94215 C79.404787,352.94215 0.207446486,273.966031 0.207446486,176.565818" id="Fill-3" fill="#FFFFFF"></path>
                <path d="M232.572958,117.30623 C226.396007,111.916495 215.071596,106.52676 196.779731,106.52676 C174.112526,106.52676 161.50125,117.819538 157.898029,141.450044 L224.07965,141.450044 L215.328969,167.647089 L154.809553,167.647089 C154.55218,169.956976 154.55218,172.523516 154.55218,175.346711 C154.55218,178.42656 154.55218,182.019716 154.809553,184.329603 L209.391007,184.329603 L200.65871,210.526649 L157.898029,210.526649 C161.50125,234.927116 174.645656,246.751535 197.037104,246.751535 C214.795839,246.751535 226.138634,241.600122 232.572958,235.697079 L232.572958,269.8504 C227.425499,273.186903 213.527358,278.081662 191.632272,278.081662 C154.55218,278.081662 129.568618,257.769327 122.619548,210.526649 L100.467088,210.526649 L108.960396,184.329603 L119.788445,184.329603 C119.531072,182.019716 119.273699,178.939868 119.273699,175.346711 C119.273699,172.523516 119.531072,169.956976 119.788445,167.647089 L100.467088,167.647089 L108.960396,141.450044 L122.104802,141.450044 C128.796499,99.5971003 150.691585,74.6833246 191.632272,74.6833246 C211.468375,74.6833246 226.65338,80.0913922 232.572958,83.941203 L232.572958,117.30623 Z" id="Fill-5" fill="#006097"></path>
            </g>
        </g>
    </g>
</svg>