<?xml version="1.0" encoding="utf-8"?>
<!-- Generator: Adobe Illustrator 23.0.1, SVG Export Plug-In . SVG Version: 6.00 Build 0)  -->
<svg version="1.1" id="Ebene_1" xmlns="http://www.w3.org/2000/svg" xmlns:xlink="http://www.w3.org/1999/xlink" x="0px" y="0px"
	 viewBox="0 0 215.07 85.04" style="enable-background:new 0 0 215.07 85.04;" xml:space="preserve">
<style type="text/css">
	.st0{fill:#FFFFFF;}
</style>
<path class="st0" d="M96.42,85.04H128c34.38,0,51.63-17.86,51.63-43.01v-0.24C179.64,16.64,162.75,0,128.98,0H96.42V85.04z
	 M124.85,61.76V23.28h4.74c13,0,21.38,5.8,21.38,19.11v0.26c0,13.31-8.38,19.11-21.38,19.11H124.85z"/>
<path id="path34_25_" class="st0" d="M186.72,85.04h28.35V0h-28.35V85.04z"/>
<path id="path34_24_" class="st0" d="M31.2,53.86h22.68V31.18H31.2V53.86z"/>
<path id="path34_1_" class="st0" d="M56.73,85.04h28.35V0H56.73V85.04z"/>
<path id="path34_3_" class="st0" d="M0,85.04h28.35V0H0V85.04z"/>
<g>
	<g>
		<g>
		</g>
	</g>
</g>
</svg>
