<svg xmlns="http://www.w3.org/2000/svg" xmlns:xlink="http://www.w3.org/1999/xlink" viewBox="0 0 231.63 172.87"><defs><style>.cls-1{fill:#99d7ad;}.cls-2{fill:#4dba71;}.cls-3{fill:#b3e1c2;}.cls-4{fill:#ccebd6;}.cls-5{fill:#fff;}.cls-6{fill:url(#HDI_Verlauf_hell);}.cls-7{fill:url(#HDI_Verlauf_dunkel);}</style><linearGradient id="HDI_Verlauf_hell" x1="63.89" y1="87.4" x2="193.3" y2="87.4" gradientUnits="userSpaceOnUse"><stop offset="0" stop-color="#b3e1c2"/><stop offset="1" stop-color="#66c485"/></linearGradient><linearGradient id="HDI_Verlauf_dunkel" x1="59.04" y1="87.05" x2="198.48" y2="87.05" gradientUnits="userSpaceOnUse"><stop offset="0" stop-color="#4dba71"/><stop offset="1" stop-color="#007d29"/></linearGradient></defs><g id="Pricetag"><rect class="cls-1" x="132.28" y="132.61" width="8.65" height="23.03"/><rect class="cls-2" x="112.91" y="155.63" width="48.08" height="9.09" rx="1"/><path class="cls-3" d="M129.45,56H27.71a1.5,1.5,0,0,1,0-3H129.45a1.5,1.5,0,0,1,0,3Z"/><path class="cls-3" d="M78.58,106.83a1.5,1.5,0,0,1-1.5-1.5V3.59a1.5,1.5,0,0,1,3,0V105.33A1.5,1.5,0,0,1,78.58,106.83Z"/><path class="cls-3" d="M42.61,91.93a1.47,1.47,0,0,1-1.06-.44,1.49,1.49,0,0,1,0-2.12l71.94-71.94a1.5,1.5,0,0,1,2.12,2.12L43.67,91.49A1.47,1.47,0,0,1,42.61,91.93Z"/><path class="cls-3" d="M114.55,91.93a1.45,1.45,0,0,1-1.06-.44L41.55,19.55a1.49,1.49,0,0,1,0-2.12,1.51,1.51,0,0,1,2.12,0l71.94,71.94a1.51,1.51,0,0,1,0,2.12A1.47,1.47,0,0,1,114.55,91.93Z"/><circle class="cls-4" cx="78.58" cy="54.46" r="28.01"/><path class="cls-5" d="M78.58,84a29.51,29.51,0,1,1,29.51-29.51A29.55,29.55,0,0,1,78.58,84Zm0-56a26.51,26.51,0,1,0,26.51,26.51A26.54,26.54,0,0,0,78.58,28Z"/><path class="cls-6" d="M167.27,129.1h-95c-5.66,0-9.31-4.64-8.11-10.31L77.44,56c1.2-5.68,6.82-10.32,12.48-10.32H185c5.66,0,9.3,4.64,8.1,10.32l-13.32,62.77C178.55,124.46,172.93,129.1,167.27,129.1Z"/><path class="cls-7" d="M189.49,41.49H87.09c-6.1,0-12.16,5.71-13.45,11.81L59.29,120.8c-1.3,6.1,2.63,11.81,8.73,11.81H170.43c6.1,0,12.15-5.71,13.45-11.81l14.35-67.5C199.52,47.2,195.59,41.49,189.49,41.49Zm1,13.39L188.21,68h-20.9l4.21-20.82h13.4C190.35,47.17,191.69,49.46,190.54,54.88Zm-89.18-7.71h18.36L115.51,68H97.15Zm45.88,0h19.57L162.6,68H143ZM120.23,68l4.21-20.82h18.09L138.31,68Zm17.15,4.62L132.09,98.8H114l5.29-26.19Zm-22.8,0-5.3,26.19H90.92l5.3-26.19Zm-6.23,30.81-4.75,23.51H85.24L90,103.42Zm4.71,0h18.09l-4.75,23.51H108.31Zm22.81,0h19.56l-4.75,23.51H131.12Zm.93-4.62,5.29-26.19h19.57L156.37,98.8Zm29.58-26.19h20.85L181.66,98.8H161.08ZM79.74,57a12.88,12.88,0,0,1,12-9.86h5L92.44,68h-15ZM76.42,72.61H91.5L86.21,98.8H70.86ZM67,119.21l2.9-15.79H85.27l-4.75,23.51H72.59C67.17,126.93,65.82,124.64,67,119.21Zm110.8-2.15c-1.15,5.43-6.53,9.87-12,9.87H155.4l4.75-23.51h20.53Z"/></g></svg>