<svg id="Ebene_1" data-name="Ebene 1" xmlns="http://www.w3.org/2000/svg" xmlns:xlink="http://www.w3.org/1999/xlink" viewBox="0 0 1440 3009.26"><defs><style>.cls-1,.cls-13,.cls-3{fill:none;}.cls-1{stroke:#e6f5eb;stroke-linejoin:round;stroke-width:47px;}.cls-1,.cls-3{stroke-linecap:round;}.cls-2{fill:#b3e1c2;}.cls-3{stroke:#80ce99;stroke-width:1.5px;}.cls-13,.cls-3{stroke-miterlimit:10;}.cls-4{fill:url(#Unbenannter_Verlauf_30);}.cls-5{fill:#80ce99;}.cls-6{fill:url(#Unbenannter_Verlauf_31);}.cls-7{fill:url(#Unbenannter_Verlauf_32);}.cls-8{isolation:isolate;}.cls-9{fill:#e6f5eb;}.cls-10{fill:url(#Unbenannter_Verlauf_33);}.cls-11{fill:url(#Unbenannter_Verlauf_34);}.cls-12{fill:url(#Unbenannter_Verlauf_38);}.cls-13{stroke:#ccebd6;stroke-width:7px;stroke-dasharray:67;}</style><linearGradient id="Unbenannter_Verlauf_30" x1="1234.83" y1="408.16" x2="1251.01" y2="483.49" gradientTransform="matrix(0.97, -0.26, -0.26, -0.97, 55.08, 2303.41)" gradientUnits="userSpaceOnUse"><stop offset="0" stop-color="#b3e1c2"/><stop offset="1" stop-color="#66c485"/></linearGradient><linearGradient id="Unbenannter_Verlauf_31" x1="1183.7" y1="1387.95" x2="1308.6" y2="1387.95" gradientTransform="matrix(1, 0, 0, -1, 0, 2842)" gradientUnits="userSpaceOnUse"><stop offset="0" stop-color="#4dba71"/><stop offset="1" stop-color="#007d29"/></linearGradient><linearGradient id="Unbenannter_Verlauf_32" x1="1183.7" y1="1422.85" x2="1258.5" y2="1422.85" xlink:href="#Unbenannter_Verlauf_31"/><linearGradient id="Unbenannter_Verlauf_33" x1="-1635.01" y1="1316.84" x2="-1501.41" y2="1316.84" gradientTransform="matrix(0, 1, 1, 0, -986.19, 3956.07)" xlink:href="#Unbenannter_Verlauf_31"/><linearGradient id="Unbenannter_Verlauf_34" x1="-1635.01" y1="1351.74" x2="-1560.21" y2="1351.74" gradientTransform="matrix(0, 1, 1, 0, -986.19, 3956.07)" xlink:href="#Unbenannter_Verlauf_31"/><linearGradient id="Unbenannter_Verlauf_38" x1="-1842.27" y1="-1353.31" x2="-1515.87" y2="-1353.31" gradientTransform="matrix(-1, 0, 0, 1, -402.57, 4165.8)" gradientUnits="userSpaceOnUse"><stop offset="0" stop-color="#fff"/><stop offset="1" stop-color="#fff" stop-opacity="0"/></linearGradient></defs><g id="Straße"><path id="Straße-2" data-name="Straße" class="cls-1" d="M684,445.5h539.2s130.3-8.2,130.3,96.9c0,109.6-90.7,107.6-134.1,107.6,0,0-378.6,1-391.8,1-24.7,0-108.8-4.9-108.8,84.8l-4.5,560.8s-.4,102.8-97.5,102.8H214.2c-21.9,0-125,2.7-125,106.6,0,90,85.9,107.4,131.4,107.4h866.8c73,0,265.9-5.63,265.9,252.27,0,237.73-145,265.26-237.7,265.26H405.4c-17.1,0-239.3-16.1-239.3,192.8v291.6c0,163,129.9,215,274.9,215h991.9"/></g><g id="Ebene_61" data-name="Ebene 61"><path class="cls-2" d="M1140,1592.4s-14.7-10.3-20.5-38.1-.9-28.2-2.5-40.6-5.8-16.8-5.8-16.8,19.5,6.2,25.1,33.2,8.1,61.5,8.1,61.5Z"/><path class="cls-2" d="M1144.2,1591.1s36.6-24.5,41.4-49.6,7.5-40.6,7.5-40.6-27.1,11.6-36.2,25.4C1147.3,1541,1133,1556.5,1144.2,1591.1Z"/><path class="cls-3" d="M1186.6,1511s-36.6,47.1-39.7,65.9"/><line class="cls-3" x1="1182.1" y1="1532.7" x2="1165.2" y2="1541.3"/><line class="cls-3" x1="1172.6" y1="1530.1" x2="1174.1" y2="1517"/><path class="cls-4" d="M1141,1592.3s-15.5-25.4-9.1-42.6,4.3-49.7,4.3-49.7,12.8,24.9,15.4,52.2c1.2,13.4-1.3,26.1-6.5,39.1Z"/></g><polygon class="cls-5" points="1180.7 1595.5 1172.4 1594.7 1172.4 1400.2 1180.7 1400.2 1180.7 1595.5"/><polygon class="cls-6" points="1291.8 1467.7 1183.7 1467.7 1183.7 1440.4 1291.8 1440.4 1308.6 1454 1291.8 1467.7"/><polygon class="cls-7" points="1241.6 1432.8 1183.7 1432.8 1183.7 1405.5 1241.6 1405.5 1258.5 1419.1 1241.6 1432.8"/><g class="cls-8"><path class="cls-9" d="M1197.67,1451.12a5.67,5.67,0,0,1,1.35,4c0,3.19-1.45,5.06-3.91,5.06s-3.92-1.85-3.92-5c0-2.2.7-3.81,2-4.56a4.29,4.29,0,0,1,1.94-.49A3.47,3.47,0,0,1,1197.67,1451.12Zm-4.62,4.06c0,2.35.73,3.65,2,3.65s2.06-1.31,2.06-3.65-.75-3.67-2-3.67S1193.05,1452.84,1193.05,1455.18Z"/><path class="cls-9" d="M1205.67,1460.07h-5.1v-9.78h1.82v8.28h3.28Z"/><path class="cls-9" d="M1206.9,1460.07v-9.78h1.82v9.78Z"/><path class="cls-9" d="M1215.73,1460.07l-2.76-5.91c-.18-.47-.39-1-.59-1.56.08.81.14,1.63.14,2.34v5.13h-1.74v-9.78h2.09l2.58,5.57a15,15,0,0,1,.73,1.87,13.46,13.46,0,0,1-.1-2.19v-5.25h1.74v9.78Z"/><path class="cls-9" d="M1225.1,1460.07h-5.31v-9.78h5.31v1.5h-3.49v2.52h3.17v1.5h-3.17v2.76h3.49Z"/><path class="cls-9" d="M1226.43,1456.86v-1.46h3.2v1.46Z"/><path class="cls-9" d="M1231.21,1460.07v-9.78h2.8a3.43,3.43,0,0,1,2.3.56,2.36,2.36,0,0,1,.84,2,2.1,2.1,0,0,1-1.88,2.34l.17.09c.57.32.6.35,1,1.41l1.18,3.41h-2l-.87-2.74c-.36-1.12-.63-1.38-1.36-1.38H1233v4.12Zm2.51-5.51c1,0,1.57-.5,1.57-1.47a1.46,1.46,0,0,0-.44-1.15,1.31,1.31,0,0,0-1-.28H1233v2.9Z"/><path class="cls-9" d="M1244.31,1460.07H1239v-9.78h5.31v1.5h-3.49v2.52H1244v1.5h-3.17v2.76h3.49Z"/><path class="cls-9" d="M1252.26,1459.81a4.33,4.33,0,0,1-1.94.4c-2.94,0-4.67-1.87-4.67-5s1.71-5,4.54-5a4.72,4.72,0,0,1,2.07.49l-.11,1.64a3.11,3.11,0,0,0-1.8-.61c-1.73,0-2.76,1.3-2.76,3.46s1.08,3.5,2.8,3.5a4.08,4.08,0,0,0,1.87-.46Z"/><path class="cls-9" d="M1258.56,1460.07v-4.26h-2.89v4.26h-1.82v-9.78h1.82v4h2.89v-4h1.82v9.78Z"/><path class="cls-9" d="M1267.37,1460.07l-2.76-5.91c-.18-.47-.39-1-.59-1.56.08.81.14,1.63.14,2.34v5.13h-1.74v-9.78h2.09l2.58,5.57a15,15,0,0,1,.73,1.87,13.46,13.46,0,0,1-.1-2.19v-5.25h1.73v9.78Z"/><path class="cls-9" d="M1276.74,1460.07h-5.31v-9.78h5.31v1.5h-3.49v2.52h3.17v1.5h-3.17v2.76h3.49Z"/><path class="cls-9" d="M1278.43,1460.07v-9.78h2.81a3.4,3.4,0,0,1,2.29.56,2.36,2.36,0,0,1,.84,2,2.1,2.1,0,0,1-1.87,2.34l.17.09c.57.32.6.35,1,1.41l1.17,3.41h-2l-.87-2.74c-.36-1.12-.63-1.38-1.35-1.38h-.35v4.12Zm2.51-5.51c1,0,1.57-.5,1.57-1.47a1.49,1.49,0,0,0-.43-1.15,1.31,1.31,0,0,0-1-.28h-.84v2.9Z"/></g><g class="cls-8"><path class="cls-9" d="M1196.28,1425.11v-4.26h-2.88v4.26h-1.82v-9.78h1.82v4h2.88v-4h1.83v9.78Z"/><path class="cls-9" d="M1200.07,1415.33h2.32c3.32,0,4.95,1.6,4.95,4.83a4.29,4.29,0,0,1-4.79,4.95h-2.48Zm2.13,8.41a2.69,2.69,0,0,0,2.28-.82,4,4,0,0,0,.94-2.7,3.78,3.78,0,0,0-1.25-3,3.32,3.32,0,0,0-2-.49h-.31v7Z"/><path class="cls-9" d="M1209,1425.11v-9.78h1.82v9.78Z"/><path class="cls-9" d="M1212.44,1421.9v-1.46h3.19v1.46Z"/></g><polygon class="cls-5" points="189.5 2318.06 189.2 2309.86 384.4 2309.86 384.4 2318.06 189.5 2318.06"/><polygon class="cls-10" points="317 2437.76 317 2321.06 344.3 2321.06 344.3 2437.76 330.7 2454.66 317 2437.76"/><polygon class="cls-11" points="351.9 2378.96 351.9 2321.06 379.2 2321.06 379.2 2378.96 365.6 2395.86 351.9 2378.96"/><g class="cls-8"><path class="cls-9" d="M333.56,2335.05a5.67,5.67,0,0,1-4,1.35c-3.19,0-5.06-1.44-5.06-3.91s1.85-3.92,5-3.92c2.2,0,3.81.7,4.55,2a4.12,4.12,0,0,1,.49,1.93A3.47,3.47,0,0,1,333.56,2335.05Zm-4.06-4.62c-2.35,0-3.65.73-3.65,2.05s1.31,2.06,3.65,2.06,3.67-.76,3.67-2.05S331.84,2330.43,329.5,2330.43Z"/><path class="cls-9" d="M324.61,2343l5.91-2.76c.47-.18,1-.39,1.56-.59-.81.08-1.63.14-2.34.14h-5.13v-1.74h9.78v2.09l-5.57,2.58a15,15,0,0,1-1.87.73,13.46,13.46,0,0,1,2.19-.1h5.25v1.74h-9.78Z"/><path class="cls-9" d="M324.61,2352.13V2347h9.78v1.82h-8.28v3.28Z"/><path class="cls-9" d="M324.61,2353.37h9.78v1.82h-9.78Z"/><path class="cls-9" d="M324.61,2362.19l5.91-2.76c.47-.18,1-.39,1.56-.59a21.83,21.83,0,0,1-2.34.14h-5.13v-1.73h9.78v2.08l-5.57,2.58a15,15,0,0,1-1.87.73,13.46,13.46,0,0,1,2.19-.1h5.25v1.74h-9.78Z"/><path class="cls-9" d="M324.61,2371.56v-5.31h9.78v5.31h-1.5v-3.49h-2.52v3.17h-1.5v-3.17h-2.76v3.49Z"/><path class="cls-9" d="M327.82,2372.89h1.46v3.2h-1.46Z"/><path class="cls-9" d="M324.61,2377.67h9.78v2.8a3.41,3.41,0,0,1-.56,2.3,2.36,2.36,0,0,1-2,.84,2.1,2.1,0,0,1-2.34-1.88l-.09.17c-.32.58-.35.6-1.41,1l-3.41,1.18v-2l2.73-.87c1.13-.36,1.39-.63,1.39-1.36v-.35h-4.12Zm5.51,2.51c0,1,.5,1.57,1.47,1.57a1.46,1.46,0,0,0,1.15-.44,1.31,1.31,0,0,0,.28-1v-.84h-2.9Z"/><path class="cls-9" d="M324.61,2390.77v-5.31h9.78v5.31h-1.5v-3.49h-2.52v3.17h-1.5v-3.17h-2.76v3.49Z"/><path class="cls-9" d="M324.87,2398.73a4.34,4.34,0,0,1-.4-1.95c0-2.94,1.87-4.67,5-4.67s5,1.71,5,4.54a4.66,4.66,0,0,1-.49,2.08l-1.63-.12a3.11,3.11,0,0,0,.61-1.8c0-1.73-1.3-2.76-3.46-2.76s-3.5,1.08-3.5,2.8a4.14,4.14,0,0,0,.46,1.88Z"/><path class="cls-9" d="M324.61,2405h4.26v-2.89h-4.26v-1.82h9.78v1.82h-4V2405h4v1.82h-9.78Z"/><path class="cls-9" d="M324.61,2413.83l5.91-2.76c.47-.18,1-.39,1.56-.59-.81.08-1.63.14-2.34.14h-5.13v-1.74h9.78V2411l-5.57,2.58a15,15,0,0,1-1.87.73,13.46,13.46,0,0,1,2.19-.1h5.25v1.74h-9.78Z"/><path class="cls-9" d="M324.61,2423.2v-5.31h9.78v5.31h-1.5v-3.49h-2.52v3.17h-1.5v-3.17h-2.76v3.49Z"/><path class="cls-9" d="M324.61,2424.9h9.78v2.8a3.45,3.45,0,0,1-.56,2.3,2.38,2.38,0,0,1-2,.84,2.11,2.11,0,0,1-2.34-1.88l-.09.17c-.32.57-.35.6-1.41,1l-3.41,1.17v-2l2.73-.86c1.13-.37,1.39-.63,1.39-1.36v-.35h-4.12Zm5.51,2.5c0,1,.5,1.57,1.47,1.57a1.49,1.49,0,0,0,1.15-.43,1.31,1.31,0,0,0,.28-1v-.84h-2.9Z"/></g><g class="cls-8"><path class="cls-9" d="M359.57,2333.67h4.26v-2.89h-4.26V2329h9.78v1.82h-4v2.89h4v1.82h-9.78Z"/><path class="cls-9" d="M369.35,2337.45v2.33c0,3.32-1.6,4.94-4.84,4.94a4.83,4.83,0,0,1-4.13-1.67,4.88,4.88,0,0,1-.81-3.12v-2.48Zm-8.41,2.13a2.68,2.68,0,0,0,.82,2.28,3.94,3.94,0,0,0,2.7.94,3.71,3.71,0,0,0,3-1.25,3.21,3.21,0,0,0,.49-2v-.31h-7Z"/><path class="cls-9" d="M359.57,2346.38h9.78v1.82h-9.78Z"/><path class="cls-9" d="M362.78,2349.82h1.45V2353h-1.45Z"/></g><g id="Weißer_Verlauf" data-name="Weißer Verlauf"><rect class="cls-12" x="1113.3" y="2736.88" width="326.4" height="151.2"/></g><g id="Straße-3" data-name="Straße"><path id="Straße-4" data-name="Straße" class="cls-13" d="M684,445.5h539.2s130.3-8.2,130.3,96.9c0,109.6-90.7,107.6-134.1,107.6,0,0-378.6,1-391.8,1-24.7,0-108.8-4.9-108.8,84.8l-4.5,560.8s-.4,102.8-97.5,102.8H214.2c-21.9,0-125,2.7-125,106.6,0,90,85.9,107.4,131.4,107.4h866.8c73,0,265.9-5.63,265.9,252.27,0,237.73-145,265.26-237.7,265.26H405.4c-17.1,0-239.3-16.1-239.3,192.8v291.6c0,163,129.9,215,274.9,215h991.9"/></g></svg>