<svg xmlns="http://www.w3.org/2000/svg" xmlns:xlink="http://www.w3.org/1999/xlink" viewBox="0 0 131.31 188.4"><defs><style>.cls-1{fill:#66c485;}.cls-2{fill:url(#HDI_Verlauf_dunkel);}.cls-3{fill:#fff;}.cls-4{fill:#99d7ad;}.cls-5{fill:#e6f5eb;}</style><linearGradient id="HDI_Verlauf_dunkel" x1="3.5" y1="95.28" x2="131.31" y2="95.28" gradientUnits="userSpaceOnUse"><stop offset="0" stop-color="#4dba71"/><stop offset="1" stop-color="#007d29"/></linearGradient></defs><g id="Pricetag"><rect class="cls-1" width="131.31" height="188.4" rx="12"/><path class="cls-2" d="M119.31,188.4H12a12,12,0,0,1-8.48-3.52C1.35,182.7,124.22.8,126.16,2.16A12,12,0,0,1,131.31,12V176.4A12,12,0,0,1,119.31,188.4Z"/><rect class="cls-3" x="10.77" y="15.38" width="110.38" height="40.81" rx="5"/><rect class="cls-4" x="10.77" y="74.71" width="29.06" height="26.64" rx="6"/><rect class="cls-4" x="51.43" y="74.71" width="29.06" height="26.64" rx="6"/><rect class="cls-4" x="10.77" y="113.19" width="29.06" height="26.64" rx="6"/><rect class="cls-4" x="51.43" y="113.19" width="29.06" height="26.64" rx="6"/><rect class="cls-4" x="10.77" y="151.68" width="29.06" height="26.64" rx="6"/><rect class="cls-4" x="51.43" y="151.68" width="29.06" height="26.64" rx="6"/><rect class="cls-4" x="92.09" y="74.71" width="29.06" height="26.64" rx="6"/><rect class="cls-5" x="92.09" y="113.19" width="29.06" height="65.13" rx="6"/><path class="cls-5" d="M116.15,56.19a5,5,0,0,0,5-5V20.38a5,5,0,0,0-5-5H116C109,25.2,99,39.72,87.72,56.19Z"/></g></svg>