<svg xmlns="http://www.w3.org/2000/svg" xmlns:xlink="http://www.w3.org/1999/xlink" viewBox="0 0 1440 2999.71"><defs><style>.cls-1,.cls-2,.cls-4{fill:none;}.cls-1{stroke:#e6f5eb;stroke-linejoin:round;stroke-width:47px;}.cls-1,.cls-4{stroke-linecap:round;}.cls-2{stroke:#ccebd6;stroke-width:7px;stroke-dasharray:67;}.cls-2,.cls-4{stroke-miterlimit:10;}.cls-3{fill:#b3e1c2;}.cls-4{stroke:#80ce99;stroke-width:1.5px;}.cls-5{fill:url(#HDI_Verlauf_hell);}.cls-6{fill:#80ce99;}.cls-7{fill:url(#HDI_Verlauf_dunkel);}.cls-8{fill:url(#HDI_Verlauf_dunkel-2);}.cls-11,.cls-9{font-size:16px;fill:#e6f5eb;font-family:HDI-GerlingSansCond-Bold, HDI-Gerling Sans;font-weight:700;}.cls-9{letter-spacing:-0.07em;}.cls-10{letter-spacing:0em;}.cls-12{fill:url(#HDI_Verlauf_dunkel-3);}.cls-13{fill:url(#HDI_Verlauf_dunkel-4);}.cls-14{fill:url(#Unbenannter_Verlauf_8);}</style><linearGradient id="HDI_Verlauf_hell" x1="1066.81" y1="1961.82" x2="1082.97" y2="1886.53" gradientTransform="translate(-391.59 -75.37) rotate(-14.96)" gradientUnits="userSpaceOnUse"><stop offset="0" stop-color="#b3e1c2"/><stop offset="1" stop-color="#66c485"/></linearGradient><linearGradient id="HDI_Verlauf_dunkel" x1="1186.3" y1="1408.33" x2="1311.19" y2="1408.33" gradientUnits="userSpaceOnUse"><stop offset="0" stop-color="#4dba71"/><stop offset="1" stop-color="#007d29"/></linearGradient><linearGradient id="HDI_Verlauf_dunkel-2" x1="1186.3" y1="1373.45" x2="1261.04" y2="1373.45" xlink:href="#HDI_Verlauf_dunkel"/><linearGradient id="HDI_Verlauf_dunkel-3" x1="713.48" y1="2156.74" x2="838.37" y2="2156.74" gradientTransform="translate(2487.64 1506.24) rotate(90)" xlink:href="#HDI_Verlauf_dunkel"/><linearGradient id="HDI_Verlauf_dunkel-4" x1="713.48" y1="2121.86" x2="788.22" y2="2121.86" gradientTransform="translate(2487.64 1506.24) rotate(90)" xlink:href="#HDI_Verlauf_dunkel"/><linearGradient id="Unbenannter_Verlauf_8" x1="1239.84" y1="2468.59" x2="1566.01" y2="2468.59" gradientTransform="translate(2679.1 5189.8) rotate(180)" gradientUnits="userSpaceOnUse"><stop offset="0" stop-color="#fff"/><stop offset="1" stop-color="#fff" stop-opacity="0"/></linearGradient></defs><g id="Straße"><path id="Straße-2" data-name="Straße" class="cls-1" d="M684,445.46h538.87s130.21-8,130.21,95c0,107.5-90.65,105.5-134.06,105.5,0,0-378.34,1-391.58,1-24.72,0-108.69-4.83-108.69,83.17l-4.53,527.59s-.42,100.86-97.47,100.86H214.43c-21.87,0-124.88,2.68-124.88,104.52,0,88.29,85.88,105.35,131.31,105.35h882.21c72.91,0,249.83-7,249.83,226.79,0,208.22-144.88,240-237.55,240H405.48c-17.14,0-239.17-15.83-239.17,189.06v286c0,159.84,129.8,210.84,274.69,210.84h991.31"/></g><g id="Streifen"><path id="Straße-3" data-name="Straße" class="cls-2" d="M684,445.46h538.87s130.21-8,130.21,95c0,107.5-90.65,105.5-134.06,105.5,0,0-378.34,1-391.58,1-24.72,0-108.69-4.83-108.69,83.17l-4.53,527.59s-.42,100.86-97.47,100.86H214.43c-21.87,0-124.88,2.68-124.88,104.52,0,88.29,85.88,105.35,131.31,105.35h882.21c72.91,0,249.83-7,249.83,226.79,0,208.22-144.88,240-237.55,240H405.48c-17.14,0-239.17-15.83-239.17,189.06v286c0,159.84,129.8,210.84,274.69,210.84h991.31"/></g><g id="Wegpfeile"><g id="Ebene_61" data-name="Ebene 61"><path class="cls-3" d="M1142.61,1546.62s-14.68-10.29-20.49-38-.89-28.17-2.52-40.62-5.77-16.78-5.77-16.78,19.48,6.15,25.09,33.15,8.08,61.49,8.08,61.49Z"/><path class="cls-3" d="M1146.83,1545.35s36.56-24.46,41.39-49.57,7.52-40.62,7.52-40.62-27.1,11.59-36.15,25.41C1149.94,1495.3,1135.64,1510.78,1146.83,1545.35Z"/><path class="cls-4" d="M1189.21,1465.22s-36.62,47.08-39.7,65.85"/><line class="cls-4" x1="1184.75" y1="1486.94" x2="1167.82" y2="1495.55"/><line class="cls-4" x1="1175.2" y1="1484.32" x2="1176.75" y2="1471.23"/><path class="cls-5" d="M1143.65,1546.52s-15.45-25.39-9.06-42.58,4.32-49.71,4.32-49.71,12.84,24.89,15.37,52.19c1.24,13.35-1.25,26.12-6.47,39.06Z"/></g><polygon class="cls-6" points="1183.32 1549.67 1175.07 1548.95 1175.07 1354.58 1183.32 1354.58 1183.32 1549.67"/><polygon class="cls-7" points="1294.35 1421.96 1186.3 1421.96 1186.3 1394.69 1294.35 1394.69 1311.19 1408.33 1294.35 1421.96"/><polygon class="cls-8" points="1244.19 1387.09 1186.3 1387.09 1186.3 1359.81 1244.19 1359.81 1261.04 1373.45 1244.19 1387.09"/><text class="cls-9" transform="translate(1193.17 1414.36)">T<tspan class="cls-10" x="6.5" y="0">ARIFRECHNER</tspan></text><text class="cls-11" transform="translate(1193.17 1379.43)">HDI-</text><polygon class="cls-6" points="189.85 2216.73 190.28 2208.49 384.65 2208.49 384.65 2216.73 189.85 2216.73"/><polygon class="cls-12" points="317.26 2327.77 317.26 2219.72 344.54 2219.72 344.54 2327.77 330.9 2344.61 317.26 2327.77"/><polygon class="cls-13" points="352.14 2277.61 352.14 2219.72 379.42 2219.72 379.42 2277.61 365.78 2294.45 352.14 2277.61"/><text class="cls-9" transform="translate(324.87 2226.59) rotate(90)">T<tspan class="cls-10" x="6.5" y="0">ARIFRECHNER</tspan></text><text class="cls-11" transform="translate(359.81 2226.59) rotate(90)">HDI-</text></g><g id="Weißer_Verlauf" data-name="Weißer Verlauf"><rect class="cls-14" x="1113.09" y="2647.08" width="326.17" height="148.27"/></g></svg>