<svg xmlns="http://www.w3.org/2000/svg" xmlns:xlink="http://www.w3.org/1999/xlink" viewBox="0 0 439.65 287.42"><defs><style>.cls-1{fill:#b3e1c2;}.cls-2{fill:#80ce99;}.cls-3{fill:#99d7ad;}.cls-4{fill:#66c485;}.cls-5{fill:url(#HDI_Verlauf_dunkel);}.cls-6{fill:url(#HDI_Verlauf_dunkel-2);}.cls-12,.cls-7{fill:#009c33;}.cls-8{fill:#33b05c;}.cls-9{fill:#fff;}.cls-10{fill:#4dba71;}.cls-11{fill:#008c2e;}.cls-12{stroke:#009c33;stroke-linecap:round;stroke-linejoin:round;stroke-width:2px;}</style><linearGradient id="HDI_Verlauf_dunkel" x1="201.53" y1="37.15" x2="378.72" y2="37.15" gradientTransform="translate(4.98 102.3) rotate(-20.17)" gradientUnits="userSpaceOnUse"><stop offset="0" stop-color="#4dba71"/><stop offset="1" stop-color="#007d29"/></linearGradient><linearGradient id="HDI_Verlauf_dunkel-2" x1="58.59" y1="98.48" x2="209.12" y2="98.48" gradientTransform="matrix(1, 0, 0, 1, 0, 0)" xlink:href="#HDI_Verlauf_dunkel"/></defs><g id="Pricetag"><circle class="cls-1" cx="28.77" cy="185.33" r="28.77"/><path class="cls-2" d="M28.77,156.56V214.1a28.77,28.77,0,0,1,0-57.54Z"/><circle class="cls-3" cx="391.97" cy="267.35" r="12.69"/><circle class="cls-3" cx="409.15" cy="267.35" r="12.69"/><circle class="cls-3" cx="422.42" cy="261.37" r="17.23"/><circle class="cls-3" cx="400.56" cy="248.68" r="12.69"/><circle class="cls-3" cx="413.25" cy="241.1" r="12.69"/><circle class="cls-3" cx="385.66" cy="235.98" r="12.69"/><circle class="cls-3" cx="400.56" cy="233" r="12.69"/><ellipse class="cls-1" cx="340.1" cy="259.46" rx="29.56" ry="21.94"/><ellipse class="cls-1" cx="354.18" cy="245.3" rx="21.89" ry="21.94"/><ellipse class="cls-1" cx="384.38" cy="268.71" rx="21.93" ry="18"/><circle class="cls-1" cx="354.81" cy="268.71" r="18.71"/><circle class="cls-1" cx="383.77" cy="247.57" r="14.11"/><polygon class="cls-1" points="209.09 279.22 71.43 279.22 71.43 128.24 209.09 77.49 209.09 279.22"/><polygon class="cls-4" points="209.09 279.22 366.59 279.22 366.59 71.49 209.09 13.42 209.09 279.22"/><rect class="cls-5" x="197.83" y="31.47" width="184.59" height="11.36" transform="translate(30.6 -97.75) rotate(20.17)"/><polygon class="cls-6" points="62.5 131.46 209.09 77.49 209.12 65.51 58.59 120.8 62.5 131.46"/><rect class="cls-7" x="221.57" y="180.1" width="132.54" height="99.12"/><rect class="cls-8" x="221.57" y="191.35" width="132.54" height="5.46"/><rect class="cls-8" x="221.57" y="205.7" width="132.54" height="5.46"/><rect class="cls-8" x="221.57" y="220.04" width="132.54" height="5.46"/><rect class="cls-8" x="221.57" y="234.38" width="132.54" height="5.46"/><rect class="cls-8" x="221.57" y="248.72" width="132.54" height="5.46"/><rect class="cls-8" x="221.57" y="263.07" width="132.54" height="5.46"/><rect class="cls-9" x="92.22" y="136.76" width="101.92" height="23.68"/><rect class="cls-10" x="119.27" y="197.4" width="46.54" height="81.81"/><rect class="cls-8" x="113.34" y="146.63" width="23.74" height="4" transform="translate(273.84 23.42) rotate(90)"/><rect class="cls-8" x="149.29" y="146.63" width="23.74" height="4" transform="translate(309.79 -12.53) rotate(90)"/><rect class="cls-11" x="155.57" y="230.95" width="4" height="15.54"/><line class="cls-12" x1="28.77" y1="278.5" x2="28.77" y2="176.45"/><line class="cls-12" x1="28.77" y1="197.83" x2="15.77" y2="184.83"/><line class="cls-12" x1="28.77" y1="205.68" x2="43.15" y2="191.3"/><circle class="cls-9" cx="287.84" cy="98.48" r="26"/><path class="cls-8" d="M289.84,72.56c-.66,0-1.33-.08-2-.08s-1.34,0-2,.08V96.48H261.92c-.05.66-.09,1.33-.09,2s0,1.34.09,2h23.92V124.4c.66,0,1.32.09,2,.09s1.34,0,2-.09V100.48h23.92c.05-.66.08-1.32.08-2s0-1.34-.08-2H289.84Z"/></g></svg>