<svg xmlns="http://www.w3.org/2000/svg" xmlns:xlink="http://www.w3.org/1999/xlink" viewBox="0 0 231.63 172.87"><defs><style>.cls-1{fill:url(#Unbenannter_Verlauf_3);}.cls-2{fill:#33b05c;}.cls-3{fill:#80ce99;}.cls-4{fill:#007d29;}.cls-5{fill:#fff;}.cls-6{fill:#b3e1c2;}.cls-7{fill:url(#HDI_Verlauf_dunkel);}</style><linearGradient id="Unbenannter_Verlauf_3" x1="19.26" y1="113.96" x2="144.35" y2="113.96" gradientUnits="userSpaceOnUse"><stop offset="0" stop-color="#8bd3a3"/><stop offset="1" stop-color="#4dba71"/></linearGradient><linearGradient id="HDI_Verlauf_dunkel" x1="8.83" y1="54.54" x2="154.79" y2="54.54" gradientUnits="userSpaceOnUse"><stop offset="0" stop-color="#4dba71"/><stop offset="1" stop-color="#007d29"/></linearGradient></defs><g id="Pricetag"><polygon class="cls-1" points="19.56 72 144.35 71.63 144.35 156.29 19.26 156.29 19.56 72"/><rect class="cls-2" x="103.05" y="98.44" width="29.68" height="57.81"/><rect class="cls-3" x="106.65" y="102.39" width="22.47" height="21.31"/><rect class="cls-3" x="106.65" y="131.69" width="22.47" height="21.31"/><rect class="cls-4" x="122.75" y="126.57" width="6.37" height="2.08"/><rect class="cls-5" x="40.68" y="86.95" width="47.64" height="33.25"/><rect class="cls-2" x="38.04" y="120.19" width="52.92" height="3.51"/><rect class="cls-2" x="47.87" y="102.42" width="33.25" height="2.29" transform="translate(168.07 39.07) rotate(90)"/><rect class="cls-2" x="40.68" y="102.33" width="47.64" height="2.29" transform="translate(128.99 206.96) rotate(180)"/><polygon class="cls-6" points="231.63 18.85 170.5 71.64 170.5 156.29 231.63 156.3 231.63 18.85"/><polygon class="cls-2" points="231.63 11.76 161.79 71.71 165.65 76.2 231.63 19.55 231.63 11.76"/><rect class="cls-3" x="216.09" y="98.44" width="15.55" height="57.81"/><path class="cls-5" d="M231.63,45.93c-.21,0-.42,0-.64,0a9.63,9.63,0,1,0,0,19.26c.22,0,.43,0,.64,0Z"/><polygon class="cls-7" points="154.79 72.01 134.11 37.07 28.8 37.07 8.83 72.01 154.79 72.01"/></g></svg>