<svg xmlns="http://www.w3.org/2000/svg" xmlns:xlink="http://www.w3.org/1999/xlink" viewBox="0 0 214.22 279.64"><defs><style>.cls-1{fill:#ccebd6;}.cls-2{fill:#4dba71;}.cls-3{fill:#fff;}.cls-4{fill:url(#HDI_Verlauf_dunkel);}.cls-5{fill:url(#Unbenannter_Verlauf_3);}.cls-6{fill:url(#HDI_Verlauf_dunkel-2);}.cls-7{fill:#66c485;}.cls-8{fill:url(#Unbenannter_Verlauf_4);}.cls-9{fill:#33b05c;}.cls-10{fill:#009c33;}.cls-11{fill:url(#Unbenannter_Verlauf_4-2);}.cls-12{fill:#80ce99;}.cls-13{fill:url(#HDI_Verlauf_hell);}.cls-14,.cls-16,.cls-18{fill:none;stroke-linecap:round;}.cls-14{stroke:#4dba71;}.cls-14,.cls-16{stroke-miterlimit:10;}.cls-15{fill:url(#HDI_Verlauf_dunkel-3);}.cls-16{stroke:#66c485;stroke-width:4px;}.cls-17{fill:url(#Unbenannter_Verlauf_43);}.cls-18{stroke:#33b05c;stroke-linejoin:round;}</style><linearGradient id="HDI_Verlauf_dunkel" x1="77.57" y1="60.26" x2="120.71" y2="60.26" gradientUnits="userSpaceOnUse"><stop offset="0" stop-color="#4dba71"/><stop offset="1" stop-color="#007d29"/></linearGradient><linearGradient id="Unbenannter_Verlauf_3" x1="56.42" y1="168.63" x2="146.63" y2="168.63" gradientUnits="userSpaceOnUse"><stop offset="0" stop-color="#4dba71"/><stop offset="1" stop-color="#b3e1c2"/></linearGradient><linearGradient id="HDI_Verlauf_dunkel-2" x1="151.2" y1="91.27" x2="196.58" y2="91.27" xlink:href="#HDI_Verlauf_dunkel"/><linearGradient id="Unbenannter_Verlauf_4" x1="56.42" y1="159.47" x2="142.47" y2="159.47" gradientUnits="userSpaceOnUse"><stop offset="0" stop-color="#b3e1c2"/><stop offset="1" stop-color="#4dba71"/></linearGradient><linearGradient id="Unbenannter_Verlauf_4-2" x1="126.01" y1="175.64" x2="167.98" y2="175.64" xlink:href="#Unbenannter_Verlauf_4"/><linearGradient id="HDI_Verlauf_hell" x1="37.32" y1="178.44" x2="63.86" y2="178.44" gradientUnits="userSpaceOnUse"><stop offset="0" stop-color="#b3e1c2"/><stop offset="1" stop-color="#66c485"/></linearGradient><linearGradient id="HDI_Verlauf_dunkel-3" x1="32.8" y1="180.55" x2="47.88" y2="180.55" xlink:href="#HDI_Verlauf_dunkel"/><linearGradient id="Unbenannter_Verlauf_43" x1="128.26" y1="225.75" x2="158.67" y2="225.75" gradientUnits="userSpaceOnUse"><stop offset="0" stop-color="#66c485"/><stop offset="1" stop-color="#4dba71"/></linearGradient></defs><g id="Pricetag"><rect class="cls-1" x="13.07" y="6.34" width="188.09" height="231.55"/><polygon class="cls-2" points="140.16 237.57 79.14 237.57 79.03 218.85 141.26 221.71 140.16 237.57"/><path class="cls-3" d="M81.65,68S82.48,94.81,98,100.1s20.06-29.6,20.06-29.6l-3-17.6L85,53.16Z"/><path class="cls-3" d="M93.22,88.6S91,104.88,90.35,106.36s-11.2,8.25-11.2,8.25l13.32,15h27.8l3.07-19s-11.76-.68-12.79-4.12c-1.27-4.23-3.61-20.41-3.61-20.41Z"/><path class="cls-4" d="M106.35,59c-5.11,2.58-16.46-.17-16.46-.17l-4.28,1.75c-4.28,1.75-2,15.9-2,15.9l-1.11,1.11s-5.17-11.17-5-17.3.83-7.91,8.55-14.29c9.2-7.58,20.06-3.93,25.73-1.62s3.6,6.33,3.6,6.33a17.13,17.13,0,0,1,2.76,2c1.48,1.32,3.66,8.3,1.73,15.82-1.69,6.54-2.53,9.76-2.53,9.76l-1.37.69c1.09-19.85-4.6-23.33-4.6-23.33S111.46,56.46,106.35,59Z"/><path class="cls-5" d="M130.11,164.09S142.68,121,141,115.94s-21.75-6-21.75-6-3.09,10.78-16.41,11c-13.8.22-17.29-10.63-17.29-10.63s-12.07,4.53-15.24,6.85S56.42,132.58,56.42,148c0,15.07,5.65,28.71,28.43,40.66,24,12.6,51.39,19.52,51.39,19.52l5.5-13s-54-21.57-60.09-28.33S73.22,147,73.22,147s2.56,62.1,4.35,73.5,69.06,5.11,69.06,5.11l-2.36-22.36L139.62,178Z"/><path class="cls-3" d="M138.8,201.06s8.72,2.36,14.22-2.19,3.88-11.81,3.88-11.81l-15.15,7Z"/><path class="cls-3" d="M153,69.94s-11.18,26,2.46,30.92l-6.11,11s3.57,3.72,7.54,4,7.29-5,7.29-5V101.5l9.69-8.56.94-24Z"/><path class="cls-6" d="M151.2,70.41S164.36,74.7,166,75s4.28,1.43,6.34,0c0,0-2.64,3-2.85,6-.16,2.22.15,3.49,1.74,4.12s3.07-.15,2.71,2.54c-.65,4.76-6.52,10.8-6.52,10.8s-1.42,20,15.23,23c0,0,5.71,1,11.26-8.41,0,0-8.09-7.29-6.19-16.17S197,81,196.55,73.59s-3.48-9.68-7.29-11S181,66,181,66s-6.5-4.75-12-4.91S157.07,60.9,151.2,70.41Z"/><path class="cls-7" d="M132.45,111.64s.89.17,2.19.54c1.53.42,4.56,1,4.11,2.94-1,4.33-9.44,37.44-9.44,43.63s.8,5.34.8,5.34,5.6,4.81,16.91,1.16,16.1-7.48,18.32-7.32l.45-30.9,1.11,4.76,9.83-6.35s-1.11-9.67-4.28-12S164.2,110,164.2,110s-3.64,6.87-8.88,5.13-4.12-4.93-4.12-6.36c0-.94-7.85-4.43-12.61-2.21A17.49,17.49,0,0,0,132.45,111.64Z"/><path class="cls-3" d="M105.48,191.89l-3.28,34.56-.52,2.86,3,.33s11.67-20,11.19-30.77c-.33-7.63,10.15-11.6,10.15-11.6l-15.53-1.57Z"/><path class="cls-8" d="M73.1,145.47l-2.31-28.63s-11.32,4.83-13.79,23c-1.3,9.53-1,23.57,7.82,34.05,4.72,5.59,11.93,10.5,20,14.69L113,196.81l25.82,5.3,3.67-8.67s-49.29-19.36-56.93-23.91C79.67,166,73.68,157.1,73.1,145.47Z"/><path class="cls-3" d="M115.83,171.28s-18.55,9.2-20.61,11.57-13.57,46.47-13.57,46.47l3.1,1.27S98,211.24,99.85,202.84s1.39-7.25,1.39-7.25l28.07-9.44Z"/><path class="cls-9" d="M113,171s6.58,13.16,13.44,16.1c2,.84,11.09-3.77,19.33-10.29,8.46-6.68,19.56-14.27,19.56-14.27l0-4.57-35,5.29S123,163.34,113,171Z"/><path class="cls-3" d="M151.2,154.31l19.48-16.74-3-6.28,7.57-4.89s3.23,8.24,3.54,9.19a5.74,5.74,0,0,1-.79,5.08c-1.43,2.06-25.53,18.86-25.53,18.86s-2.59,4.75-6.66,4.93c-2.9.12-5.57.32-6.11-2.46-.43-2.18,1.87-3.12,2.77-3.44a6,6,0,0,0,1.75-1.12s-2.17-.75-1.75-2,2.38-.64,2.38-.64,2.38.8,3.26,1S151.2,154.31,151.2,154.31Z"/><path class="cls-10" d="M84.75,230.59l-3.1-1.27s-6.73-.16-8.16.64,5.87,3.27,5.87,3.27l3.8,1.32Z"/><path class="cls-10" d="M104.64,229.64l-3-.33S95.16,231,94,232.15s6.45,1.56,6.45,1.56l3.7.47Z"/><path class="cls-11" d="M126,186.87l30.63-22.4s8.57-7.49,9.2-6.54,4.81,17.1-.59,23-22.78,12.54-22.78,12.54Z"/><path class="cls-12" d="M38.13,215.59s-10-7.64-14.51-28.73-1.15-21.39-2.5-30.86-4.29-12.76-4.29-12.76S30.3,148,34.67,168.5s6.68,46.22,6.68,46.22Z"/><path class="cls-13" d="M43.15,214.15s20.58-21.51,20.67-40.92,0-31.36,0-31.36S47,153.7,42.61,165.12c-4.11,10.77-7.28,21.56-3.79,42.06L40.39,215S42.44,214.46,43.15,214.15Z"/><path class="cls-14" d="M60.64,150.17s-18.75,39.58-18.47,54"/><line class="cls-14" x1="60.37" y1="166.99" x2="50.04" y2="175.41"/><line class="cls-14" x1="53.61" y1="166.13" x2="53.01" y2="156.13"/><path class="cls-15" d="M37.89,215.33s-8.75-20.17-3.29-32.52,6.11-37.05,6.11-37.05,7.19,20,7.17,40.79c0,10.17-2.22,18.61-6.61,27.86Z"/><polygon class="cls-2" points="29.66 237.9 22.69 211.47 58 211.47 50.39 237.9 29.66 237.9"/><rect class="cls-9" y="237.46" width="214.22" height="12.79"/><path class="cls-7" d="M170.49,217.16s-4.71-8.27-23.5-4c-21,4.76-18.26,21.57-17.68,24.32h62.94s.85-5.14-3.17-5.53-4.08-.18-4.08-.18l1.48-6.49Z"/><path class="cls-16" d="M131.17,231.75s-3.82,6.89,3,15.33c6.25,7.68,2.74,21.68-8.22,30.56"/><path class="cls-17" d="M128.6,237.9h29.63s2.11-4.45-3-5-8.28-.74-8.28-.74,4.21-3,4.21-7c0-7.46-6-11.61-6-11.61S125.48,218,128.6,237.9Z"/><circle class="cls-7" cx="181.24" cy="217.2" r="11.21"/><polygon class="cls-7" points="171.72 211.79 174.59 201.36 178.9 210.03 171.72 211.79"/><polygon class="cls-7" points="192.32 215.71 191.98 204.33 185.85 211.82 192.32 215.71"/><line class="cls-18" x1="183.6" y1="218.85" x2="188.04" y2="217.2"/><line class="cls-18" x1="183.6" y1="218.85" x2="187.62" y2="220.76"/><line class="cls-18" x1="179.06" y1="218.03" x2="175.92" y2="214.91"/><line class="cls-18" x1="174.51" y1="218.54" x2="179.06" y2="218.03"/><rect class="cls-9" x="6.72" y="6.34" width="6.34" height="231.12"/><rect class="cls-9" x="103.72" y="-97" width="6.34" height="200.34" transform="translate(110.07 -103.72) rotate(90)"/><rect class="cls-9" x="200.72" y="6.34" width="6.34" height="231.12"/></g></svg>