<?xml version="1.0" encoding="utf-8"?>
<!-- Generator: Adobe Illustrator 24.1.3, SVG Export Plug-In . SVG Version: 6.00 Build 0)  -->
<svg version="1.1" xmlns="http://www.w3.org/2000/svg" xmlns:xlink="http://www.w3.org/1999/xlink" x="0px" y="0px"
	 viewBox="0 0 1440 2841.1" style="enable-background:new 0 0 1440 2841.1;" xml:space="preserve">
<style type="text/css">
	.st0{display:none;}
	.st1{fill:none;stroke:#E6F5EB;stroke-width:47;stroke-linecap:round;stroke-linejoin:round;stroke-miterlimit:10;}
	.st2{display:inline;}
	.st3{fill:none;stroke:#CCEBD6;stroke-width:7;stroke-miterlimit:10;stroke-dasharray:67;}
	.st4{display:inline;fill:#1F906D;}
	.st5{display:inline;fill:#92C094;}
	.st6{fill:#CCEBD6;}
	.st7{fill:#B3E1C2;}
	.st8{fill:url(#SVGID_1_);}
	.st9{fill:none;stroke:#80CE99;stroke-width:1.5;stroke-linecap:round;stroke-miterlimit:10;}
	.st10{fill:url(#SVGID_2_);}
	.st11{fill:none;stroke:#66C485;stroke-width:1.5;stroke-linecap:round;stroke-miterlimit:10;}
	.st12{fill:url(#SVGID_3_);}
	.st13{fill:url(#SVGID_4_);}
	.st14{fill:url(#SVGID_5_);}
	.st15{fill:#99D7AD;}
	.st16{fill:#66C485;}
	.st17{fill:url(#SVGID_6_);}
	.st18{fill:url(#SVGID_7_);}
	.st19{fill:url(#SVGID_8_);}
	.st20{fill:url(#SVGID_9_);}
	.st21{fill:url(#SVGID_10_);}
	.st22{fill:#80CE99;}
	.st23{fill:#FFFFFF;}
	.st24{fill:#4DBA71;}
	.st25{fill:#1F906D;}
	.st26{fill:#33B05C;}
	.st27{fill:url(#SVGID_11_);}
	.st28{fill:url(#SVGID_12_);}
	.st29{fill:url(#SVGID_13_);}
	.st30{fill:url(#SVGID_14_);}
	.st31{fill:url(#SVGID_15_);}
	.st32{fill:url(#SVGID_16_);}
	.st33{fill:url(#SVGID_17_);}
	.st34{fill:url(#SVGID_18_);}
	.st35{fill:#E6F5EB;}
	.st36{fill:url(#SVGID_19_);}
	.st37{fill:url(#SVGID_20_);}
	.st38{fill:#C1D6BC;}
	.st39{fill:url(#SVGID_21_);}
	.st40{fill:url(#SVGID_22_);}
	.st41{fill:url(#SVGID_23_);}
	.st42{fill:url(#SVGID_24_);}
	.st43{fill:#33B05C;stroke:#28AF7E;stroke-miterlimit:10;}
	.st44{fill:url(#SVGID_25_);}
	.st45{fill:url(#SVGID_26_);}
	.st46{display:inline;fill:#80CE99;}
	.st47{display:inline;fill:#009C33;}
	.st48{fill:#76C4FF;}
	.st49{display:none;fill:none;stroke:#C1D6BC;stroke-width:21;stroke-linecap:round;stroke-linejoin:round;stroke-miterlimit:10;}
	.st50{fill:none;stroke:#80CE99;stroke-width:21;stroke-linecap:round;stroke-linejoin:round;stroke-miterlimit:10;}
	.st51{fill:none;stroke:#C1D6BC;stroke-width:21;stroke-linecap:round;stroke-linejoin:round;stroke-miterlimit:10;}
	.st52{fill:url(#SVGID_27_);}
	.st53{fill:url(#SVGID_28_);}
	.st54{fill:url(#SVGID_29_);}
	.st55{fill:url(#SVGID_30_);}
	.st56{fill:url(#SVGID_31_);}
	.st57{fill:url(#SVGID_32_);}
	.st58{fill:#009C33;}
	.st59{fill:url(#SVGID_33_);}
	.st60{fill:#FFE75A;}
	.st61{fill:#FF9632;}
	.st62{fill:url(#SVGID_34_);}
	.st63{fill:url(#SVGID_35_);}
	.st64{fill:url(#SVGID_36_);}
	.st65{display:none;fill:#B3E1C2;}
	.st66{display:none;fill:#80CE99;}
	.st67{fill:url(#SVGID_37_);}
	.st68{fill:url(#SVGID_38_);}
	.st69{fill:url(#SVGID_39_);}
	.st70{fill:#E5E5E5;}
	.st71{fill:url(#SVGID_40_);}
	.st72{fill:url(#SVGID_41_);}
	.st73{fill:url(#SVGID_42_);}
	.st74{fill:url(#SVGID_43_);}
	.st75{fill:url(#SVGID_44_);}
	.st76{fill:none;stroke:#B3B3B3;stroke-width:2;stroke-linecap:round;stroke-miterlimit:10;}
	.st77{fill:url(#SVGID_45_);}
	.st78{fill:url(#SVGID_46_);}
	.st79{display:inline;fill:#99D7AD;}
	.st80{display:inline;fill:#4DBA71;}
	.st81{fill:url(#SVGID_47_);}
	.st82{fill:url(#SVGID_48_);}
	.st83{fill:#008C2E;}
	.st84{fill:url(#SVGID_49_);}
	.st85{fill:none;stroke:#66C485;stroke-width:2;stroke-miterlimit:10;}
	.st86{fill:none;stroke:#66C485;stroke-width:2;stroke-linecap:round;stroke-miterlimit:10;}
	.st87{display:inline;fill:none;stroke:#66C485;stroke-width:2;stroke-linecap:round;stroke-miterlimit:10;}
	.st88{display:inline;fill:none;stroke:#66C485;stroke-width:2;stroke-miterlimit:10;}
	.st89{display:inline;fill:#FFE75A;}
	.st90{display:inline;fill:#FF9632;}
	.st91{fill:url(#SVGID_50_);}
	.st92{fill:url(#SVGID_51_);}
	.st93{fill:url(#SVGID_52_);}
	.st94{display:inline;fill:none;}
	.st95{font-family:'HDI-GerlingSansCond-Black';}
	.st96{font-size:43px;}
	.st97{font-family:'HDI-GerlingSansCond-Light';}
	.st98{font-size:26px;}
	.st99{fill-rule:evenodd;clip-rule:evenodd;fill:#FF9632;}
	.st100{display:inline;fill:#FFFFFF;}
	.st101{font-family:'HDI-GerlingSansCond-Bold';}
	.st102{font-size:18px;}
	.st103{font-size:30px;}
	.st104{font-size:16px;}
	.st105{font-size:20px;}
	.st106{display:inline;fill-rule:evenodd;clip-rule:evenodd;fill:none;stroke:#009C33;stroke-width:2;stroke-miterlimit:10;}
	.st107{fill-rule:evenodd;clip-rule:evenodd;fill:#FF7200;}
	.st108{display:inline;fill-rule:evenodd;clip-rule:evenodd;fill:#006B2D;}
	
		.st109{display:inline;fill-rule:evenodd;clip-rule:evenodd;fill:none;stroke:#FFFFFF;stroke-width:2;stroke-linecap:round;stroke-linejoin:round;stroke-miterlimit:10;}
	.st110{fill-rule:evenodd;clip-rule:evenodd;fill:#009C33;}
	.st111{fill-rule:evenodd;clip-rule:evenodd;fill:#007D29;}
	.st112{font-family:'HDI-GerlingSansCond-Regular';}
	.st113{fill:#E60018;}
	.st114{fill:url(#SVGID_53_);}
	.st115{fill:none;stroke:#009C33;stroke-width:6;stroke-miterlimit:10;}
	.st116{fill:none;stroke:#80CE99;stroke-width:6;stroke-miterlimit:10;}
	.st117{fill:url(#SVGID_54_);}
	.st118{fill:url(#SVGID_55_);}
	.st119{font-size:14.0093px;}
	.st120{fill:url(#SVGID_56_);}
	.st121{fill:url(#SVGID_57_);}
	.st122{font-size:14px;}
	.st123{display:inline;fill:none;stroke:#FF7200;stroke-width:4;stroke-miterlimit:10;}
	.st124{fill:none;stroke:#FF7200;stroke-miterlimit:10;stroke-dasharray:4;}
	.st125{fill:url(#SVGID_58_);}
	.st126{font-size:10px;}
	.st127{fill:#FF7200;}
	.st128{fill:url(#SVGID_59_);}
	.st129{fill:url(#SVGID_60_);}
	.st130{font-size:16.3135px;}
	.st131{font-size:10.1959px;}
	.st132{fill:none;}
	.st133{fill:url(#SVGID_61_);}
	.st134{fill:url(#SVGID_62_);}
	.st135{fill:url(#SVGID_63_);}
	.st136{fill:url(#SVGID_64_);}
	.st137{fill:url(#SVGID_65_);}
</style>
<g id="Ebene_71" class="st0">
	
		<image style="overflow:visible;" width="722" height="860" xlink:href="1766114A41FCFA5E.png"  transform="matrix(1.9927 0 0 1.9927 -0.7177 0.3568)">
	</image>
</g>
<g id="Background" class="st0">
</g>
<g id="Straße">
	<path id="Straße_2_" class="st1" d="M684,445.5h539.2c0,0,130.3-8.2,130.3,96.9c0,109.6-90.7,107.6-134.1,107.6
		c0,0-378.6,1-391.8,1c-24.7,0-108.8-4.9-108.8,84.8l-4.5,560.8c0,0-0.4,102.8-97.5,102.8s-372.5,0-402.6,0
		c-21.9,0-125,2.7-125,106.6c0,90,85.9,107.4,131.4,107.4c26.7,0,826.8,0,866.8,0c73,0,265.9-5.5,265.9,232.9
		c0,212.3-145,248.8-237.7,248.8c-26.4,0,32.1,0-393.6,0c0,0-299.5,0-316.6,0c-17.1,0-239.3-16.1-239.3,192.8
		c0,121.6,0,195.2,0,291.6c0,163,129.9,215,274.9,215c141.6,0,991.9,0,991.9,0"/>
	<g id="Straßenstreifen" class="st0">
		<g id="Ebene_72" class="st2">
		</g>
		<g id="Ebene_73" class="st2">
		</g>
	</g>
	<g id="Ebene_75">
	</g>
	<path id="Straße_3_" class="st3" d="M684,445.5h539.2c0,0,130.3-8.2,130.3,96.9c0,109.6-90.7,107.6-134.1,107.6
		c0,0-378.6,1-391.8,1c-24.7,0-108.8-4.9-108.8,84.8l-4.5,560.8c0,0-0.4,102.8-97.5,102.8s-372.5,0-402.6,0
		c-21.9,0-125,2.7-125,106.6c0,90,85.9,107.4,131.4,107.4c26.7,0,826.8,0,866.8,0c73,0,265.9-5.5,265.9,232.9
		c0,212.3-145,248.8-237.7,248.8c-26.4,0,32.1,0-393.6,0c0,0-299.5,0-316.6,0c-17.1,0-239.3-16.1-239.3,192.8
		c0,121.6,0,195.2,0,291.6c0,163,129.9,215,274.9,215c141.6,0,991.9,0,991.9,0"/>
</g>
<g id="Streifen">
</g>
<g id="Haus_Wasser" class="st0">
	<g>
		<path class="st4" d="M1289.6,330.6l-22.1-38.3c-2-3.5-6.4-4.7-9.9-2.7c-1.1,0.6-2,1.5-2.6,2.5c0,0,0,0.1-0.1,0.1l0,0l-22.1,38.3
			c-2,3.5-0.8,7.9,2.7,9.9c1.1,0.6,2.4,1,3.6,1h44.2c4,0,7.2-3.2,7.3-7.2C1290.6,333,1290.3,331.7,1289.6,330.6z M1286.7,336.2
			c-0.7,1.2-2,1.9-3.3,1.9h-44.2c-2.1,0-3.8-1.7-3.8-3.8c0-0.7,0.2-1.3,0.5-1.9l22.1-38.3l0,0c1.1-1.8,3.4-2.5,5.2-1.4
			c0.6,0.3,1.1,0.8,1.4,1.4l22.1,38.3C1287.4,333.5,1287.4,335,1286.7,336.2L1286.7,336.2z"/>
		<path class="st5" d="M1264.4,308.6v14c0,0.6-0.5,1.1-1.1,1.1h-4.1c-0.6,0-1.1-0.5-1.1-1.1v-14c0-0.6,0.5-1.1,1.1-1.1h4.1
			C1263.9,307.4,1264.5,307.9,1264.4,308.6L1264.4,308.6z M1264.4,327.8v3c0,0.6-0.5,1.1-1.1,1.1h-4.1c-0.6,0-1.1-0.5-1.1-1.1v-3
			c0-0.6,0.5-1.1,1.1-1.1h4.1C1263.9,326.7,1264.5,327.2,1264.4,327.8L1264.4,327.8z"/>
	</g>
	<g id="Pflanzen" class="st2">
		<path class="st6" d="M886.4,547.4c0,0-0.6-27.5,14.6-37.5s15.5-23.9,15.5-23.9s7.4,8.4,5.2,17.1c-2.3,8.7-11.3,13.9-9.1,18.4
			c2.3,4.5,6.8-0.3,8.4,3.6c1.6,3.9,1.9,12.3-4.2,21.7s-18.1,80.5-18.1,80.5l-5.8-0.3L886.4,547.4z"/>
		<path class="st7" d="M903.6,627c0,0,7.5-11.9,17.2-11.3c10,0.6,18.1-14.9,17.8-19.1c-0.6-7.4-6.1-3.9-10.3-4.9s-1.6-4.9,2.3-7.1
			c3.9-2.3,18.1-12.6,15.2-19.7c-2.9-7.1-7.8-1.9-9.1-2.9c-1.3-1,2.6-9.1,3.6-12c1-2.9,4.2-13.9-5.2-13.6
			c-9.4,0.3-8.1,13.9-11.6,13.6c-3.6-0.3-3.2-9.7-8.7-7.4c-5.5,2.3-9.7,6.5-9.7,14.6s-1.9,10.7-3.2,9.7c-1.3-1-0.2-3.8-2.6-5.2
			c-3.2-1.9-9.5-2.6-11.6,16.5c-1.9,17.1,5.5,21.3,7.4,30.4c0.8,3.8,0.5,19.3,0.5,19.3L903.6,627z"/>
		<linearGradient id="SVGID_1_" gradientUnits="userSpaceOnUse" x1="892.0745" y1="628.4816" x2="846.7994" y2="491.3629">
			<stop  offset="1.685657e-05" style="stop-color:#B3E1C2"/>
			<stop  offset="0.9989" style="stop-color:#66C485"/>
		</linearGradient>
		<path class="st8" d="M891.4,628.3c0,0-43.9-36.9-49.1-66.3c-5.2-29.4,4.5-65.6,4.5-65.6s41.4,19.4,46.2,52.1
			c4.9,32.7,4.5,79.2,4.5,79.2L891.4,628.3z"/>
		<g>
			<path class="st9" d="M900,624.7c0,0,4.3-31.3,10.8-41.7c6.5-10.3,20.7-32.8,20.7-32.8"/>
			<line class="st9" x1="920.3" y1="567.1" x2="918" y2="555.5"/>
			<path class="st9" d="M912.2,580.7c0,0,15.2-1.6,20.4-8.7"/>
			<path class="st9" d="M905.7,595.3c0,0-6.8-10.3-6.5-17.5"/>
		</g>
		<path class="st6" d="M1230.5,627.2c0,0-16.1-16.7-18.5-56.5c-2.4-39.8,3.9-39.4,4-57.1c0.2-17.7-4.3-24.5-4.3-24.5
			s23.3,12.4,25.6,51.1c2.3,38.7-0.7,86.3-0.7,86.3L1230.5,627.2z"/>
		<g>
			<path class="st7" d="M1240.1,625.9c0,0,43.6-33.6,49.2-69c5.6-35.4,8.7-57.3,8.7-57.3s-34,16.9-45.1,36.6
				c-10.5,18.5-19.3,37.4-18.6,75.8l0.7,14.7C1234.8,626.7,1238.7,626.3,1240.1,625.9z"/>
			<path class="st9" d="M1289.8,513.9c0,0-45.3,67.1-48.8,93.5"/>
			<line class="st9" x1="1284.7" y1="544.6" x2="1263.5" y2="557.1"/>
			<line class="st9" x1="1272.5" y1="541.1" x2="1274.2" y2="522.7"/>
		</g>
		<linearGradient id="SVGID_2_" gradientUnits="userSpaceOnUse" x1="1234.4949" y1="624.8951" x2="1256.9998" y2="520.0867">
			<stop  offset="1.685657e-05" style="stop-color:#B3E1C2"/>
			<stop  offset="0.9989" style="stop-color:#66C485"/>
		</linearGradient>
		<path class="st10" d="M1232.3,627c0,0-10.4-39.3,3-60.3s21.5-66,21.5-66s7.6,38.5,1.7,76.5c-2.8,18.6-9.2,33.4-19.8,49.1
			L1232.3,627z"/>
		<g>
			<path class="st11" d="M893.8,625.1c0,0-31.7-41.4-40.3-110.8"/>
			<path class="st11" d="M875,534.6c0,0-9.9,19-8.6,33.6"/>
			<path class="st11" d="M854.3,575.5c0,0,6.9,9.1,19,13.8"/>
			<path class="st11" d="M847.4,536.7c0,0,4.7,9.1,13.4,15.1"/>
		</g>
	</g>
	<g id="Haus" class="st2">
		<g id="Ebene_10">
			<linearGradient id="SVGID_3_" gradientUnits="userSpaceOnUse" x1="678.1955" y1="297.0233" x2="854.7913" y2="297.0233">
				<stop  offset="1.685657e-05" style="stop-color:#4DBA71"/>
				<stop  offset="0.9989" style="stop-color:#007D29"/>
			</linearGradient>
			<polygon class="st12" points="838.5,327.5 678.2,327.5 726.8,266.6 854.8,266.6 854.8,314.1 838.7,314.1 			"/>
			<polygon class="st7" points="687,327.5 837.6,327.1 837.6,421.7 686.6,421.7 			"/>
			<rect x="700.4" y="347.8" class="st15" width="123.5" height="73.9"/>
			<g>
				
					<rect x="761.1" y="292.4" transform="matrix(-1.836970e-16 1 -1 -1.836970e-16 1116.2983 -407.9384)" class="st16" width="2.1" height="123.5"/>
				
					<rect x="761.1" y="285" transform="matrix(-1.836970e-16 1 -1 -1.836970e-16 1108.9089 -415.3279)" class="st16" width="2.1" height="123.5"/>
				
					<rect x="761.1" y="299.8" transform="matrix(-1.836970e-16 1 -1 -1.836970e-16 1123.6879 -400.549)" class="st16" width="2.1" height="123.5"/>
				
					<rect x="761.1" y="307.2" transform="matrix(-1.836970e-16 1 -1 -1.836970e-16 1131.0773 -393.1595)" class="st16" width="2.1" height="123.5"/>
				
					<rect x="761.1" y="314.6" transform="matrix(-1.836970e-16 1 -1 -1.836970e-16 1138.4667 -385.7701)" class="st16" width="2.1" height="123.5"/>
				
					<rect x="761.1" y="322" transform="matrix(-1.836970e-16 1 -1 -1.836970e-16 1145.8562 -378.3807)" class="st16" width="2.1" height="123.5"/>
				
					<rect x="761.1" y="329.4" transform="matrix(-1.836970e-16 1 -1 -1.836970e-16 1153.2456 -370.9912)" class="st16" width="2.1" height="123.5"/>
				
					<rect x="761.1" y="336.8" transform="matrix(-1.836970e-16 1 -1 -1.836970e-16 1160.635 -363.6018)" class="st16" width="2.1" height="123.5"/>
				
					<rect x="761.1" y="344.2" transform="matrix(-1.836970e-16 1 -1 -1.836970e-16 1168.0244 -356.2123)" class="st16" width="2.1" height="123.5"/>
				
					<rect x="761.1" y="351.5" transform="matrix(-1.836970e-16 1 -1 -1.836970e-16 1175.4139 -348.8229)" class="st16" width="2.1" height="123.5"/>
				
					<rect x="761.1" y="358.9" transform="matrix(-1.836970e-16 1 -1 -1.836970e-16 1182.8033 -341.4335)" class="st16" width="2.1" height="123.5"/>
			</g>
		</g>
		<g id="Dach">
			<linearGradient id="SVGID_4_" gradientUnits="userSpaceOnUse" x1="827.0399" y1="301.9261" x2="1185.9556" y2="301.9261">
				<stop  offset="1.685657e-05" style="stop-color:#4DBA71"/>
				<stop  offset="0.9989" style="stop-color:#007D29"/>
			</linearGradient>
			<polygon class="st13" points="1186,320.4 1156.4,283.5 854.5,283.5 827,320.4 			"/>
			<linearGradient id="SVGID_5_" gradientUnits="userSpaceOnUse" x1="837.8679" y1="195.0508" x2="1174.6152" y2="195.0508">
				<stop  offset="1.685657e-05" style="stop-color:#4DBA71"/>
				<stop  offset="0.9989" style="stop-color:#007D29"/>
			</linearGradient>
			<polygon class="st14" points="1174.6,221.4 1146.9,168.7 863.6,168.7 837.9,221.4 			"/>
		</g>
		<g id="Ebene_6">
			<rect x="837.4" y="320.4" class="st22" width="336.9" height="101.3"/>
			<rect x="1008" y="335.2" class="st7" width="39.1" height="86.6"/>
			<g>
				<rect x="864.4" y="335.2" class="st23" width="39.1" height="51.7"/>
				<rect x="882.3" y="335.2" class="st24" width="2.1" height="51.7"/>
				
					<rect x="882.9" y="341.5" transform="matrix(-1.836970e-16 1 -1 -1.836970e-16 1244.9635 -522.8802)" class="st24" width="2.1" height="39.1"/>
			</g>
			<g>
				<rect x="939.3" y="335.2" class="st23" width="39.1" height="51.7"/>
				<rect x="957.3" y="335.2" class="st24" width="2.1" height="51.7"/>
				
					<rect x="957.8" y="341.5" transform="matrix(-1.836970e-16 1 -1 -1.836970e-16 1319.9135 -597.8303)" class="st24" width="2.1" height="39.1"/>
			</g>
			<g>
				<rect x="1077.2" y="335.2" class="st23" width="67.6" height="51.7"/>
				<rect x="1109.9" y="335.2" class="st24" width="2.1" height="51.7"/>
				
					<rect x="1109.9" y="327.3" transform="matrix(-1.836970e-16 1 -1 -1.836970e-16 1471.9801 -749.8969)" class="st24" width="2.1" height="67.6"/>
			</g>
			<rect x="1040.8" y="376.4" class="st16" width="2.1" height="9.5"/>
			<polyline class="st22" points="854.5,283.5 854.5,221.7 917.9,156.5 964.6,204.5 948.2,221.2 948.2,283.6 854.5,283.5 			"/>
			<g>
				<rect x="898.3" y="226.4" class="st23" width="39.1" height="51.7"/>
				<rect x="916.3" y="226.4" class="st24" width="2.1" height="51.7"/>
				
					<rect x="916.8" y="232.8" transform="matrix(-1.836970e-16 1 -1 -1.836970e-16 1170.1654 -665.5428)" class="st24" width="2.1" height="39.1"/>
			</g>
			<rect x="1027.6" y="221.4" class="st22" width="128.8" height="62"/>
			<g>
				<rect x="1063.1" y="226.4" class="st23" width="67.6" height="51.7"/>
				<rect x="1095.9" y="226.4" class="st24" width="2.1" height="51.7"/>
				
					<rect x="1095.9" y="218.5" transform="matrix(-1.836970e-16 1 -1 -1.836970e-16 1349.2261 -844.6035)" class="st24" width="2.1" height="67.6"/>
			</g>
			<rect x="1104" y="152.4" class="st15" width="18.1" height="16.3"/>
		</g>
		<g id="Holzstreben" class="st0">
			<rect x="865" y="353" class="st5" width="5" height="91"/>
			<rect x="789" y="353" class="st5" width="5" height="91"/>
			<rect x="1103" y="353" class="st5" width="5" height="91"/>
			<rect x="938" y="353" class="st5" width="5" height="91"/>
			<rect x="990" y="353" class="st5" width="5" height="91"/>
			
				<rect x="863.5" y="369.5" transform="matrix(-1.836970e-16 1 -1 -1.836970e-16 1312.5 -419.5)" class="st5" width="5" height="154"/>
			
				<rect x="1046.5" y="387.5" transform="matrix(-1.836970e-16 1 -1 -1.836970e-16 1495.5 -602.5)" class="st5" width="5" height="118"/>
		</g>
		<polyline class="st26" points="1038.2,283.5 1038,221.2 994.2,174.2 948.2,221.2 948.2,283.5 		"/>
		<g>
			<rect x="973.9" y="226.4" class="st23" width="39.1" height="51.7"/>
			<rect x="991.8" y="226.4" class="st24" width="2.1" height="51.7"/>
			
				<rect x="992.4" y="232.8" transform="matrix(-1.836970e-16 1 -1 -1.836970e-16 1245.7308 -741.1083)" class="st24" width="2.1" height="39.1"/>
		</g>
		<linearGradient id="SVGID_6_" gradientUnits="userSpaceOnUse" x1="941.6713" y1="196.7126" x2="996.2894" y2="196.7126">
			<stop  offset="1.685657e-05" style="stop-color:#4DBA71"/>
			<stop  offset="0.9989" style="stop-color:#007D29"/>
		</linearGradient>
		<polygon class="st17" points="945,224.7 996.3,172 993.1,168.7 941.7,221.3 		"/>
		<linearGradient id="SVGID_7_" gradientUnits="userSpaceOnUse" x1="989.9223" y1="196.6569" x2="1044.4071" y2="196.6569">
			<stop  offset="1.110766e-03" style="stop-color:#007D29"/>
			<stop  offset="1" style="stop-color:#4DBA71"/>
		</linearGradient>
		<polygon class="st18" points="1041.1,224.6 989.9,172 993.1,168.7 1044.4,221.2 		"/>
		<linearGradient id="SVGID_8_" gradientUnits="userSpaceOnUse" x1="848.1498" y1="187.2963" x2="921.0746" y2="187.2963">
			<stop  offset="1.685657e-05" style="stop-color:#B3E1C2"/>
			<stop  offset="0.9989" style="stop-color:#4DBA71"/>
		</linearGradient>
		<polygon class="st19" points="851.7,224.6 921.1,153.3 917.9,150 848.1,220.8 		"/>
		<linearGradient id="SVGID_9_" gradientUnits="userSpaceOnUse" x1="914.7076" y1="175.6044" x2="964.6553" y2="175.6044">
			<stop  offset="1.110743e-03" style="stop-color:#4DBA71"/>
			<stop  offset="1" style="stop-color:#B3E1C2"/>
		</linearGradient>
		<polygon class="st20" points="961.3,201.2 914.7,153.3 917.9,150 964.7,197.8 		"/>
		<g id="Runde_Fenster">
			<circle class="st23" cx="993.6" cy="200.1" r="6.3"/>
			<circle class="st23" cx="917.8" cy="186.3" r="6.3"/>
		</g>
	</g>
	<g id="Mann" class="st2">
		<g id="Ebene_21">
			<path class="st22" d="M980.1,490.9c0,0-1,15.9-1.6,24.3c-0.5,8.4,14.6,104.6,14.6,104.6l5.1,0.3l1.5-101.4l7.6,39.6
				c0,0,1.2,44.5,5.2,60.6l5.1,0.3c0,0,2.7-56.9,2.1-63.3c-0.6-6.4,0.8-59.2-2.9-64.7C1013.1,485.7,980.1,490.9,980.1,490.9
				L980.1,490.9"/>
		</g>
		<g id="Ebene_22">
			<path class="st26" d="M1012.7,619l-0.7,9.5l13.2,0.9c0,0,5.2-1.7-3.8-4.5l-3.7-5.6L1012.7,619z"/>
			<path class="st26" d="M998.2,620.1l0.6,7.8c0,0-9.6,3.6-11.5,3c-5-1.4,3.5-6.1,3.5-6.1l2.4-5.1L998.2,620.1z"/>
		</g>
		<g id="Ebene_19">
			<path class="st35" d="M991.4,437.7c0,0,3.8-11.2,3-14.5c-0.8-3.3,9,2.7,9,2.7s-0.6,8.4,1.3,10.7c1.9,2.3-1.9,12.6-5.8,10.2
				S991.4,437.7,991.4,437.7z"/>
			<path class="st35" d="M990.7,418.6c0,0,7.4,11.1,13.6,9.4c6.3-1.7,5.3-24.4,5.3-24.4l-12.3-5.7l-6.5,4.8l-4.6,7.1L990.7,418.6z"
				/>
			<path class="st35" d="M971.2,463.8l-2.1,14.7c0,0-0.3,4.2,1.6,6.5c1.9,2.3,10.9,18.8,10.9,18.8s-1.2,3.1-0.4,5.3
				c0.9,2.2,5.6-7,5.6-7s-0.9-1.1-2-1.2l-8.2-21.2l4.1-14.5L971.2,463.8z"/>
			<path class="st35" d="M1016.1,464.8l2.5,8.6l-5.9,25c0,0-1-0.1-2.1,0.9c-1.1,1,5.8,4.6,5.8,4.6l0.2-3.2l6.4-18.6
				c0,0,2.6-8.3,2.8-10.4c0.1-2.1-2.2-12.9-2.2-12.9L1016.1,464.8z"/>
		</g>
		<g id="Ebene_20">
			<linearGradient id="SVGID_10_" gradientUnits="userSpaceOnUse" x1="998.1863" y1="497.5977" x2="998.1863" y2="439.0555">
				<stop  offset="1.685657e-05" style="stop-color:#B3E1C2"/>
				<stop  offset="0.9989" style="stop-color:#4DBA71"/>
			</linearGradient>
			<path class="st21" d="M992.1,435.6c0,0-9.9,2.9-13.1,4.8c-3.2,1.9-10,25.4-10,25.4l13.1,3l2.7-9.3l-4,29.8
				c-0.2,1.5,0.7,2.9,2.1,3.2c2.6,0.7,6.6,1.9,8.5,3.4c2.9,2.3,3.6,6.6,9.8,6s9.7-6.7,11.7-6.6c0.8,0.1,2-6.1,2.6-7.2
				c1.1-2.2-3.9-32-3.9-32l4.3,11.9l11.6-4.5c0,0-5.8-19.5-8.7-21.8s-13.9-5.2-13.9-5.2s0.5,2.5-0.3,4.2c-0.4,0.8-2.1,2.3-4.3,2.9
				C994.3,445.1,992.1,435.6,992.1,435.6z"/>
		</g>
		<path class="st26" d="M1011.6,397.8c-1.8-3.3-6-2.5-6-2.5s-2.8-3.4-4.9-2.5c-2.1,0.9-0.1,1.1-2.1,0.9c-2-0.1-6-1.5-7.3,1.6
			c-1.2,3.1-0.1,2.1-0.1,2.1s0.1-1.1-3.1-0.2c-3.1,0.8-3.6,7.2-2.6,8.3s-2.1,0.9-3.4,4c-1.2,3.1,4.7,5.6,4.7,5.6s0.7,4.3,2.8,4.4
			c2,0.1,2.6-0.3,2.6-0.3s-2.1-1.6-2.8-3.4s-1.1-5.9,2-6c2.3-0.1,2.4,2.1,2.4,2.1c0.4,0.6,2.2-1.8,1.3-4.1c-0.4-1-1.3-3.8,0.4-5.3
			c0.8-0.7,2.1-0.9,4.1,0.3s0.9,2.2,4.9,2.5C1008.5,405.6,1013.4,401.1,1011.6,397.8z"/>
	</g>
	<g id="Frau" class="st2">
		<g id="Ebene_31">
			<path class="st26" d="M1051.2,616.9c0,0-2.5,11.9,2.6,13.4s2.5-13.2,2.5-13.2L1051.2,616.9"/>
			<path class="st26" d="M1066.5,616.8c0,0-0.4,11.5,4.6,12.9c5,1.5,2.3-7.6,2.3-7.6l-1.8-5.2L1066.5,616.8"/>
		</g>
		<g id="Ebene_30">
			<path class="st35" d="M1052.3,615.7c0,0-0.6,10.2,1.5,10.7c3.2,0.8,1.9-12,1.9-12L1052.3,615.7z"/>
			<path class="st35" d="M1067.6,616.8c0,0,0.7,7.7,3.7,9.1s-0.6-10.2-0.6-10.2L1067.6,616.8z"/>
		</g>
		<g id="Ebene_27">
			<polyline class="st22" points="1036.6,512.5 1051.2,617.1 1056.3,617.3 1056,518 1066.5,617.7 1071.6,617.9 1072.6,511.6 
				1070,499 1043.9,500.3 1036.6,512.5 			"/>
		</g>
		<g id="Ebene_25">
			<path class="st6" d="M1047.9,448.1l4.5,2.1c1.3,0.7,5.1,0.2,7.2-0.8l3.2-4.2c1.2-1.4,0,2.1,1.4,3.4l1,0.9l2.4,52.4
				c0.1,1.9-1.3,3.5-3.1,3.6c-5,0.3-14.6,0.6-18.2-1.1c-4.7-2.2,0.5-50.5,1.1-56.1C1047.4,448.2,1047.7,448,1047.9,448.1z"/>
			<path class="st35" d="M1047.4,447.9l-1.3-19.3l5.8-18l6.1,0.2l4.7,10.9l-0.6,17.1l-0.3,7.5c0,0-2.3,6.3-5.3,6.2
				S1047.4,447.9,1047.4,447.9z"/>
		</g>
		<g id="Ebene_26">
			<linearGradient id="SVGID_11_" gradientUnits="userSpaceOnUse" x1="1027.8342" y1="484.2058" x2="1052.6483" y2="484.2058">
				<stop  offset="1.685657e-05" style="stop-color:#B3E1C2"/>
				<stop  offset="0.9989" style="stop-color:#4DBA71"/>
			</linearGradient>
			<path class="st27" d="M1047.4,447.9c0,0,5.6,13.1,5.2,24.8c-0.4,11.8-4.2,35.1-11.9,43.4c-8.5,9.3-10.4,6-10.4,6
				s11.5-33.8,10.7-39.2c-0.8-5.4-2.5-15.1-2.5-15.1l-3.7,18l7.3,23.8l-2.2,3.1c0,0-9.5-18.6-10.4-21.8c-0.9-3.2-1.8-7.6-1.6-10.8
				c0.1-2.4,3.7-18.5,5.4-25.9c0.5-2.4,2.2-4.3,4.3-5.2l8.4-3.5L1047.4,447.9z"/>
			<linearGradient id="SVGID_12_" gradientUnits="userSpaceOnUse" x1="1062.587" y1="482.3255" x2="1103.3672" y2="482.3255">
				<stop  offset="1.110743e-03" style="stop-color:#4DBA71"/>
				<stop  offset="1" style="stop-color:#B3E1C2"/>
			</linearGradient>
			<path class="st28" d="M1065.9,446.5c0,0-3.6,0.4-3.2,20.2c0.1,6.4,1.9,41.8,6.9,45.2s13.9,9.1,13.1,4.8
				c-0.9-4.3-11.2-32.5-11.2-32.5l1.7-14.9l3.4,13.3c0.1,1.2,4.2,7.8,5,8.7l17.7,18.6l4.2-3.1c0,0-19.5-23.3-19.4-25.4
				c0.1-2.1-4.1-25.9-5.1-28c-0.6-1.3-2.1-2.7-2.9-3.3C1073,447.7,1065.9,446.5,1065.9,446.5z"/>
		</g>
		<g id="Ebene_29">
			<path class="st23" d="M1039,509.3l1.1,2.5c0,0,0.5,3,1,3.8c0.6,0.8,5-6.1,5-6.1s0-1.2-2.3-1.3l-2.2-3.8"/>
			<path class="st35" d="M1106.3,509c0,0-2.3,6.3-4.2,4.1c-2-2.2-1.6-4.3-1.6-4.3l2.3-1.7C1102.8,507.2,1106.4,507.9,1106.3,509z"/>
		</g>
		<g id="Ebene_28">
		</g>
		<g id="Ebene_24">
			<path class="st26" d="M1042.5,453.7c0,0,10.8-2.1,7.5-19.6l-1.9-3.3c0,0,7.4-7.2,5.8-18c0,0,8.2,0.3,7.8,9.9s-3.5,12.7-4.6,13.7
				s4.7,9.8,4.7,9.8s0.9,2.2,6,4.5c0,0-1.6-12.9-1.4-16.1c0.1-3.2,1.1-27.8-11.3-26.1c0,0-2.9-3.3-8.2-0.3c-5.2,3-8.8,15.7-5.9,22.2
				C1043.8,437.1,1043.6,449.5,1042.5,453.7z"/>
		</g>
	</g>
	<g id="Ballon" class="st2">
		<line class="st43" x1="1147.3" y1="489.8" x2="1149.3" y2="555.3"/>
		<g>
			<ellipse class="st22" cx="1146.9" cy="468.2" rx="15.8" ry="18.8"/>
			<polygon class="st22" points="1145.2,485.5 1143.9,490.9 1150.6,490.7 1148.4,484.6 			"/>
		</g>
	</g>
	<g id="Mädchen" class="st2">
		<g id="Ebene_33">
			<path class="st35" d="M1106.3,536.3c0,0,3.5-1.8,3.5-2l0.7-7.5c0-0.1-0.4-0.2-0.5-0.2l-6.9-7.9c-0.1-0.1-0.1-0.3,0-0.4l7.9-12.9
				c0.1-0.1,0.2-0.2,0.3-0.2h6.8c0.1,0,0.2,0.1,0.3,0.2l4.9,7.9c0,0.1,0.1,0.2,0,0.2l-2,11.9c0,0.1-0.1,0.2-0.2,0.3l-2.1,1
				c-0.1,0.1-1-0.7-1.1,0.2l1.5,6c0,0.2,0.9,0.3,1.1,0.3l2.1-0.3c0.2,0,0.3,0.3,0.2,0.6c-0.3,1.6-2.3,6.4-6.6,6.4
				c-4.2,0-7.7-2.3-8.8-3.3C1107.2,536.5,1106.1,536.4,1106.3,536.3z"/>
			<path class="st35" d="M1126.3,533.6c4.4,4.1,17.4,15.8,20.4,18.5c0.4,0.3,0.9,0.4,1.4,0.2c1-0.5,2.6-0.3,3.4,0.4
				c0.4,0.4,0.9,0.7,1,1c0.2,0.4,0.3,0.7,0,1h-1c0,0,1,1,0,2c-1.4,1.4-5.1,0-6.1-2c-0.9-1.8-16.1-10.4-19.7-11.9
				c-0.4-0.2-0.7-3.7-0.7-4.2v-4.5C1125,533.5,1125.8,533.1,1126.3,533.6z"/>
			<path class="st35" d="M1105.1,566.5l-1-11.2c0,0,3.1-11.2,2-14.3c-1-3.1-2-4.1-3.1-3.1c-1,1-3.1,16.3-3.1,17.3s3.1,18.4,3.1,18.4
				L1105.1,566.5z"/>
			<polygon class="st35" points="1112.4,588.2 1118.2,623.8 1120.9,622.8 1120.2,585 			"/>
			<polygon class="st35" points="1122.7,586.6 1126.3,622.6 1128.9,622 1129.9,584.4 			"/>
			<path class="st26" d="M1117.4,619c0,0,0.8,2.8,1.8,3.3c1.7,0.8,1.4-3.7,1.7-3.4c0.3,0.3,1.8,10.7-0.9,10.7
				C1117.2,629.5,1115.7,627,1117.4,619z"/>
			<path class="st26" d="M1125.6,619.5c0,0-1.2,7.9,2.6,9.8c3.8,2,1.8-6.6,1.8-6.6s-0.7-4.1-1.2-3.7c-0.5,0.4,0.4,3.3-1.5,3.1
				C1126.5,622,1126.6,619,1125.6,619.5z"/>
		</g>
		<g id="Ebene_34">
			<linearGradient id="SVGID_13_" gradientUnits="userSpaceOnUse" x1="1120.9535" y1="588.6874" x2="1113.8387" y2="539.5316">
				<stop  offset="1.685657e-05" style="stop-color:#B3E1C2"/>
				<stop  offset="0.9989" style="stop-color:#4DBA71"/>
			</linearGradient>
			<path class="st29" d="M1103.9,538.9c0.4,3.1,2,7.4,2,7.4l1.3,7.2l-6.7,35.8l41-0.4l-13.1-36.7c0,0-1.1-2-0.5-9
				c0.2-2.3-1.8-10.1-1.8-10.1l-3.8-0.2l-2.8,3.2c-2,2.3-5.2,3.1-8,1.8l-4.5-2l-1.8,0.8C1103,537.6,1103.8,538,1103.9,538.9z"/>
		</g>
		<path class="st26" d="M1114.3,510.2l-6.3,10.4l1.6,3.1c1,2,1.5,4.1,1.5,6.3l0,1.1c0,0-11.2,1-11.2,0.6c0-1.4-3.1-27.9,12.5-27.9
			c0,0,4-0.4,7,1.7c3.1,2,9,11.9,6,25.2l-6.5,0.4l-1.5-5.3c0,0,1-1.4,2-3.2C1120.8,519.7,1121.9,512.2,1114.3,510.2z"/>
	</g>
	<g id="Ebene_37" class="st2">
	</g>
	<g id="Wolken" class="st2">
		<path class="st35" d="M674.8,219.6c0,0,1.6-9.7,18.9-9.7c0,0-1.6-16.4,23-16.4c0,0,2.5-12.6,18-12.6c13.1,0,15.6,10.6,15.6,10.6
			s12.3-4.8,22.2,0s9,15.5,9,15.5s18.9-1.9,18.9,12.6H674.8z"/>
		<path class="st35" d="M1211,190.4c0,0,1.6-7.9,18.2-7.9c0,0-1.6-13.4,22.1-13.4c0,0,2.4-10.3,17.4-10.3c12.6,0,15,8.7,15,8.7
			s11.9-4,21.3,0s8.7,12.6,8.7,12.6s18.2-1.6,18.2,10.3H1211z"/>
		<path class="st35" d="M790.4,140.3c0,0-2.9-14.6,12.6-19.4s17.5,3.9,17.5,3.9s-1.8-14.9,12.6-17.5c13.4-2.5,15.6,6.8,15.6,6.8
			s3.9-26.5,36-26.5s37.9,26.5,37.9,26.5s14.6-7.8,25.3-1.9c10.7,5.8,8.8,13.6,8.8,13.6s21.4-4.9,31.1,4.9c8.4,8.4,6.8,9.7,6.8,9.7
			H790.4z"/>
	</g>
	<g>
		<path class="st46" d="M746.8,174.9c-10.8,0-19.6,8.8-19.6,19.6c0,16.4,19.6,45.5,19.6,45.5c0.1,0,19.6-29.4,19.6-45.5
			C766.5,183.7,757.7,174.9,746.8,174.9z M746.9,210.1c-8.6,0-15.6-7-15.6-15.6s7-15.6,15.6-15.6c8.6,0,15.6,7,15.6,15.6
			S755.6,210.1,746.9,210.1z"/>
		<path class="st47" d="M757,187.3c-1-1-2.4-1.8-4.6-1.8c-3.6,0.3-4.8,2.5-5.7,4.4c-0.9-1.9-2.3-4.5-6.1-4.4c-3.1,0.2-5,2.1-5.6,4.5
			c-0.8,2.9,0.2,6.1,1.5,7.9c1.3,1.9,3.3,3.4,5,4.9c1.8,1.6,3,2.2,5.3,4.1c2.3-2.1,5.9-4.4,8.9-7.5c1.4-1.5,2.5-3,2.9-5.5
			C759,191.1,758.6,188.8,757,187.3z"/>
	</g>
	<g id="Wasserhahn_1_" class="st2">
		<path class="st48" d="M1135.7,138.1c0,0-32.9,9.2-19.4,21.4S1135.7,138.1,1135.7,138.1z"/>
		<g id="Wasserhahn">
			<path class="st49" d="M1197,400.5V208c0,0,1-62-57-62s-56.5,38.5-56.5,38.5"/>
			<path class="st50" d="M1218.4,421.7v-23c0,0,1.7-18.9-15.5-18.9s-12.4,0-12.4,0"/>
			<path class="st50" d="M1251.1,371.5V175.3c0,0,1-63.2-58.1-63.2c-22.2,0-35.8,5.5-44.2,12.4"/>
			<linearGradient id="SVGID_14_" gradientUnits="userSpaceOnUse" x1="1251.573" y1="433.8893" x2="1251.573" y2="391.1964">
				<stop  offset="1.685657e-05" style="stop-color:#4DBA71"/>
				<stop  offset="0.9989" style="stop-color:#007D29"/>
			</linearGradient>
			<path class="st30" d="M1268.6,433.2h-34.1c-6.6,0-12-5.4-12-12v-17.8c0-6.6,5.4-12,12-12h34.1c6.6,0,12,5.4,12,12v17.8
				C1280.6,427.8,1275.2,433.2,1268.6,433.2z"/>
			<path class="st26" d="M1258.4,406h-13.7c-6.6,0-12-5.4-12-12v-47.6c0-6.6,5.4-12,12-12h13.7c6.6,0,12,5.4,12,12V394
				C1270.4,400.6,1265,406,1258.4,406z"/>
			<path class="st50" d="M1278.7,421.4l12.6-19c0,0,8.9-16.6,23.2-6.6c14.3,10,10.3,7.2,10.3,7.2"/>
			<path class="st26" d="M1144.5,140.8l-13.3-12.7c-2.4-2.3-2.5-6.3-0.1-8.8l0.5-0.5c2.4-2.5,6.3-2.6,8.8-0.3l13.3,12.7
				c2.4,2.3,2.5,6.3,0.1,8.8l-0.5,0.5C1150.9,143,1147,143.1,1144.5,140.8z"/>
			<circle class="st22" cx="1251.2" cy="260.9" r="16.8"/>
		</g>
	</g>
</g>
<g id="Haus_Feuer" class="st0">
	<g id="Ebene_49">
		
			<image style="display:inline;overflow:visible;opacity:0.56;" width="282" height="257" xlink:href="1766114A41FCFA62.png"  transform="matrix(1 0 0 1 514.4669 1041.0192)">
		</image>
	</g>
	<g>
		<path class="st46" d="M380.4,1010.4c-9.5,0-17.2,7.7-17.2,17.2c0,14.4,17.2,40,17.2,40c0.1,0,17.2-25.8,17.2-40
			C397.6,1018.1,389.9,1010.4,380.4,1010.4z M380.5,1041.2c-7.6,0-13.7-6.1-13.7-13.7s6.1-13.7,13.7-13.7c7.6,0,13.7,6.1,13.7,13.7
			S388,1041.2,380.5,1041.2z"/>
		<path class="st47" d="M389.4,1021.2c-0.8-0.9-2.1-1.6-4-1.6c-3.2,0.2-4.2,2.2-5,3.9c-0.8-1.7-2.1-3.9-5.4-3.9
			c-2.7,0.2-4.4,1.8-4.9,3.9c-0.7,2.5,0.2,5.3,1.3,6.9c1.2,1.6,2.9,3,4.4,4.3c1.6,1.4,2.6,1.9,4.6,3.6c2-1.8,5.2-3.8,7.8-6.6
			c1.2-1.3,2.2-2.6,2.6-4.9C391.1,1024.6,390.7,1022.6,389.4,1021.2z"/>
	</g>
	<g id="Wolken_1_" class="st2">
		<path class="st35" d="M22.6,1212.9c0,0,1.6-9.5,18.5-9.5c0,0-1.6-16.1,22.5-16.1c0,0,2.4-12.3,17.7-12.3
			c12.9,0,15.3,10.4,15.3,10.4s12.1-4.7,21.7,0s8.9,15.2,8.9,15.2s18.5-1.9,18.5,12.3H22.6z"/>
		<path class="st35" d="M452,1130.3c0,0,1.5-7.8,17.8-7.8c0,0-1.6-13.2,21.7-13.2c0,0,2.3-10.1,17.1-10.1c12.4,0,14.7,8.5,14.7,8.5
			s11.6-3.9,20.9,0s8.5,12.4,8.5,12.4s17.8-1.6,17.8,10.1H452z"/>
		<path class="st35" d="M93.8,1142.5c0,0-2.9-14.3,12.4-19.1s17.2,3.8,17.2,3.8s-1.6-15.6,12.4-17.2c13.3-1.5,15.3,6.7,15.3,6.7
			s3.8-26,35.3-26s37.2,26,37.2,26s14.3-7.6,24.8-1.9s8.6,13.4,8.6,13.4s21-4.8,30.5,4.8c8.2,8.2,6.7,9.5,6.7,9.5H93.8z"/>
	</g>
	<g id="Windmühle" class="st2">
		<g>
			<polygon class="st7" points="428.1,1142.5 425.5,1247.4 435.7,1247.4 432.7,1142.5 			"/>
			<path class="st7" d="M429.7,1132.3c0,0,0.7-24.8,13.1-38.5c0.3-0.3,0.8-0.1,0.8,0.3c0.1,4.7-0.3,23.7-9.3,38.7
				c-0.1,0.2-0.4,0.3-0.6,0.2L429.7,1132.3"/>
			<line class="st22" x1="432" y1="1132.8" x2="429.7" y2="1132.3"/>
			<path class="st7" d="M435.9,1138.3c0,0,21.3,12.7,27.3,30.2c0.1,0.4-0.3,0.7-0.6,0.5c-4.2-2.2-20.6-11.8-29.3-27
				c-0.1-0.2-0.1-0.4,0.1-0.6L435.9,1138.3"/>
			<path class="st7" d="M425.7,1135.7c0,0-24.8,0.9-38.4,13.3c-0.3,0.3-0.1,0.8,0.3,0.8c4.7,0,23.7-0.5,38.7-9.6
				c0.2-0.1,0.3-0.4,0.2-0.6L425.7,1135.7"/>
			<circle class="st6" cx="430.6" cy="1137.3" r="6"/>
			<circle class="st15" cx="430.6" cy="1137.3" r="3.2"/>
		</g>
		<polygon class="st7" points="519.2,1164.4 516.7,1269.3 526.9,1269.3 523.9,1164.4 		"/>
		<path class="st7" d="M518.6,1155.3c0,0-8.1-23.5-1.3-40.6c0.1-0.4,0.7-0.4,0.8,0c1.7,4.4,8.1,22.3,5,39.5c0,0.2-0.2,0.4-0.5,0.4
			L518.6,1155.3"/>
		<line class="st22" x1="523.2" y1="1154.7" x2="520.9" y2="1154.3"/>
		<path class="st7" d="M526.5,1158.7c0,0,24.4,4.3,36.2,18.6c0.3,0.3,0,0.8-0.4,0.7c-4.7-0.6-23.4-3.8-36.9-14.9
			c-0.2-0.1-0.2-0.4-0.1-0.6L526.5,1158.7"/>
		<path class="st7" d="M516,1159.9c0,0-22.9,9.6-31.2,26c-0.2,0.4,0.2,0.8,0.6,0.6c4.4-1.6,22-8.8,32.8-22.6c0.1-0.2,0.1-0.4,0-0.6
			L516,1159.9"/>
		<circle class="st6" cx="521.8" cy="1159.2" r="6"/>
		<circle class="st15" cx="521.8" cy="1159.2" r="3.2"/>
	</g>
	<g id="Ebene_48" class="st2">
		<linearGradient id="SVGID_15_" gradientUnits="userSpaceOnUse" x1="147.3482" y1="1285.2634" x2="401.4809" y2="1285.2634">
			<stop  offset="1.685657e-05" style="stop-color:#4DBA71"/>
			<stop  offset="0.9989" style="stop-color:#007D29"/>
		</linearGradient>
		<path class="st31" d="M147.3,1348.1v-125.7h254.1v34.9l-25.5,0v85.2H194.1c0,0-9.9,0-23.5,1.2
			C158.6,1344.7,147.3,1348.1,147.3,1348.1z"/>
	</g>
	<g id="Ebene_52" class="st2">
		<polyline class="st15" points="376,1342.5 376,1257.3 203.3,1257.3 203.3,1342.5 376,1342.5 		"/>
	</g>
	<g id="Ebene_41" class="st2">
		<rect x="177" y="1205" class="st15" width="195.1" height="17.4"/>
		<polygon class="st15" points="177,1176 372,1176 372,1113.8 177,1169.1 		"/>
		<rect x="299.1" y="1222.4" class="st16" width="13.5" height="120.1"/>
		<linearGradient id="SVGID_16_" gradientUnits="userSpaceOnUse" x1="375.9854" y1="1291.6396" x2="543.7624" y2="1291.6396">
			<stop  offset="1.685657e-05" style="stop-color:#4DBA71"/>
			<stop  offset="0.9989" style="stop-color:#007D29"/>
		</linearGradient>
		<polygon class="st32" points="401.5,1240.8 401.5,1257.3 389.5,1257.3 389.5,1257.3 376,1257.3 376,1342.5 389.5,1342.5 
			389.5,1267.8 530.1,1267.6 530.1,1342.5 543.8,1342.5 543.8,1240.8 		"/>
	</g>
	<g id="Ebene_43" class="st2">
		<polygon class="st58" points="157.2,1176 389.5,1110.2 389.5,1100.7 157.2,1165.5 		"/>
		<line class="st25" x1="478.3" y1="1206.6" x2="372" y2="1176"/>
		<polyline class="st58" points="372,1176 372,1185.2 478.3,1215.1 478.3,1206.6 		"/>
	</g>
	<g id="Ebene_47" class="st2">
		<polygon class="st7" points="456.6,1240.8 456.6,1209 372,1185.2 372,1222.4 401.5,1222.4 401.5,1240.8 		"/>
		<rect x="389.5" y="1267.8" class="st22" width="140.6" height="74.7"/>
	</g>
	<g id="Fenster" class="st2">
		<rect x="180.2" y="1176" class="st23" width="191.8" height="28.9"/>
		<rect x="212.1" y="1264.9" class="st23" width="77.6" height="63.5"/>
		<rect x="320.1" y="1267.1" class="st23" width="48" height="61.8"/>
		<polygon class="st23" points="437.8,1240.8 437.8,1213.7 384.5,1213.7 384.5,1222.4 401.5,1222.4 401.5,1240.8 		"/>
	</g>
	<g id="Ebene_45" class="st2">
		<g>
			<rect x="217.6" y="1176" class="st24" width="3" height="28.9"/>
			<rect x="256.6" y="1176" class="st24" width="3" height="28.9"/>
			<rect x="294.8" y="1176" class="st24" width="3" height="28.9"/>
			<rect x="333.6" y="1176" class="st24" width="3" height="28.9"/>
			<rect x="409.7" y="1213.7" class="st24" width="3" height="27.1"/>
		</g>
		
			<rect x="458.3" y="1207.2" transform="matrix(-1.836970e-16 1 -1 -1.836970e-16 1737.2788 817.7015)" class="st24" width="3" height="140.6"/>
		
			<rect x="458.3" y="1217.7" transform="matrix(-1.836970e-16 1 -1 -1.836970e-16 1747.8 828.2227)" class="st24" width="3" height="140.6"/>
		
			<rect x="458.3" y="1228.2" transform="matrix(-1.836970e-16 1 -1 -1.836970e-16 1758.3213 838.7439)" class="st24" width="3" height="140.6"/>
		
			<rect x="458.3" y="1238.7" transform="matrix(-1.836970e-16 1 -1 -1.836970e-16 1768.8424 849.2651)" class="st24" width="3" height="140.6"/>
		
			<rect x="458.3" y="1249.3" transform="matrix(-1.836970e-16 1 -1 -1.836970e-16 1779.3636 859.7863)" class="st24" width="3" height="140.6"/>
		
			<rect x="458.3" y="1259.8" transform="matrix(-1.836970e-16 1 -1 -1.836970e-16 1789.8849 870.3076)" class="st24" width="3" height="140.6"/>
		
			<rect x="458.3" y="1269.4" transform="matrix(-1.836970e-16 1 -1 -1.836970e-16 1799.5208 879.9434)" class="st24" width="3" height="140.6"/>
	</g>
	<g id="Ebene_44" class="st2">
		<g>
			<rect x="236.8" y="1264.2" class="st16" width="3" height="63.5"/>
			<rect x="263.1" y="1264.2" class="st16" width="3" height="63.5"/>
			<rect x="287.8" y="1264.2" class="st16" width="3" height="63.5"/>
			<rect x="211.5" y="1264.2" class="st16" width="3" height="63.5"/>
			
				<rect x="249.7" y="1226" transform="matrix(-1.836970e-16 1 -1 -1.836970e-16 1516.7902 1014.511)" class="st16" width="3" height="79.3"/>
			
				<rect x="248.1" y="1289" transform="matrix(-1.836970e-16 1 -1 -1.836970e-16 1581.8005 1079.5214)" class="st16" width="6" height="83.3"/>
		</g>
		<g>
			<rect x="343" y="1264.2" class="st16" width="3" height="63.5"/>
			
				<rect x="343" y="1241.3" transform="matrix(-1.836970e-16 1 -1 -1.836970e-16 1610.1604 921.1409)" class="st16" width="3" height="48.8"/>
			<rect x="365.9" y="1264.2" class="st16" width="3" height="63.5"/>
			<rect x="320.1" y="1264.2" class="st16" width="3" height="63.5"/>
			
				<rect x="341.3" y="1304.6" transform="matrix(-1.836970e-16 1 -1 -1.836970e-16 1675.0062 986.3157)" class="st16" width="6" height="52.2"/>
		</g>
	</g>
	<g id="Kerze" class="st2">
		<linearGradient id="SVGID_17_" gradientUnits="userSpaceOnUse" x1="596.7705" y1="1322.0427" x2="596.7705" y2="1195.7653">
			<stop  offset="1.685657e-05" style="stop-color:#4DBA71"/>
			<stop  offset="0.9989" style="stop-color:#007D29"/>
		</linearGradient>
		<path class="st33" d="M607.9,1333h-22.2c-5,0-9.1-4.3-9.1-9.6v-131.6c0-5.3,40.4-5.3,40.4,0v131.6
			C617,1328.6,612.9,1333,607.9,1333z"/>
		<path class="st24" d="M590.3,1216.7c-4.2,0.3-5.3,7-7.8,8.3c-2.8,1.5-4.1,0.8-5.9-1.1v-30.3c-0.2-6.8,3.5-11.1,8.3-11.5h23.7
			c1.8,0,6.9,1.2,8.3,8.5c0.4,2.3,0,5.7,0.1,9.7c0,3.9,0,8,0,15.5c0,0-1.9-1.3-4.3,0.8s-1.1,11.8-6.1,12.4
			C600.1,1229.8,598.6,1216,590.3,1216.7z"/>
		<path class="st60" d="M597.8,1125.8c-0.5-0.6-1.5-0.6-2,0c-4,4.7-17.9,22.6-15.5,36.2c2.4,13.4,14.8,13.4,16.5,13.4
			s14.2,0,16.5-13.4C615.7,1148.4,601.8,1130.6,597.8,1125.8z"/>
		<path class="st61" d="M597.3,1145.3c-0.2-0.3-0.7-0.3-0.9,0c-1.8,2.2-8.3,10.5-7.2,16.8c1.1,6.2,6.9,6.2,7.7,6.2
			c0.8,0,6.6,0,7.7-6.2C605.6,1155.8,599.1,1147.5,597.3,1145.3z"/>
		<linearGradient id="SVGID_18_" gradientUnits="userSpaceOnUse" x1="553.5483" y1="1324.3091" x2="639.9841" y2="1324.3091">
			<stop  offset="1.685657e-05" style="stop-color:#4DBA71"/>
			<stop  offset="0.9989" style="stop-color:#007D29"/>
		</linearGradient>
		<polygon class="st34" points="553.5,1318.3 640,1318.3 633.9,1330.4 560.3,1330.4 		"/>
		<polygon class="st16" points="563.9,1330.4 629.7,1330.4 627.4,1336.4 625.1,1342.5 616,1342.5 569,1342.5 		"/>
	</g>
</g>
<g id="Haus_Sturm" class="st0">
	<g id="Wolken_2_" class="st2">
		<path class="st26" d="M704.8,1762.6c0,0,1.4-8,15.6-8c0,0-1.4-13.6,19-13.6c0,0,2-10.4,15-10.4c10.9,0,12.9,8.8,12.9,8.8
			s10.2-4,18.3,0c8.2,4,7.5,12.8,7.5,12.8s15.6-1.6,15.6,10.4H704.8z"/>
		<path class="st22" d="M889.8,1741.8c0,0-2-10.2,8.8-13.6c10.9-3.4,12.2,2.7,12.2,2.7s-2.1-10.7,8.8-12.2
			c9.4-1.3,10.9,4.7,10.9,4.7s2.7-17.4,25.1-17.4s26.5,17.4,26.5,17.4s10.2-5.4,17.6-1.4s6.1,9.5,6.1,9.5s14.9-3.4,21.7,3.4
			c5.9,5.9,4.7,6.8,4.7,6.8H889.8z"/>
		<polygon class="st60" points="749.5,1776.2 738.7,1776.2 733.7,1800.3 740,1798.7 734,1814.3 748.3,1793 741.3,1793 		"/>
		<polygon class="st61" points="769.2,1770.1 760.8,1770.1 756.8,1788.9 761.8,1787.6 757.1,1799.7 768.2,1783.2 762.8,1783.2 		"/>
		<path class="st7" d="M1038.5,1780c0,0,1.2-5.8,13.4-5.8c0,0-1.2-9.9,16.4-9.9c0,0,1.8-7.6,12.9-7.6c9.4,0,11.1,6.4,11.1,6.4
			s8.8-2.9,15.8,0c7,2.9,6.4,9.4,6.4,9.4s13.4-1.2,13.4,7.6H1038.5z"/>
	</g>
	<g id="Hinterhaus" class="st2">
		<g id="Ebene_63">
			<polygon class="st65" points="786.5,1814.5 722,1814.5 722,1722 785.8,1666.2 			"/>
			<polygon class="st66" points="785.2,1666.6 716.7,1726.4 702.3,1726.6 785.2,1653.4 			"/>
			<rect x="732.2" y="1883.9" class="st7" width="64" height="117.1"/>
			<rect x="722.6" y="1884.7" class="st16" width="73.5" height="9.5"/>
			<linearGradient id="SVGID_19_" gradientUnits="userSpaceOnUse" x1="726.2641" y1="1863.0652" x2="796.1301" y2="1863.0652">
				<stop  offset="1.685657e-05" style="stop-color:#B3E1C2"/>
				<stop  offset="0.9989" style="stop-color:#4DBA71"/>
			</linearGradient>
			<polyline class="st36" points="726.3,1884.7 739.8,1841.5 795.8,1841.5 796.1,1884.7 726.3,1884.7 			"/>
		</g>
	</g>
	<g id="Wirbelwind" class="st2">
		<g id="Ebene_70">
			<g>
				<linearGradient id="SVGID_20_" gradientUnits="userSpaceOnUse" x1="1090.3099" y1="1822.4104" x2="1233.6503" y2="1822.4104">
					<stop  offset="3.415814e-03" style="stop-color:#E6E6E6"/>
					<stop  offset="0.9989" style="stop-color:#B3B3B3"/>
				</linearGradient>
				<path class="st37" d="M1222.7,1837.2h-121.5c-6,0-10.9-4.9-10.9-10.9v-7.8c0-6,4.9-10.9,10.9-10.9h121.5c6,0,10.9,4.9,10.9,10.9
					v7.8C1233.7,1832.3,1228.7,1837.2,1222.7,1837.2z"/>
				<path class="st70" d="M1211.4,1856.1h-101.4c-3.8,0-7-3.1-7-7v-5c0-3.8,3.1-7,7-7h101.4c3.8,0,7,3.1,7,7v5
					C1218.4,1852.9,1215.3,1856.1,1211.4,1856.1z"/>
				<path class="st70" d="M1209.7,1893.6h-84.9c-3.8,0-7-3.1-7-7v-5c0-3.8,3.1-7,7-7h84.9c3.8,0,7,3.1,7,7v5
					C1216.7,1890.5,1213.5,1893.6,1209.7,1893.6z"/>
				<linearGradient id="SVGID_21_" gradientUnits="userSpaceOnUse" x1="1113.3646" y1="1865.3855" x2="1208.0214" y2="1865.3855">
					<stop  offset="3.415814e-03" style="stop-color:#E6E6E6"/>
					<stop  offset="0.9989" style="stop-color:#B3B3B3"/>
				</linearGradient>
				<path class="st39" d="M1201,1874.9h-80.7c-3.8,0-7-3.1-7-7v-5c0-3.8,3.1-7,7-7h80.7c3.8,0,7,3.1,7,7v5
					C1208,1871.7,1204.9,1874.9,1201,1874.9z"/>
				<linearGradient id="SVGID_22_" gradientUnits="userSpaceOnUse" x1="1111.8875" y1="1902.9486" x2="1191.4681" y2="1902.9486">
					<stop  offset="3.415814e-03" style="stop-color:#E6E6E6"/>
					<stop  offset="0.9989" style="stop-color:#B3B3B3"/>
				</linearGradient>
				<path class="st40" d="M1184.5,1912.4h-65.6c-3.8,0-7-3.1-7-7v-5c0-3.8,3.1-7,7-7h65.6c3.8,0,7,3.1,7,7v5
					C1191.5,1909.3,1188.3,1912.4,1184.5,1912.4z"/>
				<path class="st70" d="M1177.1,1931.2h-53.4c-3.8,0-7-3.1-7-7v-5c0-3.8,3.1-7,7-7h53.4c3.8,0,7,3.1,7,7v5
					C1184.1,1928.1,1180.9,1931.2,1177.1,1931.2z"/>
				<linearGradient id="SVGID_23_" gradientUnits="userSpaceOnUse" x1="1131.1234" y1="1938.1215" x2="1176.0985" y2="1938.1215">
					<stop  offset="3.415814e-03" style="stop-color:#E6E6E6"/>
					<stop  offset="0.9989" style="stop-color:#B3B3B3"/>
				</linearGradient>
				<path class="st41" d="M1169.1,1945.1h-31c-3.8,0-7-3.1-7-7l0,0c0-3.8,3.1-7,7-7h31c3.8,0,7,3.1,7,7l0,0
					C1176.1,1942,1173,1945.1,1169.1,1945.1z"/>
				<path class="st70" d="M1162.3,1959.1h-17.7c-3.8,0-7-3.1-7-7l0,0c0-3.8,3.1-7,7-7h17.7c3.8,0,7,3.1,7,7l0,0
					C1169.3,1956,1166.1,1959.1,1162.3,1959.1z"/>
				<linearGradient id="SVGID_24_" gradientUnits="userSpaceOnUse" x1="1144.7806" y1="1966.0911" x2="1169.274" y2="1966.0911">
					<stop  offset="3.415814e-03" style="stop-color:#E6E6E6"/>
					<stop  offset="0.9989" style="stop-color:#B3B3B3"/>
				</linearGradient>
				<path class="st42" d="M1162.3,1973.1h-10.5c-3.8,0-7-3.1-7-7l0,0c0-3.8,3.1-7,7-7h10.5c3.8,0,7,3.1,7,7l0,0
					C1169.3,1969.9,1166.1,1973.1,1162.3,1973.1z"/>
				<path class="st70" d="M1164.1,1987.2h-3.5c-3.8,0-7-3.1-7-7l0,0c0-3.8,3.1-7,7-7h3.5c3.8,0,7,3.1,7,7l0,0
					C1171.1,1984,1167.9,1987.2,1164.1,1987.2z"/>
				<linearGradient id="SVGID_25_" gradientUnits="userSpaceOnUse" x1="1160.7449" y1="1993.5826" x2="1174.7361" y2="1993.5826">
					<stop  offset="3.415814e-03" style="stop-color:#E6E6E6"/>
					<stop  offset="0.9989" style="stop-color:#B3B3B3"/>
				</linearGradient>
				<path class="st44" d="M1167.7,2000.6L1167.7,2000.6c-3.8,0-7-3.1-7-7v0c0-3.8,3.1-7,7-7l0,0c3.8,0,7,3.1,7,7v0
					C1174.7,1997.4,1171.6,2000.6,1167.7,2000.6z"/>
				<g>
					<path class="st76" d="M1199.5,1924.3h34.3c0,0,11.5,0,11.5-8.1"/>
					<path class="st76" d="M1199.9,1929.5c0,0,18,0,21.2,0s12.8-0.8,12.8,6.7"/>
					<line class="st76" x1="1199.9" y1="1919" x2="1218.3" y2="1919"/>
					<line class="st76" x1="1224" y1="1919" x2="1229.3" y2="1919"/>
				</g>
			</g>
		</g>
	</g>
	<g id="Geländer" class="st2">
		<g>
			<path class="st15" d="M1032.5,2004.9h-1.2c-2.1,0-3.9-1.7-3.9-3.9v-55c0-2.1,1.7-3.9,3.9-3.9h1.2c2.1,0,3.9,1.7,3.9,3.9v55
				C1036.4,2003.2,1034.6,2004.9,1032.5,2004.9z"/>
			<path class="st15" d="M1045.8,2004.9h-1.2c-2.1,0-3.9-1.7-3.9-3.9v-55c0-2.1,1.7-3.9,3.9-3.9h1.2c2.1,0,3.9,1.7,3.9,3.9v55
				C1049.7,2003.2,1048,2004.9,1045.8,2004.9z"/>
			<path class="st15" d="M1058.9,2004.9h-1.2c-2.1,0-3.9-1.7-3.9-3.9v-55c0-2.1,1.7-3.9,3.9-3.9h1.2c2.1,0,3.9,1.7,3.9,3.9v55
				C1062.8,2003.2,1061.1,2004.9,1058.9,2004.9z"/>
			<path class="st15" d="M1072.3,2004.9h-1.2c-2.1,0-3.9-1.7-3.9-3.9v-55c0-2.1,1.7-3.9,3.9-3.9h1.2c2.1,0,3.9,1.7,3.9,3.9v55
				C1076.1,2003.2,1074.4,2004.9,1072.3,2004.9z"/>
			<path class="st15" d="M1085,2004.9h-1.2c-2.1,0-3.9-1.7-3.9-3.9v-55c0-2.1,1.7-3.9,3.9-3.9h1.2c2.1,0,3.9,1.7,3.9,3.9v55
				C1088.9,2003.2,1087.2,2004.9,1085,2004.9z"/>
			<path class="st15" d="M1098.3,2004.9h-1.2c-2.1,0-3.9-1.7-3.9-3.9v-55c0-2.1,1.7-3.9,3.9-3.9h1.2c2.1,0,3.9,1.7,3.9,3.9v55
				C1102.2,2003.2,1100.5,2004.9,1098.3,2004.9z"/>
			<path class="st15" d="M1111.5,2004.9h-1.2c-2.1,0-3.9-1.7-3.9-3.9v-55c0-2.1,1.7-3.9,3.9-3.9h1.2c2.1,0,3.9,1.7,3.9,3.9v55
				C1115.3,2003.2,1113.6,2004.9,1111.5,2004.9z"/>
			<path class="st15" d="M1124.8,2004.9h-1.2c-2.1,0-3.9-1.7-3.9-3.9v-55c0-2.1,1.7-3.9,3.9-3.9h1.2c2.1,0,3.9,1.7,3.9,3.9v55
				C1128.7,2003.2,1126.9,2004.9,1124.8,2004.9z"/>
			<path class="st15" d="M1138.1,2004.9h-1.2c-2.1,0-3.9-1.7-3.9-3.9v-55c0-2.1,1.7-3.9,3.9-3.9h1.2c2.1,0,3.9,1.7,3.9,3.9v55
				C1142,2003.2,1140.2,2004.9,1138.1,2004.9z"/>
			<path class="st15" d="M1170.1,1954.8h-144.6c-0.9,0-1.6-0.7-1.6-1.6v-0.5c0-0.9,0.7-1.6,1.6-1.6h144.6c0.9,0,1.6,0.7,1.6,1.6v0.5
				C1171.7,1954.1,1171,1954.8,1170.1,1954.8z"/>
			<path class="st15" d="M1170.1,1993.9h-144.6c-0.9,0-1.6-0.7-1.6-1.6v-0.5c0-0.9,0.7-1.6,1.6-1.6h144.6c0.9,0,1.6,0.7,1.6,1.6v0.5
				C1171.7,1993.2,1171,1993.9,1170.1,1993.9z"/>
		</g>
	</g>
	<g id="Ebene_55" class="st2">
		<rect x="795.8" y="1918.8" class="st24" width="224" height="82.3"/>
		<rect x="795.8" y="1841.5" class="st15" width="224" height="67.5"/>
		<linearGradient id="SVGID_26_" gradientUnits="userSpaceOnUse" x1="795.3665" y1="1806.4352" x2="1021.6227" y2="1806.4352">
			<stop  offset="1.685657e-05" style="stop-color:#4DBA71"/>
			<stop  offset="0.9989" style="stop-color:#007D29"/>
		</linearGradient>
		<polyline class="st45" points="795.4,1831.6 808.9,1781.2 1009.8,1781.2 1021.6,1831.6 795.4,1831.6 		"/>
	</g>
	<rect x="891.1" y="1938.9" class="st79" width="33.5" height="62.2"/>
	<rect x="918.6" y="1968.2" class="st80" width="2.1" height="8.8"/>
	<g id="Ebene_56" class="st2">
		<rect x="716.1" y="2001" class="st22" width="455.6" height="11.7"/>
		<rect x="790" y="1909" class="st58" width="237" height="9.8"/>
		<rect x="790" y="1831.6" class="st58" width="237" height="9.8"/>
	</g>
	<g id="Fenster_1_" class="st2">
		<path class="st15" d="M863.7,1986h-51.3v-24.6c0,0-1.6-33.1,25.6-33.1c27.7,0,25.6,32.6,25.6,32.6V1986z"/>
		<path class="st16" d="M860.4,1982.3h-44.7V1960c0,0-1.3-28.6,22.3-28.6c24.3,0,22.3,29,22.3,29V1982.3z"/>
		<path class="st23" d="M857.4,1978.9h-38.8v-18.6c0,0-2.2-25.6,19.4-25.6s19.4,26.2,19.4,26.2V1978.9z"/>
		<rect x="836.6" y="1932.1" class="st16" width="2.4" height="49.5"/>
		
			<rect x="836.8" y="1936" transform="matrix(-1.836970e-16 1 -1 -1.836970e-16 2794.8296 1118.7703)" class="st16" width="2.4" height="41.6"/>
		<path class="st15" d="M1003.6,1986h-51.3v-24.6c0,0-1.6-33.1,25.6-33.1c27.7,0,25.6,32.6,25.6,32.6V1986z"/>
		<path class="st16" d="M1000.3,1982.3h-44.7V1960c0,0-1.3-28.6,22.3-28.6c24.3,0,22.3,29,22.3,29V1982.3z"/>
		<path class="st23" d="M997.4,1978.9h-38.8v-18.6c0,0-2.2-25.6,19.4-25.6s19.4,26.2,19.4,26.2V1978.9z"/>
		<rect x="976.6" y="1932.1" class="st16" width="2.4" height="49.5"/>
		
			<rect x="976.8" y="1936" transform="matrix(-1.836970e-16 1 -1 -1.836970e-16 2934.7976 978.8022)" class="st16" width="2.4" height="41.6"/>
		<path class="st16" d="M1001.4,1897.6h-39v-19.5c0,0-1.2-25,19.5-25c21.2,0,19.5,25.3,19.5,25.3V1897.6z"/>
		<path class="st23" d="M998.8,1894.7H965v-16.2c0,0-1.9-22.3,16.9-22.3s16.9,22.8,16.9,22.8V1894.7z"/>
		<rect x="980.7" y="1853.8" class="st16" width="2.1" height="43.1"/>
		
			<rect x="980.9" y="1858.5" transform="matrix(-1.836970e-16 1 -1 -1.836970e-16 2858.574 894.7407)" class="st16" width="2.1" height="36.3"/>
		<path class="st16" d="M927.3,1897.6h-39v-19.5c0,0-1.2-25,19.5-25c21.2,0,19.5,25.3,19.5,25.3V1897.6z"/>
		<path class="st23" d="M924.7,1894.7h-33.8v-16.2c0,0-1.9-22.3,16.9-22.3s16.9,22.8,16.9,22.8V1894.7z"/>
		<rect x="906.6" y="1853.8" class="st16" width="2.1" height="43.1"/>
		
			<rect x="906.7" y="1858.5" transform="matrix(-1.836970e-16 1 -1 -1.836970e-16 2784.4656 968.8492)" class="st16" width="2.1" height="36.3"/>
		<path class="st16" d="M851.3,1897.6h-39v-19.5c0,0-1.2-25,19.5-25c21.2,0,19.5,25.3,19.5,25.3V1897.6z"/>
		<path class="st23" d="M848.8,1894.7H815v-16.2c0,0-1.9-22.3,16.9-22.3s16.9,22.8,16.9,22.8V1894.7z"/>
		<rect x="830.6" y="1853.8" class="st16" width="2.1" height="43.1"/>
		
			<rect x="830.8" y="1858.5" transform="matrix(-1.836970e-16 1 -1 -1.836970e-16 2708.5098 1044.8049)" class="st16" width="2.1" height="36.3"/>
	</g>
	<g id="Ebene_65">
		<g class="st2">
			<g>
				<rect x="917.2" y="1583.4" class="st15" width="34.8" height="45"/>
				<rect x="922" y="1588.4" class="st23" width="25.2" height="35.3"/>
				
					<rect x="933.5" y="1588.4" transform="matrix(-1 -1.224647e-16 1.224647e-16 -1 1869.2107 3212.1433)" class="st22" width="2.1" height="35.3"/>
				<polygon class="st16" points="910.8,1583.4 957.3,1583.4 934.1,1567.3 				"/>
				
					<rect x="933.7" y="1593.5" transform="matrix(-5.870611e-11 1 -1 -5.870611e-11 2540.677 671.4663)" class="st22" width="1.9" height="25.2"/>
			</g>
			<g>
				<rect x="829.6" y="1583.4" class="st15" width="34.8" height="45"/>
				<rect x="834.4" y="1588.4" class="st23" width="25.2" height="35.3"/>
				
					<rect x="845.9" y="1588.4" transform="matrix(-1 -1.224647e-16 1.224647e-16 -1 1693.8887 3212.1433)" class="st22" width="2.1" height="35.3"/>
				<polygon class="st16" points="823.2,1583.4 869.7,1583.4 846.4,1567.3 				"/>
				
					<rect x="845.9" y="1593.5" transform="matrix(-5.119479e-11 1 -1 -5.119479e-11 2453.0159 759.1273)" class="st22" width="2.1" height="25.2"/>
			</g>
		</g>
	</g>
</g>
<g id="Haus_Final" class="st0">
	<g class="st2">
		<rect x="577.8" y="2496.2" class="st22" width="284.4" height="201.6"/>
		<polygon class="st7" points="577.8,2496.2 720,2427 862.2,2496.2 		"/>
		<rect x="605.4" y="2444.7" class="st6" width="19.8" height="29.3"/>
		<rect x="862.2" y="2592.4" class="st7" width="140.8" height="105.4"/>
		<rect x="437" y="2592.4" class="st7" width="140.8" height="105.4"/>
		<linearGradient id="SVGID_27_" gradientUnits="userSpaceOnUse" x1="862.1847" y1="2562.1423" x2="1022.2435" y2="2562.1423">
			<stop  offset="1.685657e-05" style="stop-color:#4DBA71"/>
			<stop  offset="0.9989" style="stop-color:#007D29"/>
		</linearGradient>
		<polygon class="st52" points="1022.2,2592.4 862.2,2592.4 862.2,2531.9 987.6,2531.9 		"/>
		<linearGradient id="SVGID_28_" gradientUnits="userSpaceOnUse" x1="417.7566" y1="2562.1423" x2="577.8153" y2="2562.1423">
			<stop  offset="1.110766e-03" style="stop-color:#007D29"/>
			<stop  offset="1" style="stop-color:#4DBA71"/>
		</linearGradient>
		<polygon class="st53" points="417.8,2592.4 577.8,2592.4 577.8,2531.9 452.4,2531.9 		"/>
		<rect x="696.9" y="2609.8" class="st26" width="48.6" height="88"/>
		<rect x="601.9" y="2507.2" class="st23" width="71.4" height="29.1"/>
		<rect x="766.7" y="2507.2" class="st23" width="71.4" height="29.1"/>
		<circle class="st23" cx="720" cy="2461.6" r="10.3"/>
		<rect x="635.5" y="2507.2" class="st22" width="4.1" height="29.1"/>
		<rect x="800.4" y="2507.2" class="st22" width="4.1" height="29.1"/>
		<rect x="735.6" y="2644.4" class="st83" width="4.1" height="11.4"/>
		<linearGradient id="SVGID_29_" gradientUnits="userSpaceOnUse" x1="721.1538" y1="2544.6243" x2="721.1538" y2="2596.6418">
			<stop  offset="1.685657e-05" style="stop-color:#4DBA71"/>
			<stop  offset="0.9989" style="stop-color:#007D29"/>
		</linearGradient>
		<polygon class="st54" points="545.9,2592.4 670.6,2592.4 896.4,2592.4 850.6,2547.4 590.1,2547.4 		"/>
		<polygon class="st15" points="720,2536.7 766.7,2592.4 675.1,2592.4 		"/>
		<rect x="555.5" y="2647.2" class="st24" width="119.6" height="50.5"/>
		<rect x="766.7" y="2647.2" class="st24" width="120.1" height="50.5"/>
		<g>
			
				<rect x="565.3" y="2679.2" transform="matrix(-1.836970e-16 1 -1 -1.836970e-16 3257.2544 2123.72)" class="st15" width="3" height="22.6"/>
			
				<rect x="565.3" y="2670.2" transform="matrix(-1.836970e-16 1 -1 -1.836970e-16 3248.2776 2114.7432)" class="st15" width="3" height="22.6"/>
			
				<rect x="565.3" y="2661.2" transform="matrix(-1.836970e-16 1 -1 -1.836970e-16 3239.3005 2105.7661)" class="st15" width="3" height="22.6"/>
			
				<rect x="565.3" y="2652.3" transform="matrix(-1.836970e-16 1 -1 -1.836970e-16 3230.3235 2096.7893)" class="st15" width="3" height="22.6"/>
			
				<rect x="565.3" y="2643.3" transform="matrix(-1.836970e-16 1 -1 -1.836970e-16 3221.3467 2087.8123)" class="st15" width="3" height="22.6"/>
		</g>
		<g>
			
				<rect x="625.1" y="2642" transform="matrix(-1.836970e-16 1 -1 -1.836970e-16 3317.05 2063.9258)" class="st22" width="3" height="97"/>
			
				<rect x="625.1" y="2633" transform="matrix(-1.836970e-16 1 -1 -1.836970e-16 3308.073 2054.9487)" class="st22" width="3" height="97"/>
			
				<rect x="625.1" y="2624" transform="matrix(-1.836970e-16 1 -1 -1.836970e-16 3299.0962 2045.9718)" class="st22" width="3" height="97"/>
			
				<rect x="625.1" y="2615.1" transform="matrix(-1.836970e-16 1 -1 -1.836970e-16 3290.1191 2036.9949)" class="st22" width="3" height="97"/>
			
				<rect x="625.1" y="2606.1" transform="matrix(-1.836970e-16 1 -1 -1.836970e-16 3281.1423 2028.0179)" class="st22" width="3" height="97"/>
		</g>
		<g>
			
				<rect x="872.7" y="2678.1" transform="matrix(-1.836970e-16 1 -1 -1.836970e-16 3564.6963 1816.278)" class="st15" width="3" height="24.7"/>
			
				<rect x="872.7" y="2669.1" transform="matrix(-1.836970e-16 1 -1 -1.836970e-16 3555.7195 1807.301)" class="st15" width="3" height="24.7"/>
			
				<rect x="872.7" y="2660.2" transform="matrix(-1.836970e-16 1 -1 -1.836970e-16 3546.7424 1798.3241)" class="st15" width="3" height="24.7"/>
			
				<rect x="872.7" y="2651.2" transform="matrix(-1.836970e-16 1 -1 -1.836970e-16 3537.7656 1789.3472)" class="st15" width="3" height="24.7"/>
			
				<rect x="872.7" y="2642.2" transform="matrix(-1.836970e-16 1 -1 -1.836970e-16 3528.7886 1780.3702)" class="st15" width="3" height="24.7"/>
		</g>
		<g>
			
				<rect x="812.8" y="2642.9" transform="matrix(-1.836970e-16 1 -1 -1.836970e-16 3504.7805 1876.1954)" class="st22" width="3" height="95.1"/>
			
				<rect x="812.8" y="2634" transform="matrix(-1.836970e-16 1 -1 -1.836970e-16 3495.8035 1867.2185)" class="st22" width="3" height="95.1"/>
			
				<rect x="812.8" y="2625" transform="matrix(-1.836970e-16 1 -1 -1.836970e-16 3486.8267 1858.2416)" class="st22" width="3" height="95.1"/>
			
				<rect x="812.8" y="2616" transform="matrix(-1.836970e-16 1 -1 -1.836970e-16 3477.8496 1849.2646)" class="st22" width="3" height="95.1"/>
			
				<rect x="812.8" y="2607" transform="matrix(-1.836970e-16 1 -1 -1.836970e-16 3468.8728 1840.2876)" class="st22" width="3" height="95.1"/>
		</g>
		<rect x="545.9" y="2592.4" class="st24" width="9.6" height="116.6"/>
		<rect x="675.1" y="2592.4" class="st24" width="9.6" height="116.6"/>
		<rect x="757.1" y="2592.4" class="st24" width="9.6" height="116.6"/>
		<rect x="886.8" y="2592.4" class="st24" width="9.6" height="116.6"/>
		
			<rect x="790.7" y="2372.3" transform="matrix(0.4407 -0.8976 0.8976 0.4407 -1762.1648 2089.0779)" class="st24" width="9.6" height="172.9"/>
		
			<rect x="639.7" y="2372.4" transform="matrix(-0.4407 -0.8976 0.8976 -0.4407 -1278.5233 4120.9253)" class="st24" width="9.6" height="172.7"/>
	</g>
	<g class="st2">
		<path class="st86" d="M468.3,2466.7c-5.6,4.5-12.7,7.3-20.5,7.3c-17.9,0-32.5-14.6-32.5-32.5s14.6-32.5,32.5-32.5
			c17.9,0,32.5,14.6,32.5,32.5c0,5.8-1.5,11.2-4.1,15.9"/>
		<polygon class="st60" points="540.1,2421.9 528.1,2421.9 522.5,2448.7 529.5,2447 522.8,2464.2 538.7,2440.6 530.9,2440.6 		"/>
		<path class="st60" d="M903.9,2420.6c-0.4-0.5-1.2-0.5-1.6,0c-3,3.6-13.8,17.4-12,27.9c1.8,10.3,11.4,10.3,12.7,10.3
			c1.3,0,10.9,0,12.7-10.3C917.8,2438,907,2424.3,903.9,2420.6z"/>
		<g>
			<path class="st76" d="M969.4,2441.5h34.3c0,0,11.5,0,11.5-8.1"/>
			<path class="st76" d="M969.8,2446.7c0,0,18,0,21.2,0c3.2,0,12.8-0.8,12.8,6.7"/>
			<line class="st76" x1="969.8" y1="2436.2" x2="988.2" y2="2436.2"/>
			<line class="st76" x1="993.9" y1="2436.2" x2="999.3" y2="2436.2"/>
		</g>
		<path class="st86" d="M557.3,2466.7c-5.6,4.5-12.7,7.3-20.5,7.3c-17.9,0-32.5-14.6-32.5-32.5s14.6-32.5,32.5-32.5
			c17.9,0,32.5,14.6,32.5,32.5c0,5.8-1.5,11.2-4.1,15.9"/>
		<path class="st86" d="M923.6,2466c-5.6,4.5-12.7,7.3-20.5,7.3c-17.9,0-32.5-14.6-32.5-32.5s14.6-32.5,32.5-32.5
			c17.9,0,32.5,14.6,32.5,32.5c0,5.8-1.5,11.2-4.1,15.9"/>
		<path class="st86" d="M1012.7,2466c-5.6,4.5-12.7,7.3-20.5,7.3c-17.9,0-32.5-14.6-32.5-32.5s14.6-32.5,32.5-32.5
			c17.9,0,32.5,14.6,32.5,32.5c0,5.8-1.5,11.2-4.1,15.9"/>
		<path class="st61" d="M903.5,2435.6c-0.2-0.2-0.5-0.2-0.7,0c-0.8,1-2.9,3.6-4.3,6.6c-1,2.1-1.6,4.4-1.3,6.4
			c0.8,4.8,5.3,4.8,5.9,4.8c0.6,0,5.1,0,5.9-4.8C909.9,2443.7,904.9,2437.3,903.5,2435.6z"/>
		<polygon class="st61" points="554.1,2430.6 546.5,2429.8 541.2,2446.5 545.8,2445.8 540.5,2456.3 552,2442.3 547.1,2441.8 		"/>
		<g>
			<path class="st48" d="M441.6,2433c0,0-18.3,30,0.5,29.7S441.6,2433,441.6,2433z"/>
			<path class="st48" d="M455.9,2420.3c0,0-12.6,20.8,0.3,20.5C469.2,2440.6,455.9,2420.3,455.9,2420.3z"/>
		</g>
	</g>
	<g id="Haus_mitte" class="st2">
		<path class="st35" d="M978.6,2515.1c0,0,1.6-9.5,18.5-9.5c0,0-1.6-16.1,22.5-16.1c0,0,2.4-12.3,17.7-12.3
			c12.9,0,15.3,10.4,15.3,10.4s12.1-4.7,21.7,0c9.7,4.7,8.9,15.2,8.9,15.2s18.5-1.9,18.5,12.3H978.6z"/>
		<path class="st35" d="M833.4,2401.2c0,0,1.5-7.8,17.8-7.8c0,0-1.5-13.2,21.7-13.2c0,0,2.3-10.1,17-10.1c12.4,0,14.7,8.5,14.7,8.5
			s11.6-3.9,20.9,0c9.3,3.9,8.5,12.4,8.5,12.4s17.8-1.6,17.8,10.1H833.4z"/>
		<path class="st35" d="M436.8,2394.8c0,0-2.9-14.3,12.4-19.1c15.3-4.8,16,1.6,16,1.6s-0.7-12.3,13-13.9c13.3-1.5,15.9,5.6,15.9,5.6
			s3.8-26,35.3-26s37.2,26,37.2,26s11.4-6.5,22.5-1.9c10.9,4.5,10.9,13.4,10.9,13.4s21-4.8,30.5,4.8c8.2,8.2,6.7,9.5,6.7,9.5H436.8z
			"/>
	</g>
	<g id="Ebene_59" class="st2">
	</g>
	<g id="Nebengebäude" class="st2">
	</g>
	<g id="Tür" class="st2">
	</g>
	<g id="Fenster_2_" class="st2">
	</g>
	<g id="Vorderdach" class="st2">
	</g>
	<g id="Leisten" class="st2">
	</g>
</g>
<g id="Platzhalter_Inhalte_Website" class="st0">
	<rect x="147.7" y="168.5" class="st94" width="616.5" height="72.8"/>
	<text transform="matrix(1 0 0 1 147.6973 200.7754)" class="st2"><tspan x="0" y="0" class="st58 st95 st96">WOHNGEBÄUDEVERSICHERUNG</tspan><tspan x="0" y="39" class="st97 st98">Schutz für Ihr Hab und Gut</tspan></text>
	<g class="st2">
		
			<image style="overflow:visible;opacity:0.4;" width="220" height="80" xlink:href="1766114A41FCFA65.png"  transform="matrix(1 0 0 1 134.6536 262.3386)">
		</image>
		<g>
			<path class="st99" d="M326.5,319.8H152.7c-2.8,0-5-2.2-5-5v-32.5c0-2.8,2.2-5,5-5h173.8c2.8,0,5,2.2,5,5v32.5
				C331.5,317.6,329.3,319.8,326.5,319.8z"/>
		</g>
	</g>
	<text transform="matrix(1 0 0 1 167.7061 305.2378)" class="st100 st101 st102">Zu den Tarifen</text>
	<rect x="470.7" y="699.2" class="st94" width="498.7" height="207.5"/>
	<text transform="matrix(1 0 0 1 568.5469 721.7369)" class="st2"><tspan x="0" y="0" class="st58 st95 st103">HEADLINE ZUM THEMA  </tspan><tspan x="-11.1" y="36" class="st58 st95 st103">SCHUTZ UND EIGENHEIM </tspan><tspan x="-76.1" y="76" class="st97 st104">Schäden an ihrem Wohnobjekt in Folge eines Leitungswasserschadens können </tspan><tspan x="-96.5" y="116" class="st97 st104">schnell hohe Kosten verursachen und eine große Belastung darstellen. Mit der Wohn</tspan><tspan x="394.7" y="116" class="st97 st104">-</tspan><tspan x="-88.4" y="135.2" class="st97 st104">gebäudeversicherung der HDI versichern Sie sich z.B. gegen die Gefahr eines Rohr</tspan><tspan x="386.5" y="135.2" class="st97 st104">-</tspan><tspan x="-85.3" y="154.4" class="st97 st104">bruchs. In Kombination mit dem Paket Handwerkerservice unterstützen wir Sie im </tspan><tspan x="-97.1" y="173.6" class="st97 st104">Notfall mit dem Spezialisten den Sie gerade benötigen. Verlassen Sie sich auf unseren </tspan></text>
	<rect x="470.7" y="2127.4" class="st94" width="498.7" height="149.2"/>
	<text transform="matrix(1 0 0 1 621.0762 2149.8921)" class="st2"><tspan x="0" y="0" class="st58 st95 st103"> HEADLINE MIT  </tspan><tspan x="-93.9" y="36" class="st58 st95 st103">HANDLUNGSAUFFORDERUNG </tspan><tspan x="-140.7" y="76" class="st97 st104">Vier kurze Sätze zum Thema Sicherheit und Eigenheim im Bezug auf HDI’s Leistun</tspan><tspan x="333.9" y="76" class="st97 st104">-</tspan><tspan x="-132" y="116" class="st97 st104">gen. Lorem ipsum dolor sit amet, consectetur adipiscing elit. Lectus nulla ut vel, </tspan></text>
	<rect x="837" y="1081.6" class="st94" width="398" height="160.3"/>
	<text transform="matrix(1 0 0 1 836.9927 1096.6571)" class="st2"><tspan x="0" y="0" class="st58 st101 st105">Gut gewappnet gegen Wohnungsbrand </tspan><tspan x="0" y="30" class="st97 st104">Geht ein Brand an die Substanz einer Immobilie, ist das ein Fall für </tspan><tspan x="0" y="49.2" class="st97 st104">die Wohngebäudeversicherung. Sie reguliert für den oder die Eigen</tspan><tspan x="388.7" y="49.2" class="st97 st104">-</tspan><tspan x="0" y="68.4" class="st97 st104">tümer Reparaturen beziehungsweise den Wiederaufbau, wenn </tspan><tspan x="0" y="87.6" class="st97 st104">Wände, Mauern, Dächer, sanitäre Anlagen oder Fenster und Türen </tspan><tspan x="0" y="106.8" class="st97 st104">sowie andere fest installierte Einrichtungen und Leitungen Schaden </tspan><tspan x="0" y="126" class="st97 st104">genommen haben.</tspan></text>
	<rect x="162.7" y="1673.5" class="st94" width="421.1" height="181.9"/>
	<text transform="matrix(1 0 0 1 259.2229 1688.5854)" class="st2"><tspan x="0" y="0" class="st58 st101 st105">Unwetterschäden – was tun bei Sturm,  </tspan><tspan x="151.2" y="24" class="st58 st101 st105">Hagel und Gewitter? </tspan><tspan x="-86" y="54" class="st97 st104">Stürme, Hagel, Blitz und Donner – sie können jeden heimsuchen, denn </tspan><tspan x="-69.1" y="73.2" class="st97 st104">Unwetter wüten nach dem Zufallsprinzip. Wenn Naturgewalten ihre </tspan><tspan x="-94.6" y="92.4" class="st97 st104">zerstörerische Kraft entfalten, kann das für Wohneigentümer und Mieter </tspan><tspan x="-89.6" y="111.6" class="st97 st104">gleichermaßen zu einer großen finanziellen Belastung werden. Mit dem </tspan><tspan x="-87.8" y="130.8" class="st97 st104">zuverlässigen HDI-Versicherungsschutz müssen Sie sich um die Repara</tspan><tspan x="319.9" y="130.8" class="st97 st104">-</tspan><tspan x="95.3" y="150" class="st97 st104">turkosten jedoch keine Sorgen machen.</tspan></text>
	<text transform="matrix(1 0 0 1 400.6451 1904.8617)" class="st47 st101 st102">Jetzt Tarif berechnen</text>
	<path class="st106" d="M577,1919.4H382.4c-2.8,0-5-2.2-5-5v-32.5c0-2.8,2.2-5,5-5H577c2.8,0,5,2.2,5,5v32.5
		C582,1917.2,579.7,1919.4,577,1919.4z"/>
	<text transform="matrix(1 0 0 1 861.02 1290.6853)" class="st47 st101 st102">Jetzt Tarif berechnen</text>
	<path class="st106" d="M1037.3,1305.2H842.8c-2.8,0-5-2.2-5-5v-32.5c0-2.8,2.2-5,5-5h194.6c2.8,0,5,2.2,5,5v32.5
		C1042.3,1303,1040.1,1305.2,1037.3,1305.2z"/>
	<g class="st2">
		<path class="st107" d="M326.5,319.8h-34.6l0.1-42.5h34.5c2.8,0,5,2.2,5,5v32.5C331.5,317.6,329.3,319.8,326.5,319.8z"/>
	</g>
	<polyline class="st109" points="307.9,291.4 317.4,299.1 308,307.2 	"/>
	<g class="st2">
		
			<image style="overflow:visible;opacity:0.4;" width="293" height="79" xlink:href="1766114A41FCFA66.png"  transform="matrix(1 0 0 1 593.9131 2282.811)">
		</image>
		<g>
			<path class="st110" d="M858.6,2339.5H612.3c-2.8,0-5-2.2-5-5V2302c0-2.8,2.2-5,5-5h246.3c2.8,0,5,2.2,5,5v32.5
				C863.6,2337.3,861.4,2339.5,858.6,2339.5z"/>
		</g>
	</g>
	<text transform="matrix(1 0 0 1 631.8181 2324.9238)" class="st100 st101 st102">Jetzt online versichern</text>
	<g class="st2">
		<path class="st111" d="M856.6,2339.5h-35.7l0.1-42.5h35.6c3.8,0,7,2.2,7,5v32.5C863.6,2337.3,860.5,2339.5,856.6,2339.5z"/>
	</g>
	<polyline class="st109" points="839.7,2311.1 849.2,2318.8 839.8,2326.8 	"/>
	<text transform="matrix(1 0 0 1 605.6387 52.6778)" class="st47 st112 st102">Unsere Leistungen</text>
	<text transform="matrix(1 0 0 1 786.4873 52.6778)" class="st47 st112 st102">So funktioniert‘s</text>
	<text transform="matrix(1 0 0 1 946.364 52.6778)" class="st47 st112 st102">Unsere Tarife</text>
	<text transform="matrix(1 0 0 1 1081.8982 52.6778)" class="st47 st112 st102">Unsere Empfehlungen</text>
	<text transform="matrix(1 0 0 1 1279.0405 52.6778)" class="st47 st112 st102">Noch Fragen?</text>
	<g class="st2">
		<rect x="78.4" y="41.2" class="st113" width="12.1" height="12.1"/>
		<path class="st110" d="M123.7,37.9c0,0,0,18.7,0,18.6c8.7,0,11.2-3.5,11.2-9.2C134.9,41.7,132.3,37.9,123.7,37.9L123.7,37.9z
			 M112.3,29.1v36.3h12.7c15.1,0,22.1-8.9,22.1-18.2c0-9.1-7-18.1-22.2-18.1L112.3,29.1L112.3,29.1z"/>
		<rect x="153.5" y="29.1" class="st58" width="12.1" height="36.3"/>
		<rect x="90.5" y="29.1" class="st58" width="12.1" height="36.3"/>
		<rect x="66.3" y="29.1" class="st58" width="12.1" height="36.3"/>
	</g>
</g>
<g id="Wegpfeile">
	<g id="Ebene_61">
		<path class="st7" d="M1140,1592.4c0,0-14.7-10.3-20.5-38.1c-5.8-27.8-0.9-28.2-2.5-40.6c-1.6-12.5-5.8-16.8-5.8-16.8
			s19.5,6.2,25.1,33.2c5.6,27,8.1,61.5,8.1,61.5L1140,1592.4z"/>
		<g>
			<path class="st7" d="M1144.2,1591.1c0,0,36.6-24.5,41.4-49.6c4.8-25.1,7.5-40.6,7.5-40.6s-27.1,11.6-36.2,25.4
				C1147.3,1541,1133,1556.5,1144.2,1591.1z"/>
			<path class="st9" d="M1186.6,1511c0,0-36.6,47.1-39.7,65.9"/>
			<line class="st9" x1="1182.1" y1="1532.7" x2="1165.2" y2="1541.3"/>
			<line class="st9" x1="1172.6" y1="1530.1" x2="1174.1" y2="1517"/>
		</g>
		
			<linearGradient id="SVGID_30_" gradientUnits="userSpaceOnUse" x1="1052.4358" y1="2005.3616" x2="1068.6101" y2="1930.0356" gradientTransform="matrix(0.9661 -0.2581 0.2581 0.9661 -391.5939 -75.3743)">
			<stop  offset="1.685657e-05" style="stop-color:#B3E1C2"/>
			<stop  offset="0.9989" style="stop-color:#66C485"/>
		</linearGradient>
		<path class="st55" d="M1141,1592.3c0,0-15.5-25.4-9.1-42.6c6.4-17.2,4.3-49.7,4.3-49.7s12.8,24.9,15.4,52.2
			c1.2,13.4-1.3,26.1-6.5,39.1L1141,1592.3z"/>
	</g>
	<g>
		<polygon class="st22" points="1180.7,1595.5 1172.4,1594.7 1172.4,1400.2 1180.7,1400.2 		"/>
		<linearGradient id="SVGID_31_" gradientUnits="userSpaceOnUse" x1="1183.6752" y1="1454.0261" x2="1308.6444" y2="1454.0261">
			<stop  offset="1.685657e-05" style="stop-color:#4DBA71"/>
			<stop  offset="0.9989" style="stop-color:#007D29"/>
		</linearGradient>
		<polygon class="st56" points="1291.8,1467.7 1183.7,1467.7 1183.7,1440.4 1291.8,1440.4 1308.6,1454 		"/>
		<linearGradient id="SVGID_32_" gradientUnits="userSpaceOnUse" x1="1183.6752" y1="1419.1271" x2="1258.4578" y2="1419.1271">
			<stop  offset="1.685657e-05" style="stop-color:#4DBA71"/>
			<stop  offset="0.9989" style="stop-color:#007D29"/>
		</linearGradient>
		<polygon class="st57" points="1241.6,1432.8 1183.7,1432.8 1183.7,1405.5 1241.6,1405.5 1258.5,1419.1 		"/>
		<text transform="matrix(1 0 0 1 1190.5553 1460.066)" class="st35 st101 st119">TARIFRECHNER</text>
		<text transform="matrix(1 0 0 1 1190.5553 1425.109)" class="st35 st101 st119">HDI-</text>
	</g>
	<g>
		<polygon class="st22" points="189.5,2289.4 189.2,2281.2 384.4,2281.2 384.4,2289.4 		"/>
		
			<linearGradient id="SVGID_33_" gradientUnits="userSpaceOnUse" x1="786.1598" y1="2156.9924" x2="911.1289" y2="2156.9924" gradientTransform="matrix(0 1 -1 0 2487.645 1506.238)">
			<stop  offset="1.685657e-05" style="stop-color:#4DBA71"/>
			<stop  offset="0.9989" style="stop-color:#007D29"/>
		</linearGradient>
		<polygon class="st59" points="317,2400.5 317,2292.4 344.3,2292.4 344.3,2400.5 330.7,2417.4 		"/>
		
			<linearGradient id="SVGID_34_" gradientUnits="userSpaceOnUse" x1="786.1598" y1="2122.0935" x2="860.9423" y2="2122.0935" gradientTransform="matrix(0 1 -1 0 2487.645 1506.238)">
			<stop  offset="1.685657e-05" style="stop-color:#4DBA71"/>
			<stop  offset="0.9989" style="stop-color:#007D29"/>
		</linearGradient>
		<polygon class="st62" points="351.9,2350.3 351.9,2292.4 379.2,2292.4 379.2,2350.3 365.6,2367.2 		"/>
		<text transform="matrix(0 1 -1 0 324.6138 2299.2776)" class="st35 st101 st119">TARIFRECHNER</text>
		<text transform="matrix(0 1 -1 0 359.5708 2299.2776)" class="st35 st101 st119">HDI-</text>
	</g>
</g>
<g id="Pricetag" class="st0">
	<g>
		<g class="st2">
			<path class="st61" d="M864.4,205.3l-54.1-2.5l-12.8,14.1l-4.9,104.4l76,3.5l4.8-103.8L864.4,205.3z M835.2,226.5
				c-3-0.1-5.3-2.7-5.2-5.7c0.1-3,2.7-5.3,5.7-5.2c3,0.1,5.3,2.7,5.2,5.7C840.7,224.3,838.2,226.6,835.2,226.5z"/>
			<text transform="matrix(0.9989 4.657000e-02 -4.657000e-02 0.9989 803.8372 268.2528)"><tspan x="0" y="0" class="st23 st101 st122">33.000 € </tspan><tspan x="0" y="16.8" class="st23 st101 st122">Schaden</tspan></text>
		</g>
		<path class="st123" d="M834,218.5c0,0-3.6-32.8,7.5-41.4c11.2-8.6,11.5-15.1,15.7-25.6c4.3-10.5,18.9-14.3,24.3,1.4
			c5,14.4-13.1,19-29.4,27.1c-16.3,8.1-15.7,40.9-15.7,40.9"/>
		<circle class="st100" cx="835.5" cy="221.1" r="6"/>
	</g>
	<polygon class="st47" points="374.6,1071.4 389.5,1067.2 389.5,1057.7 373.4,1062.2 	"/>
	<path class="st124" d="M975.5,1724.3l-47.6,9l-7.9,13.3l17.4,95.8l66.6-12.5l-17.1-93.9L975.5,1724.3z"/>
	<g class="st2">
		<g>
			<linearGradient id="SVGID_35_" gradientUnits="userSpaceOnUse" x1="308.0743" y1="1178.7247" x2="388.8862" y2="1178.7247">
				<stop  offset="1.685896e-05" style="stop-color:#FF9632"/>
				<stop  offset="0.9989" style="stop-color:#FF7200"/>
			</linearGradient>
			<path class="st63" d="M379.8,1120.2l-54.1-2.5l-12.8,14.1l-4.9,104.4l76,3.5l4.8-103.8L379.8,1120.2z M351.2,1142
				c-3.3,0.2-6.2-2.3-6.4-5.6c-0.2-3.3,2.3-6.2,5.6-6.4c3.3-0.2,6.2,2.3,6.4,5.6C357,1138.9,354.5,1141.8,351.2,1142z"/>
			<text transform="matrix(0.9989 4.657000e-02 -4.657000e-02 0.9989 314.8018 1177.2942)"><tspan x="0" y="0" class="st23 st95 st104">150.000 € </tspan><tspan x="14.4" y="18" class="st23 st112 st126">Schaden  </tspan><tspan x="2.4" y="29" class="st23 st112 st126">im Durchschnitt*</tspan></text>
		</g>
		<path class="st127" d="M387.1,1063.9c-1.6-2.6-4.9-5.8-11.8-6.4c-7.9-0.8-11.8,8.1-15.5,16.7c-2.5,5.7-5,11.5-8.6,14.7
			c-4.4,3.9-6.5,12.4-6.3,25.4c0.1,8.7,1.3,16.4,1.5,17.7c1.1-1.1,2.6-1.9,4.3-1.9c1.1,0,2.2,0.3,3.1,0.8c1-17.7,4.4-29,10.8-35.7
			c3.8-3.9,8.4-7.2,12.5-10.1c5.2-3.7,9.3-6.6,10.7-10C389.4,1071.4,389.1,1067.1,387.1,1063.9z M384.2,1073.5c-1,2.4-5,5.2-9.3,8.2
			c-4.2,3-9,6.4-13.1,10.6c-6.9,7.2-10.6,18.3-11.8,35.9c-1.3-10.5-2.4-30.8,3.9-36.5c4.2-3.8,6.9-10,9.6-16.1
			c3.2-7.3,6.2-14.3,11-14.3c0.2,0,0.3,0,0.5,0c4.1,0.4,7.2,2,8.7,4.5C385.2,1068.5,385,1071.6,384.2,1073.5z"/>
	</g>
	<polygon class="st47" points="374.6,1070.9 389.5,1066.7 389.5,1057.1 373.4,1061.6 	"/>
	<g class="st2">
		<g>
			<linearGradient id="SVGID_36_" gradientUnits="userSpaceOnUse" x1="839.5872" y1="275.6052" x2="921.9822" y2="275.6052">
				<stop  offset="1.685896e-05" style="stop-color:#FF9632"/>
				<stop  offset="0.9989" style="stop-color:#FF7200"/>
			</linearGradient>
			<path class="st64" d="M912.7,216l-55.1-2.6l-13,14.4l-5,106.4l77.5,3.6L922,232L912.7,216z M883.5,238.2
				c-3.4,0.2-6.3-2.4-6.5-5.7c-0.2-3.4,2.4-6.3,5.7-6.5c3.4-0.2,6.3,2.4,6.5,5.7C889.5,235,886.9,238,883.5,238.2z"/>
			<text transform="matrix(0.9989 4.657000e-02 -4.657000e-02 0.9989 850.8995 272.2797)"><tspan x="0" y="0" class="st23 st95 st130">33.000 € </tspan><tspan x="10.3" y="18.4" class="st23 st112 st131">Schaden  </tspan><tspan x="-1.9" y="29.6" class="st23 st112 st131">im Durchschnitt*</tspan></text>
		</g>
		<path class="st127" d="M935.2,164.1c-2.1-7.1-8-9.5-13.9-10.5l6.5,6.7c1.7,1.2,2.8,2.9,3.4,5c1.3,4.5-1.6,10.9-13.6,15.4
			c-2.6,1-5,1.8-7.1,2.6c-10.3,3.7-15.5,5.5-19.3,11.6c-2.9,4.5-6.7,15.3-8.7,24.6c0.1-9.2,1-20.7,4.5-24.5c1.1-1.2,2.2-2.3,3.1-3.3
			c4.7-5,7.9-8.3,10.1-18.5c1-4.5,3.1-8.1,5.6-10.7l0,0l9-9.1c-7.7,0.9-16,7.6-18.5,18.9c-2,9.1-4.6,11.7-9.1,16.6
			c-1,1-2,2.1-3.2,3.4c-3.1,3.4-4.9,10.9-5.4,22.2c-0.3,5.8-0.1,11.1,0,13.7c1.1-1.2,2.7-2,4.5-2c0.8,0,1.6,0.2,2.3,0.4
			c1.2-9.2,6-24.4,9.3-29.5c3.1-4.9,7.2-6.4,17.3-9.9c2.1-0.8,4.5-1.6,7.1-2.6C933.8,178.9,937,170.3,935.2,164.1z"/>
	</g>
	<g class="st2">
		<g>
			<g>
				<linearGradient id="SVGID_37_" gradientUnits="userSpaceOnUse" x1="958.2038" y1="1798.1622" x2="1051.7626" y2="1798.1622">
					<stop  offset="1.685896e-05" style="stop-color:#FF9632"/>
					<stop  offset="0.9989" style="stop-color:#FF7200"/>
				</linearGradient>
				<path class="st67" d="M1020.7,1733.6l-53.2,9.7l-9.3,16.6l18.7,102.8l74.8-13.6l-18.6-102.2L1020.7,1733.6z M997.7,1761.2
					c-3.2,0.9-6.5-0.9-7.5-4.1c-0.9-3.2,0.9-6.5,4.1-7.5c3.2-0.9,6.5,0.9,7.5,4.1C1002.7,1757,1000.9,1760.3,997.7,1761.2z"/>
				<text transform="matrix(0.9838 -0.1793 0.1793 0.9838 973.9683 1801.723)"><tspan x="0" y="0" class="st23 st95 st104">25.000 € </tspan><tspan x="10.1" y="18" class="st23 st112 st126">Schaden  </tspan><tspan x="-1.8" y="29" class="st23 st112 st126">im Durchschnitt*</tspan></text>
			</g>
		</g>
		<path class="st127" d="M1017.1,1693.1c-0.7-4.1-2.9-7.7-6.8-10.7l2.1,8.8c0.4,0.8,0.6,1.7,0.7,2.6c0.9,5.6-2.8,11.4-6.2,14.6
			c-1.7,1.6-3.3,2.1-5,2.7c-5.2,1.8-8.3,3.9-8.3,17.3v18.1c-3.9-7.9-10.5-23.5-7.6-33.8c1.6-5.6,2.2-11.5,2.7-16.7
			c0.8-7.5,1.5-13.9,4.5-15.6c0.6-0.3,1.3-0.5,2.1-0.5l0-0.1h11.4c-1-0.6-2-1.1-3.1-1.6c-5.4-2.6-9.4-3-12.4-1.3
			c-4.8,2.7-5.5,9.7-6.5,18.6c-0.5,5-1.1,10.7-2.6,16.1c-3.7,13.5,6.1,33.3,9.5,39.8c1.1-1.2,2.6-1.9,4.4-1.9c0.6,0,1.1,0.1,1.6,0.2
			v-21.3c0-11.6,2.1-12.3,5.6-13.5c1.9-0.6,4.2-1.4,6.4-3.6C1014,1707.1,1018.3,1700.2,1017.1,1693.1z"/>
	</g>
</g>
<g id="Weißer_Verlauf">
	<g>
		
			<linearGradient id="SVGID_38_" gradientUnits="userSpaceOnUse" x1="1239.4447" y1="2424.2612" x2="1565.8071" y2="2424.2612" gradientTransform="matrix(-1 0 0 -1 2679.0972 5189.7983)">
			<stop  offset="0" style="stop-color:#FFFFFF"/>
			<stop  offset="0.9988" style="stop-color:#FFFFFF;stop-opacity:0"/>
		</linearGradient>
		<rect x="1113.3" y="2690" class="st68" width="326.4" height="151.2"/>
	</g>
</g>
</svg>
