<svg xmlns="http://www.w3.org/2000/svg" xmlns:xlink="http://www.w3.org/1999/xlink" viewBox="0 0 231.63 172.87"><defs><style>.cls-1{fill:url(#Unbenannter_Verlauf_2);}.cls-2{fill:url(#Unbenannter_Verlauf_2-2);}.cls-3{fill:url(#Unbenannter_Verlauf_6);}.cls-4{fill:url(#Unbenannter_Verlauf_6-2);}.cls-5{fill:url(#Unbenannter_Verlauf_6-3);}.cls-6{fill:url(#Unbenannter_Verlauf_6-4);}</style><linearGradient id="Unbenannter_Verlauf_2" x1="83.01" y1="5735.48" x2="83.01" y2="5626.11" gradientTransform="matrix(1, 0, 0, -1, 0, 5778.35)" gradientUnits="userSpaceOnUse"><stop offset="0" stop-color="#4dba71"/><stop offset="1" stop-color="#008c2e"/></linearGradient><linearGradient id="Unbenannter_Verlauf_2-2" x1="126.65" y1="5742.67" x2="156.27" y2="5742.67" xlink:href="#Unbenannter_Verlauf_2"/><linearGradient id="Unbenannter_Verlauf_6" x1="122.75" y1="5694.01" x2="162.4" y2="5694.01" gradientTransform="matrix(1, 0, 0, -1, 0, 5778.35)" gradientUnits="userSpaceOnUse"><stop offset="0" stop-color="#b3e1c2"/><stop offset="1" stop-color="#66c485"/></linearGradient><linearGradient id="Unbenannter_Verlauf_6-2" x1="103.76" y1="5660.35" x2="103.76" y2="5620.73" xlink:href="#Unbenannter_Verlauf_6"/><linearGradient id="Unbenannter_Verlauf_6-3" x1="82.84" y1="5680.62" x2="43.2" y2="5680.62" xlink:href="#Unbenannter_Verlauf_6"/><linearGradient id="Unbenannter_Verlauf_6-4" x1="14.18" y1="5740.83" x2="14.18" y2="5701.21" xlink:href="#Unbenannter_Verlauf_6"/></defs><g id="Pricetag"><path class="cls-1" d="M98.82,152.24c-8,0-21.29-1.7-32.48-11.23-11.41-9.73-17.2-24.46-17.2-43.77,0-8.21-2.15-14.1-6.57-18-8.63-7.62-24.81-7.52-30.32-6.83l-3.8-29c3.34-.45,33.21-3.83,53.32,13.77,7.57,6.63,16.61,19,16.61,40.05,0,10.27,2.29,17.48,6.82,21.42,6,5.23,15.21,4.32,16.17,4.21l2.4-.43,1.78.4c1.13.1,9.93.66,15.79-4.51,4.53-4,6.88-11.14,7-21.19l29.24.31c-.2,18.92-6,33.43-17.27,43.14-13.68,11.79-30.43,11.87-36.54,11.44C102.52,152.14,100.84,152.24,98.82,152.24Z"/><path class="cls-2" d="M156.27,1H126.65V70.41h29.62Z"/><path class="cls-3" d="M161,98.51H124.11a1.35,1.35,0,0,1-1.36-1.35l1.83-25.65a1.35,1.35,0,0,1,1.35-1.35h33.29a1.34,1.34,0,0,1,1.35,1.35l1.83,25.65A1.35,1.35,0,0,1,161,98.51Z"/><path class="cls-4" d="M89.58,156.27V119.35A1.35,1.35,0,0,1,90.93,118l25.66,1.83a1.35,1.35,0,0,1,1.36,1.35v33.27a1.35,1.35,0,0,1-1.36,1.35l-25.66,1.83A1.34,1.34,0,0,1,89.58,156.27Z"/><path class="cls-5" d="M44.55,83.55H81.48a1.35,1.35,0,0,1,1.36,1.35L81,110.55a1.34,1.34,0,0,1-1.35,1.35H46.38A1.35,1.35,0,0,1,45,110.55L43.2,84.9A1.35,1.35,0,0,1,44.55,83.55Z"/><path class="cls-6" d="M0,75.79V38.87a1.35,1.35,0,0,1,1.35-1.36L27,39.34a1.34,1.34,0,0,1,1.35,1.35V74A1.34,1.34,0,0,1,27,75.31L1.35,77.14A1.34,1.34,0,0,1,0,75.79Z"/></g></svg>