<svg xmlns="http://www.w3.org/2000/svg" xmlns:xlink="http://www.w3.org/1999/xlink" viewBox="0 0 231.63 172.87"><defs><style>.cls-1{fill:#33b05c;}.cls-2{fill:url(#HDI_Verlauf_mittel);}.cls-3{fill:#b3e1c2;}.cls-4{fill:#66c485;}.cls-5{fill:#80ce99;}.cls-6{fill:#4dba71;}</style><linearGradient id="HDI_Verlauf_mittel" x1="43.11" y1="23.62" x2="231.63" y2="23.62" gradientUnits="userSpaceOnUse"><stop offset="0" stop-color="#b3e1c2"/><stop offset="1" stop-color="#4dba71"/></linearGradient></defs><g id="Pricetag"><path class="cls-1" d="M0,107.57S1.8,97,20.65,97c0,0-1.79-18,25.14-18,0,0,2.69-13.74,19.75-13.74,14.37,0,17.06,11.62,17.06,11.62s13.47-5.28,24.25,0,9.87,16.92,9.87,16.92,20.65-2.12,20.65,13.74Z"/><path class="cls-2" d="M43.31,47.25S40.62,33.81,55,29.32,71.1,32.91,71.1,32.91,68.28,18.73,82.75,16.78c12.43-1.69,14.34,6.27,14.34,6.27s3.58-23,33.16-23S165.2,23.05,165.2,23.05s13.45-7.17,23.3-1.79,8.07,12.55,8.07,12.55,19.72-4.49,28.68,4.48c7.74,7.73,6.27,9,6.27,9Z"/><polygon class="cls-3" points="64.28 122.58 50.03 122.58 43.33 154.43 51.71 152.33 43.75 172.87 62.6 144.79 53.38 144.79 64.28 122.58"/><polygon class="cls-4" points="86.5 114.44 75.39 114.44 70.16 139.28 76.7 137.65 70.49 153.66 85.19 131.76 78 131.76 86.5 114.44"/><path class="cls-5" d="M132.19,65.29s-11.92,18.65-.1,18.71S132.19,65.29,132.19,65.29Z"/><path class="cls-6" d="M144.91,119.81s-11.92,18.65-.1,18.72S144.91,119.81,144.91,119.81Z"/><path class="cls-5" d="M162.23,84.61s-11.92,18.66-.1,18.72S162.23,84.61,162.23,84.61Z"/><path class="cls-6" d="M107.27,51.29s-8.92,13.95-.08,14S107.27,51.29,107.27,51.29Z"/><path class="cls-6" d="M189.56,65.29s-8.92,13.95-.07,14S189.56,65.29,189.56,65.29Z"/><path class="cls-5" d="M162.22,51.29s-8.92,13.95-.08,14S162.22,51.29,162.22,51.29Z"/><path class="cls-5" d="M189.56,105.81s-8.92,14-.07,14S189.56,105.81,189.56,105.81Z"/></g></svg>