<svg xmlns="http://www.w3.org/2000/svg" xmlns:xlink="http://www.w3.org/1999/xlink" viewBox="0 0 231.63 172.87"><defs><style>.cls-1{fill:#66c485;}.cls-2{fill:url(#HDI_Verlauf_dunkel);}.cls-3{fill:#fff;}.cls-4{fill:url(#HDI_Verlauf_dunkel-2);}.cls-5{fill:#4dba71;}.cls-6{fill:#80ce99;}.cls-7{fill:#99d7ad;}.cls-8{fill:#b3e1c2;}.cls-9{fill:url(#HDI_Verlauf_dunkel-3);}.cls-10{fill:url(#HDI_Verlauf_dunkel-4);}.cls-11{fill:url(#HDI_Verlauf_dunkel-5);}</style><linearGradient id="HDI_Verlauf_dunkel" x1="20.34" y1="84.88" x2="68.94" y2="84.88" gradientTransform="translate(-24.13 -50.07) rotate(-11.47)" gradientUnits="userSpaceOnUse"><stop offset="0" stop-color="#4dba71"/><stop offset="1" stop-color="#007d29"/></linearGradient><linearGradient id="HDI_Verlauf_dunkel-2" x1="173.47" y1="72.87" x2="195.83" y2="72.87" gradientTransform="translate(-8.31 26.24) rotate(-7.95)" xlink:href="#HDI_Verlauf_dunkel"/><linearGradient id="HDI_Verlauf_dunkel-3" x1="103.01" y1="74.79" x2="111.68" y2="74.79" gradientTransform="matrix(1, 0, 0, 1, 0, 0)" xlink:href="#HDI_Verlauf_dunkel"/><linearGradient id="HDI_Verlauf_dunkel-4" x1="176.38" y1="31.97" x2="204.17" y2="31.97" gradientTransform="matrix(1, 0, 0, 1, 0, 0)" xlink:href="#HDI_Verlauf_dunkel"/><linearGradient id="HDI_Verlauf_dunkel-5" x1="164.67" y1="115.5" x2="192.45" y2="115.5" gradientTransform="matrix(1, 0, 0, 1, 0, 0)" xlink:href="#HDI_Verlauf_dunkel"/></defs><g id="Pricetag"><path class="cls-1" d="M56.56,119.5l-2.42.49c-2.7.55-5.52-2.26-6.26-6.23L33.38,36.13c-.72-3.84.79-7.33,3.4-7.85h0c2.61-.53,5.36,2.09,6.2,5.9L59.9,111.32C60.76,115.26,59.25,119,56.56,119.5Z"/><path class="cls-2" d="M59.05,19.09c-8.34,1.69-12.27-1.17-16-6.53l-29.56,6A2.86,2.86,0,0,0,11.25,22l2.89,14.23a2.86,2.86,0,0,0,3.34,2.27L59.57,29.9a2.85,2.85,0,0,0,2.19-3.39L60.32,19.4C60.18,19.06,59.44,19,59.05,19.09Z"/><circle class="cls-3" cx="53.61" cy="111.2" r="2.47"/><rect class="cls-4" x="178.04" y="39.35" width="13.22" height="67.03" transform="translate(11.86 -24.84) rotate(7.95)"/><rect class="cls-5" x="126.45" y="31.68" width="8.67" height="9.3" rx="2" transform="translate(6.3 -17.79) rotate(7.97)"/><rect class="cls-6" x="119.78" y="46.35" width="8.67" height="75.15" transform="translate(12.84 -16.4) rotate(7.97)"/><polygon class="cls-7" points="114.61 120.54 117.79 129.1 123.2 121.75 114.61 120.54"/><rect class="cls-8" x="125.56" y="38.6" width="8.67" height="8.16" transform="translate(7.18 -17.6) rotate(7.97)"/><rect class="cls-5" x="103.01" y="22.08" width="8.67" height="9.3" rx="2"/><rect class="cls-9" x="103.01" y="37.22" width="8.67" height="75.15"/><path class="cls-8" d="M0,57V68.78s33,2.46,47.81,2.46S90.19,68,90.19,68V57A304.47,304.47,0,0,1,47.31,60.1,422.35,422.35,0,0,1,0,57Z"/><path class="cls-8" d="M141.45,57V68.78s33,2.46,47.8,2.46,42.38-3.45,42.38-3.45V57a304.41,304.41,0,0,1-42.87,3.15A422.11,422.11,0,0,1,141.45,57Z"/><path class="cls-1" d="M90.19,57V68s18.77,2.31,27.17,2.31,24.09-1.54,24.09-1.54V57a107.18,107.18,0,0,1-24.37,2.95A147.81,147.81,0,0,1,90.19,57Z"/><polygon class="cls-7" points="103.01 112.37 107.34 120.41 111.68 112.37 103.01 112.37"/><rect class="cls-7" x="103.01" y="29.06" width="8.67" height="8.16"/><path class="cls-10" d="M196.79,19.55l-1.6,11.52a4.76,4.76,0,0,1-9.43-1.32l1.61-11.51a13.89,13.89,0,1,0,9.42,1.31Z"/><path class="cls-11" d="M180.48,101.9a13.89,13.89,0,0,0-8.43,26l1.6-11.52a4.76,4.76,0,0,1,9.43,1.32l-1.61,11.51a13.88,13.88,0,0,0-1-27.33Z"/></g></svg>