<?xml version="1.0" encoding="utf-8"?>
<!-- Generator: Adobe Illustrator 24.2.0, SVG Export Plug-In . SVG Version: 6.00 Build 0)  -->
<svg version="1.1" id="Ebene_1" xmlns="http://www.w3.org/2000/svg" xmlns:xlink="http://www.w3.org/1999/xlink" x="0px" y="0px"
	 viewBox="0 0 344 138.2" style="enable-background:new 0 0 344 138.2;" xml:space="preserve">
<style type="text/css">
	.st0{fill-rule:evenodd;clip-rule:evenodd;fill:#006B29;}
	.st1{fill-rule:evenodd;clip-rule:evenodd;fill:#E4000A;}
</style>
<g>
	<path class="st0" d="M199.7,100.3V37.8h7.6c20.8,0,34.2,9.4,34.2,31v0.4c0,21.6-13.4,31-34.2,31H199.7z M154.2,138.2h50.5
		c55,0,82.6-29,82.6-69.9v-0.4c0-40.9-27-67.9-81-67.9h-52.1V138.2z"/>
	<path class="st0" d="M298.6,138.2H344V0h-45.4V138.2z"/>
	<path class="st0" d="M0,138.2h45.4V0H0V138.2z"/>
	<path class="st0" d="M90.8,138.2h45.3V0H90.8V138.2z"/>
	<path class="st1" d="M45.4,92.1h45.4V46.1H45.4V92.1z"/>
</g>
</svg>
