<svg width="669" height="630" viewBox="0 0 669 630" fill="none" xmlns="http://www.w3.org/2000/svg">
<path d="M668.882 606.448H0V629.6H668.882V606.448Z" fill="#33B05C"/>
<path d="M668.882 307.639H0V330.791H668.882V307.639Z" fill="#009C33"/>
<path d="M636.686 107.409H32.1963V130.561H636.686V107.409Z" fill="#4DBA71"/>
<path d="M648.805 330.791H20.0774V606.448H648.805V330.791Z" fill="#66C485"/>
<path d="M558.367 176.865L334.441 210.87H81.9372L0 307.639H334.441H668.882L558.367 176.865Z" fill="url(#paint0_linear)"/>
<path d="M623.301 130.561H45.7613V254.643H623.301V130.561Z" fill="#B3E1C2"/>
<path d="M546.248 0.872314H122.635L32.1963 107.951H334.441H636.686L546.248 0.872314Z" fill="url(#paint1_linear)"/>
<path d="M334.44 17.1512L207.827 130.561V254.642H334.44H461.054V130.561L334.44 17.1512Z" fill="#80CE99"/>
<path d="M68.3714 330.791H12.6613V352.677H68.3714V330.791Z" fill="#99D7AD"/>
<path d="M68.3714 584.562H12.6613V606.448H68.3714V584.562Z" fill="#99D7AD"/>
<path d="M59.8703 352.678H20.0774V584.562H59.8703V352.678Z" fill="#B3E1C2"/>
<path d="M245.631 330.791H189.921V352.677H245.631V330.791Z" fill="#99D7AD"/>
<path d="M245.631 584.562H189.921V606.448H245.631V584.562Z" fill="#99D7AD"/>
<path d="M237.13 352.678H197.337V584.562H237.13V352.678Z" fill="#B3E1C2"/>
<path d="M481.132 330.791H425.422V352.677H481.132V330.791Z" fill="#99D7AD"/>
<path d="M481.132 584.562H425.422V606.448H481.132V584.562Z" fill="#99D7AD"/>
<path d="M472.631 352.678H432.839V584.562H472.631V352.678Z" fill="#B3E1C2"/>
<path d="M658.392 330.791H602.682V352.677H658.392V330.791Z" fill="#99D7AD"/>
<path d="M658.392 584.562H602.682V606.448H658.392V584.562Z" fill="#99D7AD"/>
<path d="M649.89 352.678H610.097V584.562H649.89V352.678Z" fill="#B3E1C2"/>
<path d="M392.501 395.726H278.368V607.171H392.501V395.726Z" fill="#33B05C"/>
<path d="M378.756 410.196H292.297V488.154H378.756V410.196Z" fill="#B3E1C2"/>
<path d="M378.756 517.275H292.297V595.233H378.756V517.275Z" fill="#B3E1C2"/>
<path d="M378.575 498.645H354.156V506.242H378.575V498.645Z" fill="#007D29"/>
<path d="M176.715 381.98H82.6589V503.529H176.715V381.98Z" fill="white"/>
<path d="M182.141 503.71H77.7749V516.552H182.141V503.71Z" fill="#33B05C"/>
<path d="M132.904 503.661L132.904 381.389H125.669L125.669 503.661H132.904Z" fill="#33B05C"/>
<path d="M82.5895 446.104H176.645V438.869H82.5895V446.104Z" fill="#33B05C"/>
<path d="M588.211 381.98H494.156V503.529H588.211V381.98Z" fill="white"/>
<path d="M593.637 503.71H489.272V516.552H593.637V503.71Z" fill="#33B05C"/>
<path d="M544.385 503.677V381.404H537.15V503.677H544.385Z" fill="#33B05C"/>
<path d="M494.054 446.104H588.11V438.869H494.054V446.104Z" fill="#33B05C"/>
<path d="M335.527 95.6517C312.193 95.6517 293.201 113.739 293.201 135.806V192.782H377.671V135.806C377.852 113.739 358.86 95.6517 335.527 95.6517Z" fill="white"/>
<path d="M293.378 140.153H377.847V132.918H293.378V140.153Z" fill="#33B05C"/>
<path d="M383.278 193.144H287.594V205.987H383.278V193.144Z" fill="#33B05C"/>
<defs>
<linearGradient id="paint0_linear" x1="0.000322257" y1="242.203" x2="668.94" y2="242.203" gradientUnits="userSpaceOnUse">
<stop offset="1.68566e-05" stop-color="#4DBA71"/>
<stop offset="0.9989" stop-color="#007D29"/>
</linearGradient>
<linearGradient id="paint1_linear" x1="32.2233" y1="54.4214" x2="636.717" y2="54.4214" gradientUnits="userSpaceOnUse">
<stop offset="1.68566e-05" stop-color="#4DBA71"/>
<stop offset="0.9989" stop-color="#007D29"/>
</linearGradient>
</defs>
</svg>
