<?xml version="1.0" encoding="utf-8"?>
<!-- Generator: Adobe Illustrator 24.1.3, SVG Export Plug-In . SVG Version: 6.00 Build 0)  -->
<svg version="1.1" xmlns="http://www.w3.org/2000/svg" xmlns:xlink="http://www.w3.org/1999/xlink" x="0px" y="0px"
	 viewBox="0 0 1440 2763.3" style="enable-background:new 0 0 1440 2763.3;" xml:space="preserve">
<style type="text/css">
	.st0{display:none;}
	.st1{fill:none;stroke:#E6F5EB;stroke-width:47;stroke-linecap:round;stroke-linejoin:round;stroke-miterlimit:10;}
	.st2{display:inline;}
	.st3{fill:none;stroke:#CCEBD6;stroke-width:7;stroke-miterlimit:10;stroke-dasharray:67;}
	.st4{display:inline;fill:#1F906D;}
	.st5{display:inline;fill:#92C094;}
	.st6{fill:#CCEBD6;}
	.st7{fill:#B3E1C2;}
	.st8{fill:url(#SVGID_1_);}
	.st9{fill:none;stroke:#80CE99;stroke-width:1.5;stroke-linecap:round;stroke-miterlimit:10;}
	.st10{fill:url(#SVGID_2_);}
	.st11{fill:none;stroke:#66C485;stroke-width:1.5;stroke-linecap:round;stroke-miterlimit:10;}
	.st12{fill:url(#SVGID_3_);}
	.st13{fill:url(#SVGID_4_);}
	.st14{fill:url(#SVGID_5_);}
	.st15{fill:#99D7AD;}
	.st16{fill:#66C485;}
	.st17{fill:url(#SVGID_6_);}
	.st18{fill:url(#SVGID_7_);}
	.st19{fill:url(#SVGID_8_);}
	.st20{fill:url(#SVGID_9_);}
	.st21{fill:url(#SVGID_10_);}
	.st22{fill:#80CE99;}
	.st23{fill:#FFFFFF;}
	.st24{fill:#4DBA71;}
	.st25{fill:#1F906D;}
	.st26{fill:#33B05C;}
	.st27{fill:url(#SVGID_11_);}
	.st28{fill:url(#SVGID_12_);}
	.st29{fill:url(#SVGID_13_);}
	.st30{fill:url(#SVGID_14_);}
	.st31{fill:url(#SVGID_15_);}
	.st32{fill:url(#SVGID_16_);}
	.st33{fill:url(#SVGID_17_);}
	.st34{fill:url(#SVGID_18_);}
	.st35{fill:#E6F5EB;}
	.st36{fill:url(#SVGID_19_);}
	.st37{fill:url(#SVGID_20_);}
	.st38{fill:#C1D6BC;}
	.st39{fill:url(#SVGID_21_);}
	.st40{fill:url(#SVGID_22_);}
	.st41{fill:url(#SVGID_23_);}
	.st42{fill:url(#SVGID_24_);}
	.st43{fill:#33B05C;stroke:#28AF7E;stroke-miterlimit:10;}
	.st44{fill:url(#SVGID_25_);}
	.st45{fill:url(#SVGID_26_);}
	.st46{display:inline;fill:#80CE99;}
	.st47{display:inline;fill:#009C33;}
	.st48{fill:#76C4FF;}
	.st49{display:none;fill:none;stroke:#C1D6BC;stroke-width:21;stroke-linecap:round;stroke-linejoin:round;stroke-miterlimit:10;}
	.st50{fill:none;stroke:#80CE99;stroke-width:21;stroke-linecap:round;stroke-linejoin:round;stroke-miterlimit:10;}
	.st51{fill:none;stroke:#C1D6BC;stroke-width:21;stroke-linecap:round;stroke-linejoin:round;stroke-miterlimit:10;}
	.st52{fill:url(#SVGID_27_);}
	.st53{fill:url(#SVGID_28_);}
	.st54{fill:url(#SVGID_29_);}
	.st55{fill:url(#SVGID_30_);}
	.st56{fill:url(#SVGID_31_);}
	.st57{fill:url(#SVGID_32_);}
	.st58{fill:#009C33;}
	.st59{fill:url(#SVGID_33_);}
	.st60{fill:#FFE75A;}
	.st61{fill:#FF9632;}
	.st62{fill:url(#SVGID_34_);}
	.st63{fill:url(#SVGID_35_);}
	.st64{fill:url(#SVGID_36_);}
	.st65{display:none;fill:#B3E1C2;}
	.st66{display:none;fill:#80CE99;}
	.st67{fill:url(#SVGID_37_);}
	.st68{fill:url(#SVGID_38_);}
	.st69{fill:url(#SVGID_39_);}
	.st70{fill:#E5E5E5;}
	.st71{fill:url(#SVGID_40_);}
	.st72{fill:url(#SVGID_41_);}
	.st73{fill:url(#SVGID_42_);}
	.st74{fill:url(#SVGID_43_);}
	.st75{fill:url(#SVGID_44_);}
	.st76{fill:none;stroke:#B3B3B3;stroke-width:2;stroke-linecap:round;stroke-miterlimit:10;}
	.st77{fill:url(#SVGID_45_);}
	.st78{fill:url(#SVGID_46_);}
	.st79{display:inline;fill:#99D7AD;}
	.st80{display:inline;fill:#4DBA71;}
	.st81{fill:url(#SVGID_47_);}
	.st82{fill:url(#SVGID_48_);}
	.st83{fill:#008C2E;}
	.st84{fill:url(#SVGID_49_);}
	.st85{fill:none;stroke:#66C485;stroke-width:2;stroke-miterlimit:10;}
	.st86{fill:none;stroke:#66C485;stroke-width:2;stroke-linecap:round;stroke-miterlimit:10;}
	.st87{display:inline;fill:none;stroke:#66C485;stroke-width:2;stroke-linecap:round;stroke-miterlimit:10;}
	.st88{display:inline;fill:none;stroke:#66C485;stroke-width:2;stroke-miterlimit:10;}
	.st89{display:inline;fill:#FFE75A;}
	.st90{display:inline;fill:#FF9632;}
	.st91{fill:url(#SVGID_50_);}
	.st92{fill:url(#SVGID_51_);}
	.st93{fill:url(#SVGID_52_);}
	.st94{display:inline;fill:none;}
	.st95{font-family:'HDI-GerlingSansCond-Black';}
	.st96{font-size:43px;}
	.st97{font-family:'HDI-GerlingSansCond-Light';}
	.st98{font-size:26px;}
	.st99{fill-rule:evenodd;clip-rule:evenodd;fill:#FF9632;}
	.st100{display:inline;fill:#FFFFFF;}
	.st101{font-family:'HDI-GerlingSansCond-Bold';}
	.st102{font-size:18px;}
	.st103{font-size:30px;}
	.st104{font-size:16px;}
	.st105{font-size:20px;}
	.st106{display:inline;fill-rule:evenodd;clip-rule:evenodd;fill:none;stroke:#009C33;stroke-width:2;stroke-miterlimit:10;}
	.st107{fill-rule:evenodd;clip-rule:evenodd;fill:#FF7200;}
	.st108{display:inline;fill-rule:evenodd;clip-rule:evenodd;fill:#006B2D;}
	
		.st109{display:inline;fill-rule:evenodd;clip-rule:evenodd;fill:none;stroke:#FFFFFF;stroke-width:2;stroke-linecap:round;stroke-linejoin:round;stroke-miterlimit:10;}
	.st110{fill-rule:evenodd;clip-rule:evenodd;fill:#009C33;}
	.st111{fill-rule:evenodd;clip-rule:evenodd;fill:#007D29;}
	.st112{fill:#E60018;}
	.st113{fill:url(#SVGID_53_);}
	.st114{fill:none;stroke:#009C33;stroke-width:6;stroke-miterlimit:10;}
	.st115{fill:none;stroke:#80CE99;stroke-width:6;stroke-miterlimit:10;}
	.st116{fill:url(#SVGID_54_);}
	.st117{fill:url(#SVGID_55_);}
	.st118{fill:url(#SVGID_56_);}
	.st119{fill:url(#SVGID_57_);}
	.st120{font-size:14px;}
	.st121{display:inline;fill:none;stroke:#FF7200;stroke-width:4;stroke-miterlimit:10;}
	.st122{fill:none;stroke:#FF7200;stroke-miterlimit:10;stroke-dasharray:4;}
	.st123{fill:url(#SVGID_58_);}
	.st124{font-family:'HDI-GerlingSansCond-Regular';}
	.st125{font-size:10px;}
	.st126{fill:#FF7200;}
	.st127{fill:url(#SVGID_59_);}
	.st128{fill:url(#SVGID_60_);}
	.st129{font-size:16.3135px;}
	.st130{font-size:10.1959px;}
	.st131{fill:none;}
	.st132{fill:url(#SVGID_61_);}
	.st133{fill:url(#SVGID_62_);}
	.st134{fill:url(#SVGID_63_);}
	.st135{fill:url(#SVGID_64_);}
	.st136{fill:url(#SVGID_65_);}
</style>
<g id="Ebene_71" class="st0">
	
		<image style="overflow:visible;" width="722" height="860" xlink:href="C633B635E22DAA87.png"  transform="matrix(1.9927 0 0 1.9927 -0.7177 -96.518)">
	</image>
</g>
<g id="Background" class="st0">
</g>
<g id="Straße">
	<path id="Straße_2_" class="st1" d="M684,348.6h538.9c0,0,130.2-8,130.2,95c0,107.5-90.6,105.5-134.1,105.5c0,0-378.3,1-391.6,1
		c-24.7,0-108.7-4.8-108.7,83.2l-4.5,538.3c0,0-0.4,100.9-97.5,100.9s-372.2,0-402.4,0c-21.9,0-124.9,2.7-124.9,104.5
		c0,88.3,85.9,105.3,131.3,105.3c26.6,0,817.9,0,857.9,0c98,0,274.1,20.7,274.1,254.5c0,208.2-157.2,230.9-277.9,230.9
		c-26.4,0,72.5,0-353,0c0,0-299.3,0-316.5,0c-17.1,0-239.2-15.8-239.2,189.1c0,119.3,0,191.5,0,286c0,159.8,129.8,210.8,274.7,210.8
		c141.5,0,991.3,0,991.3,0"/>
	<g id="Straßenstreifen" class="st0">
		<g id="Ebene_72" class="st2">
		</g>
		<g id="Ebene_73" class="st2">
		</g>
	</g>
</g>
<g id="Ebene_75">
	<path id="Straße_1_" class="st3" d="M684,348.6h538.9c0,0,130.2-8,130.2,95c0,107.5-90.6,105.5-134.1,105.5c0,0-378.3,1-391.6,1
		c-24.7,0-108.7-4.8-108.7,83.2l-4.5,538.3c0,0-0.4,100.9-97.5,100.9s-372.2,0-402.4,0c-21.9,0-124.9,2.7-124.9,104.5
		c0,88.3,85.9,105.3,131.3,105.3c26.6,0,817.9,0,857.9,0c98,0,274.1,20.7,274.1,254.5c0,208.2-157.2,230.9-277.9,230.9
		c-26.4,0,72.5,0-353,0c0,0-299.3,0-316.5,0c-17.1,0-239.2-15.8-239.2,189.1c0,119.3,0,191.5,0,286c0,159.8,129.8,210.8,274.7,210.8
		c141.5,0,991.3,0,991.3,0"/>
</g>
<g id="Streifen">
</g>
<g id="Haus_Wasser" class="st0">
	<g>
		<path class="st4" d="M1289.6,233.8l-22.1-38.3c-2-3.5-6.4-4.7-9.9-2.7c-1.1,0.6-2,1.5-2.6,2.5c0,0,0,0.1-0.1,0.1l0,0l-22.1,38.3
			c-2,3.5-0.8,7.9,2.7,9.9c1.1,0.6,2.4,1,3.6,1h44.2c4,0,7.2-3.2,7.3-7.2C1290.6,236.1,1290.3,234.9,1289.6,233.8z M1286.7,239.3
			c-0.7,1.2-2,1.9-3.3,1.9h-44.2c-2.1,0-3.8-1.7-3.8-3.8c0-0.7,0.2-1.3,0.5-1.9l22.1-38.3l0,0c1.1-1.8,3.4-2.5,5.2-1.4
			c0.6,0.3,1.1,0.8,1.4,1.4l22.1,38.3C1287.4,236.6,1287.4,238.1,1286.7,239.3L1286.7,239.3z"/>
		<path class="st5" d="M1264.4,211.7v14c0,0.6-0.5,1.1-1.1,1.1h-4.1c-0.6,0-1.1-0.5-1.1-1.1v-14c0-0.6,0.5-1.1,1.1-1.1h4.1
			C1263.9,210.6,1264.5,211.1,1264.4,211.7L1264.4,211.7z M1264.4,230.9v3c0,0.6-0.5,1.1-1.1,1.1h-4.1c-0.6,0-1.1-0.5-1.1-1.1v-3
			c0-0.6,0.5-1.1,1.1-1.1h4.1C1263.9,229.8,1264.5,230.3,1264.4,230.9L1264.4,230.9z"/>
	</g>
	<g id="Pflanzen" class="st2">
		<path class="st6" d="M886.4,450.5c0,0-0.6-27.5,14.6-37.5c15.2-10,15.5-23.9,15.5-23.9s7.4,8.4,5.2,17.1
			c-2.3,8.7-11.3,13.9-9.1,18.4c2.3,4.5,6.8-0.3,8.4,3.6c1.6,3.9,1.9,12.3-4.2,21.7c-6.1,9.4-18.1,80.5-18.1,80.5l-5.8-0.3
			L886.4,450.5z"/>
		<path class="st7" d="M903.6,530.1c0,0,7.5-11.9,17.2-11.3c10,0.6,18.1-14.9,17.8-19.1c-0.6-7.4-6.1-3.9-10.3-4.9s-1.6-4.9,2.3-7.1
			c3.9-2.3,18.1-12.6,15.2-19.7c-2.9-7.1-7.8-1.9-9.1-2.9s2.6-9.1,3.6-12c1-2.9,4.2-13.9-5.2-13.6s-8.1,13.9-11.6,13.6
			s-3.2-9.7-8.7-7.4s-9.7,6.5-9.7,14.6s-1.9,10.7-3.2,9.7c-1.3-1-0.2-3.8-2.6-5.2c-3.2-1.9-9.5-2.6-11.6,16.5
			c-1.9,17.1,5.5,21.3,7.4,30.4c0.8,3.8,0.5,19.3,0.5,19.3L903.6,530.1z"/>
		<linearGradient id="SVGID_1_" gradientUnits="userSpaceOnUse" x1="892.0745" y1="531.6068" x2="846.7994" y2="394.4881">
			<stop  offset="1.685657e-05" style="stop-color:#B3E1C2"/>
			<stop  offset="0.9989" style="stop-color:#66C485"/>
		</linearGradient>
		<path class="st8" d="M891.4,531.4c0,0-43.9-36.9-49.1-66.3c-5.2-29.4,4.5-65.6,4.5-65.6s41.4,19.4,46.2,52.1
			c4.9,32.7,4.5,79.2,4.5,79.2L891.4,531.4z"/>
		<g>
			<path class="st9" d="M900,527.8c0,0,4.3-31.3,10.8-41.7c6.5-10.3,20.7-32.8,20.7-32.8"/>
			<line class="st9" x1="920.3" y1="470.2" x2="918" y2="458.6"/>
			<path class="st9" d="M912.2,483.8c0,0,15.2-1.6,20.4-8.7"/>
			<path class="st9" d="M905.7,498.4c0,0-6.8-10.3-6.5-17.5"/>
		</g>
		<path class="st6" d="M1230.5,530.3c0,0-16.1-16.7-18.5-56.5c-2.4-39.8,3.9-39.4,4-57.1c0.2-17.7-4.3-24.5-4.3-24.5
			s23.3,12.4,25.6,51.1c2.3,38.7-0.7,86.3-0.7,86.3L1230.5,530.3z"/>
		<g>
			<path class="st7" d="M1240.1,529.1c0,0,43.6-33.6,49.2-69c5.6-35.4,8.7-57.3,8.7-57.3s-34,16.9-45.1,36.6
				c-10.5,18.5-19.3,37.4-18.6,75.8l0.7,14.7C1234.8,529.8,1238.7,529.4,1240.1,529.1z"/>
			<path class="st9" d="M1289.8,417c0,0-45.3,67.1-48.8,93.5"/>
			<line class="st9" x1="1284.7" y1="447.7" x2="1263.5" y2="460.2"/>
			<line class="st9" x1="1272.5" y1="444.2" x2="1274.2" y2="425.8"/>
		</g>
		<linearGradient id="SVGID_2_" gradientUnits="userSpaceOnUse" x1="1234.4949" y1="528.0203" x2="1256.9998" y2="423.2118">
			<stop  offset="1.685657e-05" style="stop-color:#B3E1C2"/>
			<stop  offset="0.9989" style="stop-color:#66C485"/>
		</linearGradient>
		<path class="st10" d="M1232.3,530.1c0,0-10.4-39.3,3-60.3c13.4-21.1,21.5-66,21.5-66s7.6,38.5,1.7,76.5
			c-2.8,18.6-9.2,33.4-19.8,49.1L1232.3,530.1z"/>
		<g>
			<path class="st11" d="M893.8,528.2c0,0-31.7-41.4-40.3-110.8"/>
			<path class="st11" d="M875,437.7c0,0-9.9,19-8.6,33.6"/>
			<path class="st11" d="M854.3,478.7c0,0,6.9,9.1,19,13.8"/>
			<path class="st11" d="M847.4,439.9c0,0,4.7,9.1,13.4,15.1"/>
		</g>
	</g>
	<g id="Haus" class="st2">
		<g id="Ebene_10">
			<linearGradient id="SVGID_3_" gradientUnits="userSpaceOnUse" x1="678.1955" y1="200.1485" x2="854.7913" y2="200.1485">
				<stop  offset="1.685657e-05" style="stop-color:#4DBA71"/>
				<stop  offset="0.9989" style="stop-color:#007D29"/>
			</linearGradient>
			<polygon class="st12" points="838.5,230.6 678.2,230.6 726.8,169.7 854.8,169.7 854.8,217.2 838.7,217.2 			"/>
			<polygon class="st7" points="687,230.6 837.6,230.2 837.6,324.9 686.6,324.9 			"/>
			<rect x="700.4" y="251" class="st15" width="123.5" height="73.9"/>
			<g>
				
					<rect x="761.1" y="195.6" transform="matrix(-1.836970e-16 1 -1 -1.836970e-16 1019.4236 -504.8133)" class="st16" width="2.1" height="123.5"/>
				
					<rect x="761.1" y="188.2" transform="matrix(-1.836970e-16 1 -1 -1.836970e-16 1012.0341 -512.2027)" class="st16" width="2.1" height="123.5"/>
				
					<rect x="761.1" y="202.9" transform="matrix(-1.836970e-16 1 -1 -1.836970e-16 1026.813 -497.4238)" class="st16" width="2.1" height="123.5"/>
				
					<rect x="761.1" y="210.3" transform="matrix(-1.836970e-16 1 -1 -1.836970e-16 1034.2024 -490.0344)" class="st16" width="2.1" height="123.5"/>
				
					<rect x="761.1" y="217.7" transform="matrix(-1.836970e-16 1 -1 -1.836970e-16 1041.5919 -482.6449)" class="st16" width="2.1" height="123.5"/>
				
					<rect x="761.1" y="225.1" transform="matrix(-1.836970e-16 1 -1 -1.836970e-16 1048.9813 -475.2555)" class="st16" width="2.1" height="123.5"/>
				
					<rect x="761.1" y="232.5" transform="matrix(-1.836970e-16 1 -1 -1.836970e-16 1056.3707 -467.8661)" class="st16" width="2.1" height="123.5"/>
				
					<rect x="761.1" y="239.9" transform="matrix(-1.836970e-16 1 -1 -1.836970e-16 1063.7603 -460.4766)" class="st16" width="2.1" height="123.5"/>
				
					<rect x="761.1" y="247.3" transform="matrix(-1.836970e-16 1 -1 -1.836970e-16 1071.1497 -453.0872)" class="st16" width="2.1" height="123.5"/>
				
					<rect x="761.1" y="254.7" transform="matrix(-1.836970e-16 1 -1 -1.836970e-16 1078.5391 -445.6978)" class="st16" width="2.1" height="123.5"/>
				
					<rect x="761.1" y="262.1" transform="matrix(-1.836970e-16 1 -1 -1.836970e-16 1085.9285 -438.3083)" class="st16" width="2.1" height="123.5"/>
			</g>
		</g>
		<g id="Dach">
			<linearGradient id="SVGID_4_" gradientUnits="userSpaceOnUse" x1="827.0399" y1="205.0513" x2="1185.9556" y2="205.0513">
				<stop  offset="1.685657e-05" style="stop-color:#4DBA71"/>
				<stop  offset="0.9989" style="stop-color:#007D29"/>
			</linearGradient>
			<polygon class="st13" points="1186,223.5 1156.4,186.6 854.5,186.6 827,223.5 			"/>
			<linearGradient id="SVGID_5_" gradientUnits="userSpaceOnUse" x1="837.8679" y1="98.176" x2="1174.6152" y2="98.176">
				<stop  offset="1.685657e-05" style="stop-color:#4DBA71"/>
				<stop  offset="0.9989" style="stop-color:#007D29"/>
			</linearGradient>
			<polygon class="st14" points="1174.6,124.6 1146.9,71.8 863.6,71.8 837.9,124.6 			"/>
		</g>
		<g id="Ebene_6">
			<rect x="837.4" y="223.6" class="st22" width="336.9" height="101.3"/>
			<rect x="1008" y="238.3" class="st7" width="39.1" height="86.6"/>
			<g>
				<rect x="864.4" y="238.3" class="st23" width="39.1" height="51.7"/>
				<rect x="882.3" y="238.3" class="st24" width="2.1" height="51.7"/>
				
					<rect x="882.9" y="244.6" transform="matrix(-1.836970e-16 1 -1 -1.836970e-16 1148.0886 -619.7551)" class="st24" width="2.1" height="39.1"/>
			</g>
			<g>
				<rect x="939.3" y="238.3" class="st23" width="39.1" height="51.7"/>
				<rect x="957.3" y="238.3" class="st24" width="2.1" height="51.7"/>
				
					<rect x="957.8" y="244.6" transform="matrix(-1.836970e-16 1 -1 -1.836970e-16 1223.0387 -694.7051)" class="st24" width="2.1" height="39.1"/>
			</g>
			<g>
				<rect x="1077.2" y="238.3" class="st23" width="67.6" height="51.7"/>
				<rect x="1109.9" y="238.3" class="st24" width="2.1" height="51.7"/>
				
					<rect x="1109.9" y="230.4" transform="matrix(-1.836970e-16 1 -1 -1.836970e-16 1375.1052 -846.7717)" class="st24" width="2.1" height="67.6"/>
			</g>
			<rect x="1040.8" y="279.6" class="st16" width="2.1" height="9.5"/>
			<polyline class="st22" points="854.5,186.6 854.5,124.8 917.9,59.7 964.6,107.6 948.2,124.3 948.2,186.7 854.5,186.6 			"/>
			<g>
				<rect x="898.3" y="129.6" class="st23" width="39.1" height="51.7"/>
				<rect x="916.3" y="129.6" class="st24" width="2.1" height="51.7"/>
				
					<rect x="916.8" y="135.9" transform="matrix(-1.836970e-16 1 -1 -1.836970e-16 1073.2906 -762.4177)" class="st24" width="2.1" height="39.1"/>
			</g>
			<rect x="1027.6" y="124.6" class="st22" width="128.8" height="62"/>
			<g>
				<rect x="1063.1" y="129.6" class="st23" width="67.6" height="51.7"/>
				<rect x="1095.9" y="129.6" class="st24" width="2.1" height="51.7"/>
				
					<rect x="1095.9" y="121.7" transform="matrix(-1.836970e-16 1 -1 -1.836970e-16 1252.3512 -941.4783)" class="st24" width="2.1" height="67.6"/>
			</g>
			<rect x="1104" y="55.5" class="st15" width="18.1" height="16.3"/>
		</g>
		<g id="Holzstreben" class="st0">
			<rect x="865" y="256.1" class="st5" width="5" height="91"/>
			<rect x="789" y="256.1" class="st5" width="5" height="91"/>
			<rect x="1103" y="256.1" class="st5" width="5" height="91"/>
			<rect x="938" y="256.1" class="st5" width="5" height="91"/>
			<rect x="990" y="256.1" class="st5" width="5" height="91"/>
			
				<rect x="863.5" y="272.6" transform="matrix(-1.836970e-16 1 -1 -1.836970e-16 1215.6251 -516.3748)" class="st5" width="5" height="154"/>
			
				<rect x="1046.5" y="290.6" transform="matrix(-1.836970e-16 1 -1 -1.836970e-16 1398.6251 -699.3748)" class="st5" width="5" height="118"/>
		</g>
		<polyline class="st26" points="1038.2,186.6 1038,124.3 994.2,77.3 948.2,124.3 948.2,186.6 		"/>
		<g>
			<rect x="973.9" y="129.6" class="st23" width="39.1" height="51.7"/>
			<rect x="991.8" y="129.6" class="st24" width="2.1" height="51.7"/>
			
				<rect x="992.4" y="135.9" transform="matrix(-1.836970e-16 1 -1 -1.836970e-16 1148.8561 -837.9832)" class="st24" width="2.1" height="39.1"/>
		</g>
		<linearGradient id="SVGID_6_" gradientUnits="userSpaceOnUse" x1="941.6713" y1="99.8378" x2="996.2894" y2="99.8378">
			<stop  offset="1.685657e-05" style="stop-color:#4DBA71"/>
			<stop  offset="0.9989" style="stop-color:#007D29"/>
		</linearGradient>
		<polygon class="st17" points="945,127.8 996.3,75.1 993.1,71.9 941.7,124.4 		"/>
		<linearGradient id="SVGID_7_" gradientUnits="userSpaceOnUse" x1="989.9223" y1="99.7821" x2="1044.4071" y2="99.7821">
			<stop  offset="1.110766e-03" style="stop-color:#007D29"/>
			<stop  offset="1" style="stop-color:#4DBA71"/>
		</linearGradient>
		<polygon class="st18" points="1041.1,127.7 989.9,75.1 993.1,71.9 1044.4,124.3 		"/>
		<linearGradient id="SVGID_8_" gradientUnits="userSpaceOnUse" x1="848.1498" y1="90.4214" x2="921.0746" y2="90.4214">
			<stop  offset="1.685657e-05" style="stop-color:#B3E1C2"/>
			<stop  offset="0.9989" style="stop-color:#4DBA71"/>
		</linearGradient>
		<polygon class="st19" points="851.7,127.7 921.1,56.4 917.9,53.1 848.1,124 		"/>
		<linearGradient id="SVGID_9_" gradientUnits="userSpaceOnUse" x1="914.7076" y1="78.7296" x2="964.6553" y2="78.7296">
			<stop  offset="1.110743e-03" style="stop-color:#4DBA71"/>
			<stop  offset="1" style="stop-color:#B3E1C2"/>
		</linearGradient>
		<polygon class="st20" points="961.3,104.3 914.7,56.4 917.9,53.1 964.7,100.9 		"/>
		<g id="Runde_Fenster">
			<circle class="st23" cx="993.6" cy="103.3" r="6.3"/>
			<circle class="st23" cx="917.8" cy="89.5" r="6.3"/>
		</g>
	</g>
	<g id="Mann" class="st2">
		<g id="Ebene_21">
			<path class="st22" d="M980.1,394c0,0-1,15.9-1.6,24.3s14.6,104.6,14.6,104.6l5.1,0.3l1.5-101.4l7.6,39.6c0,0,1.2,44.5,5.2,60.6
				l5.1,0.3c0,0,2.7-56.9,2.1-63.3c-0.6-6.4,0.8-59.2-2.9-64.7C1013.1,388.8,980.1,394,980.1,394L980.1,394"/>
		</g>
		<g id="Ebene_22">
			<path class="st26" d="M1012.7,522.1l-0.7,9.5l13.2,0.9c0,0,5.2-1.7-3.8-4.5l-3.7-5.6L1012.7,522.1z"/>
			<path class="st26" d="M998.2,523.3l0.6,7.8c0,0-9.6,3.6-11.5,3c-5-1.4,3.5-6.1,3.5-6.1l2.4-5.1L998.2,523.3z"/>
		</g>
		<g id="Ebene_19">
			<path class="st35" d="M991.4,340.8c0,0,3.8-11.2,3-14.5c-0.8-3.3,9,2.7,9,2.7s-0.6,8.4,1.3,10.7c1.9,2.3-1.9,12.6-5.8,10.2
				C995,347.4,991.4,340.8,991.4,340.8z"/>
			<path class="st35" d="M990.7,321.7c0,0,7.4,11.1,13.6,9.4c6.3-1.7,5.3-24.4,5.3-24.4l-12.3-5.7l-6.5,4.8l-4.6,7.1L990.7,321.7z"
				/>
			<path class="st35" d="M971.2,366.9l-2.1,14.7c0,0-0.3,4.2,1.6,6.5c1.9,2.3,10.9,18.8,10.9,18.8s-1.2,3.1-0.4,5.3
				c0.9,2.2,5.6-7,5.6-7s-0.9-1.1-2-1.2l-8.2-21.2l4.1-14.5L971.2,366.9z"/>
			<path class="st35" d="M1016.1,368l2.5,8.6l-5.9,25c0,0-1-0.1-2.1,0.9c-1.1,1,5.8,4.6,5.8,4.6l0.2-3.2l6.4-18.6
				c0,0,2.6-8.3,2.8-10.4c0.1-2.1-2.2-12.9-2.2-12.9L1016.1,368z"/>
		</g>
		<g id="Ebene_20">
			<linearGradient id="SVGID_10_" gradientUnits="userSpaceOnUse" x1="998.1863" y1="400.7229" x2="998.1863" y2="342.1807">
				<stop  offset="1.685657e-05" style="stop-color:#B3E1C2"/>
				<stop  offset="0.9989" style="stop-color:#4DBA71"/>
			</linearGradient>
			<path class="st21" d="M992.1,338.7c0,0-9.9,2.9-13.1,4.8s-10,25.4-10,25.4l13.1,3l2.7-9.3l-4,29.8c-0.2,1.5,0.7,2.9,2.1,3.2
				c2.6,0.7,6.6,1.9,8.5,3.4c2.9,2.3,3.6,6.6,9.8,6s9.7-6.7,11.7-6.6c0.8,0.1,2-6.1,2.6-7.2c1.1-2.2-3.9-32-3.9-32l4.3,11.9
				l11.6-4.5c0,0-5.8-19.5-8.7-21.8c-2.9-2.3-13.9-5.2-13.9-5.2s0.5,2.5-0.3,4.2c-0.4,0.8-2.1,2.3-4.3,2.9
				C994.3,348.2,992.1,338.7,992.1,338.7z"/>
		</g>
		<path class="st26" d="M1011.6,301c-1.8-3.3-6-2.5-6-2.5s-2.8-3.4-4.9-2.5c-2.1,0.9-0.1,1.1-2.1,0.9s-6-1.5-7.3,1.6
			c-1.2,3.1-0.1,2.1-0.1,2.1s0.1-1.1-3.1-0.2c-3.1,0.8-3.6,7.2-2.6,8.3c0.9,1.1-2.1,0.9-3.4,4c-1.2,3.1,4.7,5.6,4.7,5.6
			s0.7,4.3,2.8,4.4c2,0.1,2.6-0.3,2.6-0.3s-2.1-1.6-2.8-3.4s-1.1-5.9,2-6c2.3-0.1,2.4,2.1,2.4,2.1c0.4,0.6,2.2-1.8,1.3-4.1
			c-0.4-1-1.3-3.8,0.4-5.3c0.8-0.7,2.1-0.9,4.1,0.3c2,1.2,0.9,2.2,4.9,2.5C1008.5,308.7,1013.4,304.3,1011.6,301z"/>
	</g>
	<g id="Frau" class="st2">
		<g id="Ebene_31">
			<path class="st26" d="M1051.2,520c0,0-2.5,11.9,2.6,13.4s2.5-13.2,2.5-13.2L1051.2,520"/>
			<path class="st26" d="M1066.5,519.9c0,0-0.4,11.5,4.6,12.9c5,1.5,2.3-7.6,2.3-7.6l-1.8-5.2L1066.5,519.9"/>
		</g>
		<g id="Ebene_30">
			<path class="st35" d="M1052.3,518.8c0,0-0.6,10.2,1.5,10.7c3.2,0.8,1.9-12,1.9-12L1052.3,518.8z"/>
			<path class="st35" d="M1067.6,519.9c0,0,0.7,7.7,3.7,9.1c3,1.4-0.6-10.2-0.6-10.2L1067.6,519.9z"/>
		</g>
		<g id="Ebene_27">
			<polyline class="st22" points="1036.6,415.7 1051.2,520.2 1056.3,520.4 1056,421.1 1066.5,520.8 1071.6,521 1072.6,414.7 
				1070,402.2 1043.9,403.4 1036.6,415.7 			"/>
		</g>
		<g id="Ebene_25">
			<path class="st6" d="M1047.9,351.3l4.5,2.1c1.3,0.7,5.1,0.2,7.2-0.8l3.2-4.2c1.2-1.4,0,2.1,1.4,3.4l1,0.9l2.4,52.4
				c0.1,1.9-1.3,3.5-3.1,3.6c-5,0.3-14.6,0.6-18.2-1.1c-4.7-2.2,0.5-50.5,1.1-56.1C1047.4,351.3,1047.7,351.1,1047.9,351.3z"/>
			<path class="st35" d="M1047.4,351l-1.3-19.3l5.8-18l6.1,0.2l4.7,10.9l-0.6,17.1l-0.3,7.5c0,0-2.3,6.3-5.3,6.2
				S1047.4,351,1047.4,351z"/>
		</g>
		<g id="Ebene_26">
			<linearGradient id="SVGID_11_" gradientUnits="userSpaceOnUse" x1="1027.8342" y1="387.331" x2="1052.6483" y2="387.331">
				<stop  offset="1.685657e-05" style="stop-color:#B3E1C2"/>
				<stop  offset="0.9989" style="stop-color:#4DBA71"/>
			</linearGradient>
			<path class="st27" d="M1047.4,351c0,0,5.6,13.1,5.2,24.8c-0.4,11.8-4.2,35.1-11.9,43.4c-8.5,9.3-10.4,6-10.4,6
				s11.5-33.8,10.7-39.2c-0.8-5.4-2.5-15.1-2.5-15.1l-3.7,18l7.3,23.8l-2.2,3.1c0,0-9.5-18.6-10.4-21.8s-1.8-7.6-1.6-10.8
				c0.1-2.4,3.7-18.5,5.4-25.9c0.5-2.4,2.2-4.3,4.3-5.2l8.4-3.5L1047.4,351z"/>
			<linearGradient id="SVGID_12_" gradientUnits="userSpaceOnUse" x1="1062.587" y1="385.4506" x2="1103.3672" y2="385.4506">
				<stop  offset="1.110743e-03" style="stop-color:#4DBA71"/>
				<stop  offset="1" style="stop-color:#B3E1C2"/>
			</linearGradient>
			<path class="st28" d="M1065.9,349.6c0,0-3.6,0.4-3.2,20.2c0.1,6.4,1.9,41.8,6.9,45.2c5,3.4,13.9,9.1,13.1,4.8
				c-0.9-4.3-11.2-32.5-11.2-32.5l1.7-14.9l3.4,13.3c0.1,1.2,4.2,7.8,5,8.7l17.7,18.6l4.2-3.1c0,0-19.5-23.3-19.4-25.4
				c0.1-2.1-4.1-25.9-5.1-28c-0.6-1.3-2.1-2.7-2.9-3.3C1073,350.9,1065.9,349.6,1065.9,349.6z"/>
		</g>
		<g id="Ebene_29">
			<path class="st23" d="M1039,412.4l1.1,2.5c0,0,0.5,3,1,3.8c0.6,0.8,5-6.1,5-6.1s0-1.2-2.3-1.3l-2.2-3.8"/>
			<path class="st35" d="M1106.3,412.1c0,0-2.3,6.3-4.2,4.1c-2-2.2-1.6-4.3-1.6-4.3l2.3-1.7C1102.8,410.3,1106.4,411,1106.3,412.1z"
				/>
		</g>
		<g id="Ebene_28">
		</g>
		<g id="Ebene_24">
			<path class="st26" d="M1042.5,356.8c0,0,10.8-2.1,7.5-19.6l-1.9-3.3c0,0,7.4-7.2,5.8-18c0,0,8.2,0.3,7.8,9.9s-3.5,12.7-4.6,13.7
				c-1.1,1,4.7,9.8,4.7,9.8s0.9,2.2,6,4.5c0,0-1.6-12.9-1.4-16.1c0.1-3.2,1.1-27.8-11.3-26.1c0,0-2.9-3.3-8.2-0.3
				c-5.2,3-8.8,15.7-5.9,22.2C1043.8,340.2,1043.6,352.6,1042.5,356.8z"/>
		</g>
	</g>
	<g id="Ballon" class="st2">
		<line class="st43" x1="1147.3" y1="392.9" x2="1149.3" y2="458.5"/>
		<g>
			<ellipse class="st22" cx="1146.9" cy="371.4" rx="15.8" ry="18.8"/>
			<polygon class="st22" points="1145.2,388.6 1143.9,394 1150.6,393.8 1148.4,387.8 			"/>
		</g>
	</g>
	<g id="Mädchen" class="st2">
		<g id="Ebene_33">
			<path class="st35" d="M1106.3,439.4c0,0,3.5-1.8,3.5-2l0.7-7.5c0-0.1-0.4-0.2-0.5-0.2l-6.9-7.9c-0.1-0.1-0.1-0.3,0-0.4l7.9-12.9
				c0.1-0.1,0.2-0.2,0.3-0.2h6.8c0.1,0,0.2,0.1,0.3,0.2l4.9,7.9c0,0.1,0.1,0.2,0,0.2l-2,11.9c0,0.1-0.1,0.2-0.2,0.3l-2.1,1
				c-0.1,0.1-1-0.7-1.1,0.2l1.5,6c0,0.2,0.9,0.3,1.1,0.3l2.1-0.3c0.2,0,0.3,0.3,0.2,0.6c-0.3,1.6-2.3,6.4-6.6,6.4
				c-4.2,0-7.7-2.3-8.8-3.3C1107.2,439.7,1106.1,439.5,1106.3,439.4z"/>
			<path class="st35" d="M1126.3,436.7c4.4,4.1,17.4,15.8,20.4,18.5c0.4,0.3,0.9,0.4,1.4,0.2c1-0.5,2.6-0.3,3.4,0.4
				c0.4,0.4,0.9,0.7,1,1c0.2,0.4,0.3,0.7,0,1h-1c0,0,1,1,0,2c-1.4,1.4-5.1,0-6.1-2c-0.9-1.8-16.1-10.4-19.7-11.9
				c-0.4-0.2-0.7-3.7-0.7-4.2v-4.5C1125,436.6,1125.8,436.2,1126.3,436.7z"/>
			<path class="st35" d="M1105.1,469.6l-1-11.2c0,0,3.1-11.2,2-14.3c-1-3.1-2-4.1-3.1-3.1c-1,1-3.1,16.3-3.1,17.3s3.1,18.4,3.1,18.4
				L1105.1,469.6z"/>
			<polygon class="st35" points="1112.4,491.3 1118.2,526.9 1120.9,525.9 1120.2,488.1 			"/>
			<polygon class="st35" points="1122.7,489.8 1126.3,525.8 1128.9,525.2 1129.9,487.5 			"/>
			<path class="st26" d="M1117.4,522.1c0,0,0.8,2.8,1.8,3.3c1.7,0.8,1.4-3.7,1.7-3.4c0.3,0.3,1.8,10.7-0.9,10.7
				C1117.2,532.6,1115.7,530.1,1117.4,522.1z"/>
			<path class="st26" d="M1125.6,522.6c0,0-1.2,7.9,2.6,9.8c3.8,2,1.8-6.6,1.8-6.6s-0.7-4.1-1.2-3.7c-0.5,0.4,0.4,3.3-1.5,3.1
				C1126.5,525.1,1126.6,522.2,1125.6,522.6z"/>
		</g>
		<g id="Ebene_34">
			<linearGradient id="SVGID_13_" gradientUnits="userSpaceOnUse" x1="1120.9535" y1="491.8125" x2="1113.8387" y2="442.6567">
				<stop  offset="1.685657e-05" style="stop-color:#B3E1C2"/>
				<stop  offset="0.9989" style="stop-color:#4DBA71"/>
			</linearGradient>
			<path class="st29" d="M1103.9,442c0.4,3.1,2,7.4,2,7.4l1.3,7.2l-6.7,35.8l41-0.4l-13.1-36.7c0,0-1.1-2-0.5-9
				c0.2-2.3-1.8-10.1-1.8-10.1l-3.8-0.2l-2.8,3.2c-2,2.3-5.2,3.1-8,1.8l-4.5-2l-1.8,0.8C1103,440.8,1103.8,441.1,1103.9,442z"/>
		</g>
		<path class="st26" d="M1114.3,413.3l-6.3,10.4l1.6,3.1c1,2,1.5,4.1,1.5,6.3l0,1.1c0,0-11.2,1-11.2,0.6c0-1.4-3.1-27.9,12.5-27.9
			c0,0,4-0.4,7,1.7c3.1,2,9,11.9,6,25.2l-6.5,0.4l-1.5-5.3c0,0,1-1.4,2-3.2C1120.8,422.8,1121.9,415.3,1114.3,413.3z"/>
	</g>
	<g id="Ebene_37" class="st2">
	</g>
	<g id="Wolken" class="st2">
		<path class="st35" d="M674.8,122.8c0,0,1.6-9.7,18.9-9.7c0,0-1.6-16.4,23-16.4c0,0,2.5-12.6,18-12.6c13.1,0,15.6,10.6,15.6,10.6
			s12.3-4.8,22.2,0s9,15.5,9,15.5s18.9-1.9,18.9,12.6H674.8z"/>
		<path class="st35" d="M1211,93.5c0,0,1.6-7.9,18.2-7.9c0,0-1.6-13.4,22.1-13.4c0,0,2.4-10.3,17.4-10.3c12.6,0,15,8.7,15,8.7
			s11.9-4,21.3,0c9.5,4,8.7,12.6,8.7,12.6s18.2-1.6,18.2,10.3H1211z"/>
		<path class="st35" d="M790.4,43.4c0,0-2.9-14.6,12.6-19.4s17.5,3.9,17.5,3.9s-1.8-14.9,12.6-17.5c13.4-2.5,15.6,6.8,15.6,6.8
			s3.9-26.5,36-26.5s37.9,26.5,37.9,26.5s14.6-7.8,25.3-1.9c10.7,5.8,8.8,13.6,8.8,13.6s21.4-4.9,31.1,4.9c8.4,8.4,6.8,9.7,6.8,9.7
			H790.4z"/>
	</g>
	<g>
		<path class="st46" d="M746.8,78c-10.8,0-19.6,8.8-19.6,19.6c0,16.4,19.6,45.5,19.6,45.5c0.1,0,19.6-29.4,19.6-45.5
			C766.5,86.8,757.7,78,746.8,78z M746.9,113.2c-8.6,0-15.6-7-15.6-15.6s7-15.6,15.6-15.6c8.6,0,15.6,7,15.6,15.6
			S755.6,113.2,746.9,113.2z"/>
		<path class="st47" d="M757,90.4c-1-1-2.4-1.8-4.6-1.8c-3.6,0.3-4.8,2.5-5.7,4.4c-0.9-1.9-2.3-4.5-6.1-4.4c-3.1,0.2-5,2.1-5.6,4.5
			c-0.8,2.9,0.2,6.1,1.5,7.9c1.3,1.9,3.3,3.4,5,4.9c1.8,1.6,3,2.2,5.3,4.1c2.3-2.1,5.9-4.4,8.9-7.5c1.4-1.5,2.5-3,2.9-5.5
			C759,94.2,758.6,91.9,757,90.4z"/>
	</g>
	<g id="Wasserhahn_1_" class="st2">
		<path class="st48" d="M1135.7,41.2c0,0-32.9,9.2-19.4,21.4S1135.7,41.2,1135.7,41.2z"/>
		<g id="Wasserhahn">
			<path class="st49" d="M1197,303.6V111.1c0,0,1-62-57-62s-56.5,38.5-56.5,38.5"/>
			<path class="st50" d="M1218.4,324.9v-23c0,0,1.7-18.9-15.5-18.9s-12.4,0-12.4,0"/>
			<path class="st50" d="M1251.1,274.6V78.4c0,0,1-63.2-58.1-63.2c-22.2,0-35.8,5.5-44.2,12.4"/>
			<linearGradient id="SVGID_14_" gradientUnits="userSpaceOnUse" x1="1251.573" y1="337.0144" x2="1251.573" y2="294.3216">
				<stop  offset="1.685657e-05" style="stop-color:#4DBA71"/>
				<stop  offset="0.9989" style="stop-color:#007D29"/>
			</linearGradient>
			<path class="st30" d="M1268.6,336.4h-34.1c-6.6,0-12-5.4-12-12v-17.8c0-6.6,5.4-12,12-12h34.1c6.6,0,12,5.4,12,12v17.8
				C1280.6,331,1275.2,336.4,1268.6,336.4z"/>
			<path class="st26" d="M1258.4,309.2h-13.7c-6.6,0-12-5.4-12-12v-47.6c0-6.6,5.4-12,12-12h13.7c6.6,0,12,5.4,12,12v47.6
				C1270.4,303.8,1265,309.2,1258.4,309.2z"/>
			<path class="st50" d="M1278.7,324.5l12.6-19c0,0,8.9-16.6,23.2-6.6s10.3,7.2,10.3,7.2"/>
			<path class="st26" d="M1144.5,43.9l-13.3-12.7c-2.4-2.3-2.5-6.3-0.1-8.8l0.5-0.5c2.4-2.5,6.3-2.6,8.8-0.3l13.3,12.7
				c2.4,2.3,2.5,6.3,0.1,8.8l-0.5,0.5C1150.9,46.1,1147,46.3,1144.5,43.9z"/>
			<circle class="st22" cx="1251.2" cy="164" r="16.8"/>
		</g>
	</g>
</g>
<g id="Haus_Feuer" class="st0">
	<g id="Ebene_49">
		
			<image style="display:inline;overflow:visible;opacity:0.56;" width="282" height="257" xlink:href="C633B635E22DAA82.png"  transform="matrix(1 0 0 1 514.4669 944.1444)">
		</image>
	</g>
	<g>
		<path class="st46" d="M380.4,913.5c-9.5,0-17.2,7.7-17.2,17.2c0,14.4,17.2,40,17.2,40c0.1,0,17.2-25.8,17.2-40
			C397.6,921.2,389.9,913.5,380.4,913.5z M380.5,944.4c-7.6,0-13.7-6.1-13.7-13.7c0-7.6,6.1-13.7,13.7-13.7
			c7.6,0,13.7,6.1,13.7,13.7C394.2,938.2,388,944.4,380.5,944.4z"/>
		<path class="st47" d="M389.4,924.3c-0.8-0.9-2.1-1.6-4-1.6c-3.2,0.2-4.2,2.2-5,3.9c-0.8-1.7-2.1-3.9-5.4-3.9
			c-2.7,0.2-4.4,1.8-4.9,3.9c-0.7,2.5,0.2,5.3,1.3,6.9c1.2,1.6,2.9,3,4.4,4.3c1.6,1.4,2.6,1.9,4.6,3.6c2-1.8,5.2-3.8,7.8-6.6
			c1.2-1.3,2.2-2.6,2.6-4.9C391.1,927.7,390.7,925.7,389.4,924.3z"/>
	</g>
	<g id="Wolken_1_" class="st2">
		<path class="st35" d="M22.6,1116c0,0,1.6-9.5,18.5-9.5c0,0-1.6-16.1,22.5-16.1c0,0,2.4-12.3,17.7-12.3c12.9,0,15.3,10.4,15.3,10.4
			s12.1-4.7,21.7,0c9.7,4.7,8.9,15.2,8.9,15.2s18.5-1.9,18.5,12.3H22.6z"/>
		<path class="st35" d="M452,1033.4c0,0,1.5-7.8,17.8-7.8c0,0-1.6-13.2,21.7-13.2c0,0,2.3-10.1,17.1-10.1c12.4,0,14.7,8.5,14.7,8.5
			s11.6-3.9,20.9,0s8.5,12.4,8.5,12.4s17.8-1.5,17.8,10.1H452z"/>
		<path class="st35" d="M93.8,1045.6c0,0-2.9-14.3,12.4-19.1c15.3-4.8,17.2,3.8,17.2,3.8s-1.6-15.6,12.4-17.2
			c13.3-1.5,15.3,6.7,15.3,6.7s3.8-26,35.3-26s37.2,26,37.2,26s14.3-7.6,24.8-1.9c10.5,5.7,8.6,13.4,8.6,13.4s21-4.8,30.5,4.8
			c8.2,8.2,6.7,9.5,6.7,9.5H93.8z"/>
	</g>
	<g id="Windmühle" class="st2">
		<g>
			<polygon class="st7" points="428.1,1045.7 425.5,1150.5 435.7,1150.5 432.7,1045.7 			"/>
			<path class="st7" d="M429.7,1035.5c0,0,0.7-24.8,13.1-38.5c0.3-0.3,0.8-0.1,0.8,0.3c0.1,4.7-0.3,23.7-9.3,38.7
				c-0.1,0.2-0.4,0.3-0.6,0.2L429.7,1035.5"/>
			<line class="st22" x1="432" y1="1035.9" x2="429.7" y2="1035.5"/>
			<path class="st7" d="M435.9,1041.4c0,0,21.3,12.7,27.3,30.2c0.1,0.4-0.3,0.7-0.6,0.5c-4.2-2.2-20.6-11.8-29.3-27
				c-0.1-0.2-0.1-0.5,0.1-0.6L435.9,1041.4"/>
			<path class="st7" d="M425.7,1038.8c0,0-24.8,0.9-38.4,13.3c-0.3,0.3-0.1,0.8,0.3,0.8c4.7,0,23.7-0.5,38.7-9.6
				c0.2-0.1,0.3-0.4,0.2-0.6L425.7,1038.8"/>
			<circle class="st6" cx="430.6" cy="1040.4" r="6"/>
			<circle class="st15" cx="430.6" cy="1040.4" r="3.2"/>
		</g>
		<polygon class="st7" points="519.2,1067.6 516.7,1172.5 526.9,1172.5 523.9,1067.6 		"/>
		<path class="st7" d="M518.6,1058.5c0,0-8.1-23.5-1.3-40.6c0.1-0.4,0.7-0.4,0.8,0c1.7,4.4,8.1,22.3,5,39.5c0,0.2-0.2,0.4-0.5,0.4
			L518.6,1058.5"/>
		<line class="st22" x1="523.2" y1="1057.8" x2="520.9" y2="1057.4"/>
		<path class="st7" d="M526.5,1061.9c0,0,24.4,4.3,36.2,18.6c0.3,0.3,0,0.8-0.4,0.7c-4.7-0.6-23.4-3.8-36.9-14.9
			c-0.2-0.1-0.2-0.4-0.1-0.6L526.5,1061.9"/>
		<path class="st7" d="M516,1063c0,0-22.9,9.6-31.2,26c-0.2,0.4,0.2,0.8,0.6,0.6c4.4-1.6,22-8.8,32.8-22.6c0.1-0.2,0.1-0.4,0-0.6
			L516,1063"/>
		<circle class="st6" cx="521.8" cy="1062.3" r="6"/>
		<circle class="st15" cx="521.8" cy="1062.3" r="3.2"/>
	</g>
	<g id="Ebene_48" class="st2">
		<linearGradient id="SVGID_15_" gradientUnits="userSpaceOnUse" x1="147.3482" y1="1188.3887" x2="401.4809" y2="1188.3887">
			<stop  offset="1.685657e-05" style="stop-color:#4DBA71"/>
			<stop  offset="0.9989" style="stop-color:#007D29"/>
		</linearGradient>
		<path class="st31" d="M147.3,1251.3v-125.7h254.1v34.9l-25.5,0v85.2H194.1c0,0-9.9,0-23.5,1.2
			C158.6,1247.9,147.3,1251.3,147.3,1251.3z"/>
	</g>
	<g id="Ebene_52" class="st2">
		<polyline class="st15" points="376,1245.6 376,1160.4 203.3,1160.4 203.3,1245.6 376,1245.6 		"/>
	</g>
	<g id="Ebene_41" class="st2">
		<rect x="177" y="1108.1" class="st15" width="195.1" height="17.4"/>
		<polygon class="st15" points="177,1079.1 372,1079.1 372,1017 177,1072.2 		"/>
		<rect x="299.1" y="1125.5" class="st16" width="13.5" height="120.1"/>
		<linearGradient id="SVGID_16_" gradientUnits="userSpaceOnUse" x1="375.9854" y1="1194.7648" x2="543.7624" y2="1194.7648">
			<stop  offset="1.685657e-05" style="stop-color:#4DBA71"/>
			<stop  offset="0.9989" style="stop-color:#007D29"/>
		</linearGradient>
		<polygon class="st32" points="401.5,1143.9 401.5,1160.4 389.5,1160.4 389.5,1160.4 376,1160.4 376,1245.6 389.5,1245.6 
			389.5,1170.9 530.1,1170.8 530.1,1245.6 543.8,1245.6 543.8,1143.9 		"/>
	</g>
	<g id="Ebene_43" class="st2">
		<polygon class="st58" points="157.2,1079.1 389.5,1013.3 389.5,1003.8 157.2,1068.6 		"/>
		<line class="st25" x1="478.3" y1="1109.7" x2="372" y2="1079.1"/>
		<polyline class="st58" points="372,1079.1 372,1088.3 478.3,1118.2 478.3,1109.7 		"/>
	</g>
	<g id="Ebene_47" class="st2">
		<polygon class="st7" points="456.6,1143.9 456.6,1112.1 372,1088.3 372,1125.5 401.5,1125.5 401.5,1143.9 		"/>
		<rect x="389.5" y="1170.9" class="st22" width="140.6" height="74.7"/>
	</g>
	<g id="Fenster" class="st2">
		<rect x="180.2" y="1079.1" class="st23" width="191.8" height="28.9"/>
		<rect x="212.1" y="1168" class="st23" width="77.6" height="63.5"/>
		<rect x="320.1" y="1170.3" class="st23" width="48" height="61.8"/>
		<polygon class="st23" points="437.8,1143.9 437.8,1116.8 384.5,1116.8 384.5,1125.5 401.5,1125.5 401.5,1143.9 		"/>
	</g>
	<g id="Ebene_45" class="st2">
		<g>
			<rect x="217.6" y="1079.1" class="st24" width="3" height="28.9"/>
			<rect x="256.6" y="1079.1" class="st24" width="3" height="28.9"/>
			<rect x="294.8" y="1079.1" class="st24" width="3" height="28.9"/>
			<rect x="333.6" y="1079.1" class="st24" width="3" height="28.9"/>
			<rect x="409.7" y="1116.8" class="st24" width="3" height="27.1"/>
		</g>
		
			<rect x="458.3" y="1110.3" transform="matrix(-1.836970e-16 1 -1 -1.836970e-16 1640.4041 720.8267)" class="st24" width="3" height="140.6"/>
		
			<rect x="458.3" y="1120.8" transform="matrix(-1.836970e-16 1 -1 -1.836970e-16 1650.9252 731.3479)" class="st24" width="3" height="140.6"/>
		
			<rect x="458.3" y="1131.3" transform="matrix(-1.836970e-16 1 -1 -1.836970e-16 1661.4464 741.8691)" class="st24" width="3" height="140.6"/>
		
			<rect x="458.3" y="1141.9" transform="matrix(-1.836970e-16 1 -1 -1.836970e-16 1671.9677 752.3903)" class="st24" width="3" height="140.6"/>
		
			<rect x="458.3" y="1152.4" transform="matrix(-1.836970e-16 1 -1 -1.836970e-16 1682.4889 762.9115)" class="st24" width="3" height="140.6"/>
		
			<rect x="458.3" y="1162.9" transform="matrix(-1.836970e-16 1 -1 -1.836970e-16 1693.01 773.4327)" class="st24" width="3" height="140.6"/>
		
			<rect x="458.3" y="1172.5" transform="matrix(-1.836970e-16 1 -1 -1.836970e-16 1702.6459 783.0686)" class="st24" width="3" height="140.6"/>
	</g>
	<g id="Ebene_44" class="st2">
		<g>
			<rect x="236.8" y="1167.3" class="st16" width="3" height="63.5"/>
			<rect x="263.1" y="1167.3" class="st16" width="3" height="63.5"/>
			<rect x="287.8" y="1167.3" class="st16" width="3" height="63.5"/>
			<rect x="211.5" y="1167.3" class="st16" width="3" height="63.5"/>
			
				<rect x="249.7" y="1129.1" transform="matrix(-1.836970e-16 1 -1 -1.836970e-16 1419.9154 917.6362)" class="st16" width="3" height="79.3"/>
			
				<rect x="248.1" y="1192.1" transform="matrix(-1.836970e-16 1 -1 -1.836970e-16 1484.9258 982.6465)" class="st16" width="6" height="83.3"/>
		</g>
		<g>
			<rect x="343" y="1167.3" class="st16" width="3" height="63.5"/>
			
				<rect x="343" y="1144.4" transform="matrix(-1.836970e-16 1 -1 -1.836970e-16 1513.2855 824.266)" class="st16" width="3" height="48.8"/>
			<rect x="365.9" y="1167.3" class="st16" width="3" height="63.5"/>
			<rect x="320.1" y="1167.3" class="st16" width="3" height="63.5"/>
			
				<rect x="341.3" y="1207.7" transform="matrix(-1.836970e-16 1 -1 -1.836970e-16 1578.1315 889.4409)" class="st16" width="6" height="52.2"/>
		</g>
	</g>
	<g id="Kerze" class="st2">
		<linearGradient id="SVGID_17_" gradientUnits="userSpaceOnUse" x1="596.7705" y1="1225.1678" x2="596.7705" y2="1098.8904">
			<stop  offset="1.685657e-05" style="stop-color:#4DBA71"/>
			<stop  offset="0.9989" style="stop-color:#007D29"/>
		</linearGradient>
		<path class="st33" d="M607.9,1236.1h-22.2c-5,0-9.1-4.3-9.1-9.6v-131.6c0-5.3,40.4-5.3,40.4,0v131.6
			C617,1231.8,612.9,1236.1,607.9,1236.1z"/>
		<path class="st24" d="M590.3,1119.8c-4.2,0.3-5.3,7-7.8,8.3c-2.8,1.5-4.1,0.8-5.9-1.1v-30.3c-0.2-6.8,3.5-11.1,8.3-11.5h23.7
			c1.8,0,6.9,1.2,8.3,8.5c0.4,2.3,0,5.7,0.1,9.7c0,3.9,0,8,0,15.5c0,0-1.9-1.3-4.3,0.8s-1.1,11.8-6.1,12.4
			C600.1,1132.9,598.6,1119.1,590.3,1119.8z"/>
		<path class="st60" d="M597.8,1029c-0.5-0.6-1.5-0.6-2,0c-4,4.7-17.9,22.6-15.5,36.2c2.4,13.4,14.8,13.4,16.5,13.4
			s14.2,0,16.5-13.4C615.7,1051.5,601.8,1033.7,597.8,1029z"/>
		<path class="st61" d="M597.3,1048.5c-0.2-0.3-0.7-0.3-0.9,0c-1.8,2.2-8.3,10.5-7.2,16.8c1.1,6.2,6.9,6.2,7.7,6.2
			c0.8,0,6.6,0,7.7-6.2C605.6,1059,599.1,1050.7,597.3,1048.5z"/>
		<linearGradient id="SVGID_18_" gradientUnits="userSpaceOnUse" x1="553.5483" y1="1227.4343" x2="639.9841" y2="1227.4343">
			<stop  offset="1.685657e-05" style="stop-color:#4DBA71"/>
			<stop  offset="0.9989" style="stop-color:#007D29"/>
		</linearGradient>
		<polygon class="st34" points="553.5,1221.4 640,1221.4 633.9,1233.5 560.3,1233.5 		"/>
		<polygon class="st16" points="563.9,1233.5 629.7,1233.5 627.4,1239.5 625.1,1245.6 616,1245.6 569,1245.6 		"/>
	</g>
</g>
<g id="Haus_Sturm" class="st0">
	<g id="Wolken_2_" class="st2">
		<path class="st26" d="M704.8,1665.7c0,0,1.4-8,15.6-8c0,0-1.4-13.6,19-13.6c0,0,2-10.4,15-10.4c10.9,0,12.9,8.8,12.9,8.8
			s10.2-4,18.3,0c8.2,4,7.5,12.8,7.5,12.8s15.6-1.6,15.6,10.4H704.8z"/>
		<path class="st22" d="M889.8,1644.9c0,0-2-10.2,8.8-13.6c10.9-3.4,12.2,2.7,12.2,2.7s-2.1-10.7,8.8-12.2
			c9.4-1.3,10.9,4.7,10.9,4.7s2.7-17.4,25.1-17.4s26.5,17.4,26.5,17.4s10.2-5.4,17.6-1.4s6.1,9.5,6.1,9.5s14.9-3.4,21.7,3.4
			c5.9,5.9,4.7,6.8,4.7,6.8H889.8z"/>
		<polygon class="st60" points="749.5,1679.3 738.7,1679.3 733.7,1703.4 740,1701.9 734,1717.4 748.3,1696.1 741.3,1696.1 		"/>
		<polygon class="st61" points="769.2,1673.2 760.8,1673.2 756.8,1692 761.8,1690.7 757.1,1702.9 768.2,1686.3 762.8,1686.3 		"/>
		<path class="st7" d="M1038.5,1683.2c0,0,1.2-5.8,13.4-5.8c0,0-1.2-9.9,16.4-9.9c0,0,1.8-7.6,12.9-7.6c9.4,0,11.1,6.4,11.1,6.4
			s8.8-2.9,15.8,0c7,2.9,6.4,9.4,6.4,9.4s13.4-1.2,13.4,7.6H1038.5z"/>
	</g>
	<g id="Hinterhaus" class="st2">
		<g id="Ebene_63">
			<polygon class="st65" points="786.5,1717.6 722,1717.6 722,1625.1 785.8,1569.3 			"/>
			<polygon class="st66" points="785.2,1569.7 716.7,1629.5 702.3,1629.7 785.2,1556.5 			"/>
			<rect x="732.2" y="1787.1" class="st7" width="64" height="117.1"/>
			<rect x="722.6" y="1787.8" class="st16" width="73.5" height="9.5"/>
			<linearGradient id="SVGID_19_" gradientUnits="userSpaceOnUse" x1="726.2641" y1="1766.1904" x2="796.1301" y2="1766.1904">
				<stop  offset="1.685657e-05" style="stop-color:#B3E1C2"/>
				<stop  offset="0.9989" style="stop-color:#4DBA71"/>
			</linearGradient>
			<polyline class="st36" points="726.3,1787.8 739.8,1744.6 795.8,1744.6 796.1,1787.8 726.3,1787.8 			"/>
		</g>
	</g>
	<g id="Wirbelwind" class="st2">
		<g id="Ebene_70">
			<g>
				<linearGradient id="SVGID_20_" gradientUnits="userSpaceOnUse" x1="1090.3099" y1="1725.5356" x2="1233.6503" y2="1725.5356">
					<stop  offset="3.415814e-03" style="stop-color:#E6E6E6"/>
					<stop  offset="0.9989" style="stop-color:#B3B3B3"/>
				</linearGradient>
				<path class="st37" d="M1222.7,1740.4h-121.5c-6,0-10.9-4.9-10.9-10.9v-7.8c0-6,4.9-10.9,10.9-10.9h121.5c6,0,10.9,4.9,10.9,10.9
					v7.8C1233.7,1735.4,1228.7,1740.4,1222.7,1740.4z"/>
				<path class="st70" d="M1211.4,1759.2h-101.4c-3.8,0-7-3.1-7-7v-5c0-3.8,3.1-7,7-7h101.4c3.8,0,7,3.1,7,7v5
					C1218.4,1756,1215.3,1759.2,1211.4,1759.2z"/>
				<path class="st70" d="M1209.7,1796.8h-84.9c-3.8,0-7-3.1-7-7v-5c0-3.8,3.1-7,7-7h84.9c3.8,0,7,3.1,7,7v5
					C1216.7,1793.6,1213.5,1796.8,1209.7,1796.8z"/>
				<linearGradient id="SVGID_21_" gradientUnits="userSpaceOnUse" x1="1113.3646" y1="1768.5107" x2="1208.0214" y2="1768.5107">
					<stop  offset="3.415814e-03" style="stop-color:#E6E6E6"/>
					<stop  offset="0.9989" style="stop-color:#B3B3B3"/>
				</linearGradient>
				<path class="st39" d="M1201,1778h-80.7c-3.8,0-7-3.1-7-7v-5c0-3.8,3.1-7,7-7h80.7c3.8,0,7,3.1,7,7v5
					C1208,1774.9,1204.9,1778,1201,1778z"/>
				<linearGradient id="SVGID_22_" gradientUnits="userSpaceOnUse" x1="1111.8875" y1="1806.0737" x2="1191.4681" y2="1806.0737">
					<stop  offset="3.415814e-03" style="stop-color:#E6E6E6"/>
					<stop  offset="0.9989" style="stop-color:#B3B3B3"/>
				</linearGradient>
				<path class="st40" d="M1184.5,1815.6h-65.6c-3.8,0-7-3.1-7-7v-5c0-3.8,3.1-7,7-7h65.6c3.8,0,7,3.1,7,7v5
					C1191.5,1812.4,1188.3,1815.6,1184.5,1815.6z"/>
				<path class="st70" d="M1177.1,1834.4h-53.4c-3.8,0-7-3.1-7-7v-5c0-3.8,3.1-7,7-7h53.4c3.8,0,7,3.1,7,7v5
					C1184.1,1831.2,1180.9,1834.4,1177.1,1834.4z"/>
				<linearGradient id="SVGID_23_" gradientUnits="userSpaceOnUse" x1="1131.1234" y1="1841.2466" x2="1176.0985" y2="1841.2466">
					<stop  offset="3.415814e-03" style="stop-color:#E6E6E6"/>
					<stop  offset="0.9989" style="stop-color:#B3B3B3"/>
				</linearGradient>
				<path class="st41" d="M1169.1,1848.2h-31c-3.8,0-7-3.1-7-7l0,0c0-3.8,3.1-7,7-7h31c3.8,0,7,3.1,7,7l0,0
					C1176.1,1845.1,1173,1848.2,1169.1,1848.2z"/>
				<path class="st70" d="M1162.3,1862.2h-17.7c-3.8,0-7-3.1-7-7l0,0c0-3.8,3.1-7,7-7h17.7c3.8,0,7,3.1,7,7l0,0
					C1169.3,1859.1,1166.1,1862.2,1162.3,1862.2z"/>
				<linearGradient id="SVGID_24_" gradientUnits="userSpaceOnUse" x1="1144.7806" y1="1869.2162" x2="1169.274" y2="1869.2162">
					<stop  offset="3.415814e-03" style="stop-color:#E6E6E6"/>
					<stop  offset="0.9989" style="stop-color:#B3B3B3"/>
				</linearGradient>
				<path class="st42" d="M1162.3,1876.2h-10.5c-3.8,0-7-3.1-7-7l0,0c0-3.8,3.1-7,7-7h10.5c3.8,0,7,3.1,7,7l0,0
					C1169.3,1873.1,1166.1,1876.2,1162.3,1876.2z"/>
				<path class="st70" d="M1164.1,1890.3h-3.5c-3.8,0-7-3.1-7-7l0,0c0-3.8,3.1-7,7-7h3.5c3.8,0,7,3.1,7,7l0,0
					C1171.1,1887.2,1167.9,1890.3,1164.1,1890.3z"/>
				<linearGradient id="SVGID_25_" gradientUnits="userSpaceOnUse" x1="1160.7449" y1="1896.7078" x2="1174.7361" y2="1896.7078">
					<stop  offset="3.415814e-03" style="stop-color:#E6E6E6"/>
					<stop  offset="0.9989" style="stop-color:#B3B3B3"/>
				</linearGradient>
				<path class="st44" d="M1167.7,1903.7L1167.7,1903.7c-3.8,0-7-3.1-7-7l0,0c0-3.8,3.1-7,7-7l0,0c3.8,0,7,3.1,7,7l0,0
					C1174.7,1900.6,1171.6,1903.7,1167.7,1903.7z"/>
				<g>
					<path class="st76" d="M1199.5,1827.4h34.3c0,0,11.5,0,11.5-8.1"/>
					<path class="st76" d="M1199.9,1832.6c0,0,18,0,21.2,0s12.8-0.8,12.8,6.7"/>
					<line class="st76" x1="1199.9" y1="1822.1" x2="1218.3" y2="1822.1"/>
					<line class="st76" x1="1224" y1="1822.1" x2="1229.3" y2="1822.1"/>
				</g>
			</g>
		</g>
	</g>
	<g id="Geländer" class="st2">
		<g>
			<path class="st15" d="M1032.5,1908.1h-1.2c-2.1,0-3.9-1.7-3.9-3.9v-55c0-2.1,1.7-3.9,3.9-3.9h1.2c2.1,0,3.9,1.7,3.9,3.9v55
				C1036.4,1906.3,1034.6,1908.1,1032.5,1908.1z"/>
			<path class="st15" d="M1045.8,1908.1h-1.2c-2.1,0-3.9-1.7-3.9-3.9v-55c0-2.1,1.7-3.9,3.9-3.9h1.2c2.1,0,3.9,1.7,3.9,3.9v55
				C1049.7,1906.3,1048,1908.1,1045.8,1908.1z"/>
			<path class="st15" d="M1058.9,1908.1h-1.2c-2.1,0-3.9-1.7-3.9-3.9v-55c0-2.1,1.7-3.9,3.9-3.9h1.2c2.1,0,3.9,1.7,3.9,3.9v55
				C1062.8,1906.3,1061.1,1908.1,1058.9,1908.1z"/>
			<path class="st15" d="M1072.3,1908.1h-1.2c-2.1,0-3.9-1.7-3.9-3.9v-55c0-2.1,1.7-3.9,3.9-3.9h1.2c2.1,0,3.9,1.7,3.9,3.9v55
				C1076.1,1906.3,1074.4,1908.1,1072.3,1908.1z"/>
			<path class="st15" d="M1085,1908.1h-1.2c-2.1,0-3.9-1.7-3.9-3.9v-55c0-2.1,1.7-3.9,3.9-3.9h1.2c2.1,0,3.9,1.7,3.9,3.9v55
				C1088.9,1906.3,1087.2,1908.1,1085,1908.1z"/>
			<path class="st15" d="M1098.3,1908.1h-1.2c-2.1,0-3.9-1.7-3.9-3.9v-55c0-2.1,1.7-3.9,3.9-3.9h1.2c2.1,0,3.9,1.7,3.9,3.9v55
				C1102.2,1906.3,1100.5,1908.1,1098.3,1908.1z"/>
			<path class="st15" d="M1111.5,1908.1h-1.2c-2.1,0-3.9-1.7-3.9-3.9v-55c0-2.1,1.7-3.9,3.9-3.9h1.2c2.1,0,3.9,1.7,3.9,3.9v55
				C1115.3,1906.3,1113.6,1908.1,1111.5,1908.1z"/>
			<path class="st15" d="M1124.8,1908.1h-1.2c-2.1,0-3.9-1.7-3.9-3.9v-55c0-2.1,1.7-3.9,3.9-3.9h1.2c2.1,0,3.9,1.7,3.9,3.9v55
				C1128.7,1906.3,1126.9,1908.1,1124.8,1908.1z"/>
			<path class="st15" d="M1138.1,1908.1h-1.2c-2.1,0-3.9-1.7-3.9-3.9v-55c0-2.1,1.7-3.9,3.9-3.9h1.2c2.1,0,3.9,1.7,3.9,3.9v55
				C1142,1906.3,1140.2,1908.1,1138.1,1908.1z"/>
			<path class="st15" d="M1170.1,1857.9h-144.6c-0.9,0-1.6-0.7-1.6-1.6v-0.5c0-0.9,0.7-1.6,1.6-1.6h144.6c0.9,0,1.6,0.7,1.6,1.6v0.5
				C1171.7,1857.2,1171,1857.9,1170.1,1857.9z"/>
			<path class="st15" d="M1170.1,1897.1h-144.6c-0.9,0-1.6-0.7-1.6-1.6v-0.5c0-0.9,0.7-1.6,1.6-1.6h144.6c0.9,0,1.6,0.7,1.6,1.6v0.5
				C1171.7,1896.4,1171,1897.1,1170.1,1897.1z"/>
		</g>
	</g>
	<g id="Ebene_55" class="st2">
		<rect x="795.8" y="1821.9" class="st24" width="224" height="82.3"/>
		<rect x="795.8" y="1744.6" class="st15" width="224" height="67.5"/>
		<linearGradient id="SVGID_26_" gradientUnits="userSpaceOnUse" x1="795.3665" y1="1709.5604" x2="1021.6227" y2="1709.5604">
			<stop  offset="1.685657e-05" style="stop-color:#4DBA71"/>
			<stop  offset="0.9989" style="stop-color:#007D29"/>
		</linearGradient>
		<polyline class="st45" points="795.4,1734.8 808.9,1684.4 1009.8,1684.4 1021.6,1734.8 795.4,1734.8 		"/>
	</g>
	<rect x="891.1" y="1842.1" class="st79" width="33.5" height="62.2"/>
	<rect x="918.6" y="1871.3" class="st80" width="2.1" height="8.8"/>
	<g id="Ebene_56" class="st2">
		<rect x="716.1" y="1904.1" class="st22" width="455.6" height="11.7"/>
		<rect x="790" y="1812.1" class="st58" width="237" height="9.8"/>
		<rect x="790" y="1734.8" class="st58" width="237" height="9.8"/>
	</g>
	<g id="Fenster_1_" class="st2">
		<path class="st15" d="M863.7,1889.2h-51.3v-24.6c0,0-1.6-33.1,25.6-33.1c27.7,0,25.6,32.6,25.6,32.6V1889.2z"/>
		<path class="st16" d="M860.4,1885.4h-44.7v-22.3c0,0-1.3-28.6,22.3-28.6c24.3,0,22.3,29,22.3,29V1885.4z"/>
		<path class="st23" d="M857.4,1882h-38.8v-18.6c0,0-2.2-25.6,19.4-25.6s19.4,26.2,19.4,26.2V1882z"/>
		<rect x="836.6" y="1835.2" class="st16" width="2.4" height="49.5"/>
		
			<rect x="836.8" y="1839.1" transform="matrix(-1.836970e-16 1 -1 -1.836970e-16 2697.9548 1021.8954)" class="st16" width="2.4" height="41.6"/>
		<path class="st15" d="M1003.6,1889.2h-51.3v-24.6c0,0-1.6-33.1,25.6-33.1c27.7,0,25.6,32.6,25.6,32.6V1889.2z"/>
		<path class="st16" d="M1000.3,1885.4h-44.7v-22.3c0,0-1.3-28.6,22.3-28.6c24.3,0,22.3,29,22.3,29V1885.4z"/>
		<path class="st23" d="M997.4,1882h-38.8v-18.6c0,0-2.2-25.6,19.4-25.6s19.4,26.2,19.4,26.2V1882z"/>
		<rect x="976.6" y="1835.2" class="st16" width="2.4" height="49.5"/>
		
			<rect x="976.8" y="1839.1" transform="matrix(-1.836970e-16 1 -1 -1.836970e-16 2837.9226 881.9274)" class="st16" width="2.4" height="41.6"/>
		<path class="st16" d="M1001.4,1800.7h-39v-19.5c0,0-1.2-25,19.5-25c21.2,0,19.5,25.3,19.5,25.3V1800.7z"/>
		<path class="st23" d="M998.8,1797.8H965v-16.2c0,0-1.9-22.3,16.9-22.3s16.9,22.8,16.9,22.8V1797.8z"/>
		<rect x="980.7" y="1756.9" class="st16" width="2.1" height="43.1"/>
		
			<rect x="980.9" y="1761.6" transform="matrix(-1.836970e-16 1 -1 -1.836970e-16 2761.6992 797.8658)" class="st16" width="2.1" height="36.3"/>
		<path class="st16" d="M927.3,1800.7h-39v-19.5c0,0-1.2-25,19.5-25c21.2,0,19.5,25.3,19.5,25.3V1800.7z"/>
		<path class="st23" d="M924.7,1797.8h-33.8v-16.2c0,0-1.9-22.3,16.9-22.3s16.9,22.8,16.9,22.8V1797.8z"/>
		<rect x="906.6" y="1756.9" class="st16" width="2.1" height="43.1"/>
		
			<rect x="906.7" y="1761.6" transform="matrix(-1.836970e-16 1 -1 -1.836970e-16 2687.5906 871.9744)" class="st16" width="2.1" height="36.3"/>
		<path class="st16" d="M851.3,1800.7h-39v-19.5c0,0-1.2-25,19.5-25c21.2,0,19.5,25.3,19.5,25.3V1800.7z"/>
		<path class="st23" d="M848.8,1797.8H815v-16.2c0,0-1.9-22.3,16.9-22.3s16.9,22.8,16.9,22.8V1797.8z"/>
		<rect x="830.6" y="1756.9" class="st16" width="2.1" height="43.1"/>
		
			<rect x="830.8" y="1761.6" transform="matrix(-1.836970e-16 1 -1 -1.836970e-16 2611.635 947.9302)" class="st16" width="2.1" height="36.3"/>
	</g>
	<g id="Ebene_65">
		<g class="st2">
			<g>
				<rect x="917.2" y="1486.5" class="st15" width="34.8" height="45"/>
				<rect x="922" y="1491.5" class="st23" width="25.2" height="35.3"/>
				
					<rect x="933.5" y="1491.5" transform="matrix(-1 -1.224647e-16 1.224647e-16 -1 1869.2107 3018.3936)" class="st22" width="2.1" height="35.3"/>
				<polygon class="st16" points="910.8,1486.5 957.3,1486.5 934.1,1470.4 				"/>
				
					<rect x="933.7" y="1496.6" transform="matrix(-5.870611e-11 1 -1 -5.870611e-11 2443.8022 574.5915)" class="st22" width="1.9" height="25.2"/>
			</g>
			<g>
				<rect x="829.6" y="1486.5" class="st15" width="34.8" height="45"/>
				<rect x="834.4" y="1491.5" class="st23" width="25.2" height="35.3"/>
				
					<rect x="845.9" y="1491.5" transform="matrix(-1 -1.224647e-16 1.224647e-16 -1 1693.8887 3018.3936)" class="st22" width="2.1" height="35.3"/>
				<polygon class="st16" points="823.2,1486.5 869.7,1486.5 846.4,1470.4 				"/>
				
					<rect x="845.9" y="1496.6" transform="matrix(-5.119479e-11 1 -1 -5.119479e-11 2356.1411 662.2525)" class="st22" width="2.1" height="25.2"/>
			</g>
		</g>
	</g>
</g>
<g id="Haus_Final" class="st0">
	<g class="st2">
		<rect x="577.8" y="2399.3" class="st22" width="284.4" height="201.6"/>
		<polygon class="st7" points="577.8,2399.3 720,2330.1 862.2,2399.3 		"/>
		<rect x="605.4" y="2347.8" class="st6" width="19.8" height="29.3"/>
		<rect x="862.2" y="2495.5" class="st7" width="140.8" height="105.4"/>
		<rect x="437" y="2495.5" class="st7" width="140.8" height="105.4"/>
		<linearGradient id="SVGID_27_" gradientUnits="userSpaceOnUse" x1="862.1847" y1="2465.2673" x2="1022.2435" y2="2465.2673">
			<stop  offset="1.685657e-05" style="stop-color:#4DBA71"/>
			<stop  offset="0.9989" style="stop-color:#007D29"/>
		</linearGradient>
		<polygon class="st52" points="1022.2,2495.5 862.2,2495.5 862.2,2435 987.6,2435 		"/>
		<linearGradient id="SVGID_28_" gradientUnits="userSpaceOnUse" x1="417.7566" y1="2465.2673" x2="577.8153" y2="2465.2673">
			<stop  offset="1.110766e-03" style="stop-color:#007D29"/>
			<stop  offset="1" style="stop-color:#4DBA71"/>
		</linearGradient>
		<polygon class="st53" points="417.8,2495.5 577.8,2495.5 577.8,2435 452.4,2435 		"/>
		<rect x="696.9" y="2512.9" class="st26" width="48.6" height="88"/>
		<rect x="601.9" y="2410.3" class="st23" width="71.4" height="29.1"/>
		<rect x="766.7" y="2410.3" class="st23" width="71.4" height="29.1"/>
		<circle class="st23" cx="720" cy="2364.7" r="10.3"/>
		<rect x="635.5" y="2410.3" class="st22" width="4.1" height="29.1"/>
		<rect x="800.4" y="2410.3" class="st22" width="4.1" height="29.1"/>
		<rect x="735.6" y="2547.5" class="st83" width="4.1" height="11.4"/>
		<linearGradient id="SVGID_29_" gradientUnits="userSpaceOnUse" x1="721.1538" y1="2447.7495" x2="721.1538" y2="2499.7671">
			<stop  offset="1.685657e-05" style="stop-color:#4DBA71"/>
			<stop  offset="0.9989" style="stop-color:#007D29"/>
		</linearGradient>
		<polygon class="st54" points="545.9,2495.5 670.6,2495.5 896.4,2495.5 850.6,2450.5 590.1,2450.5 		"/>
		<polygon class="st15" points="720,2439.8 766.7,2495.5 675.1,2495.5 		"/>
		<rect x="555.5" y="2550.4" class="st24" width="119.6" height="50.5"/>
		<rect x="766.7" y="2550.4" class="st24" width="120.1" height="50.5"/>
		<g>
			
				<rect x="565.3" y="2582.3" transform="matrix(-1.836970e-16 1 -1 -1.836970e-16 3160.3796 2026.8452)" class="st15" width="3" height="22.6"/>
			
				<rect x="565.3" y="2573.3" transform="matrix(-1.836970e-16 1 -1 -1.836970e-16 3151.4026 2017.8683)" class="st15" width="3" height="22.6"/>
			
				<rect x="565.3" y="2564.4" transform="matrix(-1.836970e-16 1 -1 -1.836970e-16 3142.4258 2008.8914)" class="st15" width="3" height="22.6"/>
			
				<rect x="565.3" y="2555.4" transform="matrix(-1.836970e-16 1 -1 -1.836970e-16 3133.4487 1999.9144)" class="st15" width="3" height="22.6"/>
			
				<rect x="565.3" y="2546.4" transform="matrix(-1.836970e-16 1 -1 -1.836970e-16 3124.4719 1990.9375)" class="st15" width="3" height="22.6"/>
		</g>
		<g>
			
				<rect x="625.1" y="2545.1" transform="matrix(-1.836970e-16 1 -1 -1.836970e-16 3220.1753 1967.0509)" class="st22" width="3" height="97"/>
			
				<rect x="625.1" y="2536.1" transform="matrix(-1.836970e-16 1 -1 -1.836970e-16 3211.1982 1958.074)" class="st22" width="3" height="97"/>
			
				<rect x="625.1" y="2527.2" transform="matrix(-1.836970e-16 1 -1 -1.836970e-16 3202.2212 1949.097)" class="st22" width="3" height="97"/>
			
				<rect x="625.1" y="2518.2" transform="matrix(-1.836970e-16 1 -1 -1.836970e-16 3193.2444 1940.1201)" class="st22" width="3" height="97"/>
			
				<rect x="625.1" y="2509.2" transform="matrix(-1.836970e-16 1 -1 -1.836970e-16 3184.2673 1931.1432)" class="st22" width="3" height="97"/>
		</g>
		<g>
			
				<rect x="872.7" y="2581.2" transform="matrix(-1.836970e-16 1 -1 -1.836970e-16 3467.8215 1719.4031)" class="st15" width="3" height="24.7"/>
			
				<rect x="872.7" y="2572.3" transform="matrix(-1.836970e-16 1 -1 -1.836970e-16 3458.8447 1710.4261)" class="st15" width="3" height="24.7"/>
			
				<rect x="872.7" y="2563.3" transform="matrix(-1.836970e-16 1 -1 -1.836970e-16 3449.8677 1701.4492)" class="st15" width="3" height="24.7"/>
			
				<rect x="872.7" y="2554.3" transform="matrix(-1.836970e-16 1 -1 -1.836970e-16 3440.8909 1692.4723)" class="st15" width="3" height="24.7"/>
			
				<rect x="872.7" y="2545.3" transform="matrix(-1.836970e-16 1 -1 -1.836970e-16 3431.9138 1683.4954)" class="st15" width="3" height="24.7"/>
		</g>
		<g>
			
				<rect x="812.8" y="2546.1" transform="matrix(-1.836970e-16 1 -1 -1.836970e-16 3407.9058 1779.3206)" class="st22" width="3" height="95.1"/>
			
				<rect x="812.8" y="2537.1" transform="matrix(-1.836970e-16 1 -1 -1.836970e-16 3398.9287 1770.3436)" class="st22" width="3" height="95.1"/>
			
				<rect x="812.8" y="2528.1" transform="matrix(-1.836970e-16 1 -1 -1.836970e-16 3389.9519 1761.3667)" class="st22" width="3" height="95.1"/>
			
				<rect x="812.8" y="2519.1" transform="matrix(-1.836970e-16 1 -1 -1.836970e-16 3380.9749 1752.3898)" class="st22" width="3" height="95.1"/>
			
				<rect x="812.8" y="2510.2" transform="matrix(-1.836970e-16 1 -1 -1.836970e-16 3371.998 1743.4128)" class="st22" width="3" height="95.1"/>
		</g>
		<rect x="545.9" y="2495.5" class="st24" width="9.6" height="116.6"/>
		<rect x="675.1" y="2495.5" class="st24" width="9.6" height="116.6"/>
		<rect x="757.1" y="2495.5" class="st24" width="9.6" height="116.6"/>
		<rect x="886.8" y="2495.5" class="st24" width="9.6" height="116.6"/>
		
			<rect x="790.7" y="2275.4" transform="matrix(0.4407 -0.8976 0.8976 0.4407 -1675.2065 2034.8997)" class="st24" width="9.6" height="172.9"/>
		
			<rect x="639.7" y="2275.5" transform="matrix(-0.4407 -0.8976 0.8976 -0.4407 -1191.5651 3981.354)" class="st24" width="9.6" height="172.7"/>
	</g>
	<g class="st2">
		<path class="st86" d="M468.3,2369.9c-5.6,4.5-12.7,7.3-20.5,7.3c-17.9,0-32.5-14.6-32.5-32.5c0-17.9,14.6-32.5,32.5-32.5
			c17.9,0,32.5,14.6,32.5,32.5c0,5.8-1.5,11.2-4.1,15.9"/>
		<polygon class="st60" points="540.1,2325 528.1,2325 522.5,2351.8 529.5,2350.1 522.8,2367.4 538.7,2343.7 530.9,2343.7 		"/>
		<path class="st60" d="M903.9,2323.7c-0.4-0.5-1.2-0.5-1.6,0c-3,3.6-13.8,17.4-12,27.9c1.8,10.3,11.4,10.3,12.7,10.3
			c1.3,0,10.9,0,12.7-10.3C917.8,2341.1,907,2327.4,903.9,2323.7z"/>
		<g>
			<path class="st76" d="M969.4,2344.6h34.3c0,0,11.5,0,11.5-8.1"/>
			<path class="st76" d="M969.8,2349.9c0,0,18,0,21.2,0c3.2,0,12.8-0.8,12.8,6.7"/>
			<line class="st76" x1="969.8" y1="2339.3" x2="988.2" y2="2339.3"/>
			<line class="st76" x1="993.9" y1="2339.3" x2="999.3" y2="2339.3"/>
		</g>
		<path class="st86" d="M557.3,2369.9c-5.6,4.5-12.7,7.3-20.5,7.3c-17.9,0-32.5-14.6-32.5-32.5c0-17.9,14.6-32.5,32.5-32.5
			c17.9,0,32.5,14.6,32.5,32.5c0,5.8-1.5,11.2-4.1,15.9"/>
		<path class="st86" d="M923.6,2369.1c-5.6,4.5-12.7,7.3-20.5,7.3c-17.9,0-32.5-14.6-32.5-32.5c0-17.9,14.6-32.5,32.5-32.5
			c17.9,0,32.5,14.6,32.5,32.5c0,5.8-1.5,11.2-4.1,15.9"/>
		<path class="st86" d="M1012.7,2369.1c-5.6,4.5-12.7,7.3-20.5,7.3c-17.9,0-32.5-14.6-32.5-32.5c0-17.9,14.6-32.5,32.5-32.5
			c17.9,0,32.5,14.6,32.5,32.5c0,5.8-1.5,11.2-4.1,15.9"/>
		<path class="st61" d="M903.5,2338.8c-0.2-0.2-0.5-0.2-0.7,0c-0.8,1-2.9,3.6-4.3,6.6c-1,2.1-1.6,4.4-1.3,6.4
			c0.8,4.8,5.3,4.8,5.9,4.8c0.6,0,5.1,0,5.9-4.8C909.9,2346.9,904.9,2340.5,903.5,2338.8z"/>
		<polygon class="st61" points="554.1,2333.7 546.5,2332.9 541.2,2349.6 545.8,2348.9 540.5,2359.5 552,2345.5 547.1,2345 		"/>
		<g>
			<path class="st48" d="M441.6,2336.2c0,0-18.3,30,0.5,29.7C460.9,2365.5,441.6,2336.2,441.6,2336.2z"/>
			<path class="st48" d="M455.9,2323.4c0,0-12.6,20.8,0.3,20.5C469.2,2343.8,455.9,2323.4,455.9,2323.4z"/>
		</g>
	</g>
	<g id="Haus_mitte" class="st2">
		<path class="st35" d="M978.6,2418.2c0,0,1.6-9.5,18.5-9.5c0,0-1.6-16.1,22.5-16.1c0,0,2.4-12.3,17.7-12.3
			c12.9,0,15.3,10.4,15.3,10.4s12.1-4.7,21.7,0c9.7,4.7,8.9,15.2,8.9,15.2s18.5-1.9,18.5,12.3H978.6z"/>
		<path class="st35" d="M833.4,2304.3c0,0,1.5-7.8,17.8-7.8c0,0-1.5-13.2,21.7-13.2c0,0,2.3-10.1,17-10.1c12.4,0,14.7,8.5,14.7,8.5
			s11.6-3.9,20.9,0c9.3,3.9,8.5,12.4,8.5,12.4s17.8-1.6,17.8,10.1H833.4z"/>
		<path class="st35" d="M436.8,2297.9c0,0-2.9-14.3,12.4-19.1s16,1.6,16,1.6s-0.7-12.3,13-13.9c13.3-1.5,15.9,5.6,15.9,5.6
			s3.8-26,35.3-26s37.2,26,37.2,26s11.4-6.5,22.5-1.9c10.9,4.5,10.9,13.4,10.9,13.4s21-4.8,30.5,4.8c8.2,8.2,6.7,9.5,6.7,9.5H436.8z
			"/>
	</g>
	<g id="Ebene_59" class="st2">
	</g>
	<g id="Nebengebäude" class="st2">
	</g>
	<g id="Tür" class="st2">
	</g>
	<g id="Fenster_2_" class="st2">
	</g>
	<g id="Vorderdach" class="st2">
	</g>
	<g id="Leisten" class="st2">
	</g>
</g>
<g id="Platzhalter_Inhalte_Website" class="st0">
	<rect x="147.7" y="71.7" class="st94" width="616.5" height="72.8"/>
	<text transform="matrix(1 0 0 1 147.6973 103.9006)" class="st2"><tspan x="0" y="0" class="st58 st95 st96">WOHNGEBÄUDEVERSICHERUNG</tspan><tspan x="0" y="39" class="st97 st98">Schutz für Ihr Hab und Gut</tspan></text>
	<g class="st2">
		
			<image style="overflow:visible;opacity:0.4;" width="220" height="80" xlink:href="C633B635E22DAA81.png"  transform="matrix(1 0 0 1 134.6536 165.4637)">
		</image>
		<g>
			<path class="st99" d="M326.5,223H152.7c-2.8,0-5-2.2-5-5v-32.5c0-2.8,2.2-5,5-5h173.8c2.8,0,5,2.2,5,5V218
				C331.5,220.7,329.3,223,326.5,223z"/>
		</g>
	</g>
	<text transform="matrix(1 0 0 1 167.7061 208.363)" class="st100 st101 st102">Zu den Tarifen</text>
	<rect x="470.7" y="602.4" class="st94" width="498.7" height="207.5"/>
	<text transform="matrix(1 0 0 1 568.5469 624.8621)" class="st2"><tspan x="0" y="0" class="st58 st95 st103">HEADLINE ZUM THEMA  </tspan><tspan x="-11.1" y="36" class="st58 st95 st103">SCHUTZ UND EIGENHEIM </tspan><tspan x="-76.1" y="76" class="st97 st104">Schäden an ihrem Wohnobjekt in Folge eines Leitungswasserschadens können </tspan><tspan x="-96.5" y="116" class="st97 st104">schnell hohe Kosten verursachen und eine große Belastung darstellen. Mit der Wohn</tspan><tspan x="394.7" y="116" class="st97 st104">-</tspan><tspan x="-88.4" y="135.2" class="st97 st104">gebäudeversicherung der HDI versichern Sie sich z.B. gegen die Gefahr eines Rohr</tspan><tspan x="386.5" y="135.2" class="st97 st104">-</tspan><tspan x="-85.3" y="154.4" class="st97 st104">bruchs. In Kombination mit dem Paket Handwerkerservice unterstützen wir Sie im </tspan><tspan x="-97.1" y="173.6" class="st97 st104">Notfall mit dem Spezialisten den Sie gerade benötigen. Verlassen Sie sich auf unseren </tspan></text>
	<rect x="470.7" y="2030.5" class="st94" width="498.7" height="149.2"/>
	<text transform="matrix(1 0 0 1 621.0762 2053.0171)" class="st2"><tspan x="0" y="0" class="st58 st95 st103"> HEADLINE MIT  </tspan><tspan x="-93.9" y="36" class="st58 st95 st103">HANDLUNGSAUFFORDERUNG </tspan><tspan x="-140.7" y="76" class="st97 st104">Vier kurze Sätze zum Thema Sicherheit und Eigenheim im Bezug auf HDI’s Leistun</tspan><tspan x="333.9" y="76" class="st97 st104">-</tspan><tspan x="-132" y="116" class="st97 st104">gen. Lorem ipsum dolor sit amet, consectetur adipiscing elit. Lectus nulla ut vel, </tspan></text>
	<rect x="837" y="984.7" class="st94" width="398" height="160.3"/>
	<text transform="matrix(1 0 0 1 836.9927 999.7823)" class="st2"><tspan x="0" y="0" class="st58 st101 st105">Gut gewappnet gegen Wohnungsbrand </tspan><tspan x="0" y="30" class="st97 st104">Geht ein Brand an die Substanz einer Immobilie, ist das ein Fall für </tspan><tspan x="0" y="49.2" class="st97 st104">die Wohngebäudeversicherung. Sie reguliert für den oder die Eigen</tspan><tspan x="388.7" y="49.2" class="st97 st104">-</tspan><tspan x="0" y="68.4" class="st97 st104">tümer Reparaturen beziehungsweise den Wiederaufbau, wenn </tspan><tspan x="0" y="87.6" class="st97 st104">Wände, Mauern, Dächer, sanitäre Anlagen oder Fenster und Türen </tspan><tspan x="0" y="106.8" class="st97 st104">sowie andere fest installierte Einrichtungen und Leitungen Schaden </tspan><tspan x="0" y="126" class="st97 st104">genommen haben.</tspan></text>
	<rect x="162.7" y="1576.6" class="st94" width="421.1" height="181.9"/>
	<text transform="matrix(1 0 0 1 259.2229 1591.7106)" class="st2"><tspan x="0" y="0" class="st58 st101 st105">Unwetterschäden – was tun bei Sturm,  </tspan><tspan x="151.2" y="24" class="st58 st101 st105">Hagel und Gewitter? </tspan><tspan x="-86" y="54" class="st97 st104">Stürme, Hagel, Blitz und Donner – sie können jeden heimsuchen, denn </tspan><tspan x="-69.1" y="73.2" class="st97 st104">Unwetter wüten nach dem Zufallsprinzip. Wenn Naturgewalten ihre </tspan><tspan x="-94.6" y="92.4" class="st97 st104">zerstörerische Kraft entfalten, kann das für Wohneigentümer und Mieter </tspan><tspan x="-89.6" y="111.6" class="st97 st104">gleichermaßen zu einer großen finanziellen Belastung werden. Mit dem </tspan><tspan x="-87.8" y="130.8" class="st97 st104">zuverlässigen HDI-Versicherungsschutz müssen Sie sich um die Repara</tspan><tspan x="319.9" y="130.8" class="st97 st104">-</tspan><tspan x="95.3" y="150" class="st97 st104">turkosten jedoch keine Sorgen machen.</tspan></text>
	<text transform="matrix(1 0 0 1 400.6451 1807.9868)" class="st47 st101 st102">Jetzt Tarif berechnen</text>
	<path class="st106" d="M577,1822.5H382.4c-2.8,0-5-2.2-5-5V1785c0-2.8,2.2-5,5-5H577c2.8,0,5,2.2,5,5v32.5
		C582,1820.3,579.7,1822.5,577,1822.5z"/>
	<text transform="matrix(1 0 0 1 861.02 1193.8104)" class="st47 st101 st102">Jetzt Tarif berechnen</text>
	<path class="st106" d="M1037.3,1208.4H842.8c-2.8,0-5-2.2-5-5v-32.5c0-2.8,2.2-5,5-5h194.6c2.8,0,5,2.2,5,5v32.5
		C1042.3,1206.1,1040.1,1208.4,1037.3,1208.4z"/>
	<g class="st2">
		<path class="st107" d="M326.5,223h-34.6l0.1-42.5h34.5c2.8,0,5,2.2,5,5V218C331.5,220.7,329.3,223,326.5,223z"/>
	</g>
	<polyline class="st109" points="307.9,194.5 317.4,202.2 308,210.3 	"/>
	<g class="st2">
		
			<image style="overflow:visible;opacity:0.4;" width="293" height="79" xlink:href="C633B635E22DAA8D.png"  transform="matrix(1 0 0 1 593.9131 2185.9363)">
		</image>
		<g>
			<path class="st110" d="M858.6,2242.6H612.3c-2.8,0-5-2.2-5-5v-32.5c0-2.8,2.2-5,5-5h246.3c2.8,0,5,2.2,5,5v32.5
				C863.6,2240.4,861.4,2242.6,858.6,2242.6z"/>
		</g>
	</g>
	<text transform="matrix(1 0 0 1 631.8181 2228.0491)" class="st100 st101 st102">Jetzt online versichern</text>
	<g class="st2">
		<path class="st111" d="M856.6,2242.6h-35.7l0.1-42.5h35.6c3.8,0,7,2.2,7,5v32.5C863.6,2240.4,860.5,2242.6,856.6,2242.6z"/>
	</g>
	<polyline class="st109" points="839.7,2214.2 849.2,2221.9 839.8,2230 	"/>
</g>
<g id="Wegpfeile">
	<g id="Ebene_61">
		<path class="st7" d="M1119.7,1461.4c0,0-13.3-12-15.8-40.2s2.5-28.1,2.4-40.6c-0.1-12.6-3.7-17.4-3.7-17.4s18.6,8.5,20.9,35.9
			s0.6,62,0.6,62L1119.7,1461.4z"/>
		<g>
			<path class="st7" d="M1124,1460.7c0,0,39.2-19.9,47.1-44.2c7.8-24.4,12.4-39.4,12.4-39.4s-28.3,8.2-38.9,20.9
				C1133.1,1411.3,1117.1,1425,1124,1460.7z"/>
			<path class="st9" d="M1175.7,1386.2c0,0-42,42.3-47.3,60.6"/>
			<line class="st9" x1="1168.7" y1="1407.2" x2="1150.9" y2="1413.7"/>
			<line class="st9" x1="1159.5" y1="1403.5" x2="1162.7" y2="1390.7"/>
		</g>
		
			<linearGradient id="SVGID_30_" gradientUnits="userSpaceOnUse" x1="1046.967" y1="1873.5382" x2="1063.132" y2="1798.256" gradientTransform="matrix(0.9902 -0.14 0.14 0.9902 -176.2107 -248.7717)">
			<stop  offset="1.685657e-05" style="stop-color:#B3E1C2"/>
			<stop  offset="0.9989" style="stop-color:#66C485"/>
		</linearGradient>
		<path class="st55" d="M1120.7,1461.4c0,0-12.3-27.1-3.9-43.4c8.4-16.3,10.3-48.8,10.3-48.8s9.8,26.3,9,53.7
			c-0.4,13.4-4.4,25.8-11.1,38L1120.7,1461.4z"/>
	</g>
	<g>
		<polygon class="st22" points="1164.7,1465.7 1156.4,1464.3 1156.4,1269.9 1164.7,1269.9 		"/>
		<linearGradient id="SVGID_31_" gradientUnits="userSpaceOnUse" x1="1167.6667" y1="1323.6322" x2="1292.5635" y2="1323.6322">
			<stop  offset="1.685657e-05" style="stop-color:#4DBA71"/>
			<stop  offset="0.9989" style="stop-color:#007D29"/>
		</linearGradient>
		<polygon class="st56" points="1275.7,1337.3 1167.7,1337.3 1167.7,1310 1275.7,1310 1292.6,1323.6 		"/>
		<linearGradient id="SVGID_32_" gradientUnits="userSpaceOnUse" x1="1167.6667" y1="1288.7534" x2="1242.406" y2="1288.7534">
			<stop  offset="1.685657e-05" style="stop-color:#4DBA71"/>
			<stop  offset="0.9989" style="stop-color:#007D29"/>
		</linearGradient>
		<polygon class="st57" points="1225.6,1302.4 1167.7,1302.4 1167.7,1275.1 1225.6,1275.1 1242.4,1288.8 		"/>
		<text transform="matrix(1 0 0 1 1174.5427 1329.6691)" class="st35 st101 st104">TARIFRECHNER</text>
		<text transform="matrix(1 0 0 1 1174.5427 1294.7322)" class="st35 st101 st104">HDI-</text>
	</g>
	<g>
		<polygon class="st22" points="189.9,2148.5 190.3,2140.3 384.7,2140.3 384.7,2148.5 		"/>
		
			<linearGradient id="SVGID_33_" gradientUnits="userSpaceOnUse" x1="742.1387" y1="2059.8662" x2="867.0355" y2="2059.8662" gradientTransform="matrix(0 1 -1 0 2390.7703 1409.3632)">
			<stop  offset="1.685657e-05" style="stop-color:#4DBA71"/>
			<stop  offset="0.9989" style="stop-color:#007D29"/>
		</linearGradient>
		<polygon class="st59" points="317.3,2259.6 317.3,2151.5 344.5,2151.5 344.5,2259.6 330.9,2276.4 		"/>
		
			<linearGradient id="SVGID_34_" gradientUnits="userSpaceOnUse" x1="742.1387" y1="2024.9874" x2="816.878" y2="2024.9874" gradientTransform="matrix(0 1 -1 0 2390.7703 1409.3632)">
			<stop  offset="1.685657e-05" style="stop-color:#4DBA71"/>
			<stop  offset="0.9989" style="stop-color:#007D29"/>
		</linearGradient>
		<polygon class="st62" points="352.1,2209.4 352.1,2151.5 379.4,2151.5 379.4,2209.4 365.8,2226.2 		"/>
		<text transform="matrix(0 1 -1 0 324.8682 2158.3777)" class="st35 st101 st104">TARIFRECHNER</text>
		<text transform="matrix(0 1 -1 0 359.8057 2158.3777)" class="st35 st101 st104">HDI-</text>
	</g>
</g>
<g id="Pricetag" class="st0">
	<g>
		<g class="st2">
			<path class="st61" d="M864.4,108.4l-54.1-2.5L797.6,120l-4.9,104.4l76,3.5l4.8-103.8L864.4,108.4z M835.2,129.6
				c-3-0.1-5.3-2.7-5.2-5.7c0.1-3,2.7-5.3,5.7-5.2c3,0.1,5.3,2.7,5.2,5.7C840.7,127.5,838.2,129.8,835.2,129.6z"/>
			<text transform="matrix(0.9989 4.657000e-02 -4.657000e-02 0.9989 803.8372 171.378)"><tspan x="0" y="0" class="st23 st101 st120">33.000 € </tspan><tspan x="0" y="16.8" class="st23 st101 st120">Schaden</tspan></text>
		</g>
		<path class="st121" d="M834,121.6c0,0-3.6-32.8,7.5-41.4s11.5-15.1,15.7-25.6c4.3-10.5,18.9-14.3,24.3,1.4
			c5,14.4-13.1,19-29.4,27.1S836.4,124,836.4,124"/>
		<circle class="st100" cx="835.5" cy="124.2" r="6"/>
	</g>
	<polygon class="st47" points="374.6,974.6 389.5,970.3 389.5,960.8 373.4,965.3 	"/>
	<path class="st122" d="M975.5,1627.5l-47.6,9l-7.9,13.3l17.4,95.8l66.6-12.5l-17.1-93.9L975.5,1627.5z"/>
	<g class="st2">
		<g>
			<linearGradient id="SVGID_35_" gradientUnits="userSpaceOnUse" x1="308.0743" y1="1081.85" x2="388.8862" y2="1081.85">
				<stop  offset="1.685896e-05" style="stop-color:#FF9632"/>
				<stop  offset="0.9989" style="stop-color:#FF7200"/>
			</linearGradient>
			<path class="st63" d="M379.8,1023.4l-54.1-2.5l-12.8,14.1l-4.9,104.4l76,3.5l4.8-103.8L379.8,1023.4z M351.2,1045.1
				c-3.3,0.2-6.2-2.3-6.4-5.6c-0.2-3.3,2.3-6.2,5.6-6.4c3.3-0.2,6.2,2.3,6.4,5.6C357,1042.1,354.5,1044.9,351.2,1045.1z"/>
			<text transform="matrix(0.9989 4.657000e-02 -4.657000e-02 0.9989 314.8018 1080.4193)"><tspan x="0" y="0" class="st23 st95 st104">150.000 € </tspan><tspan x="14.4" y="18" class="st23 st124 st125">Schaden  </tspan><tspan x="2.4" y="29" class="st23 st124 st125">im Durchschnitt*</tspan></text>
		</g>
		<path class="st126" d="M387.1,967c-1.6-2.6-4.9-5.8-11.8-6.4c-7.9-0.8-11.8,8.1-15.5,16.7c-2.5,5.7-5,11.5-8.6,14.7
			c-4.4,3.9-6.5,12.4-6.3,25.4c0.1,8.7,1.3,16.4,1.5,17.7c1.1-1.1,2.6-1.9,4.3-1.9c1.1,0,2.2,0.3,3.1,0.8c1-17.7,4.4-29,10.8-35.7
			c3.8-3.9,8.4-7.2,12.5-10.1c5.2-3.7,9.3-6.6,10.7-10C389.4,974.5,389.1,970.2,387.1,967z M384.2,976.6c-1,2.4-5,5.2-9.3,8.2
			c-4.2,3-9,6.4-13.1,10.6c-6.9,7.2-10.6,18.3-11.8,35.9c-1.3-10.5-2.4-30.8,3.9-36.5c4.2-3.8,6.9-10,9.6-16.1
			c3.2-7.3,6.2-14.3,11-14.3c0.2,0,0.3,0,0.5,0c4.1,0.4,7.2,2,8.7,4.5C385.2,971.7,385,974.7,384.2,976.6z"/>
	</g>
	<polygon class="st47" points="374.6,974 389.5,969.8 389.5,960.3 373.4,964.8 	"/>
	<g class="st2">
		<g>
			<linearGradient id="SVGID_36_" gradientUnits="userSpaceOnUse" x1="839.5872" y1="178.7303" x2="921.9822" y2="178.7303">
				<stop  offset="1.685896e-05" style="stop-color:#FF9632"/>
				<stop  offset="0.9989" style="stop-color:#FF7200"/>
			</linearGradient>
			<path class="st64" d="M912.7,119.1l-55.1-2.6l-13,14.4l-5,106.4l77.5,3.6l4.9-105.8L912.7,119.1z M883.5,141.3
				c-3.4,0.2-6.3-2.4-6.5-5.7c-0.2-3.4,2.4-6.3,5.7-6.5c3.4-0.2,6.3,2.4,6.5,5.7C889.5,138.2,886.9,141.1,883.5,141.3z"/>
			<text transform="matrix(0.9989 4.657000e-02 -4.657000e-02 0.9989 850.8995 175.4048)"><tspan x="0" y="0" class="st23 st95 st129">33.000 € </tspan><tspan x="10.3" y="18.4" class="st23 st124 st130">Schaden  </tspan><tspan x="-1.9" y="29.6" class="st23 st124 st130">im Durchschnitt*</tspan></text>
		</g>
		<path class="st126" d="M935.2,67.2c-2.1-7.1-8-9.5-13.9-10.5l6.5,6.7c1.7,1.2,2.8,2.9,3.4,5c1.3,4.5-1.6,10.9-13.6,15.4
			c-2.6,1-5,1.8-7.1,2.6c-10.3,3.7-15.5,5.5-19.3,11.6c-2.9,4.5-6.7,15.3-8.7,24.6c0.1-9.2,1-20.7,4.5-24.5c1.1-1.2,2.2-2.3,3.1-3.3
			c4.7-5,7.9-8.3,10.1-18.5c1-4.5,3.1-8.1,5.6-10.7l0,0l9-9.1c-7.7,0.9-16,7.6-18.5,18.9c-2,9.1-4.6,11.7-9.1,16.6
			c-1,1-2,2.1-3.2,3.4c-3.1,3.4-4.9,10.9-5.4,22.2c-0.3,5.8-0.1,11.1,0,13.7c1.1-1.2,2.7-2,4.5-2c0.8,0,1.6,0.2,2.3,0.4
			c1.2-9.2,6-24.4,9.3-29.5c3.1-4.9,7.2-6.4,17.3-9.9c2.1-0.8,4.5-1.6,7.1-2.6C933.8,82,937,73.4,935.2,67.2z"/>
	</g>
	<g class="st2">
		<g>
			<g>
				<linearGradient id="SVGID_37_" gradientUnits="userSpaceOnUse" x1="958.2038" y1="1701.2874" x2="1051.7626" y2="1701.2874">
					<stop  offset="1.685896e-05" style="stop-color:#FF9632"/>
					<stop  offset="0.9989" style="stop-color:#FF7200"/>
				</linearGradient>
				<path class="st67" d="M1020.7,1636.7l-53.2,9.7l-9.3,16.6l18.7,102.8l74.8-13.6l-18.6-102.2L1020.7,1636.7z M997.7,1664.4
					c-3.2,0.9-6.5-0.9-7.5-4.1s0.9-6.5,4.1-7.5c3.2-0.9,6.5,0.9,7.5,4.1C1002.7,1660.1,1000.9,1663.4,997.7,1664.4z"/>
				<text transform="matrix(0.9838 -0.1793 0.1793 0.9838 973.9683 1704.8481)"><tspan x="0" y="0" class="st23 st95 st104">25.000 € </tspan><tspan x="10.1" y="18" class="st23 st124 st125">Schaden  </tspan><tspan x="-1.8" y="29" class="st23 st124 st125">im Durchschnitt*</tspan></text>
			</g>
		</g>
		<path class="st126" d="M1017.1,1596.2c-0.7-4.1-2.9-7.7-6.8-10.7l2.1,8.8c0.4,0.8,0.6,1.7,0.7,2.6c0.9,5.6-2.8,11.4-6.2,14.6
			c-1.7,1.6-3.3,2.1-5,2.7c-5.2,1.8-8.3,3.9-8.3,17.3v18.1c-3.9-7.9-10.5-23.5-7.6-33.8c1.6-5.6,2.2-11.5,2.7-16.7
			c0.8-7.5,1.5-13.9,4.5-15.6c0.6-0.3,1.3-0.5,2.1-0.5l0-0.1h11.4c-1-0.6-2-1.1-3.1-1.6c-5.4-2.6-9.4-3-12.4-1.3
			c-4.8,2.7-5.5,9.7-6.5,18.6c-0.5,5-1.1,10.7-2.6,16.1c-3.7,13.5,6.1,33.3,9.5,39.8c1.1-1.2,2.6-1.9,4.4-1.9c0.6,0,1.1,0.1,1.6,0.2
			v-21.3c0-11.6,2.1-12.3,5.6-13.5c1.9-0.6,4.2-1.4,6.4-3.6C1014,1610.2,1018.3,1603.3,1017.1,1596.2z"/>
	</g>
</g>
<g id="Weißer_Verlauf">
	<g>
		
			<linearGradient id="SVGID_38_" gradientUnits="userSpaceOnUse" x1="1239.8361" y1="2342.3325" x2="1566.0094" y2="2342.3325" gradientTransform="matrix(-1 0 0 -1 2679.0972 4996.0488)">
			<stop  offset="0" style="stop-color:#FFFFFF"/>
			<stop  offset="0.9988" style="stop-color:#FFFFFF;stop-opacity:0"/>
		</linearGradient>
		<rect x="1113.1" y="2579.6" class="st68" width="326.2" height="148.3"/>
	</g>
</g>
</svg>
