<svg xmlns="http://www.w3.org/2000/svg" xmlns:xlink="http://www.w3.org/1999/xlink" viewBox="0 0 231.63 172.87"><defs><style>.cls-1{fill:url(#HDI_Verlauf_dunkel);}.cls-2{fill:#b3e1c2;}.cls-3{fill:#fff;}.cls-4{fill:url(#Unbenannter_Verlauf_3);}.cls-5{fill:#99d7ad;}.cls-6{fill:#33b05c;}</style><linearGradient id="HDI_Verlauf_dunkel" x1="43.51" y1="14.74" x2="231.63" y2="14.74" gradientUnits="userSpaceOnUse"><stop offset="0" stop-color="#4dba71"/><stop offset="1" stop-color="#007d29"/></linearGradient><linearGradient id="Unbenannter_Verlauf_3" x1="105.7" y1="5663.91" x2="207.4" y2="5663.91" gradientTransform="matrix(1, 0, 0, -1, 0, 5778.35)" gradientUnits="userSpaceOnUse"><stop offset="0" stop-color="#8bd3a3"/><stop offset="1" stop-color="#4dba71"/></linearGradient></defs><g id="Pricetag"><polygon class="cls-1" points="231.63 28.93 43.51 29.49 67.02 0 231.63 0 231.63 28.93"/><polygon class="cls-2" points="55.3 29.47 231.63 28.91 231.63 156.29 54.88 156.29 55.3 29.47"/><rect class="cls-3" x="73.34" y="76.76" width="158.3" height="81.19"/><path class="cls-4" d="M207.31,140.08h-7.86c0,2.9.07,5.62,0,8.35-.15,4.66-2.35,7.65-6,8.34-5,1-9.06-2.34-9.24-7.61-.09-2.88,0-5.75,0-8.84H129c0,3,0,5.81,0,8.67-.08,4.65-2.86,7.69-7.12,7.89-4.53.21-7.62-2.52-7.95-7.32-.2-3,0-6,0-9.34H105.9c-.08-1.19-.18-2-.18-2.83,0-8.34,0-16.7,0-25,0-5,2.63-8.35,6.94-10.69a7.14,7.14,0,0,0,3.07-3.18c2.51-6,4.74-12.11,7.12-18.17,2.29-5.86,5.76-8.33,11.91-8.34q21.82-.06,43.65,0c5.63,0,9.53,2.56,11.55,7.91,2.38,6.29,4.78,12.57,7.36,18.77a6.38,6.38,0,0,0,2.87,2.94c3.94,2,6.84,5,7,9.29C207.56,120.46,207.31,130.09,207.31,140.08Zm-17.78-39.34c-2.37-6.33-4.45-12.48-7.06-18.41-.57-1.3-3-2.52-4.58-2.53-14.24-.2-28.47-.08-42.71-.15a5.13,5.13,0,0,0-5.37,3.66q-1.73,4.65-3.41,9.32c-1,2.64-1.87,5.3-2.86,8.11Zm-68,8.34a7.27,7.27,0,0,0,.17,14.53,7.27,7.27,0,0,0-.17-14.53Zm77,7.18a7.05,7.05,0,0,0-7.05-7.18,7.27,7.27,0,0,0-7.14,7.16,7.35,7.35,0,0,0,7.28,7.38A7.18,7.18,0,0,0,198.52,116.26Z"/><rect class="cls-5" x="73.34" y="56.88" width="158.3" height="28.54"/><rect class="cls-6" x="151.07" y="-13.75" width="2.84" height="158.3" transform="translate(217.89 -87.09) rotate(90)"/><rect class="cls-6" x="151.07" y="-23.69" width="2.84" height="158.3" transform="translate(207.95 -97.03) rotate(90)"/><rect class="cls-6" x="151.07" y="-3.81" width="2.84" height="158.3" transform="translate(227.83 -77.14) rotate(90)"/><rect class="cls-6" x="151.07" y="4.85" width="2.84" height="158.3" transform="translate(236.49 -68.48) rotate(90)"/></g></svg>