<svg xmlns="http://www.w3.org/2000/svg" xmlns:xlink="http://www.w3.org/1999/xlink" viewBox="0 0 352.89 250.26"><defs><style>.cls-1{fill:#ccebd6;}.cls-2{fill:#33b05c;}.cls-3{fill:#80ce99;opacity:0.69;}.cls-4{fill:#fff;}.cls-5{fill:url(#Unbenannter_Verlauf_3);}.cls-12,.cls-13,.cls-14,.cls-15,.cls-6,.cls-7{fill:none;stroke-miterlimit:10;}.cls-6{stroke:#33b05c;stroke-width:2px;}.cls-7{stroke:#007d29;stroke-width:0.5px;}.cls-8{fill:#66c485;}.cls-9{fill:url(#HDI_Verlauf_dunkel);}.cls-10{fill:#4dba71;}.cls-11{fill:url(#HDI_Verlauf_hell);}.cls-12,.cls-13,.cls-14,.cls-15{stroke:#4dba71;}.cls-13{stroke-dasharray:2.01 2.01;}.cls-14{stroke-dasharray:2.16 2.16;}.cls-15{stroke-dasharray:2.09 2.09;}.cls-16{fill:url(#HDI_Verlauf_dunkel-2);}</style><linearGradient id="Unbenannter_Verlauf_3" x1="24.03" y1="185.32" x2="96.04" y2="185.32" gradientUnits="userSpaceOnUse"><stop offset="0" stop-color="#4dba71"/><stop offset="1" stop-color="#b3e1c2"/></linearGradient><linearGradient id="HDI_Verlauf_dunkel" x1="162.25" y1="180.85" x2="185.21" y2="180.85" gradientUnits="userSpaceOnUse"><stop offset="0" stop-color="#4dba71"/><stop offset="1" stop-color="#007d29"/></linearGradient><linearGradient id="HDI_Verlauf_hell" x1="165.71" y1="157.94" x2="200.72" y2="157.94" gradientUnits="userSpaceOnUse"><stop offset="0" stop-color="#b3e1c2"/><stop offset="1" stop-color="#66c485"/></linearGradient><linearGradient id="HDI_Verlauf_dunkel-2" x1="30.18" y1="95.27" x2="98.37" y2="95.27" xlink:href="#HDI_Verlauf_dunkel"/></defs><g id="Pricetag"><rect class="cls-1" x="13.07" y="6.34" width="188.09" height="231.55"/><rect class="cls-2" y="237.46" width="214.22" height="12.79"/><rect class="cls-2" x="6.72" y="6.34" width="6.34" height="231.12"/><rect class="cls-2" x="103.72" y="-97" width="6.34" height="200.34" transform="translate(110.07 -103.72) rotate(90)"/><rect class="cls-2" x="200.72" y="6.34" width="6.34" height="231.12"/><path class="cls-3" d="M200.68,6.34c.9,3.61-9.93,57.19,81.18,82.27s68.56,44.71,68.56,44.71-56.29-3.39-83.17,6.53S243.8,155,242.89,168s3.79,23.75-27.78,27.58c0,0,5.41-50.13-37.89-81.33s-55.93-41.13-60.44-70.9-4.51-37-4.51-37Z"/><path class="cls-4" d="M52.17,101.79v25.57l-13.11,9.13,2.54,15.3,35.1,2.48,6.76-16.09s-12.68-8.64-13.53-12.48-1.27-7.08-1.27-7.08,6.77.7,9.31-8.06,3.38-24.94,3.38-24.94l-6.77-9.35L52.17,81.34l-9.73,13L45.83,101Z"/><path class="cls-5" d="M44,133.07s-14.22,2-17.39,10.23-4.44,18.26,2.54,24.26l11.94-4.08s-11.62,19.69-15,74l59.93.11-4.35-46.95L83.46,166l12.06.29s3.17-19.33-6.14-26.94a47.05,47.05,0,0,0-12.74-6.23s4.29,16.8-6.92,17-16.07-.42-16.07-.42S44.21,150.31,44,133.07Z"/><path class="cls-4" d="M83.46,166l-.4,6.59,13.14,63.1s-2.35.35-1.91,1.1c.78,1.36,15.4.54,15.4.54s1.7.38-.61-1.69c-1-.84-4.71-1.32-5.55-2.06s-8.76-67.31-8.76-67.31"/><path class="cls-4" d="M93.35,206.77c.58-.44,2.41,1.33.72,2.35s-3.18,4.08-3.18,4.08L87.64,211Z"/><path class="cls-4" d="M30.18,167.2s13.53,29.72,19.45,35.17,42.29,17.09,42.29,17.09v-6.1s-30-17.09-35.1-22.74S46,161.79,46,161.79Z"/><path class="cls-2" d="M119.46,217.8c.29-.34,17.92-15.4,17.92-15.4l-1.23-1.59-18.06,10.65Z"/><line class="cls-6" x1="135.51" y1="197.99" x2="138.61" y2="205.42"/><path class="cls-2" d="M101.76,225.62c.19-.47-4-22.38-4-22.38l19-3.74,4.73,22.41Z"/><ellipse class="cls-6" cx="100.35" cy="213.71" rx="9.16" ry="7.72" transform="translate(-27.74 15.38) rotate(-7.7)"/><path class="cls-4" d="M87.81,211.94s7.92-1.15,9.89,0c4.14,2.41,1.78,8.11-1.45,8.35S86,216.73,86,216.73Z"/><path class="cls-7" d="M142.69,173.58c3.33,6.58,4.87,13.91,6.08,21.18,1.32,7.93,3.45,17.53,4.08,25.54"/><path class="cls-7" d="M155.13,178.73q-.74,20.85-.43,41.71"/><path class="cls-7" d="M166.09,164.2c-.93,2-1.75,4-2.56,6.05a62.34,62.34,0,0,0-3.23,9.42c-1.26,5.55-1,11.31-1.49,17-.77,8.63-3.07,21.51-2.31,30.14"/><path class="cls-7" d="M163,190.65c.48,5.85-1.39,11.59-2.52,17.35-1.05,5.34-2.78,13.35-2.56,18.78"/><path class="cls-8" d="M174.65,153.08c3.5-1.75,9-2.71,11.82-5.43,1.85-1.8,2.25-9.08,3.33-11.42,2.73-5.88,4.21-7.19,6-13.42-7,3.82-14.42,8.1-17.78,15.32a4.4,4.4,0,0,1-1,1.63,5.44,5.44,0,0,1-1.51.74c-6.63,2.73-6.77,13.29-13.28,16.29l-.86-7.83a25.65,25.65,0,0,1,0-8.61c.87-3.7,3.33-6.85,4.38-10.5,1-3.48.87-8.23-.77-11.46-.67-1.32-1-4.28-2.51-4.31-2,0-4.17,4.81-4.66,6.79a38,38,0,0,0-1,12.16c.12,1.45.16,3.24-1.08,4a2.44,2.44,0,0,1-2.85-.5,4.89,4.89,0,0,1-1.22-2.8c-.9-6.13,3.84-11.58,5.14-17.64,1.58-7.41.5-15.63-6.52-18.45.15,2.09-.15,4.36,0,6.46.4,5.76,1,10.84-1.17,16.17-1.21,2.9-4,5.73-4.92,8.75-1.18,4-.77,10,1.74,13.3,1.66,2.15,2.1,2.71,3.75,4.88a13.15,13.15,0,0,1,2,11.73c-.18.56-.56,1.22-1.15,1.17a1.31,1.31,0,0,1-.86-.67c-3.05-4.4-2.25-10.56-5-15.16-1.74-2.94-4.86-5.11-5.75-8.41a14.35,14.35,0,0,1-.26-4.19l.49-12.69c-3.6,3.33-5,8.52-4.77,13.41s2,9.59,3.92,14.1c-2-2.35-3.42-5.15-5.35-7.55s-4.64-4.49-7.73-4.52a43.71,43.71,0,0,0,7.94,16.2c2.54,3.25,5.53,6.12,8,9.44a80.75,80.75,0,0,1,7,11.12c2.13,4.28,3,4.7,4.29,6,2.22,2.22,2.48,2.89,4.44,1,2.55-2.54,2.38-5.94,3.56-9.18a29.16,29.16,0,0,1,14.15-15.89Z"/><path class="cls-9" d="M168,188.37c1.15-1.21,1.27-3,1.89-4.58,1.25-3.16,4.43-5,7.45-6.62s6.25-3.23,7.84-6.24c-3.69,2.63-8.66,1.88-13.18,1.86a7,7,0,0,0-2.57.35,6.48,6.48,0,0,0-2.27,1.76,19.33,19.33,0,0,0-4.74,10.72c-.14,1.26-.61,4.84.67,5.12C164.1,191,167.36,189.09,168,188.37Z"/><path class="cls-2" d="M139.73,161.28a28.09,28.09,0,0,1-.6-5.34l-1-21.85a7.78,7.78,0,0,0-3.84,7.39,18.85,18.85,0,0,0-8.71-1.1,7.35,7.35,0,0,1,3,5.11,13.93,13.93,0,0,0-6-.56,16.18,16.18,0,0,1,6.1,4.22,2.12,2.12,0,0,1,.62,1.13,1.49,1.49,0,0,1-1.43,1.41,4.25,4.25,0,0,1-2.11-.58c-2.38-1.13-5.1-2.37-7.53-1.37l4.07,2.94a3.09,3.09,0,0,1,1.44,1.74c.22,1.14-.94,2.14-2.09,2.27a8.63,8.63,0,0,1-3.37-.65,4.23,4.23,0,0,0-3.37.09.89.89,0,0,0-.45.59,1,1,0,0,0,.23.65,9.94,9.94,0,0,0,5.71,4c4.23,1.07,9-.71,12.93,1.2a6.64,6.64,0,0,1-7.64.46c-1.1,1.13-.18,3.17,1.24,3.85s3.08.48,4.66.57a12.89,12.89,0,0,1,6.32,2.1c.93.61,3.93,4.56,4.59,4.52C145.28,173.88,140.06,162.65,139.73,161.28Z"/><polygon class="cls-10" points="147.92 237.9 142.89 217.8 168.34 217.8 162.85 237.9 147.92 237.9"/><path class="cls-11" d="M200.72,150.44a83.78,83.78,0,0,0-13.61,1.13c-6.26,1.14-12.43,3.43-17.36,7.46-1.21,1-4,3.08-4,4.84,0,2.24,3.44,1.45,5,1.38,1.06-.05,2.41-.4,2.51-1.45.08-.84-.75-1.68-.37-2.42a9.72,9.72,0,0,0,3.68.15,3.29,3.29,0,0,0,2.62-2.32,2.92,2.92,0,0,1,.36-1.35,1.71,1.71,0,0,1,1.22-.5,12.75,12.75,0,0,1,6.8,1.13c1.51.71,3,1.74,4.66,1.62,2.95-.21,4.36-3.69,6.71-5.48a7,7,0,0,1,1.8-1Z"/><path class="cls-12" d="M139,198.87l1-.2"/><path class="cls-13" d="M141.9,198.31c4.93-.79,14.7-1.72,18.6,2.5,3.66,4,4.95,7.2,4.68,10.42"/><path class="cls-12" d="M165.05,212.22c-.06.33-.14.65-.22,1"/><path class="cls-12" d="M139.53,201.36l1-.2"/><path class="cls-14" d="M142.63,200.79c3.34-.54,8.59-1.14,11.83-.28"/><path class="cls-12" d="M155.48,200.86a4,4,0,0,1,.87.5"/><path class="cls-12" d="M139.85,203.55l1-.2"/><path class="cls-15" d="M142.89,203c4.18-.62,11.61-1.24,15.35,1.39"/><path class="cls-12" d="M159,205.07a4.68,4.68,0,0,1,.63.78"/><path class="cls-16" d="M94.12,117.27c4.2-11.45,11-38.28-12.35-49.12,0,0-19-6.84-26.22,5.71,0,0-2.33-3.9-6.34-1.57-13.53,7.87-19,36.56-19,36.56l22,5.66V101.13s-3.59-2.2-3.54-5.27c.09-5.94,2.5-5.76,3.54-5.08,2.11,1.37,3.81,1.63,5.92-.37s3.17-6.9,3.17-6.9,4.86,5.22,20.09,2.11c0,0-.51,17.09-4,26.34-2.71,7.24-8.73,6.66-8.73,6.66L90,124.25c1.17-.26,3.48-5.39,3.54-5.53.33-.85.54-1.45.54-1.45Z"/></g></svg>