<svg xmlns="http://www.w3.org/2000/svg" xmlns:xlink="http://www.w3.org/1999/xlink" viewBox="0 0 360.55 202.01"><defs><style>.cls-1{fill:url(#HDI_Verlauf_hell);}.cls-2{fill:#66c485;}.cls-3{fill:url(#HDI_Verlauf_dunkel);}.cls-4{fill:url(#HDI_Verlauf_dunkel-2);}.cls-5{fill:url(#HDI_Verlauf_dunkel-3);}.cls-6{fill:url(#HDI_Verlauf_dunkel-4);}.cls-7{fill:#33b05c;}.cls-8{fill:#006d24;}.cls-9{fill:#b3e1c2;}.cls-10{fill:#007d29;}.cls-11{fill:#fff;}.cls-12{fill:#009c33;}.cls-12,.cls-13{stroke:#009c33;stroke-linecap:round;stroke-linejoin:round;stroke-width:2px;}.cls-13{fill:none;}.cls-14{fill:#80ce99;}.cls-15{fill:#4dba71;}</style><linearGradient id="HDI_Verlauf_hell" x1="99.47" y1="127.85" x2="303.61" y2="127.85" gradientUnits="userSpaceOnUse"><stop offset="0" stop-color="#b3e1c2"/><stop offset="1" stop-color="#66c485"/></linearGradient><linearGradient id="HDI_Verlauf_dunkel" x1="129.12" y1="-1.07" x2="129.12" y2="59" gradientUnits="userSpaceOnUse"><stop offset="0" stop-color="#4dba71"/><stop offset="1" stop-color="#007d29"/></linearGradient><linearGradient id="HDI_Verlauf_dunkel-2" x1="273.73" y1="-1.07" x2="273.73" y2="59" xlink:href="#HDI_Verlauf_dunkel"/><linearGradient id="HDI_Verlauf_dunkel-3" x1="177.34" y1="-1.07" x2="177.34" y2="59" xlink:href="#HDI_Verlauf_dunkel"/><linearGradient id="HDI_Verlauf_dunkel-4" x1="225.74" y1="-1.07" x2="225.74" y2="59" xlink:href="#HDI_Verlauf_dunkel"/></defs><g id="Pricetag"><rect class="cls-1" x="99.47" y="53.97" width="204.14" height="147.76"/><polygon class="cls-2" points="97.45 0 87.42 53.97 113.74 53.97 121.68 0 97.45 0"/><polygon class="cls-2" points="305.27 0 315.3 53.97 288.98 53.97 281.03 0 305.27 0"/><polygon class="cls-3" points="138.71 53.97 113.8 53.97 121.68 0 144.44 0 138.71 53.97"/><polygon class="cls-4" points="264.15 53.97 289.05 53.97 281.17 0 258.41 0 264.15 53.97"/><polygon class="cls-2" points="138.71 53.97 165.24 53.97 167.39 0 144.44 0 138.71 53.97"/><polygon class="cls-2" points="264.49 53.97 237.95 53.97 235.8 0 258.75 0 264.49 53.97"/><polygon class="cls-5" points="189.44 53.97 165.24 53.97 167.39 0 189.44 0 189.44 53.97"/><rect class="cls-2" x="189.44" width="24.2" height="53.97"/><polygon class="cls-6" points="237.84 53.97 213.64 53.97 213.64 0 235.69 0 237.84 53.97"/><path class="cls-7" d="M100.61,70.1c7.28,0,13.19-7.22,13.19-16.13H87.42C87.42,62.88,93.32,70.1,100.61,70.1Z"/><path class="cls-7" d="M152,70.1c7.29,0,13.2-7.22,13.2-16.13H138.78C138.78,62.88,144.69,70.1,152,70.1Z"/><path class="cls-7" d="M201.54,70.1c6.68,0,12.1-7.22,12.1-16.13h-24.2C189.44,62.88,194.86,70.1,201.54,70.1Z"/><path class="cls-7" d="M251.16,70.1c7.36,0,13.33-7.22,13.33-16.13H237.84C237.84,62.88,243.81,70.1,251.16,70.1Z"/><path class="cls-7" d="M302.18,70.1c7.24,0,13.12-7.22,13.12-16.13H289.05C289.05,62.88,294.93,70.1,302.18,70.1Z"/><path class="cls-8" d="M126.25,70.1c6.88,0,12.46-7.22,12.46-16.13H113.8C113.8,62.88,119.38,70.1,126.25,70.1Z"/><path class="cls-8" d="M177.34,70.1c6.68,0,12.1-7.22,12.1-16.13h-24.2C165.24,62.88,170.66,70.1,177.34,70.1Z"/><path class="cls-8" d="M225.74,70.1c6.68,0,12.1-7.22,12.1-16.13h-24.2C213.64,62.88,219.06,70.1,225.74,70.1Z"/><path class="cls-8" d="M276.77,70.1c6.78,0,12.28-7.22,12.28-16.13H264.49C264.49,62.88,270,70.1,276.77,70.1Z"/><rect class="cls-7" x="228.15" y="100.95" width="51.73" height="100.77"/><rect class="cls-9" x="234.44" y="107.84" width="39.16" height="37.15"/><rect class="cls-9" x="234.44" y="158.9" width="39.16" height="37.15"/><rect class="cls-10" x="262.5" y="149.99" width="11.1" height="3.62"/><rect class="cls-11" x="118.82" y="101.27" width="83.04" height="57.95"/><rect class="cls-2" x="114.52" y="159.22" width="92.24" height="6.12"/><rect class="cls-7" x="131.2" y="128.09" width="58.27" height="4" transform="translate(290.43 -30.25) rotate(90)"/><rect class="cls-7" x="118.82" y="128.09" width="83.04" height="4" transform="translate(320.68 260.17) rotate(180)"/><line class="cls-12" x1="40.08" y1="201.01" x2="40.08" y2="75.68"/><polyline class="cls-13" points="39.97 75.68 67.67 75.68 67.67 82.48"/><polyline class="cls-13" points="39.97 75.68 12.26 75.68 12.26 82.48"/><path class="cls-2" d="M79.93,90.05v-3.9a3.37,3.37,0,0,0-3.71-3.67H59.11a3.37,3.37,0,0,0-3.71,3.67v3.9Z"/><path class="cls-2" d="M24.53,90.05v-3.9a3.37,3.37,0,0,0-3.71-3.67H3.71A3.37,3.37,0,0,0,0,86.15v3.9Z"/><rect class="cls-2" x="31.94" y="196.05" width="16.28" height="5.67"/><rect class="cls-7" x="37.48" y="186.31" width="5.2" height="9.74"/><path class="cls-14" d="M356.74,144c0,12.71-5.39,23-12.05,23s-12.05-10.31-12.05-23,5.39-33.77,12.05-33.77S356.74,131.29,356.74,144Z"/><line class="cls-12" x1="344.69" y1="182.37" x2="344.69" y2="151.74"/><polygon class="cls-15" points="358.4 201.41 330.98 201.41 328.83 182.37 360.55 182.37 358.4 201.41"/></g></svg>