<svg xmlns="http://www.w3.org/2000/svg" xmlns:xlink="http://www.w3.org/1999/xlink" viewBox="0 0 588.01 279.64"><defs><style>.cls-1{fill:#ccebd6;}.cls-2{fill:#4dba71;}.cls-3{fill:#fff;}.cls-4{fill:url(#HDI_Verlauf_dunkel);}.cls-5{fill:url(#Unbenannter_Verlauf_3);}.cls-6{fill:url(#HDI_Verlauf_dunkel-2);}.cls-7{fill:#66c485;}.cls-8{fill:url(#Unbenannter_Verlauf_4);}.cls-9{fill:#33b05c;}.cls-10{fill:#009c33;}.cls-11{fill:url(#Unbenannter_Verlauf_4-2);}.cls-12,.cls-19{fill:#80ce99;}.cls-13{fill:url(#HDI_Verlauf_hell);}.cls-14,.cls-16,.cls-18,.cls-21,.cls-22,.cls-25,.cls-26,.cls-27,.cls-28{fill:none;}.cls-14,.cls-25,.cls-26,.cls-27,.cls-28{stroke:#4dba71;}.cls-14,.cls-16,.cls-18{stroke-linecap:round;}.cls-14,.cls-16,.cls-21,.cls-22,.cls-25,.cls-26,.cls-27,.cls-28{stroke-miterlimit:10;}.cls-15{fill:url(#HDI_Verlauf_dunkel-3);}.cls-16{stroke:#66c485;stroke-width:4px;}.cls-17{fill:url(#Unbenannter_Verlauf_43);}.cls-18,.cls-21{stroke:#33b05c;}.cls-18{stroke-linejoin:round;}.cls-19{opacity:0.69;}.cls-20{fill:url(#Unbenannter_Verlauf_3-2);}.cls-21{stroke-width:2px;}.cls-22{stroke:#007d29;stroke-width:0.5px;}.cls-23{fill:url(#HDI_Verlauf_dunkel-4);}.cls-24{fill:url(#HDI_Verlauf_hell-2);}.cls-26{stroke-dasharray:2.01 2.01;}.cls-27{stroke-dasharray:2.16 2.16;}.cls-28{stroke-dasharray:2.09 2.09;}.cls-29{fill:url(#HDI_Verlauf_dunkel-5);}</style><linearGradient id="HDI_Verlauf_dunkel" x1="77.57" y1="60.26" x2="120.71" y2="60.26" gradientUnits="userSpaceOnUse"><stop offset="0" stop-color="#4dba71"/><stop offset="1" stop-color="#007d29"/></linearGradient><linearGradient id="Unbenannter_Verlauf_3" x1="56.42" y1="168.63" x2="146.63" y2="168.63" gradientUnits="userSpaceOnUse"><stop offset="0" stop-color="#4dba71"/><stop offset="1" stop-color="#b3e1c2"/></linearGradient><linearGradient id="HDI_Verlauf_dunkel-2" x1="151.2" y1="91.27" x2="196.58" y2="91.27" xlink:href="#HDI_Verlauf_dunkel"/><linearGradient id="Unbenannter_Verlauf_4" x1="56.42" y1="159.47" x2="142.47" y2="159.47" gradientUnits="userSpaceOnUse"><stop offset="0" stop-color="#b3e1c2"/><stop offset="1" stop-color="#4dba71"/></linearGradient><linearGradient id="Unbenannter_Verlauf_4-2" x1="126.01" y1="175.64" x2="167.98" y2="175.64" xlink:href="#Unbenannter_Verlauf_4"/><linearGradient id="HDI_Verlauf_hell" x1="37.32" y1="178.44" x2="63.86" y2="178.44" gradientUnits="userSpaceOnUse"><stop offset="0" stop-color="#b3e1c2"/><stop offset="1" stop-color="#66c485"/></linearGradient><linearGradient id="HDI_Verlauf_dunkel-3" x1="32.8" y1="180.55" x2="47.88" y2="180.55" xlink:href="#HDI_Verlauf_dunkel"/><linearGradient id="Unbenannter_Verlauf_43" x1="128.26" y1="225.75" x2="158.67" y2="225.75" gradientUnits="userSpaceOnUse"><stop offset="0" stop-color="#66c485"/><stop offset="1" stop-color="#4dba71"/></linearGradient><linearGradient id="Unbenannter_Verlauf_3-2" x1="259.15" y1="185.32" x2="331.16" y2="185.32" xlink:href="#Unbenannter_Verlauf_3"/><linearGradient id="HDI_Verlauf_dunkel-4" x1="397.36" y1="180.85" x2="420.33" y2="180.85" xlink:href="#HDI_Verlauf_dunkel"/><linearGradient id="HDI_Verlauf_hell-2" x1="400.83" y1="157.94" x2="435.84" y2="157.94" xlink:href="#HDI_Verlauf_hell"/><linearGradient id="HDI_Verlauf_dunkel-5" x1="265.3" y1="95.27" x2="333.49" y2="95.27" xlink:href="#HDI_Verlauf_dunkel"/></defs><g id="Pricetag"><rect class="cls-1" x="13.07" y="6.34" width="188.09" height="231.55"/><polygon class="cls-2" points="140.16 237.57 79.14 237.57 79.03 218.85 141.26 221.71 140.16 237.57"/><path class="cls-3" d="M81.65,68S82.48,94.81,98,100.1s20.06-29.6,20.06-29.6l-3-17.6L85,53.16Z"/><path class="cls-3" d="M93.22,88.6S91,104.88,90.35,106.36s-11.2,8.25-11.2,8.25l13.32,15h27.8l3.07-19s-11.76-.68-12.79-4.12c-1.27-4.23-3.61-20.41-3.61-20.41Z"/><path class="cls-4" d="M106.35,59c-5.11,2.58-16.46-.17-16.46-.17l-4.28,1.75c-4.28,1.75-2,15.9-2,15.9l-1.11,1.11s-5.17-11.17-5-17.3.83-7.91,8.55-14.29c9.2-7.58,20.06-3.93,25.73-1.62s3.6,6.33,3.6,6.33a17.13,17.13,0,0,1,2.76,2c1.48,1.32,3.66,8.3,1.73,15.82-1.69,6.54-2.53,9.76-2.53,9.76l-1.37.69c1.09-19.85-4.6-23.33-4.6-23.33S111.46,56.46,106.35,59Z"/><path class="cls-5" d="M130.11,164.09S142.68,121,141,115.94s-21.75-6-21.75-6-3.09,10.78-16.41,11c-13.8.22-17.29-10.63-17.29-10.63s-12.07,4.53-15.24,6.85S56.42,132.58,56.42,148c0,15.07,5.65,28.71,28.43,40.66,24,12.6,51.39,19.52,51.39,19.52l5.5-13s-54-21.57-60.09-28.33S73.22,147,73.22,147s2.56,62.1,4.35,73.5,69.06,5.11,69.06,5.11l-2.36-22.36L139.62,178Z"/><path class="cls-3" d="M138.8,201.06s8.72,2.36,14.22-2.19,3.88-11.81,3.88-11.81l-15.15,7Z"/><path class="cls-3" d="M153,69.94s-11.18,26,2.46,30.92l-6.11,11s3.57,3.72,7.54,4,7.29-5,7.29-5V101.5l9.69-8.56.94-24Z"/><path class="cls-6" d="M151.2,70.41S164.36,74.7,166,75s4.28,1.43,6.34,0c0,0-2.64,3-2.85,6-.16,2.22.15,3.49,1.74,4.12s3.07-.15,2.71,2.54c-.65,4.76-6.52,10.8-6.52,10.8s-1.42,20,15.23,23c0,0,5.71,1,11.26-8.41,0,0-8.09-7.29-6.19-16.17S197,81,196.55,73.59s-3.48-9.68-7.29-11S181,66,181,66s-6.5-4.75-12-4.91S157.07,60.9,151.2,70.41Z"/><path class="cls-7" d="M132.45,111.64s.89.17,2.19.54c1.53.42,4.56,1,4.11,2.94-1,4.33-9.44,37.44-9.44,43.63s.8,5.34.8,5.34,5.6,4.81,16.91,1.16,16.1-7.48,18.32-7.32l.45-30.9,1.11,4.76,9.83-6.35s-1.11-9.67-4.28-12S164.2,110,164.2,110s-3.64,6.87-8.88,5.13-4.12-4.93-4.12-6.36c0-.94-7.85-4.43-12.61-2.21A17.49,17.49,0,0,0,132.45,111.64Z"/><path class="cls-3" d="M105.48,191.89l-3.28,34.56-.52,2.86,3,.33s11.67-20,11.19-30.77c-.33-7.63,10.15-11.6,10.15-11.6l-15.53-1.57Z"/><path class="cls-8" d="M73.1,145.47l-2.31-28.63s-11.32,4.83-13.79,23c-1.3,9.53-1,23.57,7.82,34.05,4.72,5.59,11.93,10.5,20,14.69L113,196.81l25.82,5.3,3.67-8.67s-49.29-19.36-56.93-23.91C79.67,166,73.68,157.1,73.1,145.47Z"/><path class="cls-3" d="M115.83,171.28s-18.55,9.2-20.61,11.57-13.57,46.47-13.57,46.47l3.1,1.27S98,211.24,99.85,202.84s1.39-7.25,1.39-7.25l28.07-9.44Z"/><path class="cls-9" d="M113,171s6.58,13.16,13.44,16.1c2,.84,11.09-3.77,19.33-10.29,8.46-6.68,19.56-14.27,19.56-14.27l0-4.57-35,5.29S123,163.34,113,171Z"/><path class="cls-3" d="M151.2,154.31l19.48-16.74-3-6.28,7.57-4.89s3.23,8.24,3.54,9.19a5.74,5.74,0,0,1-.79,5.08c-1.43,2.06-25.53,18.86-25.53,18.86s-2.59,4.75-6.66,4.93c-2.9.12-5.57.32-6.11-2.46-.43-2.18,1.87-3.12,2.77-3.44a6,6,0,0,0,1.75-1.12s-2.17-.75-1.75-2,2.38-.64,2.38-.64,2.38.8,3.26,1S151.2,154.31,151.2,154.31Z"/><path class="cls-10" d="M84.75,230.59l-3.1-1.27s-6.73-.16-8.16.64,5.87,3.27,5.87,3.27l3.8,1.32Z"/><path class="cls-10" d="M104.64,229.64l-3-.33S95.16,231,94,232.15s6.45,1.56,6.45,1.56l3.7.47Z"/><path class="cls-11" d="M126,186.87l30.63-22.4s8.57-7.49,9.2-6.54,4.81,17.1-.59,23-22.78,12.54-22.78,12.54Z"/><path class="cls-12" d="M38.13,215.59s-10-7.64-14.51-28.73-1.15-21.39-2.5-30.86-4.29-12.76-4.29-12.76S30.3,148,34.67,168.5s6.68,46.22,6.68,46.22Z"/><path class="cls-13" d="M43.15,214.15s20.58-21.51,20.67-40.92,0-31.36,0-31.36S47,153.7,42.61,165.12c-4.11,10.77-7.28,21.56-3.79,42.06L40.39,215S42.44,214.46,43.15,214.15Z"/><path class="cls-14" d="M60.64,150.17s-18.75,39.58-18.47,54"/><line class="cls-14" x1="60.37" y1="166.99" x2="50.04" y2="175.41"/><line class="cls-14" x1="53.61" y1="166.13" x2="53.01" y2="156.13"/><path class="cls-15" d="M37.89,215.33s-8.75-20.17-3.29-32.52,6.11-37.05,6.11-37.05,7.19,20,7.17,40.79c0,10.17-2.22,18.61-6.61,27.86Z"/><polygon class="cls-2" points="29.66 237.9 22.69 211.47 58 211.47 50.39 237.9 29.66 237.9"/><rect class="cls-9" y="237.46" width="214.22" height="12.79"/><path class="cls-7" d="M170.49,217.16s-4.71-8.27-23.5-4c-21,4.76-18.26,21.57-17.68,24.32h62.94s.85-5.14-3.17-5.53-4.08-.18-4.08-.18l1.48-6.49Z"/><path class="cls-16" d="M131.17,231.75s-3.82,6.89,3,15.33c6.25,7.68,2.74,21.68-8.22,30.56"/><path class="cls-17" d="M128.6,237.9h29.63s2.11-4.45-3-5-8.28-.74-8.28-.74,4.21-3,4.21-7c0-7.46-6-11.61-6-11.61S125.48,218,128.6,237.9Z"/><circle class="cls-7" cx="181.24" cy="217.2" r="11.21"/><polygon class="cls-7" points="171.72 211.79 174.59 201.36 178.9 210.03 171.72 211.79"/><polygon class="cls-7" points="192.32 215.71 191.98 204.33 185.85 211.82 192.32 215.71"/><line class="cls-18" x1="183.6" y1="218.85" x2="188.04" y2="217.2"/><line class="cls-18" x1="183.6" y1="218.85" x2="187.62" y2="220.76"/><line class="cls-18" x1="179.06" y1="218.03" x2="175.92" y2="214.91"/><line class="cls-18" x1="174.51" y1="218.54" x2="179.06" y2="218.03"/><rect class="cls-9" x="6.72" y="6.34" width="6.34" height="231.12"/><rect class="cls-9" x="103.72" y="-97" width="6.34" height="200.34" transform="translate(110.07 -103.72) rotate(90)"/><rect class="cls-9" x="200.72" y="6.34" width="6.34" height="231.12"/><rect class="cls-1" x="248.18" y="6.34" width="188.09" height="231.55"/><rect class="cls-9" x="235.12" y="237.46" width="214.22" height="12.79"/><rect class="cls-9" x="241.84" y="6.34" width="6.34" height="231.12"/><rect class="cls-9" x="338.84" y="-97" width="6.34" height="200.34" transform="translate(345.18 -338.84) rotate(90)"/><rect class="cls-9" x="435.84" y="6.34" width="6.34" height="231.12"/><path class="cls-19" d="M435.79,6.34C436.7,10,425.87,63.53,517,88.61s68.56,44.71,68.56,44.71-56.29-3.39-83.17,6.53S478.91,155,478,168s3.79,23.75-27.78,27.58c0,0,5.41-50.13-37.89-81.33S356.41,73.1,351.9,43.33s-4.51-37-4.51-37Z"/><path class="cls-3" d="M287.29,101.79v25.57l-13.11,9.13,2.53,15.3,35.11,2.48,6.76-16.09s-12.69-8.64-13.53-12.48-1.27-7.08-1.27-7.08,6.77.7,9.3-8.06,3.39-24.94,3.39-24.94l-6.77-9.35-22.41,5.07-9.73,13,3.38,6.69Z"/><path class="cls-20" d="M279.08,133.07s-14.21,2-17.38,10.23-4.44,18.26,2.54,24.26l11.94-4.08s-11.62,19.69-15,74l59.93.11-4.36-46.95L318.58,166l12.05.29s3.18-19.33-6.13-26.94a47,47,0,0,0-12.75-6.23s4.29,16.8-6.91,17-16.07-.42-16.07-.42S279.33,150.31,279.08,133.07Z"/><path class="cls-3" d="M318.58,166l-.4,6.59,13.14,63.1s-2.35.35-1.91,1.1c.78,1.36,15.4.54,15.4.54s1.7.38-.62-1.69c-.94-.84-4.7-1.32-5.55-2.06s-8.75-67.31-8.75-67.31"/><path class="cls-3" d="M328.47,206.77c.58-.44,2.41,1.33.71,2.35S326,213.2,326,213.2L322.76,211Z"/><path class="cls-3" d="M265.3,167.2s13.53,29.72,19.45,35.17S327,219.46,327,219.46v-6.1s-30-17.09-35.1-22.74-10.79-28.83-10.79-28.83Z"/><path class="cls-9" d="M354.58,217.8c.29-.34,17.91-15.4,17.91-15.4l-1.22-1.59-18.06,10.65Z"/><line class="cls-21" x1="370.63" y1="197.99" x2="373.73" y2="205.42"/><path class="cls-9" d="M336.88,225.62c.19-.47-4.05-22.38-4.05-22.38l19-3.74,4.73,22.41Z"/><ellipse class="cls-21" cx="335.46" cy="213.71" rx="9.16" ry="7.72" transform="translate(-25.62 46.89) rotate(-7.7)"/><path class="cls-3" d="M322.92,211.94s7.93-1.15,9.89,0c4.15,2.41,1.79,8.11-1.45,8.35s-10.24-3.56-10.24-3.56Z"/><path class="cls-22" d="M377.81,173.58c3.33,6.58,4.86,13.91,6.08,21.18,1.31,7.93,3.45,17.53,4.08,25.54"/><path class="cls-22" d="M390.25,178.73q-.74,20.85-.43,41.71"/><path class="cls-22" d="M401.21,164.2c-.93,2-1.75,4-2.57,6.05a62.3,62.3,0,0,0-3.22,9.42c-1.26,5.55-1,11.31-1.49,17-.77,8.63-3.07,21.51-2.31,30.14"/><path class="cls-22" d="M398.13,190.65c.47,5.85-1.39,11.59-2.52,17.35-1.05,5.34-2.79,13.35-2.56,18.78"/><path class="cls-7" d="M409.77,153.08c3.5-1.75,9-2.71,11.82-5.43,1.85-1.8,2.25-9.08,3.33-11.42,2.72-5.88,4.21-7.19,6-13.42-7,3.82-14.43,8.1-17.78,15.32a4.67,4.67,0,0,1-1,1.63,5.37,5.37,0,0,1-1.52.74c-6.62,2.73-6.76,13.29-13.27,16.29l-.86-7.83a25.65,25.65,0,0,1,0-8.61c.86-3.7,3.33-6.85,4.38-10.5,1-3.48.87-8.23-.77-11.46-.67-1.32-1-4.28-2.52-4.31-2,0-4.16,4.81-4.65,6.79A38.26,38.26,0,0,0,392,133c.12,1.45.17,3.24-1.08,4a2.43,2.43,0,0,1-2.84-.5,4.83,4.83,0,0,1-1.22-2.8c-.9-6.13,3.84-11.58,5.13-17.64,1.58-7.41.51-15.63-6.51-18.45.14,2.09-.15,4.36,0,6.46.4,5.76,1.05,10.84-1.18,16.17-1.21,2.9-4,5.73-4.91,8.75-1.18,4-.78,10,1.74,13.3,1.66,2.15,2.1,2.71,3.74,4.88a13.12,13.12,0,0,1,2,11.73c-.18.56-.56,1.22-1.15,1.17a1.35,1.35,0,0,1-.87-.67c-3.05-4.4-2.25-10.56-5-15.16-1.75-2.94-4.86-5.11-5.75-8.41a14.35,14.35,0,0,1-.26-4.19l.48-12.69c-3.59,3.33-5,8.52-4.77,13.41s2,9.59,3.92,14.1c-2-2.35-3.41-5.15-5.34-7.55s-4.65-4.49-7.73-4.52a43.56,43.56,0,0,0,7.94,16.2c2.54,3.25,5.53,6.12,8,9.44a80.75,80.75,0,0,1,7,11.12c2.13,4.28,3,4.7,4.28,6,2.22,2.22,2.48,2.89,4.44,1,2.56-2.54,2.38-5.94,3.57-9.18a29.16,29.16,0,0,1,14.15-15.89Z"/><path class="cls-23" d="M403.15,188.37c1.14-1.21,1.27-3,1.89-4.58,1.25-3.16,4.43-5,7.44-6.62s6.26-3.23,7.85-6.24c-3.69,2.63-8.66,1.88-13.19,1.86a6.88,6.88,0,0,0-2.56.35,6.39,6.39,0,0,0-2.27,1.76,19.34,19.34,0,0,0-4.75,10.72c-.14,1.26-.61,4.84.67,5.12C399.22,191,402.48,189.09,403.15,188.37Z"/><path class="cls-9" d="M374.85,161.28a27.3,27.3,0,0,1-.6-5.34l-1-21.85a7.77,7.77,0,0,0-3.84,7.39,18.85,18.85,0,0,0-8.71-1.1,7.38,7.38,0,0,1,2.95,5.11,13.93,13.93,0,0,0-6-.56,16.26,16.26,0,0,1,6.1,4.22,2.12,2.12,0,0,1,.62,1.13,1.49,1.49,0,0,1-1.43,1.41,4.19,4.19,0,0,1-2.11-.58c-2.38-1.13-5.1-2.37-7.53-1.37l4.07,2.94a3.13,3.13,0,0,1,1.44,1.74c.22,1.14-.94,2.14-2.09,2.27a8.68,8.68,0,0,1-3.38-.65,4.21,4.21,0,0,0-3.36.09.91.91,0,0,0-.46.59,1.06,1.06,0,0,0,.24.65,10,10,0,0,0,5.7,4c4.24,1.07,9-.71,12.93,1.2a6.64,6.64,0,0,1-7.64.46c-1.09,1.13-.17,3.17,1.25,3.85s3.08.48,4.65.57a12.89,12.89,0,0,1,6.33,2.1c.93.61,3.92,4.56,4.59,4.52C380.4,173.88,375.18,162.65,374.85,161.28Z"/><polygon class="cls-2" points="383.04 237.9 378.01 217.8 403.46 217.8 397.97 237.9 383.04 237.9"/><path class="cls-24" d="M435.84,150.44a83.78,83.78,0,0,0-13.61,1.13C416,152.71,409.8,155,404.87,159c-1.21,1-4,3.08-4,4.84,0,2.24,3.44,1.45,5,1.38,1-.05,2.41-.4,2.51-1.45.08-.84-.75-1.68-.37-2.42a9.68,9.68,0,0,0,3.67.15,3.28,3.28,0,0,0,2.62-2.32,3.05,3.05,0,0,1,.37-1.35,1.71,1.71,0,0,1,1.22-.5,12.75,12.75,0,0,1,6.8,1.13c1.51.71,3,1.74,4.66,1.62,2.95-.21,4.35-3.69,6.71-5.48a7,7,0,0,1,1.8-1Z"/><path class="cls-25" d="M374.07,198.87l1-.2"/><path class="cls-26" d="M377,198.31c4.93-.79,14.7-1.72,18.6,2.5,3.66,4,4.95,7.2,4.68,10.42"/><path class="cls-25" d="M400.16,212.22a8.62,8.62,0,0,1-.22,1"/><path class="cls-25" d="M374.65,201.36l1-.2"/><path class="cls-27" d="M377.75,200.79c3.33-.54,8.59-1.14,11.83-.28"/><path class="cls-25" d="M390.6,200.86a4,4,0,0,1,.87.5"/><path class="cls-25" d="M375,203.55l1-.2"/><path class="cls-28" d="M378,203c4.18-.62,11.62-1.24,15.36,1.39"/><path class="cls-25" d="M394.16,205.07a5.25,5.25,0,0,1,.63.78"/><path class="cls-29" d="M329.24,117.27c4.19-11.45,11-38.28-12.35-49.12,0,0-19-6.84-26.22,5.71,0,0-2.33-3.9-6.34-1.57-13.54,7.87-19,36.56-19,36.56l22,5.66V101.13s-3.59-2.2-3.54-5.27c.09-5.94,2.5-5.76,3.54-5.08,2.11,1.37,3.8,1.63,5.92-.37s3.17-6.9,3.17-6.9,4.86,5.22,20.09,2.11c0,0-.51,17.09-4,26.34-2.71,7.24-8.73,6.66-8.73,6.66l21.38,5.63c1.17-.26,3.48-5.39,3.53-5.53.34-.85.55-1.45.55-1.45Z"/></g></svg>