<svg xmlns="http://www.w3.org/2000/svg" xmlns:xlink="http://www.w3.org/1999/xlink" viewBox="0 0 367.29 347.59"><defs><style>.cls-1{fill:#66c485;}.cls-2{fill:#4dba71;}.cls-3{fill:url(#HDI_Verlauf_dunkel);}.cls-4{fill:url(#Unbenannter_Verlauf_2);}.cls-5{fill:#fff;}.cls-6{fill:url(#Unbenannter_Verlauf_2-2);}.cls-7{fill:#007d29;}</style><linearGradient id="HDI_Verlauf_dunkel" x1="3.81" y1="257.43" x2="52.33" y2="257.43" gradientUnits="userSpaceOnUse"><stop offset="0" stop-color="#4dba71"/><stop offset="1" stop-color="#007d29"/></linearGradient><linearGradient id="Unbenannter_Verlauf_2" x1="314.96" y1="257.43" x2="363.49" y2="257.43" gradientUnits="userSpaceOnUse"><stop offset="0" stop-color="#007d29"/><stop offset="1" stop-color="#4dba71"/></linearGradient><linearGradient id="Unbenannter_Verlauf_2-2" x1="41.4" y1="28.12" x2="322.57" y2="28.12" xlink:href="#Unbenannter_Verlauf_2"/></defs><g id="Pricetag"><rect class="cls-1" x="52.33" y="37.5" width="262.63" height="310.1"/><polygon class="cls-2" points="314.96 347.59 52.34 347.59 314.96 37.5 314.96 347.59"/><rect class="cls-3" x="3.81" y="167.27" width="48.53" height="180.32"/><rect class="cls-4" x="314.96" y="167.27" width="48.53" height="180.32"/><rect class="cls-5" x="15.22" y="183.36" width="29.5" height="21.54"/><rect class="cls-5" x="15.22" y="211.71" width="29.5" height="21.54"/><rect class="cls-5" x="15.22" y="240.41" width="29.5" height="21.54"/><rect class="cls-5" x="15.22" y="268.93" width="29.5" height="21.54"/><rect class="cls-5" x="68.68" y="183.36" width="72.69" height="21.54"/><rect class="cls-5" x="68.68" y="211.71" width="72.69" height="21.54"/><rect class="cls-5" x="68.68" y="240.41" width="72.69" height="21.54"/><rect class="cls-5" x="68.68" y="268.93" width="72.69" height="21.54"/><rect class="cls-5" x="68.68" y="69.46" width="72.69" height="21.54"/><rect class="cls-5" x="68.68" y="97.8" width="72.69" height="21.54"/><rect class="cls-5" x="68.68" y="126.5" width="72.69" height="21.54"/><rect class="cls-5" x="68.68" y="155.02" width="72.69" height="21.54"/><rect class="cls-5" x="147.46" y="183.36" width="72.69" height="21.54"/><rect class="cls-5" x="147.46" y="211.71" width="72.69" height="21.54"/><rect class="cls-5" x="147.46" y="240.41" width="72.69" height="21.54"/><rect class="cls-5" x="147.46" y="268.93" width="72.69" height="21.54"/><rect class="cls-5" x="147.46" y="69.46" width="72.69" height="21.54"/><rect class="cls-5" x="147.46" y="97.8" width="72.69" height="21.54"/><rect class="cls-5" x="147.46" y="126.5" width="72.69" height="21.54"/><rect class="cls-5" x="147.46" y="155.02" width="72.69" height="21.54"/><rect class="cls-5" x="225.92" y="183.36" width="72.69" height="21.54"/><rect class="cls-5" x="225.92" y="211.71" width="72.69" height="21.54"/><rect class="cls-5" x="225.92" y="240.41" width="72.69" height="21.54"/><rect class="cls-5" x="225.92" y="268.93" width="72.69" height="21.54"/><rect class="cls-5" x="225.92" y="69.46" width="72.69" height="21.54"/><rect class="cls-5" x="225.92" y="97.8" width="72.69" height="21.54"/><rect class="cls-5" x="225.92" y="126.5" width="72.69" height="21.54"/><rect class="cls-5" x="225.92" y="155.02" width="72.69" height="21.54"/><rect class="cls-5" x="15.22" y="298.84" width="29.5" height="21.54"/><rect class="cls-5" x="322.57" y="183.36" width="29.5" height="21.54"/><rect class="cls-5" x="322.57" y="211.71" width="29.5" height="21.54"/><rect class="cls-5" x="322.57" y="240.41" width="29.5" height="21.54"/><rect class="cls-5" x="322.57" y="268.93" width="29.5" height="21.54"/><rect class="cls-5" x="322.57" y="298.84" width="29.5" height="21.54"/><rect class="cls-6" x="41.4" y="18.75" width="281.17" height="18.75"/><rect class="cls-7" x="85.3" width="193.37" height="18.75"/><rect class="cls-7" x="314.96" y="157.23" width="52.33" height="10.28"/><rect class="cls-7" y="157.23" width="52.33" height="10.28"/></g></svg>