<svg xmlns="http://www.w3.org/2000/svg" xmlns:xlink="http://www.w3.org/1999/xlink" viewBox="0 0 165.77 191.09"><defs><style>.cls-1{fill:url(#Unbenannter_Verlauf_2);}.cls-2{fill:#33b05c;}.cls-3{fill:#4dba71;}.cls-4{fill:#008c2e;}.cls-5{fill:#99d7ad;}</style><linearGradient id="Unbenannter_Verlauf_2" y1="95.54" x2="132.37" y2="95.54" gradientUnits="userSpaceOnUse"><stop offset="0" stop-color="#66c485"/><stop offset="1" stop-color="#b3e1c2"/></linearGradient></defs><g id="Pricetag"><polygon class="cls-1" points="132.37 191.09 38.56 191.09 0 152.25 0 0 132.37 0 132.37 191.09"/><polygon class="cls-2" points="0 152.25 38.56 152.25 38.56 191.09 0 152.25"/><rect class="cls-3" x="11.84" y="22.41" width="19.93" height="8.04" rx="4.02"/><rect class="cls-3" x="11.84" y="70.57" width="47.15" height="8.04" rx="4.02"/><rect class="cls-3" x="64.04" y="70.57" width="10.4" height="8.04" rx="4.02"/><rect class="cls-3" x="79.54" y="70.57" width="40.98" height="8.04" rx="4.02"/><rect class="cls-3" x="87.37" y="164.67" width="33.16" height="8.04" rx="4.02"/><rect class="cls-3" x="38.56" y="22.41" width="81.97" height="8.04" rx="4.02"/><rect class="cls-3" x="11.84" y="38.47" width="108.69" height="8.04" rx="4.02"/><rect class="cls-3" x="11.84" y="54.52" width="108.69" height="8.04" rx="4.02"/><rect class="cls-3" x="11.84" y="87.33" width="108.69" height="8.04" rx="4.02"/><path class="cls-2" d="M85.74,141.3,141.45,9.43A12.05,12.05,0,0,1,157.18,3l1.26.54a12,12,0,0,1,6.39,15.72L109.11,151.17Z"/><polygon class="cls-4" points="87.37 170.03 85.74 141.3 109.11 151.17 87.37 170.03"/><rect class="cls-5" x="135.05" y="21.22" width="25.37" height="11.85" transform="translate(22.21 -55.36) rotate(22.9)"/></g></svg>