<svg xmlns="http://www.w3.org/2000/svg" xmlns:xlink="http://www.w3.org/1999/xlink" viewBox="0 0 1440 2999.71"><defs><style>.cls-1,.cls-2,.cls-4{fill:none;}.cls-1{stroke:#ccebd6;stroke-linejoin:round;stroke-width:47px;}.cls-1,.cls-4{stroke-linecap:round;}.cls-2{stroke:#b3e1c2;stroke-width:7px;stroke-dasharray:67;}.cls-2,.cls-4{stroke-miterlimit:10;}.cls-3{fill:#b3e1c2;}.cls-4{stroke:#80ce99;stroke-width:1.5px;}.cls-5{fill:url(#HDI_Verlauf_hell);}.cls-6{fill:#80ce99;}.cls-7{fill:url(#HDI_Verlauf_dunkel);}.cls-8{fill:url(#HDI_Verlauf_dunkel-2);}.cls-11,.cls-9{font-size:16px;fill:#e6f5eb;font-family:HDI-GerlingSansCond-Bold, HDI-Gerling Sans;font-weight:700;}.cls-9{letter-spacing:-0.07em;}.cls-10{letter-spacing:0em;}.cls-12{fill:url(#HDI_Verlauf_dunkel-3);}.cls-13{fill:url(#HDI_Verlauf_dunkel-4);}.cls-14{fill:url(#Unbenannter_Verlauf_8);}</style><linearGradient id="HDI_Verlauf_hell" x1="1081.93" y1="1905.2" x2="1098.1" y2="1829.92" gradientTransform="translate(-391.59 -75.37) rotate(-14.96)" gradientUnits="userSpaceOnUse"><stop offset="0" stop-color="#b3e1c2"/><stop offset="1" stop-color="#66c485"/></linearGradient><linearGradient id="HDI_Verlauf_dunkel" x1="1186.3" y1="1349.01" x2="1311.19" y2="1349.01" gradientUnits="userSpaceOnUse"><stop offset="0" stop-color="#4dba71"/><stop offset="1" stop-color="#007d29"/></linearGradient><linearGradient id="HDI_Verlauf_dunkel-2" x1="1186.3" y1="1314.13" x2="1261.04" y2="1314.13" xlink:href="#HDI_Verlauf_dunkel"/><linearGradient id="HDI_Verlauf_dunkel-3" x1="614.78" y1="2156.74" x2="739.68" y2="2156.74" gradientTransform="translate(2487.64 1506.24) rotate(90)" xlink:href="#HDI_Verlauf_dunkel"/><linearGradient id="HDI_Verlauf_dunkel-4" x1="614.78" y1="2121.86" x2="689.52" y2="2121.86" gradientTransform="translate(2487.64 1506.24) rotate(90)" xlink:href="#HDI_Verlauf_dunkel"/><linearGradient id="Unbenannter_Verlauf_8" x1="1239.1" y1="2594.9" x2="1565.27" y2="2594.9" gradientTransform="translate(2679.1 5189.8) rotate(180)" gradientUnits="userSpaceOnUse"><stop offset="0" stop-color="#fff"/><stop offset="1" stop-color="#fff" stop-opacity="0"/></linearGradient></defs><g id="Straße"><path id="Straße-2" data-name="Straße" class="cls-1" d="M684,445.46h538.87s130.21-8,130.21,95c0,107.5-90.65,105.5-134.06,105.5,0,0-378.34,1-391.58,1-24.72,0-108.69-4.83-108.69,83.17l-4.53,491.76s-.42,100.87-97.47,100.87H214.43c-21.87,0-124.88-8.63-124.88,93.21,0,88.29,85.88,95.15,131.31,95.15h914.25s217.79-15,217.79,218.83c0,208.21-180.67,205-202.87,205H405.48c-17.14,0-239.17-15.83-239.17,189.07v264.53c0,159.84,129.8,210.84,274.69,210.84h991.31"/><path id="Straße-3" data-name="Straße" class="cls-2" d="M684,445.46h538.87s130.21-8,130.21,95c0,107.5-90.65,105.5-134.06,105.5,0,0-370.72,1-391.58,1s-108.69-4.83-108.69,83.17l-4.53,491.76s-.42,100.87-97.47,100.87H214.43c-21.87,0-124.88-8.63-124.88,93.21,0,88.29,85.88,95.15,131.31,95.15h916.4s215.64-15,215.64,218.83c0,208.21-180.67,205-202.87,205H405.48c-17.14,0-239.17-15.83-239.17,189.07v264.53c0,159.84,129.8,210.84,274.69,210.84h991.31"/></g><g id="Wegpfeile"><g id="Ebene_61" data-name="Ebene 61"><path class="cls-3" d="M1142.61,1488s-14.68-10.29-20.49-38-.89-28.17-2.52-40.62-5.77-16.78-5.77-16.78,19.48,6.15,25.09,33.15,8.08,61.49,8.08,61.49Z"/><path class="cls-3" d="M1146.83,1486.75s36.56-24.46,41.39-49.57,7.52-40.62,7.52-40.62-27.1,11.59-36.15,25.41C1149.94,1436.7,1135.64,1452.18,1146.83,1486.75Z"/><path class="cls-4" d="M1189.21,1406.62s-36.62,47.08-39.7,65.85"/><line class="cls-4" x1="1184.75" y1="1428.34" x2="1167.82" y2="1436.95"/><line class="cls-4" x1="1175.2" y1="1425.72" x2="1176.75" y2="1412.63"/><path class="cls-5" d="M1143.65,1487.92s-15.45-25.39-9.06-42.58,4.32-49.71,4.32-49.71,12.84,24.89,15.37,52.19c1.24,13.35-1.25,26.12-6.47,39.06Z"/></g><polygon class="cls-6" points="1183.32 1490.35 1175.07 1489.64 1175.07 1295.26 1183.32 1295.26 1183.32 1490.35"/><polygon class="cls-7" points="1294.35 1362.65 1186.3 1362.65 1186.3 1335.37 1294.35 1335.37 1311.19 1349.01 1294.35 1362.65"/><polygon class="cls-8" points="1244.19 1327.77 1186.3 1327.77 1186.3 1300.49 1244.19 1300.49 1261.04 1314.13 1244.19 1327.77"/><text class="cls-9" transform="translate(1193.17 1355.05)">T<tspan class="cls-10" x="6.5" y="0">ARIFRECHNER</tspan></text><text class="cls-11" transform="translate(1193.17 1320.11)">HDI-</text><polygon class="cls-6" points="189.85 2118.03 190.28 2109.79 384.65 2109.79 384.65 2118.03 189.85 2118.03"/><polygon class="cls-12" points="317.26 2229.07 317.26 2121.02 344.54 2121.02 344.54 2229.07 330.9 2245.91 317.26 2229.07"/><polygon class="cls-13" points="352.14 2178.91 352.14 2121.02 379.42 2121.02 379.42 2178.91 365.78 2195.76 352.14 2178.91"/><text class="cls-9" transform="translate(324.87 2127.89) rotate(90)">T<tspan class="cls-10" x="6.5" y="0">ARIFRECHNER</tspan></text><text class="cls-11" transform="translate(359.81 2127.89) rotate(90)">HDI-</text></g><g id="Ebene_74" data-name="Ebene 74"><rect class="cls-14" x="1113.83" y="2520.76" width="326.17" height="148.27"/></g></svg>