<?xml version="1.0" encoding="UTF-8" standalone="no"?>
<!-- Created with Keyshape -->
<svg xmlns="http://www.w3.org/2000/svg" viewBox="0 0 671.79 560.46">
    <defs>
        <linearGradient id="Gradient-0" x1="563.49" y1="536.54" x2="585.56" y2="433.74" gradientUnits="userSpaceOnUse">
            <stop offset="0" stop-color="#b3e1c2"/>
            <stop offset="1" stop-color="#66c485"/>
        </linearGradient>
        <linearGradient id="Gradient-1" x1="227.65" y1="542.92" x2="183.24" y2="408.44" gradientUnits="userSpaceOnUse">
            <stop offset="0" stop-color="#b3e1c2"/>
            <stop offset="1" stop-color="#66c485"/>
        </linearGradient>
        <linearGradient id="Gradient-2" x1="28.5" y1="41.67" x2="28.5" y2="-0.2" gradientUnits="userSpaceOnUse">
            <stop offset="0" stop-color="#4dba71"/>
            <stop offset="1" stop-color="#007d29"/>
        </linearGradient>
        <linearGradient id="Gradient-3" x1="17.88" y1="217.83" x2="191.08" y2="217.83" gradientUnits="userSpaceOnUse">
            <stop offset="0" stop-color="#4dba71"/>
            <stop offset="1" stop-color="#007d29"/>
        </linearGradient>
        <linearGradient id="Gradient-4" x1="163.87" y1="222.64" x2="515.89" y2="222.64" gradientUnits="userSpaceOnUse">
            <stop offset="0" stop-color="#4dba71"/>
            <stop offset="1" stop-color="#007d29"/>
        </linearGradient>
        <linearGradient id="Gradient-5" x1="174.49" y1="117.82" x2="504.76" y2="117.82" gradientUnits="userSpaceOnUse">
            <stop offset="0" stop-color="#4dba71"/>
            <stop offset="1" stop-color="#007d29"/>
        </linearGradient>
        <linearGradient id="Gradient-6" x1="276.29" y1="119.45" x2="329.86" y2="119.45" gradientUnits="userSpaceOnUse">
            <stop offset="0" stop-color="#4dba71"/>
            <stop offset="1" stop-color="#007d29"/>
        </linearGradient>
        <linearGradient id="Gradient-7" x1="323.62" y1="119.4" x2="377.06" y2="119.4" gradientUnits="userSpaceOnUse">
            <stop offset="0" stop-color="#007d29"/>
            <stop offset="1" stop-color="#4dba71"/>
        </linearGradient>
        <linearGradient id="Gradient-8" x1="184.57" y1="110.21" x2="256.09" y2="110.21" gradientUnits="userSpaceOnUse">
            <stop offset="0" stop-color="#b3e1c2"/>
            <stop offset="1" stop-color="#4dba71"/>
        </linearGradient>
        <linearGradient id="Gradient-9" x1="249.85" y1="98.75" x2="298.84" y2="98.75" gradientUnits="userSpaceOnUse">
            <stop offset="0" stop-color="#4dba71"/>
            <stop offset="1" stop-color="#b3e1c2"/>
        </linearGradient>
        <linearGradient id="Gradient-10" x1="356.85" y1="386.14" x2="343.62" y2="362.2" gradientUnits="userSpaceOnUse">
            <stop offset="0" stop-color="#b3e1c2"/>
            <stop offset="1" stop-color="#4dba71"/>
        </linearGradient>
        <linearGradient id="Gradient-11" x1="331.76" y1="414.55" x2="331.76" y2="357.14" gradientUnits="userSpaceOnUse">
            <stop offset="0" stop-color="#b3e1c2"/>
            <stop offset="1" stop-color="#4dba71"/>
        </linearGradient>
        <linearGradient id="Gradient-12" x1="301.01" y1="398.92" x2="317.06" y2="365.41" gradientUnits="userSpaceOnUse">
            <stop offset="0" stop-color="#b3e1c2"/>
            <stop offset="1" stop-color="#4dba71"/>
        </linearGradient>
        <linearGradient id="Gradient-13" x1="322.49" y1="418.69" x2="311.56" y2="350.23" gradientUnits="userSpaceOnUse">
            <stop offset="0" stop-color="#b3e1c2"/>
            <stop offset="1" stop-color="#4dba71"/>
        </linearGradient>
        <linearGradient id="Gradient-14" x1="359.22" y1="411.9" x2="348.52" y2="344.89" gradientUnits="userSpaceOnUse">
            <stop offset="0" stop-color="#b3e1c2"/>
            <stop offset="1" stop-color="#4dba71"/>
        </linearGradient>
        <linearGradient id="Gradient-15" x1="336.29" y1="415.56" x2="325.59" y2="348.55" gradientUnits="userSpaceOnUse">
            <stop offset="0" stop-color="#b3e1c2"/>
            <stop offset="1" stop-color="#4dba71"/>
        </linearGradient>
        <linearGradient id="Gradient-16" x1="360.8" y1="401.42" x2="385.14" y2="401.42" gradientUnits="userSpaceOnUse">
            <stop offset="0" stop-color="#b3e1c2"/>
            <stop offset="1" stop-color="#4dba71"/>
        </linearGradient>
        <linearGradient id="Gradient-17" x1="394.89" y1="399.58" x2="434.88" y2="399.58" gradientUnits="userSpaceOnUse">
            <stop offset="0" stop-color="#4dba71"/>
            <stop offset="1" stop-color="#b3e1c2"/>
        </linearGradient>
        <linearGradient id="Gradient-18" x1="452.13" y1="503.89" x2="445.15" y2="455.68" gradientUnits="userSpaceOnUse">
            <stop offset="0" stop-color="#b3e1c2"/>
            <stop offset="1" stop-color="#4dba71"/>
        </linearGradient>
        <linearGradient id="Gradient-19" x1="176.17" y1="197.08" x2="256.98" y2="197.08" gradientUnits="userSpaceOnUse">
            <stop offset="0" stop-color="#ff9632"/>
            <stop offset="1" stop-color="#ff7200"/>
        </linearGradient>
        <linearGradient id="Gradient-20" x1="173.419" y1="133.186" x2="173.419" y2="21.8806" gradientUnits="userSpaceOnUse">
            <stop offset="0" stop-color="#ffffff"/>
            <stop offset="1" stop-color="#000000"/>
        </linearGradient>
        <linearGradient id="Gradient-21" x1="252.78" y1="77.03" x2="253.34" y2="108.94" gradientUnits="userSpaceOnUse">
            <stop offset="0" stop-color="#4dba71"/>
            <stop offset="1" stop-color="#b3e1c2"/>
        </linearGradient>
        <clipPath id="ClipPath-2">
            <path id="masking" fill="#fff" d="M-74.34,-7.33C-70.9103,-7.33,-68.13,-10.1103,-68.13,-13.54C-68.13,-16.9697,-70.9103,-19.75,-74.34,-19.75C-77.7697,-19.75,-80.55,-16.9697,-80.55,-13.54C-80.55,-10.1103,-77.7697,-7.33,-74.34,-7.33ZM0,6.21C3.42969,6.21,6.21,3.42969,6.21,0C6.21,-3.42969,3.42969,-6.21,0,-6.21C-3.42969,-6.21,-6.21,-3.42969,-6.21,0C-6.21,3.42969,-3.42969,6.21,0,6.21Z" fill-rule="evenodd" transform="translate(-180.89,-133.193) translate(327.25,122.81)"/>
        </clipPath>
        <clipPath id="ClipPath-1">
            <path id="masking-3" class="cls-18" d="M238.81,306L200.5,306L200.5,255.26L238.81,255.26ZM312.32,255.27L274,255.27L274,306L312.31,306ZM475.44,255.27L409.18,255.27L409.18,306L475.44,306ZM272.09,148.61L233.78,148.61L233.78,199.35L272.09,199.35ZM461.69,148.61L395.42,148.61L395.42,199.35L461.69,199.35ZM346.2,148.61L307.89,148.61L307.89,199.35L346.2,199.35Z" fill="#fff" transform="translate(-110.71,-211.226)"/>
        </clipPath>
        <mask id="Mask-1">
            <rect id="masking-4" width="257.35" height="267.482" fill="url(#Gradient-20)" stroke="none" transform="translate(56.2545,82.0684) translate(-128.675,-133.741)"/>
        </mask>
    </defs>
    <style>
@keyframes a0_t { 0% { transform: translate(0px,0px); animation-timing-function: cubic-bezier(0.42,0,0.58,1); } 50% { transform: translate(70px,0px); animation-timing-function: cubic-bezier(0.42,0,0.58,1); } 100% { transform: translate(0px,0px); } }
@keyframes a1_t { 0% { transform: translate(0px,0px); animation-timing-function: cubic-bezier(0.42,0,0.58,1); } 50% { transform: translate(-70px,0px); animation-timing-function: cubic-bezier(0.42,0,0.58,1); } 100% { transform: translate(0px,0px); } }
@keyframes a2_t { 0% { transform: translate(0px,0px); animation-timing-function: cubic-bezier(0.42,0,0.58,1); } 50% { transform: translate(-30px,0px); animation-timing-function: cubic-bezier(0.42,0,0.58,1); } 100% { transform: translate(0px,0px); } }
@keyframes a3_t { 0% { transform: translate(232.911px,541.459px) rotate(0deg) translate(-232.911px,-541.459px); animation-timing-function: cubic-bezier(0.42,0,0.58,1); } 30% { transform: translate(232.911px,541.459px) rotate(10deg) translate(-232.911px,-541.459px); animation-timing-function: cubic-bezier(0.42,0,0.58,1); } 70% { transform: translate(232.911px,541.459px) rotate(-10deg) translate(-232.911px,-541.459px); animation-timing-function: cubic-bezier(0.42,0,0.58,1); } 100% { transform: translate(232.911px,541.459px) rotate(0deg) translate(-232.911px,-541.459px); } }
@keyframes a4_t { 0% { transform: translate(564.764px,538.837px) rotate(0deg) translate(-564.764px,-538.837px); animation-timing-function: cubic-bezier(0.42,0,0.58,1); } 30% { transform: translate(564.764px,538.837px) rotate(10deg) translate(-564.764px,-538.837px); animation-timing-function: cubic-bezier(0.42,0,0.58,1); } 70% { transform: translate(564.764px,538.837px) rotate(-10deg) translate(-564.764px,-538.837px); animation-timing-function: cubic-bezier(0.42,0,0.58,1); } 100% { transform: translate(564.764px,538.837px) rotate(0deg) translate(-564.764px,-538.837px); } }
@keyframes a5_t { 0% { transform: translate(232.734px,537.997px) rotate(0deg) translate(-232.734px,-537.997px); animation-timing-function: cubic-bezier(0.42,0,0.58,1); } 20% { transform: translate(232.734px,537.997px) rotate(-5deg) translate(-232.734px,-537.997px); animation-timing-function: cubic-bezier(0.42,0,0.58,1); } 40% { transform: translate(232.734px,537.997px) rotate(5deg) translate(-232.734px,-537.997px); animation-timing-function: cubic-bezier(0.42,0,0.58,1); } 60% { transform: translate(232.734px,537.997px) rotate(-5deg) translate(-232.734px,-537.997px); animation-timing-function: cubic-bezier(0.42,0,0.58,1); } 80% { transform: translate(232.734px,537.997px) rotate(5deg) translate(-232.734px,-537.997px); animation-timing-function: cubic-bezier(0.42,0,0.58,1); } 100% { transform: translate(232.734px,537.997px) rotate(0deg) translate(-232.734px,-537.997px); } }
@keyframes droplet_t { 0% { transform: rotate(0deg) translate(-459.213px,-70.1814px); } 10% { transform: rotate(0deg) translate(-459.213px,-70.1814px); animation-timing-function: cubic-bezier(0.42,0,0.58,1); } 20% { transform: rotate(-40deg) translate(-459.213px,-70.1814px); } 100% { transform: rotate(-40deg) translate(-459.213px,-70.1814px); } }
@keyframes droplet_mo { 0% { offset-distance: 0%; } 10% { offset-distance: 0%; animation-timing-function: cubic-bezier(0.42,0,0.58,1); } 20% { offset-distance: 100%; } 100% { offset-distance: 100%; } }
@keyframes droplet-2_t { 0% { transform: rotate(0deg) translate(-459.213px,-70.1814px); } 15% { transform: rotate(0deg) translate(-459.213px,-70.1814px); animation-timing-function: cubic-bezier(0.42,0,0.58,1); } 25% { transform: rotate(-40deg) translate(-459.213px,-70.1814px); } 100% { transform: rotate(-40deg) translate(-459.213px,-70.1814px); } }
@keyframes droplet-2_mo { 0% { offset-distance: 0%; } 15% { offset-distance: 0%; animation-timing-function: cubic-bezier(0.42,0,0.58,1); } 25% { offset-distance: 100%; } 100% { offset-distance: 100%; } }
@keyframes droplet-3_t { 0% { transform: rotate(0deg) translate(-459.213px,-70.1814px); } 20% { transform: rotate(0deg) translate(-459.213px,-70.1814px); animation-timing-function: cubic-bezier(0.42,0,0.58,1); } 30% { transform: rotate(-40deg) translate(-459.213px,-70.1814px); } 100% { transform: rotate(-40deg) translate(-459.213px,-70.1814px); } }
@keyframes droplet-3_mo { 0% { offset-distance: 0%; } 20% { offset-distance: 0%; animation-timing-function: cubic-bezier(0.42,0,0.58,1); } 30% { offset-distance: 100%; } 100% { offset-distance: 100%; } }
@keyframes droplet-4_t { 0% { transform: rotate(0deg) translate(-459.213px,-70.1814px); } 25% { transform: rotate(0deg) translate(-459.213px,-70.1814px); animation-timing-function: cubic-bezier(0.42,0,0.58,1); } 35% { transform: rotate(-40deg) translate(-459.213px,-70.1814px); } 100% { transform: rotate(-40deg) translate(-459.213px,-70.1814px); } }
@keyframes droplet-4_mo { 0% { offset-distance: 0%; } 25% { offset-distance: 0%; animation-timing-function: cubic-bezier(0.42,0,0.58,1); } 35% { offset-distance: 100%; } 100% { offset-distance: 100%; } }
@keyframes droplet-5_t { 0% { transform: rotate(0deg) translate(-459.213px,-70.1814px); } 30% { transform: rotate(0deg) translate(-459.213px,-70.1814px); animation-timing-function: cubic-bezier(0.42,0,0.58,1); } 40% { transform: rotate(-40deg) translate(-459.213px,-70.1814px); } 100% { transform: rotate(-40deg) translate(-459.213px,-70.1814px); } }
@keyframes droplet-5_mo { 0% { offset-distance: 0%; } 30% { offset-distance: 0%; animation-timing-function: cubic-bezier(0.42,0,0.58,1); } 40% { offset-distance: 100%; } 100% { offset-distance: 100%; } }
@keyframes droplet-6_t { 0% { transform: rotate(0deg) translate(-459.213px,-70.1814px); } 35% { transform: rotate(0deg) translate(-459.213px,-70.1814px); animation-timing-function: cubic-bezier(0.42,0,0.58,1); } 45% { transform: rotate(-40deg) translate(-459.213px,-70.1814px); } 100% { transform: rotate(-40deg) translate(-459.213px,-70.1814px); } }
@keyframes droplet-6_mo { 0% { offset-distance: 0%; } 35% { offset-distance: 0%; animation-timing-function: cubic-bezier(0.42,0,0.58,1); } 45% { offset-distance: 100%; } 100% { offset-distance: 100%; } }
@keyframes droplet-7_t { 0% { transform: rotate(0deg) translate(-459.213px,-70.1814px); } 40% { transform: rotate(0deg) translate(-459.213px,-70.1814px); animation-timing-function: cubic-bezier(0.42,0,0.58,1); } 50% { transform: rotate(-40deg) translate(-459.213px,-70.1814px); } 100% { transform: rotate(-40deg) translate(-459.213px,-70.1814px); } }
@keyframes droplet-7_mo { 0% { offset-distance: 0%; } 40% { offset-distance: 0%; animation-timing-function: cubic-bezier(0.42,0,0.58,1); } 50% { offset-distance: 100%; } 100% { offset-distance: 100%; } }
@keyframes droplet-8_t { 0% { transform: rotate(0deg) translate(-459.213px,-70.1814px); } 45% { transform: rotate(0deg) translate(-459.213px,-70.1814px); animation-timing-function: cubic-bezier(0.42,0,0.58,1); } 55% { transform: rotate(-40deg) translate(-459.213px,-70.1814px); } 100% { transform: rotate(-40deg) translate(-459.213px,-70.1814px); } }
@keyframes droplet-8_mo { 0% { offset-distance: 0%; } 45% { offset-distance: 0%; animation-timing-function: cubic-bezier(0.42,0,0.58,1); } 55% { offset-distance: 100%; } 100% { offset-distance: 100%; } }
@keyframes droplet-9_t { 0% { transform: rotate(0deg) translate(-459.213px,-70.1814px); } 50% { transform: rotate(0deg) translate(-459.213px,-70.1814px); animation-timing-function: cubic-bezier(0.42,0,0.58,1); } 60% { transform: rotate(-40deg) translate(-459.213px,-70.1814px); } 100% { transform: rotate(-40deg) translate(-459.213px,-70.1814px); } }
@keyframes droplet-9_mo { 0% { offset-distance: 0%; } 50% { offset-distance: 0%; animation-timing-function: cubic-bezier(0.42,0,0.58,1); } 60% { offset-distance: 100%; } 100% { offset-distance: 100%; } }
@keyframes droplet-10_t { 0% { transform: rotate(0deg) translate(-459.213px,-70.1814px); } 55% { transform: rotate(0deg) translate(-459.213px,-70.1814px); animation-timing-function: cubic-bezier(0.42,0,0.58,1); } 65% { transform: rotate(-40deg) translate(-459.213px,-70.1814px); } 100% { transform: rotate(-40deg) translate(-459.213px,-70.1814px); } }
@keyframes droplet-10_mo { 0% { offset-distance: 0%; } 55% { offset-distance: 0%; animation-timing-function: cubic-bezier(0.42,0,0.58,1); } 65% { offset-distance: 100%; } 100% { offset-distance: 100%; } }
@keyframes knob_t { 0% { transform: translate(614.339px,340.246px) rotate(0deg) translate(-614.339px,-340.246px); animation-timing-function: cubic-bezier(0.42,0,0.58,1); } 10% { transform: translate(614.339px,340.246px) rotate(30deg) translate(-614.339px,-340.246px); } 55% { transform: translate(614.339px,340.246px) rotate(30deg) translate(-614.339px,-340.246px); animation-timing-function: cubic-bezier(0.42,0,0.58,1); } 65% { transform: translate(614.339px,340.246px) rotate(0deg) translate(-614.339px,-340.246px); } 100% { transform: translate(614.339px,340.246px) rotate(0deg) translate(-614.339px,-340.246px); } }
@keyframes water-3_t { 0% { transform: translate(-231.488px,-295.243487px); } 60% { transform: translate(-231.488px,-295.243487px); animation-timing-function: cubic-bezier(0.42,0,0.58,1); } 70% { transform: translate(-231.488px,-327.243487px); } 100% { transform: translate(-231.488px,-327.243487px); } }
@keyframes water-4_t { 0% { transform: translate(-77.113px,-306.7612px); } 10% { transform: translate(-77.113px,-306.7612px); animation-timing-function: cubic-bezier(0.42,0,0.58,1); } 25% { transform: translate(-107.113px,-315.27977px); animation-timing-function: cubic-bezier(0.42,0,0.58,1); } 45% { transform: translate(-56.889px,-346.7447px); animation-timing-function: cubic-bezier(0.42,0,0.58,1); } 65% { transform: translate(-77.113px,-361.955px); } 100% { transform: translate(-77.113px,-361.955px); } }
@keyframes water-2_t { 0% { transform: translate(-97.113px,-196.761px); } 10% { transform: translate(-97.113px,-196.761px); animation-timing-function: cubic-bezier(0.42,0,0.58,1); } 25% { transform: translate(-37.113px,-205.897px); animation-timing-function: cubic-bezier(0.42,0,0.58,1); } 45% { transform: translate(-170.148px,-239.6424px); animation-timing-function: cubic-bezier(0.42,0,0.58,1); } 65% { transform: translate(-97.113px,-255.955px); } 100% { transform: translate(-97.113px,-255.955px); } }
@keyframes Man_o { 0% { opacity: 1; } 55% { opacity: 1; animation-timing-function: cubic-bezier(0.42,0,0.58,1); } 65% { opacity: 0; } 100% { opacity: 0; } }
@keyframes Man-stress_o { 0% { opacity: 0; } 55% { opacity: 0; animation-timing-function: cubic-bezier(0.42,0,0.58,1); } 65% { opacity: 1; } 100% { opacity: 1; } }
@keyframes Balloon_t { 0% { transform: translate(479.965px,469.784px) rotate(0deg) translate(-479.965px,-469.784px); animation-timing-function: cubic-bezier(0.42,0,0.58,1); } 20% { transform: translate(479.965px,469.784px) rotate(-10deg) translate(-479.965px,-469.784px); animation-timing-function: cubic-bezier(0.42,0,0.58,1); } 40% { transform: translate(479.965px,469.784px) rotate(10deg) translate(-479.965px,-469.784px); animation-timing-function: cubic-bezier(0.42,0,0.58,1); } 60% { transform: translate(479.965px,469.784px) rotate(-10deg) translate(-479.965px,-469.784px); animation-timing-function: cubic-bezier(0.42,0,0.58,1); } 80% { transform: translate(479.965px,469.784px) rotate(10deg) translate(-479.965px,-469.784px); animation-timing-function: cubic-bezier(0.42,0,0.58,1); } 100% { transform: translate(479.965px,469.784px) rotate(0deg) translate(-479.965px,-469.784px); } }
@keyframes Pricetag_t { 0% { transform: translate(-186.13px,-313.65px); } 65% { transform: translate(-186.13px,-313.65px); animation-timing-function: cubic-bezier(0.42,0,0.58,1); } 75% { transform: translate(-184.693488px,-53.899037px); } 100% { transform: translate(-184.693488px,-53.899037px); } }
@keyframes tag_t { 0% { transform: translate(218.059px,148.815px) rotate(0deg) translate(-218.059px,-148.815px); } 70% { transform: translate(218.059px,148.815px) rotate(0deg) translate(-218.059px,-148.815px); animation-timing-function: cubic-bezier(0.42,0,0.58,1); } 75% { transform: translate(218.059px,148.815px) rotate(-30deg) translate(-218.059px,-148.815px); animation-timing-function: cubic-bezier(0.42,0,0.58,1); } 80% { transform: translate(218.059px,148.815px) rotate(20deg) translate(-218.059px,-148.815px); animation-timing-function: cubic-bezier(0.42,0,0.58,1); } 85% { transform: translate(218.059px,148.815px) rotate(0deg) translate(-218.059px,-148.815px); } 100% { transform: translate(218.059px,148.815px) rotate(0deg) translate(-218.059px,-148.815px); } }
@keyframes a6_o { 0% { opacity: 0; } 74% { opacity: 0; } 75% { opacity: 1; } 100% { opacity: 1; } }
@keyframes a7_o { 0% { opacity: 0; } 5% { opacity: 0; animation-timing-function: cubic-bezier(0.42,0,0.58,1); } 10% { opacity: 1; animation-timing-function: cubic-bezier(0.42,0,0.58,1); } 65% { opacity: 1; animation-timing-function: cubic-bezier(0.42,0,0.58,1); } 70% { opacity: 0; } 100% { opacity: 0; } }
@keyframes a7_do { 0% { stroke-dashoffset: 0px; } 10% { stroke-dashoffset: 0px; animation-timing-function: cubic-bezier(0.42,0,0.58,1); } 65% { stroke-dashoffset: -280px; } 100% { stroke-dashoffset: -280px; } }
    </style>
    <g id="Clouds">
        <path class="cls-21" d="M14.59,141.93C14.59,141.93,16.19,132.46,33.09,132.46C33.09,132.46,31.48,116.35,55.62,116.35C55.62,116.35,58.04,104.04,73.33,104.04C86.2,104.04,88.62,114.46,88.62,114.46C88.62,114.46,100.69,109.72,110.34,114.46C119.99,119.2,119.19,129.62,119.19,129.62C119.19,129.62,137.7,127.72,137.7,141.93Z" fill="#e6f5eb" transform="translate(76.145,122.985) translate(-76.145,-122.985)" style="animation: 10s linear infinite both a0_t;"/>
        <path class="cls-21" d="M540.42,113.21C540.42,113.21,541.97,105.46,558.24,105.46C558.24,105.46,556.69,92.29,579.94,92.29C579.94,92.29,582.27,82.21,596.94,82.21C609.34,82.21,611.67,90.74,611.67,90.74C611.67,90.74,623.29,86.86,632.59,90.74C641.89,94.62,641.12,103.14,641.12,103.14C641.12,103.14,659,101.59,659,113.21Z" fill="#e6f5eb" transform="translate(599.71,97.71) translate(-599.71,-97.71)" style="animation: 10s linear infinite both a1_t;"/>
        <path class="cls-21" d="M127.91,64.09C127.91,64.09,125.05,49.79,140.3,45C155.55,40.21,157.47,48.81,157.47,48.81C157.47,48.81,155.74,34.24,169.87,31.65C183,29.25,185.12,38.33,185.12,38.33C185.12,38.33,188.94,12.33,220.41,12.33C251.88,12.33,257.6,38.33,257.6,38.33C257.6,38.33,271.9,30.7,282.39,36.42C292.88,42.14,291,49.79,291,49.79C291,49.79,312,45.02,321.52,54.56C329.75,62.79,328.19,64.09,328.19,64.09Z" fill="#e6f5eb" transform="translate(228.003,38.21) translate(-228.003,-38.21)" style="animation: 10s linear infinite both a2_t;"/>
    </g>
    <title>tiberiusf</title>
    <g id="Pflanzen">
        <path class="cls-1" d="M222.13,463.42C222.13,463.42,221.5,436.42,236.4,426.63C251.3,416.84,251.63,403.16,251.63,403.16C251.63,403.16,258.92,411.41,256.7,419.97C254.48,428.53,245.6,433.61,247.82,438.05C250.04,442.49,254.48,437.73,256.07,441.54C257.66,445.35,257.97,453.54,251.95,462.79C245.93,472.04,234.18,541.79,234.18,541.79L228.48,541.47Z" fill="#ccebd6"/>
        <g transform="translate(232.911,541.459) translate(-232.911,-541.459)" style="animation: 10s linear infinite both a3_t;">
            <path class="cls-2" d="M238.92,541.45C238.92,541.45,246.31,529.74,255.75,530.35C265.59,530.98,273.51,515.76,273.2,511.63C272.64,504.33,267.2,507.83,263.05,506.88C258.9,505.93,261.46,502.12,265.27,499.88C269.08,497.64,283.03,487.51,280.18,480.53C277.33,473.55,272.56,478.63,271.29,477.68C270.02,476.73,273.83,468.8,274.78,465.94C275.73,463.08,278.91,452.3,269.71,452.62C260.51,452.94,261.78,466.26,258.29,465.94C254.8,465.62,255.12,456.43,249.73,458.65C244.34,460.87,240.21,464.99,240.21,472.92C240.21,480.85,238.31,483.39,237.04,482.43C235.77,481.47,236.83,478.75,234.5,477.36C231.33,475.46,225.2,474.84,223.08,493.54C221.18,510.35,228.48,514.47,230.38,523.35C231.19,527.12,230.84,542.27,230.84,542.27Z" fill="#b3e1c2"/>
            <g>
                <path class="cls-3" d="M235.45,539.21C235.45,539.21,239.68,508.46,246.03,498.31C252.38,488.16,266.33,466.17,266.33,466.17" stroke="#80ce99" stroke-width="1.5px" stroke-linecap="round" stroke-miterlimit="10" fill="none"/>
                <path class="cls-3" d="M255.33,482.74L253.11,471.32" stroke="#80ce99" stroke-width="1.5px" stroke-linecap="round" stroke-miterlimit="10" fill="none"/>
                <path class="cls-3" d="M247.4,496.06C247.4,496.06,262.31,494.47,267.4,487.49" stroke="#80ce99" stroke-width="1.5px" stroke-linecap="round" stroke-miterlimit="10" fill="none"/>
                <path class="cls-3" d="M241.06,510.33C241.06,510.33,234.4,500.18,234.71,493.2" stroke="#80ce99" stroke-width="1.5px" stroke-linecap="round" stroke-miterlimit="10" fill="none"/>
            </g>
        </g>
        <path class="cls-1" d="M559.58,538.77C559.58,538.77,543.77,522.36,541.43,483.33C539.09,444.3,545.2,444.68,545.36,427.33C545.52,409.98,541.17,403.33,541.17,403.33C541.17,403.33,564.01,415.48,566.23,453.45C568.45,491.42,565.59,538.09,565.59,538.09Z" fill="#ccebd6"/>
        <g transform="translate(564.764,538.837) translate(-564.764,-538.837)" style="animation: 10s linear infinite both a4_t;">
            <path class="cls-2" d="M569,537.55C569,537.55,611.74,504.63,617.21,469.87C622.68,435.11,625.69,413.68,625.69,413.68C625.69,413.68,592.35,430.29,581.42,449.55C571.1,467.74,562.48,486.2,563.13,523.89L563.82,538.33C563.82,538.33,567.61,537.92,569,537.55Z" fill="#b3e1c2"/>
            <path class="cls-3" d="M617.78,427.7C617.78,427.7,573.36,493.48,569.93,519.45" stroke="#80ce99" stroke-width="1.5px" stroke-linecap="round" stroke-miterlimit="10" fill="none"/>
            <path class="cls-3" d="M612.7,457.76L591.89,470.03" stroke="#80ce99" stroke-width="1.5px" stroke-linecap="round" stroke-miterlimit="10" fill="none"/>
            <path class="cls-3" d="M600.81,454.36L602.47,436.28" stroke="#80ce99" stroke-width="1.5px" stroke-linecap="round" stroke-miterlimit="10" fill="none"/>
        </g>
        <path class="cls-4" d="M561.35,538.57C561.35,538.57,551.17,500.04,564.35,479.39C577.53,458.74,585.43,414.67,585.43,414.67C585.43,414.67,592.84,452.43,587.14,489.67C584.35,507.9,578.07,522.41,567.68,537.8Z" fill="url(#Gradient-0)"/>
        <g transform="translate(232.734,537.997) translate(-232.734,-537.997)" style="animation: 10s linear infinite both a5_t;">
            <path class="cls-5" d="M227,542.7C227,542.7,183.94,506.52,178.87,477.7C173.8,448.88,183.31,413.31,183.31,413.31C183.31,413.31,223.91,432.31,228.67,464.38C233.43,496.45,233.11,542.09,233.11,542.09Z" fill="url(#Gradient-1)"/>
            <g>
                <path class="cls-6" d="M229.32,539.63C229.32,539.63,198.24,499,189.78,430.94" stroke="#66c485" stroke-width="1.5px" stroke-linecap="round" stroke-miterlimit="10" fill="none"/>
                <path class="cls-6" d="M210.92,450.82C210.92,450.82,201.2,469.43,202.47,483.82" stroke="#66c485" stroke-width="1.5px" stroke-linecap="round" stroke-miterlimit="10" fill="none"/>
                <path class="cls-6" d="M190.63,491C191.87,492.489,193.2,493.9,194.614,495.225C196.028,496.549,197.522,497.785,199.089,498.926C200.655,500.066,202.291,501.108,203.986,502.047C205.681,502.985,207.432,503.818,209.23,504.54" stroke="#66c485" stroke-width="1.5px" stroke-linecap="round" stroke-miterlimit="10" fill="none"/>
                <path class="cls-6" d="M183.86,452.93C184.676,454.378,185.569,455.781,186.534,457.134C187.5,458.488,188.537,459.788,189.64,461.031C190.744,462.274,191.913,463.458,193.142,464.577C194.371,465.695,195.659,466.748,197,467.73" stroke="#66c485" stroke-width="1.5px" stroke-linecap="round" stroke-miterlimit="10" fill="none"/>
            </g>
        </g>
    </g>
    <g id="Water_Tab" data-name="Water Tab">
        <path id="droplet" class="cls-19" d="M468.48,60.31C468.48,60.31,441.54,67.84,452.62,77.86C463.7,87.88,468.48,60.31,468.48,60.31Z" fill="#76c4ff" style="transform: translate(-459.213px,-70.1814px); animation: 10s linear infinite both droplet_t, 10s linear infinite both droplet_mo; offset-path: path('M479.297,48.2226L479.297,48.2226C465.688,55.1649,452.566,70.9645,453.887,91.2226L453.887,91.2226'); offset-rotate: 0deg;"/>
        <path id="droplet-2" class="cls-19" d="M468.48,60.31C468.48,60.31,441.54,67.84,452.62,77.86C463.7,87.88,468.48,60.31,468.48,60.31Z" fill="#76c4ff" style="transform: translate(-459.213px,-70.1814px); animation: 10s linear infinite both droplet-2_t, 10s linear infinite both droplet-2_mo; offset-path: path('M479.297,48.2226L479.297,48.2226C465.688,55.1649,452.566,70.9645,453.887,91.2226L453.887,91.2226'); offset-rotate: 0deg;"/>
        <path id="droplet-3" class="cls-19" d="M468.48,60.31C468.48,60.31,441.54,67.84,452.62,77.86C463.7,87.88,468.48,60.31,468.48,60.31Z" fill="#76c4ff" style="transform: translate(-459.213px,-70.1814px); animation: 10s linear infinite both droplet-3_t, 10s linear infinite both droplet-3_mo; offset-path: path('M479.297,48.2226L479.297,48.2226C465.688,55.1649,452.566,70.9645,453.887,91.2226L453.887,91.2226'); offset-rotate: 0deg;"/>
        <path id="droplet-4" class="cls-19" d="M468.48,60.31C468.48,60.31,441.54,67.84,452.62,77.86C463.7,87.88,468.48,60.31,468.48,60.31Z" fill="#76c4ff" style="transform: translate(-459.213px,-70.1814px); animation: 10s linear infinite both droplet-4_t, 10s linear infinite both droplet-4_mo; offset-path: path('M479.297,48.2226L479.297,48.2226C465.688,55.1649,452.566,70.9645,453.887,91.2226L453.887,91.2226'); offset-rotate: 0deg;"/>
        <path id="droplet-5" class="cls-19" d="M468.48,60.31C468.48,60.31,441.54,67.84,452.62,77.86C463.7,87.88,468.48,60.31,468.48,60.31Z" fill="#76c4ff" style="transform: translate(-459.213px,-70.1814px); animation: 10s linear infinite both droplet-5_t, 10s linear infinite both droplet-5_mo; offset-path: path('M479.297,48.2226L479.297,48.2226C465.688,55.1649,452.566,70.9645,453.887,91.2226L453.887,91.2226'); offset-rotate: 0deg;"/>
        <path id="droplet-6" class="cls-19" d="M468.48,60.31C468.48,60.31,441.54,67.84,452.62,77.86C463.7,87.88,468.48,60.31,468.48,60.31Z" fill="#76c4ff" style="transform: translate(-459.213px,-70.1814px); animation: 10s linear infinite both droplet-6_t, 10s linear infinite both droplet-6_mo; offset-path: path('M479.297,48.2226L479.297,48.2226C465.688,55.1649,452.566,70.9645,453.887,91.2226L453.887,91.2226'); offset-rotate: 0deg;"/>
        <path id="droplet-7" class="cls-19" d="M468.48,60.31C468.48,60.31,441.54,67.84,452.62,77.86C463.7,87.88,468.48,60.31,468.48,60.31Z" fill="#76c4ff" style="transform: translate(-459.213px,-70.1814px); animation: 10s linear infinite both droplet-7_t, 10s linear infinite both droplet-7_mo; offset-path: path('M479.297,48.2226L479.297,48.2226C465.688,55.1649,452.566,70.9645,453.887,91.2226L453.887,91.2226'); offset-rotate: 0deg;"/>
        <path id="droplet-8" class="cls-19" d="M468.48,60.31C468.48,60.31,441.54,67.84,452.62,77.86C463.7,87.88,468.48,60.31,468.48,60.31Z" fill="#76c4ff" style="transform: translate(-459.213px,-70.1814px); animation: 10s linear infinite both droplet-8_t, 10s linear infinite both droplet-8_mo; offset-path: path('M479.297,48.2226L479.297,48.2226C465.688,55.1649,452.566,70.9645,453.887,91.2226L453.887,91.2226'); offset-rotate: 0deg;"/>
        <path id="droplet-9" class="cls-19" d="M468.48,60.31C468.48,60.31,441.54,67.84,452.62,77.86C463.7,87.88,468.48,60.31,468.48,60.31Z" fill="#76c4ff" style="transform: translate(-459.213px,-70.1814px); animation: 10s linear infinite both droplet-9_t, 10s linear infinite both droplet-9_mo; offset-path: path('M479.297,48.2226L479.297,48.2226C465.688,55.1649,452.566,70.9645,453.887,91.2226L453.887,91.2226'); offset-rotate: 0deg;"/>
        <path id="droplet-10" class="cls-19" d="M468.48,60.31C468.48,60.31,441.54,67.84,452.62,77.86C463.7,87.88,468.48,60.31,468.48,60.31Z" fill="#76c4ff" style="transform: translate(-459.213px,-70.1814px); animation: 10s linear infinite both droplet-10_t, 10s linear infinite both droplet-10_mo; offset-path: path('M479.297,48.2226L479.297,48.2226C465.688,55.1649,452.566,70.9645,453.887,91.2226L453.887,91.2226'); offset-rotate: 0deg;"/>
        <g id="Ebene">
            <path class="cls-29" d="M547.69,340.15L547.69,317.61C547.69,317.61,549.39,299.11,532.47,299.11L520.28,299.11" stroke-linejoin="round" stroke="#80ce99" stroke-width="21px" stroke-linecap="round" fill="none"/>
            <path class="cls-29" d="M579.74,290.9L579.74,98.42C579.74,98.42,580.74,36.42,522.74,36.42C500.99,36.42,487.61,41.83,479.38,48.59" stroke-linejoin="round" stroke="#80ce99" stroke-width="21px" stroke-linecap="round" fill="none"/>
            <rect class="cls-30" width="57" height="41.04" rx="12" fill="url(#Gradient-2)" transform="translate(0,0) translate(551.74,310.4)"/>
            <rect class="cls-13" width="37" height="70.22" rx="12" fill="#33b05c" transform="translate(0,0) translate(561.74,254.54)"/>
            <path class="cls-13" d="M475.27,64.63L462.27,52.19C461.703,51.6302,461.251,50.9644,460.94,50.2304C460.629,49.4965,460.465,48.7086,460.457,47.9115C460.45,47.1144,460.599,46.3236,460.896,45.584C461.194,44.8444,461.633,44.1703,462.19,43.6L462.7,43.06C463.246,42.4789,463.9,42.0104,464.627,41.681C465.353,41.3517,466.136,41.1679,466.933,41.1401C467.73,41.1123,468.525,41.2409,469.272,41.5188C470.019,41.7967,470.705,42.2184,471.29,42.76L484.29,55.2C484.857,55.7614,485.308,56.4282,485.618,57.1629C485.928,57.8976,486.092,58.686,486.099,59.4835C486.107,60.2811,485.958,61.0724,485.661,61.8127C485.365,62.5531,484.926,63.2282,484.37,63.8L483.86,64.33C483.315,64.9123,482.661,65.3818,481.934,65.7119C481.208,66.042,480.424,66.2262,479.627,66.254C478.83,66.2818,478.035,66.1528,477.287,65.8742C476.54,65.5956,475.854,65.1728,475.27,64.63Z" fill="#33b05c"/>
            <path id="knob" class="cls-29" d="M614.32,340.15L614.32,317.61C614.32,317.61,612.62,299.11,629.54,299.11L641.73,299.11" stroke-linejoin="round" stroke="#80ce99" stroke-width="21px" stroke-linecap="round" fill="none" transform="translate(614.339,340.246) translate(-614.339,-340.246)" style="animation: 10s linear infinite both knob_t;"/>
        </g>
    </g>
    <g id="House">
        <g id="Ebene_10" data-name="Ebene 10">
            <path class="cls-7" d="M175.1,247.71L17.88,247.71L65.51,187.96L191.08,187.96L191.08,234.55L175.25,234.55L175.1,247.71Z" fill="url(#Gradient-3)"/>
            <path class="cls-2" d="M26.47,247.7L174.22,247.29L174.22,340.15L26.16,340.15L26.47,247.7Z" fill="#b3e1c2"/>
            <rect class="cls-8" width="121.14" height="72.47" fill="#99d7ad" transform="translate(0,0) translate(39.62,267.68)"/>
            <g>
                <rect class="cls-9" width="2.07" height="121.14" fill="#66c485" transform="translate(374.08,173.7) rotate(90) translate(99.16,213.32)"/>
                <rect class="cls-9" width="2.07" height="121.14" fill="#66c485" transform="translate(366.84,166.45) rotate(90) translate(99.16,206.08)"/>
                <rect class="cls-9" width="2.07" height="121.14" fill="#66c485" transform="translate(381.33,180.95) rotate(90) translate(99.16,220.57)"/>
                <rect class="cls-9" width="2.07" height="121.14" fill="#66c485" transform="translate(388.58,188.2) rotate(90) translate(99.16,227.82)"/>
                <rect class="cls-9" width="2.07" height="121.14" fill="#66c485" transform="translate(395.83,195.44) rotate(90) translate(99.16,235.07)"/>
                <rect class="cls-9" width="2.07" height="121.14" fill="#66c485" transform="translate(403.07,202.69) rotate(90) translate(99.16,242.31)"/>
                <rect class="cls-9" width="2.07" height="121.14" fill="#66c485" transform="translate(410.32,209.94) rotate(90) translate(99.16,249.56)"/>
                <rect class="cls-9" width="2.07" height="121.14" fill="#66c485" transform="translate(417.57,217.19) rotate(90) translate(99.16,256.81)"/>
                <rect class="cls-9" width="2.07" height="121.14" fill="#66c485" transform="translate(424.82,224.43) rotate(90) translate(99.16,264.06)"/>
                <rect class="cls-9" width="2.07" height="121.14" fill="#66c485" transform="translate(432.06,231.68) rotate(90) translate(99.16,271.3)"/>
                <rect class="cls-9" width="2.07" height="121.14" fill="#66c485" transform="translate(439.31,238.93) rotate(90) translate(99.16,278.55)"/>
            </g>
        </g>
        <g id="Dach">
            <path class="cls-10" d="M515.88,240.76L486.89,204.52L190.78,204.52L163.87,240.76L515.88,240.76Z" fill="url(#Gradient-4)"/>
            <path class="cls-11" d="M504.76,143.7L477.56,91.94L199.74,91.94L174.49,143.7L504.76,143.7Z" fill="url(#Gradient-5)"/>
        </g>
        <g id="Ebene_6" data-name="Ebene 6">
            <rect class="cls-12" width="330.43" height="99.37" fill="#80ce99" transform="translate(0,0) translate(174.07,240.79)"/>
            <rect class="cls-2" width="38.31" height="84.9" fill="#b3e1c2" transform="translate(0,0) translate(341.38,255.26)"/>
            <rect class="cls-9" width="2.07" height="9.32" fill="#66c485" transform="translate(0,0) translate(373.47,295.71)"/>
            <path class="cls-12" d="M190.78,204.58L190.78,143.92L252.95,80.04L298.74,127.08L282.69,143.45L282.74,204.63L190.78,204.58" fill="#80ce99"/>
            <rect class="cls-12" width="126.31" height="60.82" fill="#80ce99" transform="translate(0,0) translate(360.58,143.7)"/>
            <rect class="cls-8" width="23.76" height="15.98" fill="#99d7ad" transform="translate(0,0) translate(442.48,75.95)"/>
        </g>
        <path class="cls-13" d="M370.99,204.58L370.73,143.44L327.76,97.36L282.73,143.44L282.73,204.52" fill="#33b05c"/>
        <path class="cls-14" d="M279.54,146.89L329.86,95.19L326.76,92.01L276.29,143.55L279.54,146.89Z" fill="url(#Gradient-6)"/>
        <path class="cls-15" d="M373.81,146.78L323.62,95.22L326.76,92.01L377.06,143.44L373.81,146.78Z" fill="url(#Gradient-7)"/>
        <path class="cls-16" d="M188,146.78L256.09,76.83L252.99,73.65L184.57,143.11L188,146.78Z" fill="url(#Gradient-8)"/>
        <path class="cls-17" d="M295.59,123.84L249.85,76.86L252.99,73.65L298.84,120.53L295.59,123.84Z" fill="url(#Gradient-9)"/>
        <g id="Runde_Fenster" data-name="Runde Fenster">
            <path id="masking-2" fill="#fff" d="M-74.34,-7.33C-70.9103,-7.33,-68.13,-10.1103,-68.13,-13.54C-68.13,-16.9697,-70.9103,-19.75,-74.34,-19.75C-77.7697,-19.75,-80.55,-16.9697,-80.55,-13.54C-80.55,-10.1103,-77.7697,-7.33,-74.34,-7.33ZM0,6.21C3.42969,6.21,6.21,3.42969,6.21,0C6.21,-3.42969,3.42969,-6.21,0,-6.21C-3.42969,-6.21,-6.21,-3.42969,-6.21,0C-6.21,3.42969,-3.42969,6.21,0,6.21Z" fill-rule="evenodd" transform="translate(0,0) translate(327.25,122.81)"/>
            <g clip-path="url(#ClipPath-2)" transform="translate(309.127,147.464) translate(-128.237,-14.2708)">
                <path id="water-3" class="cls-19" d="M487.962,295.551C487.671,295.492,487.379,295.44,487.086,295.399C486.791,295.356,486.497,295.322,486.201,295.297C485.906,295.272,485.61,295.256,485.313,295.248C485.017,295.241,484.721,295.242,484.424,295.252C480.124,295.252,480.124,297.312,475.818,297.312C471.513,297.312,471.519,295.252,467.219,295.252C462.918,295.252,462.913,297.312,458.613,297.312C454.313,297.312,454.313,295.252,450.013,295.252C445.714,295.252,445.714,297.312,441.413,297.312C437.113,297.312,437.113,295.252,432.813,295.252C428.513,295.252,428.513,297.312,424.213,297.312C419.913,297.312,419.913,295.252,415.612,295.252C411.313,295.252,411.313,297.312,407.012,297.312C402.713,297.312,402.713,295.252,398.413,295.252C394.112,295.252,394.112,297.312,389.813,297.312C385.512,297.312,385.512,295.252,381.213,295.252C376.912,295.252,376.912,297.312,372.612,297.312C368.312,297.312,368.312,295.252,364.012,295.252C359.713,295.252,359.713,297.312,355.412,297.312C351.112,297.312,351.112,295.252,346.812,295.252C342.512,295.252,342.512,297.312,338.212,297.312C333.912,297.312,333.912,295.252,329.611,295.252C325.312,295.252,325.312,297.312,321.011,297.312C316.712,297.312,316.712,295.252,312.416,295.252C308.122,295.252,308.111,297.312,303.812,297.312C299.511,297.312,299.517,295.252,295.217,295.252C290.916,295.252,290.916,297.312,286.617,297.312C282.316,297.312,282.316,295.252,278.017,295.252C273.716,295.252,273.716,297.312,269.416,297.312C265.116,297.312,265.116,295.252,260.821,295.252C256.526,295.252,256.521,297.312,252.221,297.312C247.921,297.312,247.921,295.252,243.621,295.252C239.321,295.252,239.321,297.312,235.021,297.312C234.712,297.314,234.404,297.295,234.098,297.256C233.792,297.217,233.49,297.157,233.191,297.077C232.893,296.998,232.601,296.899,232.316,296.781C232.031,296.662,231.755,296.525,231.488,296.37L231.488,323.785L487.947,323.785Z" fill="#76c4ff" transform="translate(128.237,27.7115) translate(-359.725,-322.955)" style="animation: 10s linear infinite both water-3_t;"/>
            </g>
        </g>
        <path class="cls-18" d="M238.81,306L200.5,306L200.5,255.26L238.81,255.26ZM312.32,255.27L274,255.27L274,306L312.31,306ZM475.44,255.27L409.18,255.27L409.18,306L475.44,306ZM272.09,148.61L233.78,148.61L233.78,199.35L272.09,199.35ZM461.69,148.61L395.42,148.61L395.42,199.35L461.69,199.35ZM346.2,148.61L307.89,148.61L307.89,199.35L346.2,199.35Z" fill="#fff"/>
        <g id="water" clip-path="url(#ClipPath-1)" transform="translate(359.725,294.849) translate(-249.015,-83.6231)">
            <path id="water-4" class="cls-19" d="M608.74,295.84C608.176,295.725,607.608,295.626,607.038,295.544C606.468,295.462,605.896,295.396,605.322,295.348C604.748,295.299,604.173,295.268,603.597,295.253C603.022,295.239,602.446,295.241,601.87,295.26C593.52,295.26,593.52,299.26,585.16,299.26C576.8,299.26,576.81,295.26,568.46,295.26C560.11,295.26,560.1,299.26,551.75,299.26C543.4,299.26,543.4,295.26,535.05,295.26C526.7,295.26,526.7,299.26,518.35,299.26C510,299.26,510,295.26,501.65,295.26C493.3,295.26,493.3,299.26,484.95,299.26C476.6,299.26,476.6,295.26,468.25,295.26C459.9,295.26,459.9,299.26,451.55,299.26C443.2,299.26,443.2,295.26,434.85,295.26C426.5,295.26,426.5,299.26,418.15,299.26C409.8,299.26,409.8,295.26,401.45,295.26C393.1,295.26,393.1,299.26,384.75,299.26C376.4,299.26,376.4,295.26,368.05,295.26C359.7,295.26,359.7,299.26,351.35,299.26C343,299.26,343,295.26,334.65,295.26C326.3,295.26,326.3,299.26,317.95,299.26C309.6,299.26,309.6,295.26,301.25,295.26C292.9,295.26,292.9,299.26,284.55,299.26C276.2,299.26,276.2,295.26,267.86,295.26C259.52,295.26,259.5,299.26,251.15,299.26C242.8,299.26,242.81,295.26,234.46,295.26C226.11,295.26,226.11,299.26,217.76,299.26C209.41,299.26,209.41,295.26,201.06,295.26C192.71,295.26,192.71,299.26,184.36,299.26C176.01,299.26,176.01,295.26,167.67,295.26C159.33,295.26,159.32,299.26,150.97,299.26C142.62,299.26,142.62,295.26,134.27,295.26C125.92,295.26,125.92,299.26,117.57,299.26C116.971,299.263,116.373,299.227,115.778,299.151C115.184,299.075,114.596,298.959,114.017,298.805C113.439,298.65,112.871,298.458,112.318,298.228C111.765,297.998,111.228,297.731,110.71,297.43L110.71,350.666L608.71,350.666Z" fill="#76c4ff" transform="translate(282.612,16.1938) translate(-359.725,-322.955)" style="animation: 10s linear infinite both water-4_t;"/>
            <path id="water-2" class="cls-19" d="M608.74,295.84C608.176,295.725,607.608,295.626,607.038,295.544C606.468,295.462,605.896,295.396,605.322,295.348C604.748,295.299,604.173,295.268,603.597,295.253C603.022,295.239,602.446,295.241,601.87,295.26C593.52,295.26,593.52,299.26,585.16,299.26C576.8,299.26,576.81,295.26,568.46,295.26C560.11,295.26,560.1,299.26,551.75,299.26C543.4,299.26,543.4,295.26,535.05,295.26C526.7,295.26,526.7,299.26,518.35,299.26C510,299.26,510,295.26,501.65,295.26C493.3,295.26,493.3,299.26,484.95,299.26C476.6,299.26,476.6,295.26,468.25,295.26C459.9,295.26,459.9,299.26,451.55,299.26C443.2,299.26,443.2,295.26,434.85,295.26C426.5,295.26,426.5,299.26,418.15,299.26C409.8,299.26,409.8,295.26,401.45,295.26C393.1,295.26,393.1,299.26,384.75,299.26C376.4,299.26,376.4,295.26,368.05,295.26C359.7,295.26,359.7,299.26,351.35,299.26C343,299.26,343,295.26,334.65,295.26C326.3,295.26,326.3,299.26,317.95,299.26C309.6,299.26,309.6,295.26,301.25,295.26C292.9,295.26,292.9,299.26,284.55,299.26C276.2,299.26,276.2,295.26,267.86,295.26C259.52,295.26,259.5,299.26,251.15,299.26C242.8,299.26,242.81,295.26,234.46,295.26C226.11,295.26,226.11,299.26,217.76,299.26C209.41,299.26,209.41,295.26,201.06,295.26C192.71,295.26,192.71,299.26,184.36,299.26C176.01,299.26,176.01,295.26,167.67,295.26C159.33,295.26,159.32,299.26,150.97,299.26C142.62,299.26,142.62,295.26,134.27,295.26C125.92,295.26,125.92,299.26,117.57,299.26C116.971,299.263,116.373,299.227,115.778,299.151C115.184,299.075,114.596,298.959,114.017,298.805C113.439,298.65,112.871,298.458,112.318,298.228C111.765,297.998,111.228,297.731,110.71,297.43L110.71,350.666L608.71,350.666Z" fill="#76c4ff" transform="translate(262.612,126.194) translate(-359.725,-322.955)" style="animation: 10s linear infinite both water-2_t;"/>
        </g>
        <path class="cls-20" d="M220.17,279.59L238.81,279.59L238.81,281.66L220.17,281.66L220.17,306L218.1,306L218.1,281.66L200.5,281.66L200.5,279.59L218.1,279.59L218.1,255.26L220.17,255.26ZM293.68,255.26L291.61,255.26L291.61,279.59L274,279.59L274,281.66L291.6,281.66L291.6,306L293.67,306L293.67,281.66L312.31,281.66L312.31,279.59L293.68,279.59ZM475.44,279.59L443.34,279.59L443.34,255.26L441.27,255.26L441.27,279.59L409.18,279.59L409.18,281.66L441.27,281.66L441.27,306L443.34,306L443.34,281.66L475.44,281.66ZM253.44,148.59L251.37,148.59L251.37,173L233.77,173L233.77,175L251.37,175L251.37,199.33L253.44,199.33L253.44,175L272.08,175L272.08,173L253.45,173ZM427.51,199.33L429.58,199.33L429.58,175L461.68,175L461.68,173L429.58,173L429.58,148.61L427.51,148.61L427.51,173L395.41,173L395.41,175L427.51,175ZM327.56,148.59L325.5,148.59L325.5,173L307.89,173L307.89,175L325.5,175L325.5,199.33L327.57,199.33L327.57,175L346.2,175L346.2,173L327.57,173Z" fill="#4dba71"/>
    </g>
    <g id="Man" opacity="1" style="animation: 10s linear infinite both Man_o;">
        <g>
            <path class="cls-12" d="M314,408L312.44,431.86C311.91,440.13,326.81,534.46,326.81,534.46L331.81,534.78L333.28,435.29L340.77,474.15C340.77,474.15,341.93,517.8,345.91,533.62L350.91,533.94C350.91,533.94,353.55,478.09,352.91,471.83C352.27,465.57,353.69,413.78,350.03,408.36C346.37,402.94,314,408,314,408L314,408" fill="#80ce99"/>
            <path class="cls-13" d="M345.94,533.61L345.27,542.91L358.27,543.83C358.27,543.83,363.41,542.12,354.58,539.42L350.92,534Z" fill="#33b05c"/>
            <path class="cls-13" d="M331.7,534.74L332.29,542.42C332.29,542.42,322.87,545.91,321.05,545.42C316.14,544.03,324.48,539.42,324.48,539.42L326.84,534.42Z" fill="#33b05c"/>
            <path class="cls-21" d="M325.08,355.79C325.08,355.79,328.8,344.79,328.08,341.55C327.36,338.31,336.95,344.17,336.95,344.17C336.95,344.17,336.37,352.44,338.21,354.64C340.05,356.84,336.34,366.96,332.49,364.64C328.64,362.32,325.08,355.79,325.08,355.79Z" fill="#e6f5eb"/>
            <path class="cls-21" d="M305.22,381.36L303.22,395.74C303.22,395.74,302.93,399.87,304.78,402.08C306.63,404.29,315.5,420.49,315.5,420.49C315.5,420.49,314.28,423.49,315.13,425.65C315.98,427.81,320.63,418.78,320.63,418.78C320.509,418.632,320.376,418.494,320.231,418.368C320.087,418.242,319.933,418.128,319.77,418.028C319.607,417.928,319.435,417.841,319.258,417.769C319.08,417.698,318.897,417.641,318.71,417.6L310.71,396.79L314.71,382.55Z" fill="#e6f5eb"/>
            <path class="cls-21" d="M349.25,382.41L351.66,390.89L345.91,415.39C345.718,415.396,345.526,415.419,345.338,415.461C345.15,415.502,344.967,415.562,344.79,415.638C344.613,415.714,344.444,415.806,344.285,415.914C344.125,416.022,343.976,416.144,343.84,416.28C342.77,417.28,349.53,420.84,349.53,420.84L349.75,417.74L356.06,399.5C356.06,399.5,358.64,391.38,358.79,389.32C358.94,387.26,356.68,376.71,356.68,376.71Z" fill="#e6f5eb"/>
            <path class="cls-22" d="M348.93,383.44L358.24,377.44C358.24,377.44,350.07,360.96,346.7,358.44C343.33,355.92,339.06,360.44,341.38,366.74C343.7,373.04,348.93,383.44,348.93,383.44Z" fill="url(#Gradient-10)"/>
            <path class="cls-23" d="M325.75,353.71C324.902,354.012,324.06,354.328,323.223,354.658C322.386,354.988,321.554,355.332,320.729,355.69C319.903,356.048,319.083,356.419,318.27,356.804C317.457,357.189,316.65,357.588,315.85,358C312.71,359.86,316.43,375.88,316.43,375.88L314.65,406.39C314.595,406.727,314.602,407.072,314.671,407.406C314.739,407.741,314.868,408.061,315.051,408.349C315.234,408.638,315.467,408.891,315.74,409.096C316.014,409.301,316.322,409.455,316.65,409.55C319.22,410.21,323.16,411.4,325,412.87C327.85,415.14,328.55,419.35,334.61,418.74C340.67,418.13,344.1,412.15,346.1,412.29C346.84,412.29,348.1,406.29,348.6,405.2C349.7,403.07,347.37,373.91,347.37,373.91C347.37,373.91,349.51,360.7,346.67,358.43C343.83,356.16,338.16,354.64,338.16,354.64C338.228,354.983,338.274,355.329,338.296,355.678C338.318,356.026,338.317,356.376,338.293,356.724C338.268,357.073,338.22,357.419,338.15,357.761C338.079,358.103,337.986,358.44,337.87,358.77C337.619,359.121,337.336,359.449,337.026,359.749C336.716,360.05,336.38,360.322,336.021,360.562C335.662,360.802,335.283,361.01,334.887,361.182C334.491,361.355,334.08,361.491,333.66,361.59C327.91,363.08,325.75,353.71,325.75,353.71Z" fill="url(#Gradient-11)"/>
            <g>
                <path class="cls-21" d="M324.41,337.06C324.41,337.06,331.65,347.95,337.79,346.31C343.93,344.67,343,322.38,343,322.38L330.9,316.76L324.55,321.5L320.05,328.44Z" fill="#e6f5eb"/>
                <path class="cls-13" d="M344.9,316.72C343.13,313.48,339.06,314.23,339.06,314.23C339.06,314.23,336.29,310.92,334.22,311.81C332.15,312.7,334.15,312.81,332.16,312.7C330.17,312.59,326.24,311.24,325.03,314.27C323.82,317.3,324.88,316.33,324.88,316.33C324.88,316.33,324.95,315.33,321.88,316.12C318.81,316.91,318.37,323.12,319.29,324.24C320.21,325.36,317.23,325.13,316.01,328.16C314.79,331.19,320.63,333.68,320.63,333.68C320.63,333.68,321.33,337.88,323.33,338.02C325.33,338.16,325.86,337.68,325.86,337.68C325.574,337.457,325.301,337.219,325.04,336.967C324.779,336.715,324.532,336.45,324.3,336.172C324.067,335.894,323.849,335.604,323.647,335.303C323.445,335.002,323.259,334.691,323.09,334.37C322.36,332.65,322.03,328.59,325.02,328.5C325.306,328.474,325.595,328.505,325.869,328.592C326.143,328.679,326.396,328.82,326.615,329.006C326.834,329.192,327.014,329.421,327.143,329.677C327.273,329.934,327.35,330.213,327.37,330.5C327.8,331.05,329.53,328.69,328.66,326.44C328.29,325.44,327.42,322.72,329.03,321.28C329.78,320.6,331.1,320.39,333.03,321.56C334.96,322.73,333.88,323.7,337.87,323.98C341.86,324.26,346.68,320,344.9,316.72Z" fill="#33b05c"/>
            </g>
            <path class="cls-24" d="M304.28,382.12C304.28,382.12,310.11,365.84,311.89,362.32C313.57,358.99,315.45,356.78,318.54,358.57C321.63,360.36,321.54,369.45,318.54,376.12C318.209,376.905,317.864,377.684,317.505,378.457C317.145,379.229,316.772,379.995,316.385,380.754C315.998,381.513,315.597,382.265,315.183,383.01C314.769,383.754,314.341,384.491,313.9,385.22Z" fill="url(#Gradient-12)"/>
        </g>
    </g>
    <g id="Man-stress" opacity="0" style="animation: 10s linear infinite both Man-stress_o;">
        <path class="cls-12" d="M314,408L312.44,431.86C311.91,440.13,326.81,534.46,326.81,534.46L331.81,534.78L333.28,435.29L340.77,474.15C340.77,474.15,341.93,517.8,345.91,533.62L350.91,533.94C350.91,533.94,353.55,478.09,352.91,471.83C352.27,465.57,353.69,413.78,350.03,408.36C346.37,402.94,314,408,314,408L314,408" fill="#80ce99"/>
        <path class="cls-13" d="M345.94,533.61L345.27,542.91L358.27,543.83C358.27,543.83,363.41,542.12,354.58,539.42L350.92,534Z" fill="#33b05c"/>
        <path class="cls-13" d="M331.7,534.74L332.29,542.42C332.29,542.42,322.87,545.91,321.05,545.42C316.14,544.03,324.48,539.42,324.48,539.42L326.84,534.42Z" fill="#33b05c"/>
        <path class="cls-21" d="M325.08,355.79C325.08,355.79,328.8,344.79,328.08,341.55C327.36,338.31,336.95,344.17,336.95,344.17C336.95,344.17,336.37,352.44,338.21,354.64C340.05,356.84,336.34,366.96,332.49,364.64C328.64,362.32,325.08,355.79,325.08,355.79Z" fill="#e6f5eb"/>
        <path class="cls-21" d="M312.55,351.25L299.49,344.77C299.49,344.77,317.67,328.86,320.01,327.31C322.35,325.76,321.78,320.84,323.01,320.42C323.409,320.27,323.801,320.104,324.186,319.922C324.572,319.74,324.949,319.542,325.318,319.329C325.688,319.117,326.048,318.889,326.399,318.647C326.749,318.406,327.09,318.15,327.42,317.88C329.77,315.51,320.83,314.71,317.42,315.63C315.99,316.01,314.95,322.74,313.76,323.09C312.57,323.44,298.02,333.09,292.08,335.76C285.46,338.76,283.49,345.66,288.28,350.82C293.07,355.98,303.17,360.54,303.17,360.54Z" fill="#e6f5eb"/>
        <path class="cls-31" d="M325.75,353.71L306.25,347.49L299.49,360C299.49,360,309.87,365.34,312.62,367.89C315.37,370.44,316.43,375.89,316.43,375.89Z" fill="url(#Gradient-13)"/>
        <path class="cls-32" d="M338.19,354.64C338.19,354.64,341.26,352.8,343.41,353.71L354.77,348.24L363,361.08C363,361.08,351.56,368.03,349.92,369.27C349.561,369.546,349.231,369.859,348.937,370.204C348.643,370.549,348.386,370.924,348.171,371.323C347.955,371.721,347.782,372.141,347.654,372.576C347.526,373.011,347.444,373.458,347.41,373.91Z" fill="url(#Gradient-14)"/>
        <path class="cls-33" d="M325.75,353.71C324.902,354.012,324.06,354.328,323.223,354.658C322.386,354.988,321.554,355.332,320.729,355.69C319.903,356.048,319.083,356.419,318.27,356.804C317.457,357.189,316.65,357.588,315.85,358C312.71,359.86,316.43,375.88,316.43,375.88L314.65,406.39C314.595,406.727,314.602,407.072,314.671,407.406C314.739,407.741,314.868,408.061,315.051,408.349C315.234,408.638,315.467,408.891,315.74,409.096C316.014,409.301,316.322,409.455,316.65,409.55C319.22,410.21,323.16,411.4,325,412.87C327.85,415.14,328.55,419.35,334.61,418.74C340.67,418.13,344.1,412.15,346.1,412.29C346.84,412.29,348.1,406.29,348.6,405.2C349.7,403.07,347.37,373.91,347.37,373.91C347.37,373.91,349.51,360.7,346.67,358.43C343.83,356.16,338.16,354.64,338.16,354.64C338.228,354.983,338.274,355.329,338.296,355.678C338.318,356.026,338.317,356.376,338.293,356.724C338.268,357.073,338.22,357.419,338.15,357.761C338.079,358.103,337.986,358.44,337.87,358.77C337.619,359.121,337.336,359.449,337.026,359.749C336.716,360.05,336.38,360.322,336.021,360.562C335.662,360.802,335.283,361.01,334.887,361.182C334.491,361.355,334.08,361.491,333.66,361.59C327.91,363.08,325.75,353.71,325.75,353.71Z" fill="url(#Gradient-15)"/>
        <g>
            <path class="cls-21" d="M324.41,337.06C324.41,337.06,331.65,347.95,337.79,346.31C343.93,344.67,343,322.38,343,322.38L330.9,316.76L324.55,321.5L320.05,328.44Z" fill="#e6f5eb"/>
            <path class="cls-13" d="M344.9,316.72C343.13,313.48,339.06,314.23,339.06,314.23C339.06,314.23,336.29,310.92,334.22,311.81C332.15,312.7,334.15,312.81,332.16,312.7C330.17,312.59,326.24,311.24,325.03,314.27C323.82,317.3,324.88,316.33,324.88,316.33C324.88,316.33,324.95,315.33,321.88,316.12C318.81,316.91,318.37,323.12,319.29,324.24C320.21,325.36,317.23,325.13,316.01,328.16C314.79,331.19,320.63,333.68,320.63,333.68C320.63,333.68,321.33,337.88,323.33,338.02C325.33,338.16,325.86,337.68,325.86,337.68C325.574,337.457,325.301,337.219,325.04,336.967C324.779,336.715,324.532,336.45,324.3,336.172C324.067,335.894,323.849,335.604,323.647,335.303C323.445,335.002,323.259,334.691,323.09,334.37C322.36,332.65,322.03,328.59,325.02,328.5C325.306,328.474,325.595,328.505,325.869,328.592C326.143,328.679,326.396,328.82,326.615,329.006C326.834,329.192,327.014,329.421,327.143,329.677C327.273,329.934,327.35,330.213,327.37,330.5C327.8,331.05,329.53,328.69,328.66,326.44C328.29,325.44,327.42,322.72,329.03,321.28C329.78,320.6,331.1,320.39,333.03,321.56C334.96,322.73,333.88,323.7,337.87,323.98C341.86,324.26,346.68,320,344.9,316.72Z" fill="#33b05c"/>
        </g>
        <path class="cls-21" d="M355.17,349.15L361.94,359.44C361.94,359.44,368.63,354.49,370.07,352.09C371.51,349.69,373.63,342.59,368.94,337.9C364.25,333.21,348.78,320.78,347.83,319.05C346.88,317.32,344.68,313.5,344.45,313.22C344.22,312.94,338.58,313.33,338.58,313.71C338.58,314.09,341.26,315.25,341.44,315.58C341.62,315.91,341.02,320.13,341.77,321.12C341.913,321.29,342.062,321.454,342.218,321.612C342.373,321.77,342.535,321.922,342.702,322.068C342.87,322.213,343.043,322.352,343.221,322.485C343.399,322.617,343.582,322.742,343.77,322.86L358.82,346.48Z" fill="#e6f5eb"/>
    </g>
    <g id="Woman">
        <g id="Ebene_31" data-name="Ebene 31">
            <path class="cls-13" d="M383.75,531.54C383.75,531.54,381.3,543.22,386.25,544.71C391.2,546.2,388.74,531.71,388.74,531.71L383.74,531.52" fill="#33b05c"/>
            <path class="cls-13" d="M398.76,531.42C398.76,531.42,398.33,542.67,403.28,544.11C408.23,545.55,405.57,536.69,405.57,536.69L403.76,531.61L398.76,531.42" fill="#33b05c"/>
        </g>
        <g id="Ebene_30" data-name="Ebene 30">
            <path class="cls-21" d="M384.81,530.39C384.81,530.39,384.17,540.39,386.25,540.9C389.35,541.64,388.13,529.09,388.13,529.09Z" fill="#e6f5eb"/>
            <path class="cls-21" d="M399.76,531.46C399.76,531.46,400.48,539,403.43,540.36C406.38,541.72,402.81,530.36,402.81,530.36Z" fill="#e6f5eb"/>
        </g>
        <g id="Ebene_27" data-name="Ebene 27">
            <path class="cls-12" d="M369.42,429.21L383.74,531.76L388.74,531.95L388.43,434.53L398.73,532.33L403.72,532.52L404.68,428.27L402.15,415.97L376.57,417.16L369.42,429.21" fill="#80ce99"/>
        </g>
        <g id="Ebene_25" data-name="Ebene 25">
            <path class="cls-1" d="M380.49,366L384.95,368C386.24,368.66,389.95,368.19,391.95,367.22L395.1,363.14C396.31,361.74,395.1,365.21,396.45,366.5L397.4,367.43L399.72,418.8C399.749,419.228,399.695,419.657,399.561,420.064C399.427,420.471,399.215,420.848,398.937,421.175C398.66,421.501,398.322,421.771,397.942,421.969C397.562,422.167,397.147,422.29,396.72,422.33C391.78,422.63,382.45,422.94,378.9,421.33C374.27,419.18,379.35,371.8,379.96,366.27C379.965,366.211,379.985,366.154,380.018,366.104C380.052,366.055,380.097,366.015,380.15,365.988C380.203,365.961,380.262,365.947,380.322,365.95C380.381,365.952,380.439,365.969,380.49,366Z" fill="#ccebd6"/>
            <path class="cls-21" d="M380,365.81L378.72,346.87L384.39,329.24L390.39,329.47L394.99,340.14L394.35,356.91L394.07,364.24C394.07,364.24,391.84,370.46,388.84,370.34C385.84,370.22,380,365.81,380,365.81Z" fill="#e6f5eb"/>
        </g>
        <g id="Ebene_26" data-name="Ebene 26">
            <path class="cls-25" d="M380,365.81C380,365.81,385.52,378.61,385.08,390.14C384.64,401.67,380.96,424.53,373.46,432.73C365.11,441.85,363.23,438.63,363.23,438.63C363.23,438.63,374.49,405.48,373.69,400.2C372.89,394.92,371.25,385.42,371.25,385.42L367.58,403.12L374.7,426.48L372.58,429.54C372.58,429.54,363.26,411.35,362.38,408.17C362.126,407.314,361.902,406.449,361.707,405.578C361.513,404.706,361.349,403.828,361.215,402.945C361.081,402.062,360.978,401.175,360.905,400.285C360.833,399.395,360.791,398.503,360.78,397.61C360.87,395.21,364.38,379.51,366.04,372.2C366.163,371.634,366.353,371.085,366.606,370.565C366.859,370.044,367.174,369.556,367.543,369.111C367.913,368.665,368.334,368.265,368.798,367.92C369.263,367.574,369.767,367.286,370.3,367.06L378.57,363.66Z" fill="url(#Gradient-16)"/>
            <path class="cls-26" d="M398.1,364.4C398.1,364.4,394.55,364.81,394.91,384.21C395.03,390.51,396.79,425.21,401.67,428.55C406.55,431.89,415.34,437.46,414.5,433.23C413.66,429,403.55,401.33,403.55,401.33L405.26,386.71L408.56,399.71C408.65,400.86,412.66,407.4,413.45,408.2L430.77,426.46L434.88,423.46C434.88,423.46,415.74,400.6,415.82,398.46C415.9,396.32,411.82,373.06,410.82,371.04C410.643,370.721,410.45,370.411,410.24,370.113C410.03,369.815,409.803,369.528,409.562,369.254C409.321,368.98,409.065,368.719,408.796,368.473C408.527,368.227,408.244,367.996,407.95,367.78C405.06,365.66,398.1,364.4,398.1,364.4Z" fill="url(#Gradient-17)"/>
        </g>
        <g id="Ebene_29" data-name="Ebene 29">
            <path class="cls-18" d="M371.74,426L372.82,428.49C372.864,428.808,372.917,429.125,372.981,429.439C373.045,429.754,373.119,430.067,373.202,430.377C373.286,430.687,373.379,430.994,373.482,431.298C373.585,431.602,373.698,431.903,373.82,432.2C374.38,433.02,378.72,426.27,378.72,426.27C378.72,426.27,378.72,425.05,376.43,424.96L374.24,421.2" fill="#fff"/>
            <path class="cls-21" d="M437.8,425.72C437.8,425.72,435.56,431.93,433.65,429.72C433.378,429.448,433.136,429.149,432.926,428.828C432.716,428.506,432.54,428.163,432.401,427.805C432.262,427.447,432.161,427.076,432.098,426.697C432.036,426.318,432.013,425.934,432.03,425.55L434.32,423.88C434.32,423.88,437.84,424.67,437.8,425.72Z" fill="#e6f5eb"/>
        </g>
        <g id="Ebene_24" data-name="Ebene 24">
            <path class="cls-13" d="M375.15,371.52C375.15,371.52,385.77,369.46,382.55,352.26L380.67,349C380.67,349,387.94,341.93,386.34,331.38C386.34,331.38,394.34,331.68,393.98,341.11C393.62,350.54,390.5,353.57,389.47,354.58C388.44,355.59,394.1,364.2,394.1,364.2C394.1,364.2,394.97,366.4,399.94,368.62C399.94,368.62,398.42,355.97,398.54,352.83C398.66,349.69,399.54,325.58,387.54,327.22C387.54,327.22,384.66,323.96,379.54,326.92C374.42,329.88,370.95,342.33,373.71,348.74C376.47,355.15,376.31,367.36,375.15,371.52Z" fill="#33b05c"/>
        </g>
    </g>
    <g id="Balloon" transform="translate(479.965,469.784) translate(-479.965,-469.784)" style="animation: 10s linear infinite both Balloon_t;">
        <g>
            <path class="cls-27" d="M477.99,406.91L479.89,471.19" stroke="#28af7e" fill="#33b05c" stroke-miterlimit="10"/>
            <g>
                <ellipse class="cls-12" rx="15.48" ry="18.4" fill="#80ce99" transform="translate(0,0) translate(477.57,385.76)"/>
                <path class="cls-12" d="M475.88,402.68L474.61,407.96L481.16,407.75L479.05,401.83L475.88,402.68Z" fill="#80ce99"/>
            </g>
        </g>
    </g>
    <g id="Girl">
        <g id="Ebene_33" data-name="Ebene 33">
            <path class="cls-21" d="M437.76,452.53C438.054,452.385,438.347,452.235,438.638,452.083C438.929,451.93,439.217,451.773,439.504,451.613C439.791,451.453,440.076,451.289,440.358,451.122C440.641,450.955,440.922,450.784,441.2,450.61L441.86,443.25C441.86,443.18,441.44,443.1,441.39,443.05L434.62,435.31C434.6,435.281,434.584,435.249,434.573,435.215C434.563,435.181,434.557,435.146,434.557,435.11C434.557,435.074,434.563,435.039,434.573,435.005C434.584,434.971,434.6,434.939,434.62,434.91L442.39,422.28C442.405,422.256,442.424,422.233,442.445,422.213C442.466,422.193,442.489,422.176,442.514,422.162C442.539,422.148,442.566,422.138,442.594,422.131C442.622,422.123,442.651,422.12,442.68,422.12L449.3,422.12C449.329,422.12,449.358,422.123,449.386,422.131C449.414,422.138,449.441,422.148,449.466,422.162C449.491,422.176,449.514,422.193,449.535,422.213C449.556,422.233,449.575,422.256,449.59,422.28L454.42,430.01C454.43,430.028,454.439,430.047,454.446,430.066C454.454,430.086,454.46,430.106,454.464,430.126C454.468,430.146,454.471,430.167,454.472,430.188C454.473,430.209,454.472,430.229,454.47,430.25L452.52,441.94C452.516,441.968,452.508,441.996,452.497,442.022C452.485,442.048,452.471,442.073,452.453,442.096C452.436,442.118,452.416,442.139,452.393,442.156C452.371,442.174,452.346,442.189,452.32,442.2L450.27,443.14C450.14,443.2,449.32,442.48,449.16,443.3L450.63,449.23C450.63,449.43,451.53,449.57,451.72,449.55L453.72,449.3C453.95,449.3,454,449.63,453.96,449.86C453.63,451.4,451.68,456.12,447.45,456.12C446.665,456.097,445.884,456.01,445.113,455.859C444.343,455.709,443.586,455.496,442.85,455.223C442.114,454.95,441.402,454.617,440.72,454.228C440.038,453.839,439.39,453.395,438.78,452.9C438.61,452.74,437.55,452.63,437.76,452.53Z" fill="#e6f5eb"/>
            <path class="cls-21" d="M457.42,449.85C461.77,453.85,474.42,465.32,477.42,468.03C477.511,468.111,477.614,468.178,477.725,468.227C477.837,468.277,477.955,468.309,478.076,468.322C478.197,468.336,478.32,468.33,478.439,468.306C478.559,468.282,478.674,468.239,478.78,468.18C479.046,468.063,479.328,467.982,479.616,467.941C479.904,467.899,480.196,467.898,480.485,467.935C480.774,467.973,481.056,468.05,481.324,468.164C481.592,468.278,481.843,468.428,482.07,468.61C482.5,469.04,482.93,469.26,483.07,469.61C483.21,469.96,483.4,470.28,483.07,470.61L482.07,470.61C482.204,470.74,482.311,470.895,482.384,471.067C482.457,471.239,482.495,471.423,482.495,471.61C482.495,471.797,482.457,471.981,482.384,472.153C482.311,472.325,482.204,472.48,482.07,472.61C480.65,474.02,477.07,472.61,476.07,470.61C475.18,468.84,460.24,460.39,456.78,458.91C456.34,458.72,456.07,455.3,456.07,454.83L456.07,450.42C456.062,450.26,456.103,450.102,456.189,449.967C456.274,449.831,456.398,449.725,456.546,449.663C456.693,449.601,456.856,449.585,457.012,449.619C457.169,449.652,457.311,449.733,457.42,449.85Z" fill="#e6f5eb"/>
            <path class="cls-21" d="M436.62,482.12L435.62,471.12C435.62,471.12,438.62,460.12,437.62,457.12C436.62,454.12,435.62,453.12,434.62,454.12C433.62,455.12,431.62,470.12,431.62,471.12C431.62,472.12,434.62,489.12,434.62,489.12Z" fill="#e6f5eb"/>
            <path class="cls-21" d="M443.71,503.38L449.42,538.33L452.06,537.32L451.43,500.25L443.71,503.38Z" fill="#e6f5eb"/>
            <path class="cls-21" d="M453.86,501.89L457.35,537.18L459.88,536.6L460.94,499.65L453.86,501.89Z" fill="#e6f5eb"/>
            <path class="cls-13" d="M448.65,533.59C448.65,533.59,449.4,536.38,450.41,536.84C452.05,537.58,451.77,533.16,452.06,533.49C452.35,533.82,453.79,544.02,451.14,543.97C448.49,543.92,447,541.47,448.65,533.59Z" fill="#33b05c"/>
            <path class="cls-13" d="M456.67,534.1C456.67,534.1,455.52,541.8,459.23,543.72C462.94,545.64,461,537.27,461,537.27C461,537.27,460.35,533.27,459.86,533.67C459.37,534.07,460.23,536.91,458.43,536.67C457.54,536.55,457.69,533.66,456.67,534.1Z" fill="#33b05c"/>
        </g>
        <g id="Ebene_34" data-name="Ebene 34">
            <path class="cls-28" d="M435.43,455C435.533,455.621,435.651,456.24,435.783,456.855C435.916,457.471,436.063,458.083,436.225,458.692C436.387,459.3,436.563,459.905,436.754,460.505C436.945,461.105,437.15,461.7,437.37,462.29L438.64,469.38L432.1,504.49L472.28,504.06L459.46,468.06C459.46,468.06,458.46,466.06,458.94,459.21C459.11,456.98,457.14,449.27,457.14,449.27L453.46,449.06L450.74,452.24C450.269,452.789,449.714,453.258,449.094,453.631C448.475,454.004,447.8,454.275,447.095,454.434C446.389,454.593,445.663,454.639,444.944,454.568C444.224,454.498,443.521,454.313,442.86,454.02L438.46,452.02L436.66,452.81C434.51,453.82,435.33,454.14,435.43,455Z" fill="url(#Gradient-18)"/>
        </g>
        <path class="cls-13" d="M445.64,426.92L439.46,437.12L441,440.2C441.239,440.678,441.45,441.17,441.633,441.673C441.815,442.176,441.968,442.689,442.09,443.21C442.213,443.731,442.306,444.258,442.367,444.789C442.429,445.321,442.46,445.855,442.46,446.39L442.46,447.5C442.46,447.5,431.46,448.5,431.46,448.12C431.46,446.71,428.4,420.78,443.71,420.78C444.309,420.741,444.91,420.747,445.509,420.797C446.107,420.848,446.701,420.944,447.285,421.083C447.869,421.223,448.441,421.406,448.998,421.632C449.555,421.857,450.093,422.124,450.61,422.43C453.61,424.43,459.46,434.12,456.46,447.12L450.08,447.5L448.57,442.35C448.753,442.101,448.93,441.848,449.102,441.591C449.274,441.334,449.44,441.074,449.601,440.81C449.762,440.547,449.918,440.28,450.068,440.01C450.217,439.739,450.362,439.466,450.5,439.19C452,436.23,453,428.83,445.64,426.92Z" fill="#33b05c"/>
    </g>
    <g id="pricetag" mask="url(#Mask-1)" transform="translate(241.646,99.7992) translate(-57.2452,-48.1265)">
        <g id="Pricetag" transform="translate(66.924,-235.625) translate(-253.054,-78.025)" style="animation: 10s linear infinite both Pricetag_t;">
            <g>
                <g id="tag" transform="translate(218.059,148.815) translate(-218.059,-148.815)" style="animation: 10s linear infinite both tag_t;">
                    <path class="cls-34" d="M247.88,138.59L193.88,136.07L181,150.2L176.13,254.55L252.13,258.09L257,154.33ZM219.27,160.35C216.849,160.491,214.582,159.161,213.523,156.979C212.465,154.798,212.823,152.193,214.432,150.379C216.041,148.565,218.584,147.897,220.876,148.688C223.169,149.478,224.76,151.57,224.91,153.99C224.959,154.778,224.851,155.568,224.594,156.315C224.337,157.062,223.935,157.75,223.411,158.341C222.887,158.932,222.251,159.414,221.541,159.758C220.83,160.103,220.058,160.304,219.27,160.35Z" fill="url(#Gradient-19)"/>
                    <path fill="#fff" d="M0.624,-0.288C1.312,-0.016,2.496,0.192,3.312,0.192C5.808,0.192,7.52,-1.152,7.52,-3.104C7.52,-3.76,7.328,-4.368,7.008,-4.816C6.576,-5.392,6.064,-5.664,5.168,-5.824L5.168,-5.856C6.736,-6.448,7.392,-7.2,7.392,-8.416C7.392,-10.16,6.048,-11.36,4.096,-11.36C3.104,-11.36,2.256,-11.232,0.88,-10.848L1.008,-8.864C1.216,-8.928,1.232,-8.944,1.456,-9.008C2.304,-9.312,2.752,-9.408,3.2,-9.408C4.192,-9.408,4.864,-8.832,4.864,-8C4.864,-7.376,4.496,-6.976,3.792,-6.784C3.376,-6.656,2.976,-6.624,2.128,-6.624L2.128,-4.8L2.896,-4.8C4.304,-4.8,4.896,-4.368,4.896,-3.328C4.896,-2.368,4.144,-1.76,2.944,-1.76C2.4,-1.76,2.192,-1.808,0.736,-2.336ZM9.024,-0.288C9.712,-0.016,10.896,0.192,11.712,0.192C14.208,0.192,15.92,-1.152,15.92,-3.104C15.92,-3.76,15.728,-4.368,15.408,-4.816C14.976,-5.392,14.464,-5.664,13.568,-5.824L13.568,-5.856C15.136,-6.448,15.792,-7.2,15.792,-8.416C15.792,-10.16,14.448,-11.36,12.496,-11.36C11.504,-11.36,10.656,-11.232,9.28,-10.848L9.408,-8.864C9.616,-8.928,9.632,-8.944,9.856,-9.008C10.704,-9.312,11.152,-9.408,11.6,-9.408C12.592,-9.408,13.264,-8.832,13.264,-8C13.264,-7.376,12.896,-6.976,12.192,-6.784C11.776,-6.656,11.376,-6.624,10.528,-6.624L10.528,-4.8L11.296,-4.8C12.704,-4.8,13.296,-4.368,13.296,-3.328C13.296,-2.368,12.544,-1.76,11.344,-1.76C10.8,-1.76,10.592,-1.808,9.136,-2.336ZM17.888,0L20.192,0L20.192,-2.4L17.888,-2.4ZM25.53,-11.36C23.018,-11.36,21.85,-9.52,21.85,-5.568C21.85,-1.648,23.034,0.192,25.53,0.192C28.042,0.192,29.21,-1.648,29.21,-5.6C29.21,-9.52,28.026,-11.36,25.53,-11.36ZM25.53,-9.536C26.378,-9.536,26.746,-8.32,26.746,-5.552C26.746,-2.864,26.362,-1.632,25.53,-1.632C24.682,-1.632,24.314,-2.848,24.314,-5.568C24.314,-8.32,24.682,-9.536,25.53,-9.536ZM34.4825,-11.36C31.9705,-11.36,30.8025,-9.52,30.8025,-5.568C30.8025,-1.648,31.9865,0.192,34.4825,0.192C36.9945,0.192,38.1625,-1.648,38.1625,-5.6C38.1625,-9.52,36.9785,-11.36,34.4825,-11.36ZM34.4825,-9.536C35.3305,-9.536,35.6985,-8.32,35.6985,-5.552C35.6985,-2.864,35.3145,-1.632,34.4825,-1.632C33.6345,-1.632,33.2665,-2.848,33.2665,-5.568C33.2665,-8.32,33.6345,-9.536,34.4825,-9.536ZM43.3,-11.36C40.788,-11.36,39.62,-9.52,39.62,-5.568C39.62,-1.648,40.804,0.192,43.3,0.192C45.812,0.192,46.98,-1.648,46.98,-5.6C46.98,-9.52,45.796,-11.36,43.3,-11.36ZM43.3,-9.536C44.148,-9.536,44.516,-8.32,44.516,-5.552C44.516,-2.864,44.132,-1.632,43.3,-1.632C42.452,-1.632,42.084,-2.848,42.084,-5.568C42.084,-8.32,42.452,-9.536,43.3,-9.536ZM58.0088,-3.616L58.5847,-5.136L55.8647,-5.136C55.8487,-5.328,55.8487,-5.472,55.8487,-5.648C55.8487,-5.856,55.8487,-6.016,55.8807,-6.208L58.9847,-6.208L59.5607,-7.728L56.2808,-7.728C56.7767,-8.752,57.6407,-9.28,58.7927,-9.28C59.2407,-9.28,59.4967,-9.232,60.0728,-9.072L60.7767,-10.944C59.9927,-11.232,59.2087,-11.36,58.3127,-11.36C55.9608,-11.36,54.0567,-9.952,53.4487,-7.728L52.8568,-7.728L52.2808,-6.208L53.1768,-6.208C53.1607,-5.984,53.1607,-5.808,53.1607,-5.584C53.1607,-5.392,53.1607,-5.28,53.1768,-5.136L52.8568,-5.136L52.2808,-3.616L53.4167,-3.616C54.1688,-1.136,55.9287,0.192,58.4888,0.192C58.9688,0.192,59.3207,0.16,60.0728,0.048L60.0728,-2.128C59.6247,-2,59.2567,-1.952,58.8247,-1.952C57.7048,-1.952,56.7927,-2.544,56.2647,-3.616ZM14.02,11.48C13.66,11.33,13.25,11.26,12.82,11.26C11.67,11.26,10.96,11.92,10.96,12.97C10.96,13.82,11.23,14.18,12.43,14.93C13.26,15.45,13.46,15.7,13.46,16.25C13.46,16.9,12.99,17.34,12.3,17.34C11.93,17.34,11.48,17.19,11.01,16.91L11.01,17.78C11.4,17.96,11.9,18.07,12.39,18.07C13.59,18.07,14.34,17.34,14.34,16.18C14.34,15.34,13.98,14.83,12.97,14.23C12.05,13.68,11.84,13.45,11.84,12.99C11.84,12.39,12.26,11.99,12.89,11.99C13.32,11.99,13.65,12.08,14.02,12.29ZM19.52,11.53C19.01,11.31,18.68,11.23,18.2,11.23C16.45,11.23,15.34,12.55,15.34,14.63C15.34,16.77,16.46,18.1,18.28,18.1C18.75,18.1,19.05,18.04,19.52,17.84L19.52,17.01C19.04,17.26,18.73,17.35,18.29,17.35C17.02,17.35,16.23,16.32,16.23,14.66C16.23,13.03,17.02,11.96,18.24,11.96C18.68,11.96,19,12.05,19.52,12.34ZM24.8,11.33L23.95,11.33L23.95,14.18L21.6,14.18L21.6,11.33L20.75,11.33L20.75,18L21.6,18L21.6,14.89L23.95,14.89L23.95,18L24.8,18ZM31.12,18L28.95,11.33L27.99,11.33L25.82,18L26.71,18L27.23,16.29L29.69,16.29L30.23,18ZM29.46,15.58L27.44,15.58L28.44,12.2ZM32.12,11.33L32.12,18L33.31,18C34.31,18,34.99,17.8,35.5,17.36C36.16,16.8,36.52,15.84,36.52,14.66C36.52,13.68,36.26,12.82,35.79,12.24C35.25,11.57,34.57,11.33,33.21,11.33ZM32.97,12.01L33.34,12.01C34.04,12.01,34.49,12.14,34.81,12.43C35.29,12.87,35.63,13.82,35.63,14.73C35.63,15.5,35.39,16.21,34.96,16.7C34.57,17.13,34.08,17.32,33.34,17.32L32.97,17.32ZM37.82,11.33L37.82,18L41,18L41,17.29L38.67,17.29L38.67,14.92L40.8,14.92L40.8,14.21L38.67,14.21L38.67,12.04L40.94,12.04L40.94,11.33ZM42.24,18L43.04,18L43.04,12.53L43.06,12.53L45.58,18L46.62,18L46.62,11.33L45.82,11.33L45.82,16.83L45.8,16.83L43.28,11.33L42.24,11.33ZM-0.03,22.09L-0.85,22.09L-0.85,23.01L-0.03,23.01ZM-0.03,24.13L-0.85,24.13L-0.85,29L-0.03,29ZM2.06,24.13L1.27,24.13C1.31,24.9,1.32,25.38,1.32,26.17L1.32,29L2.14,29L2.14,26.6C2.14,25.87,2.2,25.5,2.36,25.18C2.51,24.91,2.77,24.74,3.05,24.74C3.27,24.74,3.45,24.84,3.55,25.02C3.72,25.33,3.75,25.6,3.75,26.62L3.75,29L4.56,29L4.56,26.71C4.56,25.85,4.61,25.51,4.79,25.17C4.94,24.9,5.2,24.74,5.49,24.74C5.73,24.74,5.91,24.84,6.01,25.02C6.15,25.28,6.18,25.56,6.18,26.51L6.18,29L6.99,29L6.99,26.35C6.99,25.31,6.94,24.98,6.72,24.59C6.51,24.23,6.14,24.03,5.69,24.03C5.11,24.03,4.74,24.28,4.41,24.91C4.17,24.29,3.83,24.03,3.28,24.03C2.79,24.03,2.44,24.26,2.06,24.82ZM10.77,22.33L10.77,29L11.96,29C12.96,29,13.64,28.8,14.15,28.36C14.81,27.8,15.17,26.84,15.17,25.66C15.17,24.68,14.91,23.82,14.44,23.24C13.9,22.57,13.22,22.33,11.86,22.33ZM11.62,23.01L11.99,23.01C12.69,23.01,13.14,23.14,13.46,23.43C13.94,23.87,14.28,24.82,14.28,25.73C14.28,26.5,14.04,27.21,13.61,27.7C13.22,28.13,12.73,28.32,11.99,28.32L11.62,28.32ZM19.75,24.13L18.94,24.13L18.94,26.48C18.94,27.88,18.67,28.39,17.95,28.39C17.65,28.39,17.45,28.28,17.33,28.06C17.18,27.8,17.15,27.51,17.15,26.5L17.15,24.13L16.34,24.13L16.34,26.64C16.34,27.85,16.38,28.1,16.61,28.51C16.83,28.9,17.21,29.1,17.71,29.1C18.32,29.1,18.69,28.87,19.02,28.3L19.06,29L19.81,29C19.78,28.8,19.76,28.37,19.75,27.18ZM23.22,24.08C23.14,24.07,23.08,24.07,23.01,24.07C22.4,24.07,22.13,24.28,21.8,24.99L21.8,24.13L21.03,24.13C21.07,24.82,21.08,25.37,21.08,25.91L21.08,29L21.9,29L21.9,26.87C21.9,26.02,21.96,25.68,22.16,25.34C22.34,25.02,22.59,24.86,22.88,24.86C22.98,24.86,23.15,24.88,23.19,24.9L23.22,24.91ZM26.86,24.24C26.45,24.08,26.19,24.03,25.85,24.03C24.6,24.03,23.79,25.02,23.79,26.56C23.79,28.07,24.59,29.1,25.78,29.1C26.15,29.1,26.49,29.03,26.86,28.87L26.83,28.14C26.45,28.35,26.22,28.42,25.9,28.42C25.13,28.42,24.63,27.68,24.63,26.54C24.63,26,24.79,25.43,25.02,25.13C25.24,24.86,25.56,24.71,25.94,24.71C26.16,24.71,26.38,24.76,26.58,24.86C26.64,24.88,26.71,24.91,26.77,24.94L26.83,24.96ZM31.26,29L31.26,26.55C31.26,25.29,31.23,25.04,30.99,24.63C30.77,24.23,30.39,24.03,29.86,24.03C29.3,24.03,28.97,24.22,28.61,24.77L28.61,21.79L27.8,21.79L27.8,29L28.61,29L28.61,26.82C28.61,25.98,28.68,25.54,28.86,25.23C29.05,24.91,29.33,24.74,29.66,24.74C29.93,24.74,30.14,24.86,30.26,25.09C30.42,25.37,30.45,25.65,30.45,26.7L30.45,29ZM34.87,24.24C34.39,24.08,34.12,24.03,33.77,24.03C32.9,24.03,32.33,24.56,32.33,25.37C32.33,25.97,32.59,26.31,33.38,26.73C34.08,27.1,34.27,27.31,34.27,27.7C34.27,28.16,33.94,28.44,33.41,28.44C33.05,28.44,32.84,28.37,32.35,28.07L32.28,28.79C32.71,29.01,33.08,29.1,33.49,29.1C34.48,29.1,35.1,28.55,35.1,27.68C35.1,27.03,34.78,26.61,33.98,26.21C33.33,25.89,33.13,25.69,33.13,25.33C33.13,24.92,33.39,24.69,33.87,24.69C34.19,24.69,34.42,24.74,34.81,24.91ZM39,24.24C38.59,24.08,38.33,24.03,37.99,24.03C36.74,24.03,35.93,25.02,35.93,26.56C35.93,28.07,36.73,29.1,37.92,29.1C38.29,29.1,38.63,29.03,39,28.87L38.97,28.14C38.59,28.35,38.36,28.42,38.04,28.42C37.27,28.42,36.77,27.68,36.77,26.54C36.77,26,36.93,25.43,37.16,25.13C37.38,24.86,37.7,24.71,38.08,24.71C38.3,24.71,38.52,24.76,38.72,24.86C38.78,24.88,38.85,24.91,38.91,24.94L38.97,24.96ZM43.41,29L43.41,26.55C43.41,25.29,43.38,25.04,43.14,24.63C42.92,24.23,42.54,24.03,42.01,24.03C41.45,24.03,41.12,24.22,40.76,24.77L40.76,21.79L39.95,21.79L39.95,29L40.76,29L40.76,26.82C40.76,25.98,40.83,25.54,41.01,25.23C41.2,24.91,41.48,24.74,41.81,24.74C42.08,24.74,42.29,24.86,42.41,25.09C42.57,25.37,42.6,25.65,42.6,26.7L42.6,29ZM48.11,29L48.11,26.46C48.11,25.5,48.07,25.18,47.92,24.83C47.68,24.29,47.28,24.03,46.71,24.03C46.12,24.03,45.76,24.26,45.41,24.84L45.41,24.13L44.61,24.13C44.65,24.59,44.66,25.07,44.66,25.94L44.66,29L45.48,29L45.48,26.61C45.48,25.92,45.54,25.56,45.73,25.23C45.9,24.92,46.18,24.74,46.51,24.74C46.79,24.74,46.99,24.85,47.11,25.07C47.26,25.34,47.3,25.69,47.3,26.56L47.3,29ZM50.26,22.09L49.44,22.09L49.44,23.01L50.26,23.01ZM50.26,24.13L49.44,24.13L49.44,29L50.26,29ZM51.96,24.77L51.96,27.44C51.96,28.35,52,28.56,52.25,28.79C52.44,28.97,52.69,29.05,53.06,29.05C53.33,29.05,53.5,29.03,53.75,28.95L53.75,28.27C53.58,28.36,53.43,28.4,53.27,28.4C53.1,28.4,52.94,28.33,52.87,28.22C52.77,28.06,52.77,28.06,52.77,27.01L52.77,24.77L53.71,24.77L53.71,24.13L52.77,24.13L52.77,22.84L51.96,23.1L51.96,24.13L51.16,24.13L51.16,24.77ZM55.15,24.77L55.15,27.44C55.15,28.35,55.19,28.56,55.44,28.79C55.63,28.97,55.88,29.05,56.25,29.05C56.52,29.05,56.69,29.03,56.94,28.95L56.94,28.27C56.77,28.36,56.62,28.4,56.46,28.4C56.29,28.4,56.13,28.33,56.06,28.22C55.96,28.06,55.96,28.06,55.96,27.01L55.96,24.77L56.9,24.77L56.9,24.13L55.96,24.13L55.96,22.84L55.15,23.1L55.15,24.13L54.35,24.13L54.35,24.77ZM60.71,23.06L59.66,23.55L59.72,22.23L59.02,22.23L59.09,23.55L58.03,23.06L57.83,23.67L58.98,24.05L58.22,25.1L58.76,25.5L59.37,24.42L59.96,25.5L60.52,25.1L59.76,24.05L60.91,23.67Z" transform="translate(186.78,193.77) rotate(2.67)"/>
                </g>
                <path class="cls-59" d="M270,87.67C268,80.74,262.1,78.34,256.38,77.35C255.867,77.205,255.346,77.087,254.82,76.9964C254.294,76.9058,253.764,76.8427,253.232,76.8075C252.7,76.7722,252.166,76.7648,251.633,76.7853C251.1,76.8057,250.568,76.854,250.04,76.93C242.51,77.8,234.35,84.35,231.86,95.5C229.86,104.39,227.39,107.01,222.86,111.76C221.86,112.76,220.86,113.87,219.75,115.12C216.75,118.5,214.94,125.81,214.45,136.85C214.2,142.53,214.36,147.69,214.45,150.3C214.541,151.894,217.414,152.253,217.939,151.947C218.464,151.642,220.594,152,221.12,148.78C222.25,139.71,227.03,124.86,230.2,119.86C233.2,115.09,237.3,113.64,247.12,110.13C249.2,109.39,251.52,108.56,254.12,107.6C268.54,102.25,271.76,93.8,270,87.67ZM252.79,103.85C250.21,104.85,247.91,105.63,245.85,106.36C235.74,109.97,230.66,111.78,226.85,117.72C224.04,122.16,220.32,132.77,218.32,141.85C218.4,132.79,219.32,121.57,222.73,117.79C223.83,116.57,224.84,115.5,225.73,114.51C230.38,109.59,233.45,106.34,235.68,96.37C236.68,91.99,241.17,85.85,241.17,85.85C241.17,85.85,250.54,75.23,262.7,83.85C263.111,84.1461,263.495,84.4767,263.849,84.8384C264.203,85.2,264.526,85.5913,264.813,86.008C265.101,86.4247,265.352,86.8652,265.564,87.3247C265.777,87.7842,265.949,88.261,266.08,88.75C267.41,93.19,264.58,99.46,252.76,103.85Z" fill="#ff7200"/>
            </g>
        </g>
    </g>
    <path class="cls-60" d="M246.6,86.58L252.96,80.05L259.31,86.58L265.63,86.58L256.09,76.83L252.99,73.65L240.25,86.58L246.6,86.58Z" fill="url(#Gradient-21)" opacity="0" transform="translate(-3.49695e-06,4.27307e-07)" style="animation: 10s linear infinite both a6_o;"/>
    <path d="M1,-5L1,-164.125C1,-164.125,0.83813,-203.983,-45.7713,-214.922C-78.0965,-222.509,-95.2628,-204.818,-95.2628,-204.818" fill="none" stroke="#76c4ff" stroke-width="10" stroke-linecap="round" stroke-linejoin="round" stroke-dasharray="1 30" stroke-dashoffset="0" opacity="0" transform="translate(578.477,251.535)" style="animation: 10s linear infinite both a7_o, 10s linear infinite both a7_do;"/>
</svg>
