<?xml version="1.0" encoding="UTF-8" standalone="no"?>
<!-- Created with Keyshape -->
<svg xmlns="http://www.w3.org/2000/svg" viewBox="0 0 670 400">
    <defs>
        <linearGradient id="Gradient-0" x1="0" y1="14.82" x2="143.34" y2="14.82" gradientUnits="userSpaceOnUse">
            <stop offset="0" stop-color="#e6e6e6"/>
            <stop offset="1" stop-color="#b3b3b3"/>
        </linearGradient>
        <linearGradient id="Gradient-1" x1="0" y1="9.49" x2="94.65" y2="9.49" gradientUnits="userSpaceOnUse">
            <stop offset="0" stop-color="#e6e6e6"/>
            <stop offset="1" stop-color="#b3b3b3"/>
        </linearGradient>
        <linearGradient id="Gradient-2" x1="0" y1="9.49" x2="79.58" y2="9.49" gradientUnits="userSpaceOnUse">
            <stop offset="0" stop-color="#e6e6e6"/>
            <stop offset="1" stop-color="#b3b3b3"/>
        </linearGradient>
        <linearGradient id="Gradient-3" x1="0" y1="6.99" x2="44.98" y2="6.99" gradientUnits="userSpaceOnUse">
            <stop offset="0" stop-color="#e6e6e6"/>
            <stop offset="1" stop-color="#b3b3b3"/>
        </linearGradient>
        <linearGradient id="Gradient-4" x1="0" y1="6.99" x2="24.49" y2="6.99" gradientUnits="userSpaceOnUse">
            <stop offset="0" stop-color="#e6e6e6"/>
            <stop offset="1" stop-color="#b3b3b3"/>
        </linearGradient>
        <linearGradient id="Gradient-5" x1="0" y1="6.99" x2="13.99" y2="6.99" gradientUnits="userSpaceOnUse">
            <stop offset="0" stop-color="#e6e6e6"/>
            <stop offset="1" stop-color="#b3b3b3"/>
        </linearGradient>
        <linearGradient id="Gradient-6" x1="110.24" y1="200.58" x2="180.1" y2="200.58" gradientUnits="userSpaceOnUse">
            <stop offset="0" stop-color="#b3e1c2"/>
            <stop offset="1" stop-color="#4dba71"/>
        </linearGradient>
        <linearGradient id="Gradient-7" x1="246.41" y1="143.95" x2="405.59" y2="143.95" gradientUnits="userSpaceOnUse">
            <stop offset="0" stop-color="#4dba71"/>
            <stop offset="1" stop-color="#007d29"/>
        </linearGradient>
        <linearGradient id="Gradient-8" x1="237.98" y1="151.09" x2="411.42" y2="232.18" gradientUnits="userSpaceOnUse">
            <stop offset="0" stop-color="#4dba71"/>
            <stop offset="1" stop-color="#007d29"/>
        </linearGradient>
        <linearGradient id="Gradient-9" x1="203.012" y1="144.451" x2="405.59" y2="143.95" gradientUnits="userSpaceOnUse">
            <stop offset="0" stop-color="#4dba71"/>
            <stop offset="1" stop-color="#007d29"/>
        </linearGradient>
        <linearGradient id="Gradient-10" x1="342.18" y1="237.09" x2="435.73" y2="237.09" gradientUnits="userSpaceOnUse">
            <stop offset="0" stop-color="#ff9632"/>
            <stop offset="1" stop-color="#ff7200"/>
        </linearGradient>
        <linearGradient id="Gradient-11" x1="205.625" y1="106.103" x2="206.672" y2="2.93959" gradientUnits="userSpaceOnUse">
            <stop offset="0" stop-color="#ffffff"/>
            <stop offset="1" stop-color="#000000"/>
        </linearGradient>
        <linearGradient id="Gradient-12" x1="152.52" y1="0" x2="154.001" y2="114.02" gradientUnits="userSpaceOnUse">
            <stop offset="0" stop-color="#000000"/>
            <stop offset="1" stop-color="#ffffff"/>
        </linearGradient>
        <linearGradient id="Gradient-13" x1="38.1474" y1="0" x2="38.5809" y2="19.0737" gradientUnits="userSpaceOnUse">
            <stop offset="0" stop-color="#000000"/>
            <stop offset="1" stop-color="#ffffff"/>
        </linearGradient>
        <linearGradient id="Gradient-14" x1="302.982" y1="125.13" x2="395.08" y2="125.13" gradientUnits="userSpaceOnUse">
            <stop offset="0" stop-color="#4dba71"/>
            <stop offset="1" stop-color="#007d29"/>
        </linearGradient>
        <mask id="Mask-1">
            <rect width="391.454" height="317.847" fill="url(#Gradient-11)" rx="1.59" stroke="none" transform="translate(54.293,47.446) translate(-195.727,-158.924)"/>
        </mask>
        <mask id="Mask-3">
            <rect width="305.041" height="321.33" fill="url(#Gradient-12)" stroke="none" transform="translate(40.5057,351.342) translate(-152.52,-160.665)"/>
        </mask>
        <mask id="Mask-2">
            <rect width="76.2949" height="57.6547" fill="url(#Gradient-13)" rx="1.59" stroke="none" transform="translate(22.812,20.961) translate(-38.1474,-28.8273)"/>
        </mask>
    </defs>
    <style>
@keyframes a0_t { 0% { transform: translate(552.076px,335.835px); } 20% { transform: translate(552.076px,335.835px); animation-timing-function: cubic-bezier(0.42,0,0.58,1); } 70% { transform: translate(91.3241px,335.835px); } 100% { transform: translate(91.3241px,335.835px); } }
@keyframes wind_t { 0% { transform: rotate(0deg) translate(-552.076px,-335.835px); } 20% { transform: rotate(0deg) translate(-552.076px,-335.835px); animation-timing-function: cubic-bezier(0.42,0,0.58,1); } 45% { transform: rotate(10deg) translate(-552.076px,-335.835px); animation-timing-function: cubic-bezier(0.42,0,0.58,1); } 70% { transform: rotate(0deg) translate(-552.076px,-335.835px); } 100% { transform: rotate(0deg) translate(-552.076px,-335.835px); } }
@keyframes a1_t { 0% { transform: translate(472.74px,143.53px); animation-timing-function: cubic-bezier(0.42,0,0.58,1); } 10% { transform: translate(489.714px,143.53px); animation-timing-function: cubic-bezier(0.42,0,0.58,1); } 20% { transform: translate(472.74px,143.53px); animation-timing-function: cubic-bezier(0.42,0,0.58,1); } 30% { transform: translate(489.714px,143.53px); animation-timing-function: cubic-bezier(0.42,0,0.58,1); } 40% { transform: translate(472.74px,143.53px); animation-timing-function: cubic-bezier(0.42,0,0.58,1); } 50% { transform: translate(489.714px,143.53px); animation-timing-function: cubic-bezier(0.42,0,0.58,1); } 60% { transform: translate(472.74px,143.53px); animation-timing-function: cubic-bezier(0.42,0,0.58,1); } 70% { transform: translate(489.714px,143.53px); animation-timing-function: cubic-bezier(0.42,0,0.58,1); } 80% { transform: translate(472.74px,143.53px); animation-timing-function: cubic-bezier(0.42,0,0.58,1); } 90% { transform: translate(489.714px,143.53px); animation-timing-function: cubic-bezier(0.42,0,0.58,1); } 100% { transform: translate(472.74px,143.53px); } }
@keyframes a2_t { 0% { transform: translate(495.8px,191.84px); animation-timing-function: cubic-bezier(0.42,0,0.58,1); } 10% { transform: translate(515.386px,191.84px); animation-timing-function: cubic-bezier(0.42,0,0.58,1); } 20% { transform: translate(495.8px,191.84px); animation-timing-function: cubic-bezier(0.42,0,0.58,1); } 30% { transform: translate(515.386px,191.84px); animation-timing-function: cubic-bezier(0.42,0,0.58,1); } 40% { transform: translate(495.8px,191.84px); animation-timing-function: cubic-bezier(0.42,0,0.58,1); } 50% { transform: translate(515.386px,191.84px); animation-timing-function: cubic-bezier(0.42,0,0.58,1); } 60% { transform: translate(495.8px,191.84px); animation-timing-function: cubic-bezier(0.42,0,0.58,1); } 70% { transform: translate(515.386px,191.84px); animation-timing-function: cubic-bezier(0.42,0,0.58,1); } 80% { transform: translate(495.8px,191.84px); animation-timing-function: cubic-bezier(0.42,0,0.58,1); } 90% { transform: translate(515.386px,191.84px); animation-timing-function: cubic-bezier(0.42,0,0.58,1); } 100% { transform: translate(495.8px,191.84px); } }
@keyframes a3_t { 0% { transform: translate(494.32px,229.4px); animation-timing-function: cubic-bezier(0.42,0,0.58,1); } 10% { transform: translate(511.294px,229.4px); animation-timing-function: cubic-bezier(0.42,0,0.58,1); } 20% { transform: translate(494.32px,229.4px); animation-timing-function: cubic-bezier(0.42,0,0.58,1); } 30% { transform: translate(511.294px,229.4px); animation-timing-function: cubic-bezier(0.42,0,0.58,1); } 40% { transform: translate(494.32px,229.4px); animation-timing-function: cubic-bezier(0.42,0,0.58,1); } 50% { transform: translate(511.294px,229.4px); animation-timing-function: cubic-bezier(0.42,0,0.58,1); } 60% { transform: translate(494.32px,229.4px); animation-timing-function: cubic-bezier(0.42,0,0.58,1); } 70% { transform: translate(511.294px,229.4px); animation-timing-function: cubic-bezier(0.42,0,0.58,1); } 80% { transform: translate(494.32px,229.4px); animation-timing-function: cubic-bezier(0.42,0,0.58,1); } 90% { transform: translate(511.294px,229.4px); animation-timing-function: cubic-bezier(0.42,0,0.58,1); } 100% { transform: translate(494.32px,229.4px); } }
@keyframes a4_t { 0% { transform: translate(513.55px,267.07px); animation-timing-function: cubic-bezier(0.42,0,0.58,1); } 10% { transform: translate(522.69px,267.07px); animation-timing-function: cubic-bezier(0.42,0,0.58,1); } 20% { transform: translate(513.55px,267.07px); animation-timing-function: cubic-bezier(0.42,0,0.58,1); } 30% { transform: translate(522.69px,267.07px); animation-timing-function: cubic-bezier(0.42,0,0.58,1); } 40% { transform: translate(513.55px,267.07px); animation-timing-function: cubic-bezier(0.42,0,0.58,1); } 50% { transform: translate(522.69px,267.07px); animation-timing-function: cubic-bezier(0.42,0,0.58,1); } 60% { transform: translate(513.55px,267.07px); animation-timing-function: cubic-bezier(0.42,0,0.58,1); } 70% { transform: translate(522.69px,267.07px); animation-timing-function: cubic-bezier(0.42,0,0.58,1); } 80% { transform: translate(513.55px,267.07px); animation-timing-function: cubic-bezier(0.42,0,0.58,1); } 90% { transform: translate(522.69px,267.07px); animation-timing-function: cubic-bezier(0.42,0,0.58,1); } 100% { transform: translate(513.55px,267.07px); } }
@keyframes a5_do { 0% { stroke-dashoffset: 100px; } 70% { stroke-dashoffset: 0px; } 100% { stroke-dashoffset: 0px; } }
@keyframes a6_do { 0% { stroke-dashoffset: 100px; } 70% { stroke-dashoffset: 0px; } 100% { stroke-dashoffset: 0px; } }
@keyframes fence_t { 0% { transform: translate(443.325px,292.365px) rotate(0deg) translate(-5.45472px,-12.655px); } 35% { transform: translate(443.325px,292.365px) rotate(0deg) translate(-5.45472px,-12.655px); animation-timing-function: cubic-bezier(0.42,0,0.58,1); } 45% { transform: translate(443.325px,292.365px) rotate(-20deg) translate(-5.45472px,-12.655px); } 100% { transform: translate(443.325px,292.365px) rotate(-20deg) translate(-5.45472px,-12.655px); } }
@keyframes fence-2_t { 0% { transform: translate(481.725px,330.583px) rotate(0deg) translate(-4.465px,-50.8727px); } 30% { transform: translate(481.725px,330.583px) rotate(0deg) translate(-4.465px,-50.8727px); animation-timing-function: cubic-bezier(0.42,0,0.58,1); } 40% { transform: translate(481.725px,330.583px) rotate(10deg) translate(-4.465px,-50.8727px); } 100% { transform: translate(481.725px,330.583px) rotate(10deg) translate(-4.465px,-50.8727px); } }
@keyframes a7_t { 0% { transform: translate(406.62px,289.803px) rotate(0deg) translate(1.1999px,-1.13331px); } 40% { transform: translate(406.62px,289.803px) rotate(0deg) translate(1.1999px,-1.13331px); animation-timing-function: cubic-bezier(0.42,0,0.58,1); } 50% { transform: translate(406.62px,289.803px) rotate(20deg) translate(1.1999px,-1.13331px); } 100% { transform: translate(406.62px,289.803px) rotate(20deg) translate(1.1999px,-1.13331px); } }
@keyframes a8_t { 0% { transform: translate(255.685px,166.687px) rotate(0deg) translate(-255.685px,-166.687px); } 50% { transform: translate(255.685px,166.687px) rotate(0deg) translate(-255.685px,-166.687px); animation-timing-function: cubic-bezier(0.42,0,0.58,1); } 60% { transform: translate(255.685px,166.687px) rotate(-30deg) translate(-255.685px,-166.687px); } 100% { transform: translate(255.685px,166.687px) rotate(-30deg) translate(-255.685px,-166.687px); } }
@keyframes roof-2_o { 0% { opacity: 1; } 50% { opacity: 1; animation-timing-function: cubic-bezier(0.42,0,0.58,1); } 52% { opacity: 0; } 100% { opacity: 0; } }
@keyframes a9_t { 0% { transform: translate(203.185px,316.299px) rotate(0deg) translate(-203.185px,-316.299px); } 50% { transform: translate(203.185px,316.299px) rotate(0deg) translate(-203.185px,-316.299px); animation-timing-function: cubic-bezier(0.42,0,0.58,1); } 60% { transform: translate(203.185px,316.299px) rotate(30deg) translate(-203.185px,-316.299px); } 100% { transform: translate(203.185px,316.299px) rotate(30deg) translate(-203.185px,-316.299px); } }
@keyframes a10_t { 0% { transform: translate(43.1609px,-298.367px); } 50% { transform: translate(43.1609px,-298.367px); animation-timing-function: cubic-bezier(0.42,0,0.58,1); } 60% { transform: translate(43.1609px,3.49917px); } 100% { transform: translate(43.1609px,3.49917px); } }
@keyframes tag-2_t { 0% { transform: rotate(0deg) translate(-380.276px,-118.371px); } 50% { transform: rotate(0deg) translate(-380.276px,-118.371px); animation-timing-function: cubic-bezier(0.42,0,0.58,1); } 60% { transform: rotate(15deg) translate(-380.276px,-118.371px); animation-timing-function: cubic-bezier(0.42,0,0.58,1); } 70% { transform: rotate(-10deg) translate(-380.276px,-118.371px); animation-timing-function: cubic-bezier(0.42,0,0.58,1); } 80% { transform: rotate(0deg) translate(-380.276px,-118.371px); } 100% { transform: rotate(0deg) translate(-380.276px,-118.371px); } }
@keyframes a11_t { 0% { transform: translate(88.82px,68.07px); animation-timing-function: cubic-bezier(0.42,0,0.58,1); } 50% { transform: translate(53.896px,68.07px); animation-timing-function: cubic-bezier(0.42,0,0.58,1); } 100% { transform: translate(88.82px,68.07px); } }
@keyframes a12_t { 0% { transform: translate(-117.64px,-162.2212px); } 65% { transform: translate(-117.64px,-162.2212px); animation-timing-function: cubic-bezier(0,0,0.58,1); } 70% { transform: translate(-117.64px,-107.57px); } 100% { transform: translate(-117.64px,-107.57px); } }
@keyframes a13_t { 0% { transform: translate(-117.64px,-148.4629px); } 70% { transform: translate(-117.64px,-148.4629px); animation-timing-function: cubic-bezier(0,0,0.58,1); } 75% { transform: translate(-117.64px,-107.57px); } 100% { transform: translate(-117.64px,-107.57px); } }
@keyframes a14_t { 0% { transform: translate(0px,0px); animation-timing-function: cubic-bezier(0.42,0,0.58,1); } 50% { transform: translate(22.01px,0px); animation-timing-function: cubic-bezier(0.42,0,0.58,1); } 100% { transform: translate(0px,0px); } }
@keyframes a15_t { 0% { transform: translate(0px,0px); animation-timing-function: cubic-bezier(0.42,0,0.58,1); } 50% { transform: translate(-28.141px,0px); animation-timing-function: cubic-bezier(0.42,0,0.58,1); } 100% { transform: translate(0px,0px); } }
@keyframes a16_o { 0% { opacity: 0; } 59% { opacity: 0; } 60% { opacity: 1; } 100% { opacity: 1; } }
    </style>
    <title>tiberiusf3</title>
    <g id="wind" style="animation: 10s linear infinite both a0_t;">
        <g transform="translate(552.076,335.835) translate(-552.076,-335.835)" style="animation: 10s linear infinite both wind_t;">
            <rect class="cls-1" width="143.34" height="29.64" rx="10.93" fill="url(#Gradient-0)" transform="translate(544.41,158.35) translate(-71.67,-14.82)" style="animation: 10s linear infinite both a1_t;"/>
            <rect class="cls-2" width="115.34" height="18.98" rx="7" fill="#e5e5e5" transform="translate(0,0) translate(485.51,173.03)"/>
            <rect class="cls-2" width="98.85" height="18.98" rx="7" fill="#e5e5e5" transform="translate(0,0) translate(500.26,210.6)"/>
            <rect class="cls-3" width="94.66" height="18.98" rx="7" fill="url(#Gradient-1)" transform="translate(543.13,201.33) translate(-47.33,-9.49)" style="animation: 10s linear infinite both a2_t;"/>
            <rect class="cls-4" width="79.58" height="18.98" rx="7" fill="url(#Gradient-2)" transform="translate(534.11,238.89) translate(-39.79,-9.49)" style="animation: 10s linear infinite both a3_t;"/>
            <rect class="cls-2" width="67.37" height="18.98" rx="7" fill="#e5e5e5" transform="translate(0,0) translate(499.14,248.2)"/>
            <rect class="cls-5" width="44.98" height="13.99" rx="7" fill="url(#Gradient-3)" transform="translate(536.04,274.065) translate(-22.49,-6.995)" style="animation: 10s linear infinite both a4_t;"/>
            <rect class="cls-2" width="31.66" height="13.99" rx="7" fill="#e5e5e5" transform="translate(0,0) translate(520.04,281.06)"/>
            <rect class="cls-6" width="24.49" height="13.99" rx="7" fill="url(#Gradient-4)" transform="translate(0,0) translate(527.21,295.04)"/>
            <rect class="cls-2" width="17.49" height="13.99" rx="7" fill="#e5e5e5" transform="translate(0,0) translate(536.04,309.12)"/>
            <rect class="cls-7" width="13.99" height="13.99" rx="7" fill="url(#Gradient-5)" transform="translate(0,0) translate(543.18,322.53)"/>
            <g>
                <path class="cls-8" d="M581.92,260.23L616.26,260.23C616.26,260.23,627.74,260.23,627.74,252.16" stroke-width="2px" stroke-linecap="round" stroke="#b3b3b3" stroke-miterlimit="10" fill="none" stroke-dasharray="10 5" stroke-dashoffset="100" style="animation: 10s linear infinite both a5_do;"/>
                <path class="cls-8" d="M582.37,265.46L603.55,265.46C606.74,265.46,616.33,264.66,616.33,272.2" stroke-width="2px" stroke-linecap="round" stroke="#b3b3b3" stroke-miterlimit="10" fill="none" stroke-dasharray="10 5" stroke-dashoffset="100" style="animation: 10s linear infinite both a6_do;"/>
                <path class="cls-8" d="M582.37,254.93L600.68,254.93" stroke-width="2px" stroke-linecap="round" stroke="#b3b3b3" stroke-miterlimit="10" fill="none"/>
                <path class="cls-8" d="M606.42,254.93L611.78,254.93" stroke-width="2px" stroke-linecap="round" stroke="#b3b3b3" stroke-miterlimit="10" fill="none"/>
            </g>
        </g>
    </g>
    <g>
        <rect class="cls-9" width="8.93" height="62.76" rx="3.89" fill="#99d7ad" transform="translate(0,0) translate(411.43,279.71)"/>
        <rect class="cls-9" width="8.93" height="62.76" rx="3.89" fill="#99d7ad" transform="translate(0,0) translate(424.74,279.71)"/>
        <rect id="fence" class="cls-9" width="8.93" height="62.76" rx="3.89" fill="#99d7ad" transform="translate(443.325,292.365) translate(-5.45472,-12.655)" style="animation: 10s linear infinite both fence_t;"/>
        <rect class="cls-9" width="8.93" height="62.76" rx="3.89" fill="#99d7ad" transform="translate(0,0) translate(451.18,279.71)"/>
        <rect class="cls-9" width="8.93" height="62.76" rx="3.89" fill="#99d7ad" transform="translate(0,0) translate(463.94,279.71)"/>
        <rect id="fence-2" class="cls-9" width="8.93" height="62.76" rx="3.89" fill="#99d7ad" transform="translate(481.725,330.583) translate(-4.465,-50.8727)" style="animation: 10s linear infinite both fence-2_t;"/>
        <rect class="cls-9" width="8.93" height="62.76" rx="3.89" fill="#99d7ad" transform="translate(0,0) translate(490.38,279.71)"/>
        <rect class="cls-9" width="8.93" height="62.76" rx="3.89" fill="#99d7ad" transform="translate(0,0) translate(503.7,279.71)"/>
        <rect class="cls-9" width="8.93" height="62.76" rx="3.89" fill="#99d7ad" transform="translate(0,0) translate(517.02,279.71)"/>
        <rect class="cls-9" width="147.82" height="3.65" rx="1.59" fill="#99d7ad" transform="translate(406.62,289.803) translate(1.1999,-1.13331)" style="animation: 10s linear infinite both a7_t;"/>
        <rect class="cls-9" width="147.82" height="3.65" rx="1.59" fill="#99d7ad" transform="translate(0,0) translate(407.82,327.81)"/>
    </g>
    <rect class="cls-10" width="63.98" height="117.15" fill="#b3e1c2" transform="translate(0,0) translate(116.13,221.47)"/>
    <rect class="cls-11" width="73.46" height="9.55" fill="#66c485" transform="translate(0,0) translate(106.61,222.18)"/>
    <path class="cls-12" d="M110.24,222.18L123.74,178.98L179.78,178.98L180.1,222.18L110.24,222.18" fill="url(#Gradient-6)"/>
    <rect class="cls-13" width="224.02" height="82.27" fill="#4dba71" transform="translate(0,0) translate(179.79,256.34)"/>
    <rect class="cls-9" width="224.02" height="67.52" fill="#99d7ad" transform="translate(0,0) translate(179.79,178.98)"/>
    <rect class="cls-17" width="236.99" height="9.84" fill="#009c33" transform="translate(0,0) translate(173.97,169.15)"/>
    <g id="roof">
        <path class="cls-15" d="M405.59,169.15L393.74,118.76L266.09,118.76L246.41,134.18L262.04,135.59L247.66,147.41L264.15,149.67L257.34,169.15L405.59,169.15Z" fill="url(#Gradient-7)"/>
        <path class="cls-49" d="M192.84,118.76L179.34,169.15L257.34,169.15L264.15,149.67L247.66,147.41L262.04,135.59L246.41,134.18L266.09,118.76L192.84,118.76Z" fill="url(#Gradient-8)" transform="translate(255.685,166.687) translate(-255.685,-166.687)" style="animation: 10s linear infinite both a8_t;"/>
        <path id="roof-2" class="cls-15" d="M405.59,169.15L393.74,118.76L192.852,118.76L179.39,169.15L405.59,169.15Z" fill="url(#Gradient-9)" opacity="1" style="animation: 10s linear infinite both roof-2_o;"/>
    </g>
    <g>
        <rect class="cls-9" width="33.54" height="62.15" fill="#99d7ad" transform="translate(0,0) translate(275.03,276.46)"/>
        <rect class="cls-13" width="2.12" height="8.8" fill="#4dba71" transform="translate(0,0) translate(302.61,305.73)"/>
    </g>
    <rect class="cls-16" width="455.59" height="11.67" fill="#80ce99" transform="translate(0,0) translate(100.06,338.47)"/>
    <rect class="cls-17" width="236.99" height="9.84" fill="#009c33" transform="translate(0,0) translate(173.97,246.5)"/>
    <g transform="translate(203.185,316.299) translate(-203.185,-316.299)" style="animation: 10s linear infinite both a9_t;">
        <path class="cls-9" d="M247.63,323.55L196.36,323.55L196.36,299C196.36,299,194.76,265.86,221.99,265.86C249.65,265.86,247.63,298.42,247.63,298.42Z" fill="#99d7ad"/>
        <path class="cls-11" d="M244.34,319.78L199.67,319.78L199.67,297.48C199.67,297.48,198.33,268.85,222.01,268.85C246.34,268.85,244.34,297.85,244.34,297.85Z" fill="#66c485"/>
        <path class="cls-18" d="M241.38,316.41L202.63,316.41L202.63,297.85C202.63,297.85,200.47,272.23,222.01,272.23C243.55,272.23,241.38,298.39,241.38,298.39Z" fill="#fff"/>
        <rect class="cls-11" width="2.43" height="49.47" fill="#66c485" transform="translate(0,0) translate(220.62,269.58)"/>
        <rect class="cls-11" width="2.43" height="41.6" fill="#66c485" transform="translate(516.32,72.32) rotate(90) translate(220.79,273.52)"/>
    </g>
    <path class="cls-9" d="M387.6,323.55L336.33,323.55L336.33,299C336.33,299,334.73,265.86,361.96,265.86C389.62,265.86,387.6,298.42,387.6,298.42Z" fill="#99d7ad"/>
    <path class="cls-11" d="M384.31,319.78L339.64,319.78L339.64,297.48C339.64,297.48,338.3,268.85,362,268.85C386.33,268.85,384.34,297.85,384.34,297.85Z" fill="#66c485"/>
    <path class="cls-18" d="M381.35,316.41L342.6,316.41L342.6,297.85C342.6,297.85,340.43,272.23,361.97,272.23C383.51,272.23,381.35,298.39,381.35,298.39Z" fill="#fff"/>
    <rect class="cls-11" width="2.43" height="49.47" fill="#66c485" transform="translate(0,0) translate(360.59,269.58)"/>
    <rect class="cls-11" width="2.43" height="41.6" fill="#66c485" transform="translate(656.29,-67.65) rotate(90) translate(360.75,273.52)"/>
    <path class="cls-11" d="M385.37,235.11L346.42,235.11L346.42,215.66C346.42,215.66,345.25,190.66,365.89,190.66C387.11,190.66,385.37,215.97,385.37,215.97Z" fill="#66c485"/>
    <path class="cls-18" d="M382.79,232.17L349,232.17L349,216C349,216,347.11,193.65,365.89,193.65C384.67,193.65,382.79,216.46,382.79,216.46Z" fill="#fff"/>
    <rect class="cls-11" width="2.12" height="43.14" fill="#66c485" transform="translate(0,0) translate(364.68,191.33)"/>
    <rect class="cls-11" width="2.12" height="36.28" fill="#66c485" transform="translate(580.06,-151.71) rotate(90) translate(364.83,196.04)"/>
    <path class="cls-11" d="M311.26,235.11L272.31,235.11L272.31,215.66C272.31,215.66,271.14,190.66,291.78,190.66C313,190.7,311.26,216,311.26,216Z" fill="#66c485"/>
    <path class="cls-18" d="M308.68,232.17L274.89,232.17L274.89,216C274.89,216,273,193.65,291.78,193.65C310.56,193.65,308.68,216.46,308.68,216.46Z" fill="#fff"/>
    <rect class="cls-11" width="2.12" height="43.14" fill="#66c485" transform="translate(0,0) translate(290.57,191.33)"/>
    <rect class="cls-11" width="2.12" height="36.28" fill="#66c485" transform="translate(505.95,-77.6) rotate(90) translate(290.72,196.04)"/>
    <path class="cls-11" d="M235.3,235.11L196.3,235.11L196.3,215.66C196.3,215.66,195.13,190.66,215.78,190.66C237,190.66,235.25,215.97,235.25,215.97Z" fill="#66c485"/>
    <path class="cls-18" d="M232.73,232.17L198.93,232.17L198.93,216C198.93,216,197.04,193.65,215.83,193.65C234.62,193.65,232.73,216.46,232.73,216.46Z" fill="#fff"/>
    <rect class="cls-11" width="2.12" height="43.14" fill="#66c485" transform="translate(0,0) translate(214.62,191.33)"/>
    <rect class="cls-11" width="2.12" height="36.28" fill="#66c485" transform="translate(430,-1.65) rotate(90) translate(214.76,196.04)"/>
    <g mask="url(#Mask-3)" transform="translate(389.791,-97.2638) translate(-46.775,-93.4135)">
        <g id="tag" mask="url(#Mask-1)" transform="translate(56.2448,399.363) translate(-57.0811,-93.8629)">
            <g id="tag-2" style="animation: 10s linear infinite both a10_t;">
                <g transform="translate(43.1609,-298.367) translate(-380.276,-118.371)" style="animation: 10s linear infinite both tag-2_t;">
                    <g>
                        <path class="cls-19" d="M404.7,172.53L351.46,182.23L342.18,198.88L360.91,301.65L435.73,288L417.1,185.82ZM381.7,200.17C379.373,200.849,376.866,200.061,375.346,198.173C373.825,196.286,373.59,193.668,374.75,191.54C375.91,189.411,378.237,188.189,380.647,188.443C383.058,188.697,385.079,190.377,385.77,192.7C385.996,193.457,386.069,194.251,385.987,195.037C385.905,195.822,385.669,196.584,385.291,197.278C384.914,197.972,384.404,198.585,383.789,199.081C383.174,199.577,382.468,199.947,381.71,200.17Z" fill="url(#Gradient-10)"/>
                        <path fill="#ffffff" stroke="none" d="M-13.7907,0L-10.9042,0C-10.3982,0,-9.84619,-0.138,-9.42069,-0.3795C-8.76519,-0.7475,-8.42019,-1.3915,-8.42019,-2.2425C-8.42019,-3.3235,-8.91469,-3.91,-10.0302,-4.163L-10.0302,-4.186C-9.15619,-4.347,-8.58119,-5.083,-8.58119,-6.0145C-8.58119,-7.2335,-9.45519,-8.027,-10.8007,-8.027L-13.7907,-8.027ZM-11.9737,-6.716L-11.4792,-6.716C-10.8352,-6.716,-10.3982,-6.325,-10.3982,-5.75C-10.3982,-5.1405,-10.8352,-4.761,-11.5137,-4.761L-11.9737,-4.761ZM-11.9737,-3.45L-11.2492,-3.45C-10.6052,-3.45,-10.2372,-3.0705,-10.2372,-2.4035C-10.2372,-1.702,-10.6397,-1.357,-11.4447,-1.357L-11.9737,-1.357ZM-7.26594,0L-5.44894,0L-5.44894,-5.9915L-7.26594,-5.9915ZM-7.26594,-7.015L-5.44894,-7.015L-5.44894,-8.625L-7.26594,-8.625ZM-0.509313,-5.842C-0.992312,-6.003,-1.57881,-6.0835,-2.16531,-6.0835C-3.53381,-6.0835,-4.41931,-5.359,-4.41931,-4.232C-4.41931,-3.5995,-4.14331,-3.0705,-3.64881,-2.714C-3.45331,-2.576,-3.18881,-2.4495,-2.72881,-2.277C-2.06181,-2.024,-1.91231,-1.9205,-1.91231,-1.702C-1.91231,-1.3455,-2.18831,-1.1845,-2.79781,-1.1845C-3.34981,-1.1845,-3.83281,-1.311,-4.31581,-1.5985L-4.36181,-0.1955C-3.79831,0,-3.15431,0.092,-2.41831,0.092C-0.980812,0.092,-0.187312,-0.575,-0.187312,-1.794C-0.187312,-2.6565,-0.566813,-3.174,-1.44081,-3.5075C-2.53331,-3.9215,-2.69431,-4.025,-2.69431,-4.347C-2.69431,-4.6345,-2.42981,-4.807,-1.98131,-4.807C-1.53281,-4.807,-1.18781,-4.7265,-0.555312,-4.485ZM3.63231,-4.6345L5.85181,-4.6345L3.56331,-1.495L3.56331,0L7.84131,0L7.84131,-1.357L5.54131,-1.357L7.78381,-4.508L7.78381,-5.9915L3.63231,-5.9915ZM13.9206,-5.9915L12.1036,-5.9915L12.1036,-2.6335C12.1036,-1.771,11.8391,-1.357,11.2986,-1.357C10.8386,-1.357,10.6086,-1.679,10.6086,-2.3L10.6086,-5.9915L8.79156,-5.9915L8.79156,-2.07C8.79156,-0.644,9.40106,0.092,10.5741,0.092C11.4136,0.092,11.8851,-0.2185,12.2416,-1.0005L12.2646,-1.0005C12.2646,-0.6555,12.2761,-0.3565,12.3106,0L13.9666,0C13.9321,-0.322,13.9206,-0.644,13.9206,-1.2535ZM-24.2386,40.111L-24.3651,40.088C-25.2851,39.881,-25.5956,39.835,-26.1016,39.835C-27.3666,39.835,-28.2521,40.2835,-28.6776,41.146C-28.8271,41.4795,-28.9076,41.813,-28.9076,42.1695C-28.9076,43.354,-28.3556,44.044,-26.9641,44.596C-26.0671,44.964,-25.7451,45.286,-25.7451,45.8035C-25.7451,46.3555,-26.2166,46.735,-26.9296,46.735C-27.3666,46.735,-27.6771,46.6545,-28.3556,46.367C-28.5396,46.298,-28.5511,46.2865,-28.6776,46.2405L-28.7811,47.8045C-28.0336,48.023,-27.3206,48.138,-26.6651,48.138C-24.9401,48.138,-23.8131,47.172,-23.8131,45.6885C-23.8131,45.217,-23.9166,44.7915,-24.1236,44.412C-24.3996,43.9175,-24.9056,43.538,-25.7796,43.193C-26.6536,42.8365,-26.9756,42.5375,-26.9756,42.0315C-26.9756,41.5255,-26.5616,41.192,-25.9176,41.192C-25.4346,41.192,-24.8711,41.3415,-24.3191,41.606ZM-18.4692,46.4705C-19.0443,46.689,-19.2283,46.735,-19.5273,46.735C-20.4473,46.735,-20.9993,46.1025,-20.9993,45.056C-20.9993,43.9635,-20.4933,43.3195,-19.6193,43.3195C-19.3203,43.3195,-19.0903,43.377,-18.5613,43.5725L-18.4692,42.204C-18.6303,42.158,-18.6533,42.158,-18.8143,42.1005C-19.3318,41.951,-19.5503,41.9165,-19.9413,41.9165C-21.7238,41.9165,-22.8853,43.1355,-22.8853,45.033C-22.8853,46.896,-21.7812,48.092,-20.0678,48.092C-19.5732,48.092,-19.1018,48.023,-18.4118,47.839ZM-17.5344,48L-15.7174,48L-15.7174,44.642C-15.7174,43.7795,-15.4529,43.3655,-14.9124,43.3655C-14.4639,43.3655,-14.2224,43.6875,-14.2224,44.3085L-14.2224,48L-12.4054,48L-12.4054,44.0785C-12.4054,42.664,-13.0149,41.9165,-14.1534,41.9165C-14.9239,41.9165,-15.4529,42.25,-15.6944,42.894L-15.7174,42.894L-15.7174,39.375L-17.5344,39.375ZM-10.6493,43.6415C-9.98225,43.2505,-9.53375,43.1125,-8.98175,43.1125C-8.22275,43.1125,-7.90075,43.446,-7.86625,44.2625L-8.41825,44.2625C-10.3848,44.2625,-11.3853,44.9525,-11.3853,46.298C-11.3853,47.356,-10.6377,48.092,-9.55675,48.092C-8.79775,48.092,-8.05025,47.678,-7.88925,47.172L-7.86625,47.172L-7.82025,48L-6.16425,48C-6.19875,47.5515,-6.21025,47.2065,-6.21025,46.3095L-6.21025,44.1245C-6.21025,42.5835,-6.95775,41.9165,-8.70575,41.9165C-9.29225,41.9165,-9.85575,42.02,-10.7297,42.296ZM-7.86625,45.4585C-7.86625,46.4015,-8.26875,46.942,-8.95875,46.942C-9.46475,46.942,-9.72925,46.666,-9.72925,46.16C-9.72925,45.4125,-9.20025,45.125,-7.86625,45.1135ZM0.364125,39.375L-1.45287,39.375L-1.45287,42.894L-1.47587,42.894C-1.77487,42.227,-2.26938,41.9165,-3.01688,41.9165C-4.35087,41.9165,-5.12138,42.9975,-5.12138,44.872C-5.12138,46.8615,-4.30487,48.092,-2.99388,48.092C-2.25787,48.092,-1.75187,47.77,-1.38387,47.0455L-1.36088,47.0455C-1.36088,47.402,-1.34937,47.7125,-1.31488,48L0.410125,48C0.375625,47.563,0.364125,47.287,0.364125,46.6545ZM-2.37287,43.1585C-1.76338,43.1585,-1.45287,43.768,-1.45287,44.964C-1.45287,46.1255,-1.78638,46.781,-2.37287,46.781C-2.97087,46.781,-3.23537,46.2175,-3.23537,44.987C-3.23537,43.6645,-2.99388,43.1585,-2.37287,43.1585ZM3.19737,44.4925C3.19737,43.5035,3.50787,43.0205,4.12888,43.0205C4.76137,43.0205,5.04887,43.4805,5.07188,44.4925ZM6.37138,46.3785C5.77338,46.689,5.20988,46.85,4.68088,46.85C3.77238,46.85,3.23187,46.3555,3.19737,45.4815L6.72788,45.4815L6.72788,45.0445C6.72788,43.009,5.84237,41.9165,4.19788,41.9165C2.55338,41.9165,1.47237,43.1585,1.47237,45.0215C1.47237,46.9765,2.57638,48.092,4.49688,48.092C5.12938,48.092,5.76188,47.977,6.40587,47.747ZM11.1058,48L12.9228,48L12.9228,44.0785C12.9228,42.6525,12.3132,41.9165,11.1403,41.9165C10.3008,41.9165,9.81775,42.2385,9.47275,43.009L9.44975,43.009C9.44975,42.6065,9.43825,42.4455,9.40375,42.0085L7.74775,42.0085C7.78225,42.388,7.79375,42.6755,7.79375,43.262L7.79375,48L9.61075,48L9.61075,44.642C9.61075,43.7795,9.87525,43.3655,10.4158,43.3655C10.8643,43.3655,11.1058,43.6875,11.1058,44.3085ZM17.3413,48L19.1583,48L19.1583,42.0085L17.3413,42.0085ZM17.3413,40.985L19.1583,40.985L19.1583,39.375L17.3413,39.375ZM26.9959,48L28.8129,48L28.8129,44.0785C28.8129,42.6525,28.2034,41.9165,27.0304,41.9165C26.2254,41.9165,25.7654,42.204,25.4089,42.917C25.0869,42.204,24.6384,41.9165,23.8449,41.9165C22.9939,41.9165,22.5224,42.227,22.1659,43.009L22.1429,43.009C22.1429,42.6065,22.1314,42.4455,22.0969,42.0085L20.4409,42.0085C20.4754,42.388,20.4869,42.6755,20.4869,43.262L20.4869,48L22.3039,48L22.3039,44.642C22.3039,43.791,22.5684,43.3655,23.0974,43.3655C23.5229,43.3655,23.7414,43.6875,23.7414,44.3085L23.7414,48L25.5584,48L25.5584,44.205C25.5584,43.676,25.8344,43.3655,26.3059,43.3655C26.7544,43.3655,26.9959,43.6875,26.9959,44.3085ZM-31.6238,60L-29.0133,60C-26.6328,60,-25.1838,58.4935,-25.1838,56.021C-25.1838,53.5025,-26.5408,51.973,-28.7718,51.973L-31.6238,51.973ZM-29.7378,53.376L-29.2548,53.376C-27.8863,53.376,-27.1618,54.296,-27.1618,56.021C-27.1618,57.6655,-27.8748,58.597,-29.1398,58.597L-29.7378,58.597ZM-18.9494,54.0085L-20.7664,54.0085L-20.7664,57.3665C-20.7664,58.229,-21.0309,58.643,-21.5714,58.643C-22.0314,58.643,-22.2614,58.321,-22.2614,57.7L-22.2614,54.0085L-24.0784,54.0085L-24.0784,57.93C-24.0784,59.356,-23.4689,60.092,-22.2959,60.092C-21.4564,60.092,-20.9849,59.7815,-20.6284,58.9995L-20.6054,58.9995C-20.6054,59.3445,-20.5939,59.6435,-20.5594,60L-18.9034,60C-18.9379,59.678,-18.9494,59.356,-18.9494,58.7465ZM-17.6878,60L-15.8708,60L-15.8708,57.3205C-15.8708,56.044,-15.5258,55.5265,-14.6748,55.5265C-14.4563,55.5265,-14.3068,55.538,-14.0768,55.5955L-14.0768,53.9165L-14.3413,53.9165C-14.8588,53.9165,-15.2153,54.043,-15.4913,54.319C-15.6408,54.4685,-15.7443,54.6295,-16.0088,55.0895L-16.0318,55.0895L-16.0318,54.963C-16.0433,54.687,-16.0548,54.457,-16.0663,54.273C-16.0778,54.1465,-16.0778,54.135,-16.0778,54.0085L-17.7338,54.0085C-17.6993,54.388,-17.6878,54.6755,-17.6878,55.262ZM-9.24769,58.4705C-9.82269,58.689,-10.0067,58.735,-10.3057,58.735C-11.2257,58.735,-11.7777,58.1025,-11.7777,57.056C-11.7777,55.9635,-11.2717,55.3195,-10.3977,55.3195C-10.0987,55.3195,-9.86869,55.377,-9.33969,55.5725L-9.24769,54.204C-9.40869,54.158,-9.43169,54.158,-9.59269,54.1005C-10.1102,53.951,-10.3287,53.9165,-10.7197,53.9165C-12.5022,53.9165,-13.6637,55.1355,-13.6637,57.033C-13.6637,58.896,-12.5597,60.092,-10.8462,60.092C-10.3517,60.092,-9.88019,60.023,-9.19019,59.839ZM-8.31281,60L-6.49581,60L-6.49581,56.642C-6.49581,55.7795,-6.23131,55.3655,-5.69081,55.3655C-5.24231,55.3655,-5.00081,55.6875,-5.00081,56.3085L-5.00081,60L-3.18381,60L-3.18381,56.0785C-3.18381,54.664,-3.79331,53.9165,-4.93181,53.9165C-5.70231,53.9165,-6.23131,54.25,-6.47281,54.894L-6.49581,54.894L-6.49581,51.375L-8.31281,51.375ZM1.68881,54.158C1.20581,53.997,0.619313,53.9165,0.0328124,53.9165C-1.33569,53.9165,-2.22119,54.641,-2.22119,55.768C-2.22119,56.4005,-1.94519,56.9295,-1.45069,57.286C-1.25519,57.424,-0.990687,57.5505,-0.530688,57.723C0.136312,57.976,0.285812,58.0795,0.285812,58.298C0.285812,58.6545,0.00981259,58.8155,-0.599687,58.8155C-1.15169,58.8155,-1.63469,58.689,-2.11769,58.4015L-2.16369,59.8045C-1.60019,60,-0.956187,60.092,-0.220188,60.092C1.21731,60.092,2.01081,59.425,2.01081,58.206C2.01081,57.3435,1.63131,56.826,0.757312,56.4925C-0.335187,56.0785,-0.496187,55.975,-0.496187,55.653C-0.496187,55.3655,-0.231687,55.193,0.216812,55.193C0.665313,55.193,1.01031,55.2735,1.64281,55.515ZM7.15856,58.4705C6.58356,58.689,6.39956,58.735,6.10056,58.735C5.18056,58.735,4.62856,58.1025,4.62856,57.056C4.62856,55.9635,5.13456,55.3195,6.00856,55.3195C6.30756,55.3195,6.53756,55.377,7.06656,55.5725L7.15856,54.204C6.99756,54.158,6.97456,54.158,6.81356,54.1005C6.29606,53.951,6.07756,53.9165,5.68656,53.9165C3.90406,53.9165,2.74256,55.1355,2.74256,57.033C2.74256,58.896,3.84656,60.092,5.56006,60.092C6.05456,60.092,6.52606,60.023,7.21606,59.839ZM8.09344,60L9.91044,60L9.91044,56.642C9.91044,55.7795,10.1749,55.3655,10.7154,55.3655C11.1639,55.3655,11.4054,55.6875,11.4054,56.3085L11.4054,60L13.2224,60L13.2224,56.0785C13.2224,54.664,12.6129,53.9165,11.4744,53.9165C10.7039,53.9165,10.1749,54.25,9.93344,54.894L9.91044,54.894L9.91044,51.375L8.09344,51.375ZM17.7961,60L19.6131,60L19.6131,56.0785C19.6131,54.6525,19.0036,53.9165,17.8306,53.9165C16.9911,53.9165,16.5081,54.2385,16.1631,55.009L16.1401,55.009C16.1401,54.6065,16.1286,54.4455,16.0941,54.0085L14.4381,54.0085C14.4726,54.388,14.4841,54.6755,14.4841,55.262L14.4841,60L16.3011,60L16.3011,56.642C16.3011,55.7795,16.5656,55.3655,17.1061,55.3655C17.5546,55.3655,17.7961,55.6875,17.7961,56.3085ZM20.9322,60L22.7492,60L22.7492,54.0085L20.9322,54.0085ZM20.9322,52.985L22.7492,52.985L22.7492,51.375L20.9322,51.375ZM23.6063,55.285L24.5953,55.285L24.5953,58.321C24.5953,59.471,25.2278,60.092,26.3893,60.092C26.8378,60.092,27.3553,60.023,27.6198,59.931L27.6198,58.6545C27.4013,58.7465,27.2518,58.781,27.0448,58.781C26.6078,58.781,26.4123,58.551,26.4123,58.0335L26.4123,55.285L27.5853,55.285L27.5853,54.0085L26.4123,54.0085L26.4123,52.2145L24.6413,52.778L24.6413,54.0085L23.6063,54.0085ZM28.0751,55.285L29.0641,55.285L29.0641,58.321C29.0641,59.471,29.6966,60.092,30.8581,60.092C31.3066,60.092,31.8241,60.023,32.0886,59.931L32.0886,58.6545C31.8701,58.7465,31.7206,58.781,31.5136,58.781C31.0766,58.781,30.8811,58.551,30.8811,58.0335L30.8811,55.285L32.0541,55.285L32.0541,54.0085L30.8811,54.0085L30.8811,52.2145L29.1101,52.778L29.1101,54.0085L28.0751,54.0085Z" transform="translate(384.732,219.003) rotate(-10)"/>
                        <path fill="#ffffff" stroke="none" d="M-32.5702,0L-25.7542,0L-25.7542,-1.952L-29.7542,-1.952L-29.3542,-2.336C-27.1142,-4.48,-25.8662,-6.576,-25.8662,-8.224C-25.8662,-10.048,-27.2422,-11.36,-29.1622,-11.36C-30.0102,-11.36,-30.6502,-11.232,-32.3782,-10.72L-32.2022,-8.4C-31.4342,-8.944,-30.6022,-9.28,-29.9782,-9.28C-29.0982,-9.28,-28.4902,-8.672,-28.4902,-7.808C-28.4902,-6.752,-29.1782,-5.632,-31.1782,-3.488C-31.5142,-3.12,-31.5462,-3.104,-31.7542,-2.864L-32.5702,-1.952ZM-24.0337,-5.232C-23.0577,-5.472,-22.7057,-5.536,-22.2737,-5.536C-20.9617,-5.536,-20.0497,-4.768,-20.0497,-3.648C-20.0497,-2.544,-20.8817,-1.76,-22.0817,-1.76C-22.6417,-1.76,-23.0577,-1.872,-24.1457,-2.304L-24.2737,-0.32C-23.2337,0.08,-22.7057,0.192,-21.6817,0.192C-19.0897,0.192,-17.4257,-1.312,-17.4257,-3.648C-17.4257,-5.92,-18.7057,-7.264,-20.8657,-7.264C-21.0417,-7.264,-21.3297,-7.248,-21.5217,-7.232L-21.7137,-7.216L-21.8257,-7.2L-21.8257,-9.28L-17.9217,-9.28L-17.9217,-11.168L-24.0337,-11.168ZM-15.7692,0L-13.4652,0L-13.4652,-2.4L-15.7692,-2.4ZM-8.38094,-11.36C-10.8929,-11.36,-12.0609,-9.52,-12.0609,-5.568C-12.0609,-1.648,-10.8769,0.192,-8.38094,0.192C-5.86894,0.192,-4.70094,-1.648,-4.70094,-5.6C-4.70094,-9.52,-5.88494,-11.36,-8.38094,-11.36ZM-8.38094,-9.536C-7.53294,-9.536,-7.16494,-8.32,-7.16494,-5.552C-7.16494,-2.864,-7.54894,-1.632,-8.38094,-1.632C-9.22894,-1.632,-9.59694,-2.848,-9.59694,-5.568C-9.59694,-8.32,-9.22894,-9.536,-8.38094,-9.536ZM-0.0684376,-11.36C-2.58044,-11.36,-3.74844,-9.52,-3.74844,-5.568C-3.74844,-1.648,-2.56444,0.192,-0.0684376,0.192C2.44356,0.192,3.61156,-1.648,3.61156,-5.6C3.61156,-9.52,2.42756,-11.36,-0.0684376,-11.36ZM-0.0684376,-9.536C0.779562,-9.536,1.14756,-8.32,1.14756,-5.552C1.14756,-2.864,0.763563,-1.632,-0.0684376,-1.632C-0.916437,-1.632,-1.28444,-2.848,-1.28444,-5.568C-1.28444,-8.32,-0.916437,-9.536,-0.0684376,-9.536ZM8.24406,-11.36C5.73206,-11.36,4.56406,-9.52,4.56406,-5.568C4.56406,-1.648,5.74806,0.192,8.24406,0.192C10.7561,0.192,11.9241,-1.648,11.9241,-5.6C11.9241,-9.52,10.7401,-11.36,8.24406,-11.36ZM8.24406,-9.536C9.09206,-9.536,9.46006,-8.32,9.46006,-5.552C9.46006,-2.864,9.07606,-1.632,8.24406,-1.632C7.39606,-1.632,7.02806,-2.848,7.02806,-5.568C7.02806,-8.32,7.39606,-9.536,8.24406,-9.536ZM22.7928,-3.616L23.3688,-5.136L20.6488,-5.136C20.6328,-5.328,20.6328,-5.472,20.6328,-5.648C20.6328,-5.856,20.6328,-6.016,20.6648,-6.208L23.7688,-6.208L24.3448,-7.728L21.0648,-7.728C21.5608,-8.752,22.4248,-9.28,23.5768,-9.28C24.0248,-9.28,24.2808,-9.232,24.8568,-9.072L25.5608,-10.944C24.7768,-11.232,23.9928,-11.36,23.0968,-11.36C20.7448,-11.36,18.8408,-9.952,18.2328,-7.728L17.6408,-7.728L17.0648,-6.208L17.9608,-6.208C17.9448,-5.984,17.9448,-5.808,17.9448,-5.584C17.9448,-5.392,17.9448,-5.28,17.9608,-5.136L17.6408,-5.136L17.0648,-3.616L18.2008,-3.616C18.9528,-1.136,20.7128,0.192,23.2728,0.192C23.7528,0.192,24.1048,0.16,24.8568,0.048L24.8568,-2.128C24.4088,-2,24.0408,-1.952,23.6088,-1.952C22.4888,-1.952,21.5768,-2.544,21.0488,-3.616ZM26.1613,-9.136L28.2253,-8.768L26.7373,-7.232L28.2253,-6.176L29.2013,-8.096L30.1133,-6.176L31.6493,-7.232L30.1133,-8.768L32.1933,-9.136L31.6493,-10.88L29.7933,-9.856L30.1293,-12L28.3053,-12L28.6573,-9.856L26.7373,-10.88Z" transform="translate(389.246,245.403) rotate(-10)"/>
                    </g>
                    <path class="cls-45" d="M401.09,132C400.44,127.92,398.16,124.33,394.32,121.26L390.69,118.78C389.69,118.22,388.69,117.67,387.61,117.15C382.17,114.56,378.22,114.15,375.2,115.83C370.4,118.53,369.66,125.57,368.73,134.47C368.622,135.823,368.487,137.173,368.325,138.521C368.163,139.868,367.973,141.212,367.757,142.552C367.541,143.892,367.298,145.227,367.029,146.557C366.759,147.887,366.463,149.212,366.14,150.53C362.44,163.98,372.19,183.86,375.65,190.3C375.93,190.003,376.239,189.734,376.573,189.5C376.907,189.265,377.265,189.065,377.64,188.903C378.014,188.741,378.405,188.617,378.805,188.535C379.204,188.452,379.612,188.41,380.02,188.41C380.157,188.411,380.293,188.417,380.43,188.427C380.566,188.437,380.702,188.452,380.838,188.471C380.973,188.491,381.108,188.514,381.242,188.542C381.375,188.571,381.508,188.603,381.64,188.64L381.64,167.28C381.64,155.69,383.76,154.95,387.26,153.74C387.857,153.566,388.443,153.357,389.017,153.116C389.59,152.876,390.149,152.602,390.691,152.298C391.234,151.994,391.758,151.659,392.263,151.295C392.767,150.931,393.25,150.539,393.71,150.12C398,146,402.22,139.09,401.09,132ZM391,147.22C390.644,147.541,390.27,147.842,389.879,148.12C389.488,148.398,389.081,148.652,388.661,148.883C388.24,149.113,387.806,149.319,387.362,149.499C386.917,149.679,386.462,149.833,386,149.96C380.83,151.75,377.69,153.82,377.69,167.28L377.69,185.37C373.79,177.49,367.2,161.92,370.04,151.57C370.38,150.2,370.692,148.823,370.976,147.44C371.259,146.057,371.515,144.669,371.742,143.276C371.969,141.882,372.167,140.485,372.337,139.083C372.507,137.682,372.648,136.277,372.76,134.87C373.54,127.42,374.76,121.75,377.21,119.3C377.396,119.144,377.596,119.004,377.806,118.882C378.016,118.759,378.236,118.655,378.464,118.57C378.692,118.485,378.927,118.42,379.166,118.374C379.405,118.329,379.647,118.304,379.89,118.3C391.28,118.02,396.44,130,396.44,130C396.529,130.205,396.612,130.413,396.688,130.623C396.764,130.834,396.833,131.047,396.896,131.261C396.959,131.476,397.015,131.693,397.064,131.911C397.113,132.129,397.155,132.349,397.19,132.57C398,138.2,394.36,144,391,147.22Z" fill="#ff7200"/>
                </g>
            </g>
        </g>
    </g>
    <g transform="translate(140.82,79.5794) translate(-52,-11.5094)" style="animation: 10s linear infinite both a11_t;">
        <path class="cls-46" d="M88.82,100.08C88.82,100.08,90.18,92.08,104.45,92.08C104.45,92.08,103.09,78.47,123.45,78.47C123.45,78.47,125.45,68.07,138.45,68.07C149.32,68.07,151.36,76.87,151.36,76.87C151.36,76.87,161.56,72.87,169.71,76.87C177.86,80.87,177.19,89.68,177.19,89.68C177.19,89.68,192.82,88.08,192.82,100.08Z" fill="#33b05c" transform="translate(52,16.005) translate(-140.82,-84.075)"/>
        <g mask="url(#Mask-2)" transform="translate(46.59,61.61) translate(-17.77,-22.11)">
            <path class="cls-47" d="M133.5,113.73L122.72,113.73L117.64,137.84L123.99,136.25L117.96,151.79L132.24,130.54L125.26,130.54L133.5,113.73Z" fill="#ffe75a" transform="translate(7.93,-29.4612) translate(-125.57,-132.76)" style="animation: 10s linear infinite both a12_t;"/>
            <path class="cls-48" d="M153.18,107.57L144.77,107.57L140.81,126.37L145.76,125.14L141.06,137.26L152.19,120.68L146.75,120.68L153.18,107.57Z" fill="#ff9632" transform="translate(29.355,-26.0479) translate(-146.995,-122.415)" style="animation: 10s linear infinite both a13_t;"/>
        </g>
    </g>
    <path class="cls-16" d="M273.79,79.27C273.79,79.27,271.79,69.1,282.61,65.71C293.43,62.32,294.82,68.42,294.82,68.42C294.82,68.42,292.69,57.69,303.64,56.21C313.05,54.93,314.49,60.96,314.49,60.96C314.49,60.96,317.21,43.51,339.59,43.51C361.97,43.51,366.05,61,366.05,61C366.05,61,376.23,55.57,383.69,59.64C391.15,63.71,389.8,69.14,389.8,69.14C389.8,69.14,404.72,65.75,411.5,72.53C417.36,78.39,416.25,79.31,416.25,79.31Z" fill="#80ce99" transform="translate(344.989,61.41) translate(-344.989,-61.41)" style="animation: 10s linear infinite both a14_t;"/>
    <path class="cls-10" d="M422.44,117.55C422.44,117.55,423.61,111.71,435.88,111.71C435.88,111.71,434.71,101.77,452.25,101.77C452.25,101.77,454.01,94.17,465.12,94.17C474.47,94.17,476.23,100.6,476.23,100.6C476.23,100.6,485,97.67,492.01,100.6C499.02,103.53,498.44,109.95,498.44,109.95C498.44,109.95,511.89,108.78,511.89,117.55Z" fill="#b3e1c2" transform="translate(467.165,105.86) translate(-467.165,-105.86)" style="animation: 10s linear infinite both a15_t;"/>
    <path class="cls-50" d="M386.207,118.72L393.74,118.76L395.996,128.406L386.184,128.331Z" fill="url(#Gradient-14)" opacity="0" transform="translate(0,0.035)" style="animation: 10s linear infinite both a16_o;"/>
</svg>
