<?xml version="1.0" encoding="UTF-8" standalone="no"?>
<!-- Created with Keyshape -->
<svg xmlns="http://www.w3.org/2000/svg" viewBox="0 0 670 400">
    <defs>
        <linearGradient id="Gradient-0" x1="0" y1="14.82" x2="143.34" y2="14.82" gradientUnits="userSpaceOnUse">
            <stop offset="0" stop-color="#e6e6e6"/>
            <stop offset="1" stop-color="#b3b3b3"/>
        </linearGradient>
        <linearGradient id="Gradient-1" x1="0" y1="9.49" x2="94.65" y2="9.49" gradientUnits="userSpaceOnUse">
            <stop offset="0" stop-color="#e6e6e6"/>
            <stop offset="1" stop-color="#b3b3b3"/>
        </linearGradient>
        <linearGradient id="Gradient-2" x1="0" y1="9.49" x2="79.58" y2="9.49" gradientUnits="userSpaceOnUse">
            <stop offset="0" stop-color="#e6e6e6"/>
            <stop offset="1" stop-color="#b3b3b3"/>
        </linearGradient>
        <linearGradient id="Gradient-3" x1="0" y1="6.99" x2="44.98" y2="6.99" gradientUnits="userSpaceOnUse">
            <stop offset="0" stop-color="#e6e6e6"/>
            <stop offset="1" stop-color="#b3b3b3"/>
        </linearGradient>
        <linearGradient id="Gradient-4" x1="0" y1="6.99" x2="24.49" y2="6.99" gradientUnits="userSpaceOnUse">
            <stop offset="0" stop-color="#e6e6e6"/>
            <stop offset="1" stop-color="#b3b3b3"/>
        </linearGradient>
        <linearGradient id="Gradient-5" x1="0" y1="6.99" x2="13.99" y2="6.99" gradientUnits="userSpaceOnUse">
            <stop offset="0" stop-color="#e6e6e6"/>
            <stop offset="1" stop-color="#b3b3b3"/>
        </linearGradient>
        <linearGradient id="Gradient-6" x1="110.24" y1="200.58" x2="180.1" y2="200.58" gradientUnits="userSpaceOnUse">
            <stop offset="0" stop-color="#b3e1c2"/>
            <stop offset="1" stop-color="#4dba71"/>
        </linearGradient>
        <linearGradient id="Gradient-7" x1="246.41" y1="143.95" x2="405.59" y2="143.95" gradientUnits="userSpaceOnUse">
            <stop offset="0" stop-color="#4dba71"/>
            <stop offset="1" stop-color="#007d29"/>
        </linearGradient>
        <linearGradient id="Gradient-8" x1="237.98" y1="151.09" x2="411.42" y2="232.18" gradientUnits="userSpaceOnUse">
            <stop offset="0" stop-color="#4dba71"/>
            <stop offset="1" stop-color="#007d29"/>
        </linearGradient>
        <linearGradient id="Gradient-9" x1="203.012" y1="144.451" x2="405.59" y2="143.95" gradientUnits="userSpaceOnUse">
            <stop offset="0" stop-color="#4dba71"/>
            <stop offset="1" stop-color="#007d29"/>
        </linearGradient>
        <linearGradient id="Gradient-10" x1="342.18" y1="237.09" x2="435.73" y2="237.09" gradientUnits="userSpaceOnUse">
            <stop offset="0" stop-color="#ff9632"/>
            <stop offset="1" stop-color="#ff7200"/>
        </linearGradient>
        <linearGradient id="Gradient-11" x1="205.625" y1="106.103" x2="206.672" y2="2.93959" gradientUnits="userSpaceOnUse">
            <stop offset="0" stop-color="#ffffff"/>
            <stop offset="1" stop-color="#000000"/>
        </linearGradient>
        <linearGradient id="Gradient-12" x1="152.52" y1="0" x2="154.001" y2="114.02" gradientUnits="userSpaceOnUse">
            <stop offset="0" stop-color="#000000"/>
            <stop offset="1" stop-color="#ffffff"/>
        </linearGradient>
        <linearGradient id="Gradient-13" x1="38.1474" y1="0" x2="38.5809" y2="19.0737" gradientUnits="userSpaceOnUse">
            <stop offset="0" stop-color="#000000"/>
            <stop offset="1" stop-color="#ffffff"/>
        </linearGradient>
        <linearGradient id="Gradient-14" x1="302.982" y1="125.13" x2="395.08" y2="125.13" gradientUnits="userSpaceOnUse">
            <stop offset="0" stop-color="#4dba71"/>
            <stop offset="1" stop-color="#007d29"/>
        </linearGradient>
        <mask id="Mask-1">
            <rect width="391.454" height="317.847" fill="url(#Gradient-11)" rx="1.59" stroke="none" transform="translate(54.293,47.446) translate(-195.727,-158.924)"/>
        </mask>
        <mask id="Mask-3">
            <rect width="305.041" height="321.33" fill="url(#Gradient-12)" stroke="none" transform="translate(40.5057,351.342) translate(-152.52,-160.665)"/>
        </mask>
        <mask id="Mask-2">
            <rect width="76.2949" height="57.6547" fill="url(#Gradient-13)" rx="1.59" stroke="none" transform="translate(22.812,20.961) translate(-38.1474,-28.8273)"/>
        </mask>
    </defs>
    <style>
@keyframes a0_t { 0% { transform: translate(552.076px,335.835px); } 20% { transform: translate(552.076px,335.835px); animation-timing-function: cubic-bezier(0.42,0,0.58,1); } 70% { transform: translate(91.3241px,335.835px); } 100% { transform: translate(91.3241px,335.835px); } }
@keyframes wind_t { 0% { transform: rotate(0deg) translate(-552.076px,-335.835px); } 20% { transform: rotate(0deg) translate(-552.076px,-335.835px); animation-timing-function: cubic-bezier(0.42,0,0.58,1); } 45% { transform: rotate(10deg) translate(-552.076px,-335.835px); animation-timing-function: cubic-bezier(0.42,0,0.58,1); } 70% { transform: rotate(0deg) translate(-552.076px,-335.835px); } 100% { transform: rotate(0deg) translate(-552.076px,-335.835px); } }
@keyframes a1_t { 0% { transform: translate(472.74px,143.53px); animation-timing-function: cubic-bezier(0.42,0,0.58,1); } 10% { transform: translate(489.714px,143.53px); animation-timing-function: cubic-bezier(0.42,0,0.58,1); } 20% { transform: translate(472.74px,143.53px); animation-timing-function: cubic-bezier(0.42,0,0.58,1); } 30% { transform: translate(489.714px,143.53px); animation-timing-function: cubic-bezier(0.42,0,0.58,1); } 40% { transform: translate(472.74px,143.53px); animation-timing-function: cubic-bezier(0.42,0,0.58,1); } 50% { transform: translate(489.714px,143.53px); animation-timing-function: cubic-bezier(0.42,0,0.58,1); } 60% { transform: translate(472.74px,143.53px); animation-timing-function: cubic-bezier(0.42,0,0.58,1); } 70% { transform: translate(489.714px,143.53px); animation-timing-function: cubic-bezier(0.42,0,0.58,1); } 80% { transform: translate(472.74px,143.53px); animation-timing-function: cubic-bezier(0.42,0,0.58,1); } 90% { transform: translate(489.714px,143.53px); animation-timing-function: cubic-bezier(0.42,0,0.58,1); } 100% { transform: translate(472.74px,143.53px); } }
@keyframes a2_t { 0% { transform: translate(495.8px,191.84px); animation-timing-function: cubic-bezier(0.42,0,0.58,1); } 10% { transform: translate(515.386px,191.84px); animation-timing-function: cubic-bezier(0.42,0,0.58,1); } 20% { transform: translate(495.8px,191.84px); animation-timing-function: cubic-bezier(0.42,0,0.58,1); } 30% { transform: translate(515.386px,191.84px); animation-timing-function: cubic-bezier(0.42,0,0.58,1); } 40% { transform: translate(495.8px,191.84px); animation-timing-function: cubic-bezier(0.42,0,0.58,1); } 50% { transform: translate(515.386px,191.84px); animation-timing-function: cubic-bezier(0.42,0,0.58,1); } 60% { transform: translate(495.8px,191.84px); animation-timing-function: cubic-bezier(0.42,0,0.58,1); } 70% { transform: translate(515.386px,191.84px); animation-timing-function: cubic-bezier(0.42,0,0.58,1); } 80% { transform: translate(495.8px,191.84px); animation-timing-function: cubic-bezier(0.42,0,0.58,1); } 90% { transform: translate(515.386px,191.84px); animation-timing-function: cubic-bezier(0.42,0,0.58,1); } 100% { transform: translate(495.8px,191.84px); } }
@keyframes a3_t { 0% { transform: translate(494.32px,229.4px); animation-timing-function: cubic-bezier(0.42,0,0.58,1); } 10% { transform: translate(511.294px,229.4px); animation-timing-function: cubic-bezier(0.42,0,0.58,1); } 20% { transform: translate(494.32px,229.4px); animation-timing-function: cubic-bezier(0.42,0,0.58,1); } 30% { transform: translate(511.294px,229.4px); animation-timing-function: cubic-bezier(0.42,0,0.58,1); } 40% { transform: translate(494.32px,229.4px); animation-timing-function: cubic-bezier(0.42,0,0.58,1); } 50% { transform: translate(511.294px,229.4px); animation-timing-function: cubic-bezier(0.42,0,0.58,1); } 60% { transform: translate(494.32px,229.4px); animation-timing-function: cubic-bezier(0.42,0,0.58,1); } 70% { transform: translate(511.294px,229.4px); animation-timing-function: cubic-bezier(0.42,0,0.58,1); } 80% { transform: translate(494.32px,229.4px); animation-timing-function: cubic-bezier(0.42,0,0.58,1); } 90% { transform: translate(511.294px,229.4px); animation-timing-function: cubic-bezier(0.42,0,0.58,1); } 100% { transform: translate(494.32px,229.4px); } }
@keyframes a4_t { 0% { transform: translate(513.55px,267.07px); animation-timing-function: cubic-bezier(0.42,0,0.58,1); } 10% { transform: translate(522.69px,267.07px); animation-timing-function: cubic-bezier(0.42,0,0.58,1); } 20% { transform: translate(513.55px,267.07px); animation-timing-function: cubic-bezier(0.42,0,0.58,1); } 30% { transform: translate(522.69px,267.07px); animation-timing-function: cubic-bezier(0.42,0,0.58,1); } 40% { transform: translate(513.55px,267.07px); animation-timing-function: cubic-bezier(0.42,0,0.58,1); } 50% { transform: translate(522.69px,267.07px); animation-timing-function: cubic-bezier(0.42,0,0.58,1); } 60% { transform: translate(513.55px,267.07px); animation-timing-function: cubic-bezier(0.42,0,0.58,1); } 70% { transform: translate(522.69px,267.07px); animation-timing-function: cubic-bezier(0.42,0,0.58,1); } 80% { transform: translate(513.55px,267.07px); animation-timing-function: cubic-bezier(0.42,0,0.58,1); } 90% { transform: translate(522.69px,267.07px); animation-timing-function: cubic-bezier(0.42,0,0.58,1); } 100% { transform: translate(513.55px,267.07px); } }
@keyframes a5_do { 0% { stroke-dashoffset: 100px; } 70% { stroke-dashoffset: 0px; } 100% { stroke-dashoffset: 0px; } }
@keyframes a6_do { 0% { stroke-dashoffset: 100px; } 70% { stroke-dashoffset: 0px; } 100% { stroke-dashoffset: 0px; } }
@keyframes fence_t { 0% { transform: translate(443.325px,292.365px) rotate(0deg) translate(-5.45472px,-12.655px); } 35% { transform: translate(443.325px,292.365px) rotate(0deg) translate(-5.45472px,-12.655px); animation-timing-function: cubic-bezier(0.42,0,0.58,1); } 45% { transform: translate(443.325px,292.365px) rotate(-20deg) translate(-5.45472px,-12.655px); } 100% { transform: translate(443.325px,292.365px) rotate(-20deg) translate(-5.45472px,-12.655px); } }
@keyframes fence-2_t { 0% { transform: translate(481.725px,330.583px) rotate(0deg) translate(-4.465px,-50.8727px); } 30% { transform: translate(481.725px,330.583px) rotate(0deg) translate(-4.465px,-50.8727px); animation-timing-function: cubic-bezier(0.42,0,0.58,1); } 40% { transform: translate(481.725px,330.583px) rotate(10deg) translate(-4.465px,-50.8727px); } 100% { transform: translate(481.725px,330.583px) rotate(10deg) translate(-4.465px,-50.8727px); } }
@keyframes a7_t { 0% { transform: translate(406.62px,289.803px) rotate(0deg) translate(1.1999px,-1.13331px); } 40% { transform: translate(406.62px,289.803px) rotate(0deg) translate(1.1999px,-1.13331px); animation-timing-function: cubic-bezier(0.42,0,0.58,1); } 50% { transform: translate(406.62px,289.803px) rotate(20deg) translate(1.1999px,-1.13331px); } 100% { transform: translate(406.62px,289.803px) rotate(20deg) translate(1.1999px,-1.13331px); } }
@keyframes a8_t { 0% { transform: translate(255.685px,166.687px) rotate(0deg) translate(-255.685px,-166.687px); } 50% { transform: translate(255.685px,166.687px) rotate(0deg) translate(-255.685px,-166.687px); animation-timing-function: cubic-bezier(0.42,0,0.58,1); } 60% { transform: translate(255.685px,166.687px) rotate(-30deg) translate(-255.685px,-166.687px); } 100% { transform: translate(255.685px,166.687px) rotate(-30deg) translate(-255.685px,-166.687px); } }
@keyframes roof-2_o { 0% { opacity: 1; } 50% { opacity: 1; animation-timing-function: cubic-bezier(0.42,0,0.58,1); } 52% { opacity: 0; } 100% { opacity: 0; } }
@keyframes a9_t { 0% { transform: translate(203.185px,316.299px) rotate(0deg) translate(-203.185px,-316.299px); } 50% { transform: translate(203.185px,316.299px) rotate(0deg) translate(-203.185px,-316.299px); animation-timing-function: cubic-bezier(0.42,0,0.58,1); } 60% { transform: translate(203.185px,316.299px) rotate(30deg) translate(-203.185px,-316.299px); } 100% { transform: translate(203.185px,316.299px) rotate(30deg) translate(-203.185px,-316.299px); } }
@keyframes a10_t { 0% { transform: translate(43.1609px,-298.367px); } 50% { transform: translate(43.1609px,-298.367px); animation-timing-function: cubic-bezier(0.42,0,0.58,1); } 60% { transform: translate(43.1609px,3.49917px); } 100% { transform: translate(43.1609px,3.49917px); } }
@keyframes tag-2_t { 0% { transform: rotate(0deg) translate(-380.276px,-118.371px); } 50% { transform: rotate(0deg) translate(-380.276px,-118.371px); animation-timing-function: cubic-bezier(0.42,0,0.58,1); } 60% { transform: rotate(15deg) translate(-380.276px,-118.371px); animation-timing-function: cubic-bezier(0.42,0,0.58,1); } 70% { transform: rotate(-10deg) translate(-380.276px,-118.371px); animation-timing-function: cubic-bezier(0.42,0,0.58,1); } 80% { transform: rotate(0deg) translate(-380.276px,-118.371px); } 100% { transform: rotate(0deg) translate(-380.276px,-118.371px); } }
@keyframes a11_t { 0% { transform: translate(88.82px,68.07px); animation-timing-function: cubic-bezier(0.42,0,0.58,1); } 50% { transform: translate(53.896px,68.07px); animation-timing-function: cubic-bezier(0.42,0,0.58,1); } 100% { transform: translate(88.82px,68.07px); } }
@keyframes a12_t { 0% { transform: translate(-117.64px,-162.2212px); } 65% { transform: translate(-117.64px,-162.2212px); animation-timing-function: cubic-bezier(0,0,0.58,1); } 70% { transform: translate(-117.64px,-107.57px); } 100% { transform: translate(-117.64px,-107.57px); } }
@keyframes a13_t { 0% { transform: translate(-117.64px,-148.4629px); } 70% { transform: translate(-117.64px,-148.4629px); animation-timing-function: cubic-bezier(0,0,0.58,1); } 75% { transform: translate(-117.64px,-107.57px); } 100% { transform: translate(-117.64px,-107.57px); } }
@keyframes a14_t { 0% { transform: translate(0px,0px); animation-timing-function: cubic-bezier(0.42,0,0.58,1); } 50% { transform: translate(22.01px,0px); animation-timing-function: cubic-bezier(0.42,0,0.58,1); } 100% { transform: translate(0px,0px); } }
@keyframes a15_t { 0% { transform: translate(0px,0px); animation-timing-function: cubic-bezier(0.42,0,0.58,1); } 50% { transform: translate(-28.141px,0px); animation-timing-function: cubic-bezier(0.42,0,0.58,1); } 100% { transform: translate(0px,0px); } }
@keyframes a16_o { 0% { opacity: 0; } 59% { opacity: 0; } 60% { opacity: 1; } 100% { opacity: 1; } }
    </style>
    <title>tiberiusf3</title>
    <g id="wind" style="animation: 10s linear infinite both a0_t;">
        <g transform="translate(552.076,335.835) translate(-552.076,-335.835)" style="animation: 10s linear infinite both wind_t;">
            <rect class="cls-1" width="143.34" height="29.64" rx="10.93" fill="url(#Gradient-0)" transform="translate(544.41,158.35) translate(-71.67,-14.82)" style="animation: 10s linear infinite both a1_t;"/>
            <rect class="cls-2" width="115.34" height="18.98" rx="7" fill="#e5e5e5" transform="translate(0,0) translate(485.51,173.03)"/>
            <rect class="cls-2" width="98.85" height="18.98" rx="7" fill="#e5e5e5" transform="translate(0,0) translate(500.26,210.6)"/>
            <rect class="cls-3" width="94.66" height="18.98" rx="7" fill="url(#Gradient-1)" transform="translate(543.13,201.33) translate(-47.33,-9.49)" style="animation: 10s linear infinite both a2_t;"/>
            <rect class="cls-4" width="79.58" height="18.98" rx="7" fill="url(#Gradient-2)" transform="translate(534.11,238.89) translate(-39.79,-9.49)" style="animation: 10s linear infinite both a3_t;"/>
            <rect class="cls-2" width="67.37" height="18.98" rx="7" fill="#e5e5e5" transform="translate(0,0) translate(499.14,248.2)"/>
            <rect class="cls-5" width="44.98" height="13.99" rx="7" fill="url(#Gradient-3)" transform="translate(536.04,274.065) translate(-22.49,-6.995)" style="animation: 10s linear infinite both a4_t;"/>
            <rect class="cls-2" width="31.66" height="13.99" rx="7" fill="#e5e5e5" transform="translate(0,0) translate(520.04,281.06)"/>
            <rect class="cls-6" width="24.49" height="13.99" rx="7" fill="url(#Gradient-4)" transform="translate(0,0) translate(527.21,295.04)"/>
            <rect class="cls-2" width="17.49" height="13.99" rx="7" fill="#e5e5e5" transform="translate(0,0) translate(536.04,309.12)"/>
            <rect class="cls-7" width="13.99" height="13.99" rx="7" fill="url(#Gradient-5)" transform="translate(0,0) translate(543.18,322.53)"/>
            <g>
                <path class="cls-8" d="M581.92,260.23L616.26,260.23C616.26,260.23,627.74,260.23,627.74,252.16" stroke-width="2px" stroke-linecap="round" stroke="#b3b3b3" stroke-miterlimit="10" fill="none" stroke-dasharray="10 5" stroke-dashoffset="100" style="animation: 10s linear infinite both a5_do;"/>
                <path class="cls-8" d="M582.37,265.46L603.55,265.46C606.74,265.46,616.33,264.66,616.33,272.2" stroke-width="2px" stroke-linecap="round" stroke="#b3b3b3" stroke-miterlimit="10" fill="none" stroke-dasharray="10 5" stroke-dashoffset="100" style="animation: 10s linear infinite both a6_do;"/>
                <path class="cls-8" d="M582.37,254.93L600.68,254.93" stroke-width="2px" stroke-linecap="round" stroke="#b3b3b3" stroke-miterlimit="10" fill="none"/>
                <path class="cls-8" d="M606.42,254.93L611.78,254.93" stroke-width="2px" stroke-linecap="round" stroke="#b3b3b3" stroke-miterlimit="10" fill="none"/>
            </g>
        </g>
    </g>
    <g>
        <rect class="cls-9" width="8.93" height="62.76" rx="3.89" fill="#99d7ad" transform="translate(0,0) translate(411.43,279.71)"/>
        <rect class="cls-9" width="8.93" height="62.76" rx="3.89" fill="#99d7ad" transform="translate(0,0) translate(424.74,279.71)"/>
        <rect id="fence" class="cls-9" width="8.93" height="62.76" rx="3.89" fill="#99d7ad" transform="translate(443.325,292.365) translate(-5.45472,-12.655)" style="animation: 10s linear infinite both fence_t;"/>
        <rect class="cls-9" width="8.93" height="62.76" rx="3.89" fill="#99d7ad" transform="translate(0,0) translate(451.18,279.71)"/>
        <rect class="cls-9" width="8.93" height="62.76" rx="3.89" fill="#99d7ad" transform="translate(0,0) translate(463.94,279.71)"/>
        <rect id="fence-2" class="cls-9" width="8.93" height="62.76" rx="3.89" fill="#99d7ad" transform="translate(481.725,330.583) translate(-4.465,-50.8727)" style="animation: 10s linear infinite both fence-2_t;"/>
        <rect class="cls-9" width="8.93" height="62.76" rx="3.89" fill="#99d7ad" transform="translate(0,0) translate(490.38,279.71)"/>
        <rect class="cls-9" width="8.93" height="62.76" rx="3.89" fill="#99d7ad" transform="translate(0,0) translate(503.7,279.71)"/>
        <rect class="cls-9" width="8.93" height="62.76" rx="3.89" fill="#99d7ad" transform="translate(0,0) translate(517.02,279.71)"/>
        <rect class="cls-9" width="147.82" height="3.65" rx="1.59" fill="#99d7ad" transform="translate(406.62,289.803) translate(1.1999,-1.13331)" style="animation: 10s linear infinite both a7_t;"/>
        <rect class="cls-9" width="147.82" height="3.65" rx="1.59" fill="#99d7ad" transform="translate(0,0) translate(407.82,327.81)"/>
    </g>
    <rect class="cls-10" width="63.98" height="117.15" fill="#b3e1c2" transform="translate(0,0) translate(116.13,221.47)"/>
    <rect class="cls-11" width="73.46" height="9.55" fill="#66c485" transform="translate(0,0) translate(106.61,222.18)"/>
    <path class="cls-12" d="M110.24,222.18L123.74,178.98L179.78,178.98L180.1,222.18L110.24,222.18" fill="url(#Gradient-6)"/>
    <rect class="cls-13" width="224.02" height="82.27" fill="#4dba71" transform="translate(0,0) translate(179.79,256.34)"/>
    <rect class="cls-9" width="224.02" height="67.52" fill="#99d7ad" transform="translate(0,0) translate(179.79,178.98)"/>
    <rect class="cls-17" width="236.99" height="9.84" fill="#009c33" transform="translate(0,0) translate(173.97,169.15)"/>
    <g id="roof">
        <path class="cls-15" d="M405.59,169.15L393.74,118.76L266.09,118.76L246.41,134.18L262.04,135.59L247.66,147.41L264.15,149.67L257.34,169.15L405.59,169.15Z" fill="url(#Gradient-7)"/>
        <path class="cls-49" d="M192.84,118.76L179.34,169.15L257.34,169.15L264.15,149.67L247.66,147.41L262.04,135.59L246.41,134.18L266.09,118.76L192.84,118.76Z" fill="url(#Gradient-8)" transform="translate(255.685,166.687) translate(-255.685,-166.687)" style="animation: 10s linear infinite both a8_t;"/>
        <path id="roof-2" class="cls-15" d="M405.59,169.15L393.74,118.76L192.852,118.76L179.39,169.15L405.59,169.15Z" fill="url(#Gradient-9)" opacity="1" style="animation: 10s linear infinite both roof-2_o;"/>
    </g>
    <g>
        <rect class="cls-9" width="33.54" height="62.15" fill="#99d7ad" transform="translate(0,0) translate(275.03,276.46)"/>
        <rect class="cls-13" width="2.12" height="8.8" fill="#4dba71" transform="translate(0,0) translate(302.61,305.73)"/>
    </g>
    <rect class="cls-16" width="455.59" height="11.67" fill="#80ce99" transform="translate(0,0) translate(100.06,338.47)"/>
    <rect class="cls-17" width="236.99" height="9.84" fill="#009c33" transform="translate(0,0) translate(173.97,246.5)"/>
    <g transform="translate(203.185,316.299) translate(-203.185,-316.299)" style="animation: 10s linear infinite both a9_t;">
        <path class="cls-9" d="M247.63,323.55L196.36,323.55L196.36,299C196.36,299,194.76,265.86,221.99,265.86C249.65,265.86,247.63,298.42,247.63,298.42Z" fill="#99d7ad"/>
        <path class="cls-11" d="M244.34,319.78L199.67,319.78L199.67,297.48C199.67,297.48,198.33,268.85,222.01,268.85C246.34,268.85,244.34,297.85,244.34,297.85Z" fill="#66c485"/>
        <path class="cls-18" d="M241.38,316.41L202.63,316.41L202.63,297.85C202.63,297.85,200.47,272.23,222.01,272.23C243.55,272.23,241.38,298.39,241.38,298.39Z" fill="#fff"/>
        <rect class="cls-11" width="2.43" height="49.47" fill="#66c485" transform="translate(0,0) translate(220.62,269.58)"/>
        <rect class="cls-11" width="2.43" height="41.6" fill="#66c485" transform="translate(516.32,72.32) rotate(90) translate(220.79,273.52)"/>
    </g>
    <path class="cls-9" d="M387.6,323.55L336.33,323.55L336.33,299C336.33,299,334.73,265.86,361.96,265.86C389.62,265.86,387.6,298.42,387.6,298.42Z" fill="#99d7ad"/>
    <path class="cls-11" d="M384.31,319.78L339.64,319.78L339.64,297.48C339.64,297.48,338.3,268.85,362,268.85C386.33,268.85,384.34,297.85,384.34,297.85Z" fill="#66c485"/>
    <path class="cls-18" d="M381.35,316.41L342.6,316.41L342.6,297.85C342.6,297.85,340.43,272.23,361.97,272.23C383.51,272.23,381.35,298.39,381.35,298.39Z" fill="#fff"/>
    <rect class="cls-11" width="2.43" height="49.47" fill="#66c485" transform="translate(0,0) translate(360.59,269.58)"/>
    <rect class="cls-11" width="2.43" height="41.6" fill="#66c485" transform="translate(656.29,-67.65) rotate(90) translate(360.75,273.52)"/>
    <path class="cls-11" d="M385.37,235.11L346.42,235.11L346.42,215.66C346.42,215.66,345.25,190.66,365.89,190.66C387.11,190.66,385.37,215.97,385.37,215.97Z" fill="#66c485"/>
    <path class="cls-18" d="M382.79,232.17L349,232.17L349,216C349,216,347.11,193.65,365.89,193.65C384.67,193.65,382.79,216.46,382.79,216.46Z" fill="#fff"/>
    <rect class="cls-11" width="2.12" height="43.14" fill="#66c485" transform="translate(0,0) translate(364.68,191.33)"/>
    <rect class="cls-11" width="2.12" height="36.28" fill="#66c485" transform="translate(580.06,-151.71) rotate(90) translate(364.83,196.04)"/>
    <path class="cls-11" d="M311.26,235.11L272.31,235.11L272.31,215.66C272.31,215.66,271.14,190.66,291.78,190.66C313,190.7,311.26,216,311.26,216Z" fill="#66c485"/>
    <path class="cls-18" d="M308.68,232.17L274.89,232.17L274.89,216C274.89,216,273,193.65,291.78,193.65C310.56,193.65,308.68,216.46,308.68,216.46Z" fill="#fff"/>
    <rect class="cls-11" width="2.12" height="43.14" fill="#66c485" transform="translate(0,0) translate(290.57,191.33)"/>
    <rect class="cls-11" width="2.12" height="36.28" fill="#66c485" transform="translate(505.95,-77.6) rotate(90) translate(290.72,196.04)"/>
    <path class="cls-11" d="M235.3,235.11L196.3,235.11L196.3,215.66C196.3,215.66,195.13,190.66,215.78,190.66C237,190.66,235.25,215.97,235.25,215.97Z" fill="#66c485"/>
    <path class="cls-18" d="M232.73,232.17L198.93,232.17L198.93,216C198.93,216,197.04,193.65,215.83,193.65C234.62,193.65,232.73,216.46,232.73,216.46Z" fill="#fff"/>
    <rect class="cls-11" width="2.12" height="43.14" fill="#66c485" transform="translate(0,0) translate(214.62,191.33)"/>
    <rect class="cls-11" width="2.12" height="36.28" fill="#66c485" transform="translate(430,-1.65) rotate(90) translate(214.76,196.04)"/>
    <g mask="url(#Mask-3)" transform="translate(389.791,-97.2638) translate(-46.775,-93.4135)">
        <g id="tag" mask="url(#Mask-1)" transform="translate(56.2448,399.363) translate(-57.0811,-93.8629)">
            <g id="tag-2" style="animation: 10s linear infinite both a10_t;">
                <g transform="translate(43.1609,-298.367) translate(-380.276,-118.371)" style="animation: 10s linear infinite both tag-2_t;">
                    <g>
                        <path class="cls-19" d="M404.7,172.53L351.46,182.23L342.18,198.88L360.91,301.65L435.73,288L417.1,185.82ZM381.7,200.17C379.373,200.849,376.866,200.061,375.346,198.173C373.825,196.286,373.59,193.668,374.75,191.54C375.91,189.411,378.237,188.189,380.647,188.443C383.058,188.697,385.079,190.377,385.77,192.7C385.996,193.457,386.069,194.251,385.987,195.037C385.905,195.822,385.669,196.584,385.291,197.278C384.914,197.972,384.404,198.585,383.789,199.081C383.174,199.577,382.468,199.947,381.71,200.17Z" fill="url(#Gradient-10)"/>
                        <path fill="#ffffff" stroke="none" d="M-13.7907,0L-10.9042,0C-10.3982,0,-9.84619,-0.138,-9.42069,-0.3795C-8.76519,-0.7475,-8.42019,-1.3915,-8.42019,-2.2425C-8.42019,-3.3235,-8.91469,-3.91,-10.0302,-4.163L-10.0302,-4.186C-9.15619,-4.347,-8.58119,-5.083,-8.58119,-6.0145C-8.58119,-7.2335,-9.45519,-8.027,-10.8007,-8.027L-13.7907,-8.027ZM-11.9737,-6.716L-11.4792,-6.716C-10.8352,-6.716,-10.3982,-6.325,-10.3982,-5.75C-10.3982,-5.1405,-10.8352,-4.761,-11.5137,-4.761L-11.9737,-4.761ZM-11.9737,-3.45L-11.2492,-3.45C-10.6052,-3.45,-10.2372,-3.0705,-10.2372,-2.4035C-10.2372,-1.702,-10.6397,-1.357,-11.4447,-1.357L-11.9737,-1.357ZM-7.26594,0L-5.44894,0L-5.44894,-5.9915L-7.26594,-5.9915ZM-7.26594,-7.015L-5.44894,-7.015L-5.44894,-8.625L-7.26594,-8.625ZM-0.509313,-5.842C-0.992312,-6.003,-1.57881,-6.0835,-2.16531,-6.0835C-3.53381,-6.0835,-4.41931,-5.359,-4.41931,-4.232C-4.41931,-3.5995,-4.14331,-3.0705,-3.64881,-2.714C-3.45331,-2.576,-3.18881,-2.4495,-2.72881,-2.277C-2.06181,-2.024,-1.91231,-1.9205,-1.91231,-1.702C-1.91231,-1.3455,-2.18831,-1.1845,-2.79781,-1.1845C-3.34981,-1.1845,-3.83281,-1.311,-4.31581,-1.5985L-4.36181,-0.1955C-3.79831,0,-3.15431,0.092,-2.41831,0.092C-0.980812,0.092,-0.187312,-0.575,-0.187312,-1.794C-0.187312,-2.6565,-0.566813,-3.174,-1.44081,-3.5075C-2.53331,-3.9215,-2.69431,-4.025,-2.69431,-4.347C-2.69431,-4.6345,-2.42981,-4.807,-1.98131,-4.807C-1.53281,-4.807,-1.18781,-4.7265,-0.555312,-4.485ZM3.63231,-4.6345L5.85181,-4.6345L3.56331,-1.495L3.56331,0L7.84131,0L7.84131,-1.357L5.54131,-1.357L7.78381,-4.508L7.78381,-5.9915L3.63231,-5.9915ZM13.9206,-5.9915L12.1036,-5.9915L12.1036,-2.6335C12.1036,-1.771,11.8391,-1.357,11.2986,-1.357C10.8386,-1.357,10.6086,-1.679,10.6086,-2.3L10.6086,-5.9915L8.79156,-5.9915L8.79156,-2.07C8.79156,-0.644,9.40106,0.092,10.5741,0.092C11.4136,0.092,11.8851,-0.2185,12.2416,-1.0005L12.2646,-1.0005C12.2646,-0.6555,12.2761,-0.3565,12.3106,0L13.9666,0C13.9321,-0.322,13.9206,-0.644,13.9206,-1.2535ZM-24.2386,40.111L-24.3651,40.088C-25.2851,39.881,-25.5956,39.835,-26.1016,39.835C-27.3666,39.835,-28.2521,40.2835,-28.6776,41.146C-28.8271,41.4795,-28.9076,41.813,-28.9076,42.1695C-28.9076,43.354,-28.3556,44.044,-26.9641,44.596C-26.0671,44.964,-25.7451,45.286,-25.7451,45.8035C-25.7451,46.3555,-26.2166,46.735,-26.9296,46.735C-27.3666,46.735,-27.6771,46.6545,-28.3556,46.367C-28.5396,46.298,-28.5511,46.2865,-28.6776,46.2405L-28.7811,47.8045C-28.0336,48.023,-27.3206,48.138,-26.6651,48.138C-24.9401,48.138,-23.8131,47.172,-23.8131,45.6885C-23.8131,45.217,-23.9166,44.7915,-24.1236,44.412C-24.3996,43.9175,-24.9056,43.538,-25.7796,43.193C-26.6536,42.8365,-26.9756,42.5375,-26.9756,42.0315C-26.9756,41.5255,-26.5616,41.192,-25.9176,41.192C-25.4346,41.192,-24.8711,41.3415,-24.3191,41.606ZM-18.4692,46.4705C-19.0443,46.689,-19.2283,46.735,-19.5273,46.735C-20.4473,46.735,-20.9993,46.1025,-20.9993,45.056C-20.9993,43.9635,-20.4933,43.3195,-19.6193,43.3195C-19.3203,43.3195,-19.0903,43.377,-18.5613,43.5725L-18.4692,42.204C-18.6303,42.158,-18.6533,42.158,-18.8143,42.1005C-19.3318,41.951,-19.5503,41.9165,-19.9413,41.9165C-21.7238,41.9165,-22.8853,43.1355,-22.8853,45.033C-22.8853,46.896,-21.7812,48.092,-20.0678,48.092C-19.5732,48.092,-19.1018,48.023,-18.4118,47.839ZM-17.5344,48L-15.7174,48L-15.7174,44.642C-15.7174,43.7795,-15.4529,43.3655,-14.9124,43.3655C-14.4639,43.3655,-14.2224,43.6875,-14.2224,44.3085L-14.2224,48L-12.4054,48L-12.4054,44.0785C-12.4054,42.664,-13.0149,41.9165,-14.1534,41.9165C-14.9239,41.9165,-15.4529,42.25,-15.6944,42.894L-15.7174,42.894L-15.7174,39.375L-17.5344,39.375ZM-10.6493,43.6415C-9.98225,43.2505,-9.53375,43.1125,-8.98175,43.1125C-8.22275,43.1125,-7.90075,43.446,-7.86625,44.2625L-8.41825,44.2625C-10.3848,44.2625,-11.3853,44.9525,-11.3853,46.298C-11.3853,47.356,-10.6377,48.092,-9.55675,48.092C-8.79775,48.092,-8.05025,47.678,-7.88925,47.172L-7.86625,47.172L-7.82025,48L-6.16425,48C-6.19875,47.5515,-6.21025,47.2065,-6.21025,46.3095L-6.21025,44.1245C-6.21025,42.5835,-6.95775,41.9165,-8.70575,41.9165C-9.29225,41.9165,-9.85575,42.02,-10.7297,42.296ZM-7.86625,45.4585C-7.86625,46.4015,-8.26875,46.942,-8.95875,46.942C-9.46475,46.942,-9.72925,46.666,-9.72925,46.16C-9.72925,45.4125,-9.20025,45.125,-7.86625,45.1135ZM0.364125,39.375L-1.45287,39.375L-1.45287,42.894L-1.47587,42.894C-1.77487,42.227,-2.26938,41.9165,-3.01688,41.9165C-4.35087,41.9165,-5.12138,42.9975,-5.12138,44.872C-5.12138,46.8615,-4.30487,48.092,-2.99388,48.092C-2.25787,48.092,-1.75187,47.77,-1.38387,47.0455L-1.36088,47.0455C-1.36088,47.402,-1.34937,47.7125,-1.31488,48L0.410125,48C0.375625,47.563,0.364125,47.287,0.364125,46.6545ZM-2.37287,43.1585C-1.76338,43.1585,-1.45287,43.768,-1.45287,44.964C-1.45287,46.1255,-1.78638,46.781,-2.37287,46.781C-2.97087,46.781,-3.23537,46.2175,-3.23537,44.987C-3.23537,43.6645,-2.99388,43.1585,-2.37287,43.1585ZM3.19737,44.4925C3.19737,43.5035,3.50787,43.0205,4.12888,43.0205C4.76137,43.0205,5.04887,43.4805,5.07188,44.4925ZM6.37138,46.3785C5.77338,46.689,5.20988,46.85,4.68088,46.85C3.77238,46.85,3.23187,46.3555,3.19737,45.4815L6.72788,45.4815L6.72788,45.0445C6.72788,43.009,5.84237,41.9165,4.19788,41.9165C2.55338,41.9165,1.47237,43.1585,1.47237,45.0215C1.47237,46.9765,2.57638,48.092,4.49688,48.092C5.12938,48.092,5.76188,47.977,6.40587,47.747ZM11.1058,48L12.9228,48L12.9228,44.0785C12.9228,42.6525,12.3132,41.9165,11.1403,41.9165C10.3008,41.9165,9.81775,42.2385,9.47275,43.009L9.44975,43.009C9.44975,42.6065,9.43825,42.4455,9.40375,42.0085L7.74775,42.0085C7.78225,42.388,7.79375,42.6755,7.79375,43.262L7.79375,48L9.61075,48L9.61075,44.642C9.61075,43.7795,9.87525,43.3655,10.4158,43.3655C10.8643,43.3655,11.1058,43.6875,11.1058,44.3085ZM17.3413,48L19.1583,48L19.1583,42.0085L17.3413,42.0085ZM17.3413,40.985L19.1583,40.985L19.1583,39.375L17.3413,39.375ZM26.9959,48L28.8129,48L28.8129,44.0785C28.8129,42.6525,28.2034,41.9165,27.0304,41.9165C26.2254,41.9165,25.7654,42.204,25.4089,42.917C25.0869,42.204,24.6384,41.9165,23.8449,41.9165C22.9939,41.9165,22.5224,42.227,22.1659,43.009L22.1429,43.009C22.1429,42.6065,22.1314,42.4455,22.0969,42.0085L20.4409,42.0085C20.4754,42.388,20.4869,42.6755,20.4869,43.262L20.4869,48L22.3039,48L22.3039,44.642C22.3039,43.791,22.5684,43.3655,23.0974,43.3655C23.5229,43.3655,23.7414,43.6875,23.7414,44.3085L23.7414,48L25.5584,48L25.5584,44.205C25.5584,43.676,25.8344,43.3655,26.3059,43.3655C26.7544,43.3655,26.9959,43.6875,26.9959,44.3085ZM-34.6082,60L-31.9977,60C-29.6172,60,-28.1682,58.4935,-28.1682,56.021C-28.1682,53.5025,-29.5252,51.973,-31.7562,51.973L-34.6082,51.973ZM-32.7222,53.376L-32.2392,53.376C-30.8707,53.376,-30.1462,54.296,-30.1462,56.021C-30.1462,57.6655,-30.8592,58.597,-32.1242,58.597L-32.7222,58.597ZM-21.9338,54.0085L-23.7508,54.0085L-23.7508,57.3665C-23.7508,58.229,-24.0153,58.643,-24.5558,58.643C-25.0158,58.643,-25.2458,58.321,-25.2458,57.7L-25.2458,54.0085L-27.0628,54.0085L-27.0628,57.93C-27.0628,59.356,-26.4533,60.092,-25.2803,60.092C-24.4408,60.092,-23.9693,59.7815,-23.6128,58.9995L-23.5898,58.9995C-23.5898,59.3445,-23.5783,59.6435,-23.5438,60L-21.8878,60C-21.9223,59.678,-21.9338,59.356,-21.9338,58.7465ZM-20.6722,60L-18.8552,60L-18.8552,57.3205C-18.8552,56.044,-18.5102,55.5265,-17.6592,55.5265C-17.4407,55.5265,-17.2912,55.538,-17.0612,55.5955L-17.0612,53.9165L-17.3257,53.9165C-17.8432,53.9165,-18.1997,54.043,-18.4757,54.319C-18.6252,54.4685,-18.7287,54.6295,-18.9932,55.0895L-19.0162,55.0895L-19.0162,54.963C-19.0277,54.687,-19.0392,54.457,-19.0507,54.273C-19.0622,54.1465,-19.0622,54.135,-19.0622,54.0085L-20.7182,54.0085C-20.6837,54.388,-20.6722,54.6755,-20.6722,55.262ZM-12.2321,58.4705C-12.8071,58.689,-12.9911,58.735,-13.2901,58.735C-14.2101,58.735,-14.7621,58.1025,-14.7621,57.056C-14.7621,55.9635,-14.2561,55.3195,-13.3821,55.3195C-13.0831,55.3195,-12.8531,55.377,-12.3241,55.5725L-12.2321,54.204C-12.3931,54.158,-12.4161,54.158,-12.5771,54.1005C-13.0946,53.951,-13.3131,53.9165,-13.7041,53.9165C-15.4866,53.9165,-16.6481,55.1355,-16.6481,57.033C-16.6481,58.896,-15.5441,60.092,-13.8306,60.092C-13.3361,60.092,-12.8646,60.023,-12.1746,59.839ZM-11.2972,60L-9.48019,60L-9.48019,56.642C-9.48019,55.7795,-9.21569,55.3655,-8.67519,55.3655C-8.22669,55.3655,-7.98519,55.6875,-7.98519,56.3085L-7.98519,60L-6.16819,60L-6.16819,56.0785C-6.16819,54.664,-6.77769,53.9165,-7.91619,53.9165C-8.68669,53.9165,-9.21569,54.25,-9.45719,54.894L-9.48019,54.894L-9.48019,51.375L-11.2972,51.375ZM-1.29556,54.158C-1.77856,53.997,-2.36506,53.9165,-2.95156,53.9165C-4.32006,53.9165,-5.20556,54.641,-5.20556,55.768C-5.20556,56.4005,-4.92956,56.9295,-4.43506,57.286C-4.23956,57.424,-3.97506,57.5505,-3.51506,57.723C-2.84806,57.976,-2.69856,58.0795,-2.69856,58.298C-2.69856,58.6545,-2.97456,58.8155,-3.58406,58.8155C-4.13606,58.8155,-4.61906,58.689,-5.10206,58.4015L-5.14806,59.8045C-4.58456,60,-3.94056,60.092,-3.20456,60.092C-1.76706,60.092,-0.973562,59.425,-0.973562,58.206C-0.973562,57.3435,-1.35306,56.826,-2.22706,56.4925C-3.31956,56.0785,-3.48056,55.975,-3.48056,55.653C-3.48056,55.3655,-3.21606,55.193,-2.76756,55.193C-2.31906,55.193,-1.97406,55.2735,-1.34156,55.515ZM4.17419,58.4705C3.59919,58.689,3.41519,58.735,3.11619,58.735C2.19619,58.735,1.64419,58.1025,1.64419,57.056C1.64419,55.9635,2.15019,55.3195,3.02419,55.3195C3.32319,55.3195,3.55319,55.377,4.08219,55.5725L4.17419,54.204C4.01319,54.158,3.99019,54.158,3.82919,54.1005C3.31169,53.951,3.09319,53.9165,2.70219,53.9165C0.919688,53.9165,-0.241812,55.1355,-0.241812,57.033C-0.241812,58.896,0.862187,60.092,2.57569,60.092C3.07019,60.092,3.54169,60.023,4.23169,59.839ZM5.10906,60L6.92606,60L6.92606,56.642C6.92606,55.7795,7.19056,55.3655,7.73106,55.3655C8.17956,55.3655,8.42106,55.6875,8.42106,56.3085L8.42106,60L10.2381,60L10.2381,56.0785C10.2381,54.664,9.62856,53.9165,8.49006,53.9165C7.71956,53.9165,7.19056,54.25,6.94906,54.894L6.92606,54.894L6.92606,51.375L5.10906,51.375ZM14.8117,60L16.6287,60L16.6287,56.0785C16.6287,54.6525,16.0192,53.9165,14.8462,53.9165C14.0067,53.9165,13.5237,54.2385,13.1787,55.009L13.1557,55.009C13.1557,54.6065,13.1442,54.4455,13.1097,54.0085L11.4537,54.0085C11.4882,54.388,11.4997,54.6755,11.4997,55.262L11.4997,60L13.3167,60L13.3167,56.642C13.3167,55.7795,13.5812,55.3655,14.1217,55.3655C14.5702,55.3655,14.8117,55.6875,14.8117,56.3085ZM17.9478,60L19.7648,60L19.7648,54.0085L17.9478,54.0085ZM17.9478,52.985L19.7648,52.985L19.7648,51.375L17.9478,51.375ZM20.6219,55.285L21.6109,55.285L21.6109,58.321C21.6109,59.471,22.2434,60.092,23.4049,60.092C23.8534,60.092,24.3709,60.023,24.6354,59.931L24.6354,58.6545C24.4169,58.7465,24.2674,58.781,24.0604,58.781C23.6234,58.781,23.4279,58.551,23.4279,58.0335L23.4279,55.285L24.6009,55.285L24.6009,54.0085L23.4279,54.0085L23.4279,52.2145L21.6569,52.778L21.6569,54.0085L20.6219,54.0085ZM25.0907,55.285L26.0797,55.285L26.0797,58.321C26.0797,59.471,26.7122,60.092,27.8737,60.092C28.3222,60.092,28.8397,60.023,29.1042,59.931L29.1042,58.6545C28.8857,58.7465,28.7362,58.781,28.5292,58.781C28.0922,58.781,27.8967,58.551,27.8967,58.0335L27.8967,55.285L29.0697,55.285L29.0697,54.0085L27.8967,54.0085L27.8967,52.2145L26.1257,52.778L26.1257,54.0085L25.0907,54.0085ZM30.2149,53.4335L31.6984,53.698L30.6289,54.802L31.6984,55.561L32.3999,54.181L33.0554,55.561L34.1594,54.802L33.0554,53.698L34.5504,53.4335L34.1594,52.18L32.8254,52.916L33.0669,51.375L31.7559,51.375L32.0089,52.916L30.6289,52.18Z" transform="translate(384.732,219.003) rotate(-10)"/>
                        <path fill="#ffffff" stroke="none" d="M-28.4217,0L-21.6058,0L-21.6058,-1.952L-25.6057,-1.952L-25.2057,-2.336C-22.9657,-4.48,-21.7178,-6.576,-21.7178,-8.224C-21.7178,-10.048,-23.0938,-11.36,-25.0138,-11.36C-25.8617,-11.36,-26.5018,-11.232,-28.2297,-10.72L-28.0537,-8.4C-27.2857,-8.944,-26.4538,-9.28,-25.8298,-9.28C-24.9497,-9.28,-24.3418,-8.672,-24.3418,-7.808C-24.3418,-6.752,-25.0298,-5.632,-27.0298,-3.488C-27.3657,-3.12,-27.3978,-3.104,-27.6057,-2.864L-28.4217,-1.952ZM-19.8853,-5.232C-18.9093,-5.472,-18.5573,-5.536,-18.1252,-5.536C-16.8132,-5.536,-15.9012,-4.768,-15.9012,-3.648C-15.9012,-2.544,-16.7332,-1.76,-17.9333,-1.76C-18.4932,-1.76,-18.9093,-1.872,-19.9972,-2.304L-20.1252,-0.32C-19.0853,0.08,-18.5573,0.192,-17.5332,0.192C-14.9412,0.192,-13.2773,-1.312,-13.2773,-3.648C-13.2773,-5.92,-14.5573,-7.264,-16.7173,-7.264C-16.8932,-7.264,-17.1812,-7.248,-17.3732,-7.232L-17.5653,-7.216L-17.6772,-7.2L-17.6772,-9.28L-13.7733,-9.28L-13.7733,-11.168L-19.8853,-11.168ZM-11.6208,0L-9.31675,0L-9.31675,-2.4L-11.6208,-2.4ZM-4.2325,-11.36C-6.7445,-11.36,-7.9125,-9.52,-7.9125,-5.568C-7.9125,-1.648,-6.7285,0.192,-4.2325,0.192C-1.7205,0.192,-0.5525,-1.648,-0.5525,-5.6C-0.5525,-9.52,-1.7365,-11.36,-4.2325,-11.36ZM-4.2325,-9.536C-3.3845,-9.536,-3.0165,-8.32,-3.0165,-5.552C-3.0165,-2.864,-3.4005,-1.632,-4.2325,-1.632C-5.0805,-1.632,-5.4485,-2.848,-5.4485,-5.568C-5.4485,-8.32,-5.0805,-9.536,-4.2325,-9.536ZM4.08,-11.36C1.568,-11.36,0.4,-9.52,0.4,-5.568C0.4,-1.648,1.584,0.192,4.08,0.192C6.592,0.192,7.76,-1.648,7.76,-5.6C7.76,-9.52,6.576,-11.36,4.08,-11.36ZM4.08,-9.536C4.928,-9.536,5.296,-8.32,5.296,-5.552C5.296,-2.864,4.912,-1.632,4.08,-1.632C3.232,-1.632,2.864,-2.848,2.864,-5.568C2.864,-8.32,3.232,-9.536,4.08,-9.536ZM12.3925,-11.36C9.8805,-11.36,8.7125,-9.52,8.7125,-5.568C8.7125,-1.648,9.8965,0.192,12.3925,0.192C14.9045,0.192,16.0725,-1.648,16.0725,-5.6C16.0725,-9.52,14.8885,-11.36,12.3925,-11.36ZM12.3925,-9.536C13.2405,-9.536,13.6085,-8.32,13.6085,-5.552C13.6085,-2.864,13.2245,-1.632,12.3925,-1.632C11.5445,-1.632,11.1765,-2.848,11.1765,-5.568C11.1765,-8.32,11.5445,-9.536,12.3925,-9.536ZM26.9412,-3.616L27.5173,-5.136L24.7973,-5.136C24.7812,-5.328,24.7812,-5.472,24.7812,-5.648C24.7812,-5.856,24.7812,-6.016,24.8132,-6.208L27.9172,-6.208L28.4932,-7.728L25.2132,-7.728C25.7092,-8.752,26.5732,-9.28,27.7253,-9.28C28.1733,-9.28,28.4292,-9.232,29.0052,-9.072L29.7092,-10.944C28.9253,-11.232,28.1413,-11.36,27.2453,-11.36C24.8932,-11.36,22.9893,-9.952,22.3813,-7.728L21.7892,-7.728L21.2132,-6.208L22.1092,-6.208C22.0933,-5.984,22.0933,-5.808,22.0933,-5.584C22.0933,-5.392,22.0933,-5.28,22.1092,-5.136L21.7892,-5.136L21.2132,-3.616L22.3493,-3.616C23.1012,-1.136,24.8612,0.192,27.4212,0.192C27.9012,0.192,28.2533,0.16,29.0052,0.048L29.0052,-2.128C28.5573,-2,28.1893,-1.952,27.7572,-1.952C26.6372,-1.952,25.7253,-2.544,25.1973,-3.616Z" transform="translate(389.246,245.403) rotate(-10)"/>
                    </g>
                    <path class="cls-45" d="M401.09,132C400.44,127.92,398.16,124.33,394.32,121.26L390.69,118.78C389.69,118.22,388.69,117.67,387.61,117.15C382.17,114.56,378.22,114.15,375.2,115.83C370.4,118.53,369.66,125.57,368.73,134.47C368.622,135.823,368.487,137.173,368.325,138.521C368.163,139.868,367.973,141.212,367.757,142.552C367.541,143.892,367.298,145.227,367.029,146.557C366.759,147.887,366.463,149.212,366.14,150.53C362.44,163.98,372.19,183.86,375.65,190.3C375.93,190.003,376.239,189.734,376.573,189.5C376.907,189.265,377.265,189.065,377.64,188.903C378.014,188.741,378.405,188.617,378.805,188.535C379.204,188.452,379.612,188.41,380.02,188.41C380.157,188.411,380.293,188.417,380.43,188.427C380.566,188.437,380.702,188.452,380.838,188.471C380.973,188.491,381.108,188.514,381.242,188.542C381.375,188.571,381.508,188.603,381.64,188.64L381.64,167.28C381.64,155.69,383.76,154.95,387.26,153.74C387.857,153.566,388.443,153.357,389.017,153.116C389.59,152.876,390.149,152.602,390.691,152.298C391.234,151.994,391.758,151.659,392.263,151.295C392.767,150.931,393.25,150.539,393.71,150.12C398,146,402.22,139.09,401.09,132ZM391,147.22C390.644,147.541,390.27,147.842,389.879,148.12C389.488,148.398,389.081,148.652,388.661,148.883C388.24,149.113,387.806,149.319,387.362,149.499C386.917,149.679,386.462,149.833,386,149.96C380.83,151.75,377.69,153.82,377.69,167.28L377.69,185.37C373.79,177.49,367.2,161.92,370.04,151.57C370.38,150.2,370.692,148.823,370.976,147.44C371.259,146.057,371.515,144.669,371.742,143.276C371.969,141.882,372.167,140.485,372.337,139.083C372.507,137.682,372.648,136.277,372.76,134.87C373.54,127.42,374.76,121.75,377.21,119.3C377.396,119.144,377.596,119.004,377.806,118.882C378.016,118.759,378.236,118.655,378.464,118.57C378.692,118.485,378.927,118.42,379.166,118.374C379.405,118.329,379.647,118.304,379.89,118.3C391.28,118.02,396.44,130,396.44,130C396.529,130.205,396.612,130.413,396.688,130.623C396.764,130.834,396.833,131.047,396.896,131.261C396.959,131.476,397.015,131.693,397.064,131.911C397.113,132.129,397.155,132.349,397.19,132.57C398,138.2,394.36,144,391,147.22Z" fill="#ff7200"/>
                </g>
            </g>
        </g>
    </g>
    <g transform="translate(140.82,79.5794) translate(-52,-11.5094)" style="animation: 10s linear infinite both a11_t;">
        <path class="cls-46" d="M88.82,100.08C88.82,100.08,90.18,92.08,104.45,92.08C104.45,92.08,103.09,78.47,123.45,78.47C123.45,78.47,125.45,68.07,138.45,68.07C149.32,68.07,151.36,76.87,151.36,76.87C151.36,76.87,161.56,72.87,169.71,76.87C177.86,80.87,177.19,89.68,177.19,89.68C177.19,89.68,192.82,88.08,192.82,100.08Z" fill="#33b05c" transform="translate(52,16.005) translate(-140.82,-84.075)"/>
        <g mask="url(#Mask-2)" transform="translate(46.59,61.61) translate(-17.77,-22.11)">
            <path class="cls-47" d="M133.5,113.73L122.72,113.73L117.64,137.84L123.99,136.25L117.96,151.79L132.24,130.54L125.26,130.54L133.5,113.73Z" fill="#ffe75a" transform="translate(7.93,-29.4612) translate(-125.57,-132.76)" style="animation: 10s linear infinite both a12_t;"/>
            <path class="cls-48" d="M153.18,107.57L144.77,107.57L140.81,126.37L145.76,125.14L141.06,137.26L152.19,120.68L146.75,120.68L153.18,107.57Z" fill="#ff9632" transform="translate(29.355,-26.0479) translate(-146.995,-122.415)" style="animation: 10s linear infinite both a13_t;"/>
        </g>
    </g>
    <path class="cls-16" d="M273.79,79.27C273.79,79.27,271.79,69.1,282.61,65.71C293.43,62.32,294.82,68.42,294.82,68.42C294.82,68.42,292.69,57.69,303.64,56.21C313.05,54.93,314.49,60.96,314.49,60.96C314.49,60.96,317.21,43.51,339.59,43.51C361.97,43.51,366.05,61,366.05,61C366.05,61,376.23,55.57,383.69,59.64C391.15,63.71,389.8,69.14,389.8,69.14C389.8,69.14,404.72,65.75,411.5,72.53C417.36,78.39,416.25,79.31,416.25,79.31Z" fill="#80ce99" transform="translate(344.989,61.41) translate(-344.989,-61.41)" style="animation: 10s linear infinite both a14_t;"/>
    <path class="cls-10" d="M422.44,117.55C422.44,117.55,423.61,111.71,435.88,111.71C435.88,111.71,434.71,101.77,452.25,101.77C452.25,101.77,454.01,94.17,465.12,94.17C474.47,94.17,476.23,100.6,476.23,100.6C476.23,100.6,485,97.67,492.01,100.6C499.02,103.53,498.44,109.95,498.44,109.95C498.44,109.95,511.89,108.78,511.89,117.55Z" fill="#b3e1c2" transform="translate(467.165,105.86) translate(-467.165,-105.86)" style="animation: 10s linear infinite both a15_t;"/>
    <path class="cls-50" d="M386.207,118.72L393.74,118.76L395.996,128.406L386.184,128.331Z" fill="url(#Gradient-14)" opacity="0" transform="translate(0,0.035)" style="animation: 10s linear infinite both a16_o;"/>
</svg>
