<?xml version="1.0" encoding="UTF-8" standalone="no"?>
<!-- Created with Keyshape -->
<svg xmlns="http://www.w3.org/2000/svg" viewBox="0 0 670 400">
    <defs>
        <linearGradient id="Gradient-0" x1="158.6" y1="295.83" x2="412.73" y2="295.83" gradientUnits="userSpaceOnUse">
            <stop offset="0" stop-color="#4dba71"/>
            <stop offset="1" stop-color="#007d29"/>
        </linearGradient>
        <linearGradient id="Gradient-1" x1="387.23" y1="301" x2="555.01" y2="301" gradientUnits="userSpaceOnUse">
            <stop offset="0" stop-color="#4dba71"/>
            <stop offset="1" stop-color="#007d29"/>
        </linearGradient>
        <linearGradient id="Gradient-2" x1="608.02" y1="331.4" x2="608.02" y2="205.13" gradientUnits="userSpaceOnUse">
            <stop offset="0" stop-color="#4dba71"/>
            <stop offset="1" stop-color="#007d29"/>
        </linearGradient>
        <linearGradient id="Gradient-3" x1="564.8" y1="333.67" x2="651.23" y2="333.67" gradientUnits="userSpaceOnUse">
            <stop offset="0" stop-color="#4dba71"/>
            <stop offset="1" stop-color="#007d29"/>
        </linearGradient>
        <linearGradient id="Gradient-4" x1="319.32" y1="231.08" x2="400.14" y2="231.08" gradientUnits="userSpaceOnUse">
            <stop offset="0" stop-color="#ff9632"/>
            <stop offset="1" stop-color="#ff7200"/>
        </linearGradient>
        <linearGradient id="Gradient-5" x1="105.035" y1="101.504" x2="105.268" y2="10.7971" gradientUnits="userSpaceOnUse">
            <stop offset="0" stop-color="#ffffff"/>
            <stop offset="1" stop-color="#000000"/>
        </linearGradient>
        <mask id="Mask-1">
            <rect width="317.602" height="325.699" fill="url(#Gradient-5)" stroke="none" transform="translate(131.145,66.374) translate(-158.801,-137.658)"/>
        </mask>
    </defs>
    <style>
@keyframes a0_t { 0% { transform: translate(12.5961px,0px); animation-timing-function: cubic-bezier(0.42,0,0.58,1); } 50% { transform: translate(-14.3956px,0px); animation-timing-function: cubic-bezier(0.42,0,0.58,1); } 100% { transform: translate(12.5961px,0px); } }
@keyframes a1_t { 0% { transform: translate(0px,0px); animation-timing-function: cubic-bezier(0.42,0,0.58,1); } 50% { transform: translate(34.189px,0px); animation-timing-function: cubic-bezier(0.42,0,0.58,1); } 100% { transform: translate(0px,0px); } }
@keyframes a2_t { 0% { transform: translate(0px,0px); animation-timing-function: cubic-bezier(0.42,0,0.58,1); } 50% { transform: translate(22.493px,0px); animation-timing-function: cubic-bezier(0.42,0,0.58,1); } 100% { transform: translate(0px,0px); } }
@keyframes windturbine_t { 0% { transform: translate(441.813px,146.548px) rotate(0deg) translate(-441.813px,-146.548px); } 100% { transform: translate(441.813px,146.548px) rotate(360deg) translate(-441.813px,-146.548px); } }
@keyframes a3_t { 0% { transform: translate(533.018px,168.635px) rotate(60deg) translate(-533.018px,-168.635px); } 100% { transform: translate(533.018px,168.635px) rotate(420deg) translate(-533.018px,-168.635px); } }
@keyframes fire3_o { 0% { opacity: 0; } 50% { opacity: 0; } 55% { opacity: 1; } 100% { opacity: 1; } }
@keyframes a4_t { 0% { transform: translate(181.508px,240.272px) scale(1,1) translate(-181.508px,-240.272px); } 60% { transform: translate(181.508px,240.272px) scale(1,1) translate(-181.508px,-240.272px); animation-timing-function: cubic-bezier(0.42,0,0.58,1); } 65% { transform: translate(181.508px,240.272px) scale(0.8,0.8) translate(-181.508px,-240.272px); animation-timing-function: cubic-bezier(0.42,0,0.58,1); } 70% { transform: translate(181.508px,240.272px) scale(1,1) translate(-181.508px,-240.272px); animation-timing-function: cubic-bezier(0.42,0,0.58,1); } 75% { transform: translate(181.508px,240.272px) scale(0.8,0.8) translate(-181.508px,-240.272px); animation-timing-function: cubic-bezier(0.42,0,0.58,1); } 80% { transform: translate(181.508px,240.272px) scale(1,1) translate(-181.508px,-240.272px); animation-timing-function: cubic-bezier(0.42,0,0.58,1); } 85% { transform: translate(181.508px,240.272px) scale(0.8,0.8) translate(-181.508px,-240.272px); animation-timing-function: cubic-bezier(0.42,0,0.58,1); } 90% { transform: translate(181.508px,240.272px) scale(1,1) translate(-181.508px,-240.272px); animation-timing-function: cubic-bezier(0.42,0,0.58,1); } 95% { transform: translate(181.508px,240.272px) scale(0.8,0.8) translate(-181.508px,-240.272px); animation-timing-function: cubic-bezier(0.42,0,0.58,1); } 100% { transform: translate(181.508px,240.272px) scale(1,1) translate(-181.508px,-240.272px); } }
@keyframes a5_t { 0% { transform: translate(181.16px,244.097px) scale(1,1) translate(-181.16px,-244.097px); } 65% { transform: translate(181.16px,244.097px) scale(1,1) translate(-181.16px,-244.097px); animation-timing-function: cubic-bezier(0.42,0,0.58,1); } 70% { transform: translate(181.16px,244.097px) scale(0.8,0.8) translate(-181.16px,-244.097px); animation-timing-function: cubic-bezier(0.42,0,0.58,1); } 75% { transform: translate(181.16px,244.097px) scale(1,1) translate(-181.16px,-244.097px); animation-timing-function: cubic-bezier(0.42,0,0.58,1); } 80% { transform: translate(181.16px,244.097px) scale(0.8,0.8) translate(-181.16px,-244.097px); animation-timing-function: cubic-bezier(0.42,0,0.58,1); } 85% { transform: translate(181.16px,244.097px) scale(1,1) translate(-181.16px,-244.097px); animation-timing-function: cubic-bezier(0.42,0,0.58,1); } 90% { transform: translate(181.16px,244.097px) scale(0.8,0.8) translate(-181.16px,-244.097px); animation-timing-function: cubic-bezier(0.42,0,0.58,1); } 95% { transform: translate(181.16px,244.097px) scale(1,1) translate(-181.16px,-244.097px); animation-timing-function: cubic-bezier(0.42,0,0.58,1); } 100% { transform: translate(181.16px,244.097px) scale(0.8,0.8) translate(-181.16px,-244.097px); } }
@keyframes fire1_o { 0% { opacity: 0; } 30% { opacity: 0; } 35% { opacity: 1; } 100% { opacity: 1; } }
@keyframes a6_t { 0% { transform: translate(457.28px,218.49px) scale(1,1) translate(-457.28px,-218.49px); } 20% { transform: translate(457.28px,218.49px) scale(1,1) translate(-457.28px,-218.49px); animation-timing-function: cubic-bezier(0.42,0,0.58,1); } 25% { transform: translate(457.28px,218.49px) scale(0.8,0.8) translate(-457.28px,-218.49px); animation-timing-function: cubic-bezier(0.42,0,0.58,1); } 30% { transform: translate(457.28px,218.49px) scale(1,1) translate(-457.28px,-218.49px); animation-timing-function: cubic-bezier(0.42,0,0.58,1); } 35% { transform: translate(457.28px,218.49px) scale(0.8,0.8) translate(-457.28px,-218.49px); animation-timing-function: cubic-bezier(0.42,0,0.58,1); } 40% { transform: translate(457.28px,218.49px) scale(1,1) translate(-457.28px,-218.49px); animation-timing-function: cubic-bezier(0.42,0,0.58,1); } 45% { transform: translate(457.28px,218.49px) scale(0.8,0.8) translate(-457.28px,-218.49px); animation-timing-function: cubic-bezier(0.42,0,0.58,1); } 50% { transform: translate(457.28px,218.49px) scale(1,1) translate(-457.28px,-218.49px); animation-timing-function: cubic-bezier(0.42,0,0.58,1); } 55% { transform: translate(457.28px,218.49px) scale(0.8,0.8) translate(-457.28px,-218.49px); animation-timing-function: cubic-bezier(0.42,0,0.58,1); } 60% { transform: translate(457.28px,218.49px) scale(1,1) translate(-457.28px,-218.49px); animation-timing-function: cubic-bezier(0.42,0,0.58,1); } 65% { transform: translate(457.28px,218.49px) scale(0.8,0.8) translate(-457.28px,-218.49px); animation-timing-function: cubic-bezier(0.42,0,0.58,1); } 70% { transform: translate(457.28px,218.49px) scale(1,1) translate(-457.28px,-218.49px); animation-timing-function: cubic-bezier(0.42,0,0.58,1); } 75% { transform: translate(457.28px,218.49px) scale(0.8,0.8) translate(-457.28px,-218.49px); animation-timing-function: cubic-bezier(0.42,0,0.58,1); } 80% { transform: translate(457.28px,218.49px) scale(1,1) translate(-457.28px,-218.49px); animation-timing-function: cubic-bezier(0.42,0,0.58,1); } 85% { transform: translate(457.28px,218.49px) scale(0.8,0.8) translate(-457.28px,-218.49px); animation-timing-function: cubic-bezier(0.42,0,0.58,1); } 90% { transform: translate(457.28px,218.49px) scale(1,1) translate(-457.28px,-218.49px); animation-timing-function: cubic-bezier(0.42,0,0.58,1); } 95% { transform: translate(457.28px,218.49px) scale(0.8,0.8) translate(-457.28px,-218.49px); animation-timing-function: cubic-bezier(0.42,0,0.58,1); } 100% { transform: translate(457.28px,218.49px) scale(1,1) translate(-457.28px,-218.49px); } }
@keyframes a7_t { 0% { transform: translate(459.311px,221.789px) scale(1,1) translate(-459.311px,-221.789px); } 25% { transform: translate(459.311px,221.789px) scale(1,1) translate(-459.311px,-221.789px); animation-timing-function: cubic-bezier(0.42,0,0.58,1); } 30% { transform: translate(459.311px,221.789px) scale(0.8,0.8) translate(-459.311px,-221.789px); animation-timing-function: cubic-bezier(0.42,0,0.58,1); } 35% { transform: translate(459.311px,221.789px) scale(1,1) translate(-459.311px,-221.789px); animation-timing-function: cubic-bezier(0.42,0,0.58,1); } 40% { transform: translate(459.311px,221.789px) scale(0.8,0.8) translate(-459.311px,-221.789px); animation-timing-function: cubic-bezier(0.42,0,0.58,1); } 45% { transform: translate(459.311px,221.789px) scale(1,1) translate(-459.311px,-221.789px); animation-timing-function: cubic-bezier(0.42,0,0.58,1); } 50% { transform: translate(459.311px,221.789px) scale(0.8,0.8) translate(-459.311px,-221.789px); animation-timing-function: cubic-bezier(0.42,0,0.58,1); } 55% { transform: translate(459.311px,221.789px) scale(1,1) translate(-459.311px,-221.789px); animation-timing-function: cubic-bezier(0.42,0,0.58,1); } 60% { transform: translate(459.311px,221.789px) scale(0.8,0.8) translate(-459.311px,-221.789px); animation-timing-function: cubic-bezier(0.42,0,0.58,1); } 65% { transform: translate(459.311px,221.789px) scale(1,1) translate(-459.311px,-221.789px); animation-timing-function: cubic-bezier(0.42,0,0.58,1); } 70% { transform: translate(459.311px,221.789px) scale(0.8,0.8) translate(-459.311px,-221.789px); animation-timing-function: cubic-bezier(0.42,0,0.58,1); } 75% { transform: translate(459.311px,221.789px) scale(1,1) translate(-459.311px,-221.789px); animation-timing-function: cubic-bezier(0.42,0,0.58,1); } 80% { transform: translate(459.311px,221.789px) scale(0.8,0.8) translate(-459.311px,-221.789px); animation-timing-function: cubic-bezier(0.42,0,0.58,1); } 85% { transform: translate(459.311px,221.789px) scale(1,1) translate(-459.311px,-221.789px); animation-timing-function: cubic-bezier(0.42,0,0.58,1); } 90% { transform: translate(459.311px,221.789px) scale(0.8,0.8) translate(-459.311px,-221.789px); animation-timing-function: cubic-bezier(0.42,0,0.58,1); } 95% { transform: translate(459.311px,221.789px) scale(1,1) translate(-459.311px,-221.789px); animation-timing-function: cubic-bezier(0.42,0,0.58,1); } 100% { transform: translate(459.311px,221.789px) scale(0.8,0.8) translate(-459.311px,-221.789px); } }
@keyframes fire2_o { 0% { opacity: 0; } 40% { opacity: 0; } 45% { opacity: 1; } 100% { opacity: 1; } }
@keyframes a8_t { 0% { transform: translate(287.128px,150.663px) scale(1,1) translate(-287.128px,-150.663px); } 40% { transform: translate(287.128px,150.663px) scale(1,1) translate(-287.128px,-150.663px); animation-timing-function: cubic-bezier(0.42,0,0.58,1); } 45% { transform: translate(287.128px,150.663px) scale(0.8,0.8) translate(-287.128px,-150.663px); animation-timing-function: cubic-bezier(0.42,0,0.58,1); } 50% { transform: translate(287.128px,150.663px) scale(1,1) translate(-287.128px,-150.663px); animation-timing-function: cubic-bezier(0.42,0,0.58,1); } 55% { transform: translate(287.128px,150.663px) scale(0.8,0.8) translate(-287.128px,-150.663px); animation-timing-function: cubic-bezier(0.42,0,0.58,1); } 60% { transform: translate(287.128px,150.663px) scale(1,1) translate(-287.128px,-150.663px); animation-timing-function: cubic-bezier(0.42,0,0.58,1); } 65% { transform: translate(287.128px,150.663px) scale(0.8,0.8) translate(-287.128px,-150.663px); animation-timing-function: cubic-bezier(0.42,0,0.58,1); } 70% { transform: translate(287.128px,150.663px) scale(1,1) translate(-287.128px,-150.663px); animation-timing-function: cubic-bezier(0.42,0,0.58,1); } 75% { transform: translate(287.128px,150.663px) scale(0.8,0.8) translate(-287.128px,-150.663px); animation-timing-function: cubic-bezier(0.42,0,0.58,1); } 80% { transform: translate(287.128px,150.663px) scale(1,1) translate(-287.128px,-150.663px); animation-timing-function: cubic-bezier(0.42,0,0.58,1); } 85% { transform: translate(287.128px,150.663px) scale(0.8,0.8) translate(-287.128px,-150.663px); animation-timing-function: cubic-bezier(0.42,0,0.58,1); } 90% { transform: translate(287.128px,150.663px) scale(1,1) translate(-287.128px,-150.663px); animation-timing-function: cubic-bezier(0.42,0,0.58,1); } 95% { transform: translate(287.128px,150.663px) scale(0.8,0.8) translate(-287.128px,-150.663px); animation-timing-function: cubic-bezier(0.42,0,0.58,1); } 100% { transform: translate(287.128px,150.663px) scale(1,1) translate(-287.128px,-150.663px); } }
@keyframes a9_t { 0% { transform: translate(283.578px,153.03px) scale(1,1) translate(-283.578px,-153.03px); } 45% { transform: translate(283.578px,153.03px) scale(1,1) translate(-283.578px,-153.03px); animation-timing-function: cubic-bezier(0.42,0,0.58,1); } 50% { transform: translate(283.578px,153.03px) scale(0.8,0.8) translate(-283.578px,-153.03px); animation-timing-function: cubic-bezier(0.42,0,0.58,1); } 55% { transform: translate(283.578px,153.03px) scale(1,1) translate(-283.578px,-153.03px); animation-timing-function: cubic-bezier(0.42,0,0.58,1); } 60% { transform: translate(283.578px,153.03px) scale(0.8,0.8) translate(-283.578px,-153.03px); animation-timing-function: cubic-bezier(0.42,0,0.58,1); } 65% { transform: translate(283.578px,153.03px) scale(1,1) translate(-283.578px,-153.03px); animation-timing-function: cubic-bezier(0.42,0,0.58,1); } 70% { transform: translate(283.578px,153.03px) scale(0.8,0.8) translate(-283.578px,-153.03px); animation-timing-function: cubic-bezier(0.42,0,0.58,1); } 75% { transform: translate(283.578px,153.03px) scale(1,1) translate(-283.578px,-153.03px); animation-timing-function: cubic-bezier(0.42,0,0.58,1); } 80% { transform: translate(283.578px,153.03px) scale(0.8,0.8) translate(-283.578px,-153.03px); animation-timing-function: cubic-bezier(0.42,0,0.58,1); } 85% { transform: translate(283.578px,153.03px) scale(1,1) translate(-283.578px,-153.03px); animation-timing-function: cubic-bezier(0.42,0,0.58,1); } 90% { transform: translate(283.578px,153.03px) scale(0.8,0.8) translate(-283.578px,-153.03px); animation-timing-function: cubic-bezier(0.42,0,0.58,1); } 95% { transform: translate(283.578px,153.03px) scale(1,1) translate(-283.578px,-153.03px); animation-timing-function: cubic-bezier(0.42,0,0.58,1); } 100% { transform: translate(283.578px,153.03px) scale(0.8,0.8) translate(-283.578px,-153.03px); } }
@keyframes a11_t { 0% { transform: translate(608.31px,322.438px); animation-timing-function: cubic-bezier(0.42,0,0.58,1); } 20% { transform: translate(608.31px,333.22px); } 100% { transform: translate(608.31px,333.22px); } }
@keyframes a10_t { 0% { transform: rotate(0deg) translate(-608.31px,-333.676px); } 20% { transform: rotate(0deg) translate(-608.31px,-333.676px); animation-timing-function: cubic-bezier(0.42,0,0.58,1); } 30% { transform: rotate(-40deg) translate(-608.31px,-333.676px); } 100% { transform: rotate(-40deg) translate(-608.31px,-333.676px); } }
@keyframes a12_d { 0% { d: path('M601.58,219.43C597.42,219.77,596.25,226.43,593.73,227.72C590.89,229.23,589.66,228.53,587.83,226.65L587.83,203C587.59,196.22,591.32,191.93,596.16,191.5L619.88,191.5C621.69,191.5,626.73,192.69,628.15,200.02C628.59,202.3,628.15,205.75,628.21,209.72C628.27,213.69,628.21,211.15,628.21,218.67C628.21,218.67,626.29,217.33,623.87,219.47C621.45,221.61,622.8,231.24,617.76,231.82C611.39,232.56,609.84,218.8,601.58,219.43Z'); animation-timing-function: cubic-bezier(0.42,0,0.58,1); } 30% { d: path('M601.58,256.729C597.42,257.069,596.25,263.729,593.73,265.019C590.89,266.529,589.66,265.829,587.83,263.949L587.83,203C587.59,196.22,591.32,191.93,596.16,191.5L619.88,191.5C621.69,191.5,626.73,192.69,628.15,200.02C628.59,202.3,628.15,205.75,628.21,209.72C628.27,213.69,628.21,248.449,628.21,255.969C628.21,255.969,626.29,254.629,623.87,256.769C621.45,258.909,622.8,268.539,617.76,269.119C611.39,269.859,609.84,256.099,601.58,256.729Z'); } 100% { d: path('M601.58,256.729C597.42,257.069,596.25,263.729,593.73,265.019C590.89,266.529,589.66,265.829,587.83,263.949L587.83,203C587.59,196.22,591.32,191.93,596.16,191.5L619.88,191.5C621.69,191.5,626.73,192.69,628.15,200.02C628.59,202.3,628.15,205.75,628.21,209.72C628.27,213.69,628.21,248.449,628.21,255.969C628.21,255.969,626.29,254.629,623.87,256.769C621.45,258.909,622.8,268.539,617.76,269.119C611.39,269.859,609.84,256.099,601.58,256.729Z'); } }
@keyframes a13_d { 0% { d: path('M608.07,134.742C605.879,134.763,589.15,157.78,591.55,171.4C593.92,184.79,606.39,184.79,608.09,184.79C609.79,184.79,622.26,184.79,624.62,171.4C627,157.78,609.022,134.763,608.07,134.742Z'); animation-timing-function: cubic-bezier(0.42,0,0.58,1); } 5% { d: path('M608.07,134.742C599.383,138.33,589.15,157.78,591.55,171.4C593.92,184.79,606.39,184.79,608.09,184.79C609.79,184.79,622.26,184.79,624.62,171.4C627,157.78,606.148,145.671,608.07,134.742Z'); animation-timing-function: cubic-bezier(0.42,0,0.58,1); } 10% { d: path('M608.07,134.742C615.216,148.118,589.15,157.78,591.55,171.4C593.92,184.79,606.39,184.79,608.09,184.79C609.79,184.79,622.26,184.79,624.62,171.4C627,157.78,620.254,141.209,608.07,134.742Z'); animation-timing-function: cubic-bezier(0.42,0,0.58,1); } 15% { d: path('M608.07,134.742C599.383,138.33,589.15,157.78,591.55,171.4C593.92,184.79,606.39,184.79,608.09,184.79C609.79,184.79,622.26,184.79,624.62,171.4C627,157.78,606.148,145.671,608.07,134.742Z'); animation-timing-function: cubic-bezier(0.42,0,0.58,1); } 20% { d: path('M608.07,134.742C615.216,148.118,589.15,157.78,591.55,171.4C593.92,184.79,606.39,184.79,608.09,184.79C609.79,184.79,622.26,184.79,624.62,171.4C627,157.78,620.254,141.209,608.07,134.742Z'); animation-timing-function: cubic-bezier(0.42,0,0.58,1); } 25% { d: path('M608.07,134.742C599.383,138.33,589.15,157.78,591.55,171.4C593.92,184.79,606.39,184.79,608.09,184.79C609.79,184.79,622.26,184.79,624.62,171.4C627,157.78,606.148,145.671,608.07,134.742Z'); animation-timing-function: cubic-bezier(0.42,0,0.58,1); } 30% { d: path('M608.07,134.742C615.216,148.118,589.15,157.78,591.55,171.4C593.92,184.79,606.39,184.79,608.09,184.79C609.79,184.79,622.26,184.79,624.62,171.4C627,157.78,620.254,141.209,608.07,134.742Z'); animation-timing-function: cubic-bezier(0.42,0,0.58,1); } 35% { d: path('M608.07,134.742C599.383,138.33,589.15,157.78,591.55,171.4C593.92,184.79,606.39,184.79,608.09,184.79C609.79,184.79,622.26,184.79,624.62,171.4C627,157.78,606.148,145.671,608.07,134.742Z'); animation-timing-function: cubic-bezier(0.42,0,0.58,1); } 40% { d: path('M608.07,134.742C615.216,148.118,589.15,157.78,591.55,171.4C593.92,184.79,606.39,184.79,608.09,184.79C609.79,184.79,622.26,184.79,624.62,171.4C627,157.78,620.254,141.209,608.07,134.742Z'); animation-timing-function: cubic-bezier(0.42,0,0.58,1); } 45% { d: path('M608.07,134.742C599.383,138.33,589.15,157.78,591.55,171.4C593.92,184.79,606.39,184.79,608.09,184.79C609.79,184.79,622.26,184.79,624.62,171.4C627,157.78,606.148,145.671,608.07,134.742Z'); animation-timing-function: cubic-bezier(0.42,0,0.58,1); } 50% { d: path('M608.07,134.742C615.216,148.118,589.15,157.78,591.55,171.4C593.92,184.79,606.39,184.79,608.09,184.79C609.79,184.79,622.26,184.79,624.62,171.4C627,157.78,620.254,141.209,608.07,134.742Z'); animation-timing-function: cubic-bezier(0.42,0,0.58,1); } 55% { d: path('M608.07,134.742C599.383,138.33,589.15,157.78,591.55,171.4C593.92,184.79,606.39,184.79,608.09,184.79C609.79,184.79,622.26,184.79,624.62,171.4C627,157.78,606.148,145.671,608.07,134.742Z'); animation-timing-function: cubic-bezier(0.42,0,0.58,1); } 60% { d: path('M608.07,134.742C615.216,148.118,589.15,157.78,591.55,171.4C593.92,184.79,606.39,184.79,608.09,184.79C609.79,184.79,622.26,184.79,624.62,171.4C627,157.78,620.254,141.209,608.07,134.742Z'); animation-timing-function: cubic-bezier(0.42,0,0.58,1); } 65% { d: path('M608.07,134.742C599.383,138.33,589.15,157.78,591.55,171.4C593.92,184.79,606.39,184.79,608.09,184.79C609.79,184.79,622.26,184.79,624.62,171.4C627,157.78,606.148,145.671,608.07,134.742Z'); animation-timing-function: cubic-bezier(0.42,0,0.58,1); } 70% { d: path('M608.07,134.742C615.216,148.118,589.15,157.78,591.55,171.4C593.92,184.79,606.39,184.79,608.09,184.79C609.79,184.79,622.26,184.79,624.62,171.4C627,157.78,620.254,141.209,608.07,134.742Z'); animation-timing-function: cubic-bezier(0.42,0,0.58,1); } 75% { d: path('M608.07,134.742C599.383,138.33,589.15,157.78,591.55,171.4C593.92,184.79,606.39,184.79,608.09,184.79C609.79,184.79,622.26,184.79,624.62,171.4C627,157.78,606.148,145.671,608.07,134.742Z'); animation-timing-function: cubic-bezier(0.42,0,0.58,1); } 80% { d: path('M608.07,134.742C615.216,148.118,589.15,157.78,591.55,171.4C593.92,184.79,606.39,184.79,608.09,184.79C609.79,184.79,622.26,184.79,624.62,171.4C627,157.78,620.254,141.209,608.07,134.742Z'); animation-timing-function: cubic-bezier(0.42,0,0.58,1); } 85% { d: path('M608.07,134.742C599.383,138.33,589.15,157.78,591.55,171.4C593.92,184.79,606.39,184.79,608.09,184.79C609.79,184.79,622.26,184.79,624.62,171.4C627,157.78,606.148,145.671,608.07,134.742Z'); animation-timing-function: cubic-bezier(0.42,0,0.58,1); } 90% { d: path('M608.07,134.742C615.216,148.118,589.15,157.78,591.55,171.4C593.92,184.79,606.39,184.79,608.09,184.79C609.79,184.79,622.26,184.79,624.62,171.4C627,157.78,620.254,141.209,608.07,134.742Z'); animation-timing-function: cubic-bezier(0.42,0,0.58,1); } 95% { d: path('M608.07,134.742C599.383,138.33,589.15,157.78,591.55,171.4C593.92,184.79,606.39,184.79,608.09,184.79C609.79,184.79,622.26,184.79,624.62,171.4C627,157.78,606.148,145.671,608.07,134.742Z'); animation-timing-function: cubic-bezier(0.42,0,0.58,1); } 100% { d: path('M608.07,134.742C615.216,148.118,589.15,157.78,591.55,171.4C593.92,184.79,606.39,184.79,608.09,184.79C609.79,184.79,622.26,184.79,624.62,171.4C627,157.78,620.254,141.209,608.07,134.742Z'); } }
@keyframes a14_t { 0% { transform: translate(608.044px,177.066px) scale(1,1) translate(-608.044px,-177.066px); animation-timing-function: cubic-bezier(0.42,0,0.58,1); } 5% { transform: translate(608.044px,177.066px) scale(0.8,0.8) translate(-608.044px,-177.066px); animation-timing-function: cubic-bezier(0.42,0,0.58,1); } 10% { transform: translate(608.044px,177.066px) scale(1,1) translate(-608.044px,-177.066px); animation-timing-function: cubic-bezier(0.42,0,0.58,1); } 15% { transform: translate(608.044px,177.066px) scale(0.8,0.8) translate(-608.044px,-177.066px); animation-timing-function: cubic-bezier(0.42,0,0.58,1); } 20% { transform: translate(608.044px,177.066px) scale(1,1) translate(-608.044px,-177.066px); animation-timing-function: cubic-bezier(0.42,0,0.58,1); } 25% { transform: translate(608.044px,177.066px) scale(0.8,0.8) translate(-608.044px,-177.066px); animation-timing-function: cubic-bezier(0.42,0,0.58,1); } 30% { transform: translate(608.044px,177.066px) scale(1,1) translate(-608.044px,-177.066px); animation-timing-function: cubic-bezier(0.42,0,0.58,1); } 35% { transform: translate(608.044px,177.066px) scale(0.8,0.8) translate(-608.044px,-177.066px); animation-timing-function: cubic-bezier(0.42,0,0.58,1); } 40% { transform: translate(608.044px,177.066px) scale(1,1) translate(-608.044px,-177.066px); animation-timing-function: cubic-bezier(0.42,0,0.58,1); } 45% { transform: translate(608.044px,177.066px) scale(0.8,0.8) translate(-608.044px,-177.066px); animation-timing-function: cubic-bezier(0.42,0,0.58,1); } 50% { transform: translate(608.044px,177.066px) scale(1,1) translate(-608.044px,-177.066px); animation-timing-function: cubic-bezier(0.42,0,0.58,1); } 55% { transform: translate(608.044px,177.066px) scale(0.8,0.8) translate(-608.044px,-177.066px); animation-timing-function: cubic-bezier(0.42,0,0.58,1); } 60% { transform: translate(608.044px,177.066px) scale(1,1) translate(-608.044px,-177.066px); animation-timing-function: cubic-bezier(0.42,0,0.58,1); } 65% { transform: translate(608.044px,177.066px) scale(0.8,0.8) translate(-608.044px,-177.066px); animation-timing-function: cubic-bezier(0.42,0,0.58,1); } 70% { transform: translate(608.044px,177.066px) scale(1,1) translate(-608.044px,-177.066px); animation-timing-function: cubic-bezier(0.42,0,0.58,1); } 75% { transform: translate(608.044px,177.066px) scale(0.8,0.8) translate(-608.044px,-177.066px); animation-timing-function: cubic-bezier(0.42,0,0.58,1); } 80% { transform: translate(608.044px,177.066px) scale(1,1) translate(-608.044px,-177.066px); animation-timing-function: cubic-bezier(0.42,0,0.58,1); } 85% { transform: translate(608.044px,177.066px) scale(0.8,0.8) translate(-608.044px,-177.066px); animation-timing-function: cubic-bezier(0.42,0,0.58,1); } 90% { transform: translate(608.044px,177.066px) scale(1,1) translate(-608.044px,-177.066px); animation-timing-function: cubic-bezier(0.42,0,0.58,1); } 95% { transform: translate(608.044px,177.066px) scale(0.8,0.8) translate(-608.044px,-177.066px); animation-timing-function: cubic-bezier(0.42,0,0.58,1); } 100% { transform: translate(608.044px,177.066px) scale(1,1) translate(-608.044px,-177.066px); } }
@keyframes a15_t { 0% { transform: translate(143.902px,-258.825px); } 50% { transform: translate(143.902px,-258.825px); animation-timing-function: cubic-bezier(0.42,0,0.58,1); } 60% { transform: translate(143.902px,41.1746px); } 100% { transform: translate(143.902px,41.1746px); } }
@keyframes tag_t { 0% { transform: rotate(0deg) translate(-384.862px,-113.707px); } 50% { transform: rotate(0deg) translate(-384.862px,-113.707px); animation-timing-function: cubic-bezier(0.42,0,0.58,1); } 60% { transform: rotate(30deg) translate(-384.862px,-113.707px); animation-timing-function: cubic-bezier(0.42,0,0.58,1); } 70% { transform: rotate(-20deg) translate(-384.862px,-113.707px); animation-timing-function: cubic-bezier(0.42,0,0.58,1); } 80% { transform: rotate(0deg) translate(-384.862px,-113.707px); } 100% { transform: rotate(0deg) translate(-384.862px,-113.707px); } }
    </style>
    <title>tiberiusf2</title>
    <path class="cls-1" d="M19.49,236.56C19.49,236.56,21.1,227.09,38,227.09C38,227.09,36.39,210.98,60.53,210.98C60.53,210.98,62.94,198.67,78.23,198.67C91.11,198.67,93.52,209.09,93.52,209.09C93.52,209.09,105.59,204.35,115.25,209.09C124.91,213.83,124.1,224.25,124.1,224.25C124.1,224.25,142.6,222.35,142.6,236.56Z" fill="#e6f5eb" transform="translate(93.6411,217.615) translate(-81.045,-217.615)" style="animation: 10s linear infinite both a0_t;"/>
    <path class="cls-1" d="M463.23,139.67C463.23,139.67,464.78,131.92,481.06,131.92C481.06,131.92,479.51,118.74,502.76,118.74C502.76,118.74,505.08,108.67,519.76,108.67C532.16,108.67,534.48,117.19,534.48,117.19C534.48,117.19,546.11,113.32,555.41,117.19C564.71,121.06,563.93,129.59,563.93,129.59C563.93,129.59,581.76,128.04,581.76,139.67Z" fill="#e6f5eb" transform="translate(522.495,124.17) translate(-522.495,-124.17)" style="animation: 10s linear infinite both a1_t;"/>
    <path class="cls-1" d="M105.09,151.82C105.09,151.82,102.22,137.52,117.48,132.75C132.74,127.98,134.65,136.57,134.65,136.57C134.65,136.57,133.09,121,147,119.4C160.27,117.92,162.26,126.08,162.26,126.08C162.26,126.08,166.08,100.08,197.55,100.08C229.02,100.08,234.74,126.08,234.74,126.08C234.74,126.08,249.04,118.45,259.53,124.17C270.02,129.89,268.11,137.52,268.11,137.52C268.11,137.52,289.11,132.75,298.63,142.29C306.86,150.52,305.3,151.82,305.3,151.82Z" fill="#e6f5eb" transform="translate(205.147,125.95) translate(-205.147,-125.95)" style="animation: 10s linear infinite both a2_t;"/>
    <g>
        <path class="cls-2" d="M439.33,151.89L436.8,256.77L446.94,256.77L443.99,151.89L439.33,151.89Z" fill="#ccebd6"/>
        <g id="windturbine" transform="translate(441.813,146.548) translate(-441.813,-146.548)" style="animation: 10s linear infinite both windturbine_t;">
            <path class="cls-3" d="M441,141.71C441,141.71,441.7,116.9,454.08,103.21C454.143,103.145,454.223,103.101,454.31,103.081C454.398,103.061,454.49,103.068,454.574,103.1C454.658,103.132,454.731,103.188,454.783,103.261C454.836,103.333,454.866,103.42,454.87,103.51C454.93,108.24,454.56,127.22,445.55,142.24C445.523,142.288,445.487,142.33,445.444,142.364C445.401,142.399,445.353,142.425,445.3,142.442C445.248,142.458,445.193,142.465,445.138,142.461C445.083,142.457,445.03,142.443,444.98,142.42L440.98,141.71" fill="#b3e1c2"/>
            <path class="cls-4" d="M443.3,142.13L440.97,141.71" fill="#80ce99"/>
            <path class="cls-3" d="M447.15,147.68C447.15,147.68,468.49,160.36,474.42,177.84C474.449,177.926,474.451,178.018,474.427,178.105C474.403,178.192,474.353,178.27,474.284,178.328C474.215,178.386,474.13,178.422,474.04,178.432C473.95,178.441,473.86,178.423,473.78,178.38C469.62,176.13,453.21,166.58,444.47,151.38C444.442,151.333,444.424,151.282,444.415,151.228C444.406,151.175,444.407,151.12,444.418,151.067C444.429,151.014,444.45,150.963,444.479,150.917C444.508,150.872,444.546,150.832,444.59,150.8L447.15,147.66" fill="#b3e1c2"/>
            <path class="cls-3" d="M436.94,145C436.94,145,412.13,145.87,398.53,158.34C398.463,158.402,398.417,158.482,398.397,158.571C398.377,158.659,398.384,158.752,398.418,158.836C398.451,158.921,398.51,158.993,398.585,159.044C398.66,159.094,398.749,159.121,398.84,159.12C403.57,159.12,422.54,158.66,437.5,149.55C437.547,149.522,437.588,149.486,437.622,149.443C437.656,149.4,437.682,149.351,437.698,149.299C437.715,149.247,437.722,149.192,437.718,149.138C437.715,149.083,437.702,149.03,437.68,148.98L436.94,144.98" fill="#b3e1c2"/>
            <ellipse class="cls-2" rx="6.04" ry="6.04" fill="#ccebd6" transform="translate(0,0) translate(441.87,146.62)"/>
            <ellipse class="cls-5" rx="3.19" ry="3.19" fill="#99d7ad" transform="translate(0,0) translate(441.87,146.62)"/>
        </g>
    </g>
    <path class="cls-2" d="M530.49,173.81L527.95,278.69L538.1,278.69L535.14,173.81L530.49,173.81Z" fill="#ccebd6"/>
    <g transform="translate(533.018,168.635) rotate(60) translate(-533.018,-168.635)" style="animation: 10s linear infinite both a3_t;">
        <path class="cls-3" d="M529.83,164.7C529.83,164.7,521.73,141.23,528.48,124.06C528.513,123.975,528.57,123.902,528.645,123.851C528.72,123.799,528.809,123.772,528.9,123.772C528.991,123.772,529.08,123.799,529.155,123.851C529.23,123.902,529.287,123.975,529.32,124.06C531.05,128.46,537.41,146.34,534.32,163.58C534.309,163.633,534.289,163.684,534.261,163.731C534.233,163.777,534.196,163.818,534.153,163.852C534.111,163.885,534.062,163.911,534.01,163.928C533.959,163.945,533.904,163.952,533.85,163.95L529.85,164.69" fill="#b3e1c2"/>
        <path class="cls-4" d="M534.45,164.05L532.13,163.63" fill="#80ce99"/>
        <path class="cls-3" d="M537.72,168.11C537.72,168.11,562.16,172.44,573.88,186.69C573.937,186.76,573.972,186.846,573.979,186.936C573.987,187.026,573.968,187.116,573.923,187.195C573.879,187.273,573.812,187.337,573.731,187.377C573.651,187.417,573.559,187.432,573.47,187.42C568.78,186.79,550.07,183.65,536.53,172.53C536.487,172.496,536.451,172.454,536.423,172.407C536.396,172.36,536.377,172.308,536.368,172.254C536.359,172.2,536.359,172.145,536.37,172.091C536.381,172.038,536.401,171.986,536.43,171.94L537.72,168.11" fill="#b3e1c2"/>
        <path class="cls-3" d="M527.24,169.23C527.24,169.23,504.33,178.8,496.01,195.23C495.97,195.311,495.956,195.401,495.969,195.49C495.981,195.58,496.02,195.663,496.08,195.729C496.14,195.796,496.219,195.843,496.307,195.865C496.394,195.886,496.486,195.881,496.57,195.85C501,194.21,518.57,187.05,529.37,173.25C529.406,173.209,529.434,173.161,529.453,173.11C529.472,173.059,529.481,173.005,529.481,172.95C529.481,172.895,529.472,172.841,529.453,172.79C529.434,172.739,529.406,172.691,529.37,172.65L527.28,169.19" fill="#b3e1c2"/>
        <ellipse class="cls-2" rx="6.04" ry="6.04" fill="#ccebd6" transform="translate(0,0) translate(533.03,168.54)"/>
        <ellipse class="cls-5" rx="3.19" ry="3.19" fill="#99d7ad" transform="translate(0,0) translate(533.03,168.54)"/>
    </g>
    <g id="fire3" opacity="0" style="animation: 10s linear infinite both fire3_o;">
        <path class="cls-6" d="M168.75,250.2C168.75,250.2,153,248.75,151.6,229.2C150.2,209.65,152.16,212.42,142.6,202.62L153.35,207.17C153.35,207.17,152.76,199.82,155.68,193.87C158.6,187.92,152.3,181.7,152.3,181.7C152.3,181.7,168.05,185.09,173.3,200.16L174.76,189.67C174.76,189.67,174.7,203.32,184.16,211.02C193.62,218.72,190.16,232.88,190.16,232.88C190.16,232.88,197.16,220.82,195.76,212.07C195.71,212.05,204.11,251.6,168.75,250.2Z" fill="#ffe75a" transform="translate(181.508,240.272) translate(-181.508,-240.272)" style="animation: 10s linear infinite both a4_t;"/>
        <path class="cls-7" d="M174.17,254.18C174.17,254.18,163.62,253.18,162.68,240.08C161.74,226.98,163.05,228.84,156.68,222.27L163.88,225.27C163.834,224.51,163.832,223.747,163.875,222.987C163.918,222.226,164.005,221.469,164.136,220.718C164.267,219.968,164.442,219.226,164.66,218.496C164.878,217.766,165.138,217.05,165.44,216.35C167.44,212.35,163.18,208.2,163.18,208.2C163.18,208.2,173.73,210.48,177.25,220.57L178.25,213.57C178.25,213.57,178.25,222.72,184.55,227.88C190.85,233.04,188.55,242.53,188.55,242.53C188.55,242.53,193.24,234.45,192.3,228.53C192.24,228.6,197.87,255.12,174.17,254.18Z" fill="#ff9632" transform="translate(181.16,244.097) translate(-181.16,-244.097)" style="animation: 10s linear infinite both a5_t;"/>
    </g>
    <g id="fire1" opacity="0" transform="translate(459.537,212.546) translate(-459.537,-212.546)" style="animation: 10s linear infinite both fire1_o;">
        <path class="cls-6" d="M449.78,220C449.78,220,437.13,210.5,446.21,193.09C455.29,175.68,455.49,179.09,452.49,165.75L459.25,175.26C459.25,175.26,462.61,168.69,468.25,165.16C473.89,161.63,471.75,153.03,471.75,153.03C471.75,153.03,483.38,164.18,479.95,179.76L486.69,171.59C486.69,171.59,479.48,183.19,483.49,194.7C487.5,206.21,477.09,216.43,477.09,216.43C477.09,216.43,489.37,209.84,492.77,201.66C492.74,201.63,479.14,239.71,449.78,220Z" fill="#ffe75a" transform="translate(457.28,218.49) translate(-457.28,-218.49)" style="animation: 10s linear infinite both a6_t;"/>
        <path class="cls-7" d="M452.31,226.19C452.31,226.19,443.83,219.83,449.91,208.19C455.99,196.55,456.13,198.82,454.13,189.86L458.66,196.24C459.019,195.569,459.417,194.92,459.852,194.295C460.286,193.671,460.757,193.072,461.262,192.502C461.767,191.933,462.305,191.393,462.872,190.887C463.44,190.38,464.037,189.907,464.66,189.47C468.43,187.1,467.02,181.34,467.02,181.34C467.02,181.34,474.81,188.81,472.51,199.26L477.03,193.78C477.03,193.78,472.2,201.55,474.88,209.27C477.56,216.99,470.59,223.83,470.59,223.83C470.59,223.83,478.83,219.42,481.1,213.93C481.1,213.9,472,239.43,452.31,226.19Z" fill="#ff9632" transform="translate(459.311,221.789) translate(-459.311,-221.789)" style="animation: 10s linear infinite both a7_t;"/>
    </g>
    <path class="cls-8" d="M158.6,351.996L158.6,231.75L412.73,231.75L412.73,266.62L387.23,266.62L387.23,351.79C387.23,351.79,158.6,351.996,158.6,351.996Z" fill="url(#Gradient-0)"/>
    <path class="cls-5" d="M387.24,351.83L387.24,266.62L214.52,266.62L214.52,351.83L387.24,351.83" fill="#99d7ad"/>
    <rect class="cls-5" width="195.08" height="17.44" fill="#99d7ad" transform="translate(0,0) translate(188.21,214.32)"/>
    <g id="fire2" opacity="0" style="animation: 10s linear infinite both fire2_o;">
        <path class="cls-6" d="M240.69,165.35C240.69,165.35,230.26,157.08,228.11,140.05C225.96,123.02,209.11,122.11,209.11,122.11C209.11,122.11,234.35,124.4,240.67,134.68C240.67,134.68,234.2,127.88,244.35,114.75C254.5,101.62,254.16,96.35,254.16,96.35C254.16,96.35,257.84,107.08,254.16,114.75C254.16,114.75,256.63,101.87,267.97,96.35C279.31,90.83,275.34,73,275.34,73C275.34,73,298.28,92.32,295.4,116.55C295.4,116.55,301.96,98.45,295.4,88.95C295.4,88.95,300.79,97.2,307.23,99.95C313.67,102.7,314.9,112.23,314.9,112.23C314.9,112.23,313.67,101.5,322.26,98.13C323.451,97.7001,324.57,97.0906,325.577,96.3227C326.584,95.5548,327.468,94.6375,328.198,93.6026C328.928,92.5677,329.495,91.4273,329.881,90.221C330.266,89.0146,330.465,87.7564,330.47,86.49C331.71,88.7117,332.754,91.0367,333.592,93.4389C334.43,95.8411,335.058,98.3114,335.469,100.822C335.88,103.333,336.072,105.874,336.044,108.418C336.016,110.962,335.767,113.499,335.3,116C336.154,114.489,336.935,112.938,337.642,111.353C338.348,109.768,338.978,108.15,339.531,106.504C340.084,104.859,340.558,103.189,340.952,101.498C341.345,99.8081,341.659,98.1,341.89,96.38C341.89,96.38,348.67,119.99,329.49,137.16C310.31,154.33,240.69,165.35,240.69,165.35Z" fill="#ffe75a" transform="translate(287.128,150.663) translate(-287.128,-150.663)" style="animation: 10s linear infinite both a8_t;"/>
        <path class="cls-7" d="M255,165.35C255,165.35,248.79,160.42,247.51,150.28C246.23,140.14,236.2,139.58,236.2,139.58C236.2,139.58,251.2,140.95,255,147.07C255,147.07,251.15,143.07,257.19,135.2C263.23,127.33,263.04,124.2,263.04,124.2C263.04,124.2,265.23,130.59,263.04,135.2C263.04,135.2,264.51,127.52,271.26,124.2C278.01,120.88,275.64,110.31,275.64,110.31C275.64,110.31,289.31,121.82,287.59,136.25C287.59,136.25,291.51,125.47,287.59,119.81C287.59,119.81,290.81,124.73,294.65,126.38C298.49,128.03,299.21,133.7,299.21,133.7C299.21,133.7,298.48,127.3,303.6,125.29C304.31,125.035,304.976,124.673,305.576,124.216C306.177,123.759,306.703,123.213,307.138,122.596C307.573,121.98,307.911,121.301,308.14,120.582C308.37,119.864,308.488,119.114,308.49,118.36C309.227,119.68,309.848,121.061,310.346,122.487C310.845,123.914,311.219,125.382,311.464,126.873C311.709,128.364,311.824,129.874,311.808,131.386C311.793,132.897,311.646,134.404,311.37,135.89C311.878,134.99,312.343,134.065,312.763,133.121C313.183,132.176,313.558,131.212,313.887,130.232C314.216,129.252,314.498,128.256,314.732,127.249C314.966,126.242,315.152,125.225,315.29,124.2C315.29,124.2,319.29,138.26,307.9,148.5C296.51,158.74,255,165.35,255,165.35Z" fill="#ff9632" transform="translate(283.578,153.03) translate(-283.578,-153.03)" style="animation: 10s linear infinite both a9_t;"/>
    </g>
    <g/>
    <path class="cls-5" d="M188.21,185.37L383.29,185.37L383.29,123.19L188.21,178.46L188.21,185.37Z" fill="#99d7ad"/>
    <rect class="cls-9" width="13.49" height="120.08" fill="#66c485" transform="translate(0,0) translate(310.38,231.75)"/>
    <path class="cls-10" d="M412.73,250.17L412.73,266.62L400.72,266.62L400.72,266.65L387.24,266.65L387.24,351.83L400.72,351.83L400.72,277.17L541.35,277L541.35,351.83L555.01,351.83L555.01,250.17L412.73,250.17Z" fill="url(#Gradient-1)"/>
    <path class="cls-11" d="M168.47,185.37L400.72,119.57L400.72,110.03L168.47,174.84L168.47,185.37Z" fill="#009c33"/>
    <path class="cls-12" d="M489.55,215.96L383.29,185.37" fill="#1f906d"/>
    <path class="cls-11" d="M383.29,185.37L383.29,194.58L489.55,224.46L489.55,215.96" fill="#009c33"/>
    <path class="cls-3" d="M467.83,250.17L467.83,218.36L383.29,194.58L383.29,231.75L412.73,231.75L412.73,250.17L467.83,250.17Z" fill="#b3e1c2"/>
    <rect class="cls-4" width="140.63" height="74.68" fill="#80ce99" transform="translate(0,0) translate(400.72,277.15)"/>
    <rect class="cls-13" width="191.79" height="28.95" fill="#fff" transform="translate(0,0) translate(191.5,185.37)"/>
    <rect class="cls-13" width="77.64" height="63.49" fill="#fff" transform="translate(0,0) translate(223.38,274.22)"/>
    <rect class="cls-13" width="48.03" height="61.85" fill="#fff" transform="translate(0,0) translate(331.36,276.49)"/>
    <path class="cls-13" d="M449.08,250.17L449.08,223.03L395.79,223.03L395.79,231.75L412.73,231.75L412.73,250.17L449.08,250.17Z" fill="#fff"/>
    <g>
        <rect class="cls-14" width="2.96" height="28.95" fill="#4dba71" transform="translate(0,0) translate(228.83,185.37)"/>
        <rect class="cls-14" width="2.96" height="28.95" fill="#4dba71" transform="translate(0,0) translate(267.82,185.37)"/>
        <rect class="cls-14" width="2.96" height="28.95" fill="#4dba71" transform="translate(0,0) translate(306.06,185.37)"/>
        <rect class="cls-14" width="2.96" height="28.95" fill="#4dba71" transform="translate(0,0) translate(344.9,185.37)"/>
        <rect class="cls-14" width="2.96" height="27.14" fill="#4dba71" transform="translate(0,0) translate(420.95,223.03)"/>
    </g>
    <rect class="cls-14" width="2.96" height="140.63" fill="#4dba71" transform="translate(757.89,-184.19) rotate(90) translate(469.56,216.54)"/>
    <rect class="cls-14" width="2.96" height="140.63" fill="#4dba71" transform="translate(768.41,-173.67) rotate(90) translate(469.56,227.06)"/>
    <rect class="cls-14" width="2.96" height="140.63" fill="#4dba71" transform="translate(778.93,-163.14) rotate(90) translate(469.56,237.58)"/>
    <rect class="cls-14" width="2.96" height="140.63" fill="#4dba71" transform="translate(789.45,-152.62) rotate(90) translate(469.56,248.1)"/>
    <rect class="cls-14" width="2.96" height="140.63" fill="#4dba71" transform="translate(799.97,-142.1) rotate(90) translate(469.56,258.62)"/>
    <rect class="cls-14" width="2.96" height="140.63" fill="#4dba71" transform="translate(810.5,-131.58) rotate(90) translate(469.56,269.14)"/>
    <rect class="cls-14" width="2.96" height="140.63" fill="#4dba71" transform="translate(820.85,-121.23) rotate(90) translate(469.56,279.49)"/>
    <g>
        <rect class="cls-9" width="2.96" height="63.49" fill="#66c485" transform="translate(0,0) translate(248.08,273.53)"/>
        <rect class="cls-9" width="2.96" height="63.49" fill="#66c485" transform="translate(0,0) translate(274.4,273.53)"/>
        <rect class="cls-9" width="2.96" height="63.49" fill="#66c485" transform="translate(0,0) translate(299.07,273.53)"/>
        <rect class="cls-9" width="2.96" height="63.49" fill="#66c485" transform="translate(0,0) translate(222.75,273.53)"/>
        <rect class="cls-9" width="2.96" height="79.28" fill="#66c485" transform="translate(537.4,12.62) rotate(90) translate(260.91,235.37)"/>
        <rect class="cls-9" width="6" height="83.31" fill="#66c485" transform="translate(602.41,77.63) rotate(90) translate(259.39,298.37)"/>
    </g>
    <g>
        <rect class="cls-9" width="2.96" height="63.49" fill="#66c485" transform="translate(0,0) translate(354.28,273.53)"/>
        <rect class="cls-9" width="2.96" height="48.8" fill="#66c485" transform="translate(630.77,-80.75) rotate(90) translate(354.28,250.61)"/>
        <rect class="cls-9" width="2.96" height="63.49" fill="#66c485" transform="translate(0,0) translate(377.2,273.53)"/>
        <rect class="cls-9" width="2.96" height="63.49" fill="#66c485" transform="translate(0,0) translate(331.36,273.53)"/>
        <rect class="cls-9" width="6" height="52.2" fill="#66c485" transform="translate(695.62,-15.57) rotate(90) translate(352.6,313.92)"/>
    </g>
    <path class="cls-11" d="M385.86,123.78L400.72,119.57L400.72,110.03L384.61,114.53L385.86,123.78Z" fill="#009c33"/>
    <g style="animation: 10s linear infinite both a11_t;">
        <g transform="translate(608.31,322.438) translate(-608.31,-333.676)" style="animation: 10s linear infinite both a10_t;">
            <path class="cls-15" d="M619.12,342.32L596.92,342.32C595.693,342.281,594.485,342.002,593.365,341.498C592.245,340.995,591.235,340.276,590.392,339.384C589.549,338.491,588.889,337.442,588.449,336.296C588.01,335.149,587.799,333.927,587.83,332.7L587.83,201.12C587.83,195.83,628.21,195.83,628.21,201.12L628.21,332.7C628.241,333.927,628.03,335.149,627.591,336.296C627.151,337.442,626.491,338.491,625.648,339.384C624.805,340.276,623.795,340.995,622.675,341.498C621.555,342.002,620.347,342.281,619.12,342.32Z" fill="url(#Gradient-2)"/>
            <path class="cls-14" d="M601.58,219.43C597.42,219.77,596.25,226.43,593.73,227.72C590.89,229.23,589.66,228.53,587.83,226.65L587.83,203C587.59,196.22,591.32,191.93,596.16,191.5L619.88,191.5C621.69,191.5,626.73,192.69,628.15,200.02C628.59,202.3,628.15,205.75,628.21,209.72C628.27,213.69,628.21,211.15,628.21,218.67C628.21,218.67,626.29,217.33,623.87,219.47C621.45,221.61,622.8,231.24,617.76,231.82C611.39,232.56,609.84,218.8,601.58,219.43Z" fill="#4dba71" style="animation: 10s linear infinite both a12_d;"/>
            <path class="cls-6" d="M608.07,134.742C605.879,134.763,589.15,157.78,591.55,171.4C593.92,184.79,606.39,184.79,608.09,184.79C609.79,184.79,622.26,184.79,624.62,171.4C627,157.78,609.022,134.763,608.07,134.742Z" fill="#ffe75a" style="animation: 10s linear infinite both a13_d;"/>
            <path class="cls-7" d="M608.52,154.7C608.463,154.629,608.39,154.572,608.308,154.532C608.226,154.493,608.136,154.473,608.045,154.473C607.954,154.473,607.864,154.493,607.782,154.532C607.7,154.572,607.627,154.629,607.57,154.7C605.74,156.9,599.25,165.19,600.36,171.53C601.47,177.87,607.26,177.75,608.05,177.75C608.84,177.75,614.63,177.75,615.73,171.53C616.83,165.31,610.36,156.9,608.52,154.7Z" fill="#ff9632" transform="translate(608.044,177.066) translate(-608.044,-177.066)" style="animation: 10s linear infinite both a14_t;"/>
        </g>
    </g>
    <path class="cls-16" d="M564.8,327.62L651.23,327.62L645.13,339.72L571.53,339.72L564.8,327.62Z" fill="url(#Gradient-3)"/>
    <path class="cls-9" d="M575.13,339.72L640.96,339.72L638.64,345.77L636.31,351.83L627.25,351.83L580.26,351.83L575.13,339.72Z" fill="#66c485"/>
    <g mask="url(#Mask-1)" transform="translate(318.179,155.069) translate(-77.2887,-81.9859)">
        <g id="tag" style="animation: 10s linear infinite both a15_t;">
            <g transform="translate(143.902,-258.825) translate(-384.862,-113.707)" style="animation: 10s linear infinite both tag_t;">
                <g>
                    <path class="cls-17" d="M391,172.59L337,170.07L324.21,184.19L319.34,288.55L395.34,292.09L400.18,188.32ZM362.39,194.35C359.969,194.491,357.702,193.161,356.643,190.979C355.585,188.798,355.943,186.193,357.552,184.379C359.161,182.565,361.704,181.897,363.996,182.688C366.289,183.478,367.88,185.57,368.03,187.99C368.079,188.776,367.972,189.564,367.717,190.308C367.462,191.053,367.062,191.74,366.541,192.331C366.02,192.921,365.388,193.404,364.681,193.75C363.974,194.096,363.206,194.3,362.42,194.35Z" fill="url(#Gradient-4)"/>
                    <path fill="#ffffff" stroke="none" d="M-13.7907,0L-10.9042,0C-10.3982,0,-9.84619,-0.138,-9.42069,-0.3795C-8.76519,-0.7475,-8.42019,-1.3915,-8.42019,-2.2425C-8.42019,-3.3235,-8.91469,-3.91,-10.0302,-4.163L-10.0302,-4.186C-9.15619,-4.347,-8.58119,-5.083,-8.58119,-6.0145C-8.58119,-7.2335,-9.45519,-8.027,-10.8007,-8.027L-13.7907,-8.027ZM-11.9737,-6.716L-11.4792,-6.716C-10.8352,-6.716,-10.3982,-6.325,-10.3982,-5.75C-10.3982,-5.1405,-10.8352,-4.761,-11.5137,-4.761L-11.9737,-4.761ZM-11.9737,-3.45L-11.2492,-3.45C-10.6052,-3.45,-10.2372,-3.0705,-10.2372,-2.4035C-10.2372,-1.702,-10.6397,-1.357,-11.4447,-1.357L-11.9737,-1.357ZM-7.26594,0L-5.44894,0L-5.44894,-5.9915L-7.26594,-5.9915ZM-7.26594,-7.015L-5.44894,-7.015L-5.44894,-8.625L-7.26594,-8.625ZM-0.509313,-5.842C-0.992312,-6.003,-1.57881,-6.0835,-2.16531,-6.0835C-3.53381,-6.0835,-4.41931,-5.359,-4.41931,-4.232C-4.41931,-3.5995,-4.14331,-3.0705,-3.64881,-2.714C-3.45331,-2.576,-3.18881,-2.4495,-2.72881,-2.277C-2.06181,-2.024,-1.91231,-1.9205,-1.91231,-1.702C-1.91231,-1.3455,-2.18831,-1.1845,-2.79781,-1.1845C-3.34981,-1.1845,-3.83281,-1.311,-4.31581,-1.5985L-4.36181,-0.1955C-3.79831,0,-3.15431,0.092,-2.41831,0.092C-0.980812,0.092,-0.187312,-0.575,-0.187312,-1.794C-0.187312,-2.6565,-0.566813,-3.174,-1.44081,-3.5075C-2.53331,-3.9215,-2.69431,-4.025,-2.69431,-4.347C-2.69431,-4.6345,-2.42981,-4.807,-1.98131,-4.807C-1.53281,-4.807,-1.18781,-4.7265,-0.555312,-4.485ZM3.63231,-4.6345L5.85181,-4.6345L3.56331,-1.495L3.56331,0L7.84131,0L7.84131,-1.357L5.54131,-1.357L7.78381,-4.508L7.78381,-5.9915L3.63231,-5.9915ZM13.9206,-5.9915L12.1036,-5.9915L12.1036,-2.6335C12.1036,-1.771,11.8391,-1.357,11.2986,-1.357C10.8386,-1.357,10.6086,-1.679,10.6086,-2.3L10.6086,-5.9915L8.79156,-5.9915L8.79156,-2.07C8.79156,-0.644,9.40106,0.092,10.5741,0.092C11.4136,0.092,11.8851,-0.2185,12.2416,-1.0005L12.2646,-1.0005C12.2646,-0.6555,12.2761,-0.3565,12.3106,0L13.9666,0C13.9321,-0.322,13.9206,-0.644,13.9206,-1.2535ZM-24.2386,40.111L-24.3651,40.088C-25.2851,39.881,-25.5956,39.835,-26.1016,39.835C-27.3666,39.835,-28.2521,40.2835,-28.6776,41.146C-28.8271,41.4795,-28.9076,41.813,-28.9076,42.1695C-28.9076,43.354,-28.3556,44.044,-26.9641,44.596C-26.0671,44.964,-25.7451,45.286,-25.7451,45.8035C-25.7451,46.3555,-26.2166,46.735,-26.9296,46.735C-27.3666,46.735,-27.6771,46.6545,-28.3556,46.367C-28.5396,46.298,-28.5511,46.2865,-28.6776,46.2405L-28.7811,47.8045C-28.0336,48.023,-27.3206,48.138,-26.6651,48.138C-24.9401,48.138,-23.8131,47.172,-23.8131,45.6885C-23.8131,45.217,-23.9166,44.7915,-24.1236,44.412C-24.3996,43.9175,-24.9056,43.538,-25.7796,43.193C-26.6536,42.8365,-26.9756,42.5375,-26.9756,42.0315C-26.9756,41.5255,-26.5616,41.192,-25.9176,41.192C-25.4346,41.192,-24.8711,41.3415,-24.3191,41.606ZM-18.4692,46.4705C-19.0443,46.689,-19.2283,46.735,-19.5273,46.735C-20.4473,46.735,-20.9993,46.1025,-20.9993,45.056C-20.9993,43.9635,-20.4933,43.3195,-19.6193,43.3195C-19.3203,43.3195,-19.0903,43.377,-18.5613,43.5725L-18.4692,42.204C-18.6303,42.158,-18.6533,42.158,-18.8143,42.1005C-19.3318,41.951,-19.5503,41.9165,-19.9413,41.9165C-21.7238,41.9165,-22.8853,43.1355,-22.8853,45.033C-22.8853,46.896,-21.7812,48.092,-20.0678,48.092C-19.5732,48.092,-19.1018,48.023,-18.4118,47.839ZM-17.5344,48L-15.7174,48L-15.7174,44.642C-15.7174,43.7795,-15.4529,43.3655,-14.9124,43.3655C-14.4639,43.3655,-14.2224,43.6875,-14.2224,44.3085L-14.2224,48L-12.4054,48L-12.4054,44.0785C-12.4054,42.664,-13.0149,41.9165,-14.1534,41.9165C-14.9239,41.9165,-15.4529,42.25,-15.6944,42.894L-15.7174,42.894L-15.7174,39.375L-17.5344,39.375ZM-10.6493,43.6415C-9.98225,43.2505,-9.53375,43.1125,-8.98175,43.1125C-8.22275,43.1125,-7.90075,43.446,-7.86625,44.2625L-8.41825,44.2625C-10.3848,44.2625,-11.3853,44.9525,-11.3853,46.298C-11.3853,47.356,-10.6377,48.092,-9.55675,48.092C-8.79775,48.092,-8.05025,47.678,-7.88925,47.172L-7.86625,47.172L-7.82025,48L-6.16425,48C-6.19875,47.5515,-6.21025,47.2065,-6.21025,46.3095L-6.21025,44.1245C-6.21025,42.5835,-6.95775,41.9165,-8.70575,41.9165C-9.29225,41.9165,-9.85575,42.02,-10.7297,42.296ZM-7.86625,45.4585C-7.86625,46.4015,-8.26875,46.942,-8.95875,46.942C-9.46475,46.942,-9.72925,46.666,-9.72925,46.16C-9.72925,45.4125,-9.20025,45.125,-7.86625,45.1135ZM0.364125,39.375L-1.45287,39.375L-1.45287,42.894L-1.47587,42.894C-1.77487,42.227,-2.26938,41.9165,-3.01688,41.9165C-4.35087,41.9165,-5.12138,42.9975,-5.12138,44.872C-5.12138,46.8615,-4.30487,48.092,-2.99388,48.092C-2.25787,48.092,-1.75187,47.77,-1.38387,47.0455L-1.36088,47.0455C-1.36088,47.402,-1.34937,47.7125,-1.31488,48L0.410125,48C0.375625,47.563,0.364125,47.287,0.364125,46.6545ZM-2.37287,43.1585C-1.76338,43.1585,-1.45287,43.768,-1.45287,44.964C-1.45287,46.1255,-1.78638,46.781,-2.37287,46.781C-2.97087,46.781,-3.23537,46.2175,-3.23537,44.987C-3.23537,43.6645,-2.99388,43.1585,-2.37287,43.1585ZM3.19737,44.4925C3.19737,43.5035,3.50787,43.0205,4.12888,43.0205C4.76137,43.0205,5.04887,43.4805,5.07188,44.4925ZM6.37138,46.3785C5.77338,46.689,5.20988,46.85,4.68088,46.85C3.77238,46.85,3.23187,46.3555,3.19737,45.4815L6.72788,45.4815L6.72788,45.0445C6.72788,43.009,5.84237,41.9165,4.19788,41.9165C2.55338,41.9165,1.47237,43.1585,1.47237,45.0215C1.47237,46.9765,2.57638,48.092,4.49688,48.092C5.12938,48.092,5.76188,47.977,6.40587,47.747ZM11.1058,48L12.9228,48L12.9228,44.0785C12.9228,42.6525,12.3132,41.9165,11.1403,41.9165C10.3008,41.9165,9.81775,42.2385,9.47275,43.009L9.44975,43.009C9.44975,42.6065,9.43825,42.4455,9.40375,42.0085L7.74775,42.0085C7.78225,42.388,7.79375,42.6755,7.79375,43.262L7.79375,48L9.61075,48L9.61075,44.642C9.61075,43.7795,9.87525,43.3655,10.4158,43.3655C10.8643,43.3655,11.1058,43.6875,11.1058,44.3085ZM17.3413,48L19.1583,48L19.1583,42.0085L17.3413,42.0085ZM17.3413,40.985L19.1583,40.985L19.1583,39.375L17.3413,39.375ZM26.9959,48L28.8129,48L28.8129,44.0785C28.8129,42.6525,28.2034,41.9165,27.0304,41.9165C26.2254,41.9165,25.7654,42.204,25.4089,42.917C25.0869,42.204,24.6384,41.9165,23.8449,41.9165C22.9939,41.9165,22.5224,42.227,22.1659,43.009L22.1429,43.009C22.1429,42.6065,22.1314,42.4455,22.0969,42.0085L20.4409,42.0085C20.4754,42.388,20.4869,42.6755,20.4869,43.262L20.4869,48L22.3039,48L22.3039,44.642C22.3039,43.791,22.5684,43.3655,23.0974,43.3655C23.5229,43.3655,23.7414,43.6875,23.7414,44.3085L23.7414,48L25.5584,48L25.5584,44.205C25.5584,43.676,25.8344,43.3655,26.3059,43.3655C26.7544,43.3655,26.9959,43.6875,26.9959,44.3085ZM-34.6082,60L-31.9977,60C-29.6172,60,-28.1682,58.4935,-28.1682,56.021C-28.1682,53.5025,-29.5252,51.973,-31.7562,51.973L-34.6082,51.973ZM-32.7222,53.376L-32.2392,53.376C-30.8707,53.376,-30.1462,54.296,-30.1462,56.021C-30.1462,57.6655,-30.8592,58.597,-32.1242,58.597L-32.7222,58.597ZM-21.9338,54.0085L-23.7508,54.0085L-23.7508,57.3665C-23.7508,58.229,-24.0153,58.643,-24.5558,58.643C-25.0158,58.643,-25.2458,58.321,-25.2458,57.7L-25.2458,54.0085L-27.0628,54.0085L-27.0628,57.93C-27.0628,59.356,-26.4533,60.092,-25.2803,60.092C-24.4408,60.092,-23.9693,59.7815,-23.6128,58.9995L-23.5898,58.9995C-23.5898,59.3445,-23.5783,59.6435,-23.5438,60L-21.8878,60C-21.9223,59.678,-21.9338,59.356,-21.9338,58.7465ZM-20.6722,60L-18.8552,60L-18.8552,57.3205C-18.8552,56.044,-18.5102,55.5265,-17.6592,55.5265C-17.4407,55.5265,-17.2912,55.538,-17.0612,55.5955L-17.0612,53.9165L-17.3257,53.9165C-17.8432,53.9165,-18.1997,54.043,-18.4757,54.319C-18.6252,54.4685,-18.7287,54.6295,-18.9932,55.0895L-19.0162,55.0895L-19.0162,54.963C-19.0277,54.687,-19.0392,54.457,-19.0507,54.273C-19.0622,54.1465,-19.0622,54.135,-19.0622,54.0085L-20.7182,54.0085C-20.6837,54.388,-20.6722,54.6755,-20.6722,55.262ZM-12.2321,58.4705C-12.8071,58.689,-12.9911,58.735,-13.2901,58.735C-14.2101,58.735,-14.7621,58.1025,-14.7621,57.056C-14.7621,55.9635,-14.2561,55.3195,-13.3821,55.3195C-13.0831,55.3195,-12.8531,55.377,-12.3241,55.5725L-12.2321,54.204C-12.3931,54.158,-12.4161,54.158,-12.5771,54.1005C-13.0946,53.951,-13.3131,53.9165,-13.7041,53.9165C-15.4866,53.9165,-16.6481,55.1355,-16.6481,57.033C-16.6481,58.896,-15.5441,60.092,-13.8306,60.092C-13.3361,60.092,-12.8646,60.023,-12.1746,59.839ZM-11.2972,60L-9.48019,60L-9.48019,56.642C-9.48019,55.7795,-9.21569,55.3655,-8.67519,55.3655C-8.22669,55.3655,-7.98519,55.6875,-7.98519,56.3085L-7.98519,60L-6.16819,60L-6.16819,56.0785C-6.16819,54.664,-6.77769,53.9165,-7.91619,53.9165C-8.68669,53.9165,-9.21569,54.25,-9.45719,54.894L-9.48019,54.894L-9.48019,51.375L-11.2972,51.375ZM-1.29556,54.158C-1.77856,53.997,-2.36506,53.9165,-2.95156,53.9165C-4.32006,53.9165,-5.20556,54.641,-5.20556,55.768C-5.20556,56.4005,-4.92956,56.9295,-4.43506,57.286C-4.23956,57.424,-3.97506,57.5505,-3.51506,57.723C-2.84806,57.976,-2.69856,58.0795,-2.69856,58.298C-2.69856,58.6545,-2.97456,58.8155,-3.58406,58.8155C-4.13606,58.8155,-4.61906,58.689,-5.10206,58.4015L-5.14806,59.8045C-4.58456,60,-3.94056,60.092,-3.20456,60.092C-1.76706,60.092,-0.973562,59.425,-0.973562,58.206C-0.973562,57.3435,-1.35306,56.826,-2.22706,56.4925C-3.31956,56.0785,-3.48056,55.975,-3.48056,55.653C-3.48056,55.3655,-3.21606,55.193,-2.76756,55.193C-2.31906,55.193,-1.97406,55.2735,-1.34156,55.515ZM4.17419,58.4705C3.59919,58.689,3.41519,58.735,3.11619,58.735C2.19619,58.735,1.64419,58.1025,1.64419,57.056C1.64419,55.9635,2.15019,55.3195,3.02419,55.3195C3.32319,55.3195,3.55319,55.377,4.08219,55.5725L4.17419,54.204C4.01319,54.158,3.99019,54.158,3.82919,54.1005C3.31169,53.951,3.09319,53.9165,2.70219,53.9165C0.919688,53.9165,-0.241812,55.1355,-0.241812,57.033C-0.241812,58.896,0.862187,60.092,2.57569,60.092C3.07019,60.092,3.54169,60.023,4.23169,59.839ZM5.10906,60L6.92606,60L6.92606,56.642C6.92606,55.7795,7.19056,55.3655,7.73106,55.3655C8.17956,55.3655,8.42106,55.6875,8.42106,56.3085L8.42106,60L10.2381,60L10.2381,56.0785C10.2381,54.664,9.62856,53.9165,8.49006,53.9165C7.71956,53.9165,7.19056,54.25,6.94906,54.894L6.92606,54.894L6.92606,51.375L5.10906,51.375ZM14.8117,60L16.6287,60L16.6287,56.0785C16.6287,54.6525,16.0192,53.9165,14.8462,53.9165C14.0067,53.9165,13.5237,54.2385,13.1787,55.009L13.1557,55.009C13.1557,54.6065,13.1442,54.4455,13.1097,54.0085L11.4537,54.0085C11.4882,54.388,11.4997,54.6755,11.4997,55.262L11.4997,60L13.3167,60L13.3167,56.642C13.3167,55.7795,13.5812,55.3655,14.1217,55.3655C14.5702,55.3655,14.8117,55.6875,14.8117,56.3085ZM17.9478,60L19.7648,60L19.7648,54.0085L17.9478,54.0085ZM17.9478,52.985L19.7648,52.985L19.7648,51.375L17.9478,51.375ZM20.6219,55.285L21.6109,55.285L21.6109,58.321C21.6109,59.471,22.2434,60.092,23.4049,60.092C23.8534,60.092,24.3709,60.023,24.6354,59.931L24.6354,58.6545C24.4169,58.7465,24.2674,58.781,24.0604,58.781C23.6234,58.781,23.4279,58.551,23.4279,58.0335L23.4279,55.285L24.6009,55.285L24.6009,54.0085L23.4279,54.0085L23.4279,52.2145L21.6569,52.778L21.6569,54.0085L20.6219,54.0085ZM25.0907,55.285L26.0797,55.285L26.0797,58.321C26.0797,59.471,26.7122,60.092,27.8737,60.092C28.3222,60.092,28.8397,60.023,29.1042,59.931L29.1042,58.6545C28.8857,58.7465,28.7362,58.781,28.5292,58.781C28.0922,58.781,27.8967,58.551,27.8967,58.0335L27.8967,55.285L29.0697,55.285L29.0697,54.0085L27.8967,54.0085L27.8967,52.2145L26.1257,52.778L26.1257,54.0085L25.0907,54.0085ZM30.2149,53.4335L31.6984,53.698L30.6289,54.802L31.6984,55.561L32.3999,54.181L33.0554,55.561L34.1594,54.802L33.0554,53.698L34.5504,53.4335L34.1594,52.18L32.8254,52.916L33.0669,51.375L31.7559,51.375L32.0089,52.916L30.6289,52.18Z" transform="translate(360.442,212.865) rotate(2.5)"/>
                    <path fill="#ffffff" stroke="none" d="M-32.578,-8.592L-31.394,-6.784L-29.714,-8.224L-29.714,0L-27.186,0L-27.186,-11.168L-29.202,-11.168ZM-24.0415,-5.232C-23.0655,-5.472,-22.7135,-5.536,-22.2815,-5.536C-20.9695,-5.536,-20.0575,-4.768,-20.0575,-3.648C-20.0575,-2.544,-20.8895,-1.76,-22.0895,-1.76C-22.6495,-1.76,-23.0655,-1.872,-24.1535,-2.304L-24.2815,-0.32C-23.2415,0.08,-22.7135,0.192,-21.6895,0.192C-19.0975,0.192,-17.4335,-1.312,-17.4335,-3.648C-17.4335,-5.92,-18.7135,-7.264,-20.8735,-7.264C-21.0495,-7.264,-21.3375,-7.248,-21.5295,-7.232L-21.7215,-7.216L-21.8335,-7.2L-21.8335,-9.28L-17.9295,-9.28L-17.9295,-11.168L-24.0415,-11.168ZM-12.545,-11.36C-15.057,-11.36,-16.225,-9.52,-16.225,-5.568C-16.225,-1.648,-15.041,0.192,-12.545,0.192C-10.033,0.192,-8.865,-1.648,-8.865,-5.6C-8.865,-9.52,-10.049,-11.36,-12.545,-11.36ZM-12.545,-9.536C-11.697,-9.536,-11.329,-8.32,-11.329,-5.552C-11.329,-2.864,-11.713,-1.632,-12.545,-1.632C-13.393,-1.632,-13.761,-2.848,-13.761,-5.568C-13.761,-8.32,-13.393,-9.536,-12.545,-9.536ZM-7.4645,0L-5.1605,0L-5.1605,-2.4L-7.4645,-2.4ZM-0.0762501,-11.36C-2.58825,-11.36,-3.75625,-9.52,-3.75625,-5.568C-3.75625,-1.648,-2.57225,0.192,-0.0762501,0.192C2.43575,0.192,3.60375,-1.648,3.60375,-5.6C3.60375,-9.52,2.41975,-11.36,-0.0762501,-11.36ZM-0.0762501,-9.536C0.77175,-9.536,1.13975,-8.32,1.13975,-5.552C1.13975,-2.864,0.75575,-1.632,-0.0762501,-1.632C-0.92425,-1.632,-1.29225,-2.848,-1.29225,-5.568C-1.29225,-8.32,-0.92425,-9.536,-0.0762501,-9.536ZM8.23625,-11.36C5.72425,-11.36,4.55625,-9.52,4.55625,-5.568C4.55625,-1.648,5.74025,0.192,8.23625,0.192C10.7483,0.192,11.9163,-1.648,11.9163,-5.6C11.9163,-9.52,10.7323,-11.36,8.23625,-11.36ZM8.23625,-9.536C9.08425,-9.536,9.45225,-8.32,9.45225,-5.552C9.45225,-2.864,9.06825,-1.632,8.23625,-1.632C7.38825,-1.632,7.02025,-2.848,7.02025,-5.568C7.02025,-8.32,7.38825,-9.536,8.23625,-9.536ZM16.5487,-11.36C14.0367,-11.36,12.8687,-9.52,12.8687,-5.568C12.8687,-1.648,14.0527,0.192,16.5487,0.192C19.0607,0.192,20.2288,-1.648,20.2288,-5.6C20.2288,-9.52,19.0448,-11.36,16.5487,-11.36ZM16.5487,-9.536C17.3967,-9.536,17.7647,-8.32,17.7647,-5.552C17.7647,-2.864,17.3808,-1.632,16.5487,-1.632C15.7008,-1.632,15.3328,-2.848,15.3328,-5.568C15.3328,-8.32,15.7008,-9.536,16.5487,-9.536ZM31.0975,-3.616L31.6735,-5.136L28.9535,-5.136C28.9375,-5.328,28.9375,-5.472,28.9375,-5.648C28.9375,-5.856,28.9375,-6.016,28.9695,-6.208L32.0735,-6.208L32.6495,-7.728L29.3695,-7.728C29.8655,-8.752,30.7295,-9.28,31.8815,-9.28C32.3295,-9.28,32.5855,-9.232,33.1615,-9.072L33.8655,-10.944C33.0815,-11.232,32.2975,-11.36,31.4015,-11.36C29.0495,-11.36,27.1455,-9.952,26.5375,-7.728L25.9455,-7.728L25.3695,-6.208L26.2655,-6.208C26.2495,-5.984,26.2495,-5.808,26.2495,-5.584C26.2495,-5.392,26.2495,-5.28,26.2655,-5.136L25.9455,-5.136L25.3695,-3.616L26.5055,-3.616C27.2575,-1.136,29.0175,0.192,31.5775,0.192C32.0575,0.192,32.4095,0.16,33.1615,0.048L33.1615,-2.128C32.7135,-2,32.3455,-1.952,31.9135,-1.952C30.7935,-1.952,29.8815,-2.544,29.3535,-3.616Z" transform="translate(359.677,238.453) rotate(2.5)"/>
                </g>
                <path class="cls-44" d="M398.33,116.21C396.78,113.63,393.47,110.43,386.58,109.77C378.63,109,374.8,117.86,371.08,126.43C368.63,132.09,366.08,137.95,362.53,141.13C358.18,145.02,356.07,153.56,356.27,166.52C356.298,167.998,356.35,169.476,356.425,170.953C356.5,172.429,356.598,173.905,356.72,175.378C356.842,176.852,356.987,178.323,357.155,179.792C357.324,181.261,357.515,182.727,357.73,184.19C358.196,183.705,358.74,183.303,359.339,182.998C359.938,182.694,360.585,182.493,361.251,182.402C361.917,182.312,362.593,182.335,363.252,182.469C363.911,182.603,364.542,182.847,365.12,183.19C366.07,165.53,369.51,154.19,375.91,147.47C376.866,146.533,377.845,145.62,378.845,144.73C379.845,143.841,380.866,142.976,381.908,142.135C382.95,141.295,384.011,140.479,385.092,139.69C386.173,138.9,387.273,138.137,388.39,137.4C393.6,133.73,397.72,130.83,399.12,127.4C399.486,126.502,399.748,125.566,399.9,124.609C400.053,123.651,400.096,122.68,400.027,121.713C399.959,120.746,399.78,119.79,399.495,118.864C399.209,117.938,398.818,117.047,398.33,116.21ZM395.42,125.87C394.42,128.22,390.42,131.09,386.08,134.12C384.907,134.892,383.753,135.692,382.619,136.521C381.485,137.349,380.372,138.206,379.28,139.089C378.188,139.972,377.118,140.882,376.071,141.817C375.024,142.753,374,143.714,373,144.7C366.11,151.9,362.44,163.04,361.24,180.57C359.93,170.06,358.85,149.76,365.17,144.11C369.39,140.34,372.11,134.11,374.73,128.02C377.92,120.68,380.93,113.72,385.73,113.72C385.77,113.718,385.81,113.716,385.85,113.714C385.89,113.713,385.93,113.713,385.97,113.713C386.01,113.713,386.05,113.713,386.09,113.714C386.13,113.716,386.17,113.718,386.21,113.72C390.36,114.12,393.38,115.72,394.93,118.25C395.258,118.822,395.519,119.43,395.709,120.062C395.899,120.694,396.017,121.345,396.059,122.003C396.101,122.661,396.068,123.322,395.961,123.973C395.853,124.624,395.672,125.26,395.42,125.87Z" fill="#ff7200"/>
            </g>
        </g>
    </g>
    <path class="cls-11" d="M385.86,123.24L400.72,119.03L400.72,109.49L384.644,114.001L385.86,123.24Z" fill="#009c33" opacity="1" transform="translate(0.0463153,0.509468)"/>
</svg>
