<?xml version="1.0" encoding="UTF-8" standalone="no"?>
<!-- Created with Keyshape -->
<svg xmlns="http://www.w3.org/2000/svg" viewBox="0 0 670 400">
    <defs>
        <linearGradient id="Gradient-0" x1="158.6" y1="295.83" x2="412.73" y2="295.83" gradientUnits="userSpaceOnUse">
            <stop offset="0" stop-color="#4dba71"/>
            <stop offset="1" stop-color="#007d29"/>
        </linearGradient>
        <linearGradient id="Gradient-1" x1="387.23" y1="301" x2="555.01" y2="301" gradientUnits="userSpaceOnUse">
            <stop offset="0" stop-color="#4dba71"/>
            <stop offset="1" stop-color="#007d29"/>
        </linearGradient>
        <linearGradient id="Gradient-2" x1="608.02" y1="331.4" x2="608.02" y2="205.13" gradientUnits="userSpaceOnUse">
            <stop offset="0" stop-color="#4dba71"/>
            <stop offset="1" stop-color="#007d29"/>
        </linearGradient>
        <linearGradient id="Gradient-3" x1="564.8" y1="333.67" x2="651.23" y2="333.67" gradientUnits="userSpaceOnUse">
            <stop offset="0" stop-color="#4dba71"/>
            <stop offset="1" stop-color="#007d29"/>
        </linearGradient>
        <linearGradient id="Gradient-4" x1="319.32" y1="231.08" x2="400.14" y2="231.08" gradientUnits="userSpaceOnUse">
            <stop offset="0" stop-color="#ff9632"/>
            <stop offset="1" stop-color="#ff7200"/>
        </linearGradient>
        <linearGradient id="Gradient-5" x1="105.035" y1="101.504" x2="105.268" y2="10.7971" gradientUnits="userSpaceOnUse">
            <stop offset="0" stop-color="#ffffff"/>
            <stop offset="1" stop-color="#000000"/>
        </linearGradient>
        <mask id="Mask-1">
            <rect width="317.602" height="325.699" fill="url(#Gradient-5)" stroke="none" transform="translate(131.145,66.374) translate(-158.801,-137.658)"/>
        </mask>
    </defs>
    <style>
@keyframes a0_t { 0% { transform: translate(12.5961px,0px); animation-timing-function: cubic-bezier(0.42,0,0.58,1); } 50% { transform: translate(-14.3956px,0px); animation-timing-function: cubic-bezier(0.42,0,0.58,1); } 100% { transform: translate(12.5961px,0px); } }
@keyframes a1_t { 0% { transform: translate(0px,0px); animation-timing-function: cubic-bezier(0.42,0,0.58,1); } 50% { transform: translate(34.189px,0px); animation-timing-function: cubic-bezier(0.42,0,0.58,1); } 100% { transform: translate(0px,0px); } }
@keyframes a2_t { 0% { transform: translate(0px,0px); animation-timing-function: cubic-bezier(0.42,0,0.58,1); } 50% { transform: translate(22.493px,0px); animation-timing-function: cubic-bezier(0.42,0,0.58,1); } 100% { transform: translate(0px,0px); } }
@keyframes windturbine_t { 0% { transform: translate(441.813px,146.548px) rotate(0deg) translate(-441.813px,-146.548px); } 100% { transform: translate(441.813px,146.548px) rotate(360deg) translate(-441.813px,-146.548px); } }
@keyframes a3_t { 0% { transform: translate(533.018px,168.635px) rotate(60deg) translate(-533.018px,-168.635px); } 100% { transform: translate(533.018px,168.635px) rotate(420deg) translate(-533.018px,-168.635px); } }
@keyframes fire3_o { 0% { opacity: 0; } 50% { opacity: 0; } 55% { opacity: 1; } 100% { opacity: 1; } }
@keyframes a4_t { 0% { transform: translate(181.508px,240.272px) scale(1,1) translate(-181.508px,-240.272px); } 60% { transform: translate(181.508px,240.272px) scale(1,1) translate(-181.508px,-240.272px); animation-timing-function: cubic-bezier(0.42,0,0.58,1); } 65% { transform: translate(181.508px,240.272px) scale(0.8,0.8) translate(-181.508px,-240.272px); animation-timing-function: cubic-bezier(0.42,0,0.58,1); } 70% { transform: translate(181.508px,240.272px) scale(1,1) translate(-181.508px,-240.272px); animation-timing-function: cubic-bezier(0.42,0,0.58,1); } 75% { transform: translate(181.508px,240.272px) scale(0.8,0.8) translate(-181.508px,-240.272px); animation-timing-function: cubic-bezier(0.42,0,0.58,1); } 80% { transform: translate(181.508px,240.272px) scale(1,1) translate(-181.508px,-240.272px); animation-timing-function: cubic-bezier(0.42,0,0.58,1); } 85% { transform: translate(181.508px,240.272px) scale(0.8,0.8) translate(-181.508px,-240.272px); animation-timing-function: cubic-bezier(0.42,0,0.58,1); } 90% { transform: translate(181.508px,240.272px) scale(1,1) translate(-181.508px,-240.272px); animation-timing-function: cubic-bezier(0.42,0,0.58,1); } 95% { transform: translate(181.508px,240.272px) scale(0.8,0.8) translate(-181.508px,-240.272px); animation-timing-function: cubic-bezier(0.42,0,0.58,1); } 100% { transform: translate(181.508px,240.272px) scale(1,1) translate(-181.508px,-240.272px); } }
@keyframes a5_t { 0% { transform: translate(181.16px,244.097px) scale(1,1) translate(-181.16px,-244.097px); } 65% { transform: translate(181.16px,244.097px) scale(1,1) translate(-181.16px,-244.097px); animation-timing-function: cubic-bezier(0.42,0,0.58,1); } 70% { transform: translate(181.16px,244.097px) scale(0.8,0.8) translate(-181.16px,-244.097px); animation-timing-function: cubic-bezier(0.42,0,0.58,1); } 75% { transform: translate(181.16px,244.097px) scale(1,1) translate(-181.16px,-244.097px); animation-timing-function: cubic-bezier(0.42,0,0.58,1); } 80% { transform: translate(181.16px,244.097px) scale(0.8,0.8) translate(-181.16px,-244.097px); animation-timing-function: cubic-bezier(0.42,0,0.58,1); } 85% { transform: translate(181.16px,244.097px) scale(1,1) translate(-181.16px,-244.097px); animation-timing-function: cubic-bezier(0.42,0,0.58,1); } 90% { transform: translate(181.16px,244.097px) scale(0.8,0.8) translate(-181.16px,-244.097px); animation-timing-function: cubic-bezier(0.42,0,0.58,1); } 95% { transform: translate(181.16px,244.097px) scale(1,1) translate(-181.16px,-244.097px); animation-timing-function: cubic-bezier(0.42,0,0.58,1); } 100% { transform: translate(181.16px,244.097px) scale(0.8,0.8) translate(-181.16px,-244.097px); } }
@keyframes fire1_o { 0% { opacity: 0; } 30% { opacity: 0; } 35% { opacity: 1; } 100% { opacity: 1; } }
@keyframes a6_t { 0% { transform: translate(457.28px,218.49px) scale(1,1) translate(-457.28px,-218.49px); } 20% { transform: translate(457.28px,218.49px) scale(1,1) translate(-457.28px,-218.49px); animation-timing-function: cubic-bezier(0.42,0,0.58,1); } 25% { transform: translate(457.28px,218.49px) scale(0.8,0.8) translate(-457.28px,-218.49px); animation-timing-function: cubic-bezier(0.42,0,0.58,1); } 30% { transform: translate(457.28px,218.49px) scale(1,1) translate(-457.28px,-218.49px); animation-timing-function: cubic-bezier(0.42,0,0.58,1); } 35% { transform: translate(457.28px,218.49px) scale(0.8,0.8) translate(-457.28px,-218.49px); animation-timing-function: cubic-bezier(0.42,0,0.58,1); } 40% { transform: translate(457.28px,218.49px) scale(1,1) translate(-457.28px,-218.49px); animation-timing-function: cubic-bezier(0.42,0,0.58,1); } 45% { transform: translate(457.28px,218.49px) scale(0.8,0.8) translate(-457.28px,-218.49px); animation-timing-function: cubic-bezier(0.42,0,0.58,1); } 50% { transform: translate(457.28px,218.49px) scale(1,1) translate(-457.28px,-218.49px); animation-timing-function: cubic-bezier(0.42,0,0.58,1); } 55% { transform: translate(457.28px,218.49px) scale(0.8,0.8) translate(-457.28px,-218.49px); animation-timing-function: cubic-bezier(0.42,0,0.58,1); } 60% { transform: translate(457.28px,218.49px) scale(1,1) translate(-457.28px,-218.49px); animation-timing-function: cubic-bezier(0.42,0,0.58,1); } 65% { transform: translate(457.28px,218.49px) scale(0.8,0.8) translate(-457.28px,-218.49px); animation-timing-function: cubic-bezier(0.42,0,0.58,1); } 70% { transform: translate(457.28px,218.49px) scale(1,1) translate(-457.28px,-218.49px); animation-timing-function: cubic-bezier(0.42,0,0.58,1); } 75% { transform: translate(457.28px,218.49px) scale(0.8,0.8) translate(-457.28px,-218.49px); animation-timing-function: cubic-bezier(0.42,0,0.58,1); } 80% { transform: translate(457.28px,218.49px) scale(1,1) translate(-457.28px,-218.49px); animation-timing-function: cubic-bezier(0.42,0,0.58,1); } 85% { transform: translate(457.28px,218.49px) scale(0.8,0.8) translate(-457.28px,-218.49px); animation-timing-function: cubic-bezier(0.42,0,0.58,1); } 90% { transform: translate(457.28px,218.49px) scale(1,1) translate(-457.28px,-218.49px); animation-timing-function: cubic-bezier(0.42,0,0.58,1); } 95% { transform: translate(457.28px,218.49px) scale(0.8,0.8) translate(-457.28px,-218.49px); animation-timing-function: cubic-bezier(0.42,0,0.58,1); } 100% { transform: translate(457.28px,218.49px) scale(1,1) translate(-457.28px,-218.49px); } }
@keyframes a7_t { 0% { transform: translate(459.311px,221.789px) scale(1,1) translate(-459.311px,-221.789px); } 25% { transform: translate(459.311px,221.789px) scale(1,1) translate(-459.311px,-221.789px); animation-timing-function: cubic-bezier(0.42,0,0.58,1); } 30% { transform: translate(459.311px,221.789px) scale(0.8,0.8) translate(-459.311px,-221.789px); animation-timing-function: cubic-bezier(0.42,0,0.58,1); } 35% { transform: translate(459.311px,221.789px) scale(1,1) translate(-459.311px,-221.789px); animation-timing-function: cubic-bezier(0.42,0,0.58,1); } 40% { transform: translate(459.311px,221.789px) scale(0.8,0.8) translate(-459.311px,-221.789px); animation-timing-function: cubic-bezier(0.42,0,0.58,1); } 45% { transform: translate(459.311px,221.789px) scale(1,1) translate(-459.311px,-221.789px); animation-timing-function: cubic-bezier(0.42,0,0.58,1); } 50% { transform: translate(459.311px,221.789px) scale(0.8,0.8) translate(-459.311px,-221.789px); animation-timing-function: cubic-bezier(0.42,0,0.58,1); } 55% { transform: translate(459.311px,221.789px) scale(1,1) translate(-459.311px,-221.789px); animation-timing-function: cubic-bezier(0.42,0,0.58,1); } 60% { transform: translate(459.311px,221.789px) scale(0.8,0.8) translate(-459.311px,-221.789px); animation-timing-function: cubic-bezier(0.42,0,0.58,1); } 65% { transform: translate(459.311px,221.789px) scale(1,1) translate(-459.311px,-221.789px); animation-timing-function: cubic-bezier(0.42,0,0.58,1); } 70% { transform: translate(459.311px,221.789px) scale(0.8,0.8) translate(-459.311px,-221.789px); animation-timing-function: cubic-bezier(0.42,0,0.58,1); } 75% { transform: translate(459.311px,221.789px) scale(1,1) translate(-459.311px,-221.789px); animation-timing-function: cubic-bezier(0.42,0,0.58,1); } 80% { transform: translate(459.311px,221.789px) scale(0.8,0.8) translate(-459.311px,-221.789px); animation-timing-function: cubic-bezier(0.42,0,0.58,1); } 85% { transform: translate(459.311px,221.789px) scale(1,1) translate(-459.311px,-221.789px); animation-timing-function: cubic-bezier(0.42,0,0.58,1); } 90% { transform: translate(459.311px,221.789px) scale(0.8,0.8) translate(-459.311px,-221.789px); animation-timing-function: cubic-bezier(0.42,0,0.58,1); } 95% { transform: translate(459.311px,221.789px) scale(1,1) translate(-459.311px,-221.789px); animation-timing-function: cubic-bezier(0.42,0,0.58,1); } 100% { transform: translate(459.311px,221.789px) scale(0.8,0.8) translate(-459.311px,-221.789px); } }
@keyframes fire2_o { 0% { opacity: 0; } 40% { opacity: 0; } 45% { opacity: 1; } 100% { opacity: 1; } }
@keyframes a8_t { 0% { transform: translate(287.128px,150.663px) scale(1,1) translate(-287.128px,-150.663px); } 40% { transform: translate(287.128px,150.663px) scale(1,1) translate(-287.128px,-150.663px); animation-timing-function: cubic-bezier(0.42,0,0.58,1); } 45% { transform: translate(287.128px,150.663px) scale(0.8,0.8) translate(-287.128px,-150.663px); animation-timing-function: cubic-bezier(0.42,0,0.58,1); } 50% { transform: translate(287.128px,150.663px) scale(1,1) translate(-287.128px,-150.663px); animation-timing-function: cubic-bezier(0.42,0,0.58,1); } 55% { transform: translate(287.128px,150.663px) scale(0.8,0.8) translate(-287.128px,-150.663px); animation-timing-function: cubic-bezier(0.42,0,0.58,1); } 60% { transform: translate(287.128px,150.663px) scale(1,1) translate(-287.128px,-150.663px); animation-timing-function: cubic-bezier(0.42,0,0.58,1); } 65% { transform: translate(287.128px,150.663px) scale(0.8,0.8) translate(-287.128px,-150.663px); animation-timing-function: cubic-bezier(0.42,0,0.58,1); } 70% { transform: translate(287.128px,150.663px) scale(1,1) translate(-287.128px,-150.663px); animation-timing-function: cubic-bezier(0.42,0,0.58,1); } 75% { transform: translate(287.128px,150.663px) scale(0.8,0.8) translate(-287.128px,-150.663px); animation-timing-function: cubic-bezier(0.42,0,0.58,1); } 80% { transform: translate(287.128px,150.663px) scale(1,1) translate(-287.128px,-150.663px); animation-timing-function: cubic-bezier(0.42,0,0.58,1); } 85% { transform: translate(287.128px,150.663px) scale(0.8,0.8) translate(-287.128px,-150.663px); animation-timing-function: cubic-bezier(0.42,0,0.58,1); } 90% { transform: translate(287.128px,150.663px) scale(1,1) translate(-287.128px,-150.663px); animation-timing-function: cubic-bezier(0.42,0,0.58,1); } 95% { transform: translate(287.128px,150.663px) scale(0.8,0.8) translate(-287.128px,-150.663px); animation-timing-function: cubic-bezier(0.42,0,0.58,1); } 100% { transform: translate(287.128px,150.663px) scale(1,1) translate(-287.128px,-150.663px); } }
@keyframes a9_t { 0% { transform: translate(283.578px,153.03px) scale(1,1) translate(-283.578px,-153.03px); } 45% { transform: translate(283.578px,153.03px) scale(1,1) translate(-283.578px,-153.03px); animation-timing-function: cubic-bezier(0.42,0,0.58,1); } 50% { transform: translate(283.578px,153.03px) scale(0.8,0.8) translate(-283.578px,-153.03px); animation-timing-function: cubic-bezier(0.42,0,0.58,1); } 55% { transform: translate(283.578px,153.03px) scale(1,1) translate(-283.578px,-153.03px); animation-timing-function: cubic-bezier(0.42,0,0.58,1); } 60% { transform: translate(283.578px,153.03px) scale(0.8,0.8) translate(-283.578px,-153.03px); animation-timing-function: cubic-bezier(0.42,0,0.58,1); } 65% { transform: translate(283.578px,153.03px) scale(1,1) translate(-283.578px,-153.03px); animation-timing-function: cubic-bezier(0.42,0,0.58,1); } 70% { transform: translate(283.578px,153.03px) scale(0.8,0.8) translate(-283.578px,-153.03px); animation-timing-function: cubic-bezier(0.42,0,0.58,1); } 75% { transform: translate(283.578px,153.03px) scale(1,1) translate(-283.578px,-153.03px); animation-timing-function: cubic-bezier(0.42,0,0.58,1); } 80% { transform: translate(283.578px,153.03px) scale(0.8,0.8) translate(-283.578px,-153.03px); animation-timing-function: cubic-bezier(0.42,0,0.58,1); } 85% { transform: translate(283.578px,153.03px) scale(1,1) translate(-283.578px,-153.03px); animation-timing-function: cubic-bezier(0.42,0,0.58,1); } 90% { transform: translate(283.578px,153.03px) scale(0.8,0.8) translate(-283.578px,-153.03px); animation-timing-function: cubic-bezier(0.42,0,0.58,1); } 95% { transform: translate(283.578px,153.03px) scale(1,1) translate(-283.578px,-153.03px); animation-timing-function: cubic-bezier(0.42,0,0.58,1); } 100% { transform: translate(283.578px,153.03px) scale(0.8,0.8) translate(-283.578px,-153.03px); } }
@keyframes a11_t { 0% { transform: translate(608.31px,322.438px); animation-timing-function: cubic-bezier(0.42,0,0.58,1); } 20% { transform: translate(608.31px,333.22px); } 100% { transform: translate(608.31px,333.22px); } }
@keyframes a10_t { 0% { transform: rotate(0deg) translate(-608.31px,-333.676px); } 20% { transform: rotate(0deg) translate(-608.31px,-333.676px); animation-timing-function: cubic-bezier(0.42,0,0.58,1); } 30% { transform: rotate(-40deg) translate(-608.31px,-333.676px); } 100% { transform: rotate(-40deg) translate(-608.31px,-333.676px); } }
@keyframes a12_d { 0% { d: path('M601.58,219.43C597.42,219.77,596.25,226.43,593.73,227.72C590.89,229.23,589.66,228.53,587.83,226.65L587.83,203C587.59,196.22,591.32,191.93,596.16,191.5L619.88,191.5C621.69,191.5,626.73,192.69,628.15,200.02C628.59,202.3,628.15,205.75,628.21,209.72C628.27,213.69,628.21,211.15,628.21,218.67C628.21,218.67,626.29,217.33,623.87,219.47C621.45,221.61,622.8,231.24,617.76,231.82C611.39,232.56,609.84,218.8,601.58,219.43Z'); animation-timing-function: cubic-bezier(0.42,0,0.58,1); } 30% { d: path('M601.58,256.729C597.42,257.069,596.25,263.729,593.73,265.019C590.89,266.529,589.66,265.829,587.83,263.949L587.83,203C587.59,196.22,591.32,191.93,596.16,191.5L619.88,191.5C621.69,191.5,626.73,192.69,628.15,200.02C628.59,202.3,628.15,205.75,628.21,209.72C628.27,213.69,628.21,248.449,628.21,255.969C628.21,255.969,626.29,254.629,623.87,256.769C621.45,258.909,622.8,268.539,617.76,269.119C611.39,269.859,609.84,256.099,601.58,256.729Z'); } 100% { d: path('M601.58,256.729C597.42,257.069,596.25,263.729,593.73,265.019C590.89,266.529,589.66,265.829,587.83,263.949L587.83,203C587.59,196.22,591.32,191.93,596.16,191.5L619.88,191.5C621.69,191.5,626.73,192.69,628.15,200.02C628.59,202.3,628.15,205.75,628.21,209.72C628.27,213.69,628.21,248.449,628.21,255.969C628.21,255.969,626.29,254.629,623.87,256.769C621.45,258.909,622.8,268.539,617.76,269.119C611.39,269.859,609.84,256.099,601.58,256.729Z'); } }
@keyframes a13_d { 0% { d: path('M608.07,134.742C605.879,134.763,589.15,157.78,591.55,171.4C593.92,184.79,606.39,184.79,608.09,184.79C609.79,184.79,622.26,184.79,624.62,171.4C627,157.78,609.022,134.763,608.07,134.742Z'); animation-timing-function: cubic-bezier(0.42,0,0.58,1); } 5% { d: path('M608.07,134.742C599.383,138.33,589.15,157.78,591.55,171.4C593.92,184.79,606.39,184.79,608.09,184.79C609.79,184.79,622.26,184.79,624.62,171.4C627,157.78,606.148,145.671,608.07,134.742Z'); animation-timing-function: cubic-bezier(0.42,0,0.58,1); } 10% { d: path('M608.07,134.742C615.216,148.118,589.15,157.78,591.55,171.4C593.92,184.79,606.39,184.79,608.09,184.79C609.79,184.79,622.26,184.79,624.62,171.4C627,157.78,620.254,141.209,608.07,134.742Z'); animation-timing-function: cubic-bezier(0.42,0,0.58,1); } 15% { d: path('M608.07,134.742C599.383,138.33,589.15,157.78,591.55,171.4C593.92,184.79,606.39,184.79,608.09,184.79C609.79,184.79,622.26,184.79,624.62,171.4C627,157.78,606.148,145.671,608.07,134.742Z'); animation-timing-function: cubic-bezier(0.42,0,0.58,1); } 20% { d: path('M608.07,134.742C615.216,148.118,589.15,157.78,591.55,171.4C593.92,184.79,606.39,184.79,608.09,184.79C609.79,184.79,622.26,184.79,624.62,171.4C627,157.78,620.254,141.209,608.07,134.742Z'); animation-timing-function: cubic-bezier(0.42,0,0.58,1); } 25% { d: path('M608.07,134.742C599.383,138.33,589.15,157.78,591.55,171.4C593.92,184.79,606.39,184.79,608.09,184.79C609.79,184.79,622.26,184.79,624.62,171.4C627,157.78,606.148,145.671,608.07,134.742Z'); animation-timing-function: cubic-bezier(0.42,0,0.58,1); } 30% { d: path('M608.07,134.742C615.216,148.118,589.15,157.78,591.55,171.4C593.92,184.79,606.39,184.79,608.09,184.79C609.79,184.79,622.26,184.79,624.62,171.4C627,157.78,620.254,141.209,608.07,134.742Z'); animation-timing-function: cubic-bezier(0.42,0,0.58,1); } 35% { d: path('M608.07,134.742C599.383,138.33,589.15,157.78,591.55,171.4C593.92,184.79,606.39,184.79,608.09,184.79C609.79,184.79,622.26,184.79,624.62,171.4C627,157.78,606.148,145.671,608.07,134.742Z'); animation-timing-function: cubic-bezier(0.42,0,0.58,1); } 40% { d: path('M608.07,134.742C615.216,148.118,589.15,157.78,591.55,171.4C593.92,184.79,606.39,184.79,608.09,184.79C609.79,184.79,622.26,184.79,624.62,171.4C627,157.78,620.254,141.209,608.07,134.742Z'); animation-timing-function: cubic-bezier(0.42,0,0.58,1); } 45% { d: path('M608.07,134.742C599.383,138.33,589.15,157.78,591.55,171.4C593.92,184.79,606.39,184.79,608.09,184.79C609.79,184.79,622.26,184.79,624.62,171.4C627,157.78,606.148,145.671,608.07,134.742Z'); animation-timing-function: cubic-bezier(0.42,0,0.58,1); } 50% { d: path('M608.07,134.742C615.216,148.118,589.15,157.78,591.55,171.4C593.92,184.79,606.39,184.79,608.09,184.79C609.79,184.79,622.26,184.79,624.62,171.4C627,157.78,620.254,141.209,608.07,134.742Z'); animation-timing-function: cubic-bezier(0.42,0,0.58,1); } 55% { d: path('M608.07,134.742C599.383,138.33,589.15,157.78,591.55,171.4C593.92,184.79,606.39,184.79,608.09,184.79C609.79,184.79,622.26,184.79,624.62,171.4C627,157.78,606.148,145.671,608.07,134.742Z'); animation-timing-function: cubic-bezier(0.42,0,0.58,1); } 60% { d: path('M608.07,134.742C615.216,148.118,589.15,157.78,591.55,171.4C593.92,184.79,606.39,184.79,608.09,184.79C609.79,184.79,622.26,184.79,624.62,171.4C627,157.78,620.254,141.209,608.07,134.742Z'); animation-timing-function: cubic-bezier(0.42,0,0.58,1); } 65% { d: path('M608.07,134.742C599.383,138.33,589.15,157.78,591.55,171.4C593.92,184.79,606.39,184.79,608.09,184.79C609.79,184.79,622.26,184.79,624.62,171.4C627,157.78,606.148,145.671,608.07,134.742Z'); animation-timing-function: cubic-bezier(0.42,0,0.58,1); } 70% { d: path('M608.07,134.742C615.216,148.118,589.15,157.78,591.55,171.4C593.92,184.79,606.39,184.79,608.09,184.79C609.79,184.79,622.26,184.79,624.62,171.4C627,157.78,620.254,141.209,608.07,134.742Z'); animation-timing-function: cubic-bezier(0.42,0,0.58,1); } 75% { d: path('M608.07,134.742C599.383,138.33,589.15,157.78,591.55,171.4C593.92,184.79,606.39,184.79,608.09,184.79C609.79,184.79,622.26,184.79,624.62,171.4C627,157.78,606.148,145.671,608.07,134.742Z'); animation-timing-function: cubic-bezier(0.42,0,0.58,1); } 80% { d: path('M608.07,134.742C615.216,148.118,589.15,157.78,591.55,171.4C593.92,184.79,606.39,184.79,608.09,184.79C609.79,184.79,622.26,184.79,624.62,171.4C627,157.78,620.254,141.209,608.07,134.742Z'); animation-timing-function: cubic-bezier(0.42,0,0.58,1); } 85% { d: path('M608.07,134.742C599.383,138.33,589.15,157.78,591.55,171.4C593.92,184.79,606.39,184.79,608.09,184.79C609.79,184.79,622.26,184.79,624.62,171.4C627,157.78,606.148,145.671,608.07,134.742Z'); animation-timing-function: cubic-bezier(0.42,0,0.58,1); } 90% { d: path('M608.07,134.742C615.216,148.118,589.15,157.78,591.55,171.4C593.92,184.79,606.39,184.79,608.09,184.79C609.79,184.79,622.26,184.79,624.62,171.4C627,157.78,620.254,141.209,608.07,134.742Z'); animation-timing-function: cubic-bezier(0.42,0,0.58,1); } 95% { d: path('M608.07,134.742C599.383,138.33,589.15,157.78,591.55,171.4C593.92,184.79,606.39,184.79,608.09,184.79C609.79,184.79,622.26,184.79,624.62,171.4C627,157.78,606.148,145.671,608.07,134.742Z'); animation-timing-function: cubic-bezier(0.42,0,0.58,1); } 100% { d: path('M608.07,134.742C615.216,148.118,589.15,157.78,591.55,171.4C593.92,184.79,606.39,184.79,608.09,184.79C609.79,184.79,622.26,184.79,624.62,171.4C627,157.78,620.254,141.209,608.07,134.742Z'); } }
@keyframes a14_t { 0% { transform: translate(608.044px,177.066px) scale(1,1) translate(-608.044px,-177.066px); animation-timing-function: cubic-bezier(0.42,0,0.58,1); } 5% { transform: translate(608.044px,177.066px) scale(0.8,0.8) translate(-608.044px,-177.066px); animation-timing-function: cubic-bezier(0.42,0,0.58,1); } 10% { transform: translate(608.044px,177.066px) scale(1,1) translate(-608.044px,-177.066px); animation-timing-function: cubic-bezier(0.42,0,0.58,1); } 15% { transform: translate(608.044px,177.066px) scale(0.8,0.8) translate(-608.044px,-177.066px); animation-timing-function: cubic-bezier(0.42,0,0.58,1); } 20% { transform: translate(608.044px,177.066px) scale(1,1) translate(-608.044px,-177.066px); animation-timing-function: cubic-bezier(0.42,0,0.58,1); } 25% { transform: translate(608.044px,177.066px) scale(0.8,0.8) translate(-608.044px,-177.066px); animation-timing-function: cubic-bezier(0.42,0,0.58,1); } 30% { transform: translate(608.044px,177.066px) scale(1,1) translate(-608.044px,-177.066px); animation-timing-function: cubic-bezier(0.42,0,0.58,1); } 35% { transform: translate(608.044px,177.066px) scale(0.8,0.8) translate(-608.044px,-177.066px); animation-timing-function: cubic-bezier(0.42,0,0.58,1); } 40% { transform: translate(608.044px,177.066px) scale(1,1) translate(-608.044px,-177.066px); animation-timing-function: cubic-bezier(0.42,0,0.58,1); } 45% { transform: translate(608.044px,177.066px) scale(0.8,0.8) translate(-608.044px,-177.066px); animation-timing-function: cubic-bezier(0.42,0,0.58,1); } 50% { transform: translate(608.044px,177.066px) scale(1,1) translate(-608.044px,-177.066px); animation-timing-function: cubic-bezier(0.42,0,0.58,1); } 55% { transform: translate(608.044px,177.066px) scale(0.8,0.8) translate(-608.044px,-177.066px); animation-timing-function: cubic-bezier(0.42,0,0.58,1); } 60% { transform: translate(608.044px,177.066px) scale(1,1) translate(-608.044px,-177.066px); animation-timing-function: cubic-bezier(0.42,0,0.58,1); } 65% { transform: translate(608.044px,177.066px) scale(0.8,0.8) translate(-608.044px,-177.066px); animation-timing-function: cubic-bezier(0.42,0,0.58,1); } 70% { transform: translate(608.044px,177.066px) scale(1,1) translate(-608.044px,-177.066px); animation-timing-function: cubic-bezier(0.42,0,0.58,1); } 75% { transform: translate(608.044px,177.066px) scale(0.8,0.8) translate(-608.044px,-177.066px); animation-timing-function: cubic-bezier(0.42,0,0.58,1); } 80% { transform: translate(608.044px,177.066px) scale(1,1) translate(-608.044px,-177.066px); animation-timing-function: cubic-bezier(0.42,0,0.58,1); } 85% { transform: translate(608.044px,177.066px) scale(0.8,0.8) translate(-608.044px,-177.066px); animation-timing-function: cubic-bezier(0.42,0,0.58,1); } 90% { transform: translate(608.044px,177.066px) scale(1,1) translate(-608.044px,-177.066px); animation-timing-function: cubic-bezier(0.42,0,0.58,1); } 95% { transform: translate(608.044px,177.066px) scale(0.8,0.8) translate(-608.044px,-177.066px); animation-timing-function: cubic-bezier(0.42,0,0.58,1); } 100% { transform: translate(608.044px,177.066px) scale(1,1) translate(-608.044px,-177.066px); } }
@keyframes a15_t { 0% { transform: translate(143.902px,-258.825px); } 50% { transform: translate(143.902px,-258.825px); animation-timing-function: cubic-bezier(0.42,0,0.58,1); } 60% { transform: translate(143.902px,41.1746px); } 100% { transform: translate(143.902px,41.1746px); } }
@keyframes tag_t { 0% { transform: rotate(0deg) translate(-384.862px,-113.707px); } 50% { transform: rotate(0deg) translate(-384.862px,-113.707px); animation-timing-function: cubic-bezier(0.42,0,0.58,1); } 60% { transform: rotate(30deg) translate(-384.862px,-113.707px); animation-timing-function: cubic-bezier(0.42,0,0.58,1); } 70% { transform: rotate(-20deg) translate(-384.862px,-113.707px); animation-timing-function: cubic-bezier(0.42,0,0.58,1); } 80% { transform: rotate(0deg) translate(-384.862px,-113.707px); } 100% { transform: rotate(0deg) translate(-384.862px,-113.707px); } }
    </style>
    <title>tiberiusf2</title>
    <path class="cls-1" d="M19.49,236.56C19.49,236.56,21.1,227.09,38,227.09C38,227.09,36.39,210.98,60.53,210.98C60.53,210.98,62.94,198.67,78.23,198.67C91.11,198.67,93.52,209.09,93.52,209.09C93.52,209.09,105.59,204.35,115.25,209.09C124.91,213.83,124.1,224.25,124.1,224.25C124.1,224.25,142.6,222.35,142.6,236.56Z" fill="#e6f5eb" transform="translate(93.6411,217.615) translate(-81.045,-217.615)" style="animation: 10s linear infinite both a0_t;"/>
    <path class="cls-1" d="M463.23,139.67C463.23,139.67,464.78,131.92,481.06,131.92C481.06,131.92,479.51,118.74,502.76,118.74C502.76,118.74,505.08,108.67,519.76,108.67C532.16,108.67,534.48,117.19,534.48,117.19C534.48,117.19,546.11,113.32,555.41,117.19C564.71,121.06,563.93,129.59,563.93,129.59C563.93,129.59,581.76,128.04,581.76,139.67Z" fill="#e6f5eb" transform="translate(522.495,124.17) translate(-522.495,-124.17)" style="animation: 10s linear infinite both a1_t;"/>
    <path class="cls-1" d="M105.09,151.82C105.09,151.82,102.22,137.52,117.48,132.75C132.74,127.98,134.65,136.57,134.65,136.57C134.65,136.57,133.09,121,147,119.4C160.27,117.92,162.26,126.08,162.26,126.08C162.26,126.08,166.08,100.08,197.55,100.08C229.02,100.08,234.74,126.08,234.74,126.08C234.74,126.08,249.04,118.45,259.53,124.17C270.02,129.89,268.11,137.52,268.11,137.52C268.11,137.52,289.11,132.75,298.63,142.29C306.86,150.52,305.3,151.82,305.3,151.82Z" fill="#e6f5eb" transform="translate(205.147,125.95) translate(-205.147,-125.95)" style="animation: 10s linear infinite both a2_t;"/>
    <g>
        <path class="cls-2" d="M439.33,151.89L436.8,256.77L446.94,256.77L443.99,151.89L439.33,151.89Z" fill="#ccebd6"/>
        <g id="windturbine" transform="translate(441.813,146.548) translate(-441.813,-146.548)" style="animation: 10s linear infinite both windturbine_t;">
            <path class="cls-3" d="M441,141.71C441,141.71,441.7,116.9,454.08,103.21C454.143,103.145,454.223,103.101,454.31,103.081C454.398,103.061,454.49,103.068,454.574,103.1C454.658,103.132,454.731,103.188,454.783,103.261C454.836,103.333,454.866,103.42,454.87,103.51C454.93,108.24,454.56,127.22,445.55,142.24C445.523,142.288,445.487,142.33,445.444,142.364C445.401,142.399,445.353,142.425,445.3,142.442C445.248,142.458,445.193,142.465,445.138,142.461C445.083,142.457,445.03,142.443,444.98,142.42L440.98,141.71" fill="#b3e1c2"/>
            <path class="cls-4" d="M443.3,142.13L440.97,141.71" fill="#80ce99"/>
            <path class="cls-3" d="M447.15,147.68C447.15,147.68,468.49,160.36,474.42,177.84C474.449,177.926,474.451,178.018,474.427,178.105C474.403,178.192,474.353,178.27,474.284,178.328C474.215,178.386,474.13,178.422,474.04,178.432C473.95,178.441,473.86,178.423,473.78,178.38C469.62,176.13,453.21,166.58,444.47,151.38C444.442,151.333,444.424,151.282,444.415,151.228C444.406,151.175,444.407,151.12,444.418,151.067C444.429,151.014,444.45,150.963,444.479,150.917C444.508,150.872,444.546,150.832,444.59,150.8L447.15,147.66" fill="#b3e1c2"/>
            <path class="cls-3" d="M436.94,145C436.94,145,412.13,145.87,398.53,158.34C398.463,158.402,398.417,158.482,398.397,158.571C398.377,158.659,398.384,158.752,398.418,158.836C398.451,158.921,398.51,158.993,398.585,159.044C398.66,159.094,398.749,159.121,398.84,159.12C403.57,159.12,422.54,158.66,437.5,149.55C437.547,149.522,437.588,149.486,437.622,149.443C437.656,149.4,437.682,149.351,437.698,149.299C437.715,149.247,437.722,149.192,437.718,149.138C437.715,149.083,437.702,149.03,437.68,148.98L436.94,144.98" fill="#b3e1c2"/>
            <ellipse class="cls-2" rx="6.04" ry="6.04" fill="#ccebd6" transform="translate(0,0) translate(441.87,146.62)"/>
            <ellipse class="cls-5" rx="3.19" ry="3.19" fill="#99d7ad" transform="translate(0,0) translate(441.87,146.62)"/>
        </g>
    </g>
    <path class="cls-2" d="M530.49,173.81L527.95,278.69L538.1,278.69L535.14,173.81L530.49,173.81Z" fill="#ccebd6"/>
    <g transform="translate(533.018,168.635) rotate(60) translate(-533.018,-168.635)" style="animation: 10s linear infinite both a3_t;">
        <path class="cls-3" d="M529.83,164.7C529.83,164.7,521.73,141.23,528.48,124.06C528.513,123.975,528.57,123.902,528.645,123.851C528.72,123.799,528.809,123.772,528.9,123.772C528.991,123.772,529.08,123.799,529.155,123.851C529.23,123.902,529.287,123.975,529.32,124.06C531.05,128.46,537.41,146.34,534.32,163.58C534.309,163.633,534.289,163.684,534.261,163.731C534.233,163.777,534.196,163.818,534.153,163.852C534.111,163.885,534.062,163.911,534.01,163.928C533.959,163.945,533.904,163.952,533.85,163.95L529.85,164.69" fill="#b3e1c2"/>
        <path class="cls-4" d="M534.45,164.05L532.13,163.63" fill="#80ce99"/>
        <path class="cls-3" d="M537.72,168.11C537.72,168.11,562.16,172.44,573.88,186.69C573.937,186.76,573.972,186.846,573.979,186.936C573.987,187.026,573.968,187.116,573.923,187.195C573.879,187.273,573.812,187.337,573.731,187.377C573.651,187.417,573.559,187.432,573.47,187.42C568.78,186.79,550.07,183.65,536.53,172.53C536.487,172.496,536.451,172.454,536.423,172.407C536.396,172.36,536.377,172.308,536.368,172.254C536.359,172.2,536.359,172.145,536.37,172.091C536.381,172.038,536.401,171.986,536.43,171.94L537.72,168.11" fill="#b3e1c2"/>
        <path class="cls-3" d="M527.24,169.23C527.24,169.23,504.33,178.8,496.01,195.23C495.97,195.311,495.956,195.401,495.969,195.49C495.981,195.58,496.02,195.663,496.08,195.729C496.14,195.796,496.219,195.843,496.307,195.865C496.394,195.886,496.486,195.881,496.57,195.85C501,194.21,518.57,187.05,529.37,173.25C529.406,173.209,529.434,173.161,529.453,173.11C529.472,173.059,529.481,173.005,529.481,172.95C529.481,172.895,529.472,172.841,529.453,172.79C529.434,172.739,529.406,172.691,529.37,172.65L527.28,169.19" fill="#b3e1c2"/>
        <ellipse class="cls-2" rx="6.04" ry="6.04" fill="#ccebd6" transform="translate(0,0) translate(533.03,168.54)"/>
        <ellipse class="cls-5" rx="3.19" ry="3.19" fill="#99d7ad" transform="translate(0,0) translate(533.03,168.54)"/>
    </g>
    <g id="fire3" opacity="0" style="animation: 10s linear infinite both fire3_o;">
        <path class="cls-6" d="M168.75,250.2C168.75,250.2,153,248.75,151.6,229.2C150.2,209.65,152.16,212.42,142.6,202.62L153.35,207.17C153.35,207.17,152.76,199.82,155.68,193.87C158.6,187.92,152.3,181.7,152.3,181.7C152.3,181.7,168.05,185.09,173.3,200.16L174.76,189.67C174.76,189.67,174.7,203.32,184.16,211.02C193.62,218.72,190.16,232.88,190.16,232.88C190.16,232.88,197.16,220.82,195.76,212.07C195.71,212.05,204.11,251.6,168.75,250.2Z" fill="#ffe75a" transform="translate(181.508,240.272) translate(-181.508,-240.272)" style="animation: 10s linear infinite both a4_t;"/>
        <path class="cls-7" d="M174.17,254.18C174.17,254.18,163.62,253.18,162.68,240.08C161.74,226.98,163.05,228.84,156.68,222.27L163.88,225.27C163.834,224.51,163.832,223.747,163.875,222.987C163.918,222.226,164.005,221.469,164.136,220.718C164.267,219.968,164.442,219.226,164.66,218.496C164.878,217.766,165.138,217.05,165.44,216.35C167.44,212.35,163.18,208.2,163.18,208.2C163.18,208.2,173.73,210.48,177.25,220.57L178.25,213.57C178.25,213.57,178.25,222.72,184.55,227.88C190.85,233.04,188.55,242.53,188.55,242.53C188.55,242.53,193.24,234.45,192.3,228.53C192.24,228.6,197.87,255.12,174.17,254.18Z" fill="#ff9632" transform="translate(181.16,244.097) translate(-181.16,-244.097)" style="animation: 10s linear infinite both a5_t;"/>
    </g>
    <g id="fire1" opacity="0" transform="translate(459.537,212.546) translate(-459.537,-212.546)" style="animation: 10s linear infinite both fire1_o;">
        <path class="cls-6" d="M449.78,220C449.78,220,437.13,210.5,446.21,193.09C455.29,175.68,455.49,179.09,452.49,165.75L459.25,175.26C459.25,175.26,462.61,168.69,468.25,165.16C473.89,161.63,471.75,153.03,471.75,153.03C471.75,153.03,483.38,164.18,479.95,179.76L486.69,171.59C486.69,171.59,479.48,183.19,483.49,194.7C487.5,206.21,477.09,216.43,477.09,216.43C477.09,216.43,489.37,209.84,492.77,201.66C492.74,201.63,479.14,239.71,449.78,220Z" fill="#ffe75a" transform="translate(457.28,218.49) translate(-457.28,-218.49)" style="animation: 10s linear infinite both a6_t;"/>
        <path class="cls-7" d="M452.31,226.19C452.31,226.19,443.83,219.83,449.91,208.19C455.99,196.55,456.13,198.82,454.13,189.86L458.66,196.24C459.019,195.569,459.417,194.92,459.852,194.295C460.286,193.671,460.757,193.072,461.262,192.502C461.767,191.933,462.305,191.393,462.872,190.887C463.44,190.38,464.037,189.907,464.66,189.47C468.43,187.1,467.02,181.34,467.02,181.34C467.02,181.34,474.81,188.81,472.51,199.26L477.03,193.78C477.03,193.78,472.2,201.55,474.88,209.27C477.56,216.99,470.59,223.83,470.59,223.83C470.59,223.83,478.83,219.42,481.1,213.93C481.1,213.9,472,239.43,452.31,226.19Z" fill="#ff9632" transform="translate(459.311,221.789) translate(-459.311,-221.789)" style="animation: 10s linear infinite both a7_t;"/>
    </g>
    <path class="cls-8" d="M158.6,359.9L158.6,231.75L412.73,231.75L412.73,266.62L387.23,266.62L387.23,351.79L205.37,351.79C203.398,351.869,201.427,351.981,199.458,352.127C197.489,352.273,195.524,352.453,193.561,352.667C191.599,352.88,189.64,353.127,187.686,353.408C185.732,353.688,183.783,354.003,181.84,354.35C170,356.61,158.6,359.9,158.6,359.9Z" fill="url(#Gradient-0)"/>
    <path class="cls-5" d="M387.24,351.83L387.24,266.62L214.52,266.62L214.52,351.83L387.24,351.83" fill="#99d7ad"/>
    <rect class="cls-5" width="195.08" height="17.44" fill="#99d7ad" transform="translate(0,0) translate(188.21,214.32)"/>
    <g id="fire2" opacity="0" style="animation: 10s linear infinite both fire2_o;">
        <path class="cls-6" d="M240.69,165.35C240.69,165.35,230.26,157.08,228.11,140.05C225.96,123.02,209.11,122.11,209.11,122.11C209.11,122.11,234.35,124.4,240.67,134.68C240.67,134.68,234.2,127.88,244.35,114.75C254.5,101.62,254.16,96.35,254.16,96.35C254.16,96.35,257.84,107.08,254.16,114.75C254.16,114.75,256.63,101.87,267.97,96.35C279.31,90.83,275.34,73,275.34,73C275.34,73,298.28,92.32,295.4,116.55C295.4,116.55,301.96,98.45,295.4,88.95C295.4,88.95,300.79,97.2,307.23,99.95C313.67,102.7,314.9,112.23,314.9,112.23C314.9,112.23,313.67,101.5,322.26,98.13C323.451,97.7001,324.57,97.0906,325.577,96.3227C326.584,95.5548,327.468,94.6375,328.198,93.6026C328.928,92.5677,329.495,91.4273,329.881,90.221C330.266,89.0146,330.465,87.7564,330.47,86.49C331.71,88.7117,332.754,91.0367,333.592,93.4389C334.43,95.8411,335.058,98.3114,335.469,100.822C335.88,103.333,336.072,105.874,336.044,108.418C336.016,110.962,335.767,113.499,335.3,116C336.154,114.489,336.935,112.938,337.642,111.353C338.348,109.768,338.978,108.15,339.531,106.504C340.084,104.859,340.558,103.189,340.952,101.498C341.345,99.8081,341.659,98.1,341.89,96.38C341.89,96.38,348.67,119.99,329.49,137.16C310.31,154.33,240.69,165.35,240.69,165.35Z" fill="#ffe75a" transform="translate(287.128,150.663) translate(-287.128,-150.663)" style="animation: 10s linear infinite both a8_t;"/>
        <path class="cls-7" d="M255,165.35C255,165.35,248.79,160.42,247.51,150.28C246.23,140.14,236.2,139.58,236.2,139.58C236.2,139.58,251.2,140.95,255,147.07C255,147.07,251.15,143.07,257.19,135.2C263.23,127.33,263.04,124.2,263.04,124.2C263.04,124.2,265.23,130.59,263.04,135.2C263.04,135.2,264.51,127.52,271.26,124.2C278.01,120.88,275.64,110.31,275.64,110.31C275.64,110.31,289.31,121.82,287.59,136.25C287.59,136.25,291.51,125.47,287.59,119.81C287.59,119.81,290.81,124.73,294.65,126.38C298.49,128.03,299.21,133.7,299.21,133.7C299.21,133.7,298.48,127.3,303.6,125.29C304.31,125.035,304.976,124.673,305.576,124.216C306.177,123.759,306.703,123.213,307.138,122.596C307.573,121.98,307.911,121.301,308.14,120.582C308.37,119.864,308.488,119.114,308.49,118.36C309.227,119.68,309.848,121.061,310.346,122.487C310.845,123.914,311.219,125.382,311.464,126.873C311.709,128.364,311.824,129.874,311.808,131.386C311.793,132.897,311.646,134.404,311.37,135.89C311.878,134.99,312.343,134.065,312.763,133.121C313.183,132.176,313.558,131.212,313.887,130.232C314.216,129.252,314.498,128.256,314.732,127.249C314.966,126.242,315.152,125.225,315.29,124.2C315.29,124.2,319.29,138.26,307.9,148.5C296.51,158.74,255,165.35,255,165.35Z" fill="#ff9632" transform="translate(283.578,153.03) translate(-283.578,-153.03)" style="animation: 10s linear infinite both a9_t;"/>
    </g>
    <g/>
    <path class="cls-5" d="M188.21,185.37L383.29,185.37L383.29,123.19L188.21,178.46L188.21,185.37Z" fill="#99d7ad"/>
    <rect class="cls-9" width="13.49" height="120.08" fill="#66c485" transform="translate(0,0) translate(310.38,231.75)"/>
    <path class="cls-10" d="M412.73,250.17L412.73,266.62L400.72,266.62L400.72,266.65L387.24,266.65L387.24,351.83L400.72,351.83L400.72,277.17L541.35,277L541.35,351.83L555.01,351.83L555.01,250.17L412.73,250.17Z" fill="url(#Gradient-1)"/>
    <path class="cls-11" d="M168.47,185.37L400.72,119.57L400.72,110.03L168.47,174.84L168.47,185.37Z" fill="#009c33"/>
    <path class="cls-12" d="M489.55,215.96L383.29,185.37" fill="#1f906d"/>
    <path class="cls-11" d="M383.29,185.37L383.29,194.58L489.55,224.46L489.55,215.96" fill="#009c33"/>
    <path class="cls-3" d="M467.83,250.17L467.83,218.36L383.29,194.58L383.29,231.75L412.73,231.75L412.73,250.17L467.83,250.17Z" fill="#b3e1c2"/>
    <rect class="cls-4" width="140.63" height="74.68" fill="#80ce99" transform="translate(0,0) translate(400.72,277.15)"/>
    <rect class="cls-13" width="191.79" height="28.95" fill="#fff" transform="translate(0,0) translate(191.5,185.37)"/>
    <rect class="cls-13" width="77.64" height="63.49" fill="#fff" transform="translate(0,0) translate(223.38,274.22)"/>
    <rect class="cls-13" width="48.03" height="61.85" fill="#fff" transform="translate(0,0) translate(331.36,276.49)"/>
    <path class="cls-13" d="M449.08,250.17L449.08,223.03L395.79,223.03L395.79,231.75L412.73,231.75L412.73,250.17L449.08,250.17Z" fill="#fff"/>
    <g>
        <rect class="cls-14" width="2.96" height="28.95" fill="#4dba71" transform="translate(0,0) translate(228.83,185.37)"/>
        <rect class="cls-14" width="2.96" height="28.95" fill="#4dba71" transform="translate(0,0) translate(267.82,185.37)"/>
        <rect class="cls-14" width="2.96" height="28.95" fill="#4dba71" transform="translate(0,0) translate(306.06,185.37)"/>
        <rect class="cls-14" width="2.96" height="28.95" fill="#4dba71" transform="translate(0,0) translate(344.9,185.37)"/>
        <rect class="cls-14" width="2.96" height="27.14" fill="#4dba71" transform="translate(0,0) translate(420.95,223.03)"/>
    </g>
    <rect class="cls-14" width="2.96" height="140.63" fill="#4dba71" transform="translate(757.89,-184.19) rotate(90) translate(469.56,216.54)"/>
    <rect class="cls-14" width="2.96" height="140.63" fill="#4dba71" transform="translate(768.41,-173.67) rotate(90) translate(469.56,227.06)"/>
    <rect class="cls-14" width="2.96" height="140.63" fill="#4dba71" transform="translate(778.93,-163.14) rotate(90) translate(469.56,237.58)"/>
    <rect class="cls-14" width="2.96" height="140.63" fill="#4dba71" transform="translate(789.45,-152.62) rotate(90) translate(469.56,248.1)"/>
    <rect class="cls-14" width="2.96" height="140.63" fill="#4dba71" transform="translate(799.97,-142.1) rotate(90) translate(469.56,258.62)"/>
    <rect class="cls-14" width="2.96" height="140.63" fill="#4dba71" transform="translate(810.5,-131.58) rotate(90) translate(469.56,269.14)"/>
    <rect class="cls-14" width="2.96" height="140.63" fill="#4dba71" transform="translate(820.85,-121.23) rotate(90) translate(469.56,279.49)"/>
    <g>
        <rect class="cls-9" width="2.96" height="63.49" fill="#66c485" transform="translate(0,0) translate(248.08,273.53)"/>
        <rect class="cls-9" width="2.96" height="63.49" fill="#66c485" transform="translate(0,0) translate(274.4,273.53)"/>
        <rect class="cls-9" width="2.96" height="63.49" fill="#66c485" transform="translate(0,0) translate(299.07,273.53)"/>
        <rect class="cls-9" width="2.96" height="63.49" fill="#66c485" transform="translate(0,0) translate(222.75,273.53)"/>
        <rect class="cls-9" width="2.96" height="79.28" fill="#66c485" transform="translate(537.4,12.62) rotate(90) translate(260.91,235.37)"/>
        <rect class="cls-9" width="6" height="83.31" fill="#66c485" transform="translate(602.41,77.63) rotate(90) translate(259.39,298.37)"/>
    </g>
    <g>
        <rect class="cls-9" width="2.96" height="63.49" fill="#66c485" transform="translate(0,0) translate(354.28,273.53)"/>
        <rect class="cls-9" width="2.96" height="48.8" fill="#66c485" transform="translate(630.77,-80.75) rotate(90) translate(354.28,250.61)"/>
        <rect class="cls-9" width="2.96" height="63.49" fill="#66c485" transform="translate(0,0) translate(377.2,273.53)"/>
        <rect class="cls-9" width="2.96" height="63.49" fill="#66c485" transform="translate(0,0) translate(331.36,273.53)"/>
        <rect class="cls-9" width="6" height="52.2" fill="#66c485" transform="translate(695.62,-15.57) rotate(90) translate(352.6,313.92)"/>
    </g>
    <path class="cls-11" d="M385.86,123.78L400.72,119.57L400.72,110.03L384.61,114.53L385.86,123.78Z" fill="#009c33"/>
    <g style="animation: 10s linear infinite both a11_t;">
        <g transform="translate(608.31,322.438) translate(-608.31,-333.676)" style="animation: 10s linear infinite both a10_t;">
            <path class="cls-15" d="M619.12,342.32L596.92,342.32C595.693,342.281,594.485,342.002,593.365,341.498C592.245,340.995,591.235,340.276,590.392,339.384C589.549,338.491,588.889,337.442,588.449,336.296C588.01,335.149,587.799,333.927,587.83,332.7L587.83,201.12C587.83,195.83,628.21,195.83,628.21,201.12L628.21,332.7C628.241,333.927,628.03,335.149,627.591,336.296C627.151,337.442,626.491,338.491,625.648,339.384C624.805,340.276,623.795,340.995,622.675,341.498C621.555,342.002,620.347,342.281,619.12,342.32Z" fill="url(#Gradient-2)"/>
            <path class="cls-14" d="M601.58,219.43C597.42,219.77,596.25,226.43,593.73,227.72C590.89,229.23,589.66,228.53,587.83,226.65L587.83,203C587.59,196.22,591.32,191.93,596.16,191.5L619.88,191.5C621.69,191.5,626.73,192.69,628.15,200.02C628.59,202.3,628.15,205.75,628.21,209.72C628.27,213.69,628.21,211.15,628.21,218.67C628.21,218.67,626.29,217.33,623.87,219.47C621.45,221.61,622.8,231.24,617.76,231.82C611.39,232.56,609.84,218.8,601.58,219.43Z" fill="#4dba71" style="animation: 10s linear infinite both a12_d;"/>
            <path class="cls-6" d="M608.07,134.742C605.879,134.763,589.15,157.78,591.55,171.4C593.92,184.79,606.39,184.79,608.09,184.79C609.79,184.79,622.26,184.79,624.62,171.4C627,157.78,609.022,134.763,608.07,134.742Z" fill="#ffe75a" style="animation: 10s linear infinite both a13_d;"/>
            <path class="cls-7" d="M608.52,154.7C608.463,154.629,608.39,154.572,608.308,154.532C608.226,154.493,608.136,154.473,608.045,154.473C607.954,154.473,607.864,154.493,607.782,154.532C607.7,154.572,607.627,154.629,607.57,154.7C605.74,156.9,599.25,165.19,600.36,171.53C601.47,177.87,607.26,177.75,608.05,177.75C608.84,177.75,614.63,177.75,615.73,171.53C616.83,165.31,610.36,156.9,608.52,154.7Z" fill="#ff9632" transform="translate(608.044,177.066) translate(-608.044,-177.066)" style="animation: 10s linear infinite both a14_t;"/>
        </g>
    </g>
    <path class="cls-16" d="M564.8,327.62L651.23,327.62L645.13,339.72L571.53,339.72L564.8,327.62Z" fill="url(#Gradient-3)"/>
    <path class="cls-9" d="M575.13,339.72L640.96,339.72L638.64,345.77L636.31,351.83L627.25,351.83L580.26,351.83L575.13,339.72Z" fill="#66c485"/>
    <g mask="url(#Mask-1)" transform="translate(318.179,155.069) translate(-77.2887,-81.9859)">
        <g id="tag" style="animation: 10s linear infinite both a15_t;">
            <g transform="translate(143.902,-258.825) translate(-384.862,-113.707)" style="animation: 10s linear infinite both tag_t;">
                <g>
                    <path class="cls-17" d="M391,172.59L337,170.07L324.21,184.19L319.34,288.55L395.34,292.09L400.18,188.32ZM362.39,194.35C359.969,194.491,357.702,193.161,356.643,190.979C355.585,188.798,355.943,186.193,357.552,184.379C359.161,182.565,361.704,181.897,363.996,182.688C366.289,183.478,367.88,185.57,368.03,187.99C368.079,188.776,367.972,189.564,367.717,190.308C367.462,191.053,367.062,191.74,366.541,192.331C366.02,192.921,365.388,193.404,364.681,193.75C363.974,194.096,363.206,194.3,362.42,194.35Z" fill="url(#Gradient-4)"/>
                    <path fill="#fff" d="M0.752,-8.592L1.936,-6.784L3.616,-8.224L3.616,0L6.144,0L6.144,-11.168L4.128,-11.168ZM9.056,-5.232C10.032,-5.472,10.384,-5.536,10.816,-5.536C12.128,-5.536,13.04,-4.768,13.04,-3.648C13.04,-2.544,12.208,-1.76,11.008,-1.76C10.448,-1.76,10.032,-1.872,8.944,-2.304L8.816,-0.32C9.856,0.08,10.384,0.192,11.408,0.192C14,0.192,15.664,-1.312,15.664,-3.648C15.664,-5.92,14.384,-7.264,12.224,-7.264C12.048,-7.264,11.76,-7.248,11.568,-7.232L11.376,-7.216L11.264,-7.2L11.264,-9.28L15.168,-9.28L15.168,-11.168L9.056,-11.168ZM20.82,-11.36C18.308,-11.36,17.14,-9.52,17.14,-5.568C17.14,-1.648,18.324,0.192,20.82,0.192C23.332,0.192,24.5,-1.648,24.5,-5.6C24.5,-9.52,23.316,-11.36,20.82,-11.36ZM20.82,-9.536C21.668,-9.536,22.036,-8.32,22.036,-5.552C22.036,-2.864,21.652,-1.632,20.82,-1.632C19.972,-1.632,19.604,-2.848,19.604,-5.568C19.604,-8.32,19.972,-9.536,20.82,-9.536ZM26.178,0L28.482,0L28.482,-2.4L26.178,-2.4ZM33.82,-11.36C31.308,-11.36,30.14,-9.52,30.14,-5.568C30.14,-1.648,31.324,0.192,33.82,0.192C36.332,0.192,37.5,-1.648,37.5,-5.6C37.5,-9.52,36.316,-11.36,33.82,-11.36ZM33.82,-9.536C34.668,-9.536,35.036,-8.32,35.036,-5.552C35.036,-2.864,34.652,-1.632,33.82,-1.632C32.972,-1.632,32.604,-2.848,32.604,-5.568C32.604,-8.32,32.972,-9.536,33.82,-9.536ZM42.7725,-11.36C40.2605,-11.36,39.0925,-9.52,39.0925,-5.568C39.0925,-1.648,40.2765,0.192,42.7725,0.192C45.2845,0.192,46.4525,-1.648,46.4525,-5.6C46.4525,-9.52,45.2685,-11.36,42.7725,-11.36ZM42.7725,-9.536C43.6205,-9.536,43.9885,-8.32,43.9885,-5.552C43.9885,-2.864,43.6045,-1.632,42.7725,-1.632C41.9245,-1.632,41.5565,-2.848,41.5565,-5.568C41.5565,-8.32,41.9245,-9.536,42.7725,-9.536ZM51.6,-11.36C49.088,-11.36,47.92,-9.52,47.92,-5.568C47.92,-1.648,49.104,0.192,51.6,0.192C54.112,0.192,55.28,-1.648,55.28,-5.6C55.28,-9.52,54.096,-11.36,51.6,-11.36ZM51.6,-9.536C52.448,-9.536,52.816,-8.32,52.816,-5.552C52.816,-2.864,52.432,-1.632,51.6,-1.632C50.752,-1.632,50.384,-2.848,50.384,-5.568C50.384,-8.32,50.752,-9.536,51.6,-9.536ZM66.3087,-3.616L66.8848,-5.136L64.1647,-5.136C64.1488,-5.328,64.1488,-5.472,64.1488,-5.648C64.1488,-5.856,64.1488,-6.016,64.1807,-6.208L67.2848,-6.208L67.8607,-7.728L64.5807,-7.728C65.0768,-8.752,65.9408,-9.28,67.0928,-9.28C67.5407,-9.28,67.7967,-9.232,68.3727,-9.072L69.0768,-10.944C68.2927,-11.232,67.5088,-11.36,66.6127,-11.36C64.2607,-11.36,62.3567,-9.952,61.7487,-7.728L61.1567,-7.728L60.5807,-6.208L61.4767,-6.208C61.4607,-5.984,61.4607,-5.808,61.4607,-5.584C61.4607,-5.392,61.4607,-5.28,61.4767,-5.136L61.1567,-5.136L60.5807,-3.616L61.7167,-3.616C62.4688,-1.136,64.2287,0.192,66.7887,0.192C67.2687,0.192,67.6208,0.16,68.3727,0.048L68.3727,-2.128C67.9248,-2,67.5567,-1.952,67.1247,-1.952C66.0047,-1.952,65.0928,-2.544,64.5648,-3.616ZM18.17,11.48C17.81,11.33,17.4,11.26,16.97,11.26C15.82,11.26,15.11,11.92,15.11,12.97C15.11,13.82,15.38,14.18,16.58,14.93C17.41,15.45,17.61,15.7,17.61,16.25C17.61,16.9,17.14,17.34,16.45,17.34C16.08,17.34,15.63,17.19,15.16,16.91L15.16,17.78C15.55,17.96,16.05,18.07,16.54,18.07C17.74,18.07,18.49,17.34,18.49,16.18C18.49,15.34,18.13,14.83,17.12,14.23C16.2,13.68,15.99,13.45,15.99,12.99C15.99,12.39,16.41,11.99,17.04,11.99C17.47,11.99,17.8,12.08,18.17,12.29ZM23.66,11.53C23.15,11.31,22.82,11.23,22.34,11.23C20.59,11.23,19.48,12.55,19.48,14.63C19.48,16.77,20.6,18.1,22.42,18.1C22.89,18.1,23.19,18.04,23.66,17.84L23.66,17.01C23.18,17.26,22.87,17.35,22.43,17.35C21.16,17.35,20.37,16.32,20.37,14.66C20.37,13.03,21.16,11.96,22.38,11.96C22.82,11.96,23.14,12.05,23.66,12.34ZM28.95,11.33L28.1,11.33L28.1,14.18L25.75,14.18L25.75,11.33L24.9,11.33L24.9,18L25.75,18L25.75,14.89L28.1,14.89L28.1,18L28.95,18ZM35.26,18L33.09,11.33L32.13,11.33L29.96,18L30.85,18L31.37,16.29L33.83,16.29L34.37,18ZM33.6,15.58L31.58,15.58L32.58,12.2ZM36.27,11.33L36.27,18L37.46,18C38.46,18,39.14,17.8,39.65,17.36C40.31,16.8,40.67,15.84,40.67,14.66C40.67,13.68,40.41,12.82,39.94,12.24C39.4,11.57,38.72,11.33,37.36,11.33ZM37.12,12.01L37.49,12.01C38.19,12.01,38.64,12.14,38.96,12.43C39.44,12.87,39.78,13.82,39.78,14.73C39.78,15.5,39.54,16.21,39.11,16.7C38.72,17.13,38.23,17.32,37.49,17.32L37.12,17.32ZM41.97,11.33L41.97,18L45.15,18L45.15,17.29L42.82,17.29L42.82,14.92L44.95,14.92L44.95,14.21L42.82,14.21L42.82,12.04L45.09,12.04L45.09,11.33ZM46.39,18L47.19,18L47.19,12.53L47.21,12.53L49.73,18L50.77,18L50.77,11.33L49.97,11.33L49.97,16.83L49.95,16.83L47.43,11.33L46.39,11.33ZM4.11,22.09L3.29,22.09L3.29,23.01L4.11,23.01ZM4.11,24.13L3.29,24.13L3.29,29L4.11,29ZM6.21,24.13L5.42,24.13C5.46,24.9,5.47,25.38,5.47,26.17L5.47,29L6.29,29L6.29,26.6C6.29,25.87,6.35,25.5,6.51,25.18C6.66,24.91,6.92,24.74,7.2,24.74C7.42,24.74,7.6,24.84,7.7,25.02C7.87,25.33,7.9,25.6,7.9,26.62L7.9,29L8.71,29L8.71,26.71C8.71,25.85,8.76,25.51,8.94,25.17C9.09,24.9,9.35,24.74,9.64,24.74C9.88,24.74,10.06,24.84,10.16,25.02C10.3,25.28,10.33,25.56,10.33,26.51L10.33,29L11.14,29L11.14,26.35C11.14,25.31,11.09,24.98,10.87,24.59C10.66,24.23,10.29,24.03,9.84,24.03C9.26,24.03,8.89,24.28,8.56,24.91C8.32,24.29,7.98,24.03,7.43,24.03C6.94,24.03,6.59,24.26,6.21,24.82ZM14.92,22.33L14.92,29L16.11,29C17.11,29,17.79,28.8,18.3,28.36C18.96,27.8,19.32,26.84,19.32,25.66C19.32,24.68,19.06,23.82,18.59,23.24C18.05,22.57,17.37,22.33,16.01,22.33ZM15.77,23.01L16.14,23.01C16.84,23.01,17.29,23.14,17.61,23.43C18.09,23.87,18.43,24.82,18.43,25.73C18.43,26.5,18.19,27.21,17.76,27.7C17.37,28.13,16.88,28.32,16.14,28.32L15.77,28.32ZM23.9,24.13L23.09,24.13L23.09,26.48C23.09,27.88,22.82,28.39,22.1,28.39C21.8,28.39,21.6,28.28,21.48,28.06C21.33,27.8,21.3,27.51,21.3,26.5L21.3,24.13L20.49,24.13L20.49,26.64C20.49,27.85,20.53,28.1,20.76,28.51C20.98,28.9,21.36,29.1,21.86,29.1C22.47,29.1,22.84,28.87,23.17,28.3L23.21,29L23.96,29C23.93,28.8,23.91,28.37,23.9,27.18ZM27.37,24.08C27.29,24.07,27.23,24.07,27.16,24.07C26.55,24.07,26.28,24.28,25.95,24.99L25.95,24.13L25.18,24.13C25.22,24.82,25.23,25.37,25.23,25.91L25.23,29L26.05,29L26.05,26.87C26.05,26.02,26.11,25.68,26.31,25.34C26.49,25.02,26.74,24.86,27.03,24.86C27.13,24.86,27.3,24.88,27.34,24.9L27.37,24.91ZM31.01,24.24C30.6,24.08,30.34,24.03,30,24.03C28.75,24.03,27.94,25.02,27.94,26.56C27.94,28.07,28.74,29.1,29.93,29.1C30.3,29.1,30.64,29.03,31.01,28.87L30.98,28.14C30.6,28.35,30.37,28.42,30.05,28.42C29.28,28.42,28.78,27.68,28.78,26.54C28.78,26,28.94,25.43,29.17,25.13C29.39,24.86,29.71,24.71,30.09,24.71C30.31,24.71,30.53,24.76,30.73,24.86C30.79,24.88,30.86,24.91,30.92,24.94L30.98,24.96ZM35.41,29L35.41,26.55C35.41,25.29,35.38,25.04,35.14,24.63C34.92,24.23,34.54,24.03,34.01,24.03C33.45,24.03,33.12,24.22,32.76,24.77L32.76,21.79L31.95,21.79L31.95,29L32.76,29L32.76,26.82C32.76,25.98,32.83,25.54,33.01,25.23C33.2,24.91,33.48,24.74,33.81,24.74C34.08,24.74,34.29,24.86,34.41,25.09C34.57,25.37,34.6,25.65,34.6,26.7L34.6,29ZM39.01,24.24C38.53,24.08,38.26,24.03,37.91,24.03C37.04,24.03,36.47,24.56,36.47,25.37C36.47,25.97,36.73,26.31,37.52,26.73C38.22,27.1,38.41,27.31,38.41,27.7C38.41,28.16,38.08,28.44,37.55,28.44C37.19,28.44,36.98,28.37,36.49,28.07L36.42,28.79C36.85,29.01,37.22,29.1,37.63,29.1C38.62,29.1,39.24,28.55,39.24,27.68C39.24,27.03,38.92,26.61,38.12,26.21C37.47,25.89,37.27,25.69,37.27,25.33C37.27,24.92,37.53,24.69,38.01,24.69C38.33,24.69,38.56,24.74,38.95,24.91ZM43.15,24.24C42.74,24.08,42.48,24.03,42.14,24.03C40.89,24.03,40.08,25.02,40.08,26.56C40.08,28.07,40.88,29.1,42.07,29.1C42.44,29.1,42.78,29.03,43.15,28.87L43.12,28.14C42.74,28.35,42.51,28.42,42.19,28.42C41.42,28.42,40.92,27.68,40.92,26.54C40.92,26,41.08,25.43,41.31,25.13C41.53,24.86,41.85,24.71,42.23,24.71C42.45,24.71,42.67,24.76,42.87,24.86C42.93,24.88,43,24.91,43.06,24.94L43.12,24.96ZM47.55,29L47.55,26.55C47.55,25.29,47.52,25.04,47.28,24.63C47.06,24.23,46.68,24.03,46.15,24.03C45.59,24.03,45.26,24.22,44.9,24.77L44.9,21.79L44.09,21.79L44.09,29L44.9,29L44.9,26.82C44.9,25.98,44.97,25.54,45.15,25.23C45.34,24.91,45.62,24.74,45.95,24.74C46.22,24.74,46.43,24.86,46.55,25.09C46.71,25.37,46.74,25.65,46.74,26.7L46.74,29ZM52.26,29L52.26,26.46C52.26,25.5,52.22,25.18,52.07,24.83C51.83,24.29,51.43,24.03,50.86,24.03C50.27,24.03,49.91,24.26,49.56,24.84L49.56,24.13L48.76,24.13C48.8,24.59,48.81,25.07,48.81,25.94L48.81,29L49.63,29L49.63,26.61C49.63,25.92,49.69,25.56,49.88,25.23C50.05,24.92,50.33,24.74,50.66,24.74C50.94,24.74,51.14,24.85,51.26,25.07C51.41,25.34,51.45,25.69,51.45,26.56L51.45,29ZM54.41,22.09L53.59,22.09L53.59,23.01L54.41,23.01ZM54.41,24.13L53.59,24.13L53.59,29L54.41,29ZM56.1,24.77L56.1,27.44C56.1,28.35,56.14,28.56,56.39,28.79C56.58,28.97,56.83,29.05,57.2,29.05C57.47,29.05,57.64,29.03,57.89,28.95L57.89,28.27C57.72,28.36,57.57,28.4,57.41,28.4C57.24,28.4,57.08,28.33,57.01,28.22C56.91,28.06,56.91,28.06,56.91,27.01L56.91,24.77L57.85,24.77L57.85,24.13L56.91,24.13L56.91,22.84L56.1,23.1L56.1,24.13L55.3,24.13L55.3,24.77ZM59.29,24.77L59.29,27.44C59.29,28.35,59.33,28.56,59.58,28.79C59.77,28.97,60.02,29.05,60.39,29.05C60.66,29.05,60.83,29.03,61.08,28.95L61.08,28.27C60.91,28.36,60.76,28.4,60.6,28.4C60.43,28.4,60.27,28.33,60.2,28.22C60.1,28.06,60.1,28.06,60.1,27.01L60.1,24.77L61.04,24.77L61.04,24.13L60.1,24.13L60.1,22.84L59.29,23.1L59.29,24.13L58.49,24.13L58.49,24.77ZM64.85,23.06L63.8,23.55L63.86,22.23L63.16,22.23L63.23,23.55L62.17,23.06L61.97,23.67L63.12,24.05L62.36,25.1L62.9,25.5L63.51,24.42L64.1,25.5L64.66,25.1L63.9,24.05L65.05,23.67Z" transform="translate(325.69,229.63) rotate(2.67)"/>
                </g>
                <path class="cls-44" d="M398.33,116.21C396.78,113.63,393.47,110.43,386.58,109.77C378.63,109,374.8,117.86,371.08,126.43C368.63,132.09,366.08,137.95,362.53,141.13C358.18,145.02,356.07,153.56,356.27,166.52C356.298,167.998,356.35,169.476,356.425,170.953C356.5,172.429,356.598,173.905,356.72,175.378C356.842,176.852,356.987,178.323,357.155,179.792C357.324,181.261,357.515,182.727,357.73,184.19C358.196,183.705,358.74,183.303,359.339,182.998C359.938,182.694,360.585,182.493,361.251,182.402C361.917,182.312,362.593,182.335,363.252,182.469C363.911,182.603,364.542,182.847,365.12,183.19C366.07,165.53,369.51,154.19,375.91,147.47C376.866,146.533,377.845,145.62,378.845,144.73C379.845,143.841,380.866,142.976,381.908,142.135C382.95,141.295,384.011,140.479,385.092,139.69C386.173,138.9,387.273,138.137,388.39,137.4C393.6,133.73,397.72,130.83,399.12,127.4C399.486,126.502,399.748,125.566,399.9,124.609C400.053,123.651,400.096,122.68,400.027,121.713C399.959,120.746,399.78,119.79,399.495,118.864C399.209,117.938,398.818,117.047,398.33,116.21ZM395.42,125.87C394.42,128.22,390.42,131.09,386.08,134.12C384.907,134.892,383.753,135.692,382.619,136.521C381.485,137.349,380.372,138.206,379.28,139.089C378.188,139.972,377.118,140.882,376.071,141.817C375.024,142.753,374,143.714,373,144.7C366.11,151.9,362.44,163.04,361.24,180.57C359.93,170.06,358.85,149.76,365.17,144.11C369.39,140.34,372.11,134.11,374.73,128.02C377.92,120.68,380.93,113.72,385.73,113.72C385.77,113.718,385.81,113.716,385.85,113.714C385.89,113.713,385.93,113.713,385.97,113.713C386.01,113.713,386.05,113.713,386.09,113.714C386.13,113.716,386.17,113.718,386.21,113.72C390.36,114.12,393.38,115.72,394.93,118.25C395.258,118.822,395.519,119.43,395.709,120.062C395.899,120.694,396.017,121.345,396.059,122.003C396.101,122.661,396.068,123.322,395.961,123.973C395.853,124.624,395.672,125.26,395.42,125.87Z" fill="#ff7200"/>
            </g>
        </g>
    </g>
    <path class="cls-11" d="M385.86,123.24L400.72,119.03L400.72,109.49L384.644,114.001L385.86,123.24Z" fill="#009c33" opacity="1" transform="translate(0.0463153,0.509468)"/>
</svg>
