<?xml version="1.0" encoding="UTF-8" standalone="no"?>
<!-- Created with Keyshape -->
<svg xmlns="http://www.w3.org/2000/svg" viewBox="0 0 670 400">
    <defs>
        <linearGradient id="Gradient-0" x1="0" y1="14.82" x2="143.34" y2="14.82" gradientUnits="userSpaceOnUse">
            <stop offset="0" stop-color="#e6e6e6"/>
            <stop offset="1" stop-color="#b3b3b3"/>
        </linearGradient>
        <linearGradient id="Gradient-1" x1="0" y1="9.49" x2="94.65" y2="9.49" gradientUnits="userSpaceOnUse">
            <stop offset="0" stop-color="#e6e6e6"/>
            <stop offset="1" stop-color="#b3b3b3"/>
        </linearGradient>
        <linearGradient id="Gradient-2" x1="0" y1="9.49" x2="79.58" y2="9.49" gradientUnits="userSpaceOnUse">
            <stop offset="0" stop-color="#e6e6e6"/>
            <stop offset="1" stop-color="#b3b3b3"/>
        </linearGradient>
        <linearGradient id="Gradient-3" x1="0" y1="6.99" x2="44.98" y2="6.99" gradientUnits="userSpaceOnUse">
            <stop offset="0" stop-color="#e6e6e6"/>
            <stop offset="1" stop-color="#b3b3b3"/>
        </linearGradient>
        <linearGradient id="Gradient-4" x1="0" y1="6.99" x2="24.49" y2="6.99" gradientUnits="userSpaceOnUse">
            <stop offset="0" stop-color="#e6e6e6"/>
            <stop offset="1" stop-color="#b3b3b3"/>
        </linearGradient>
        <linearGradient id="Gradient-5" x1="0" y1="6.99" x2="13.99" y2="6.99" gradientUnits="userSpaceOnUse">
            <stop offset="0" stop-color="#e6e6e6"/>
            <stop offset="1" stop-color="#b3b3b3"/>
        </linearGradient>
        <linearGradient id="Gradient-6" x1="110.24" y1="200.58" x2="180.1" y2="200.58" gradientUnits="userSpaceOnUse">
            <stop offset="0" stop-color="#b3e1c2"/>
            <stop offset="1" stop-color="#4dba71"/>
        </linearGradient>
        <linearGradient id="Gradient-7" x1="246.41" y1="143.95" x2="405.59" y2="143.95" gradientUnits="userSpaceOnUse">
            <stop offset="0" stop-color="#4dba71"/>
            <stop offset="1" stop-color="#007d29"/>
        </linearGradient>
        <linearGradient id="Gradient-8" x1="237.98" y1="151.09" x2="411.42" y2="232.18" gradientUnits="userSpaceOnUse">
            <stop offset="0" stop-color="#4dba71"/>
            <stop offset="1" stop-color="#007d29"/>
        </linearGradient>
        <linearGradient id="Gradient-9" x1="203.012" y1="144.451" x2="405.59" y2="143.95" gradientUnits="userSpaceOnUse">
            <stop offset="0" stop-color="#4dba71"/>
            <stop offset="1" stop-color="#007d29"/>
        </linearGradient>
        <linearGradient id="Gradient-10" x1="342.18" y1="237.09" x2="435.73" y2="237.09" gradientUnits="userSpaceOnUse">
            <stop offset="0" stop-color="#ff9632"/>
            <stop offset="1" stop-color="#ff7200"/>
        </linearGradient>
        <linearGradient id="Gradient-11" x1="205.625" y1="106.103" x2="206.672" y2="2.93959" gradientUnits="userSpaceOnUse">
            <stop offset="0" stop-color="#ffffff"/>
            <stop offset="1" stop-color="#000000"/>
        </linearGradient>
        <linearGradient id="Gradient-12" x1="152.52" y1="0" x2="154.001" y2="114.02" gradientUnits="userSpaceOnUse">
            <stop offset="0" stop-color="#000000"/>
            <stop offset="1" stop-color="#ffffff"/>
        </linearGradient>
        <linearGradient id="Gradient-13" x1="38.1474" y1="0" x2="38.5809" y2="19.0737" gradientUnits="userSpaceOnUse">
            <stop offset="0" stop-color="#000000"/>
            <stop offset="1" stop-color="#ffffff"/>
        </linearGradient>
        <linearGradient id="Gradient-14" x1="302.982" y1="125.13" x2="395.08" y2="125.13" gradientUnits="userSpaceOnUse">
            <stop offset="0" stop-color="#4dba71"/>
            <stop offset="1" stop-color="#007d29"/>
        </linearGradient>
        <mask id="Mask-1">
            <rect width="391.454" height="317.847" fill="url(#Gradient-11)" rx="1.59" stroke="none" transform="translate(54.293,47.446) translate(-195.727,-158.924)"/>
        </mask>
        <mask id="Mask-3">
            <rect width="305.041" height="321.33" fill="url(#Gradient-12)" stroke="none" transform="translate(40.5057,351.342) translate(-152.52,-160.665)"/>
        </mask>
        <mask id="Mask-2">
            <rect width="76.2949" height="57.6547" fill="url(#Gradient-13)" rx="1.59" stroke="none" transform="translate(22.812,20.961) translate(-38.1474,-28.8273)"/>
        </mask>
    </defs>
    <style>
@keyframes a0_t { 0% { transform: translate(552.076px,335.835px); } 20% { transform: translate(552.076px,335.835px); animation-timing-function: cubic-bezier(0.42,0,0.58,1); } 70% { transform: translate(91.3241px,335.835px); } 100% { transform: translate(91.3241px,335.835px); } }
@keyframes wind_t { 0% { transform: rotate(0deg) translate(-552.076px,-335.835px); } 20% { transform: rotate(0deg) translate(-552.076px,-335.835px); animation-timing-function: cubic-bezier(0.42,0,0.58,1); } 45% { transform: rotate(10deg) translate(-552.076px,-335.835px); animation-timing-function: cubic-bezier(0.42,0,0.58,1); } 70% { transform: rotate(0deg) translate(-552.076px,-335.835px); } 100% { transform: rotate(0deg) translate(-552.076px,-335.835px); } }
@keyframes a1_t { 0% { transform: translate(472.74px,143.53px); animation-timing-function: cubic-bezier(0.42,0,0.58,1); } 10% { transform: translate(489.714px,143.53px); animation-timing-function: cubic-bezier(0.42,0,0.58,1); } 20% { transform: translate(472.74px,143.53px); animation-timing-function: cubic-bezier(0.42,0,0.58,1); } 30% { transform: translate(489.714px,143.53px); animation-timing-function: cubic-bezier(0.42,0,0.58,1); } 40% { transform: translate(472.74px,143.53px); animation-timing-function: cubic-bezier(0.42,0,0.58,1); } 50% { transform: translate(489.714px,143.53px); animation-timing-function: cubic-bezier(0.42,0,0.58,1); } 60% { transform: translate(472.74px,143.53px); animation-timing-function: cubic-bezier(0.42,0,0.58,1); } 70% { transform: translate(489.714px,143.53px); animation-timing-function: cubic-bezier(0.42,0,0.58,1); } 80% { transform: translate(472.74px,143.53px); animation-timing-function: cubic-bezier(0.42,0,0.58,1); } 90% { transform: translate(489.714px,143.53px); animation-timing-function: cubic-bezier(0.42,0,0.58,1); } 100% { transform: translate(472.74px,143.53px); } }
@keyframes a2_t { 0% { transform: translate(495.8px,191.84px); animation-timing-function: cubic-bezier(0.42,0,0.58,1); } 10% { transform: translate(515.386px,191.84px); animation-timing-function: cubic-bezier(0.42,0,0.58,1); } 20% { transform: translate(495.8px,191.84px); animation-timing-function: cubic-bezier(0.42,0,0.58,1); } 30% { transform: translate(515.386px,191.84px); animation-timing-function: cubic-bezier(0.42,0,0.58,1); } 40% { transform: translate(495.8px,191.84px); animation-timing-function: cubic-bezier(0.42,0,0.58,1); } 50% { transform: translate(515.386px,191.84px); animation-timing-function: cubic-bezier(0.42,0,0.58,1); } 60% { transform: translate(495.8px,191.84px); animation-timing-function: cubic-bezier(0.42,0,0.58,1); } 70% { transform: translate(515.386px,191.84px); animation-timing-function: cubic-bezier(0.42,0,0.58,1); } 80% { transform: translate(495.8px,191.84px); animation-timing-function: cubic-bezier(0.42,0,0.58,1); } 90% { transform: translate(515.386px,191.84px); animation-timing-function: cubic-bezier(0.42,0,0.58,1); } 100% { transform: translate(495.8px,191.84px); } }
@keyframes a3_t { 0% { transform: translate(494.32px,229.4px); animation-timing-function: cubic-bezier(0.42,0,0.58,1); } 10% { transform: translate(511.294px,229.4px); animation-timing-function: cubic-bezier(0.42,0,0.58,1); } 20% { transform: translate(494.32px,229.4px); animation-timing-function: cubic-bezier(0.42,0,0.58,1); } 30% { transform: translate(511.294px,229.4px); animation-timing-function: cubic-bezier(0.42,0,0.58,1); } 40% { transform: translate(494.32px,229.4px); animation-timing-function: cubic-bezier(0.42,0,0.58,1); } 50% { transform: translate(511.294px,229.4px); animation-timing-function: cubic-bezier(0.42,0,0.58,1); } 60% { transform: translate(494.32px,229.4px); animation-timing-function: cubic-bezier(0.42,0,0.58,1); } 70% { transform: translate(511.294px,229.4px); animation-timing-function: cubic-bezier(0.42,0,0.58,1); } 80% { transform: translate(494.32px,229.4px); animation-timing-function: cubic-bezier(0.42,0,0.58,1); } 90% { transform: translate(511.294px,229.4px); animation-timing-function: cubic-bezier(0.42,0,0.58,1); } 100% { transform: translate(494.32px,229.4px); } }
@keyframes a4_t { 0% { transform: translate(513.55px,267.07px); animation-timing-function: cubic-bezier(0.42,0,0.58,1); } 10% { transform: translate(522.69px,267.07px); animation-timing-function: cubic-bezier(0.42,0,0.58,1); } 20% { transform: translate(513.55px,267.07px); animation-timing-function: cubic-bezier(0.42,0,0.58,1); } 30% { transform: translate(522.69px,267.07px); animation-timing-function: cubic-bezier(0.42,0,0.58,1); } 40% { transform: translate(513.55px,267.07px); animation-timing-function: cubic-bezier(0.42,0,0.58,1); } 50% { transform: translate(522.69px,267.07px); animation-timing-function: cubic-bezier(0.42,0,0.58,1); } 60% { transform: translate(513.55px,267.07px); animation-timing-function: cubic-bezier(0.42,0,0.58,1); } 70% { transform: translate(522.69px,267.07px); animation-timing-function: cubic-bezier(0.42,0,0.58,1); } 80% { transform: translate(513.55px,267.07px); animation-timing-function: cubic-bezier(0.42,0,0.58,1); } 90% { transform: translate(522.69px,267.07px); animation-timing-function: cubic-bezier(0.42,0,0.58,1); } 100% { transform: translate(513.55px,267.07px); } }
@keyframes a5_do { 0% { stroke-dashoffset: 100px; } 70% { stroke-dashoffset: 0px; } 100% { stroke-dashoffset: 0px; } }
@keyframes a6_do { 0% { stroke-dashoffset: 100px; } 70% { stroke-dashoffset: 0px; } 100% { stroke-dashoffset: 0px; } }
@keyframes fence_t { 0% { transform: translate(443.325px,292.365px) rotate(0deg) translate(-5.45472px,-12.655px); } 35% { transform: translate(443.325px,292.365px) rotate(0deg) translate(-5.45472px,-12.655px); animation-timing-function: cubic-bezier(0.42,0,0.58,1); } 45% { transform: translate(443.325px,292.365px) rotate(-20deg) translate(-5.45472px,-12.655px); } 100% { transform: translate(443.325px,292.365px) rotate(-20deg) translate(-5.45472px,-12.655px); } }
@keyframes fence-2_t { 0% { transform: translate(481.725px,330.583px) rotate(0deg) translate(-4.465px,-50.8727px); } 30% { transform: translate(481.725px,330.583px) rotate(0deg) translate(-4.465px,-50.8727px); animation-timing-function: cubic-bezier(0.42,0,0.58,1); } 40% { transform: translate(481.725px,330.583px) rotate(10deg) translate(-4.465px,-50.8727px); } 100% { transform: translate(481.725px,330.583px) rotate(10deg) translate(-4.465px,-50.8727px); } }
@keyframes a7_t { 0% { transform: translate(406.62px,289.803px) rotate(0deg) translate(1.1999px,-1.13331px); } 40% { transform: translate(406.62px,289.803px) rotate(0deg) translate(1.1999px,-1.13331px); animation-timing-function: cubic-bezier(0.42,0,0.58,1); } 50% { transform: translate(406.62px,289.803px) rotate(20deg) translate(1.1999px,-1.13331px); } 100% { transform: translate(406.62px,289.803px) rotate(20deg) translate(1.1999px,-1.13331px); } }
@keyframes a8_t { 0% { transform: translate(255.685px,166.687px) rotate(0deg) translate(-255.685px,-166.687px); } 50% { transform: translate(255.685px,166.687px) rotate(0deg) translate(-255.685px,-166.687px); animation-timing-function: cubic-bezier(0.42,0,0.58,1); } 60% { transform: translate(255.685px,166.687px) rotate(-30deg) translate(-255.685px,-166.687px); } 100% { transform: translate(255.685px,166.687px) rotate(-30deg) translate(-255.685px,-166.687px); } }
@keyframes roof-2_o { 0% { opacity: 1; } 50% { opacity: 1; animation-timing-function: cubic-bezier(0.42,0,0.58,1); } 52% { opacity: 0; } 100% { opacity: 0; } }
@keyframes a9_t { 0% { transform: translate(203.185px,316.299px) rotate(0deg) translate(-203.185px,-316.299px); } 50% { transform: translate(203.185px,316.299px) rotate(0deg) translate(-203.185px,-316.299px); animation-timing-function: cubic-bezier(0.42,0,0.58,1); } 60% { transform: translate(203.185px,316.299px) rotate(30deg) translate(-203.185px,-316.299px); } 100% { transform: translate(203.185px,316.299px) rotate(30deg) translate(-203.185px,-316.299px); } }
@keyframes a10_t { 0% { transform: translate(43.160929px,-298.366963px); } 50% { transform: translate(43.160929px,-298.366963px); animation-timing-function: cubic-bezier(0.42,0,0.58,1); } 60% { transform: translate(43.160929px,3.499174px); } 100% { transform: translate(43.160929px,3.499174px); } }
@keyframes tag-2_t { 0% { transform: rotate(0deg) translate(-380.276334px,-118.371442px); } 50% { transform: rotate(0deg) translate(-380.276334px,-118.371442px); animation-timing-function: cubic-bezier(0.42,0,0.58,1); } 60% { transform: rotate(15deg) translate(-380.276334px,-118.371442px); animation-timing-function: cubic-bezier(0.42,0,0.58,1); } 70% { transform: rotate(-10deg) translate(-380.276334px,-118.371442px); animation-timing-function: cubic-bezier(0.42,0,0.58,1); } 80% { transform: rotate(0deg) translate(-380.276334px,-118.371442px); } 100% { transform: rotate(0deg) translate(-380.276334px,-118.371442px); } }
@keyframes a11_t { 0% { transform: translate(88.82px,68.07px); animation-timing-function: cubic-bezier(0.42,0,0.58,1); } 50% { transform: translate(53.896px,68.07px); animation-timing-function: cubic-bezier(0.42,0,0.58,1); } 100% { transform: translate(88.82px,68.07px); } }
@keyframes a12_t { 0% { transform: translate(-117.64px,-162.2212px); } 65% { transform: translate(-117.64px,-162.2212px); animation-timing-function: cubic-bezier(0,0,0.58,1); } 70% { transform: translate(-117.64px,-107.57px); } 100% { transform: translate(-117.64px,-107.57px); } }
@keyframes a13_t { 0% { transform: translate(-117.64px,-148.4629px); } 70% { transform: translate(-117.64px,-148.4629px); animation-timing-function: cubic-bezier(0,0,0.58,1); } 75% { transform: translate(-117.64px,-107.57px); } 100% { transform: translate(-117.64px,-107.57px); } }
@keyframes a14_t { 0% { transform: translate(0px,0px); animation-timing-function: cubic-bezier(0.42,0,0.58,1); } 50% { transform: translate(22.01px,0px); animation-timing-function: cubic-bezier(0.42,0,0.58,1); } 100% { transform: translate(0px,0px); } }
@keyframes a15_t { 0% { transform: translate(0px,0px); animation-timing-function: cubic-bezier(0.42,0,0.58,1); } 50% { transform: translate(-28.141px,0px); animation-timing-function: cubic-bezier(0.42,0,0.58,1); } 100% { transform: translate(0px,0px); } }
@keyframes a16_o { 0% { opacity: 0; } 59% { opacity: 0; } 60% { opacity: 1; } 100% { opacity: 1; } }
    </style>
    <title>tiberiusf3</title>
    <g id="wind" style="animation: 10s linear infinite both a0_t;">
        <g transform="translate(552.076,335.835) translate(-552.076,-335.835)" style="animation: 10s linear infinite both wind_t;">
            <rect class="cls-1" width="143.34" height="29.64" rx="10.93" fill="url(#Gradient-0)" transform="translate(544.41,158.35) translate(-71.67,-14.82)" style="animation: 10s linear infinite both a1_t;"/>
            <rect class="cls-2" width="115.34" height="18.98" rx="7" fill="#e5e5e5" transform="translate(0,0) translate(485.51,173.03)"/>
            <rect class="cls-2" width="98.85" height="18.98" rx="7" fill="#e5e5e5" transform="translate(0,0) translate(500.26,210.6)"/>
            <rect class="cls-3" width="94.66" height="18.98" rx="7" fill="url(#Gradient-1)" transform="translate(543.13,201.33) translate(-47.33,-9.49)" style="animation: 10s linear infinite both a2_t;"/>
            <rect class="cls-4" width="79.58" height="18.98" rx="7" fill="url(#Gradient-2)" transform="translate(534.11,238.89) translate(-39.79,-9.49)" style="animation: 10s linear infinite both a3_t;"/>
            <rect class="cls-2" width="67.37" height="18.98" rx="7" fill="#e5e5e5" transform="translate(0,0) translate(499.14,248.2)"/>
            <rect class="cls-5" width="44.98" height="13.99" rx="7" fill="url(#Gradient-3)" transform="translate(536.04,274.065) translate(-22.49,-6.995)" style="animation: 10s linear infinite both a4_t;"/>
            <rect class="cls-2" width="31.66" height="13.99" rx="7" fill="#e5e5e5" transform="translate(0,0) translate(520.04,281.06)"/>
            <rect class="cls-6" width="24.49" height="13.99" rx="7" fill="url(#Gradient-4)" transform="translate(0,0) translate(527.21,295.04)"/>
            <rect class="cls-2" width="17.49" height="13.99" rx="7" fill="#e5e5e5" transform="translate(0,0) translate(536.04,309.12)"/>
            <rect class="cls-7" width="13.99" height="13.99" rx="7" fill="url(#Gradient-5)" transform="translate(0,0) translate(543.18,322.53)"/>
            <g>
                <path class="cls-8" d="M581.92,260.23L616.26,260.23C616.26,260.23,627.74,260.23,627.74,252.16" stroke-width="2px" stroke-linecap="round" stroke="#b3b3b3" stroke-miterlimit="10" fill="none" stroke-dasharray="10 5" stroke-dashoffset="100" style="animation: 10s linear infinite both a5_do;"/>
                <path class="cls-8" d="M582.37,265.46L603.55,265.46C606.74,265.46,616.33,264.66,616.33,272.2" stroke-width="2px" stroke-linecap="round" stroke="#b3b3b3" stroke-miterlimit="10" fill="none" stroke-dasharray="10 5" stroke-dashoffset="100" style="animation: 10s linear infinite both a6_do;"/>
                <path class="cls-8" d="M582.37,254.93L600.68,254.93" stroke-width="2px" stroke-linecap="round" stroke="#b3b3b3" stroke-miterlimit="10" fill="none"/>
                <path class="cls-8" d="M606.42,254.93L611.78,254.93" stroke-width="2px" stroke-linecap="round" stroke="#b3b3b3" stroke-miterlimit="10" fill="none"/>
            </g>
        </g>
    </g>
    <g>
        <rect class="cls-9" width="8.93" height="62.76" rx="3.89" fill="#99d7ad" transform="translate(0,0) translate(411.43,279.71)"/>
        <rect class="cls-9" width="8.93" height="62.76" rx="3.89" fill="#99d7ad" transform="translate(0,0) translate(424.74,279.71)"/>
        <rect id="fence" class="cls-9" width="8.93" height="62.76" rx="3.89" fill="#99d7ad" transform="translate(443.325,292.365) translate(-5.45472,-12.655)" style="animation: 10s linear infinite both fence_t;"/>
        <rect class="cls-9" width="8.93" height="62.76" rx="3.89" fill="#99d7ad" transform="translate(0,0) translate(451.18,279.71)"/>
        <rect class="cls-9" width="8.93" height="62.76" rx="3.89" fill="#99d7ad" transform="translate(0,0) translate(463.94,279.71)"/>
        <rect id="fence-2" class="cls-9" width="8.93" height="62.76" rx="3.89" fill="#99d7ad" transform="translate(481.725,330.583) translate(-4.465,-50.8727)" style="animation: 10s linear infinite both fence-2_t;"/>
        <rect class="cls-9" width="8.93" height="62.76" rx="3.89" fill="#99d7ad" transform="translate(0,0) translate(490.38,279.71)"/>
        <rect class="cls-9" width="8.93" height="62.76" rx="3.89" fill="#99d7ad" transform="translate(0,0) translate(503.7,279.71)"/>
        <rect class="cls-9" width="8.93" height="62.76" rx="3.89" fill="#99d7ad" transform="translate(0,0) translate(517.02,279.71)"/>
        <rect class="cls-9" width="147.82" height="3.65" rx="1.59" fill="#99d7ad" transform="translate(406.62,289.803) translate(1.1999,-1.13331)" style="animation: 10s linear infinite both a7_t;"/>
        <rect class="cls-9" width="147.82" height="3.65" rx="1.59" fill="#99d7ad" transform="translate(0,0) translate(407.82,327.81)"/>
    </g>
    <rect class="cls-10" width="63.98" height="117.15" fill="#b3e1c2" transform="translate(0,0) translate(116.13,221.47)"/>
    <rect class="cls-11" width="73.46" height="9.55" fill="#66c485" transform="translate(0,0) translate(106.61,222.18)"/>
    <path class="cls-12" d="M110.24,222.18L123.74,178.98L179.78,178.98L180.1,222.18L110.24,222.18" fill="url(#Gradient-6)"/>
    <rect class="cls-13" width="224.02" height="82.27" fill="#4dba71" transform="translate(0,0) translate(179.79,256.34)"/>
    <rect class="cls-9" width="224.02" height="67.52" fill="#99d7ad" transform="translate(0,0) translate(179.79,178.98)"/>
    <rect class="cls-17" width="236.99" height="9.84" fill="#009c33" transform="translate(0,0) translate(173.97,169.15)"/>
    <g id="roof">
        <path class="cls-15" d="M405.59,169.15L393.74,118.76L266.09,118.76L246.41,134.18L262.04,135.59L247.66,147.41L264.15,149.67L257.34,169.15L405.59,169.15Z" fill="url(#Gradient-7)"/>
        <path class="cls-49" d="M192.84,118.76L179.34,169.15L257.34,169.15L264.15,149.67L247.66,147.41L262.04,135.59L246.41,134.18L266.09,118.76L192.84,118.76Z" fill="url(#Gradient-8)" transform="translate(255.685,166.687) translate(-255.685,-166.687)" style="animation: 10s linear infinite both a8_t;"/>
        <path id="roof-2" class="cls-15" d="M405.59,169.15L393.74,118.76L192.852,118.76L179.39,169.15L405.59,169.15Z" fill="url(#Gradient-9)" opacity="1" style="animation: 10s linear infinite both roof-2_o;"/>
    </g>
    <g>
        <rect class="cls-9" width="33.54" height="62.15" fill="#99d7ad" transform="translate(0,0) translate(275.03,276.46)"/>
        <rect class="cls-13" width="2.12" height="8.8" fill="#4dba71" transform="translate(0,0) translate(302.61,305.73)"/>
    </g>
    <rect class="cls-16" width="455.59" height="11.67" fill="#80ce99" transform="translate(0,0) translate(100.06,338.47)"/>
    <rect class="cls-17" width="236.99" height="9.84" fill="#009c33" transform="translate(0,0) translate(173.97,246.5)"/>
    <g transform="translate(203.185,316.299) translate(-203.185,-316.299)" style="animation: 10s linear infinite both a9_t;">
        <path class="cls-9" d="M247.63,323.55L196.36,323.55L196.36,299C196.36,299,194.76,265.86,221.99,265.86C249.65,265.86,247.63,298.42,247.63,298.42Z" fill="#99d7ad"/>
        <path class="cls-11" d="M244.34,319.78L199.67,319.78L199.67,297.48C199.67,297.48,198.33,268.85,222.01,268.85C246.34,268.85,244.34,297.85,244.34,297.85Z" fill="#66c485"/>
        <path class="cls-18" d="M241.38,316.41L202.63,316.41L202.63,297.85C202.63,297.85,200.47,272.23,222.01,272.23C243.55,272.23,241.38,298.39,241.38,298.39Z" fill="#fff"/>
        <rect class="cls-11" width="2.43" height="49.47" fill="#66c485" transform="translate(0,0) translate(220.62,269.58)"/>
        <rect class="cls-11" width="2.43" height="41.6" fill="#66c485" transform="translate(516.32,72.32) rotate(90) translate(220.79,273.52)"/>
    </g>
    <path class="cls-9" d="M387.6,323.55L336.33,323.55L336.33,299C336.33,299,334.73,265.86,361.96,265.86C389.62,265.86,387.6,298.42,387.6,298.42Z" fill="#99d7ad"/>
    <path class="cls-11" d="M384.31,319.78L339.64,319.78L339.64,297.48C339.64,297.48,338.3,268.85,362,268.85C386.33,268.85,384.34,297.85,384.34,297.85Z" fill="#66c485"/>
    <path class="cls-18" d="M381.35,316.41L342.6,316.41L342.6,297.85C342.6,297.85,340.43,272.23,361.97,272.23C383.51,272.23,381.35,298.39,381.35,298.39Z" fill="#fff"/>
    <rect class="cls-11" width="2.43" height="49.47" fill="#66c485" transform="translate(0,0) translate(360.59,269.58)"/>
    <rect class="cls-11" width="2.43" height="41.6" fill="#66c485" transform="translate(656.29,-67.65) rotate(90) translate(360.75,273.52)"/>
    <path class="cls-11" d="M385.37,235.11L346.42,235.11L346.42,215.66C346.42,215.66,345.25,190.66,365.89,190.66C387.11,190.66,385.37,215.97,385.37,215.97Z" fill="#66c485"/>
    <path class="cls-18" d="M382.79,232.17L349,232.17L349,216C349,216,347.11,193.65,365.89,193.65C384.67,193.65,382.79,216.46,382.79,216.46Z" fill="#fff"/>
    <rect class="cls-11" width="2.12" height="43.14" fill="#66c485" transform="translate(0,0) translate(364.68,191.33)"/>
    <rect class="cls-11" width="2.12" height="36.28" fill="#66c485" transform="translate(580.06,-151.71) rotate(90) translate(364.83,196.04)"/>
    <path class="cls-11" d="M311.26,235.11L272.31,235.11L272.31,215.66C272.31,215.66,271.14,190.66,291.78,190.66C313,190.7,311.26,216,311.26,216Z" fill="#66c485"/>
    <path class="cls-18" d="M308.68,232.17L274.89,232.17L274.89,216C274.89,216,273,193.65,291.78,193.65C310.56,193.65,308.68,216.46,308.68,216.46Z" fill="#fff"/>
    <rect class="cls-11" width="2.12" height="43.14" fill="#66c485" transform="translate(0,0) translate(290.57,191.33)"/>
    <rect class="cls-11" width="2.12" height="36.28" fill="#66c485" transform="translate(505.95,-77.6) rotate(90) translate(290.72,196.04)"/>
    <path class="cls-11" d="M235.3,235.11L196.3,235.11L196.3,215.66C196.3,215.66,195.13,190.66,215.78,190.66C237,190.66,235.25,215.97,235.25,215.97Z" fill="#66c485"/>
    <path class="cls-18" d="M232.73,232.17L198.93,232.17L198.93,216C198.93,216,197.04,193.65,215.83,193.65C234.62,193.65,232.73,216.46,232.73,216.46Z" fill="#fff"/>
    <rect class="cls-11" width="2.12" height="43.14" fill="#66c485" transform="translate(0,0) translate(214.62,191.33)"/>
    <rect class="cls-11" width="2.12" height="36.28" fill="#66c485" transform="translate(430,-1.65) rotate(90) translate(214.76,196.04)"/>
    <g mask="url(#Mask-3)" transform="translate(389.791,-97.2638) translate(-46.775,-93.4135)">
        <g id="tag" mask="url(#Mask-1)" transform="translate(56.2448,399.363) translate(-57.0811,-93.8629)">
            <g id="tag-2" style="animation: 10s linear infinite both a10_t;">
                <g transform="translate(43.1609,-298.367) translate(-380.276,-118.371)" style="animation: 10s linear infinite both tag-2_t;">
                    <g>
                        <path class="cls-19" d="M404.7,172.53L351.46,182.23L342.18,198.88L360.91,301.65L435.73,288L417.1,185.82ZM381.7,200.17C379.373,200.849,376.866,200.061,375.346,198.173C373.825,196.286,373.59,193.668,374.75,191.54C375.91,189.411,378.237,188.189,380.647,188.443C383.058,188.697,385.079,190.377,385.77,192.7C385.996,193.457,386.069,194.251,385.987,195.037C385.905,195.822,385.669,196.584,385.291,197.278C384.914,197.972,384.404,198.585,383.789,199.081C383.174,199.577,382.468,199.947,381.71,200.17Z" fill="url(#Gradient-10)"/>
                        <path fill="#fff" d="M0.752,0L7.568,0L7.568,-1.952L3.568,-1.952L3.968,-2.336C6.208,-4.48,7.456,-6.576,7.456,-8.224C7.456,-10.048,6.08,-11.36,4.16,-11.36C3.312,-11.36,2.672,-11.232,0.944,-10.72L1.12,-8.4C1.888,-8.944,2.72,-9.28,3.344,-9.28C4.224,-9.28,4.832,-8.672,4.832,-7.808C4.832,-6.752,4.144,-5.632,2.144,-3.488C1.808,-3.12,1.776,-3.104,1.568,-2.864L0.752,-1.952ZM9.566,-5.232C10.542,-5.472,10.894,-5.536,11.326,-5.536C12.638,-5.536,13.55,-4.768,13.55,-3.648C13.55,-2.544,12.718,-1.76,11.518,-1.76C10.958,-1.76,10.542,-1.872,9.454,-2.304L9.326,-0.32C10.366,0.08,10.894,0.192,11.918,0.192C14.51,0.192,16.174,-1.312,16.174,-3.648C16.174,-5.92,14.894,-7.264,12.734,-7.264C12.558,-7.264,12.27,-7.248,12.078,-7.232L11.886,-7.216L11.774,-7.2L11.774,-9.28L15.678,-9.28L15.678,-11.168L9.566,-11.168ZM18.038,0L20.342,0L20.342,-2.4L18.038,-2.4ZM25.69,-11.36C23.178,-11.36,22.01,-9.52,22.01,-5.568C22.01,-1.648,23.194,0.192,25.69,0.192C28.202,0.192,29.37,-1.648,29.37,-5.6C29.37,-9.52,28.186,-11.36,25.69,-11.36ZM25.69,-9.536C26.538,-9.536,26.906,-8.32,26.906,-5.552C26.906,-2.864,26.522,-1.632,25.69,-1.632C24.842,-1.632,24.474,-2.848,24.474,-5.568C24.474,-8.32,24.842,-9.536,25.69,-9.536ZM34.6425,-11.36C32.1305,-11.36,30.9625,-9.52,30.9625,-5.568C30.9625,-1.648,32.1465,0.192,34.6425,0.192C37.1545,0.192,38.3225,-1.648,38.3225,-5.6C38.3225,-9.52,37.1385,-11.36,34.6425,-11.36ZM34.6425,-9.536C35.4905,-9.536,35.8585,-8.32,35.8585,-5.552C35.8585,-2.864,35.4745,-1.632,34.6425,-1.632C33.7945,-1.632,33.4265,-2.848,33.4265,-5.568C33.4265,-8.32,33.7945,-9.536,34.6425,-9.536ZM43.46,-11.36C40.948,-11.36,39.78,-9.52,39.78,-5.568C39.78,-1.648,40.964,0.192,43.46,0.192C45.972,0.192,47.14,-1.648,47.14,-5.6C47.14,-9.52,45.956,-11.36,43.46,-11.36ZM43.46,-9.536C44.308,-9.536,44.676,-8.32,44.676,-5.552C44.676,-2.864,44.292,-1.632,43.46,-1.632C42.612,-1.632,42.244,-2.848,42.244,-5.568C42.244,-8.32,42.612,-9.536,43.46,-9.536ZM58.1687,-3.616L58.7448,-5.136L56.0247,-5.136C56.0088,-5.328,56.0088,-5.472,56.0088,-5.648C56.0088,-5.856,56.0088,-6.016,56.0407,-6.208L59.1447,-6.208L59.7207,-7.728L56.4408,-7.728C56.9367,-8.752,57.8008,-9.28,58.9527,-9.28C59.4007,-9.28,59.6567,-9.232,60.2327,-9.072L60.9367,-10.944C60.1527,-11.232,59.3687,-11.36,58.4727,-11.36C56.1208,-11.36,54.2167,-9.952,53.6087,-7.728L53.0168,-7.728L52.4408,-6.208L53.3368,-6.208C53.3207,-5.984,53.3207,-5.808,53.3207,-5.584C53.3207,-5.392,53.3207,-5.28,53.3368,-5.136L53.0168,-5.136L52.4408,-3.616L53.5767,-3.616C54.3288,-1.136,56.0887,0.192,58.6488,0.192C59.1287,0.192,59.4808,0.16,60.2327,0.048L60.2327,-2.128C59.7847,-2,59.4167,-1.952,58.9847,-1.952C57.8647,-1.952,56.9527,-2.544,56.4247,-3.616ZM14.1,11.48C13.74,11.33,13.33,11.26,12.9,11.26C11.75,11.26,11.04,11.92,11.04,12.97C11.04,13.82,11.31,14.18,12.51,14.93C13.34,15.45,13.54,15.7,13.54,16.25C13.54,16.9,13.07,17.34,12.38,17.34C12.01,17.34,11.56,17.19,11.09,16.91L11.09,17.78C11.48,17.96,11.98,18.07,12.47,18.07C13.67,18.07,14.42,17.34,14.42,16.18C14.42,15.34,14.06,14.83,13.05,14.23C12.13,13.68,11.92,13.45,11.92,12.99C11.92,12.39,12.34,11.99,12.97,11.99C13.4,11.99,13.73,12.08,14.1,12.29ZM19.6,11.53C19.09,11.31,18.76,11.23,18.28,11.23C16.53,11.23,15.42,12.55,15.42,14.63C15.42,16.77,16.54,18.1,18.36,18.1C18.83,18.1,19.13,18.04,19.6,17.84L19.6,17.01C19.12,17.26,18.81,17.35,18.37,17.35C17.1,17.35,16.31,16.32,16.31,14.66C16.31,13.03,17.1,11.96,18.32,11.96C18.76,11.96,19.08,12.05,19.6,12.34ZM24.88,11.33L24.03,11.33L24.03,14.18L21.68,14.18L21.68,11.33L20.83,11.33L20.83,18L21.68,18L21.68,14.89L24.03,14.89L24.03,18L24.88,18ZM31.19,18L29.02,11.33L28.06,11.33L25.89,18L26.78,18L27.3,16.29L29.76,16.29L30.3,18ZM29.53,15.58L27.51,15.58L28.51,12.2ZM32.2,11.33L32.2,18L33.39,18C34.39,18,35.07,17.8,35.58,17.36C36.24,16.8,36.6,15.84,36.6,14.66C36.6,13.68,36.34,12.82,35.87,12.24C35.33,11.57,34.65,11.33,33.29,11.33ZM33.05,12.01L33.42,12.01C34.12,12.01,34.57,12.14,34.89,12.43C35.37,12.87,35.71,13.82,35.71,14.73C35.71,15.5,35.47,16.21,35.04,16.7C34.65,17.13,34.16,17.32,33.42,17.32L33.05,17.32ZM37.9,11.33L37.9,18L41.08,18L41.08,17.29L38.75,17.29L38.75,14.92L40.88,14.92L40.88,14.21L38.75,14.21L38.75,12.04L41.02,12.04L41.02,11.33ZM42.32,18L43.12,18L43.12,12.53L43.14,12.53L45.66,18L46.7,18L46.7,11.33L45.9,11.33L45.9,16.83L45.88,16.83L43.36,11.33L42.32,11.33ZM0.0500001,22.09L-0.77,22.09L-0.77,23.01L0.0500001,23.01ZM0.0500001,24.13L-0.77,24.13L-0.77,29L0.0500001,29ZM2.14,24.13L1.35,24.13C1.39,24.9,1.4,25.38,1.4,26.17L1.4,29L2.22,29L2.22,26.6C2.22,25.87,2.28,25.5,2.44,25.18C2.59,24.91,2.85,24.74,3.13,24.74C3.35,24.74,3.53,24.84,3.63,25.02C3.8,25.33,3.83,25.6,3.83,26.62L3.83,29L4.64,29L4.64,26.71C4.64,25.85,4.69,25.51,4.87,25.17C5.02,24.9,5.28,24.74,5.57,24.74C5.81,24.74,5.99,24.84,6.09,25.02C6.23,25.28,6.26,25.56,6.26,26.51L6.26,29L7.07,29L7.07,26.35C7.07,25.31,7.02,24.98,6.8,24.59C6.59,24.23,6.22,24.03,5.77,24.03C5.19,24.03,4.82,24.28,4.49,24.91C4.25,24.29,3.91,24.03,3.36,24.03C2.87,24.03,2.52,24.26,2.14,24.82ZM10.85,22.33L10.85,29L12.04,29C13.04,29,13.72,28.8,14.23,28.36C14.89,27.8,15.25,26.84,15.25,25.66C15.25,24.68,14.99,23.82,14.52,23.24C13.98,22.57,13.3,22.33,11.94,22.33ZM11.7,23.01L12.07,23.01C12.77,23.01,13.22,23.14,13.54,23.43C14.02,23.87,14.36,24.82,14.36,25.73C14.36,26.5,14.12,27.21,13.69,27.7C13.3,28.13,12.81,28.32,12.07,28.32L11.7,28.32ZM19.83,24.13L19.02,24.13L19.02,26.48C19.02,27.88,18.75,28.39,18.03,28.39C17.73,28.39,17.53,28.28,17.41,28.06C17.26,27.8,17.23,27.51,17.23,26.5L17.23,24.13L16.42,24.13L16.42,26.64C16.42,27.85,16.46,28.1,16.69,28.51C16.91,28.9,17.29,29.1,17.79,29.1C18.4,29.1,18.77,28.87,19.1,28.3L19.14,29L19.89,29C19.86,28.8,19.84,28.37,19.83,27.18ZM23.3,24.08C23.22,24.07,23.16,24.07,23.09,24.07C22.48,24.07,22.21,24.28,21.88,24.99L21.88,24.13L21.11,24.13C21.15,24.82,21.16,25.37,21.16,25.91L21.16,29L21.98,29L21.98,26.87C21.98,26.02,22.04,25.68,22.24,25.34C22.42,25.02,22.67,24.86,22.96,24.86C23.06,24.86,23.23,24.88,23.27,24.9L23.3,24.91ZM26.94,24.24C26.53,24.08,26.27,24.03,25.93,24.03C24.68,24.03,23.87,25.02,23.87,26.56C23.87,28.07,24.67,29.1,25.86,29.1C26.23,29.1,26.57,29.03,26.94,28.87L26.91,28.14C26.53,28.35,26.3,28.42,25.98,28.42C25.21,28.42,24.71,27.68,24.71,26.54C24.71,26,24.87,25.43,25.1,25.13C25.32,24.86,25.64,24.71,26.02,24.71C26.24,24.71,26.46,24.76,26.66,24.86C26.72,24.88,26.79,24.91,26.85,24.94L26.91,24.96ZM31.34,29L31.34,26.55C31.34,25.29,31.31,25.04,31.07,24.63C30.85,24.23,30.47,24.03,29.94,24.03C29.38,24.03,29.05,24.22,28.69,24.77L28.69,21.79L27.88,21.79L27.88,29L28.69,29L28.69,26.82C28.69,25.98,28.76,25.54,28.94,25.23C29.13,24.91,29.41,24.74,29.74,24.74C30.01,24.74,30.22,24.86,30.34,25.09C30.5,25.37,30.53,25.65,30.53,26.7L30.53,29ZM34.95,24.24C34.47,24.08,34.2,24.03,33.85,24.03C32.98,24.03,32.41,24.56,32.41,25.37C32.41,25.97,32.67,26.31,33.46,26.73C34.16,27.1,34.35,27.31,34.35,27.7C34.35,28.16,34.02,28.44,33.49,28.44C33.13,28.44,32.92,28.37,32.43,28.07L32.36,28.79C32.79,29.01,33.16,29.1,33.57,29.1C34.56,29.1,35.18,28.55,35.18,27.68C35.18,27.03,34.86,26.61,34.06,26.21C33.41,25.89,33.21,25.69,33.21,25.33C33.21,24.92,33.47,24.69,33.95,24.69C34.27,24.69,34.5,24.74,34.89,24.91ZM39.08,24.24C38.67,24.08,38.41,24.03,38.07,24.03C36.82,24.03,36.01,25.02,36.01,26.56C36.01,28.07,36.81,29.1,38,29.1C38.37,29.1,38.71,29.03,39.08,28.87L39.05,28.14C38.67,28.35,38.44,28.42,38.12,28.42C37.35,28.42,36.85,27.68,36.85,26.54C36.85,26,37.01,25.43,37.24,25.13C37.46,24.86,37.78,24.71,38.16,24.71C38.38,24.71,38.6,24.76,38.8,24.86C38.86,24.88,38.93,24.91,38.99,24.94L39.05,24.96ZM43.49,29L43.49,26.55C43.49,25.29,43.46,25.04,43.22,24.63C43,24.23,42.62,24.03,42.09,24.03C41.53,24.03,41.2,24.22,40.84,24.77L40.84,21.79L40.03,21.79L40.03,29L40.84,29L40.84,26.82C40.84,25.98,40.91,25.54,41.09,25.23C41.28,24.91,41.56,24.74,41.89,24.74C42.16,24.74,42.37,24.86,42.49,25.09C42.65,25.37,42.68,25.65,42.68,26.7L42.68,29ZM48.19,29L48.19,26.46C48.19,25.5,48.15,25.18,48,24.83C47.76,24.29,47.36,24.03,46.79,24.03C46.2,24.03,45.84,24.26,45.49,24.84L45.49,24.13L44.69,24.13C44.73,24.59,44.74,25.07,44.74,25.94L44.74,29L45.56,29L45.56,26.61C45.56,25.92,45.62,25.56,45.81,25.23C45.98,24.92,46.26,24.74,46.59,24.74C46.87,24.74,47.07,24.85,47.19,25.07C47.34,25.34,47.38,25.69,47.38,26.56L47.38,29ZM50.34,22.09L49.52,22.09L49.52,23.01L50.34,23.01ZM50.34,24.13L49.52,24.13L49.52,29L50.34,29ZM52.04,24.77L52.04,27.44C52.04,28.35,52.08,28.56,52.33,28.79C52.52,28.97,52.77,29.05,53.14,29.05C53.41,29.05,53.58,29.03,53.83,28.95L53.83,28.27C53.66,28.36,53.51,28.4,53.35,28.4C53.18,28.4,53.02,28.33,52.95,28.22C52.85,28.06,52.85,28.06,52.85,27.01L52.85,24.77L53.79,24.77L53.79,24.13L52.85,24.13L52.85,22.84L52.04,23.1L52.04,24.13L51.24,24.13L51.24,24.77ZM55.23,24.77L55.23,27.44C55.23,28.35,55.27,28.56,55.52,28.79C55.71,28.97,55.96,29.05,56.33,29.05C56.6,29.05,56.77,29.03,57.02,28.95L57.02,28.27C56.85,28.36,56.7,28.4,56.54,28.4C56.37,28.4,56.21,28.33,56.14,28.22C56.04,28.06,56.04,28.06,56.04,27.01L56.04,24.77L56.98,24.77L56.98,24.13L56.04,24.13L56.04,22.84L55.23,23.1L55.23,24.13L54.43,24.13L54.43,24.77ZM60.79,23.06L59.74,23.55L59.8,22.23L59.1,22.23L59.17,23.55L58.11,23.06L57.91,23.67L59.06,24.05L58.3,25.1L58.84,25.5L59.45,24.42L60.04,25.5L60.6,25.1L59.84,24.05L60.99,23.67Z" transform="translate(357.42,240.75) rotate(-10.33)"/>
                    </g>
                    <path class="cls-45" d="M401.09,132C400.44,127.92,398.16,124.33,394.32,121.26L390.69,118.78C389.69,118.22,388.69,117.67,387.61,117.15C382.17,114.56,378.22,114.15,375.2,115.83C370.4,118.53,369.66,125.57,368.73,134.47C368.622,135.823,368.487,137.173,368.325,138.521C368.163,139.868,367.973,141.212,367.757,142.552C367.541,143.892,367.298,145.227,367.029,146.557C366.759,147.887,366.463,149.212,366.14,150.53C362.44,163.98,372.19,183.86,375.65,190.3C375.93,190.003,376.239,189.734,376.573,189.5C376.907,189.265,377.265,189.065,377.64,188.903C378.014,188.741,378.405,188.617,378.805,188.535C379.204,188.452,379.612,188.41,380.02,188.41C380.157,188.411,380.293,188.417,380.43,188.427C380.566,188.437,380.702,188.452,380.838,188.471C380.973,188.491,381.108,188.514,381.242,188.542C381.375,188.571,381.508,188.603,381.64,188.64L381.64,167.28C381.64,155.69,383.76,154.95,387.26,153.74C387.857,153.566,388.443,153.357,389.017,153.116C389.59,152.876,390.149,152.602,390.691,152.298C391.234,151.994,391.758,151.659,392.263,151.295C392.767,150.931,393.25,150.539,393.71,150.12C398,146,402.22,139.09,401.09,132ZM391,147.22C390.644,147.541,390.27,147.842,389.879,148.12C389.488,148.398,389.081,148.652,388.661,148.883C388.24,149.113,387.806,149.319,387.362,149.499C386.917,149.679,386.462,149.833,386,149.96C380.83,151.75,377.69,153.82,377.69,167.28L377.69,185.37C373.79,177.49,367.2,161.92,370.04,151.57C370.38,150.2,370.692,148.823,370.976,147.44C371.259,146.057,371.515,144.669,371.742,143.276C371.969,141.882,372.167,140.485,372.337,139.083C372.507,137.682,372.648,136.277,372.76,134.87C373.54,127.42,374.76,121.75,377.21,119.3C377.396,119.144,377.596,119.004,377.806,118.882C378.016,118.759,378.236,118.655,378.464,118.57C378.692,118.485,378.927,118.42,379.166,118.374C379.405,118.329,379.647,118.304,379.89,118.3C391.28,118.02,396.44,130,396.44,130C396.529,130.205,396.612,130.413,396.688,130.623C396.764,130.834,396.833,131.047,396.896,131.261C396.959,131.476,397.015,131.693,397.064,131.911C397.113,132.129,397.155,132.349,397.19,132.57C398,138.2,394.36,144,391,147.22Z" fill="#ff7200"/>
                </g>
            </g>
        </g>
    </g>
    <g transform="translate(140.82,79.5794) translate(-52,-11.5094)" style="animation: 10s linear infinite both a11_t;">
        <path class="cls-46" d="M88.82,100.08C88.82,100.08,90.18,92.08,104.45,92.08C104.45,92.08,103.09,78.47,123.45,78.47C123.45,78.47,125.45,68.07,138.45,68.07C149.32,68.07,151.36,76.87,151.36,76.87C151.36,76.87,161.56,72.87,169.71,76.87C177.86,80.87,177.19,89.68,177.19,89.68C177.19,89.68,192.82,88.08,192.82,100.08Z" fill="#33b05c" transform="translate(52,16.005) translate(-140.82,-84.075)"/>
        <g mask="url(#Mask-2)" transform="translate(46.59,61.61) translate(-17.77,-22.11)">
            <path class="cls-47" d="M133.5,113.73L122.72,113.73L117.64,137.84L123.99,136.25L117.96,151.79L132.24,130.54L125.26,130.54L133.5,113.73Z" fill="#ffe75a" transform="translate(7.93,-29.4612) translate(-125.57,-132.76)" style="animation: 10s linear infinite both a12_t;"/>
            <path class="cls-48" d="M153.18,107.57L144.77,107.57L140.81,126.37L145.76,125.14L141.06,137.26L152.19,120.68L146.75,120.68L153.18,107.57Z" fill="#ff9632" transform="translate(29.355,-26.0479) translate(-146.995,-122.415)" style="animation: 10s linear infinite both a13_t;"/>
        </g>
    </g>
    <path class="cls-16" d="M273.79,79.27C273.79,79.27,271.79,69.1,282.61,65.71C293.43,62.32,294.82,68.42,294.82,68.42C294.82,68.42,292.69,57.69,303.64,56.21C313.05,54.93,314.49,60.96,314.49,60.96C314.49,60.96,317.21,43.51,339.59,43.51C361.97,43.51,366.05,61,366.05,61C366.05,61,376.23,55.57,383.69,59.64C391.15,63.71,389.8,69.14,389.8,69.14C389.8,69.14,404.72,65.75,411.5,72.53C417.36,78.39,416.25,79.31,416.25,79.31Z" fill="#80ce99" transform="translate(344.989,61.41) translate(-344.989,-61.41)" style="animation: 10s linear infinite both a14_t;"/>
    <path class="cls-10" d="M422.44,117.55C422.44,117.55,423.61,111.71,435.88,111.71C435.88,111.71,434.71,101.77,452.25,101.77C452.25,101.77,454.01,94.17,465.12,94.17C474.47,94.17,476.23,100.6,476.23,100.6C476.23,100.6,485,97.67,492.01,100.6C499.02,103.53,498.44,109.95,498.44,109.95C498.44,109.95,511.89,108.78,511.89,117.55Z" fill="#b3e1c2" transform="translate(467.165,105.86) translate(-467.165,-105.86)" style="animation: 10s linear infinite both a15_t;"/>
    <path class="cls-50" d="M386.207,118.72L393.74,118.76L395.996,128.406L386.184,128.331Z" fill="url(#Gradient-14)" opacity="0" transform="translate(0,0.035)" style="animation: 10s linear infinite both a16_o;"/>
</svg>
