<?xml version="1.0" encoding="UTF-8" standalone="no"?>
<!-- Created with Keyshape -->
<svg xmlns="http://www.w3.org/2000/svg" id="Ebene_1" viewBox="0 0 1500 598" style="white-space: preserve-spaces;">
    <style>
@keyframes a0_t { 0% { transform: translate(173.319px,551.481px) rotate(0deg) translate(-96.1902px,-181.381px); animation-timing-function: cubic-bezier(0.42,0,0.58,1); } 16.6666% { transform: translate(173.319px,551.481px) rotate(-10deg) translate(-96.1902px,-181.381px); animation-timing-function: cubic-bezier(0.42,0,0.58,1); } 33.3333% { transform: translate(173.319px,551.481px) rotate(0deg) translate(-96.1902px,-181.381px); animation-timing-function: cubic-bezier(0.42,0,0.58,1); } 50% { transform: translate(173.319px,551.481px) rotate(-10deg) translate(-96.1902px,-181.381px); } 66.6666% { transform: translate(173.319px,551.481px) rotate(0deg) translate(-96.1902px,-181.381px); animation-timing-function: cubic-bezier(0.42,0,0.58,1); } 83.3333% { transform: translate(173.319px,551.481px) rotate(-10deg) translate(-96.1902px,-181.381px); animation-timing-function: cubic-bezier(0.42,0,0.58,1); } 100% { transform: translate(173.319px,551.481px) rotate(0deg) translate(-96.1902px,-181.381px); } }
@keyframes a1_t { 0% { transform: translate(155.422px,541.665px) rotate(0deg) translate(-72.1058px,-86.2399px); animation-timing-function: cubic-bezier(0.42,0,0.58,1); } 16.6666% { transform: translate(155.422px,541.665px) rotate(-20deg) translate(-72.1058px,-86.2399px); animation-timing-function: cubic-bezier(0.42,0,0.58,1); } 33.3333% { transform: translate(155.422px,541.665px) rotate(0deg) translate(-72.1058px,-86.2399px); animation-timing-function: cubic-bezier(0.42,0,0.58,1); } 50% { transform: translate(155.422px,541.665px) rotate(-20deg) translate(-72.1058px,-86.2399px); } 66.6666% { transform: translate(155.422px,541.665px) rotate(0deg) translate(-72.1058px,-86.2399px); animation-timing-function: cubic-bezier(0.42,0,0.58,1); } 83.3333% { transform: translate(155.422px,541.665px) rotate(-20deg) translate(-72.1058px,-86.2399px); animation-timing-function: cubic-bezier(0.42,0,0.58,1); } 100% { transform: translate(155.422px,541.665px) rotate(0deg) translate(-72.1058px,-86.2399px); } }
@keyframes a2_t { 0% { transform: translate(116.513px,140.921px) rotate(-30deg) translate(-60.8855px,-127.569px); } 8.3333% { transform: translate(116.513px,140.921px) rotate(-30deg) translate(-60.8855px,-127.569px); animation-timing-function: cubic-bezier(0.42,0,0.58,1); } 25% { transform: translate(606.513px,140.921px) rotate(-30deg) translate(-60.8855px,-127.569px); } 100% { transform: translate(606.513px,140.921px) rotate(-30deg) translate(-60.8855px,-127.569px); } }
@keyframes door_t { 0% { transform: translate(0px,-310px); } 33.3333% { transform: translate(0px,-310px); animation-timing-function: cubic-bezier(0.42,0,0.58,1); } 58.3333% { transform: translate(0px,0px); } 100% { transform: translate(0px,0px); } }
@keyframes a3_t { 0% { transform: translate(564.537px,248.292px) rotate(0deg) translate(-12.0208px,-39.9308px); } 33.3333% { transform: translate(564.537px,248.292px) rotate(0deg) translate(-12.0208px,-39.9308px); animation-timing-function: cubic-bezier(0.42,0,0.58,1); } 37.5% { transform: translate(564.537px,248.292px) rotate(10deg) translate(-12.0208px,-39.9308px); animation-timing-function: cubic-bezier(0.42,0,0.58,1); } 41.6666% { transform: translate(564.537px,248.292px) rotate(0deg) translate(-12.0208px,-39.9308px); animation-timing-function: cubic-bezier(0.42,0,0.58,1); } 45.8333% { transform: translate(564.537px,248.292px) rotate(10deg) translate(-12.0208px,-39.9308px); animation-timing-function: cubic-bezier(0.42,0,0.58,1); } 50% { transform: translate(564.537px,248.292px) rotate(0deg) translate(-12.0208px,-39.9308px); } 100% { transform: translate(564.537px,248.292px) rotate(0deg) translate(-12.0208px,-39.9308px); } }
@keyframes a4_t { 0% { transform: translate(529.049px,282.604px) rotate(0deg) translate(-4.6924px,-5.67465px); } 25% { transform: translate(529.049px,282.604px) rotate(0deg) translate(-4.6924px,-5.67465px); animation-timing-function: cubic-bezier(0.42,0,0.58,1); } 33.3333% { transform: translate(529.049px,282.604px) rotate(-80deg) translate(-4.6924px,-5.67465px); animation-timing-function: cubic-bezier(0.42,0,0.58,1); } 41.6666% { transform: translate(529.049px,282.604px) rotate(-80deg) translate(-4.6924px,-5.67465px); animation-timing-function: cubic-bezier(0.42,0,0.58,1); } 50% { transform: translate(529.049px,282.604px) rotate(0deg) translate(-4.6924px,-5.67465px); } 100% { transform: translate(529.049px,282.604px) rotate(0deg) translate(-4.6924px,-5.67465px); } }
@keyframes a5_t { 0% { transform: translate(411.42px,418.755px) rotate(0deg) translate(-35.0202px,-155.155px); animation-timing-function: cubic-bezier(0.42,0,0.58,1); } 16.6666% { transform: translate(411.42px,418.755px) rotate(-10deg) translate(-35.0202px,-155.155px); animation-timing-function: cubic-bezier(0.42,0,0.58,1); } 33.3333% { transform: translate(411.42px,418.755px) rotate(10deg) translate(-35.0202px,-155.155px); animation-timing-function: cubic-bezier(0.42,0,0.58,1); } 50% { transform: translate(411.42px,418.755px) rotate(-10deg) translate(-35.0202px,-155.155px); animation-timing-function: cubic-bezier(0.42,0,0.58,1); } 66.6666% { transform: translate(411.42px,418.755px) rotate(10deg) translate(-35.0202px,-155.155px); animation-timing-function: cubic-bezier(0.42,0,0.58,1); } 83.3333% { transform: translate(411.42px,418.755px) rotate(-10deg) translate(-35.0202px,-155.155px); animation-timing-function: cubic-bezier(0.42,0,0.58,1); } 100% { transform: translate(411.42px,418.755px) rotate(0deg) translate(-35.0202px,-155.155px); } }
@keyframes a6_t { 0% { transform: translate(745.957px,425.043px) rotate(0deg) translate(-745.957px,-425.043px); } 33.3333% { transform: translate(745.957px,425.043px) rotate(0deg) translate(-745.957px,-425.043px); animation-timing-function: cubic-bezier(0.42,0,0.58,1); } 41.6666% { transform: translate(745.957px,425.043px) rotate(-100deg) translate(-745.957px,-425.043px); animation-timing-function: cubic-bezier(0.42,0,0.58,1); } 50% { transform: translate(745.957px,425.043px) rotate(-100deg) translate(-745.957px,-425.043px); animation-timing-function: cubic-bezier(0.42,0,0.58,1); } 58.3333% { transform: translate(745.957px,425.043px) rotate(0deg) translate(-745.957px,-425.043px); } 100% { transform: translate(745.957px,425.043px) rotate(0deg) translate(-745.957px,-425.043px); } }
@keyframes a7_t { 0% { transform: translate(730.731px,425.252px) rotate(0deg) translate(-730.731px,-425.252px); } 8.3333% { transform: translate(730.731px,425.252px) rotate(0deg) translate(-730.731px,-425.252px); animation-timing-function: cubic-bezier(0.42,0,0.58,1); } 12.5% { transform: translate(730.731px,425.252px) rotate(30deg) translate(-730.731px,-425.252px); animation-timing-function: cubic-bezier(0.42,0,0.58,1); } 16.6666% { transform: translate(730.731px,425.252px) rotate(0deg) translate(-730.731px,-425.252px); animation-timing-function: cubic-bezier(0.42,0,0.58,1); } 20.8333% { transform: translate(730.731px,425.252px) rotate(30deg) translate(-730.731px,-425.252px); animation-timing-function: cubic-bezier(0.42,0,0.58,1); } 25% { transform: translate(730.731px,425.252px) rotate(0deg) translate(-730.731px,-425.252px); animation-timing-function: cubic-bezier(0.42,0,0.58,1); } 29.1666% { transform: translate(730.731px,425.252px) rotate(30deg) translate(-730.731px,-425.252px); animation-timing-function: cubic-bezier(0.42,0,0.58,1); } 33.3333% { transform: translate(730.731px,425.252px) rotate(0deg) translate(-730.731px,-425.252px); } 100% { transform: translate(730.731px,425.252px) rotate(0deg) translate(-730.731px,-425.252px); } }
@keyframes a8_t { 0% { transform: translate(709.674px,550.696px) rotate(0deg) translate(-29.3174px,-41.2269px); animation-timing-function: cubic-bezier(0.42,0,0.58,1); } 8.3333% { transform: translate(709.674px,550.696px) rotate(20deg) translate(-29.3174px,-41.2269px); animation-timing-function: cubic-bezier(0.42,0,0.58,1); } 16.6666% { transform: translate(709.674px,550.696px) rotate(0deg) translate(-29.3174px,-41.2269px); animation-timing-function: cubic-bezier(0.42,0,0.58,1); } 25% { transform: translate(709.674px,550.696px) rotate(20deg) translate(-29.3174px,-41.2269px); animation-timing-function: cubic-bezier(0.42,0,0.58,1); } 33.3333% { transform: translate(709.674px,550.696px) rotate(0deg) translate(-29.3174px,-41.2269px); animation-timing-function: cubic-bezier(0.42,0,0.58,1); } 41.6666% { transform: translate(709.674px,550.696px) rotate(20deg) translate(-29.3174px,-41.2269px); animation-timing-function: cubic-bezier(0.42,0,0.58,1); } 50% { transform: translate(709.674px,550.696px) rotate(0deg) translate(-29.3174px,-41.2269px); animation-timing-function: cubic-bezier(0.42,0,0.58,1); } 58.3333% { transform: translate(709.674px,550.696px) rotate(20deg) translate(-29.3174px,-41.2269px); } 66.6666% { transform: translate(709.674px,550.696px) rotate(0deg) translate(-29.3174px,-41.2269px); animation-timing-function: cubic-bezier(0.42,0,0.58,1); } 75% { transform: translate(709.674px,550.696px) rotate(20deg) translate(-29.3174px,-41.2269px); } 83.3333% { transform: translate(709.674px,550.696px) rotate(0deg) translate(-29.3174px,-41.2269px); animation-timing-function: cubic-bezier(0.42,0,0.58,1); } 91.6666% { transform: translate(709.674px,550.696px) rotate(20deg) translate(-29.3174px,-41.2269px); animation-timing-function: cubic-bezier(0.42,0,0.58,1); } 100% { transform: translate(709.674px,550.696px) rotate(0deg) translate(-29.3174px,-41.2269px); } }
    </style>
    <defs>
        <filter id="Adobe_OpacityMaskFilter" filterUnits="userSpaceOnUse" x="946.5" y="293" width="216.5" height="73.5">
            <feColorMatrix type="matrix" values="1 0 0 0 0  0 1 0 0 0  0 0 1 0 0  0 0 0 1 0"/>
        </filter>
        <linearGradient id="Gradient-0" x1="67.5019" y1="416.263" x2="335.06" y2="416.263" gradientUnits="userSpaceOnUse" gradientTransform="matrix(1 0 0 -1 0 600)">
            <stop offset="0" stop-color="#ccebd6"/>
            <stop offset="1" stop-color="#66c485"/>
        </linearGradient>
        <linearGradient id="Gradient-1" x1="34.7054" y1="527.776" x2="210.069" y2="377.925" gradientUnits="userSpaceOnUse" gradientTransform="matrix(1 0 0 -1 0 600)">
            <stop offset="0" stop-color="#ccebd6"/>
            <stop offset="1" stop-color="#66c485"/>
        </linearGradient>
        <linearGradient id="Gradient-2" x1="-7.6936" y1="483.221" x2="263.978" y2="389.255" gradientUnits="userSpaceOnUse" gradientTransform="matrix(1 0 0 -1 0 600)">
            <stop offset="0" stop-color="#c8dfc7"/>
            <stop offset="0.1689" stop-color="#abd3ad"/>
            <stop offset="0.4082" stop-color="#87c58f"/>
            <stop offset="0.6334" stop-color="#6eba79"/>
            <stop offset="0.8371" stop-color="#5eb46c"/>
            <stop offset="1" stop-color="#59b267"/>
        </linearGradient>
        <linearGradient id="Gradient-3" x1="-1.8674" y1="607.845" x2="123.589" y2="394.295" gradientUnits="userSpaceOnUse" gradientTransform="matrix(1 0 0 -1 0 600)">
            <stop offset="0" stop-color="#c8dfc7"/>
            <stop offset="0.1689" stop-color="#abd3ad"/>
            <stop offset="0.4082" stop-color="#87c58f"/>
            <stop offset="0.6334" stop-color="#6eba79"/>
            <stop offset="0.8371" stop-color="#5eb46c"/>
            <stop offset="1" stop-color="#59b267"/>
        </linearGradient>
        <linearGradient id="Gradient-4" x1="1074.47" y1="159.069" x2="1074.47" y2="352.569" gradientUnits="userSpaceOnUse" gradientTransform="matrix(1 0 0 -1 0 600)">
            <stop offset="0" stop-color="#c8dfc7"/>
            <stop offset="0.17" stop-color="#abd3ad"/>
            <stop offset="0.41" stop-color="#87c58f"/>
            <stop offset="0.63" stop-color="#6eba79"/>
            <stop offset="0.84" stop-color="#5eb46c"/>
            <stop offset="1" stop-color="#59b267"/>
        </linearGradient>
        <linearGradient id="Gradient-5" x1="1074.48" y1="-45283.2" x2="1074.48" y2="-63695.3" gradientUnits="userSpaceOnUse" gradientTransform="matrix(1 0 0 -1 0 600)">
            <stop offset="0" stop-color="#c8dfc7"/>
            <stop offset="0.17" stop-color="#abd3ad"/>
            <stop offset="0.41" stop-color="#87c58f"/>
            <stop offset="0.63" stop-color="#6eba79"/>
            <stop offset="0.84" stop-color="#5eb46c"/>
            <stop offset="1" stop-color="#59b267"/>
        </linearGradient>
        <linearGradient id="Gradient-6" x1="1074.48" y1="67.581" x2="1074.48" y2="146.681" gradientUnits="userSpaceOnUse" gradientTransform="matrix(1 0 0 -1 0 600)">
            <stop offset="0" stop-color="#c8dfc7"/>
            <stop offset="0.02" stop-color="#c2dcc2"/>
            <stop offset="0.21" stop-color="#8bc298"/>
            <stop offset="0.39" stop-color="#5dad74"/>
            <stop offset="0.57" stop-color="#399d59"/>
            <stop offset="0.73" stop-color="#209145"/>
            <stop offset="0.88" stop-color="#108a39"/>
            <stop offset="1" stop-color="#0b8735"/>
        </linearGradient>
        <linearGradient id="Gradient-7" x1="1084.75" y1="419.941" x2="1084.75" y2="435.328" gradientUnits="userSpaceOnUse" gradientTransform="matrix(1 0 0 -1 0 600)">
            <stop offset="0.000017" stop-color="#4dba71"/>
            <stop offset="0.9989" stop-color="#007d29"/>
        </linearGradient>
        <linearGradient id="Gradient-8" x1="10320.6" y1="-3871.67" x2="10340.2" y2="-3871.67" gradientUnits="userSpaceOnUse" gradientTransform="matrix(-1 0 0 -1 10746.9 -3415.77)">
            <stop offset="0" stop-color="#24cedb"/>
            <stop offset="1" stop-color="#1174ba"/>
        </linearGradient>
        <linearGradient id="Gradient-9" x1="581.435" y1="178.174" x2="645.367" y2="178.174" gradientUnits="userSpaceOnUse" gradientTransform="matrix(-1 0 0 -1 1035.93 600)">
            <stop offset="0" stop-color="#c8dfc7"/>
            <stop offset="0.17" stop-color="#abd3ad"/>
            <stop offset="0.41" stop-color="#87c58f"/>
            <stop offset="0.63" stop-color="#6eba79"/>
            <stop offset="0.84" stop-color="#5eb46c"/>
            <stop offset="1" stop-color="#59b267"/>
        </linearGradient>
        <linearGradient id="Gradient-10" x1="10701.9" y1="-3816.42" x2="10730.7" y2="-3816.42" gradientUnits="userSpaceOnUse" gradientTransform="matrix(-1 0 0 -1 11276.3 -3415.77)">
            <stop offset="0" stop-color="#24cedb"/>
            <stop offset="1" stop-color="#1174ba"/>
        </linearGradient>
        <linearGradient id="Gradient-11" x1="389.218" y1="283.033" x2="452.067" y2="283.033" gradientUnits="userSpaceOnUse" gradientTransform="matrix(-1 0 0 -1 1035.93 600)">
            <stop offset="0" stop-color="#c8dfc7"/>
            <stop offset="0.17" stop-color="#abd3ad"/>
            <stop offset="0.41" stop-color="#87c58f"/>
            <stop offset="0.63" stop-color="#6eba79"/>
            <stop offset="0.84" stop-color="#5eb46c"/>
            <stop offset="1" stop-color="#59b267"/>
        </linearGradient>
        <linearGradient id="Gradient-12" x1="420.594" y1="146.837" x2="475.636" y2="146.837" gradientUnits="userSpaceOnUse" gradientTransform="matrix(-1 0 0 -1 1035.93 600)">
            <stop offset="0" stop-color="#c8dfc7"/>
            <stop offset="0.17" stop-color="#abd3ad"/>
            <stop offset="0.41" stop-color="#87c58f"/>
            <stop offset="0.63" stop-color="#6eba79"/>
            <stop offset="0.84" stop-color="#5eb46c"/>
            <stop offset="1" stop-color="#59b267"/>
        </linearGradient>
        <linearGradient id="Gradient-13" x1="439.216" y1="146.14" x2="508.474" y2="146.14" gradientUnits="userSpaceOnUse" gradientTransform="matrix(-1 0 0 -1 1035.93 600)">
            <stop offset="0" stop-color="#c8dfc7"/>
            <stop offset="0.17" stop-color="#abd3ad"/>
            <stop offset="0.41" stop-color="#87c58f"/>
            <stop offset="0.63" stop-color="#6eba79"/>
            <stop offset="0.84" stop-color="#5eb46c"/>
            <stop offset="1" stop-color="#59b267"/>
        </linearGradient>
        <linearGradient id="Gradient-14" x1="469.82" y1="227.072" x2="469.093" y2="322.517" gradientUnits="userSpaceOnUse" gradientTransform="matrix(-1 0 0 -1 1035.93 600)">
            <stop offset="0" stop-color="#c8dfc7"/>
            <stop offset="0.17" stop-color="#abd3ad"/>
            <stop offset="0.41" stop-color="#87c58f"/>
            <stop offset="0.63" stop-color="#6eba79"/>
            <stop offset="0.84" stop-color="#5eb46c"/>
            <stop offset="1" stop-color="#59b267"/>
        </linearGradient>
        <linearGradient id="Gradient-15" x1="468.066" y1="227.061" x2="467.334" y2="322.506" gradientUnits="userSpaceOnUse" gradientTransform="matrix(-1 0 0 -1 1035.93 600)">
            <stop offset="0" stop-color="#c8dfc7"/>
            <stop offset="0.17" stop-color="#abd3ad"/>
            <stop offset="0.41" stop-color="#87c58f"/>
            <stop offset="0.63" stop-color="#6eba79"/>
            <stop offset="0.84" stop-color="#5eb46c"/>
            <stop offset="1" stop-color="#59b267"/>
        </linearGradient>
        <linearGradient id="Gradient-16" x1="502.257" y1="227.324" x2="501.531" y2="322.763" gradientUnits="userSpaceOnUse" gradientTransform="matrix(-1 0 0 -1 1035.93 600)">
            <stop offset="0" stop-color="#c8dfc7"/>
            <stop offset="0.17" stop-color="#abd3ad"/>
            <stop offset="0.41" stop-color="#87c58f"/>
            <stop offset="0.63" stop-color="#6eba79"/>
            <stop offset="0.84" stop-color="#5eb46c"/>
            <stop offset="1" stop-color="#59b267"/>
        </linearGradient>
        <linearGradient id="Gradient-17" x1="498.585" y1="207.882" x2="498.585" y2="207.882" gradientUnits="userSpaceOnUse" gradientTransform="matrix(-1 0 0 -1 1035.93 600)">
            <stop offset="0" stop-color="#c8dfc7"/>
            <stop offset="0.17" stop-color="#abd3ad"/>
            <stop offset="0.41" stop-color="#87c58f"/>
            <stop offset="0.63" stop-color="#6eba79"/>
            <stop offset="0.84" stop-color="#5eb46c"/>
            <stop offset="1" stop-color="#59b267"/>
        </linearGradient>
        <linearGradient id="Gradient-18" x1="485.128" y1="269.082" x2="523.869" y2="269.082" gradientUnits="userSpaceOnUse" gradientTransform="matrix(-1 0 0 -1 1035.93 600)">
            <stop offset="0" stop-color="#c8dfc7"/>
            <stop offset="0.17" stop-color="#abd3ad"/>
            <stop offset="0.41" stop-color="#87c58f"/>
            <stop offset="0.63" stop-color="#6eba79"/>
            <stop offset="0.84" stop-color="#5eb46c"/>
            <stop offset="1" stop-color="#59b267"/>
        </linearGradient>
        <linearGradient id="Gradient-19" x1="473.865" y1="265.067" x2="511.617" y2="265.067" gradientUnits="userSpaceOnUse" gradientTransform="matrix(-1 0 0 -1 1035.93 600)">
            <stop offset="0" stop-color="#c8dfc7"/>
            <stop offset="0.17" stop-color="#abd3ad"/>
            <stop offset="0.41" stop-color="#87c58f"/>
            <stop offset="0.63" stop-color="#6eba79"/>
            <stop offset="0.84" stop-color="#5eb46c"/>
            <stop offset="1" stop-color="#59b267"/>
        </linearGradient>
        <linearGradient id="Gradient-20" x1="504.405" y1="143.984" x2="550.556" y2="143.984" gradientUnits="userSpaceOnUse" gradientTransform="matrix(-1 0 0 -1 1035.93 600)">
            <stop offset="0" stop-color="#c8dfc7"/>
            <stop offset="0.17" stop-color="#abd3ad"/>
            <stop offset="0.41" stop-color="#87c58f"/>
            <stop offset="0.63" stop-color="#6eba79"/>
            <stop offset="0.84" stop-color="#5eb46c"/>
            <stop offset="1" stop-color="#59b267"/>
        </linearGradient>
        <linearGradient id="Gradient-21" x1="516.7" y1="142.932" x2="560.845" y2="142.932" gradientUnits="userSpaceOnUse" gradientTransform="matrix(-1 0 0 -1 1035.93 600)">
            <stop offset="0" stop-color="#c8dfc7"/>
            <stop offset="0.17" stop-color="#abd3ad"/>
            <stop offset="0.41" stop-color="#87c58f"/>
            <stop offset="0.63" stop-color="#6eba79"/>
            <stop offset="0.84" stop-color="#5eb46c"/>
            <stop offset="1" stop-color="#59b267"/>
        </linearGradient>
        <linearGradient id="Gradient-22" x1="527.26" y1="269.094" x2="566.604" y2="269.094" gradientUnits="userSpaceOnUse" gradientTransform="matrix(-1 0 0 -1 1035.93 600)">
            <stop offset="0" stop-color="#c8dfc7"/>
            <stop offset="0.17" stop-color="#abd3ad"/>
            <stop offset="0.41" stop-color="#87c58f"/>
            <stop offset="0.63" stop-color="#6eba79"/>
            <stop offset="0.84" stop-color="#5eb46c"/>
            <stop offset="1" stop-color="#59b267"/>
        </linearGradient>
        <linearGradient id="Gradient-23" x1="491.232" y1="273.51" x2="517.481" y2="273.51" gradientUnits="userSpaceOnUse" gradientTransform="matrix(-1 0 0 -1 1035.93 600)">
            <stop offset="0" stop-color="#c8dfc7"/>
            <stop offset="0.17" stop-color="#abd3ad"/>
            <stop offset="0.41" stop-color="#87c58f"/>
            <stop offset="0.63" stop-color="#6eba79"/>
            <stop offset="0.84" stop-color="#5eb46c"/>
            <stop offset="1" stop-color="#59b267"/>
        </linearGradient>
        <linearGradient id="Gradient-24" x1="500.085" y1="247.273" x2="513.511" y2="247.273" gradientUnits="userSpaceOnUse" gradientTransform="matrix(-1 0 0 -1 1035.93 600)">
            <stop offset="0" stop-color="#c8dfc7"/>
            <stop offset="0.17" stop-color="#abd3ad"/>
            <stop offset="0.41" stop-color="#87c58f"/>
            <stop offset="0.63" stop-color="#6eba79"/>
            <stop offset="0.84" stop-color="#5eb46c"/>
            <stop offset="1" stop-color="#59b267"/>
        </linearGradient>
        <linearGradient id="Gradient-25" x1="547.49" y1="267.192" x2="578.98" y2="267.192" gradientUnits="userSpaceOnUse" gradientTransform="matrix(-1 0 0 -1 1035.93 600)">
            <stop offset="0" stop-color="#c8dfc7"/>
            <stop offset="0.17" stop-color="#abd3ad"/>
            <stop offset="0.41" stop-color="#87c58f"/>
            <stop offset="0.63" stop-color="#6eba79"/>
            <stop offset="0.84" stop-color="#5eb46c"/>
            <stop offset="1" stop-color="#59b267"/>
        </linearGradient>
        <linearGradient id="Gradient-26" x1="12092.3" y1="-3859.78" x2="12111.5" y2="-3859.78" gradientUnits="userSpaceOnUse" gradientTransform="matrix(-1 0 0 -1 12746.4 -3415.77)">
            <stop offset="0" stop-color="#24cedb"/>
            <stop offset="1" stop-color="#1174ba"/>
        </linearGradient>
        <linearGradient id="Gradient-27" x1="358.454" y1="147.5" x2="387.726" y2="147.5" gradientUnits="userSpaceOnUse" gradientTransform="matrix(-1 0 0 -1 1035.93 600)">
            <stop offset="0" stop-color="#c8dfc7"/>
            <stop offset="0.17" stop-color="#abd3ad"/>
            <stop offset="0.41" stop-color="#87c58f"/>
            <stop offset="0.63" stop-color="#6eba79"/>
            <stop offset="0.84" stop-color="#5eb46c"/>
            <stop offset="1" stop-color="#59b267"/>
        </linearGradient>
        <linearGradient id="Gradient-28" x1="374.456" y1="145.19" x2="409.589" y2="145.19" gradientUnits="userSpaceOnUse" gradientTransform="matrix(-1 0 0 -1 1035.93 600)">
            <stop offset="0" stop-color="#c8dfc7"/>
            <stop offset="0.17" stop-color="#abd3ad"/>
            <stop offset="0.41" stop-color="#87c58f"/>
            <stop offset="0.63" stop-color="#6eba79"/>
            <stop offset="0.84" stop-color="#5eb46c"/>
            <stop offset="1" stop-color="#59b267"/>
        </linearGradient>
        <linearGradient id="Gradient-29" x1="371.219" y1="279.794" x2="398.441" y2="279.794" gradientUnits="userSpaceOnUse" gradientTransform="matrix(-1 0 0 -1 1035.93 600)">
            <stop offset="0" stop-color="#c8dfc7"/>
            <stop offset="0.17" stop-color="#abd3ad"/>
            <stop offset="0.41" stop-color="#87c58f"/>
            <stop offset="0.63" stop-color="#6eba79"/>
            <stop offset="0.84" stop-color="#5eb46c"/>
            <stop offset="1" stop-color="#59b267"/>
        </linearGradient>
        <linearGradient id="Gradient-30" x1="380.826" y1="271.21" x2="372.444" y2="291.428" gradientUnits="userSpaceOnUse" gradientTransform="matrix(-1 0 0 -1 1035.93 600)">
            <stop offset="0" stop-color="#c8dfc7"/>
            <stop offset="0.17" stop-color="#abd3ad"/>
            <stop offset="0.41" stop-color="#87c58f"/>
            <stop offset="0.63" stop-color="#6eba79"/>
            <stop offset="0.84" stop-color="#5eb46c"/>
            <stop offset="1" stop-color="#59b267"/>
        </linearGradient>
        <linearGradient id="Gradient-31" x1="2098.04" y1="162.94" x2="2032.97" y2="49.5177" gradientUnits="userSpaceOnUse" gradientTransform="matrix(1 0 0 -1 -1335.92 600)">
            <stop offset="0" stop-color="#c8dfc7"/>
            <stop offset="0.17" stop-color="#abd3ad"/>
            <stop offset="0.41" stop-color="#87c58f"/>
            <stop offset="0.63" stop-color="#6eba79"/>
            <stop offset="0.84" stop-color="#5eb46c"/>
            <stop offset="1" stop-color="#59b267"/>
        </linearGradient>
        <linearGradient id="Gradient-32" x1="2100.05" y1="121.75" x2="2059.7" y2="151.793" gradientUnits="userSpaceOnUse" gradientTransform="matrix(1 0 0 -1 -1335.92 600)">
            <stop offset="0" stop-color="#c8dfc7"/>
            <stop offset="0.17" stop-color="#abd3ad"/>
            <stop offset="0.41" stop-color="#87c58f"/>
            <stop offset="0.63" stop-color="#6eba79"/>
            <stop offset="0.84" stop-color="#5eb46c"/>
            <stop offset="1" stop-color="#59b267"/>
        </linearGradient>
        <linearGradient id="Gradient-33" x1="2016.31" y1="68.2463" x2="2044.69" y2="68.2463" gradientUnits="userSpaceOnUse" gradientTransform="matrix(1 0 0 -1 -1335.92 600)">
            <stop offset="0" stop-color="#c8dfc7"/>
            <stop offset="0.17" stop-color="#abd3ad"/>
            <stop offset="0.41" stop-color="#87c58f"/>
            <stop offset="0.63" stop-color="#6eba79"/>
            <stop offset="0.84" stop-color="#5eb46c"/>
            <stop offset="1" stop-color="#59b267"/>
        </linearGradient>
        <linearGradient id="Gradient-34" x1="2026.79" y1="66.8053" x2="2094.21" y2="66.8053" gradientUnits="userSpaceOnUse" gradientTransform="matrix(1 0 0 -1 -1335.92 600)">
            <stop offset="0" stop-color="#c8dfc7"/>
            <stop offset="0.17" stop-color="#abd3ad"/>
            <stop offset="0.41" stop-color="#87c58f"/>
            <stop offset="0.63" stop-color="#6eba79"/>
            <stop offset="0.84" stop-color="#5eb46c"/>
            <stop offset="1" stop-color="#59b267"/>
        </linearGradient>
        <linearGradient id="Gradient-35" x1="2127.48" y1="146.05" x2="2062.41" y2="32.6331" gradientUnits="userSpaceOnUse" gradientTransform="matrix(1 0 0 -1 -1335.92 600)">
            <stop offset="0" stop-color="#c8dfc7"/>
            <stop offset="0.17" stop-color="#abd3ad"/>
            <stop offset="0.41" stop-color="#87c58f"/>
            <stop offset="0.63" stop-color="#6eba79"/>
            <stop offset="0.84" stop-color="#5eb46c"/>
            <stop offset="1" stop-color="#59b267"/>
        </linearGradient>
        <linearGradient id="Gradient-36" x1="2112.39" y1="154.704" x2="2047.32" y2="41.2871" gradientUnits="userSpaceOnUse" gradientTransform="matrix(1 0 0 -1 -1335.92 600)">
            <stop offset="0" stop-color="#c8dfc7"/>
            <stop offset="0.17" stop-color="#abd3ad"/>
            <stop offset="0.41" stop-color="#87c58f"/>
            <stop offset="0.63" stop-color="#6eba79"/>
            <stop offset="0.84" stop-color="#5eb46c"/>
            <stop offset="1" stop-color="#59b267"/>
        </linearGradient>
        <linearGradient id="Gradient-37" x1="34.6003" y1="107.463" x2="608.112" y2="107.463" gradientUnits="userSpaceOnUse">
            <stop offset="0.000017" stop-color="#4dba71"/>
            <stop offset="0.9989" stop-color="#007d29"/>
        </linearGradient>
        <clipPath id="ClipPath-2">
            <path class="st20" d="M927.5,358.1C929.2,352.9,945.4,316.2,950.2,307.5C954.9,298.8,961.4,295.8,966.1,295.8L1182.8,295.8C1187.5,295.8,1194,298.8,1198.7,307.5C1203.4,316.2,1219.7,353,1221.4,358.1C1223.1,363.3,1220.4,365.7,1216,365.7L933,365.7C928.6,365.7,925.9,363.3,927.5,358.1Z" fill="#E6F5EB" transform="translate(-729.964,-213.348)"/>
        </clipPath>
        <mask id="mask0_1_">
            <path class="st21" d="M1221.9,358.6C1220.2,353.4,1204,316.7,1199.2,308C1194.5,299.3,1188,296.3,1183.3,296.3L966.6,296.3C961.9,296.3,955.4,299.3,950.7,308C946,316.7,929.7,353.5,928,358.6C926.3,363.8,929,366.2,933.4,366.2L1216.4,366.2C1220.9,366.2,1223.6,363.8,1221.9,358.6Z" filter="url(#Adobe_OpacityMaskFilter)" fill="#E6F5EB"/>
        </mask>
        <clipPath id="ClipPath-1">
            <path class="st13" d="M1308,249.69L861.5,249.69L861.5,555.1L1308,555.1L1308,249.69Z" fill="#4DBA71" transform="translate(-861.5,-240.975)"/>
        </clipPath>
        <clipPath id="SVGID_17_">
            <path id="SVGID_16_" d="M576.1,262.1C576.1,262.1,589.1,265.4,601.2,269.9C601.2,269.9,600.5,290.2,598,311.2C597.5,315.7,596.5,332.8,596.4,336.3C596.1,342.5,598,360.2,600,376.2C601.9,392.2,603,392.1,596,395.3C596,395.3,573.3,399.7,564.1,396.9C549.6,392.4,554.6,382.5,549,380.6C543.4,378.7,536.4,370.1,536.4,370.1C536.4,370.1,541.4,347.5,538.6,326.6C535.8,305.7,531.4,270,531.4,270C531.4,270,547.9,264.1,560,262L576.1,262.1Z"/>
        </clipPath>
        <clipPath id="SVGID_21_">
            <path id="SVGID_20_" d="M576.9,250.2C575.2,255.6,576.3,265,576.3,265C568.1,268.4,560,262,560,262L562.5,243.3C562.5,243.2,578,246.8,576.9,250.2Z"/>
        </clipPath>
        <clipPath id="SVGID_30_">
            <path id="SVGID_29_" d="M541,300.8C545.2,312.5,535.4,322.8,535.4,322.8C535.6,329.8,536.2,336.9,537.1,343.8C538.6,354.4,546.9,379.9,544.1,381.9C541.4,383.9,532.3,379.1,532.3,379.1C529.3,373.3,532,337.6,531.9,314.5C531.9,299.5,527.4,284.6,522.2,277.3C519.2,273.1,518.4,270.4,518.4,270.4C530.8,271.2,536.8,289.1,541,300.8Z"/>
        </clipPath>
        <clipPath id="SVGID_33_">
            <path id="SVGID_32_" d="M517.4,265.2C517.8,268.3,519.4,272.9,520.3,274.2L515.8,283.5L499.7,273.8C499.7,273.8,505.1,269.1,505.8,259.7C507.5,261.1,509.3,262.4,511.1,263.7C515.5,266.7,516.2,267,517.4,265.2Z"/>
        </clipPath>
    </defs>
    <g id="tree2" transform="translate(267.836,539.027) translate(-140.801,-505.194)">
        <path class="st0" d="M211.7,208.4L202,208.4L202,555.1L211.7,555.1L211.7,208.4Z" fill="#0B8735" transform="translate(-67.5857,-33.8327)"/>
        <path class="st0" d="M206.4,353.1L165.3,338C158.6,335.5,154.2,329.2,154.2,322L154.2,272L160.6,272L160.6,318.1C160.6,324.1,160.7,329.4,166.3,331.5L207.4,346.6L206.4,353.1Z" fill="#0B8735" transform="translate(-67.5857,-33.8327)"/>
        <path class="st0" d="M207.8,373.9L248.9,358.8C255.6,356.3,260,350,260,342.8L260,292.7L253.6,292.7L253.6,338.8C253.6,344.8,253.5,350.1,247.9,352.2L206.8,367.3L207.8,373.9Z" fill="#0B8735" transform="translate(-67.5857,-33.8327)"/>
        <path class="st1" d="M318.7,236.6C311.8,240.7,303.6,242.5,295.9,245.1C288.2,247.8,280.5,251.9,277.1,258.7C277,259,276.9,259.2,276.7,259.4C274,265.6,275.1,272.4,274.5,279C271.3,308.2,236.7,323.4,212.1,330.4C202.6,333.1,190.1,335.5,181.7,328.8C173.9,322.6,173.2,310.8,171.9,301.8C171.2,297.4,170,293,166.3,290C160.6,285.3,151.2,286.9,144.3,286.1C133.9,284.9,123.9,280.4,116.3,273.2C108.1,265.7,101.4,254.2,101.2,242.8C101,235,106.7,227.7,100.8,220.7C91.9,209.9,83.3,198.8,77.1,186.3C69.2,170.6,65.1,152.2,69.2,135.2C72,123.8,79.8,112.8,90.1,107.9C96.4,105,101.1,99.5,103,92.8C104,89,105.7,85.4,107.5,82C115.4,67.2,126.6,54,140.9,45.1C144.2,43.1,147.6,41.2,151.2,39.7C163.1,34.6,176.3,32.5,189,34.7C196,35.9,203.2,38.8,208.3,43.5C213.4,48.1,220.6,49.7,227.1,47.4C234.5,44.8,242.2,43.3,250,43.5C262.3,44,274.7,49.2,282.1,59.1C287.6,66.6,289.8,76.2,290.9,85.4C291.5,90.5,291.7,96,290.7,100.9C290.8,102.1,290.9,103.2,290.9,104.4C290.7,119.7,267.6,136.3,288.5,148C305.9,157.6,322.8,169.7,331,186.5C339,204,335.7,226.5,318.7,236.6Z" fill="url(#Gradient-0)" transform="translate(-67.5857,-33.8327)"/>
        <path class="st2" d="M276.8,259.5C274.1,265.7,275.2,272.5,274.6,279.1C271.4,308.3,236.8,323.5,212.2,330.5C202.7,333.2,190.2,335.6,181.8,328.9C174,322.8,173.3,310.9,172,301.9C171.3,297.5,170.1,293.1,166.4,290.2C160.7,285.5,151.3,287.1,144.4,286.3C134,285.1,124,280.6,116.4,273.4C108.2,265.9,101.5,254.4,101.3,243C101.1,235.2,106.8,227.9,100.9,220.9C92,210.1,83.4,199,77.2,186.5C69.3,170.8,65.2,152.4,69.3,135.4C72.1,124,79.9,113,90.2,108.1C96.5,105.2,101.2,99.7,103.1,93C104.1,89.2,105.8,85.6,107.6,82.2C115.5,67.4,126.7,54.2,141,45.3C144.3,43.3,147.7,41.4,151.3,39.9C137.2,54.9,127.9,74.3,125.9,94.8C125.2,102.5,125.6,111,130.7,116.8C134.1,120.7,138.8,122.9,143.9,124.1C150.1,125.6,153.8,131.8,152.1,137.9C148.6,150,145.6,162.3,144.8,175C143.8,191.8,147.2,209.5,157.5,222.8C165.9,233.7,179.5,241,193.1,240.9C198.1,240.8,202.5,243.8,204.3,248.5C207.1,255.6,212.3,261.9,217.8,267.3C226,275.3,235.7,282.4,247,283.7C258.3,285,271.2,278.5,273.6,267.4C274.1,265.3,274.2,263.1,275.3,261.2C275.5,260.6,276,260,276.8,259.5Z" fill="url(#Gradient-1)" transform="translate(-67.5857,-33.8327)"/>
    </g>
    <g id="tree" transform="translate(177.535,540.416) translate(-130.632,-540.423)">
        <path class="st0" d="M129.4,555L139.8,555L139.8,182.6L129.4,182.6L129.4,555Z" fill="#0B8735" transform="translate(0.0426174,0.00701276)"/>
        <path class="st0" d="M135.1,338.1L179.2,321.9C186.4,319.2,191.1,312.4,191.1,304.7L191.1,250.8L184.2,250.8L184.2,300.4C184.2,306.8,184.1,312.5,178.1,314.7L134,330.9L135.1,338.1Z" fill="#0B8735" transform="translate(0.0426174,0.00701276)"/>
        <path class="st0" d="M133.6,360.4L89.5,344.2C82.3,341.5,77.6,334.7,77.6,327L77.6,273.1L84.5,273.1L84.5,322.7C84.5,329.1,84.6,334.8,90.6,337L134.7,353.2L133.6,360.4Z" fill="#0B8735" transform="translate(0.0426174,0.00701276)"/>
        <path class="st3" d="M228.9,258.5C220.4,260.2,211.5,259.2,202.7,259.2C194,259.2,184.6,260.7,178.8,266.4C178.6,266.6,178.4,266.9,178.2,267C173.3,272.2,172,279.8,169,286.2C155.5,314.7,115,318.1,87.6,316.6C77,316,63.5,314.1,57.3,304.3C51.5,295.3,55,283.1,56.7,273.5C57.5,268.7,57.8,263.9,55.1,259.6C50.9,252.8,40.9,251.2,34.1,247.9C24,243.1,15.4,235,10.1,225C4.5,214.4,1.6,200.5,5.4,188.8C8,180.9,16.2,175.5,12.8,166.2C7.6,152.2,2.8,137.8,0.9,123C-1.6,104.3,0.6,84.3,10.8,68.4C17.6,57.8,29.5,49.4,41.6,48C49,47.2,55.8,43.4,59.9,37.2C62.2,33.7,65.2,30.6,68.4,27.7C81.7,15.6,97.7,6.1,115.3,2C119.3,1.1,123.5,0.4,127.7,0.2C141.6,-0.8,155.6,1.8,167.8,8.5C174.5,12.2,180.8,17.7,184.3,24.2C187.9,30.7,194.6,34.8,201.9,34.8C210.4,34.8,218.7,35.9,226.5,38.9C238.8,43.7,249.7,53.4,253.5,66C256.4,75.6,255.3,86,253.2,95.8C252,101.2,250.4,106.8,247.6,111.5C247.3,112.7,247,114,246.5,115.2C241,130.7,211.6,139.4,228.8,158.6C243,174.5,256,192.6,258.4,212.5C261,232.5,249.7,254,228.9,258.5Z" fill="url(#Gradient-2)" transform="translate(0.0426174,0.00701276)"/>
        <path class="st4" d="M178.2,267.1C173.3,272.3,172,279.9,169,286.3C155.5,314.8,115,318.2,87.6,316.7C77,316.1,63.5,314.2,57.3,304.4C51.5,295.4,55,283.2,56.7,273.6C57.5,268.8,57.8,264,55.1,259.7C50.9,252.9,40.9,251.3,34.1,248C24,243.2,15.4,235.1,10.1,225.1C4.5,214.5,1.6,200.6,5.4,188.9C8,181,16.2,175.6,12.8,166.3C7.6,152.3,2.8,137.9,0.9,123.1C-1.6,104.4,0.6,84.4,10.8,68.5C17.6,57.9,29.5,49.5,41.6,48.1C49,47.3,55.8,43.5,59.9,37.3C62.2,33.8,65.2,30.7,68.4,27.8C81.7,15.6,97.7,6.1,115.3,2C119.3,1.1,123.5,0.4,127.7,0.2C108.2,10.5,91.9,26.9,82.7,47C79.3,54.5,76.8,63.3,79.8,71.1C81.8,76.3,85.9,80.1,90.6,83C96.4,86.7,98,94.3,94.1,99.9C86.2,111,78.9,122.5,73.7,135C66.8,151.7,64,170.9,69.7,188.1C74.4,202.1,85.6,214.3,99.5,218.9C104.6,220.6,108,225.2,108.2,230.6C108.6,238.8,111.6,246.9,115.3,254.4C120.7,265.3,128.2,276.1,139.2,281.4C150.2,286.6,165.5,284.6,171.9,274.1C173.1,272.2,174,269.9,175.8,268.4C176.6,267.6,177.4,267.2,178.2,267.1Z" fill="url(#Gradient-3)" transform="translate(0.0426174,0.00701276)"/>
    </g>
    <path class="st5" d="M141.6,555.5C141.6,555.5,141.6,543.6,159.5,531.6C177.4,519.7,185.4,495.8,165.5,495.8C145.6,495.8,191.4,481.8,189.4,466C187.4,450.1,179.5,460,177.5,452C175.5,444,191.5,408.2,175.5,424.1C159.6,440,157.6,453.9,151.6,440C145.6,426,133.7,432,137.6,451.9C141.6,471.8,137,474.5,127.4,465.2C117.8,455.9,89.8,451.9,105.7,479.8C121.6,507.7,104,515.2,116.8,531.3C129.6,547.6,141.6,535.6,141.6,555.5Z" fill="#C8DFC7" transform="translate(40,0)"/>
    <path class="st6" d="M167,450.9C167,450.9,140.9,496,140.4,515.4C139.9,534.9,139.8,543.3,125.2,553.8" stroke-miterlimit="10" stroke-linecap="round" stroke="#009C33" stroke-width="1.6749" stroke-linejoin="round" fill="none" transform="translate(40,0)"/>
    <path class="st6" d="M150.7,461.3C150.7,461.3,151.4,476.1,148.7,487.6C148.7,487.6,156.1,479,160.6,476" stroke-miterlimit="10" stroke-linecap="round" stroke="#009C33" stroke-width="1.6749" stroke-linejoin="round" fill="none" transform="translate(40,0)"/>
    <path class="st6" d="M141.6,482.7C141.6,482.7,141.5,500,140.7,512.8C140.7,512.8,149.3,498.7,153.9,495.7" stroke-miterlimit="10" stroke-linecap="round" stroke="#009C33" stroke-width="1.6749" stroke-linejoin="round" fill="none" transform="translate(40,0)"/>
    <g transform="translate(173.319,551.481) translate(-96.1902,-181.381)" style="animation: 12s linear both a0_t;">
        <path class="st7" d="M136.4,555.2C136.4,555.2,118.5,545.3,124.5,509.4C130.5,473.5,119.5,433.6,100.8,410.9C78.9,384.6,42.8,370.1,42.8,370.1C42.8,370.1,24.9,417.8,52.7,467.7C80.5,517.4,122.4,555.2,136.4,555.2Z" fill="#59B267" transform="translate(-37.1284,-370.1)"/>
        <path class="st8" d="M55.3,392.8C55.3,392.8,100.2,459.4,103.5,491.1C106.7,522.8,111.2,540,136.5,555.2" stroke-miterlimit="10" stroke-linecap="round" stroke="#C8DFC7" stroke-width="1.6749" stroke-linejoin="round" fill="none" transform="translate(-37.1284,-370.1)"/>
        <path class="st8" d="M83.3,407.6C83.3,407.6,83,431.9,89,450.4C89,450.4,77,437.2,69.1,433" stroke-miterlimit="10" stroke-linecap="round" stroke="#C8DFC7" stroke-width="1.6749" stroke-linejoin="round" fill="none" transform="translate(-37.1284,-370.1)"/>
        <path class="st8" d="M100.8,441.4C100.8,441.4,96.4,465.7,102.4,484.2C102.4,484.2,90.3,468.3,82.3,464.1" stroke-miterlimit="10" stroke-linecap="round" stroke="#C8DFC7" stroke-width="1.6749" stroke-linejoin="round" fill="none" transform="translate(-37.1284,-370.1)"/>
    </g>
    <path class="st9" d="M17.6,555.5C17.6,555.5,78.8,531.9,107.9,538.4C136.9,544.8,162.7,525.5,180.7,523C198.7,520.4,196.1,521.1,219.4,531.4C242.7,541.7,295.4,548.1,298.6,550L361.6,555.8L17.6,555.5Z" fill="#009C33" transform="translate(40,0)"/>
    <g transform="translate(155.422,541.665) translate(-72.1058,-86.2399)" style="animation: 12s linear both a1_t;">
        <path class="st9" d="M48.5,455.5C48.6,455.4,48.6,455.4,48.5,455.5C48.6,455.4,82.4,463.2,102.9,477.4C120.5,489.6,130.8,511.2,125.1,530.5C121.9,541.5,126,548,130.2,551.5C89.9,528.6,51.5,460.6,48.5,455.5Z" fill="#009C33" transform="translate(-43.3161,-455.425)"/>
        <path class="st0" d="M58,508C32.9,482.3,47.3,457.5,48.6,455.5C51.4,460.6,90,528.7,130.2,551.6C133.3,554.3,136.4,555.3,136.4,555.3C123.4,555.2,84.1,534.8,58,508Z" fill="#0B8735" transform="translate(-43.3161,-455.425)"/>
    </g>
    <path class="st10" d="M1,555.5C1,555.5,18.2,531.9,47.3,538.4C76.3,544.8,102.1,525.5,120.1,523C138.1,520.4,135.5,521.1,158.8,531.4C182.1,541.7,214.9,548.7,220.7,546.2C220.7,546.2,224.6,523.7,232.3,521.1C232.3,521.1,223.3,539.1,225.2,544.9C225.2,544.9,231,525.6,236.1,523.1C236.1,523.1,228.4,540.4,232.9,548.8C232.9,548.8,234.8,537.9,236.1,535.9C236.1,535.9,234.8,548.1,238,550L301,555.8L1,555.5Z" fill="#66C485" transform="translate(40,0)"/>
    <path class="st12" d="M810.6,199.4L1359,199.4L1359,555.1L809.5,555.1L810.6,199.4Z" fill="#B3E1C2" transform="translate(40,0)"/>
    <path class="st13" d="M1308,249.69L861.5,249.69L861.5,555.1L1308,555.1L1308,249.69Z" fill="#4DBA71" transform="translate(40,0)"/>
    <path class="st14" d="M909.5,363.8C909.5,366.1,911.8,369.7,914.9,370.3L911.5,375.8C911.5,375.8,908.6,371.4,901.5,373.3L898.5,373.3L898.5,363.8L909.5,363.8Z" fill="#1D883B" transform="translate(40,0)"/>
    <path class="st14" d="M872.5,362.8C872.2,367.6,879.9,372.3,887.6,374.1C898.9,376.6,909.6,371.9,909.6,362C909.6,352.4,902.1,347.4,891.1,350.3C883.5,352.2,872.8,358.1,872.5,362.8Z" fill="#1D883B" transform="translate(40,0)"/>
    <path class="st14" d="M1239.5,363.8C1239.5,366.1,1237.2,369.7,1234.1,370.3L1237.5,375.8C1237.5,375.8,1240.4,371.4,1247.5,373.3L1250.6,373.3L1250.6,363.8L1239.5,363.8Z" fill="#1D883B" transform="translate(40,0)"/>
    <path class="st14" d="M1276.4,362.8C1276.7,367.6,1269,372.3,1261.3,374.1C1250,376.6,1239.3,371.9,1239.3,362C1239.3,352.4,1246.9,347.4,1257.9,350.3C1265.5,352.2,1276.2,358.1,1276.4,362.8Z" fill="#1D883B" transform="translate(40,0)"/>
    <path class="st0" d="M940.4,546.9C940.4,551.6,936.1,555.3,930.9,555.3L901.2,555.3C896,555.3,891.7,551.5,891.7,546.9L891.7,466C891.7,461.3,896,457.6,901.2,457.6L930.9,457.6C936.2,457.6,940.4,461.4,940.4,466L940.4,546.9Z" fill="#0B8735" transform="translate(40,0)"/>
    <path class="st0" d="M1257.3,546.9C1257.3,551.6,1253.1,555.3,1247.8,555.3L1218.1,555.3C1212.9,555.3,1208.6,551.5,1208.6,546.9L1208.6,466C1208.6,461.3,1212.8,457.6,1218.1,457.6L1247.8,457.6C1253,457.6,1257.3,461.4,1257.3,466L1257.3,546.9Z" fill="#0B8735" transform="translate(40,0)"/>
    <path class="st15" d="M895.1,403.2C897.1,391.2,907.6,377.7,913.4,367.5C919.1,357.3,940.3,309.3,945.5,300.8C950.7,292.4,961.7,283.8,975.3,282C988.8,280.2,1048.6,280,1074.5,280C1100.4,280,1160.2,280.2,1173.7,282C1187.2,283.8,1198.3,292.4,1203.5,300.8C1208.7,309.2,1229.9,357.3,1235.6,367.5C1241.3,377.7,1251.8,391.2,1253.8,403.2C1255.8,415.2,1255.2,486.4,1251.8,498.1C1248.4,509.8,1235.9,517,1226.1,517L922.8,517C913,517,900.5,509.8,897.1,498.1C893.7,486.4,893,415.2,895.1,403.2Z" fill="url(#Gradient-4)" transform="translate(40,0)"/>
    <path class="st16" d="M1254.9,451.7C1254.6,472.2,1253.5,492.4,1251.9,498.1C1248.5,509.8,1236,517,1226.2,517L922.8,517C913,517,900.5,509.8,897.1,498.1C895.4,492.3,894.4,472.1,894.1,451.7L1254.9,451.7Z" fill="url(#Gradient-5)" transform="translate(40,0)"/>
    <path class="st17" d="M931.7,354.5C931.7,354.5,912.8,379.9,910.3,386.3C907.8,392.7,907.5,398.5,914.6,401.4C921.7,404.3,975.2,416.1,987.3,416.1L1161.6,416.1C1173.8,416.1,1227.2,404.3,1234.3,401.4C1241.4,398.5,1241.1,392.7,1238.6,386.3C1236.1,379.9,1217.2,354.5,1217.2,354.5" stroke="#1D883B" stroke-miterlimit="10" fill="none" transform="translate(40,0)"/>
    <path class="st18" d="M912.5,495.7C910.6,499.9,912.9,503.4,917.8,503.4L1231.2,503.4C1236.1,503.4,1238.4,499.9,1236.5,495.7L1229.7,480.9C1228,477.1,1223,474.1,1218.5,474.1L930.5,474.1C926,474.1,921,477.1,919.3,480.9L912.5,495.7Z" fill="url(#Gradient-6)" transform="translate(40,0)"/>
    <path class="st19" d="M1002.4,428.1C1004.4,422.7,1013.2,418.5,1022,418.5L1126.9,418.5C1135.7,418.5,1144.5,422.7,1146.5,428.1C1148.5,433.5,1139.4,455.8,1136,459.8C1132.6,463.8,1128.9,464.8,1118.1,464.8L1030.8,464.8C1020,464.8,1016.3,463.8,1012.9,459.8C1009.5,455.8,1000.4,433.5,1002.4,428.1Z" fill="#D4E5D3" transform="translate(40,0)"/>
    <path class="st20" d="M927.5,358.1C929.2,352.9,945.4,316.2,950.2,307.5C954.9,298.8,961.4,295.8,966.1,295.8L1182.8,295.8C1187.5,295.8,1194,298.8,1198.7,307.5C1203.4,316.2,1219.7,353,1221.4,358.1C1223.1,363.3,1220.4,365.7,1216,365.7L933,365.7C928.6,365.7,925.9,363.3,927.5,358.1Z" fill="#E6F5EB" transform="translate(40,0)"/>
    <g clip-path="url(#ClipPath-2)" transform="translate(886.477,354.269) translate(-116.513,-140.921)">
        <path fill="#ffffff" stroke="none" d="M0,0L28.9931,0L28.9931,255.139L0,255.139ZM39.6239,0L50.2547,0L50.2547,255.139L39.6239,255.139ZM121.771,0L94.7108,0L94.7108,255.139L121.771,255.139Z" fill-rule="evenodd" transform="translate(116.513,140.921) rotate(-30) translate(-60.8855,-127.569)" style="animation: 12s linear both a2_t;"/>
    </g>
    <g class="st22" mask="url(#mask0_1_)" transform="translate(40,0)"/>
    <path class="st24" d="M983.9,418.5C983.9,418.5,969,435,961.6,435L918.7,435C911.9,435,910.2,431.4,908.9,428.1C907.5,424.8,906.9,407.4,908.9,401.4C908.8,401.4,938.9,412.5,983.9,418.5Z" fill="#FFFFFF" transform="translate(40,0)"/>
    <path class="st24" d="M1165,418.5C1165,418.5,1179.9,435,1187.3,435L1230.3,435C1237.1,435,1238.7,431.4,1240.1,428.1C1241.4,424.8,1242.1,407.4,1240.1,401.4C1240.2,401.4,1210.1,412.5,1165,418.5Z" fill="#FFFFFF" transform="translate(40,0)"/>
    <g id="garage_door" clip-path="url(#ClipPath-1)" transform="translate(1124.75,398.197) translate(-223.25,-157.222)">
        <g id="door" transform="translate(223.25,-152.778) translate(-223.25,-157.222)" style="animation: 12s linear both door_t;">
            <path class="st25" d="M1308,275.023L861.5,275.023L861.5,580.246L1308,580.246L1308,275.023Z" fill="#80CE99" transform="translate(-861.5,-265.802)"/>
            <path class="st25" d="M1308,422.157L861.5,422.157L861.5,435.328L1308,435.328L1308,422.157Z" fill="url(#Gradient-7)" stroke="none" transform="translate(-861.5,-142.157)"/>
            <path class="st25" d="M1308,422.157L861.5,422.157L861.5,435.328L1308,435.328L1308,422.157Z" fill="url(#Gradient-7)" stroke="none" transform="translate(-861.5,-182.157)"/>
            <path class="st25" d="M1308,422.157L861.5,422.157L861.5,435.328L1308,435.328L1308,422.157Z" fill="url(#Gradient-7)" stroke="none" transform="translate(-861.5,-222.157)"/>
            <path class="st25" d="M1308,422.157L861.5,422.157L861.5,435.328L1308,435.328L1308,422.157Z" fill="url(#Gradient-7)" stroke="none" transform="translate(-861.5,-262.157)"/>
            <path class="st25" d="M1308,422.157L861.5,422.157L861.5,435.328L1308,435.328L1308,422.157Z" fill="url(#Gradient-7)" stroke="none" transform="translate(-861.5,-302.157)"/>
            <path class="st25" d="M1308,422.157L861.5,422.157L861.5,435.328L1308,435.328L1308,422.157Z" fill="url(#Gradient-7)" stroke="none" transform="translate(-861.5,-342.157)"/>
            <path class="st25" d="M1308,422.157L861.5,422.157L861.5,435.328L1308,435.328L1308,422.157Z" fill="url(#Gradient-7)" stroke="none" transform="translate(-861.5,-382.157)"/>
            <path class="st25" d="M1308,422.157L861.5,422.157L861.5,435.328L1308,435.328L1308,422.157Z" fill="url(#Gradient-7)" stroke="none" transform="translate(-861.5,-422.157)"/>
        </g>
    </g>
    <rect class="st27" width="471.9" height="426" fill="none" transform="translate(40,0) translate(337.1,171)"/>
    <g id="Happy_Family" transform="translate(40,0)">
        <path class="st9" d="M623.5,547.9C622.2,549.2,621.8,553.9,623,555.8C624.1,557.7,625.8,557,628,561.8C630.1,566.7,638.2,567.6,642,565.7C645.9,563.8,640.4,558,638,555.3C636.3,553.5,634.9,547.1,634,543.1L634,543.1C634,543.1,625.5,544.6,624.8,542.9C624.5,544.9,624.1,547.2,623.5,547.9Z" fill="#009C33"/>
        <path class="st19" d="M624.7,542.9L624.7,542.9C625.4,544.6,633.9,543.1,633.9,543.1L633.9,543.1C634,538,641.7,494.9,641.7,494.9L641.7,494.9C645.4,485.6,649.9,464.5,656.4,449.2C662.8,434.2,669,415.5,669,415.5L631.1,424C631,435.4,626.9,456,630.7,485.4L630.7,485.4C630.7,485.4,624.8,499.8,623.3,511.5C622.2,520.9,622.5,537.9,624.7,542.9Z" fill="#D4E5D3"/>
        <path class="st9" d="M435,331.9L413.3,329.4C404.4,334.4,408.2,357.1,408.2,357.1C420.1,361.8,437,358.6,437,358.6C442.3,344.2,435,331.9,435,331.9Z" fill="#009C33"/>
        <path class="st28" d="M406.7,455.9L411.6,464.4L421.4,464.4L426.3,455.9L421.4,447.4L411.6,447.4Z" fill="url(#Gradient-8)" opacity="0.7"/>
        <path class="st19" d="M397.7,556.9L399.4,560.4C399.8,561.3,404.8,563.5,406.5,563C408.9,562.3,405.9,557.5,405.9,557.5C406,552.2,413.7,507.9,413.7,507.9L413.7,507.9C417.5,498.4,417.3,476.5,423.9,460.9C430.4,445.6,402.9,435.4,402.9,435.4C402.8,447.1,398.6,468.1,402.5,498.2L402.5,498.2C402.5,498.2,398.2,510.4,398.4,524.1C398.5,533.8,398.2,553.4,397.7,556.9Z" fill="#D4E5D3"/>
        <path class="st19" d="M419.5,560.9L420.9,561.8C421.4,562.9,426.1,567.1,427.9,566.6C428.9,566.3,429.1,561.4,429.1,561.4L427.7,560.3C427.8,555.1,435.4,511.9,435.4,511.9L435.4,511.9C439.2,502.4,439,480.5,445.6,464.9C452.1,449.6,424.6,439.4,424.6,439.4C424.5,451.1,420.3,472.1,424.2,502.2L424.2,502.2C424.2,502.2,419.9,514.4,420.1,528.1C420.3,537.8,417.3,555.8,419.5,560.9Z" fill="#D4E5D3"/>
        <path class="st29" d="M427.5,361.2C427.5,361.2,439,366.9,445.5,371.5C445.5,371.5,440.7,378.2,439,392.1C438.6,395.1,439.1,408,439,410.3C438.8,414.4,446.8,460.5,454.5,475.3C435.9,491.7,390.6,475.3,390.6,475.3C390.6,475.3,401.8,418,401.8,404C401.8,388.5,398.8,368.1,398.8,368.1C398.8,368.1,408.3,362.5,416.5,361.1L427.5,361.2Z" fill="url(#Gradient-9)"/>
        <path class="st19" d="M428.1,357.3C426.9,361,427.7,363.2,427.7,363.2C422.1,365.5,416.5,361.1,416.5,361.1L417.2,351.7C417.2,351.7,428.8,355,428.1,357.3Z" fill="#D4E5D3"/>
        <path class="st19" d="M432.3,331.5C435.4,332.9,436.1,338.4,435.6,343.9C435.5,344.7,435.4,345.5,435.3,346.3C434.7,349.8,433.7,353,432.6,354.8C430.1,358.7,421.6,361,415.7,349.3C415.7,349.3,413,348.5,412.9,344.1C412.6,329.3,421.6,326.8,432.3,331.5Z" fill="#D4E5D3"/>
        <path class="st19" d="M415,349.5C412.6,349.5,409.2,344.1,411.5,342.6C413.8,341.1,416.1,344,416.1,344C416.1,344,417.4,349.5,415,349.5Z" fill="#D4E5D3"/>
        <path class="st30" d="M545.7,400.6L552.8,413.1L567.2,413.1L574.4,400.6L567.2,388.2L552.8,388.2Z" fill="url(#Gradient-10)" opacity="0.7"/>
        <path class="st31" d="M604.5,272.3C600.2,266.1,588.7,270.3,585.2,275.2C582.4,279.1,584.4,287.8,585.9,296.4C587.9,307.9,600.8,323.9,606.2,332.4C612.7,342.6,640.3,364.8,640.3,364.8L646.6,349.5C646.6,349.5,623.5,324,618.5,315.5C614.2,307.9,606.1,274.5,604.5,272.3Z" fill="url(#Gradient-11)"/>
        <path class="st9" d="M528.5,556.1C526.6,558,526,565.1,527.7,567.8C529.4,570.6,531.9,569.6,535.1,576.8C538.3,584.1,550.3,585.5,556.1,582.6C561.9,579.7,553.8,571.1,550.1,567C547.6,564.3,545.4,554.7,544.2,548.7L544.2,548.7C544.2,548.7,531.5,550.9,530.4,548.4C530.1,551.6,529.5,555.1,528.5,556.1Z" fill="#009C33"/>
        <path class="st32" d="M584.1,476.1C581.4,488.7,593.8,537.4,598.5,548.8C598.8,549.5,599.1,550.2,599.5,550.8C603.3,556.6,615.3,549.1,615.3,549.1C615.3,549.1,615.3,549,615.3,549C610.1,534.8,606.2,473.2,606.2,473.2L606.2,473.2C606.6,471.6,606.7,469.9,606.7,468.2C606.3,447.9,599.4,409.3,592.3,377.7C587.6,356.4,585.9,353.2,585.9,353.2C585.9,353.2,576.2,362.3,566.7,362.7C557.2,363.1,561,392.1,561,392.1C561,392.1,580.3,440.6,584.1,476.1Z" fill="url(#Gradient-12)"/>
        <path class="st33" d="M530.4,548.6L530.4,548.6C531.5,551.1,544.2,548.9,544.2,548.9L544.2,548.9C544.3,541.2,555.9,476.8,555.9,476.8L555.9,476.8C561.5,462.9,568.2,431.3,577.9,408.5C587.4,386.1,596.6,358.1,596.6,358.1L540,370.8C539.9,387.9,533.7,418.7,539.5,462.7L539.5,462.7C539.5,462.7,530.6,484.2,528.5,501.7C526.7,515.7,527.1,541.1,530.4,548.6Z" fill="url(#Gradient-13)"/>
        <path class="st34" d="M576.1,262.1C576.1,262.1,589.1,265.4,601.2,269.9C601.2,269.9,600.5,290.2,598,311.2C597.5,315.7,596.5,332.8,596.4,336.3C596.1,342.5,598,360.2,600,376.2C601.9,392.2,603,392.1,596,395.3C596,395.3,573.3,399.7,564.1,396.9C549.6,392.4,554.6,382.5,549,380.6C543.4,378.7,536.4,370.1,536.4,370.1C536.4,370.1,541.4,347.5,538.6,326.6C535.8,305.7,531.4,270,531.4,270C531.4,270,547.9,264.1,560,262L576.1,262.1Z" fill="url(#Gradient-14)"/>
        <g>
            <g class="st35" clip-path="url(#SVGID_17_)">
                <path class="st36" d="M568.7,258.5C560.1,258.5,553.1,261,553.1,264.1C553.1,267.2,566.8,270.8,575.5,270.8C584.2,270.8,584.4,267.3,584.4,264.1C584.4,261,577.3,258.5,568.7,258.5Z" fill="url(#Gradient-15)"/>
                <path class="st37" d="M518.5,396.3L548.4,395.8C548.4,395.8,541.7,346.6,546.8,330C549.2,322.1,548.5,293.2,548.5,293.2C528.8,285.7,518.5,396.3,518.5,396.3Z" fill="url(#Gradient-16)"/>
            </g>
        </g>
        <path class="st9" d="M597.4,551.9C597.2,557.3,598.8,562.5,602,566.8C602.8,567.9,611.2,566.3,613.1,565.4C615,564.4,623,566.9,630.3,566.3C637.6,565.8,643.3,557.1,637.9,556.9C632.5,556.7,627.5,555.9,627.5,555.9C625.5,556.4,618.3,552.4,616.1,549.7C615.8,549.4,615.5,549.2,615.2,549C615.2,549,615.2,549.1,615.2,549.1C615.2,549.1,603.1,556.7,599.4,550.8C599,550.2,598.7,549.5,598.4,548.8C597.8,549.7,597.4,550.8,597.4,551.9Z" fill="#009C33"/>
        <path class="st19" d="M548.6,380.4C549.7,382.2,550.4,384.2,550.6,386.4C550.6,386.4,549.4,391.4,539.6,393.1L538.7,388.7L548.6,380.4Z" fill="#D4E5D3"/>
        <path class="st19" d="M576.9,250.2C575.2,255.6,576.3,265,576.3,265C568.1,268.4,560,262,560,262L562.5,243.3C562.5,243.2,578,246.8,576.9,250.2Z" fill="#D4E5D3"/>
        <g>
            <g class="st38" clip-path="url(#SVGID_21_)">
                <path class="st39" d="M581.4,244.6C581.4,244.6,591.8,258.2,576.5,259.8C561.2,261.4,562.3,241.3,562.3,241.3C570.6,234.3,581.4,244.6,581.4,244.6Z" fill="#B8CEB7"/>
            </g>
        </g>
        <path class="st9" d="M560,243.8L559.7,243.4C559.9,243.5,560,243.6,560,243.8Z" fill="#009C33"/>
        <g transform="translate(564.537,248.292) translate(-12.0208,-39.9308)" style="animation: 12s linear both a3_t;">
            <path class="st19" d="M556.4,233C556.6,234.8,557.1,236.6,557.8,238.3C558.9,243,561.8,246.7,565.8,249.8C568,251.4,570.4,252.7,572.9,253.6C580,256.1,580.2,257,582,253.6C582.7,252.3,582.7,251.7,584.1,249.5C587,245.2,587.7,240.1,588.2,236.9C588.9,234.3,589.1,231.6,588.7,228.9C587.4,218.8,579.1,211.5,570.2,212.7C561.3,213.8,555.1,222.9,556.4,233Z" fill="#D4E5D3" transform="translate(-552.516,-208.361)"/>
            <path class="st9" d="M563.6,248C562.7,246.5,563.3,242.7,563.7,240.5C564,238.8,563.2,234.2,563.5,234C563.5,234,565.6,239.8,566.2,239.6C566.8,239.4,567.1,234,567.1,234C570,233.2,567.5,224.8,567.5,224.8C581.6,226.3,585.7,224.6,587.3,223.3C588.1,225.3,588.9,229.4,588.8,233.8C588.8,233.8,591.3,225.4,589.1,221.2C590.6,216,592.1,205.7,573.3,209C560.8,211.1,557,217.4,557,217.4C557,217.4,551.8,222.7,552.6,228.9C553.2,234.2,559.8,247,563.6,248Z" fill="#009C33" transform="translate(-552.516,-208.361)"/>
            <path class="st19" d="M563.2,233.4C555.3,230.8,560.2,240.6,564.3,241.2C566.1,241.4,565.7,240.9,565.7,240.9L563.2,233.4Z" fill="#D4E5D3" transform="translate(-552.516,-208.361)"/>
        </g>
        <path class="st40" d="M537.3,392.1L537.3,392.1Z" fill="url(#Gradient-17)"/>
        <path class="st41" d="M537.3,392.1C537.3,392.1,537,391.5,530.6,378.6C522,361.3,512,334.3,512,334.3C512,334.3,514.3,321.2,514.9,318.5C519.6,295,523,272.7,531.4,270C532.5,269.6,533.8,269.6,534.9,270C541.3,271.9,548.5,293.2,548.5,293.2C548.8,304.7,532.5,327.1,530.2,332.5C533.1,337.8,542.6,366.4,550.6,382.2C552.5,385.8,537.3,392.1,537.3,392.1Z" fill="url(#Gradient-18)"/>
        <path class="st42" d="M539.1,393.7C551,393.5,551.3,386,551.3,386" stroke="#B0CCF4" stroke-miterlimit="10" fill="none"/>
        <path class="st19" d="M655.2,354.5C659.7,353.7,670.8,355.1,670.8,355.1C670.8,355.1,670.4,357.9,667.5,357.4C666.3,357.2,661.3,357.8,661.3,357.8C661.3,357.8,651.6,355.2,655.2,354.5Z" fill="#D4E5D3"/>
        <path class="st19" d="M642.4,359.9C643.5,361.3,644.5,362.7,645.3,364.3C648.2,369.2,657,373.4,660.8,375.1C664.6,376.8,667.9,371,670.4,369.3C672.8,367.7,671.8,367.3,670.3,366.9C667.8,366.4,662.4,363.1,662.4,363.1C662.4,363.1,670.4,366.8,671.5,366.8C672.6,366.8,673.4,367,673.8,366C674.2,365.1,673.4,365.1,673.4,365.1C672.1,364.6,666.9,361.2,665.8,360.4C664.7,359.6,664.6,359.2,663,357.8C661.4,356.4,652.4,353.6,650.3,352.7C648.9,352,647.7,350.9,646.9,349.5L642.4,359.9Z" fill="#D4E5D3"/>
        <path class="st19" d="M472.7,397.7C475.8,400.1,481.2,408.1,481.2,408.1C481.1,408.2,481,408.2,480.9,408.3C479.8,408.9,478.5,408.5,477.9,407.4C477.4,406.5,474.1,403.6,474.1,403.6C474.1,403.6,470.2,395.8,472.7,397.7Z" fill="#D4E5D3"/>
        <path class="st19" d="M461.8,385.8C461.8,385.8,462.9,392.5,461.1,397.1C459.3,401.7,461.6,407.4,462.8,410.9C464,414.4,469.4,413,471.8,413.6C474.1,414.2,473.9,413.3,473.2,412.1C472.4,410.6,471.9,409,471.6,407.4C471.6,407.4,473.4,412,474,412.7C474.6,413.4,475,414,475.8,413.7C476.6,413.4,476.1,412.9,476.1,412.9C475.6,411.3,475.3,409.6,475.1,407.9C474.9,406.7,475.1,406.4,475.1,404.5C475,402.6,471.6,395.1,471,393.2C470.4,391.3,469.3,384.1,469.3,384.1L461.8,385.8Z" fill="#D4E5D3"/>
        <path class="st19" d="M488.1,535.5C486.5,537.6,483.2,551.3,483.2,551.3L497.5,559.7C494.1,552.8,498.3,539,498.3,539C498.3,539,489.7,533.4,488.1,535.5Z" fill="#D4E5D3"/>
        <path class="st9" d="M480.8,562.8L484.1,563.1C484.1,563.1,483.7,561.4,484.1,561.5C488.1,562.8,509.3,569.9,516.6,563C516.6,563,515.5,560.8,512.2,559C508.6,557.1,500.1,556.5,497.9,553.9C495.8,551.3,496.1,555.5,493.2,554.9C490.3,554.4,482,548.3,482,548.3C476.8,548.6,480.8,562.8,480.8,562.8Z" fill="#009C33"/>
        <g transform="translate(529.049,282.604) translate(-4.6924,-5.67465)" style="animation: 12s linear both a4_t;">
            <path class="st19" d="M553.5,381.9C552.9,382.3,552.7,395.4,555.3,400.3C556.5,402.5,567.6,406.7,567.3,402.3C566.3,388.8,555.9,381.4,555.9,381.4C555.9,381.4,554.3,381.2,553.5,381.9Z" fill="#D4E5D3" transform="translate(-524.356,-276.929)"/>
            <path class="st19" d="M553.7,386C555.2,390.6,560.1,392.3,562.4,391.9C563.6,392.5,564.4,394.8,564.9,395.8C566.7,399.4,569.1,400.4,570.3,400.4C571.5,400.5,571,399.6,569.8,397.2C568.5,394.8,567.2,390.2,565.6,388.3C564,386.4,556,381.4,556,381.4C556,381.4,551.7,379.6,553.7,386Z" fill="#D4E5D3" transform="translate(-524.356,-276.929)"/>
            <path class="st43" d="M550.1,338.7C545.2,314.1,542.3,286.1,530.5,278.1C518,269.6,526.9,309,536.6,344C543.8,369.7,551.5,392.9,551.5,392.9C555.3,390.7,562.1,386,562.1,386C562.1,386,555.1,364.1,550.1,338.7Z" fill="url(#Gradient-19)" transform="translate(-524.356,-276.929)"/>
        </g>
        <path class="st19" d="M501.4,563.5C497.5,551.6,501.6,549,501.6,549C501.6,549,511.5,546.4,511.2,553.3C510.9,560.2,517.2,573.2,517.2,573.2C517.2,573.2,505.3,575.5,501.4,563.5Z" fill="#D4E5D3"/>
        <path class="st44" d="M501.7,542.9C501.7,542.9,519,478.2,520.4,447.9C521.8,417.6,531.5,371.6,531.5,371.6C531.5,371.6,510.6,364.5,504.3,374.1C498.1,383.8,504.7,416.5,504.7,416.5C504.7,416.5,495.3,437.5,496.4,464.8C497.5,492.1,485.3,542.6,485.3,542.6L501.7,542.9Z" fill="url(#Gradient-20)"/>
        <path class="st45" d="M513.4,554.3C513.4,554.3,507.7,502.5,508.7,474.1C509.7,443.8,519.3,370.1,519.3,370.1C519.3,370.1,487.6,353.3,480.6,362.5C469.6,376.9,478.6,407.1,478.6,407.1C478.6,407.1,486.2,445.1,484.7,472.5C483.2,499.8,497.2,552.6,497.2,552.6L513.4,554.3Z" fill="url(#Gradient-21)"/>
        <path class="st9" d="M500,557.9C499,556.5,498,569.3,498,569.3C498,569.3,499.3,571.3,500,571.3L500,570.4C500.4,569.6,523.5,589.7,525.1,581.5C523.6,578.1,524.2,577.5,521.6,572.5C518.6,566.8,512.4,561.4,512.4,561.4C512.4,561.4,514.2,565.9,513.1,567.7C508.6,570.9,503,562.3,503,562.3C503,562.3,501,559.3,500,557.9Z" fill="#009C33"/>
        <path class="st9" d="M488.4,294.4C488.4,294.4,533,287,536,277.4C538.6,269.2,534.1,246.1,533.7,240.7C533.6,239.8,533.2,239,532.6,238.3C528.6,233.6,527.9,232.6,523.2,228.1C517.2,222.5,509.4,217.6,499.9,227.3L488.4,294.4Z" fill="#009C33"/>
        <path class="st9" d="M532.9,284.8C534.5,284.6,535.9,283.7,536.7,282.3C538.9,279,539.4,272.3,538.2,262.5C537.2,255.4,535.8,248.3,533.8,241.4L533.8,241.4C533.7,241.2,533.5,241,533.2,241.1C533,241.2,532.8,241.4,532.9,241.7C536.2,253.4,540.5,275,535.9,281.8C535.2,282.9,534,283.7,532.7,283.9C532.7,283.9,532.7,283.9,532.7,283.9C532.4,283.9,532.3,284.2,532.3,284.4C532.4,284.7,532.7,284.9,532.9,284.8L532.9,284.8Z" fill="#009C33"/>
        <path class="st9" d="M505.4,331.9C497.5,346.4,470.8,351.7,460.7,336.6C445.3,313.5,465,293.8,471.6,289.7C495.4,275,481,239.4,499.7,227.3C499.7,227.3,513.3,317.4,505.4,331.9Z" fill="#009C33"/>
        <path class="st24" d="M533.1,329.7C533.1,329.7,533.5,305.7,530.5,291.7C527.5,277.7,518.5,270.4,518.5,270.4C518.5,270.4,519.5,279.2,514.9,279.6C508.1,280.1,501,274.9,499.6,273.5C498.2,272.1,490.5,274.9,490.5,274.9C490.5,274.9,497,300.5,500.3,321.6C503.6,342.7,482,369.5,482,369.5C482,369.5,482.1,374,488.8,379.7C488.8,379.7,516.7,397.8,533.3,379.1C535.3,376.9,532.1,366.7,532.1,362.5C532.1,354.4,533.1,329.7,533.1,329.7Z" fill="#FFFFFF"/>
        <path class="st46" d="M482.2,276.4C468,280.9,482.1,319.5,482.1,319.5L483.6,329.3C485.1,339.1,471.8,370,469.7,376.9C467.6,383.8,479.5,388.5,490.2,388.5C500.9,388.5,501.1,355,507.4,333.4C513.7,311.8,496.8,273.3,496.8,273.3C496.8,273.3,494,272.7,482.2,276.4Z" fill="url(#Gradient-22)"/>
        <path class="st47" d="M541,300.8C545.2,312.5,535.4,322.8,535.4,322.8C535.6,329.8,536.2,336.9,537.1,343.8C538.6,354.4,546.9,379.9,544.1,381.9C541.4,383.9,532.3,379.1,532.3,379.1C529.3,373.3,532,337.6,531.9,314.5C531.9,299.5,527.4,284.6,522.2,277.3C519.2,273.1,518.4,270.4,518.4,270.4C530.8,271.2,536.8,289.1,541,300.8Z" fill="url(#Gradient-23)"/>
        <g>
            <g class="st48" clip-path="url(#SVGID_30_)">
                <path class="st49" d="M526.4,384.7C537.1,384.4,536.3,376.2,535.4,349C534.5,321.8,530.2,320.8,530.2,320.8C530.2,320.8,515.6,385,526.4,384.7Z" fill="url(#Gradient-24)"/>
            </g>
        </g>
        <path class="st19" d="M517.3,265.2C517.7,268.3,519.3,272.9,520.2,274.2C520.2,274.2,520.2,282.4,518.1,283.4C513.4,285.6,499.6,273.9,499.6,273.9C499.6,273.9,505,269.2,505.7,259.8C507.4,261.2,509.2,262.5,511,263.8C515.5,266.7,516.2,267,517.3,265.2Z" fill="#D4E5D3"/>
        <g>
            <g class="st50" clip-path="url(#SVGID_33_)">
                <path class="st39" d="M523.1,259.5C523.1,259.5,522.2,268.8,516,269.9C509.8,271,503.9,258.3,503.9,258.3L523.1,259.5Z" fill="#B8CEB7"/>
            </g>
        </g>
        <path class="st19" d="M498.6,246C498.7,248.2,499.3,250.4,500.4,252.4C500.4,252.4,500.4,252.5,500.5,252.5C501,255.4,503,257.8,505.7,260C507.4,261.4,509.2,262.6,511.1,263.8C515.6,266.7,516.3,267,517.5,265.2C518.5,263.5,519.5,261.9,520.7,260.3C523.5,256.5,525.2,251.9,525.4,247.2C525.4,247.2,525.4,247.1,525.4,247.1C525.5,246.1,525.5,245.2,525.4,244.2C524.8,235.9,518.4,229.5,511,230C503.6,230.5,498,237.7,498.6,246Z" fill="#D4E5D3"/>
        <path class="st19" d="M500.8,246.4C494.3,243,497.2,252.2,500.6,253.3C502.1,253.8,501.8,253.2,501.8,253.2L500.8,246.4Z" fill="#D4E5D3"/>
        <path class="st51" d="M460.6,387.6C463.1,386.4,470.5,388.2,470.5,388.2C470.5,388.2,474.8,350.5,475.4,346.9C475.9,343.7,475.7,341.3,475,339.6L475.2,339.5C475.2,339.5,494.5,280,486.5,277.8C464.4,271.8,459.3,326.2,458.4,340C454.2,347.7,460.6,387.6,460.6,387.6Z" fill="url(#Gradient-25)"/>
        <path class="st9" d="M518.1,229.3L502.3,229.6L497.2,244.3C497.2,244.3,500.7,253.4,524.7,237.7L518.1,229.3Z" fill="#009C33"/>
        <path class="st19" d="M427.5,361.2C422.6,360.4,416.3,361.1,416.3,361.1C413,361.6,411.7,362.4,411.7,362.4C411.7,362.4,413,374.8,423.4,374.8C432.4,374.8,432.8,363.9,432.8,363.9C431,362.8,427.5,361.2,427.5,361.2Z" fill="#D4E5D3"/>
        <path class="st19" d="M477.5,408.6C477.5,408.6,477.1,412.6,476.4,414C475.7,415.4,474.6,415.7,472.5,415.2C470.3,414.7,471.4,406.5,472.5,405.4C473.6,404.3,475.8,405.9,475.8,405.9L477.5,408.6Z" fill="#D4E5D3"/>
        <path class="st19" d="M439,392.1C439,392.1,449.3,403.2,452,404.9C454.7,406.6,475.7,413.7,476.4,413.9C477.1,414.1,478.2,408.6,477.5,408.5C476.8,408.4,456.4,396.2,451.6,391.2C446.8,386.2,445.4,371.4,445.4,371.4C440.1,374.7,439,392.1,439,392.1Z" fill="#D4E5D3"/>
        <path class="st9" d="M436.8,336.7C442.1,323.2,428.9,325,428.9,325C407.5,319.9,410.7,343.7,410.7,343.7C413.1,344.8,416,344,416,344C426.1,341.7,428.9,331.9,428.9,331.9" fill="#009C33"/>
        <path class="st9" d="M397.9,554.9C397.2,553.9,396.4,565,396.4,565C396.4,565,406.4,569.9,411.9,569.5C413,568.5,413.4,567.3,411.5,563.8C410.1,561.3,408.2,559.1,405.9,557.4C405.9,557.4,407.1,560.6,406.4,561.9C403.2,564.2,399.3,558.1,399.3,558.1C398.9,557,398.5,555.9,397.9,554.9Z" fill="#009C33"/>
        <path class="st9" d="M418.9,557.9C418.2,556.9,417.5,566,417.5,566C417.5,566,428.2,572.8,433.7,572.4C434.8,571.4,435.2,570.2,433.3,566.7C431.9,564.2,430,562,427.7,560.3C427.7,560.3,428.9,563.5,428.2,564.8C425,567.1,421.1,560.9,421.1,560.9C421.1,560.9,419.6,558.8,418.9,557.9Z" fill="#009C33"/>
        <path class="st19" d="M401.5,395C401.4,397.5,407.3,416,407.3,416L403.9,421.8C403.9,421.8,393.8,403,393.9,397.7C394,392.4,398.7,368.2,398.7,368.2C402.6,371.2,401.6,392.5,401.5,395Z" fill="#D4E5D3"/>
        <path class="st19" d="M403.9,421.8C404.8,424.7,406.7,425.7,409.2,425.7C411.7,425.7,413.1,420.8,413.1,420.3C413.1,419.8,411.8,417.3,411.5,417.3C411.2,417.3,407.3,415.9,407.3,415.9C407.3,415.9,403.3,419.7,403.9,421.8Z" fill="#D4E5D3"/>
        <g transform="translate(411.42,418.755) translate(-35.0202,-155.155)" style="animation: 12s linear both a5_t;">
            <path class="st52" d="M397.7,318.4C394.5,328,404.6,365.1,411.6,384C418.6,403,410.2,420.8,410.2,420.8" stroke-width="2" stroke="#009C33" stroke-miterlimit="10" fill="none" transform="translate(-376.4,-263.6)"/>
            <path class="st7" d="M398,263.6C410,263.6,419.6,275.3,419.6,289.7C419.6,304.1,409.9,319,398,319C386,319,376.4,304.1,376.4,289.7C376.4,275.3,386.1,263.6,398,263.6Z" fill="#59B267" transform="translate(-376.4,-263.6)"/>
        </g>
        <path class="st19" d="M693.4,422.4C693.2,422.9,683.4,423.8,682.7,421.9C682.1,419.9,672.6,405,672.6,405C671.8,403.4,670.8,401.2,669.6,398.6C666.9,392.5,663.2,382.1,661.8,374.4C660.8,368.6,659.5,362.8,661.3,360.2C663.6,356.9,670,357.3,672.8,361.5C673.8,363,673.6,381.1,675.7,386.6C679.1,395.4,680.1,399.5,680.3,400.9L683.6,406.8C683.6,406.8,691.7,412.4,692.9,413.6C694.2,414.8,693.6,421.9,693.4,422.4Z" fill="#D4E5D3"/>
        <path class="st53" d="M634.9,444L639.7,452.3L649.3,452.3L654.1,444L649.3,435.7L639.7,435.7Z" fill="url(#Gradient-26)" opacity="0.7"/>
        <path class="st19" d="M660.6,494.5C658.8,502.9,667.1,535.4,670.2,543.1C670.4,543.6,670.6,544,670.8,544.5C673.3,548.4,681.4,543.3,681.4,543.3L681.4,543.3C677.9,533.8,675.3,492.6,675.3,492.6L675.3,492.6C675.5,491.5,675.6,490.4,675.6,489.3C675.4,475.8,670.7,449.9,666,428.8C662.8,414.6,661.7,412.4,661.7,412.4C661.7,412.4,655.2,418.5,648.9,418.7C642.6,419,645.1,438.4,645.1,438.4C645.1,438.4,658,470.7,660.6,494.5Z" fill="#D4E5D3"/>
        <path class="st9" d="M669.5,545.1C669.3,548.7,670.4,552.2,672.6,555.1C673.1,555.8,678.7,554.8,680,554.1C681.3,553.5,686.5,556.3,691.4,556C696.3,555.7,700.2,548.7,696.6,548.5C693,548.4,689.6,547.9,689.6,547.9C688.3,548.3,683.4,545.5,682,543.8C681.8,543.6,681.6,543.4,681.4,543.3L681.4,543.3C681.4,543.3,673.3,548.3,670.8,544.5C670.6,544.1,670.3,543.6,670.2,543.1C669.8,543.7,669.5,544.4,669.5,545.1Z" fill="#009C33"/>
        <path class="st54" d="M669,432.9L677.5,472.1C677.5,472.1,660.3,478.7,655.1,475.7C649.9,472.7,648.2,428.3,648.2,428.3L669,432.9Z" fill="url(#Gradient-27)"/>
        <path class="st55" d="M661.4,435.2C662.8,440,646.6,482.5,646.6,482.5L626.3,479.8L626.4,470.7C626.5,461.6,628.3,427.2,628.3,427.2C628.3,427.2,660,430.4,661.4,435.2Z" fill="url(#Gradient-28)"/>
        <path class="st56" d="M655.2,351.3C655.2,351.3,671.7,355.7,672.8,361.4C672.8,361.4,671.5,369.5,669.8,383.1C669.4,386.1,668.8,397.1,668.7,399.4C668.5,403.4,669.8,414.9,671,425.3C672.3,435.7,673,435.6,668.3,437.7C668.3,437.7,648.9,437.5,642.5,436.7C627.4,434.7,626.7,425.6,626.7,425.6C626.7,425.6,631.8,406.7,629.9,393.2C628,379.6,623.3,360.1,623.3,360.1C623.3,360.1,636.2,352.6,644.3,351.2L655.2,351.3Z" fill="#84C38C"/>
        <path class="st19" d="M655.8,347.6C654.6,351.2,655.4,353.3,655.4,353.3C649.9,355.6,644.5,351.3,644.5,351.3L645.2,342.1C645.2,342.1,656.6,345.3,655.8,347.6Z" fill="#D4E5D3"/>
        <path class="st9" d="M657.9,323.7C657.9,323.7,658.2,343.6,662.5,335.7C666.8,327.8,662.5,322.6,662.5,322.6L657.9,323.7Z" fill="#009C33"/>
        <path class="st19" d="M660,322.4C663,323.7,663.7,329.1,663.2,334.5C663.1,335.3,663,336.1,662.9,336.9C662.4,340.3,661.4,343.5,660.3,345.2C657.9,349,649.5,351.3,643.8,339.9C643.8,339.9,641.2,339.1,641.1,334.8C640.7,320.2,649.4,317.7,660,322.4Z" fill="#D4E5D3"/>
        <path class="st9" d="M639.5,322.1C637.5,326.4,637.5,332.5,639.1,337C639.6,338.5,640.7,340.1,642.1,340.8C644,341.7,645,344.4,645,344.9C645,344.9,645.2,342.3,645.2,342.3L643.2,336L646.6,325.6C649.6,326.2,652.8,325.8,655.5,324.3L654.4,326C654.4,326,658.5,325.6,660.1,324.8L659.1,326.3C663.4,325.1,665.6,322,663.3,319.7C659.2,315.6,651.6,314.3,645.9,316.5C643.1,317.6,640.8,319.6,639.5,322.1Z" fill="#009C33"/>
        <path class="st19" d="M643,340C640.7,340,637.3,334.8,639.6,333.2C641.9,331.6,644.1,334.5,644.1,334.5C644.1,334.5,645.3,339.9,643,340Z" fill="#D4E5D3"/>
        <path class="st57" d="M642.9,326.9L638,328.7C636.1,321,639.5,315.6,644.6,313.8C649.7,312,656,310.9,658.9,312.5C661.8,314.1,664.7,323.1,664.7,323.1C654.6,318.8,642.9,326.9,642.9,326.9Z" fill="url(#Gradient-29)"/>
        <path class="st58" d="M642.9,326.9C642.9,326.9,649.2,323.6,656.2,323.2C663.2,322.8,663.8,325.4,663.8,325.4C663.8,325.4,678.9,317.8,668.5,317.3C658.1,316.7,650.3,320.5,644.9,324.2C644,324.8,643.3,325.8,642.9,326.9Z" fill="url(#Gradient-30)"/>
        <path class="st52" d="M686.2,418.2C686.2,418.2,689.1,465.5,693.7,474C698.3,482.5,706.8,477.7,711,466.8C715.2,456,720.4,459.3,720.4,459.3" stroke-width="2" stroke="#009C33" stroke-miterlimit="10" fill="none"/>
        <path class="st19" d="M694.9,421.5C695.1,422,687.7,428.6,686,427.4C685.1,426.8,679,424.7,673.4,422.8C671.6,422.5,635.8,403.8,635.8,403.8C635.8,403.8,632.4,395.6,631.8,393.8C626,378.9,619.9,365.1,623.7,360.5C624.2,359.9,624.9,359.4,625.7,359.2C630,357.9,638.2,366.2,638.2,366.2C642.5,372.6,646.1,392.8,646.8,396.7C650.4,398.7,678.2,414.1,678.3,414.5C679.9,414.4,688,414.2,689.6,414.5C691,414.8,694.7,421,694.9,421.5Z" fill="#D4E5D3"/>
        <path class="st9" d="M754.8,441.7C754.5,446.1,750.4,453.2,744.2,452C741.7,451.5,741.7,425.8,744.9,424.3C751.3,421.5,755,437.5,754.8,441.7Z" fill="#009C33" transform="translate(745.957,425.043) translate(-745.957,-425.043)" style="animation: 12s linear both a6_t;"/>
        <path class="st60" d="M758.5,451.6C754.6,454.1,747.2,452.1,747.2,452.1C746,467.9,758,476.3,756.7,496.1C755.9,508.7,741.6,518.3,744.3,535C744.3,535,710.3,553.5,704.4,523.4C704.4,523.4,704.2,507.4,713,489.2C730.6,446.7,723.4,431.9,730.7,426C737.5,420.5,747.4,424,749.4,426.5C751.3,429,751.4,433.1,752.6,434.7C753.7,436.4,761,437.8,762.1,439.2C763.1,441,760.8,450.2,758.5,451.6Z" fill="url(#Gradient-31)"/>
        <path class="st9" d="M726.9,444.6C727.7,434.9,727,428.1,730.5,425.2C732.8,423.3,735.7,423.3,738.3,423.1C741.2,424.3,744.3,427.2,745.6,433.7C748.4,447.8,731.9,447.7,731.9,447.7C730,446.9,728.4,445.9,726.9,444.6Z" fill="#009C33"/>
        <path class="st9" d="M742.2,553.9L713.5,553.9C713.5,553.9,718.5,530.1,705.3,514.2L705.4,513.4C705.4,513.1,705.5,512.8,705.6,512.4C706.3,513.3,709.4,517.3,719.6,511.7C727.9,507.1,733.3,498.1,743.3,498.3C748.7,498.4,751,500.4,754.6,504.6C752.4,510.6,749,513.7,746.4,520.2C750.2,515.9,753.7,513.4,757.3,517.5C763.4,524.6,742.2,553.9,742.2,553.9Z" fill="#009C33"/>
        <path class="st9" d="M760.1,443.8C761,443.8,762.9,440.6,762.6,439.7C762.3,438.8,756.7,438.6,756.4,439.7C756,440.8,759.2,443.8,760.1,443.8Z" fill="#009C33"/>
        <path class="st9" d="M743,423.5C746,424.1,748.6,425.5,749.4,426.6C751.4,429.1,751.6,433.2,752.8,434.8C747,431.8,745.5,425,743,423.5Z" fill="#009C33"/>
        <path class="st9" d="M713.3,439.1C713.6,443.6,724.4,454.1,731.4,452.8C734.3,452.3,734.3,425.7,730.6,424.3C725.2,422.3,712.9,434.8,713.3,439.1Z" fill="#009C33" transform="translate(730.731,425.252) translate(-730.731,-425.252)" style="animation: 12s linear both a7_t;"/>
        <path class="st61" d="M756.1,485.7C756.1,485.7,755,480.7,745.9,463.5C740.5,453.2,734.1,448.8,734.1,448.8C739.3,450.9,747.2,452.1,747.2,452.1C746.2,464.9,753.8,472.8,756.1,485.7Z" fill="url(#Gradient-32)"/>
        <g transform="translate(709.674,550.696) translate(-29.3174,-41.2269)" style="animation: 12s linear both a8_t;">
            <path class="st59" d="M708.8,548.4C708.8,548.4,693,551.4,686.7,537.6C680.1,523,694.3,510.2,693.3,509.5C692.3,508.8,675.4,520,681.8,538.3C688.1,556.6,707.7,553.9,707.7,553.9L708.8,548.4Z" fill="url(#Gradient-33)" transform="translate(-680.357,-509.469)"/>
            <path class="st9" d="M692,544.6C698,549.4,705.7,548.9,708.1,548.6L708.7,549.1L707.7,554C707.7,553.9,694.6,555.7,692,544.6Z" fill="#009C33" transform="translate(-680.357,-509.469)"/>
            <path class="st9" d="M686.1,546C684.4,544,683.1,541.7,682.1,539.2C683.6,539.3,686.4,540.3,686.1,546Z" fill="#009C33" transform="translate(-680.357,-509.469)"/>
            <path class="st9" d="M686.7,521.1C686.1,522.6,685.6,524.2,685.3,525.8C684.7,525.1,683.7,523.7,684.8,522C685.6,520.9,686.3,520.9,686.7,521.1Z" fill="#009C33" transform="translate(-680.357,-509.469)"/>
        </g>
        <path class="st9" d="M719.1,480.7C718.5,483.1,721.9,488.2,724.9,485.9C730.5,481.5,720.6,475,719.1,480.7Z" fill="#009C33"/>
        <path class="st9" d="M712.9,489.3C713.9,486.9,714.9,484.5,715.7,482.2C717,483.4,719.7,486.6,720.4,493.4C721.4,502.6,709.3,510.7,706.1,509.3C707.6,502.3,709.9,495.6,712.9,489.3Z" fill="#009C33"/>
        <path class="st62" d="M742.2,553.8C742.2,553.8,763.4,524.5,757.2,517.4C748.7,507.7,741.5,534.1,728,534.5C714.6,534.9,708.2,503.6,695.6,514.9C680.2,528.6,707.7,553.8,707.7,553.8L742.2,553.8Z" fill="url(#Gradient-34)"/>
        <path class="st63" d="M747.1,499C747.4,522.8,752.2,553.9,752.2,553.9L756.6,553.9C756.6,553.9,756.6,545.1,756.7,524.7C756.8,504.3,756.7,491.8,756.7,491.8C756.7,491.8,746.9,480.5,747.1,499Z" fill="url(#Gradient-35)"/>
        <path class="st9" d="M748.1,553.9C748.6,552.7,747.8,550.5,741.6,551.1C735.3,551.7,731.9,553.9,731.9,553.9L748.1,553.9Z" fill="#009C33"/>
        <path class="st9" d="M763.3,553.9C763.8,552.7,763,550.5,756.8,551.1C750.5,551.7,752.2,553.9,752.2,553.9L763.3,553.9Z" fill="#009C33"/>
        <path class="st64" d="M727.1,499C727.4,522.8,732.2,553.9,732.2,553.9L736.6,553.9C736.6,553.9,736.6,545.1,736.7,524.7C736.8,504.3,736.7,491.8,736.7,491.8C736.7,491.8,726.8,480.5,727.1,499Z" fill="url(#Gradient-36)"/>
        <path class="st9" d="M723.9,553.9C724.4,552.7,723.6,550.5,717.4,551.1C711.1,551.7,707.7,553.9,707.7,553.9L723.9,553.9Z" fill="#009C33"/>
        <path class="st9" d="M719.7,461.9C727.6,467.6,748.6,467.9,749.3,466C750,464.2,748,461.6,748,461.6C738,466.1,721.6,458.1,721.6,458.1C718,458.6,719.7,461.9,719.7,461.9Z" fill="#009C33"/>
    </g>
    <path fill="url(#Gradient-37)" stroke="none" d="M70,20L567.424,20L637.424,164.679L0,164.679Z" transform="translate(1121.59,116.462) translate(-315.642,-82.3393)"/>
</svg>
