<?xml version="1.0" encoding="UTF-8" standalone="no"?>
<!-- Created with Keyshape -->
<svg xmlns="http://www.w3.org/2000/svg" width="572" height="301" viewBox="0 0 572 301" fill="none">
    <defs>
        <linearGradient id="Gradient-0" x1="159.171" y1="209.611" x2="159.171" y2="54.9765" gradientUnits="userSpaceOnUse">
            <stop offset="0" stop-color="#c8dfc7"/>
            <stop offset="0.17" stop-color="#abd3ad"/>
            <stop offset="0.41" stop-color="#87c58f"/>
            <stop offset="0.63" stop-color="#6eba79"/>
            <stop offset="0.84" stop-color="#5eb46c"/>
            <stop offset="1" stop-color="#59b267"/>
        </linearGradient>
        <linearGradient id="Gradient-1" x1="190455" y1="36508.6" x2="190455" y2="51221.9" gradientUnits="userSpaceOnUse">
            <stop offset="0" stop-color="#c8dfc7"/>
            <stop offset="0.17" stop-color="#abd3ad"/>
            <stop offset="0.41" stop-color="#87c58f"/>
            <stop offset="0.63" stop-color="#6eba79"/>
            <stop offset="0.84" stop-color="#5eb46c"/>
            <stop offset="1" stop-color="#59b267"/>
        </linearGradient>
        <linearGradient id="Gradient-2" x1="159.167" y1="282.721" x2="159.167" y2="219.509" gradientUnits="userSpaceOnUse">
            <stop offset="0" stop-color="#c8dfc7"/>
            <stop offset="0.02" stop-color="#c2dcc2"/>
            <stop offset="0.21" stop-color="#8bc298"/>
            <stop offset="0.39" stop-color="#5dad74"/>
            <stop offset="0.57" stop-color="#399d59"/>
            <stop offset="0.73" stop-color="#209145"/>
            <stop offset="0.88" stop-color="#108a39"/>
            <stop offset="1" stop-color="#0b8735"/>
        </linearGradient>
        <clipPath id="ClipPath-1">
            <path d="M15.0664,294.26C15.0664,297.983,18.4214,301,22.5591,301L45.968,301C50.1057,301,53.4607,297.983,53.4607,294.26L53.4607,229.644C53.4607,225.921,50.1057,222.9,45.968,222.9L22.5591,222.9C18.4214,222.9,15.0664,225.921,15.0664,229.644L15.0664,294.26Z" fill="#0B8735" transform="translate(-22.8072,-42.4051)"/>
        </clipPath>
        <clipPath id="ClipPath-2">
            <path d="M15.0664,294.26C15.0664,297.983,18.4214,301,22.5591,301L45.968,301C50.1057,301,53.4607,297.983,53.4607,294.26L53.4607,229.644C53.4607,225.921,50.1057,222.9,45.968,222.9L22.5591,222.9C18.4214,222.9,15.0664,225.921,15.0664,229.644L15.0664,294.26Z" fill="#0B8735" transform="translate(-22.8072,-42.4051)"/>
        </clipPath>
        <clipPath id="ClipPath-3">
            <path d="M274.968,143.392C273.635,139.233,260.837,109.875,257.105,102.916C253.374,95.9561,248.305,93.5615,244.574,93.5615L73.7647,93.5615C70.0332,93.5615,64.969,95.9646,61.2332,102.92C57.4974,109.875,44.7035,139.254,43.3666,143.392C42.0297,147.529,44.1662,149.471,47.6355,149.471L270.703,149.471C274.168,149.471,276.3,147.55,274.968,143.392Z" fill="#E6F5EB" transform="translate(167.222,7.69024)"/>
        </clipPath>
    </defs>
    <style>
@keyframes a0_t { 0% { transform: translate(0px,0px); } 65% { transform: translate(0px,172.419px); } 100% { transform: translate(0px,172.419px); } }
@keyframes a1_t { 0% { transform: translate(0px,0px); } 65% { transform: translate(0px,172.419px); } 100% { transform: translate(0px,172.419px); } }
@keyframes car-top_t { 0% { transform: translate(0px,0px); animation-timing-function: cubic-bezier(0.42,0,0.58,1); } 5% { transform: translate(0px,2.8005px); animation-timing-function: cubic-bezier(0.42,0,0.58,1); } 10% { transform: translate(0px,0px); animation-timing-function: cubic-bezier(0.42,0,0.58,1); } 15% { transform: translate(0px,2.8005px); animation-timing-function: cubic-bezier(0.42,0,0.58,1); } 20% { transform: translate(0px,0px); animation-timing-function: cubic-bezier(0.42,0,0.58,1); } 25% { transform: translate(0px,2.8005px); } 30% { transform: translate(0px,0px); animation-timing-function: cubic-bezier(0.42,0,0.58,1); } 35% { transform: translate(0px,2.8005px); animation-timing-function: cubic-bezier(0.42,0,0.58,1); } 40% { transform: translate(0px,0px); animation-timing-function: cubic-bezier(0.42,0,0.58,1); } 45% { transform: translate(0px,2.8005px); animation-timing-function: cubic-bezier(0.42,0,0.58,1); } 50% { transform: translate(0px,0px); animation-timing-function: cubic-bezier(0.42,0,0.58,1); } 55% { transform: translate(0px,2.8005px); } 60% { transform: translate(0px,0px); animation-timing-function: cubic-bezier(0.42,0,0.58,1); } 75% { transform: translate(0px,11.229px); animation-timing-function: cubic-bezier(0.42,0,0.58,1); } 87.5% { transform: translate(0px,0px); animation-timing-function: cubic-bezier(0.42,0,0.58,1); } 92.5% { transform: translate(0px,0px); } 100% { transform: translate(0px,0px); } }
@keyframes a2_t { 0% { transform: translate(116.513px,140.921px) rotate(-30deg) translate(-60.8855px,-127.569px); animation-timing-function: cubic-bezier(0.42,0,0.58,1); } 50% { transform: translate(526.513px,140.921px) rotate(-30deg) translate(-60.8855px,-127.569px); } 100% { transform: translate(526.513px,140.921px) rotate(-30deg) translate(-60.8855px,-127.569px); } }
@keyframes crack_t { 0% { transform: translate(198.704px,52.4018px) scale(0,0) translate(-51.194px,-29.4942px); } 45% { transform: translate(198.704px,52.4018px) scale(0,0) translate(-51.194px,-29.4942px); animation-timing-function: cubic-bezier(0.42,0,0.58,1); } 57.4999% { transform: translate(198.704px,52.4018px) scale(1,1) translate(-51.194px,-29.4942px); } 100% { transform: translate(198.704px,52.4018px) scale(1,1) translate(-51.194px,-29.4942px); } }
@keyframes a3_o { 0% { opacity: 0; } 25% { opacity: 0; } 30% { opacity: 1; } 55% { opacity: 1; } 62.5% { opacity: 0; } 100% { opacity: 0; } }
@keyframes a3_mo { 0% { offset-distance: 0%; } 25% { offset-distance: 0%; animation-timing-function: cubic-bezier(0.42,0,0.58,1); } 50% { offset-distance: 67.75%; animation-timing-function: cubic-bezier(0.42,0,0.58,1); } 62.5% { offset-distance: 100%; } 100% { offset-distance: 100%; } }
@keyframes a4_t { 0% { transform: translate(406.5px,156.5px) scale(0,0) translate(-69.5px,-69.5px); } 62.5% { transform: translate(406.5px,156.5px) scale(0,0) translate(-69.5px,-69.5px); animation-timing-function: cubic-bezier(0.42,0,0.58,1); } 75% { transform: translate(406.5px,156.5px) scale(1,1) translate(-69.5px,-69.5px); } 100% { transform: translate(406.5px,156.5px) scale(1,1) translate(-69.5px,-69.5px); } }
@keyframes a5_da { 0% { stroke-dasharray: 0px 349.81px; } 25% { stroke-dasharray: 0px 349.81px; animation-timing-function: cubic-bezier(0.42,0,0.58,1); } 50% { stroke-dasharray: 349.81px 349.81px; } 100% { stroke-dasharray: 349.81px 349.81px; } }
@keyframes a5_do { 0% { stroke-dashoffset: 0px; } 50% { stroke-dashoffset: 0px; animation-timing-function: cubic-bezier(0.42,0,0.58,1); } 62.5% { stroke-dashoffset: -349.81px; } 100% { stroke-dashoffset: -349.81px; } }
    </style>
    <g id="car" transform="translate(159.175,191) translate(-159.175,-110)">
        <path d="M264.883,294.26C264.883,297.983,268.234,301,272.371,301L295.78,301C299.918,301,303.273,297.983,303.273,294.26L303.273,229.644C303.273,225.921,299.918,222.9,295.78,222.9L272.371,222.9C268.234,222.9,264.883,225.921,264.883,229.644L264.883,294.26Z" fill="#0B8735" transform="translate(-1.70077e-08,-81)"/>
        <path d="M15.0664,294.26C15.0664,297.983,18.4214,301,22.5591,301L45.968,301C50.1057,301,53.4607,297.983,53.4607,294.26L53.4607,229.644C53.4607,225.921,50.1057,222.9,45.968,222.9L22.5591,222.9C18.4214,222.9,15.0664,225.921,15.0664,229.644L15.0664,294.26Z" fill="#0B8735" transform="translate(-1.70077e-08,-81)"/>
        <g id="grooves" clip-path="url(#ClipPath-1)" transform="translate(33.4365,90.6876) translate(-10.6292,-129.283)">
            <g transform="translate(10.6292,129.283) translate(-10.6292,-129.283)" style="animation: 4s linear both a0_t;">
                <path class="st0" d="M8.25114,141.735C8.25114,148.905,0.5,148.905,0.5,156.075C0.5,163.244,8.25114,163.244,8.25114,170.414C8.25114,177.584,0.5,177.584,0.5,184.818C0.5,191.988,8.25114,191.988,8.25114,199.158C8.25114,206.328,0.5,206.328,0.5,213.498C0.5,220.667,8.25114,220.667,8.25114,227.837C8.25114,235.007,0.5,235.007,0.5,242.177C0.5,249.347,8.25114,249.347,8.25114,256.516C8.25114,263.686,0.5,263.686,0.5,270.856C0.5,278.026,8.25114,278.026,8.25114,285.196C8.25114,292.365,0.5,292.365,0.5,299.535C0.5,306.705,8.25114,306.705,8.25114,313.875C8.25114,321.045,0.5,321.045,0.5,328.279C0.5,335.449,8.25114,335.449,8.25114,342.683C8.25114,349.853,0.5,349.853,0.5,357.087C0.5,364.257,8.25114,364.257,8.25114,371.492C8.25114,378.661,0.5,378.661,0.5,385.896C0.5,393.13,8.25114,393.066,8.25114,400.3" stroke="#ffffff" stroke-miterlimit="10" fill="none" transform="translate(-0.5,-141.735)"/>
                <path class="st0" d="M8.25114,141.735C8.25114,148.905,0.5,148.905,0.5,156.075C0.5,163.244,8.25114,163.244,8.25114,170.414C8.25114,177.584,0.5,177.584,0.5,184.818C0.5,191.988,8.25114,191.988,8.25114,199.158C8.25114,206.328,0.5,206.328,0.5,213.498C0.5,220.667,8.25114,220.667,8.25114,227.837C8.25114,235.007,0.5,235.007,0.5,242.177C0.5,249.347,8.25114,249.347,8.25114,256.516C8.25114,263.686,0.5,263.686,0.5,270.856C0.5,278.026,8.25114,278.026,8.25114,285.196C8.25114,292.365,0.5,292.365,0.5,299.535C0.5,306.705,8.25114,306.705,8.25114,313.875C8.25114,321.045,0.5,321.045,0.5,328.279C0.5,335.449,8.25114,335.449,8.25114,342.683C8.25114,349.853,0.5,349.853,0.5,357.087C0.5,364.257,8.25114,364.257,8.25114,371.492C8.25114,378.661,0.5,378.661,0.5,385.896C0.5,393.13,8.25114,393.066,8.25114,400.3" stroke="#ffffff" stroke-miterlimit="10" fill="none" transform="translate(13.0073,-141.735)"/>
            </g>
        </g>
        <g id="grooves-2" clip-path="url(#ClipPath-2)" transform="translate(282.937,90.6876) translate(-10.6292,-129.283)">
            <g transform="translate(10.6292,129.283) translate(-10.6292,-129.283)" style="animation: 4s linear both a1_t;">
                <path class="st0" d="M8.25114,141.735C8.25114,148.905,0.5,148.905,0.5,156.075C0.5,163.244,8.25114,163.244,8.25114,170.414C8.25114,177.584,0.5,177.584,0.5,184.818C0.5,191.988,8.25114,191.988,8.25114,199.158C8.25114,206.328,0.5,206.328,0.5,213.498C0.5,220.667,8.25114,220.667,8.25114,227.837C8.25114,235.007,0.5,235.007,0.5,242.177C0.5,249.347,8.25114,249.347,8.25114,256.516C8.25114,263.686,0.5,263.686,0.5,270.856C0.5,278.026,8.25114,278.026,8.25114,285.196C8.25114,292.365,0.5,292.365,0.5,299.535C0.5,306.705,8.25114,306.705,8.25114,313.875C8.25114,321.045,0.5,321.045,0.5,328.279C0.5,335.449,8.25114,335.449,8.25114,342.683C8.25114,349.853,0.5,349.853,0.5,357.087C0.5,364.257,8.25114,364.257,8.25114,371.492C8.25114,378.661,0.5,378.661,0.5,385.896C0.5,393.13,8.25114,393.066,8.25114,400.3" stroke="#ffffff" stroke-miterlimit="10" fill="none" transform="translate(-0.5,-141.735)"/>
                <path class="st0" d="M8.25114,141.735C8.25114,148.905,0.5,148.905,0.5,156.075C0.5,163.244,8.25114,163.244,8.25114,170.414C8.25114,177.584,0.5,177.584,0.5,184.818C0.5,191.988,8.25114,191.988,8.25114,199.158C8.25114,206.328,0.5,206.328,0.5,213.498C0.5,220.667,8.25114,220.667,8.25114,227.837C8.25114,235.007,0.5,235.007,0.5,242.177C0.5,249.347,8.25114,249.347,8.25114,256.516C8.25114,263.686,0.5,263.686,0.5,270.856C0.5,278.026,8.25114,278.026,8.25114,285.196C8.25114,292.365,0.5,292.365,0.5,299.535C0.5,306.705,8.25114,306.705,8.25114,313.875C8.25114,321.045,0.5,321.045,0.5,328.279C0.5,335.449,8.25114,335.449,8.25114,342.683C8.25114,349.853,0.5,349.853,0.5,357.087C0.5,364.257,8.25114,364.257,8.25114,371.492C8.25114,378.661,0.5,378.661,0.5,385.896C0.5,393.13,8.25114,393.066,8.25114,400.3" stroke="#ffffff" stroke-miterlimit="10" fill="none" transform="translate(13.0073,-141.735)"/>
            </g>
        </g>
        <g id="car-top" transform="translate(159.175,94.704) translate(-159.175,-94.704)" style="animation: 4s linear both car-top_t;">
            <path d="M289.206,147.96C289.206,149.788,287.413,152.669,284.925,153.151L287.59,157.551C287.59,157.551,289.887,154.052,295.493,155.563L297.896,155.563L297.896,147.947L289.206,147.96Z" fill="#1D883B" transform="translate(-1.70077e-08,-81)"/>
            <path d="M318.345,147.193C318.561,151.065,312.49,154.809,306.444,156.188C297.559,158.215,289.098,154.403,289.098,146.491C289.098,138.812,295.021,134.839,303.715,137.116C309.714,138.681,318.133,143.377,318.345,147.193Z" fill="#1D883B" transform="translate(-1.70077e-08,-81)"/>
            <path d="M29.1298,147.96C29.1298,149.788,30.9236,152.669,33.4113,153.151L30.746,157.551C30.746,157.551,28.4486,154.052,22.8429,155.563L20.4355,155.563L20.4355,147.947L29.1298,147.96Z" fill="#1D883B" transform="translate(-1.70077e-08,-81)"/>
            <path d="M0.00558628,147.193C-0.210183,151.065,5.86098,154.809,11.9068,156.188C20.7914,158.215,29.2529,154.403,29.2529,146.491C29.2529,138.812,23.3087,134.839,14.6356,137.116C8.63636,138.681,0.212894,143.377,0.00558628,147.193Z" fill="#1D883B" transform="translate(-1.70077e-08,-81)"/>
            <path d="M300.56,179.467C298.96,169.867,290.698,159.07,286.175,150.909C281.652,142.748,264.937,104.371,260.85,97.6396C256.763,90.9085,248.052,84.08,237.386,82.6415C226.72,81.2031,179.598,81,159.171,81C138.745,81,91.6271,81.1988,80.9655,82.6415C70.304,84.0842,61.5928,90.9212,57.5016,97.6396C53.4105,104.358,36.7074,142.752,32.1762,150.909C27.6451,159.066,19.3781,169.867,17.7916,179.467C16.205,189.067,16.7127,245.937,19.3781,255.295C22.0435,264.654,31.9097,270.408,39.6393,270.408L278.699,270.408C286.429,270.408,296.295,264.649,298.96,255.291C301.626,245.933,302.159,189.067,300.56,179.467Z" fill="url(#Gradient-0)" transform="translate(-1.70077e-08,-81)"/>
            <path d="M16.9912,218.187C17.2704,234.53,18.0616,250.683,19.3774,255.295C22.0428,264.653,31.9089,270.407,39.6386,270.407L278.699,270.407C286.428,270.407,296.294,264.649,298.96,255.291C300.275,250.679,301.075,234.526,301.346,218.183L16.9912,218.187Z" fill="url(#Gradient-1)" transform="translate(-1.70077e-08,-81)"/>
            <path d="M271.676,140.522C271.676,140.522,286.607,160.856,288.561,165.966C290.516,171.077,290.783,175.697,285.177,178.037C279.571,180.376,237.454,189.794,227.854,189.794L90.4723,189.794C80.8769,189.794,38.7511,180.355,33.1537,178.037C27.5564,175.718,27.8187,171.077,29.7691,165.966C31.7195,160.856,46.6626,140.522,46.6626,140.522" stroke="#1D883B" stroke-miterlimit="10" transform="translate(-1.70077e-08,-81)"/>
            <path d="M286.844,253.398C288.367,256.753,286.509,259.537,282.664,259.537L35.6708,259.537C31.825,259.537,29.9677,256.753,31.4908,253.398L36.8554,241.573C38.222,238.569,42.1693,236.174,45.702,236.174L272.632,236.174C276.165,236.174,280.117,238.569,281.479,241.573L286.844,253.398Z" fill="url(#Gradient-2)" transform="translate(-1.70077e-08,-81)"/>
            <path d="M215.958,199.388C214.358,195.068,207.428,191.717,200.494,191.717L117.829,191.717C110.899,191.717,103.965,195.077,102.366,199.396C100.766,203.716,107.98,221.485,110.637,224.717C113.294,227.95,116.234,228.745,124.763,228.745L193.56,228.745C202.089,228.745,205.021,227.945,207.691,224.717C210.36,221.489,217.557,203.707,215.958,199.388Z" fill="#D4E5D3" transform="translate(-1.70077e-08,-81)"/>
            <path d="M274.968,143.392C273.635,139.233,260.837,109.875,257.105,102.916C253.374,95.9561,248.305,93.5615,244.574,93.5615L73.7647,93.5615C70.0332,93.5615,64.969,95.9646,61.2332,102.92C57.4974,109.875,44.7035,139.254,43.3666,143.392C42.0297,147.529,44.1662,149.471,47.6355,149.471L270.703,149.471C274.168,149.471,276.3,147.55,274.968,143.392Z" fill="#E6F5EB" transform="translate(-1.70077e-08,-81)"/>
            <g id="shine" clip-path="url(#ClipPath-3)" transform="translate(-50.7086,52.2309) translate(-116.513,-140.921)">
                <path fill="#ffffff" stroke="none" d="M0,0L28.9931,0L28.9931,255.139L0,255.139ZM39.6239,0L50.2547,0L50.2547,255.139L39.6239,255.139ZM121.771,0L94.7108,0L94.7108,255.139L121.771,255.139Z" fill-rule="evenodd" transform="translate(116.513,140.921) rotate(-30) translate(-60.8855,-127.569)" style="animation: 4s linear both a2_t;"/>
            </g>
            <g id="crack" fill="none" transform="translate(198.704,52.4018) scale(0,0) translate(-51.194,-29.4942)" style="animation: 4s linear both crack_t;">
                <path d="M156.784,96.167C156.784,96.167,162.424,107.167,164.683,107.446C166.942,107.725,170.885,110.268,170.885,110.268L177.655,110.268L184.991,115.345L198.669,120.562C198.669,120.562,205.294,126.629,205.155,127.052C205.015,127.475,210.799,129.023,210.799,129.023L214.606,123.946L226.592,122.537L226.592,117.46L221.092,117.321L230.56,107.73L241.116,102.936L244.078,99.2681" stroke="#1D883B" stroke-miterlimit="10" transform="translate(-156.784,-96.167)"/>
                <path d="M204.025,123.523L200.428,126.485C200.428,126.485,203.107,132.129,202.227,132.129C201.347,132.129,196.126,134.667,196.126,134.667L188.933,134.667L180.049,138.615" stroke="#1D883B" stroke-miterlimit="10" transform="translate(-156.784,-96.167)"/>
                <path d="M200.428,129.024C199.226,129.307,192.034,126.769,192.034,126.769L188.37,124.514L183.149,127.898L179.062,126.781" stroke="#1D883B" stroke-miterlimit="10" transform="translate(-156.784,-96.167)"/>
                <path d="M209.102,123.523L218.689,126.781L225.602,132.129L228.419,127.826L235.755,126.781L244.073,129.049L248.587,135.37L251.02,127.754" stroke="#1D883B" stroke-miterlimit="10" transform="translate(-156.784,-96.167)"/>
                <path d="M202.825,124.52L203.248,121.52L205.63,120.941L206.527,119.193C206.527,119.193,208.943,121.072,209.112,121.072C209.281,121.072,212.319,121.855,212.319,121.855L214.409,123.124L214.612,123.97L210.944,129.47L208.114,129.47L205.575,128.07L204.035,127.355L203.612,126.06L202.825,124.52Z" fill="#1D883B" transform="translate(-156.784,-96.167)"/>
            </g>
            <path d="M230.557,191.715C230.557,191.715,242.289,204.911,248.157,204.911L282.003,204.911C287.334,204.911,288.666,202.034,289.733,199.411C290.799,196.788,291.332,182.851,289.733,178.054C289.745,178.028,266.019,186.905,230.557,191.715Z" fill="white" transform="translate(-1.70077e-08,-81)"/>
            <path d="M87.7893,191.715C87.7893,191.715,76.0616,204.911,70.1935,204.911L36.3473,204.911C31.0166,204.911,29.6839,202.034,28.6177,199.411C27.5516,196.788,27.0185,182.851,28.6177,178.054C28.5923,178.028,52.3185,186.905,87.7893,191.715Z" fill="white" transform="translate(-1.70077e-08,-81)"/>
        </g>
    </g>
    <g opacity="0" style="transform: translate(-6.72805px,-6.8088px); animation: 4s linear both a3_o, 4s linear both a3_mo; offset-path: path('M537.585,53.4908L537.585,53.4908C425.794,49.5441,314.022,41.357,201.814,129.359C163.846,95.0021,111.458,78.0841,45.8943,77.1L45.8943,77.1'); offset-rotate: 0deg;">
        <path d="M323.974,2.48231C322.857,2.23408,320.623,0,320.623,0C320.623,0,320.757,4.21993,319.729,5.08874C318.702,5.95755,316.587,7.75971,318.076,8.5044C319.566,9.24909,320.127,9.5569,320.127,9.5569L321.492,9.00086L322.361,10.8626L324.222,10.1775C324.222,10.1775,326.456,11.5427,326.456,9.68101C326.456,7.81928,325.091,2.73054,323.974,2.48231Z" fill="#1D883B" transform="translate(-313,0)"/>
        <path d="M321.492,9.02528L320.127,9.58131C320.127,9.58131,319.566,9.27351,318.076,8.52882C316.587,7.78412,318.697,5.98196,319.729,5.11315C320.762,4.24434,320.623,0.0244141,320.623,0.0244141L315.162,6.72666C315.162,6.72666,311.687,10.0778,313.548,11.443C315.41,12.8083,319.119,13.553,318.816,13.553C318.513,13.553,322.42,13.6176,322.42,13.6176L324.222,10.2019L322.361,10.887L321.492,9.02528Z" fill="#59B267" transform="translate(-313,0)"/>
    </g>
    <g transform="translate(406.5,156.5) scale(0,0) translate(-69.5,-69.5)" style="animation: 4s linear both a4_t;">
        <path d="M406.5,87L415.766,95.2445L427.043,90.105L433.474,100.722L445.761,99.1442L448.785,111.19L460.99,113.314L460.339,125.719L471.377,131.357L467.109,143.018L476,151.667L468.494,161.549L474.448,172.442L464.37,179.666L466.858,191.835L455.105,195.76L453.905,208.124L441.52,208.4L436.74,219.859L424.824,216.463L416.888,226L406.5,219.232L396.113,226L388.176,216.463L376.261,219.859L371.48,208.4L359.095,208.124L357.895,195.76L346.142,191.835L348.63,179.666L338.553,172.442L344.506,161.549L337,151.667L345.891,143.018L341.623,131.357L352.661,125.719L352.01,113.314L364.215,111.19L367.24,99.1442L379.526,100.722L385.957,90.105L397.234,95.2445L406.5,87Z" fill="#FF9632" transform="translate(-337,-87)"/>
        <path d="M390.66,126L391.86,126L391.892,124.848C392.436,125.792,392.996,126.16,393.924,126.16C395.62,126.16,396.644,124.624,396.644,122.064C396.644,119.568,395.636,118.048,393.972,118.048C393.124,118.048,392.532,118.4,392.004,119.248L391.972,119.296L391.924,119.344L391.924,114.464L390.66,114.464L390.66,126ZM393.684,119.088C394.692,119.088,395.332,120.304,395.332,122.224C395.332,123.968,394.676,125.12,393.684,125.12C392.628,125.12,391.924,123.888,391.924,122.096C391.924,120.352,392.676,119.088,393.684,119.088ZM399.524,114.944L398.212,114.944L398.212,116.416L399.524,116.416L399.524,114.944ZM399.524,118.208L398.212,118.208L398.212,126L399.524,126L399.524,118.208ZM405.283,118.384C404.515,118.128,404.083,118.048,403.523,118.048C402.131,118.048,401.219,118.896,401.219,120.192C401.219,121.152,401.635,121.696,402.899,122.368C404.019,122.96,404.323,123.296,404.323,123.92C404.323,124.656,403.795,125.104,402.947,125.104C402.371,125.104,402.035,124.992,401.251,124.512L401.139,125.664C401.827,126.016,402.419,126.16,403.075,126.16C404.659,126.16,405.651,125.28,405.651,123.888C405.651,122.848,405.139,122.176,403.859,121.536C402.819,121.024,402.499,120.704,402.499,120.128C402.499,119.472,402.914,119.104,403.683,119.104C404.195,119.104,404.562,119.184,405.187,119.456L405.283,118.384ZM415.235,118.208L410.435,118.208L410.435,119.232L413.827,119.232L410.291,124.976L410.291,126L415.283,126L415.283,124.976L411.747,124.976L415.235,119.296L415.235,118.208ZM422.197,118.208L420.901,118.208L420.901,121.968C420.901,124.208,420.469,125.024,419.317,125.024C418.837,125.024,418.517,124.848,418.325,124.496C418.085,124.08,418.037,123.616,418.037,122L418.037,118.208L416.741,118.208L416.741,122.224C416.741,124.16,416.805,124.56,417.173,125.216C417.525,125.84,418.133,126.16,418.933,126.16C419.909,126.16,420.501,125.792,421.029,124.88L421.093,126L422.293,126C422.245,125.68,422.213,124.992,422.197,123.088L422.197,118.208ZM382.901,137.369C381.578,136.937,380.795,136.802,379.769,136.802C375.53,136.802,373.235,140.339,373.235,146.927C373.235,152.462,375.044,155.27,378.581,155.27C381.713,155.27,383.738,152.948,383.738,149.303C383.738,145.874,381.821,143.498,379.04,143.498C377.393,143.498,376.367,144.146,375.449,145.739C375.638,142.823,375.962,141.608,376.88,140.258C377.582,139.259,378.689,138.665,379.877,138.665C380.741,138.665,381.443,138.827,382.712,139.367L382.901,137.369ZM378.554,145.334C380.201,145.334,381.443,147.035,381.443,149.33C381.443,151.733,380.228,153.488,378.527,153.488C376.853,153.488,375.665,151.733,375.665,149.276C375.665,146.954,376.853,145.334,378.554,145.334ZM386.411,140.285C387.788,139.232,388.895,138.746,389.975,138.746C391.298,138.746,392.297,139.988,392.297,141.554C392.297,143.012,391.973,144.119,390.974,145.901C389.894,147.872,388.031,150.572,386.843,151.895L385.763,153.083L385.763,155L395.213,155L395.213,153.137L388.436,153.137C389.651,151.922,390.11,151.328,391.325,149.519C394.133,145.253,394.781,143.741,394.781,141.473C394.781,138.557,392.999,136.721,390.191,136.721C388.895,136.721,388.031,136.991,386.141,138.017L386.411,140.285ZM403.07,136.721C401.288,136.721,399.803,137.747,398.912,139.61C398.21,141.068,397.859,143.201,397.859,146.063C397.859,149.222,398.264,151.328,399.182,152.894C400.073,154.46,401.423,155.27,403.151,155.27C405.068,155.27,406.526,154.271,407.444,152.327C408.119,150.869,408.443,148.844,408.443,145.982C408.443,139.772,406.661,136.721,403.07,136.721ZM403.151,138.557C405.095,138.557,406.094,141.068,406.094,145.928C406.094,150.923,405.095,153.434,403.151,153.434C401.18,153.434,400.208,150.95,400.208,145.982C400.208,141.014,401.18,138.557,403.151,138.557ZM416.26,143.093L415.801,144.902L417.34,144.902C417.313,145.388,417.313,145.685,417.313,145.955C417.313,146.225,417.313,146.414,417.34,146.792L416.26,146.792L415.801,148.601L417.583,148.601C418.555,153.056,421.12,155.27,425.278,155.27C425.953,155.27,426.412,155.216,427.033,155.081L427.033,152.975C426.385,153.191,425.98,153.245,425.332,153.245C422.659,153.245,420.634,151.436,420.067,148.601L424.738,148.601L425.197,146.792L419.743,146.792L419.743,146.036L419.77,144.902L425.656,144.902L426.115,143.093L420.121,143.093C420.985,140.204,422.74,138.692,425.251,138.692C425.899,138.692,426.277,138.746,427.033,138.989L427.519,137.099C426.574,136.802,426.088,136.721,425.17,136.721C422.362,136.721,420.175,137.882,418.798,140.042C418.258,140.906,417.934,141.716,417.637,143.093L416.26,143.093ZM437.915,138.962L435.08,140.285L435.242,136.721L433.352,136.721L433.541,140.285L430.679,138.962L430.139,140.609L433.244,141.635L431.192,144.47L432.65,145.55L434.297,142.634L435.89,145.55L437.402,144.47L435.35,141.635L438.455,140.609L437.915,138.962ZM378.725,166.568C378.149,166.328,377.493,166.216,376.805,166.216C374.965,166.216,373.829,167.272,373.829,168.952C373.829,170.312,374.261,170.888,376.181,172.088C377.509,172.92,377.829,173.32,377.829,174.2C377.829,175.24,377.077,175.944,375.973,175.944C375.381,175.944,374.661,175.704,373.909,175.256L373.909,176.648C374.533,176.936,375.333,177.112,376.117,177.112C378.037,177.112,379.237,175.944,379.237,174.088C379.237,172.744,378.661,171.928,377.045,170.968C375.573,170.088,375.237,169.72,375.237,168.984C375.237,168.024,375.909,167.384,376.917,167.384C377.605,167.384,378.133,167.528,378.725,167.864L378.725,166.568ZM385.41,169.384C384.754,169.128,384.338,169.048,383.794,169.048C381.794,169.048,380.498,170.632,380.498,173.096C380.498,175.512,381.778,177.16,383.682,177.16C384.274,177.16,384.818,177.048,385.41,176.792L385.362,175.624C384.754,175.96,384.386,176.072,383.874,176.072C382.642,176.072,381.842,174.888,381.842,173.064C381.842,172.2,382.098,171.288,382.466,170.808C382.818,170.376,383.33,170.136,383.938,170.136C384.29,170.136,384.642,170.216,384.962,170.376C385.058,170.408,385.17,170.456,385.266,170.504L385.362,170.536L385.41,169.384ZM392.323,177L392.323,173.08C392.323,171.064,392.275,170.664,391.891,170.008C391.539,169.368,390.931,169.048,390.083,169.048C389.187,169.048,388.659,169.352,388.083,170.232L388.083,165.464L386.787,165.464L386.787,177L388.083,177L388.083,173.512C388.083,172.168,388.195,171.464,388.483,170.968C388.787,170.456,389.235,170.184,389.763,170.184C390.195,170.184,390.531,170.376,390.723,170.744C390.979,171.192,391.027,171.64,391.027,173.32L391.027,177L392.323,177ZM394.579,170.888C395.443,170.296,395.971,170.088,396.643,170.088C397.555,170.088,398.083,170.744,398.083,171.928L398.083,172.296C397.763,172.264,397.763,172.264,397.347,172.264C396.067,172.264,395.027,172.584,394.467,173.16C394.051,173.576,393.827,174.152,393.827,174.872C393.827,176.264,394.707,177.16,396.067,177.16C397.011,177.16,397.539,176.84,398.083,175.944C398.083,176.344,398.099,176.568,398.147,177L399.411,177C399.331,176.008,399.299,175.208,399.299,174.104L399.299,172.68C399.299,171.272,399.203,170.648,398.915,170.12C398.547,169.432,397.747,169.048,396.707,169.048C395.859,169.048,395.267,169.224,394.435,169.752L394.579,170.888ZM398.083,173.144L398.083,173.64C398.083,175.192,397.411,176.184,396.371,176.184C395.603,176.184,395.107,175.64,395.107,174.808C395.107,174.424,395.219,174.056,395.459,173.784C395.779,173.384,396.531,173.144,397.507,173.144L398.083,173.144ZM406.809,165.464L405.513,165.464L405.513,170.296C404.937,169.384,404.425,169.048,403.545,169.048C401.865,169.048,400.825,170.616,400.825,173.112C400.825,175.64,401.865,177.16,403.593,177.16C404.505,177.16,404.953,176.872,405.593,175.848L405.673,177L406.889,177C406.825,175.992,406.809,175.368,406.809,174.28L406.809,165.464ZM403.785,170.088C404.793,170.088,405.529,171.384,405.529,173.144C405.529,174.904,404.825,176.12,403.801,176.12C402.809,176.12,402.169,174.92,402.169,173.08C402.169,171.256,402.809,170.088,403.785,170.088ZM413.881,173.432C413.897,173.304,413.897,173.128,413.897,172.904C413.897,170.52,412.841,169.048,411.129,169.048C409.289,169.048,408.169,170.584,408.169,173.064C408.169,175.72,409.337,177.16,411.481,177.16C412.201,177.16,412.697,177.032,413.449,176.68L413.385,175.448C412.729,175.928,412.169,176.136,411.465,176.136C410.793,176.136,410.249,175.784,409.849,175.08C409.625,174.664,409.529,174.28,409.465,173.432L413.881,173.432ZM409.465,172.472C409.657,170.76,410.169,170.024,411.129,170.024C412.089,170.024,412.521,170.744,412.617,172.472L409.465,172.472ZM420.838,177L420.838,172.936C420.838,171.4,420.774,170.888,420.534,170.328C420.15,169.464,419.51,169.048,418.598,169.048C417.654,169.048,417.078,169.416,416.518,170.344L416.518,169.208L415.238,169.208C415.302,169.944,415.318,170.712,415.318,172.104L415.318,177L416.63,177L416.63,173.176C416.63,172.072,416.726,171.496,417.03,170.968C417.302,170.472,417.75,170.184,418.278,170.184C418.726,170.184,419.046,170.36,419.238,170.712C419.478,171.144,419.542,171.704,419.542,173.096L419.542,177L420.838,177ZM427.789,165.944L426.478,165.944L426.478,167.416L427.789,167.416L427.789,165.944ZM427.789,169.208L426.478,169.208L426.478,177L427.789,177L427.789,169.208ZM431.02,169.208L429.756,169.208C429.82,170.44,429.836,171.208,429.836,172.472L429.836,177L431.148,177L431.148,173.16C431.148,171.992,431.244,171.4,431.5,170.888C431.74,170.456,432.156,170.184,432.604,170.184C432.956,170.184,433.244,170.344,433.404,170.632C433.676,171.128,433.724,171.56,433.724,173.192L433.724,177L435.02,177L435.02,173.336C435.02,171.96,435.1,171.416,435.388,170.872C435.628,170.44,436.044,170.184,436.508,170.184C436.892,170.184,437.18,170.344,437.34,170.632C437.564,171.048,437.612,171.496,437.612,173.016L437.612,177L438.908,177L438.908,172.76C438.908,171.096,438.828,170.568,438.476,169.944C438.14,169.368,437.548,169.048,436.828,169.048C435.9,169.048,435.308,169.448,434.78,170.456C434.396,169.464,433.852,169.048,432.972,169.048C432.188,169.048,431.628,169.416,431.02,170.312L431.02,169.208ZM371.237,184.328L371.237,195L373.141,195C374.741,195,375.829,194.68,376.645,193.976C377.701,193.08,378.277,191.544,378.277,189.656C378.277,188.088,377.861,186.712,377.109,185.784C376.245,184.712,375.157,184.328,372.981,184.328L371.237,184.328ZM372.597,185.416L373.189,185.416C374.309,185.416,375.029,185.624,375.541,186.088C376.309,186.792,376.853,188.312,376.853,189.768C376.853,191,376.469,192.136,375.781,192.92C375.157,193.608,374.373,193.912,373.189,193.912L372.597,193.912L372.597,185.416ZM385.282,187.208L383.986,187.208L383.986,190.968C383.986,193.208,383.554,194.024,382.402,194.024C381.922,194.024,381.602,193.848,381.41,193.496C381.17,193.08,381.122,192.616,381.122,191L381.122,187.208L379.826,187.208L379.826,191.224C379.826,193.16,379.89,193.56,380.258,194.216C380.61,194.84,381.218,195.16,382.018,195.16C382.994,195.16,383.586,194.792,384.114,193.88L384.178,195L385.378,195C385.33,194.68,385.298,193.992,385.282,192.088L385.282,187.208ZM390.626,187.128C390.498,187.112,390.402,187.112,390.29,187.112C389.314,187.112,388.882,187.448,388.354,188.584L388.354,187.208L387.122,187.208C387.186,188.312,387.202,189.192,387.202,190.056L387.202,195L388.514,195L388.514,191.592C388.514,190.232,388.61,189.688,388.93,189.144C389.218,188.632,389.618,188.376,390.082,188.376C390.242,188.376,390.514,188.408,390.578,188.44L390.626,188.456L390.626,187.128ZM396.293,187.384C395.637,187.128,395.221,187.048,394.677,187.048C392.677,187.048,391.381,188.632,391.381,191.096C391.381,193.512,392.661,195.16,394.565,195.16C395.157,195.16,395.701,195.048,396.293,194.792L396.245,193.624C395.637,193.96,395.269,194.072,394.757,194.072C393.525,194.072,392.725,192.888,392.725,191.064C392.725,190.2,392.981,189.288,393.349,188.808C393.701,188.376,394.213,188.136,394.821,188.136C395.173,188.136,395.525,188.216,395.845,188.376C395.941,188.408,396.053,188.456,396.149,188.504L396.245,188.536L396.293,187.384ZM403.206,195L403.206,191.08C403.206,189.064,403.158,188.664,402.774,188.008C402.422,187.368,401.814,187.048,400.966,187.048C400.07,187.048,399.542,187.352,398.966,188.232L398.966,183.464L397.67,183.464L397.67,195L398.966,195L398.966,191.512C398.966,190.168,399.078,189.464,399.366,188.968C399.67,188.456,400.118,188.184,400.646,188.184C401.078,188.184,401.414,188.376,401.606,188.744C401.862,189.192,401.91,189.64,401.91,191.32L401.91,195L403.206,195ZM408.822,187.384C408.054,187.128,407.622,187.048,407.062,187.048C405.67,187.048,404.758,187.896,404.758,189.192C404.758,190.152,405.174,190.696,406.438,191.368C407.558,191.96,407.862,192.296,407.862,192.92C407.862,193.656,407.334,194.104,406.486,194.104C405.91,194.104,405.574,193.992,404.79,193.512L404.678,194.664C405.366,195.016,405.958,195.16,406.614,195.16C408.198,195.16,409.19,194.28,409.19,192.888C409.19,191.848,408.678,191.176,407.398,190.536C406.358,190.024,406.038,189.704,406.038,189.128C406.038,188.472,406.454,188.104,407.222,188.104C407.734,188.104,408.102,188.184,408.726,188.456L408.822,187.384ZM415.246,187.384C414.59,187.128,414.174,187.048,413.63,187.048C411.63,187.048,410.334,188.632,410.334,191.096C410.334,193.512,411.614,195.16,413.518,195.16C414.11,195.16,414.654,195.048,415.246,194.792L415.198,193.624C414.59,193.96,414.222,194.072,413.71,194.072C412.478,194.072,411.678,192.888,411.678,191.064C411.678,190.2,411.934,189.288,412.302,188.808C412.654,188.376,413.166,188.136,413.774,188.136C414.126,188.136,414.478,188.216,414.798,188.376C414.894,188.408,415.006,188.456,415.102,188.504L415.198,188.536L415.246,187.384ZM422.159,195L422.159,191.08C422.159,189.064,422.111,188.664,421.727,188.008C421.375,187.368,420.767,187.048,419.919,187.048C419.023,187.048,418.495,187.352,417.919,188.232L417.919,183.464L416.623,183.464L416.623,195L417.919,195L417.919,191.512C417.919,190.168,418.031,189.464,418.319,188.968C418.623,188.456,419.071,188.184,419.599,188.184C420.031,188.184,420.367,188.376,420.559,188.744C420.815,189.192,420.863,189.64,420.863,191.32L420.863,195L422.159,195ZM429.471,195L429.471,190.936C429.471,189.4,429.407,188.888,429.167,188.328C428.783,187.464,428.143,187.048,427.231,187.048C426.287,187.048,425.711,187.416,425.151,188.344L425.151,187.208L423.871,187.208C423.935,187.944,423.951,188.712,423.951,190.104L423.951,195L425.263,195L425.263,191.176C425.263,190.072,425.359,189.496,425.663,188.968C425.935,188.472,426.383,188.184,426.911,188.184C427.359,188.184,427.679,188.36,427.871,188.712C428.111,189.144,428.175,189.704,428.175,191.096L428.175,195L429.471,195ZM432.766,183.944L431.454,183.944L431.454,185.416L432.766,185.416L432.766,183.944ZM432.766,187.208L431.454,187.208L431.454,195L432.766,195L432.766,187.208ZM435.277,188.232L435.277,192.504C435.277,193.96,435.341,194.296,435.741,194.664C436.045,194.952,436.445,195.08,437.037,195.08C437.469,195.08,437.741,195.048,438.141,194.92L438.141,193.832C437.869,193.976,437.629,194.04,437.373,194.04C437.101,194.04,436.845,193.928,436.733,193.752C436.573,193.496,436.573,193.496,436.573,191.816L436.573,188.232L438.077,188.232L438.077,187.208L436.573,187.208L436.573,185.144L435.277,185.56L435.277,187.208L433.997,187.208L433.997,188.232L435.277,188.232ZM439.808,188.232L439.808,192.504C439.808,193.96,439.872,194.296,440.272,194.664C440.576,194.952,440.976,195.08,441.568,195.08C442,195.08,442.272,195.048,442.672,194.92L442.672,193.832C442.4,193.976,442.16,194.04,441.904,194.04C441.632,194.04,441.376,193.928,441.264,193.752C441.104,193.496,441.104,193.496,441.104,191.816L441.104,188.232L442.608,188.232L442.608,187.208L441.104,187.208L441.104,185.144L439.808,185.56L439.808,187.208L438.528,187.208L438.528,188.232L439.808,188.232Z" fill="white" transform="translate(-337,-87)"/>
    </g>
    <path d="M335.566,-62.876C101.148,-92.9471,0,0,0,0" fill="none" stroke="#1d883b" stroke-linecap="butt" stroke-linejoin="miter" stroke-width="2" stroke-dasharray="0 349.81" stroke-dashoffset="0" transform="translate(213.232,122.335)" style="animation: 4s linear both a5_da, 4s linear both a5_do;"/>
</svg>
