<?xml version="1.0" encoding="UTF-8" standalone="no"?>
<!-- Created with Keyshape -->
<svg xmlns="http://www.w3.org/2000/svg" width="594" height="326" viewBox="0 0 594 326" fill="none">
    <defs>
        <linearGradient id="Gradient-0" x1="159.171" y1="209.611" x2="159.171" y2="54.9765" gradientUnits="userSpaceOnUse">
            <stop offset="0" stop-color="#c8dfc7"/>
            <stop offset="0.17" stop-color="#abd3ad"/>
            <stop offset="0.41" stop-color="#87c58f"/>
            <stop offset="0.63" stop-color="#6eba79"/>
            <stop offset="0.84" stop-color="#5eb46c"/>
            <stop offset="1" stop-color="#59b267"/>
        </linearGradient>
        <linearGradient id="Gradient-1" x1="190455" y1="36508.6" x2="190455" y2="51221.9" gradientUnits="userSpaceOnUse">
            <stop offset="0" stop-color="#c8dfc7"/>
            <stop offset="0.17" stop-color="#abd3ad"/>
            <stop offset="0.41" stop-color="#87c58f"/>
            <stop offset="0.63" stop-color="#6eba79"/>
            <stop offset="0.84" stop-color="#5eb46c"/>
            <stop offset="1" stop-color="#59b267"/>
        </linearGradient>
        <linearGradient id="Gradient-2" x1="159.167" y1="282.721" x2="159.167" y2="219.509" gradientUnits="userSpaceOnUse">
            <stop offset="0" stop-color="#c8dfc7"/>
            <stop offset="0.02" stop-color="#c2dcc2"/>
            <stop offset="0.21" stop-color="#8bc298"/>
            <stop offset="0.39" stop-color="#5dad74"/>
            <stop offset="0.57" stop-color="#399d59"/>
            <stop offset="0.73" stop-color="#209145"/>
            <stop offset="0.88" stop-color="#108a39"/>
            <stop offset="1" stop-color="#0b8735"/>
        </linearGradient>
        <linearGradient id="Gradient-3" x1="-256690" y1="142221" x2="-257791" y2="114595" gradientUnits="userSpaceOnUse">
            <stop offset="0" stop-color="#c8dfc7"/>
            <stop offset="0.17" stop-color="#abd3ad"/>
            <stop offset="0.41" stop-color="#87c58f"/>
            <stop offset="0.63" stop-color="#6eba79"/>
            <stop offset="0.84" stop-color="#5eb46c"/>
            <stop offset="1" stop-color="#59b267"/>
        </linearGradient>
        <linearGradient id="Gradient-4" x1="-34944.2" y1="64570.3" x2="-34778.6" y2="50974.5" gradientUnits="userSpaceOnUse">
            <stop offset="0" stop-color="#c8dfc7"/>
            <stop offset="0.17" stop-color="#abd3ad"/>
            <stop offset="0.41" stop-color="#87c58f"/>
            <stop offset="0.63" stop-color="#6eba79"/>
            <stop offset="0.84" stop-color="#5eb46c"/>
            <stop offset="1" stop-color="#59b267"/>
        </linearGradient>
        <linearGradient id="Gradient-5" x1="-59868" y1="73439.5" x2="-59946.9" y2="58135.8" gradientUnits="userSpaceOnUse">
            <stop offset="0" stop-color="#c8dfc7"/>
            <stop offset="0.17" stop-color="#abd3ad"/>
            <stop offset="0.41" stop-color="#87c58f"/>
            <stop offset="0.63" stop-color="#6eba79"/>
            <stop offset="0.84" stop-color="#5eb46c"/>
            <stop offset="1" stop-color="#59b267"/>
        </linearGradient>
        <linearGradient id="Gradient-6" x1="-45508" y1="46660.4" x2="-45752.6" y2="37155.8" gradientUnits="userSpaceOnUse">
            <stop offset="0" stop-color="#c8dfc7"/>
            <stop offset="0.17" stop-color="#abd3ad"/>
            <stop offset="0.41" stop-color="#87c58f"/>
            <stop offset="0.63" stop-color="#6eba79"/>
            <stop offset="0.84" stop-color="#5eb46c"/>
            <stop offset="1" stop-color="#59b267"/>
        </linearGradient>
        <linearGradient id="Gradient-7" x1="-46067.2" y1="47328.6" x2="-46314.8" y2="37686.7" gradientUnits="userSpaceOnUse">
            <stop offset="0" stop-color="#c8dfc7"/>
            <stop offset="0.17" stop-color="#abd3ad"/>
            <stop offset="0.41" stop-color="#87c58f"/>
            <stop offset="0.63" stop-color="#6eba79"/>
            <stop offset="0.84" stop-color="#5eb46c"/>
            <stop offset="1" stop-color="#59b267"/>
        </linearGradient>
        <linearGradient id="Gradient-8" x1="4.90571" y1="76.0462" x2="106.301" y2="75.2285" gradientUnits="userSpaceOnUse">
            <stop offset="0" stop-color="#000000"/>
            <stop offset="1" stop-color="#ffffff"/>
        </linearGradient>
        <clipPath id="ClipPath-1">
            <path d="M15.0664,294.26C15.0664,297.983,18.4214,301,22.5591,301L45.968,301C50.1057,301,53.4607,297.983,53.4607,294.26L53.4607,229.644C53.4607,225.921,50.1057,222.9,45.968,222.9L22.5591,222.9C18.4214,222.9,15.0664,225.921,15.0664,229.644L15.0664,294.26Z" fill="#0B8735" transform="translate(-22.8072,-42.4051)"/>
        </clipPath>
        <clipPath id="ClipPath-2">
            <path d="M15.0664,294.26C15.0664,297.983,18.4214,301,22.5591,301L45.968,301C50.1057,301,53.4607,297.983,53.4607,294.26L53.4607,229.644C53.4607,225.921,50.1057,222.9,45.968,222.9L22.5591,222.9C18.4214,222.9,15.0664,225.921,15.0664,229.644L15.0664,294.26Z" fill="#0B8735" transform="translate(-22.8072,-42.4051)"/>
        </clipPath>
        <clipPath id="ClipPath-3">
            <path d="M274.968,143.392C273.635,139.233,260.837,109.875,257.105,102.916C253.374,95.9561,248.305,93.5615,244.574,93.5615L73.7647,93.5615C70.0332,93.5615,64.969,95.9646,61.2332,102.92C57.4974,109.875,44.7035,139.254,43.3666,143.392C42.0297,147.529,44.1662,149.471,47.6355,149.471L270.703,149.471C274.168,149.471,276.3,147.55,274.968,143.392Z" fill="#E6F5EB" transform="translate(167.222,7.69024)"/>
        </clipPath>
        <mask id="Mask-1">
            <rect width="284.56" height="172.535" fill="url(#Gradient-8)" stroke="none" transform="translate(72.336,50.8106) translate(-142.28,-86.2675)"/>
        </mask>
    </defs>
    <style>
@keyframes a0_t { 0% { transform: translate(182.5px,69.5px) scale(0,0) translate(-69.5px,-69.5px); } 50% { transform: translate(182.5px,69.5px) scale(0,0) translate(-69.5px,-69.5px); animation-timing-function: cubic-bezier(0.42,0,0.58,1); } 66.6666% { transform: translate(182.5px,69.5px) scale(1,1) translate(-69.5px,-69.5px); } 100% { transform: translate(182.5px,69.5px) scale(1,1) translate(-69.5px,-69.5px); } }
@keyframes car-2_t { 0% { transform: translate(509.016px,315.171px) rotate(0deg) scale(0.6,0.6) translate(-285.9px,-219.174px); } 33.3333% { transform: translate(509.016px,315.171px) rotate(0deg) scale(1,1) translate(-285.9px,-219.174px); } 50% { transform: translate(509.016px,315.171px) rotate(20deg) scale(1,1) translate(-285.9px,-219.174px); } 100% { transform: translate(509.016px,315.171px) rotate(20deg) scale(1,1) translate(-285.9px,-219.174px); } }
@keyframes a1_t { 0% { transform: translate(0px,0px); } 33.3333% { transform: translate(0px,172.419px); } 100% { transform: translate(0px,172.419px); } }
@keyframes a2_t { 0% { transform: translate(0px,0px); } 33.3333% { transform: translate(0px,172.419px); } 100% { transform: translate(0px,172.419px); } }
@keyframes car-top_t { 0% { transform: translate(0px,0px); animation-timing-function: cubic-bezier(0.42,0,0.58,1); } 3.3333% { transform: translate(0px,2.8005px); animation-timing-function: cubic-bezier(0.42,0,0.58,1); } 6.6666% { transform: translate(0px,0px); animation-timing-function: cubic-bezier(0.42,0,0.58,1); } 10% { transform: translate(0px,2.8005px); animation-timing-function: cubic-bezier(0.42,0,0.58,1); } 13.3333% { transform: translate(0px,0px); animation-timing-function: cubic-bezier(0.42,0,0.58,1); } 16.6666% { transform: translate(0px,2.8005px); } 20% { transform: translate(0px,0px); animation-timing-function: cubic-bezier(0.42,0,0.58,1); } 23.3333% { transform: translate(0px,2.8005px); animation-timing-function: cubic-bezier(0.42,0,0.58,1); } 26.6666% { transform: translate(0px,0px); animation-timing-function: cubic-bezier(0.42,0,0.58,1); } 30% { transform: translate(0px,2.8005px); animation-timing-function: cubic-bezier(0.42,0,0.58,1); } 33.3333% { transform: translate(0px,0px); } 100% { transform: translate(0px,0px); } }
@keyframes a3_t { 0% { transform: translate(116.513px,140.921px) rotate(-30deg) translate(-60.8855px,-127.569px); animation-timing-function: cubic-bezier(0.42,0,0.58,1); } 33.3333% { transform: translate(526.513px,140.921px) rotate(-30deg) translate(-60.8855px,-127.569px); } 100% { transform: translate(526.513px,140.921px) rotate(-30deg) translate(-60.8855px,-127.569px); } }
@keyframes a4_t { 0% { transform: translate(276.193px,257.02px) scale(0,0) translate(-95.1005px,-100px); } 25% { transform: translate(276.193px,257.02px) scale(0,0) translate(-95.1005px,-100px); animation-timing-function: cubic-bezier(0.42,0,0.58,1); } 33.3333% { transform: translate(276.193px,257.02px) scale(1,1) translate(-95.1005px,-100px); } 100% { transform: translate(276.193px,257.02px) scale(1,1) translate(-95.1005px,-100px); } }
@keyframes a4_o { 0% { opacity: 1; } 33.3333% { opacity: 1; } 41.6667% { opacity: 0; } 100% { opacity: 0; } }
@keyframes a5_mo { 0% { offset-distance: 0%; animation-timing-function: cubic-bezier(0.42,0,0.58,1); } 16.6667% { offset-distance: 80.86%; animation-timing-function: cubic-bezier(0.42,0,0.58,1); } 33.3333% { offset-distance: 100%; } 100% { offset-distance: 100%; } }
@keyframes a6_t { 0% { transform: translate(153.412px,102.092px) rotate(0deg) translate(-5.70996px,3.55321px); animation-timing-function: cubic-bezier(0.42,0,0.58,1); } 8.3333% { transform: translate(153.412px,102.092px) rotate(-30deg) translate(-5.70996px,3.55321px); animation-timing-function: cubic-bezier(0.42,0,0.58,1); } 16.6666% { transform: translate(153.412px,102.092px) rotate(0deg) translate(-5.70996px,3.55321px); } 25% { transform: translate(153.412px,102.092px) rotate(-30deg) translate(-5.70996px,3.55321px); animation-timing-function: cubic-bezier(0.42,0,0.58,1); } 33.3333% { transform: translate(153.412px,102.092px) rotate(0deg) translate(-5.70996px,3.55321px); } 100% { transform: translate(153.412px,102.092px) rotate(0deg) translate(-5.70996px,3.55321px); } }
@keyframes a7_t { 0% { transform: translate(58.9929px,111.807px) rotate(0deg) translate(-8.04699px,1.34442px); animation-timing-function: cubic-bezier(0.42,0,0.58,1); } 8.3333% { transform: translate(58.9929px,111.807px) rotate(30deg) translate(-8.04699px,1.34442px); animation-timing-function: cubic-bezier(0.42,0,0.58,1); } 16.6666% { transform: translate(58.9929px,111.807px) rotate(0deg) translate(-8.04699px,1.34442px); } 25% { transform: translate(58.9929px,111.807px) rotate(30deg) translate(-8.04699px,1.34442px); animation-timing-function: cubic-bezier(0.42,0,0.58,1); } 33.3333% { transform: translate(58.9929px,111.807px) rotate(0deg) translate(-8.04699px,1.34442px); } 100% { transform: translate(58.9929px,111.807px) rotate(0deg) translate(-8.04699px,1.34442px); } }
@keyframes a8_t { 0% { transform: translate(144.207px,105.037px) rotate(0deg) translate(-15.8821px,-7.08833px); animation-timing-function: cubic-bezier(0.42,0,0.58,1); } 8.3333% { transform: translate(144.207px,105.037px) rotate(-30deg) translate(-15.8821px,-7.08833px); animation-timing-function: cubic-bezier(0.42,0,0.58,1); } 16.6666% { transform: translate(144.207px,105.037px) rotate(0deg) translate(-15.8821px,-7.08833px); } 25% { transform: translate(144.207px,105.037px) rotate(-30deg) translate(-15.8821px,-7.08833px); animation-timing-function: cubic-bezier(0.42,0,0.58,1); } 33.3333% { transform: translate(144.207px,105.037px) rotate(0deg) translate(-15.8821px,-7.08833px); } 100% { transform: translate(144.207px,105.037px) rotate(0deg) translate(-15.8821px,-7.08833px); } }
@keyframes a9_t { 0% { transform: translate(58.1464px,101.648px) rotate(0deg) translate(-19.519px,-8.94785px); animation-timing-function: cubic-bezier(0.42,0,0.58,1); } 8.3333% { transform: translate(58.1464px,101.648px) rotate(30deg) translate(-19.519px,-8.94785px); animation-timing-function: cubic-bezier(0.42,0,0.58,1); } 16.6666% { transform: translate(58.1464px,101.648px) rotate(0deg) translate(-19.519px,-8.94785px); } 25% { transform: translate(58.1464px,101.648px) rotate(30deg) translate(-19.519px,-8.94785px); animation-timing-function: cubic-bezier(0.42,0,0.58,1); } 33.3333% { transform: translate(58.1464px,101.648px) rotate(0deg) translate(-19.519px,-8.94785px); } 100% { transform: translate(58.1464px,101.648px) rotate(0deg) translate(-19.519px,-8.94785px); } }
    </style>
    <g transform="translate(182.5,69.5) scale(0,0) translate(-69.5,-69.5)" style="animation: 6s linear both a0_t;">
        <path d="M182.5,0L191.766,8.24446L203.043,3.10503L209.474,13.722L221.761,12.1442L224.785,24.1903L236.99,26.3144L236.339,38.7192L247.377,44.3565L243.109,56.0179L252,64.6674L244.494,74.5491L250.448,85.4424L240.37,92.6665L242.858,104.835L231.105,108.76L229.905,121.124L217.52,121.4L212.74,132.859L200.824,129.463L192.888,139L182.5,132.232L172.113,139L164.176,129.463L152.261,132.859L147.48,121.4L135.095,121.124L133.895,108.76L122.142,104.835L124.63,92.6665L114.553,85.4424L120.506,74.5491L113,64.6674L121.891,56.0179L117.623,44.3565L128.661,38.7192L128.01,26.3144L140.215,24.1903L143.24,12.1442L155.526,13.722L161.957,3.10503L173.234,8.24446L182.5,0Z" fill="#FF9632" transform="translate(-113,0)"/>
        <path d="M166.66,39L167.86,39L167.892,37.848C168.436,38.792,168.996,39.16,169.924,39.16C171.62,39.16,172.644,37.624,172.644,35.064C172.644,32.568,171.636,31.048,169.972,31.048C169.124,31.048,168.532,31.4,168.004,32.248L167.972,32.296L167.924,32.344L167.924,27.464L166.66,27.464L166.66,39ZM169.684,32.088C170.692,32.088,171.332,33.304,171.332,35.224C171.332,36.968,170.676,38.12,169.684,38.12C168.628,38.12,167.924,36.888,167.924,35.096C167.924,33.352,168.676,32.088,169.684,32.088ZM175.524,27.944L174.212,27.944L174.212,29.416L175.524,29.416L175.524,27.944ZM175.524,31.208L174.212,31.208L174.212,39L175.524,39L175.524,31.208ZM181.283,31.384C180.515,31.128,180.083,31.048,179.523,31.048C178.131,31.048,177.219,31.896,177.219,33.192C177.219,34.152,177.635,34.696,178.899,35.368C180.019,35.96,180.323,36.296,180.323,36.92C180.323,37.656,179.795,38.104,178.947,38.104C178.371,38.104,178.035,37.992,177.251,37.512L177.139,38.664C177.827,39.016,178.419,39.16,179.075,39.16C180.659,39.16,181.651,38.28,181.651,36.888C181.651,35.848,181.139,35.176,179.859,34.536C178.819,34.024,178.499,33.704,178.499,33.128C178.499,32.472,178.914,32.104,179.683,32.104C180.195,32.104,180.562,32.184,181.187,32.456L181.283,31.384ZM191.235,31.208L186.435,31.208L186.435,32.232L189.827,32.232L186.291,37.976L186.291,39L191.283,39L191.283,37.976L187.747,37.976L191.235,32.296L191.235,31.208ZM198.197,31.208L196.901,31.208L196.901,34.968C196.901,37.208,196.469,38.024,195.317,38.024C194.837,38.024,194.517,37.848,194.325,37.496C194.085,37.08,194.037,36.616,194.037,35L194.037,31.208L192.741,31.208L192.741,35.224C192.741,37.16,192.805,37.56,193.173,38.216C193.525,38.84,194.133,39.16,194.933,39.16C195.909,39.16,196.501,38.792,197.029,37.88L197.093,39L198.293,39C198.245,38.68,198.213,37.992,198.197,36.088L198.197,31.208ZM140.75,52.718C142.154,51.935,142.991,51.692,144.179,51.692C145.934,51.692,147.014,52.799,147.014,54.608C147.014,55.418,146.798,56.12,146.393,56.606C145.799,57.335,144.449,57.767,143.018,57.713L142.775,57.713L142.343,57.713L142.154,57.713L142.154,59.63C142.559,59.603,142.856,59.603,143.234,59.603C144.503,59.603,145.151,59.711,145.745,60.062C146.636,60.575,147.122,61.547,147.122,62.843C147.122,64.949,145.799,66.272,143.666,66.272C142.478,66.272,141.614,66.029,140.237,65.3L140.075,67.514C141.641,68.027,142.559,68.189,143.801,68.189C147.338,68.189,149.552,66.164,149.552,62.924C149.552,60.467,148.472,59.09,146.15,58.55C148.283,58.01,149.417,56.552,149.417,54.338C149.417,51.557,147.5,49.802,144.422,49.802C143.18,49.802,142.181,49.991,140.561,50.531L140.75,52.718ZM155.654,65.408L153.17,65.408L153.17,68L155.654,68L155.654,65.408ZM165.226,49.991L163.174,49.991L159.259,53.825L160.528,55.364L163.012,52.772L163.012,68L165.226,68L165.226,49.991ZM175.972,49.721C174.19,49.721,172.705,50.747,171.814,52.61C171.112,54.068,170.761,56.201,170.761,59.063C170.761,62.222,171.166,64.328,172.084,65.894C172.975,67.46,174.325,68.27,176.053,68.27C177.97,68.27,179.428,67.271,180.346,65.327C181.021,63.869,181.345,61.844,181.345,58.982C181.345,52.772,179.563,49.721,175.972,49.721ZM176.053,51.557C177.997,51.557,178.996,54.068,178.996,58.928C178.996,63.923,177.997,66.434,176.053,66.434C174.082,66.434,173.11,63.95,173.11,58.982C173.11,54.014,174.082,51.557,176.053,51.557ZM188.338,49.721C186.556,49.721,185.071,50.747,184.18,52.61C183.478,54.068,183.127,56.201,183.127,59.063C183.127,62.222,183.532,64.328,184.45,65.894C185.341,67.46,186.691,68.27,188.419,68.27C190.336,68.27,191.794,67.271,192.712,65.327C193.387,63.869,193.711,61.844,193.711,58.982C193.711,52.772,191.929,49.721,188.338,49.721ZM188.419,51.557C190.363,51.557,191.362,54.068,191.362,58.928C191.362,63.923,190.363,66.434,188.419,66.434C186.448,66.434,185.476,63.95,185.476,58.982C185.476,54.014,186.448,51.557,188.419,51.557ZM201.528,56.093L201.069,57.902L202.608,57.902C202.581,58.388,202.581,58.685,202.581,58.955C202.581,59.225,202.581,59.414,202.608,59.792L201.528,59.792L201.069,61.601L202.851,61.601C203.823,66.056,206.388,68.27,210.546,68.27C211.221,68.27,211.68,68.216,212.301,68.081L212.301,65.975C211.653,66.191,211.248,66.245,210.6,66.245C207.927,66.245,205.902,64.436,205.335,61.601L210.006,61.601L210.465,59.792L205.011,59.792L205.011,59.036L205.038,57.902L210.924,57.902L211.383,56.093L205.389,56.093C206.253,53.204,208.008,51.692,210.519,51.692C211.167,51.692,211.545,51.746,212.301,51.989L212.787,50.099C211.842,49.802,211.356,49.721,210.438,49.721C207.63,49.721,205.443,50.882,204.066,53.042C203.526,53.906,203.202,54.716,202.905,56.093L201.528,56.093ZM223.183,51.962L220.348,53.285L220.51,49.721L218.62,49.721L218.809,53.285L215.947,51.962L215.407,53.609L218.512,54.635L216.46,57.47L217.918,58.55L219.565,55.634L221.158,58.55L222.67,57.47L220.618,54.635L223.723,53.609L223.183,51.962ZM154.725,79.568C154.149,79.328,153.493,79.216,152.805,79.216C150.965,79.216,149.829,80.272,149.829,81.952C149.829,83.312,150.261,83.888,152.181,85.088C153.509,85.92,153.829,86.32,153.829,87.2C153.829,88.24,153.077,88.944,151.973,88.944C151.381,88.944,150.661,88.704,149.909,88.256L149.909,89.648C150.533,89.936,151.333,90.112,152.117,90.112C154.037,90.112,155.237,88.944,155.237,87.088C155.237,85.744,154.661,84.928,153.045,83.968C151.573,83.088,151.237,82.72,151.237,81.984C151.237,81.024,151.909,80.384,152.917,80.384C153.605,80.384,154.133,80.528,154.725,80.864L154.725,79.568ZM161.41,82.384C160.754,82.128,160.338,82.048,159.794,82.048C157.794,82.048,156.498,83.632,156.498,86.096C156.498,88.512,157.778,90.16,159.682,90.16C160.274,90.16,160.818,90.048,161.41,89.792L161.362,88.624C160.754,88.96,160.386,89.072,159.874,89.072C158.642,89.072,157.842,87.888,157.842,86.064C157.842,85.2,158.098,84.288,158.466,83.808C158.818,83.376,159.33,83.136,159.938,83.136C160.29,83.136,160.642,83.216,160.962,83.376C161.058,83.408,161.17,83.456,161.266,83.504L161.362,83.536L161.41,82.384ZM168.323,90L168.323,86.08C168.323,84.064,168.275,83.664,167.891,83.008C167.539,82.368,166.931,82.048,166.083,82.048C165.187,82.048,164.659,82.352,164.083,83.232L164.083,78.464L162.787,78.464L162.787,90L164.083,90L164.083,86.512C164.083,85.168,164.195,84.464,164.483,83.968C164.787,83.456,165.235,83.184,165.763,83.184C166.195,83.184,166.531,83.376,166.723,83.744C166.979,84.192,167.027,84.64,167.027,86.32L167.027,90L168.323,90ZM170.579,83.888C171.443,83.296,171.971,83.088,172.643,83.088C173.555,83.088,174.083,83.744,174.083,84.928L174.083,85.296C173.763,85.264,173.763,85.264,173.347,85.264C172.067,85.264,171.027,85.584,170.467,86.16C170.051,86.576,169.827,87.152,169.827,87.872C169.827,89.264,170.707,90.16,172.067,90.16C173.011,90.16,173.539,89.84,174.083,88.944C174.083,89.344,174.099,89.568,174.147,90L175.411,90C175.331,89.008,175.299,88.208,175.299,87.104L175.299,85.68C175.299,84.272,175.203,83.648,174.915,83.12C174.547,82.432,173.747,82.048,172.707,82.048C171.859,82.048,171.267,82.224,170.435,82.752L170.579,83.888ZM174.083,86.144L174.083,86.64C174.083,88.192,173.411,89.184,172.371,89.184C171.603,89.184,171.107,88.64,171.107,87.808C171.107,87.424,171.219,87.056,171.459,86.784C171.779,86.384,172.531,86.144,173.507,86.144L174.083,86.144ZM182.809,78.464L181.513,78.464L181.513,83.296C180.937,82.384,180.425,82.048,179.545,82.048C177.865,82.048,176.825,83.616,176.825,86.112C176.825,88.64,177.865,90.16,179.593,90.16C180.505,90.16,180.953,89.872,181.593,88.848L181.673,90L182.889,90C182.825,88.992,182.809,88.368,182.809,87.28L182.809,78.464ZM179.785,83.088C180.793,83.088,181.529,84.384,181.529,86.144C181.529,87.904,180.825,89.12,179.801,89.12C178.809,89.12,178.169,87.92,178.169,86.08C178.169,84.256,178.809,83.088,179.785,83.088ZM189.881,86.432C189.897,86.304,189.897,86.128,189.897,85.904C189.897,83.52,188.841,82.048,187.129,82.048C185.289,82.048,184.169,83.584,184.169,86.064C184.169,88.72,185.337,90.16,187.481,90.16C188.201,90.16,188.697,90.032,189.449,89.68L189.385,88.448C188.729,88.928,188.169,89.136,187.465,89.136C186.793,89.136,186.249,88.784,185.849,88.08C185.625,87.664,185.529,87.28,185.465,86.432L189.881,86.432ZM185.465,85.472C185.657,83.76,186.169,83.024,187.129,83.024C188.089,83.024,188.521,83.744,188.617,85.472L185.465,85.472ZM196.838,90L196.838,85.936C196.838,84.4,196.774,83.888,196.534,83.328C196.15,82.464,195.51,82.048,194.598,82.048C193.654,82.048,193.078,82.416,192.518,83.344L192.518,82.208L191.238,82.208C191.302,82.944,191.318,83.712,191.318,85.104L191.318,90L192.63,90L192.63,86.176C192.63,85.072,192.726,84.496,193.03,83.968C193.302,83.472,193.75,83.184,194.278,83.184C194.726,83.184,195.046,83.36,195.238,83.712C195.478,84.144,195.542,84.704,195.542,86.096L195.542,90L196.838,90ZM203.789,78.944L202.478,78.944L202.478,80.416L203.789,80.416L203.789,78.944ZM203.789,82.208L202.478,82.208L202.478,90L203.789,90L203.789,82.208ZM207.02,82.208L205.756,82.208C205.82,83.44,205.836,84.208,205.836,85.472L205.836,90L207.148,90L207.148,86.16C207.148,84.992,207.244,84.4,207.5,83.888C207.74,83.456,208.156,83.184,208.604,83.184C208.956,83.184,209.244,83.344,209.404,83.632C209.676,84.128,209.724,84.56,209.724,86.192L209.724,90L211.02,90L211.02,86.336C211.02,84.96,211.1,84.416,211.388,83.872C211.628,83.44,212.044,83.184,212.508,83.184C212.892,83.184,213.18,83.344,213.34,83.632C213.564,84.048,213.612,84.496,213.612,86.016L213.612,90L214.908,90L214.908,85.76C214.908,84.096,214.828,83.568,214.476,82.944C214.14,82.368,213.548,82.048,212.828,82.048C211.9,82.048,211.308,82.448,210.78,83.456C210.396,82.464,209.852,82.048,208.972,82.048C208.188,82.048,207.628,82.416,207.02,83.312L207.02,82.208ZM147.237,97.328L147.237,108L149.141,108C150.741,108,151.829,107.68,152.645,106.976C153.701,106.08,154.277,104.544,154.277,102.656C154.277,101.088,153.861,99.712,153.109,98.784C152.245,97.712,151.157,97.328,148.981,97.328L147.237,97.328ZM148.597,98.416L149.189,98.416C150.309,98.416,151.029,98.624,151.541,99.088C152.309,99.792,152.853,101.312,152.853,102.768C152.853,104,152.469,105.136,151.781,105.92C151.157,106.608,150.373,106.912,149.189,106.912L148.597,106.912L148.597,98.416ZM161.282,100.208L159.986,100.208L159.986,103.968C159.986,106.208,159.554,107.024,158.402,107.024C157.922,107.024,157.602,106.848,157.41,106.496C157.17,106.08,157.122,105.616,157.122,104L157.122,100.208L155.826,100.208L155.826,104.224C155.826,106.16,155.89,106.56,156.258,107.216C156.61,107.84,157.218,108.16,158.018,108.16C158.994,108.16,159.586,107.792,160.114,106.88L160.178,108L161.378,108C161.33,107.68,161.298,106.992,161.282,105.088L161.282,100.208ZM166.626,100.128C166.498,100.112,166.402,100.112,166.29,100.112C165.314,100.112,164.882,100.448,164.354,101.584L164.354,100.208L163.122,100.208C163.186,101.312,163.202,102.192,163.202,103.056L163.202,108L164.514,108L164.514,104.592C164.514,103.232,164.61,102.688,164.93,102.144C165.218,101.632,165.618,101.376,166.082,101.376C166.242,101.376,166.514,101.408,166.578,101.44L166.626,101.456L166.626,100.128ZM172.293,100.384C171.637,100.128,171.221,100.048,170.677,100.048C168.677,100.048,167.381,101.632,167.381,104.096C167.381,106.512,168.661,108.16,170.565,108.16C171.157,108.16,171.701,108.048,172.293,107.792L172.245,106.624C171.637,106.96,171.269,107.072,170.757,107.072C169.525,107.072,168.725,105.888,168.725,104.064C168.725,103.2,168.981,102.288,169.349,101.808C169.701,101.376,170.213,101.136,170.821,101.136C171.173,101.136,171.525,101.216,171.845,101.376C171.941,101.408,172.053,101.456,172.149,101.504L172.245,101.536L172.293,100.384ZM179.206,108L179.206,104.08C179.206,102.064,179.158,101.664,178.774,101.008C178.422,100.368,177.814,100.048,176.966,100.048C176.07,100.048,175.542,100.352,174.966,101.232L174.966,96.464L173.67,96.464L173.67,108L174.966,108L174.966,104.512C174.966,103.168,175.078,102.464,175.366,101.968C175.67,101.456,176.118,101.184,176.646,101.184C177.078,101.184,177.414,101.376,177.606,101.744C177.862,102.192,177.91,102.64,177.91,104.32L177.91,108L179.206,108ZM184.822,100.384C184.054,100.128,183.622,100.048,183.062,100.048C181.67,100.048,180.758,100.896,180.758,102.192C180.758,103.152,181.174,103.696,182.438,104.368C183.558,104.96,183.862,105.296,183.862,105.92C183.862,106.656,183.334,107.104,182.486,107.104C181.91,107.104,181.574,106.992,180.79,106.512L180.678,107.664C181.366,108.016,181.958,108.16,182.614,108.16C184.198,108.16,185.19,107.28,185.19,105.888C185.19,104.848,184.678,104.176,183.398,103.536C182.358,103.024,182.038,102.704,182.038,102.128C182.038,101.472,182.454,101.104,183.222,101.104C183.734,101.104,184.102,101.184,184.726,101.456L184.822,100.384ZM191.246,100.384C190.59,100.128,190.174,100.048,189.63,100.048C187.63,100.048,186.334,101.632,186.334,104.096C186.334,106.512,187.614,108.16,189.518,108.16C190.11,108.16,190.654,108.048,191.246,107.792L191.198,106.624C190.59,106.96,190.222,107.072,189.71,107.072C188.478,107.072,187.678,105.888,187.678,104.064C187.678,103.2,187.934,102.288,188.302,101.808C188.654,101.376,189.166,101.136,189.774,101.136C190.126,101.136,190.478,101.216,190.798,101.376C190.894,101.408,191.006,101.456,191.102,101.504L191.198,101.536L191.246,100.384ZM198.159,108L198.159,104.08C198.159,102.064,198.111,101.664,197.727,101.008C197.375,100.368,196.767,100.048,195.919,100.048C195.023,100.048,194.495,100.352,193.919,101.232L193.919,96.464L192.623,96.464L192.623,108L193.919,108L193.919,104.512C193.919,103.168,194.031,102.464,194.319,101.968C194.623,101.456,195.071,101.184,195.599,101.184C196.031,101.184,196.367,101.376,196.559,101.744C196.815,102.192,196.863,102.64,196.863,104.32L196.863,108L198.159,108ZM205.471,108L205.471,103.936C205.471,102.4,205.407,101.888,205.167,101.328C204.783,100.464,204.143,100.048,203.231,100.048C202.287,100.048,201.711,100.416,201.151,101.344L201.151,100.208L199.871,100.208C199.935,100.944,199.951,101.712,199.951,103.104L199.951,108L201.263,108L201.263,104.176C201.263,103.072,201.359,102.496,201.663,101.968C201.935,101.472,202.383,101.184,202.911,101.184C203.359,101.184,203.679,101.36,203.871,101.712C204.111,102.144,204.175,102.704,204.175,104.096L204.175,108L205.471,108ZM208.766,96.944L207.454,96.944L207.454,98.416L208.766,98.416L208.766,96.944ZM208.766,100.208L207.454,100.208L207.454,108L208.766,108L208.766,100.208ZM211.277,101.232L211.277,105.504C211.277,106.96,211.341,107.296,211.741,107.664C212.045,107.952,212.445,108.08,213.037,108.08C213.469,108.08,213.741,108.048,214.141,107.92L214.141,106.832C213.869,106.976,213.629,107.04,213.373,107.04C213.101,107.04,212.845,106.928,212.733,106.752C212.573,106.496,212.573,106.496,212.573,104.816L212.573,101.232L214.077,101.232L214.077,100.208L212.573,100.208L212.573,98.144L211.277,98.56L211.277,100.208L209.997,100.208L209.997,101.232L211.277,101.232ZM215.808,101.232L215.808,105.504C215.808,106.96,215.872,107.296,216.272,107.664C216.576,107.952,216.976,108.08,217.568,108.08C218,108.08,218.272,108.048,218.672,107.92L218.672,106.832C218.4,106.976,218.16,107.04,217.904,107.04C217.632,107.04,217.376,106.928,217.264,106.752C217.104,106.496,217.104,106.496,217.104,104.816L217.104,101.232L218.608,101.232L218.608,100.208L217.104,100.208L217.104,98.144L215.808,98.56L215.808,100.208L214.528,100.208L214.528,101.232L215.808,101.232Z" fill="white" transform="translate(-113,0)"/>
    </g>
    <g id="car-2" fill="none" transform="translate(509.016,315.171) scale(0.6,0.6) translate(-285.9,-219.174)" style="animation: 6s linear both car-2_t;">
        <path d="M264.883,294.26C264.883,297.983,268.234,301,272.371,301L295.78,301C299.918,301,303.273,297.983,303.273,294.26L303.273,229.644C303.273,225.921,299.918,222.9,295.78,222.9L272.371,222.9C268.234,222.9,264.883,225.921,264.883,229.644L264.883,294.26Z" fill="#0B8735" transform="translate(-1.70077e-08,-81)"/>
        <path d="M15.0664,294.26C15.0664,297.983,18.4214,301,22.5591,301L45.968,301C50.1057,301,53.4607,297.983,53.4607,294.26L53.4607,229.644C53.4607,225.921,50.1057,222.9,45.968,222.9L22.5591,222.9C18.4214,222.9,15.0664,225.921,15.0664,229.644L15.0664,294.26Z" fill="#0B8735" transform="translate(-1.70077e-08,-81)"/>
        <g id="grooves" clip-path="url(#ClipPath-1)" transform="translate(33.4365,90.6876) translate(-10.6292,-129.283)">
            <g transform="translate(10.6292,129.283) translate(-10.6292,-129.283)" style="animation: 6s linear both a1_t;">
                <path class="st0" d="M8.25114,141.735C8.25114,148.905,0.5,148.905,0.5,156.075C0.5,163.244,8.25114,163.244,8.25114,170.414C8.25114,177.584,0.5,177.584,0.5,184.818C0.5,191.988,8.25114,191.988,8.25114,199.158C8.25114,206.328,0.5,206.328,0.5,213.498C0.5,220.667,8.25114,220.667,8.25114,227.837C8.25114,235.007,0.5,235.007,0.5,242.177C0.5,249.347,8.25114,249.347,8.25114,256.516C8.25114,263.686,0.5,263.686,0.5,270.856C0.5,278.026,8.25114,278.026,8.25114,285.196C8.25114,292.365,0.5,292.365,0.5,299.535C0.5,306.705,8.25114,306.705,8.25114,313.875C8.25114,321.045,0.5,321.045,0.5,328.279C0.5,335.449,8.25114,335.449,8.25114,342.683C8.25114,349.853,0.5,349.853,0.5,357.087C0.5,364.257,8.25114,364.257,8.25114,371.492C8.25114,378.661,0.5,378.661,0.5,385.896C0.5,393.13,8.25114,393.066,8.25114,400.3" stroke="#ffffff" stroke-miterlimit="10" fill="none" transform="translate(-0.5,-141.735)"/>
                <path class="st0" d="M8.25114,141.735C8.25114,148.905,0.5,148.905,0.5,156.075C0.5,163.244,8.25114,163.244,8.25114,170.414C8.25114,177.584,0.5,177.584,0.5,184.818C0.5,191.988,8.25114,191.988,8.25114,199.158C8.25114,206.328,0.5,206.328,0.5,213.498C0.5,220.667,8.25114,220.667,8.25114,227.837C8.25114,235.007,0.5,235.007,0.5,242.177C0.5,249.347,8.25114,249.347,8.25114,256.516C8.25114,263.686,0.5,263.686,0.5,270.856C0.5,278.026,8.25114,278.026,8.25114,285.196C8.25114,292.365,0.5,292.365,0.5,299.535C0.5,306.705,8.25114,306.705,8.25114,313.875C8.25114,321.045,0.5,321.045,0.5,328.279C0.5,335.449,8.25114,335.449,8.25114,342.683C8.25114,349.853,0.5,349.853,0.5,357.087C0.5,364.257,8.25114,364.257,8.25114,371.492C8.25114,378.661,0.5,378.661,0.5,385.896C0.5,393.13,8.25114,393.066,8.25114,400.3" stroke="#ffffff" stroke-miterlimit="10" fill="none" transform="translate(13.0073,-141.735)"/>
            </g>
        </g>
        <g id="grooves-2" clip-path="url(#ClipPath-2)" transform="translate(282.937,90.6876) translate(-10.6292,-129.283)">
            <g transform="translate(10.6292,129.283) translate(-10.6292,-129.283)" style="animation: 6s linear both a2_t;">
                <path class="st0" d="M8.25114,141.735C8.25114,148.905,0.5,148.905,0.5,156.075C0.5,163.244,8.25114,163.244,8.25114,170.414C8.25114,177.584,0.5,177.584,0.5,184.818C0.5,191.988,8.25114,191.988,8.25114,199.158C8.25114,206.328,0.5,206.328,0.5,213.498C0.5,220.667,8.25114,220.667,8.25114,227.837C8.25114,235.007,0.5,235.007,0.5,242.177C0.5,249.347,8.25114,249.347,8.25114,256.516C8.25114,263.686,0.5,263.686,0.5,270.856C0.5,278.026,8.25114,278.026,8.25114,285.196C8.25114,292.365,0.5,292.365,0.5,299.535C0.5,306.705,8.25114,306.705,8.25114,313.875C8.25114,321.045,0.5,321.045,0.5,328.279C0.5,335.449,8.25114,335.449,8.25114,342.683C8.25114,349.853,0.5,349.853,0.5,357.087C0.5,364.257,8.25114,364.257,8.25114,371.492C8.25114,378.661,0.5,378.661,0.5,385.896C0.5,393.13,8.25114,393.066,8.25114,400.3" stroke="#ffffff" stroke-miterlimit="10" fill="none" transform="translate(-0.5,-141.735)"/>
                <path class="st0" d="M8.25114,141.735C8.25114,148.905,0.5,148.905,0.5,156.075C0.5,163.244,8.25114,163.244,8.25114,170.414C8.25114,177.584,0.5,177.584,0.5,184.818C0.5,191.988,8.25114,191.988,8.25114,199.158C8.25114,206.328,0.5,206.328,0.5,213.498C0.5,220.667,8.25114,220.667,8.25114,227.837C8.25114,235.007,0.5,235.007,0.5,242.177C0.5,249.347,8.25114,249.347,8.25114,256.516C8.25114,263.686,0.5,263.686,0.5,270.856C0.5,278.026,8.25114,278.026,8.25114,285.196C8.25114,292.365,0.5,292.365,0.5,299.535C0.5,306.705,8.25114,306.705,8.25114,313.875C8.25114,321.045,0.5,321.045,0.5,328.279C0.5,335.449,8.25114,335.449,8.25114,342.683C8.25114,349.853,0.5,349.853,0.5,357.087C0.5,364.257,8.25114,364.257,8.25114,371.492C8.25114,378.661,0.5,378.661,0.5,385.896C0.5,393.13,8.25114,393.066,8.25114,400.3" stroke="#ffffff" stroke-miterlimit="10" fill="none" transform="translate(13.0073,-141.735)"/>
            </g>
        </g>
        <g id="car-top" transform="translate(159.175,94.704) translate(-159.175,-94.704)" style="animation: 6s linear both car-top_t;">
            <path d="M289.206,147.96C289.206,149.788,287.413,152.669,284.925,153.151L287.59,157.551C287.59,157.551,289.887,154.052,295.493,155.563L297.896,155.563L297.896,147.947L289.206,147.96Z" fill="#1D883B" transform="translate(-1.70077e-08,-81)"/>
            <path d="M318.345,147.193C318.561,151.065,312.49,154.809,306.444,156.188C297.559,158.215,289.098,154.403,289.098,146.491C289.098,138.812,295.021,134.839,303.715,137.116C309.714,138.681,318.133,143.377,318.345,147.193Z" fill="#1D883B" transform="translate(-1.70077e-08,-81)"/>
            <path d="M29.1298,147.96C29.1298,149.788,30.9236,152.669,33.4113,153.151L30.746,157.551C30.746,157.551,28.4486,154.052,22.8429,155.563L20.4355,155.563L20.4355,147.947L29.1298,147.96Z" fill="#1D883B" transform="translate(-1.70077e-08,-81)"/>
            <path d="M0.00558628,147.193C-0.210183,151.065,5.86098,154.809,11.9068,156.188C20.7914,158.215,29.2529,154.403,29.2529,146.491C29.2529,138.812,23.3087,134.839,14.6356,137.116C8.63636,138.681,0.212894,143.377,0.00558628,147.193Z" fill="#1D883B" transform="translate(-1.70077e-08,-81)"/>
            <path d="M300.56,179.467C298.96,169.867,290.698,159.07,286.175,150.909C281.652,142.748,264.937,104.371,260.85,97.6396C256.763,90.9085,248.052,84.08,237.386,82.6415C226.72,81.2031,179.598,81,159.171,81C138.745,81,91.6271,81.1988,80.9655,82.6415C70.304,84.0842,61.5928,90.9212,57.5016,97.6396C53.4105,104.358,36.7074,142.752,32.1762,150.909C27.6451,159.066,19.3781,169.867,17.7916,179.467C16.205,189.067,16.7127,245.937,19.3781,255.295C22.0435,264.654,31.9097,270.408,39.6393,270.408L278.699,270.408C286.429,270.408,296.295,264.649,298.96,255.291C301.626,245.933,302.159,189.067,300.56,179.467Z" fill="url(#Gradient-0)" transform="translate(-1.70077e-08,-81)"/>
            <path d="M16.9912,218.187C17.2704,234.53,18.0616,250.683,19.3774,255.295C22.0428,264.653,31.9089,270.407,39.6386,270.407L278.699,270.407C286.428,270.407,296.294,264.649,298.96,255.291C300.275,250.679,301.075,234.526,301.346,218.183L16.9912,218.187Z" fill="url(#Gradient-1)" transform="translate(-1.70077e-08,-81)"/>
            <path d="M271.676,140.522C271.676,140.522,286.607,160.856,288.561,165.966C290.516,171.077,290.783,175.697,285.177,178.037C279.571,180.376,237.454,189.794,227.854,189.794L90.4723,189.794C80.8769,189.794,38.7511,180.355,33.1537,178.037C27.5564,175.718,27.8187,171.077,29.7691,165.966C31.7195,160.856,46.6626,140.522,46.6626,140.522" stroke="#1D883B" stroke-miterlimit="10" transform="translate(-1.70077e-08,-81)"/>
            <path d="M286.844,253.398C288.367,256.753,286.509,259.537,282.664,259.537L35.6708,259.537C31.825,259.537,29.9677,256.753,31.4908,253.398L36.8554,241.573C38.222,238.569,42.1693,236.174,45.702,236.174L272.632,236.174C276.165,236.174,280.117,238.569,281.479,241.573L286.844,253.398Z" fill="url(#Gradient-2)" transform="translate(-1.70077e-08,-81)"/>
            <path d="M215.958,199.388C214.358,195.068,207.428,191.717,200.494,191.717L117.829,191.717C110.899,191.717,103.965,195.077,102.366,199.396C100.766,203.716,107.98,221.485,110.637,224.717C113.294,227.95,116.234,228.745,124.763,228.745L193.56,228.745C202.089,228.745,205.021,227.945,207.691,224.717C210.36,221.489,217.557,203.707,215.958,199.388Z" fill="#D4E5D3" transform="translate(-1.70077e-08,-81)"/>
            <path d="M274.968,143.392C273.635,139.233,260.837,109.875,257.105,102.916C253.374,95.9561,248.305,93.5615,244.574,93.5615L73.7647,93.5615C70.0332,93.5615,64.969,95.9646,61.2332,102.92C57.4974,109.875,44.7035,139.254,43.3666,143.392C42.0297,147.529,44.1662,149.471,47.6355,149.471L270.703,149.471C274.168,149.471,276.3,147.55,274.968,143.392Z" fill="#E6F5EB" transform="translate(-1.70077e-08,-81)"/>
            <g id="shine" clip-path="url(#ClipPath-3)" transform="translate(-50.7086,52.2309) translate(-116.513,-140.921)">
                <path fill="#ffffff" stroke="none" d="M0,0L28.9931,0L28.9931,255.139L0,255.139ZM39.6239,0L50.2547,0L50.2547,255.139L39.6239,255.139ZM121.771,0L94.7108,0L94.7108,255.139L121.771,255.139Z" fill-rule="evenodd" transform="translate(116.513,140.921) rotate(-30) translate(-60.8855,-127.569)" style="animation: 6s linear both a3_t;"/>
            </g>
            <path d="M230.557,191.715C230.557,191.715,242.289,204.911,248.157,204.911L282.003,204.911C287.334,204.911,288.666,202.034,289.733,199.411C290.799,196.788,291.332,182.851,289.733,178.054C289.745,178.028,266.019,186.905,230.557,191.715Z" fill="white" transform="translate(-1.70077e-08,-81)"/>
            <path d="M87.7893,191.715C87.7893,191.715,76.0616,204.911,70.1935,204.911L36.3473,204.911C31.0166,204.911,29.6839,202.034,28.6177,199.411C27.5516,196.788,27.0185,182.851,28.6177,178.054C28.5923,178.028,52.3185,186.905,87.7893,191.715Z" fill="white" transform="translate(-1.70077e-08,-81)"/>
        </g>
    </g>
    <path class="st0" d="M82.9491,0L96.4646,45.7811L134.229,16.6296L118.262,61.6156L165.898,60.2905L126.61,87.2556L165.898,114.154L118.262,112.896L134.229,157.815L96.4646,128.73L82.9491,174.445L69.4997,128.73L31.6691,157.815L47.7024,112.896L0,114.154L39.3544,87.2556L0,60.2905L47.7024,61.6156L31.6691,16.6296L69.4997,45.7811Z" fill="#FFFFFF" opacity="1" transform="translate(276.193,257.02) scale(0,0) translate(-95.1005,-100)" style="animation: 6s linear both a4_t, 6s linear both a4_o;"/>
    <g mask="url(#Mask-1)" transform="translate(171.093,251.227) translate(-97.0603,-63.6774)">
        <g fill="none" style="transform: scale(0.8,0.8) translate(-57.9013px,-146.612px); animation: 6s linear both a5_mo; offset-path: path('M-237.267,118.168C-133.917,72.3064,-57.9925,96.9018,-7.26716,118.168C9.51244,108.781,27.181,106.859,46.321,117.29L46.321,117.29'); offset-rotate: 0deg;">
            <path d="M214.294,212.628C214.878,208.042,216.673,203.694,219.494,200.032C221.094,198.217,222.69,196.403,224.892,195.125C226.543,194.166,228.536,194.037,229.58,192.545C224.266,189.742,215.706,194.275,213.176,199.569C215.592,192.57,215.741,176.862,208.046,172.497C207.355,175.107,209.308,178.959,209.775,181.803C210.203,184.937,210.203,188.114,209.775,191.248C208.582,185.899,207.369,175.698,202.021,172.328C201.807,173.481,202.18,174.888,202.553,176.305C200.564,172.149,196.175,174.709,193.386,175.743C188.912,177.448,186.262,175.902,182.385,173.293C179.402,170.916,176.291,167.113,172.254,166.512C167.651,165.945,169.59,169.534,170.375,172.91C169.078,170.424,165.131,166.676,162.232,166C162.093,168.297,163.371,170.474,164.067,172.462C161.364,171.832,158.728,170.947,156.193,169.818C153.831,168.54,151.396,166.124,148.532,166.02C148.587,166.87,147.806,168.063,147.841,168.635C144.555,166.268,142.527,165.826,138.893,166.915C138.043,166.969,138.098,167.819,136.96,167.909C136.408,168.227,135.22,167.447,134.633,167.198C132.923,167.302,131.467,166.825,129.747,166.646C124.279,166.149,117.11,165.448,111.533,167.511C108.177,168.58,107.521,171.761,104.181,173.114C101.109,174.162,97.8873,172.94,95.4714,175.37C94.4076,176.583,93.9801,178.607,92.9014,179.815C91.5492,181.042,89.8442,181.152,88.4772,182.091C85.9026,184.053,83.1421,185.758,80.2352,187.182C78.2965,188.176,73.6287,191.019,72.2815,192.53C69.3685,196.139,75.9601,196.582,78.8383,196.97C89.8044,198.849,98.6529,198.859,108.635,194.235C113.294,192.337,117.829,190.146,122.211,187.674C125.78,185.452,129.861,182.34,134.052,180.933C143.313,178.353,154.348,181.365,163.381,184.224C172.125,187.097,181.953,189.046,190.443,192.506C195.121,194.211,197.358,198.063,200.151,201.598C203.567,205.947,209.129,208.169,212.579,212.802L214.294,212.628Z" fill="#009C33" transform="translate(-0.000351201,-166)"/>
            <g transform="translate(153.412,102.092) translate(-5.70996,3.55321)" style="animation: 6s linear both a6_t;">
                <path d="M176.206,314.723C176.206,314.723,171.687,315.494,168.804,315.106C165.414,314.53,165.126,313.346,164.827,311.572C168.014,311.721,171.116,311.825,174.272,311.716C175.088,312.597,175.743,313.615,176.206,314.723L176.206,314.723Z" fill="#009C33" transform="translate(-147.702,-271.645)"/>
                <path d="M167.159,288.949C167.765,294.049,167.84,299.756,169.301,304.801C169.838,307.113,172.388,309.474,174.272,311.716C171.106,311.825,168.004,311.716,164.827,311.572C164.704,310.637,164.472,309.719,164.137,308.838C163.083,305.761,160.329,302.798,158.733,300.044C154.498,291.747,151.381,283.098,147.702,274.478L165.504,271.645C164.698,277.401,166.249,283.585,167.159,288.949Z" fill="#009C33" transform="translate(-147.702,-271.645)"/>
            </g>
            <g transform="translate(58.9929,111.807) translate(-8.04699,1.34442)" style="animation: 6s linear both a7_t;">
                <path d="M68.663,310.667C69.1999,311.691,69.7467,312.75,70.2637,313.894C66.9082,314.962,62.31,314.391,58.8303,313.759C58.6226,312.568,58.3386,311.39,57.9802,310.235C61.3008,310.613,65.5412,311.11,68.663,310.667Z" fill="#009C33" transform="translate(-50.9463,-279.151)"/>
                <path d="M54.9231,296.883C54.262,290.917,53.2827,284.425,50.9463,279.151L67.0276,280.707C66.8303,286.373,66.3325,292.025,65.5363,297.638C64.4973,302.982,66.4708,306.477,68.668,310.667C65.5462,311.09,61.286,310.598,57.9952,310.235C57.4604,308.473,56.7958,306.753,56.0068,305.09C54.6745,302.033,55.4202,300.278,54.9231,296.883Z" fill="#009C33" transform="translate(-50.9463,-279.151)"/>
            </g>
            <path d="M16.3474,259.908C17.6051,257.263,17.0533,253.013,16.3077,250.21C15.8752,247.953,12.1618,243.335,13.156,240.988C13.9017,239.228,16.4767,239.353,17.8636,238.697C19.613,237.875,21.1087,236.598,22.1934,234.998C24.0277,232.314,26.3343,228.173,25.2655,224.812C22.8148,226.682,22.5662,231.832,19.8868,234.571C17.451,236.723,11.7294,236.514,10.8097,239.994C10.1188,242.609,12.9821,247.277,13.7277,250.085C14.2226,253.223,14.1349,256.425,13.4692,259.53L16.3474,259.908Z" fill="#009C33" transform="translate(-0.000351201,-166)"/>
            <path d="M17.0588,258.138C17.1534,259.963,17.0835,261.793,16.85,263.606C16.4821,266.773,16.9643,274.448,14.4987,276.034C13.5443,276.093,14.5435,267.752,14.5982,264.039C14.2253,267.205,13.3553,271.54,10.318,273.155C8.82672,273.329,11.2775,265.699,12.5352,263.029C11.2576,265.391,8.1805,266.44,5.6055,266.32C1.87722,265.982,2.85155,263.338,6.29648,263.705C3.50773,264.739,-1.2197,262.184,0.291492,258.948C4.09434,260.44,10.5567,262.398,13.7133,258.203C13.7282,258.193,16.8649,255.24,17.0588,258.138Z" fill="#009C33" transform="translate(-0.000351201,-166)"/>
            <path d="M222.144,273.782C220.1,277.62,217.863,278.336,213.797,277.163C212.052,276.7,210.541,275.373,208.826,274.911C206.231,274.503,205.167,275.711,202.642,276.442C198.417,277.277,194.897,275.791,191.109,274.598C186.72,272.878,183.911,273.603,179.741,275.318C172.493,278.057,164.479,277.704,156.799,278.192C148.846,278.689,140.862,278.907,132.903,279.409C115.56,280.503,98.1857,281.025,80.8616,282.392C68.0861,283.486,52.1887,284.773,44.0412,273.295C36.4852,262.071,28.8745,249.996,24.6193,236.847C22.1089,228.73,23.4611,222.929,27.5572,215.542C31.9069,207.588,37.5341,197.218,47.0586,194.335C58.5317,190.756,71.2875,189.364,83.1931,188.062C90.2818,187.326,94.7408,185.621,99.8759,181.018C103.694,178.209,107.496,175.112,111.916,172.835C115.788,170.882,118.97,171.533,123.006,172.139C148.856,174.506,174.894,180.282,198.422,191.357C211.058,197.129,216.556,211.908,217.953,224.947C218.609,230.912,218.723,237.171,219.38,243.126C220.021,248.793,221.806,254.39,221.895,260.375C222.013,261.517,221.99,262.669,221.825,263.805L222.144,273.782Z" fill="url(#Gradient-3)" transform="translate(-0.000351201,-166)"/>
            <g transform="translate(144.207,105.037) translate(-15.8821,-7.08833)" style="animation: 6s linear both a8_t;">
                <path d="M157.241,318.536C158.275,319.684,159.453,320.863,159.543,322.249C159.473,325.679,151.564,322.468,148.955,321.777C146.827,321.101,145.813,320.067,145.271,318.765C149.26,319.066,153.267,318.989,157.241,318.536L157.241,318.536Z" fill="#009C33" transform="translate(-128.325,-263.949)"/>
                <path d="M133.957,269.353C132.252,269.457,130.299,270.153,128.325,270.561C128.733,267.966,131.716,265.495,133.619,263.949L158.475,264.382C158.122,272.395,153.688,278.952,151.595,286.508C149.964,292.319,153.056,300.685,154.269,306.317C154.717,308.858,155.144,311.114,155.567,313.371C155.944,314.773,155.731,315.926,156.064,317.05C156.399,317.586,156.789,318.085,157.227,318.541C153.253,318.994,149.245,319.071,145.257,318.77C144.466,316.861,144.7,314.37,144.014,311.532C142.836,306.471,139.918,300.944,137.343,296.256C135.419,292.95,133.271,290.519,133.018,286.538C132.819,283.411,133.744,279.931,133.828,276.784C132.148,276.884,132.715,272.286,133.957,269.353Z" fill="url(#Gradient-4)" transform="translate(-128.325,-263.949)"/>
            </g>
            <g transform="translate(58.1464,101.648) translate(-19.519,-8.94785)" style="animation: 6s linear both a9_t;">
                <path d="M62.7672,319.372C64.1491,321.017,65.5311,322.618,64.9594,324.79C60.8782,325.918,57.2294,324.422,54.3114,323.463C53.5582,323.235,52.8582,322.858,52.2529,322.356C51.6475,321.853,51.1491,321.234,50.787,320.535C54.8081,320.524,58.8192,320.135,62.7672,319.372L62.7672,319.372Z" fill="#009C33" transform="translate(-38.6277,-258.7)"/>
                <path d="M38.6277,264.799L76.4872,258.7C78.3762,261.439,80.5435,264.168,82.7158,266.872C80.4192,266.733,77.541,266.34,75.4631,265.048C75.9254,267.871,78.3612,270.287,79.937,272.758C77.9486,272.594,75.5675,271.316,74.0762,270.272C74.9113,274.498,71.536,279.851,69.4779,283.406C68.1576,286.478,66.1908,289.23,63.7116,291.474C60.7289,294.228,59.0537,294.62,59.0239,298.617C58.9692,302.33,60.3412,305.959,60.555,309.369C60.6991,311.641,60.0082,314.256,60.6991,316.21C61.1901,317.379,61.889,318.451,62.7621,319.371C58.814,320.134,54.8029,320.524,50.7819,320.534C50.1846,319.278,49.686,317.976,49.2906,316.642C48.1307,311.863,46.9707,307.084,45.8108,302.306C45.3634,299.765,44.9161,297.225,43.9219,295.003C41.8937,289.992,44.1505,289.565,45.5523,284.624C48.192,276.183,43.3204,271.341,38.6277,264.799Z" fill="url(#Gradient-5)" transform="translate(-38.6277,-258.7)"/>
            </g>
            <path d="M232.906,275.547C233.622,273.298,234.169,270.998,234.541,268.667C234.964,266.38,235.536,263.333,237.479,261.518C238.302,260.783,239.359,260.365,240.462,260.34C240.881,260.517,241.266,260.764,241.6,261.071C243.221,262.851,240.76,265.644,239.915,267.2C238.99,269.191,238.425,271.33,238.245,273.519C237.976,275.229,237.986,278.43,236.754,279.638C235.903,280.498,234.576,280.737,233.015,280.597C232.304,279.295,232.304,277.804,232.906,275.547Z" fill="#009C33" transform="translate(-0.000351201,-166)"/>
            <path d="M232.304,275.721C233.299,272.654,233.726,269.502,234.457,266.375C234.85,264.7,235.635,262.528,237.082,261.444C239.03,259.987,242.754,259.013,242.649,262.712C242.59,264.735,240.422,266.972,239.726,268.816C238.846,271.162,238.732,273.737,238.454,276.203C238.036,279.683,236.028,281.065,232.643,280.93C232.568,280.93,232.449,280.93,232.409,280.841C231.633,279.091,231.877,277.55,232.304,275.721C232.394,275.363,233.527,275.06,233.453,275.378C233.194,276.466,232.13,280.22,234.213,280.304C237.027,280.413,237.196,277.679,237.405,275.77C237.763,272.788,238.14,270.054,239.343,267.32C239.89,266.067,240.835,265.043,241.332,263.746C241.551,263.15,241.551,262.497,241.332,261.901C240.541,258.859,236.759,262.811,236.097,264.347C234.606,267.782,234.556,271.833,233.418,275.403C233.363,275.731,232.24,276.009,232.304,275.721Z" fill="#009C33" transform="translate(-0.000351201,-166)"/>
            <path d="M219.096,242.037C219.32,251.422,228.213,255.101,235.441,258.7C236.435,259.197,238.861,259.823,240.412,260.549C239.335,260.579,238.303,260.99,237.499,261.708C235.585,263.487,235.014,266.47,234.621,268.707C234.262,270.99,233.727,273.242,233.02,275.442C232.439,277.64,232.414,279.106,233.115,280.414C228.561,280.011,221.965,276.302,219.549,275.209C212.515,271.784,204.606,269.149,197.915,265.331" fill="url(#Gradient-6)" transform="translate(-0.000351201,-166)"/>
            <path d="M219.096,242.037C219.043,244.584,219.772,247.085,221.184,249.205C222.638,251.296,224.497,253.073,226.652,254.43C228.772,255.793,230.97,257.032,233.234,258.138L234.904,258.988C235.479,259.288,236.078,259.541,236.694,259.744C237.875,260.114,239.037,260.546,240.174,261.036L240.397,260.012C239.561,260.034,238.742,260.257,238.011,260.664C237.647,260.869,237.313,261.123,237.017,261.419C236.729,261.698,236.468,262.002,236.237,262.329C235.371,263.633,234.768,265.094,234.462,266.629C234.119,268.12,233.89,269.572,233.582,271.013C233.285,272.442,232.911,273.854,232.463,275.244L232.463,275.244L232.463,275.273C232.225,276.13,232.078,277.01,232.026,277.898C231.972,278.854,232.182,279.807,232.633,280.652L233.194,279.792C230.162,279.474,227.179,278.172,224.306,276.869C221.433,275.567,218.53,274.095,215.572,272.892C212.614,271.689,209.636,270.476,206.674,269.283C203.711,268.09,200.788,266.798,197.945,265.307C200.697,266.953,203.543,268.435,206.47,269.746C209.373,271.103,212.331,272.321,215.234,273.653C216.69,274.314,218.107,274.995,219.559,275.716C221.01,276.437,222.397,277.167,223.854,277.853C226.767,279.196,229.739,280.568,233.095,280.965C233.245,280.984,233.396,280.942,233.516,280.848C233.635,280.755,233.712,280.618,233.731,280.468C233.744,280.348,233.72,280.226,233.662,280.12L233.662,280.12C232.936,278.833,233.219,277.182,233.662,275.607L233.662,275.651C234.154,274.22,234.541,272.754,234.82,271.267C235.123,269.775,235.317,268.314,235.65,266.902C235.912,265.511,236.438,264.183,237.201,262.99C237.397,262.71,237.618,262.449,237.862,262.21C238.09,261.984,238.348,261.79,238.628,261.633C239.197,261.307,239.836,261.124,240.492,261.101C240.631,261.09,240.761,261.025,240.853,260.92C240.946,260.815,240.994,260.679,240.989,260.539C240.983,260.441,240.951,260.345,240.896,260.263C240.841,260.181,240.765,260.115,240.676,260.072C239.505,259.576,238.308,259.141,237.092,258.77C236.513,258.593,235.948,258.374,235.401,258.113L233.706,257.308C231.437,256.281,229.231,255.119,227.1,253.828C224.971,252.568,223.097,250.919,221.577,248.967C220.086,246.952,219.223,244.541,219.096,242.037L219.096,242.037Z" fill="url(#Gradient-7)" transform="translate(-0.000351201,-166)"/>
            <path d="M205.685,269.055C203.746,270.467,198.914,269.85,196.816,268.692C193.958,267.201,192.839,263.785,192.462,261.041C192.084,258.297,191.965,255.727,192.516,253.113C192.641,252.183,193.053,249.946,193.764,249.533C195.186,248.708,196.21,250.299,196.463,251.388L205.685,269.055Z" fill="#C8DFC7" transform="translate(-0.000351201,-166)"/>
        </g>
    </g>
</svg>
