<?xml version="1.0" encoding="UTF-8" standalone="no"?>
<!-- Created with Keyshape -->
<svg xmlns="http://www.w3.org/2000/svg" width="934" height="477" viewBox="0 0 934 477" fill="none">
    <defs>
        <linearGradient id="Gradient-0" x1="159.171" y1="209.611" x2="159.171" y2="54.9765" gradientUnits="userSpaceOnUse">
            <stop offset="0" stop-color="#c8dfc7"/>
            <stop offset="0.17" stop-color="#abd3ad"/>
            <stop offset="0.41" stop-color="#87c58f"/>
            <stop offset="0.63" stop-color="#6eba79"/>
            <stop offset="0.84" stop-color="#5eb46c"/>
            <stop offset="1" stop-color="#59b267"/>
        </linearGradient>
        <linearGradient id="Gradient-1" x1="190455" y1="36508.6" x2="190455" y2="51221.9" gradientUnits="userSpaceOnUse">
            <stop offset="0" stop-color="#c8dfc7"/>
            <stop offset="0.17" stop-color="#abd3ad"/>
            <stop offset="0.41" stop-color="#87c58f"/>
            <stop offset="0.63" stop-color="#6eba79"/>
            <stop offset="0.84" stop-color="#5eb46c"/>
            <stop offset="1" stop-color="#59b267"/>
        </linearGradient>
        <linearGradient id="Gradient-2" x1="159.167" y1="282.721" x2="159.167" y2="219.509" gradientUnits="userSpaceOnUse">
            <stop offset="0" stop-color="#c8dfc7"/>
            <stop offset="0.02" stop-color="#c2dcc2"/>
            <stop offset="0.21" stop-color="#8bc298"/>
            <stop offset="0.39" stop-color="#5dad74"/>
            <stop offset="0.57" stop-color="#399d59"/>
            <stop offset="0.73" stop-color="#209145"/>
            <stop offset="0.88" stop-color="#108a39"/>
            <stop offset="1" stop-color="#0b8735"/>
        </linearGradient>
        <linearGradient id="Gradient-3" x1="586.234" y1="155.779" x2="586.234" y2="469.665" gradientUnits="userSpaceOnUse">
            <stop offset="0.36" stop-color="#59b267"/>
            <stop offset="0.72" stop-color="#c8dfc7"/>
            <stop offset="0.76" stop-color="#abd3ad"/>
            <stop offset="0.82" stop-color="#87c58f"/>
            <stop offset="0.88" stop-color="#6eba79"/>
            <stop offset="0.93" stop-color="#5eb46c"/>
            <stop offset="0.98" stop-color="#59b267"/>
        </linearGradient>
        <clipPath id="ClipPath-1">
            <path d="M15.0664,294.26C15.0664,297.983,18.4214,301,22.5591,301L45.968,301C50.1057,301,53.4607,297.983,53.4607,294.26L53.4607,229.644C53.4607,225.921,50.1057,222.9,45.968,222.9L22.5591,222.9C18.4214,222.9,15.0664,225.921,15.0664,229.644L15.0664,294.26Z" fill="#0B8735" transform="translate(-22.8072,-42.4051)"/>
        </clipPath>
        <clipPath id="ClipPath-2">
            <path d="M15.0664,294.26C15.0664,297.983,18.4214,301,22.5591,301L45.968,301C50.1057,301,53.4607,297.983,53.4607,294.26L53.4607,229.644C53.4607,225.921,50.1057,222.9,45.968,222.9L22.5591,222.9C18.4214,222.9,15.0664,225.921,15.0664,229.644L15.0664,294.26Z" fill="#0B8735" transform="translate(-22.8072,-42.4051)"/>
        </clipPath>
        <clipPath id="ClipPath-3">
            <path d="M274.968,143.392C273.635,139.233,260.837,109.875,257.105,102.916C253.374,95.9561,248.305,93.5615,244.574,93.5615L73.7647,93.5615C70.0332,93.5615,64.969,95.9646,61.2332,102.92C57.4974,109.875,44.7035,139.254,43.3666,143.392C42.0297,147.529,44.1662,149.471,47.6355,149.471L270.703,149.471C274.168,149.471,276.3,147.55,274.968,143.392Z" fill="#E6F5EB" transform="translate(167.222,7.69024)"/>
        </clipPath>
        <clipPath id="ClipPath-4">
            <rect width="716.729" height="380.531" fill="#1d883b" stroke="none" transform="translate(314.847,94.5918) translate(-358.364,-190.266)"/>
        </clipPath>
    </defs>
    <style>
@keyframes car-2_t { 0% { transform: translate(165.662px,448.74px) scale(0.6,0.6) translate(-159.175px,-223.13px); } 33.3333% { transform: translate(165.662px,448.74px) scale(1,1) translate(-159.175px,-223.13px); } 100% { transform: translate(165.662px,448.74px) scale(1,1) translate(-159.175px,-223.13px); } }
@keyframes a0_t { 0% { transform: translate(0px,0px); } 33.3333% { transform: translate(0px,172.419px); } 100% { transform: translate(0px,172.419px); } }
@keyframes a1_t { 0% { transform: translate(0px,0px); } 33.3333% { transform: translate(0px,172.419px); } 100% { transform: translate(0px,172.419px); } }
@keyframes car-top_t { 0% { transform: translate(0px,0px); animation-timing-function: cubic-bezier(0.42,0,0.58,1); } 3.3333% { transform: translate(0px,2.8005px); animation-timing-function: cubic-bezier(0.42,0,0.58,1); } 6.6666% { transform: translate(0px,0px); animation-timing-function: cubic-bezier(0.42,0,0.58,1); } 10% { transform: translate(0px,2.8005px); animation-timing-function: cubic-bezier(0.42,0,0.58,1); } 13.3333% { transform: translate(0px,0px); animation-timing-function: cubic-bezier(0.42,0,0.58,1); } 16.6666% { transform: translate(0px,2.8005px); } 20% { transform: translate(0px,0px); animation-timing-function: cubic-bezier(0.42,0,0.58,1); } 23.3333% { transform: translate(0px,2.8005px); animation-timing-function: cubic-bezier(0.42,0,0.58,1); } 26.6666% { transform: translate(0px,0px); animation-timing-function: cubic-bezier(0.42,0,0.58,1); } 33.3333% { transform: translate(0px,12.801px); animation-timing-function: cubic-bezier(0.42,0,0.58,1); } 36.6666% { transform: translate(0px,0px); } 100% { transform: translate(0px,0px); } }
@keyframes a2_t { 0% { transform: translate(116.513px,140.921px) rotate(-30deg) translate(-60.8855px,-127.569px); animation-timing-function: cubic-bezier(0.42,0,0.58,1); } 33.3333% { transform: translate(526.513px,140.921px) rotate(-30deg) translate(-60.8855px,-127.569px); } 100% { transform: translate(526.513px,140.921px) rotate(-30deg) translate(-60.8855px,-127.569px); } }
@keyframes a3_t { 0% { transform: translate(246.02px,329.66px) scale(0,0) translate(-95.1005px,-100px); } 25% { transform: translate(246.02px,329.66px) scale(0,0) translate(-95.1005px,-100px); animation-timing-function: cubic-bezier(0.42,0,0.58,1); } 33.3333% { transform: translate(246.02px,329.66px) scale(1,1) translate(-95.1005px,-100px); } 100% { transform: translate(246.02px,329.66px) scale(1,1) translate(-95.1005px,-100px); } }
@keyframes a3_o { 0% { opacity: 1; } 33.3333% { opacity: 1; } 41.6667% { opacity: 0; } 100% { opacity: 0; } }
@keyframes truck_t { 0% { transform: translate(677.241px,-0.372px); animation-timing-function: cubic-bezier(0,0,0.58,1); } 33.3333% { transform: translate(-26.333px,-0.372px); } 100% { transform: translate(-26.333px,-0.372px); } }
@keyframes truck-top_t { 0% { transform: translate(561.889px,214.55px) rotate(0deg) translate(-561.889px,-214.55px); } 26.6666% { transform: translate(561.889px,214.55px) rotate(0deg) translate(-561.889px,-214.55px); animation-timing-function: cubic-bezier(0.42,0,0.58,1); } 33.3333% { transform: translate(561.889px,214.55px) rotate(-1.5deg) translate(-561.889px,-214.55px); animation-timing-function: cubic-bezier(0.42,0,0.58,1); } 50% { transform: translate(561.889px,214.55px) rotate(0deg) translate(-561.889px,-214.55px); } 100% { transform: translate(561.889px,214.55px) rotate(0deg) translate(-561.889px,-214.55px); } }
@keyframes wheel_t { 0% { transform: translate(156.794px,213.372px) rotate(0deg) translate(-59.9468px,-55.9189px); animation-timing-function: cubic-bezier(0,0,0.58,1); } 33.3333% { transform: translate(156.794px,213.372px) rotate(-360deg) translate(-59.9468px,-55.9189px); } 100% { transform: translate(156.794px,213.372px) rotate(-360deg) translate(-59.9468px,-55.9189px); } }
@keyframes wheel-2_t { 0% { transform: translate(557.128px,213.372px) rotate(0deg) translate(-59.9468px,-55.9189px); animation-timing-function: cubic-bezier(0,0,0.58,1); } 33.3333% { transform: translate(557.128px,213.372px) rotate(-360deg) translate(-59.9468px,-55.9189px); } 100% { transform: translate(557.128px,213.372px) rotate(-360deg) translate(-59.9468px,-55.9189px); } }
@keyframes a4_t { 0% { transform: translate(358.5px,161.965px) scale(0,0) translate(-69.5px,-69.5001px); } 50% { transform: translate(358.5px,161.965px) scale(0,0) translate(-69.5px,-69.5001px); animation-timing-function: cubic-bezier(0.42,0,0.58,1); } 66.6666% { transform: translate(358.5px,161.965px) scale(1,1) translate(-69.5px,-69.5001px); } 100% { transform: translate(358.5px,161.965px) scale(1,1) translate(-69.5px,-69.5001px); } }
    </style>
    <g id="car-2" fill="none" transform="translate(165.662,448.74) scale(0.6,0.6) translate(-159.175,-223.13)" style="animation: 6s linear both car-2_t;">
        <path d="M264.883,294.26C264.883,297.983,268.234,301,272.371,301L295.78,301C299.918,301,303.273,297.983,303.273,294.26L303.273,229.644C303.273,225.921,299.918,222.9,295.78,222.9L272.371,222.9C268.234,222.9,264.883,225.921,264.883,229.644L264.883,294.26Z" fill="#0B8735" transform="translate(-1.70077e-08,-81)"/>
        <path d="M15.0664,294.26C15.0664,297.983,18.4214,301,22.5591,301L45.968,301C50.1057,301,53.4607,297.983,53.4607,294.26L53.4607,229.644C53.4607,225.921,50.1057,222.9,45.968,222.9L22.5591,222.9C18.4214,222.9,15.0664,225.921,15.0664,229.644L15.0664,294.26Z" fill="#0B8735" transform="translate(-1.70077e-08,-81)"/>
        <g id="grooves" clip-path="url(#ClipPath-1)" transform="translate(33.4365,90.6876) translate(-10.6292,-129.283)">
            <g transform="translate(10.6292,129.283) translate(-10.6292,-129.283)" style="animation: 6s linear both a0_t;">
                <path class="st0" d="M8.25114,141.735C8.25114,148.905,0.5,148.905,0.5,156.075C0.5,163.244,8.25114,163.244,8.25114,170.414C8.25114,177.584,0.5,177.584,0.5,184.818C0.5,191.988,8.25114,191.988,8.25114,199.158C8.25114,206.328,0.5,206.328,0.5,213.498C0.5,220.667,8.25114,220.667,8.25114,227.837C8.25114,235.007,0.5,235.007,0.5,242.177C0.5,249.347,8.25114,249.347,8.25114,256.516C8.25114,263.686,0.5,263.686,0.5,270.856C0.5,278.026,8.25114,278.026,8.25114,285.196C8.25114,292.365,0.5,292.365,0.5,299.535C0.5,306.705,8.25114,306.705,8.25114,313.875C8.25114,321.045,0.5,321.045,0.5,328.279C0.5,335.449,8.25114,335.449,8.25114,342.683C8.25114,349.853,0.5,349.853,0.5,357.087C0.5,364.257,8.25114,364.257,8.25114,371.492C8.25114,378.661,0.5,378.661,0.5,385.896C0.5,393.13,8.25114,393.066,8.25114,400.3" stroke="#ffffff" stroke-miterlimit="10" fill="none" transform="translate(-0.5,-141.735)"/>
                <path class="st0" d="M8.25114,141.735C8.25114,148.905,0.5,148.905,0.5,156.075C0.5,163.244,8.25114,163.244,8.25114,170.414C8.25114,177.584,0.5,177.584,0.5,184.818C0.5,191.988,8.25114,191.988,8.25114,199.158C8.25114,206.328,0.5,206.328,0.5,213.498C0.5,220.667,8.25114,220.667,8.25114,227.837C8.25114,235.007,0.5,235.007,0.5,242.177C0.5,249.347,8.25114,249.347,8.25114,256.516C8.25114,263.686,0.5,263.686,0.5,270.856C0.5,278.026,8.25114,278.026,8.25114,285.196C8.25114,292.365,0.5,292.365,0.5,299.535C0.5,306.705,8.25114,306.705,8.25114,313.875C8.25114,321.045,0.5,321.045,0.5,328.279C0.5,335.449,8.25114,335.449,8.25114,342.683C8.25114,349.853,0.5,349.853,0.5,357.087C0.5,364.257,8.25114,364.257,8.25114,371.492C8.25114,378.661,0.5,378.661,0.5,385.896C0.5,393.13,8.25114,393.066,8.25114,400.3" stroke="#ffffff" stroke-miterlimit="10" fill="none" transform="translate(13.0073,-141.735)"/>
            </g>
        </g>
        <g id="grooves-2" clip-path="url(#ClipPath-2)" transform="translate(282.937,90.6876) translate(-10.6292,-129.283)">
            <g transform="translate(10.6292,129.283) translate(-10.6292,-129.283)" style="animation: 6s linear both a1_t;">
                <path class="st0" d="M8.25114,141.735C8.25114,148.905,0.5,148.905,0.5,156.075C0.5,163.244,8.25114,163.244,8.25114,170.414C8.25114,177.584,0.5,177.584,0.5,184.818C0.5,191.988,8.25114,191.988,8.25114,199.158C8.25114,206.328,0.5,206.328,0.5,213.498C0.5,220.667,8.25114,220.667,8.25114,227.837C8.25114,235.007,0.5,235.007,0.5,242.177C0.5,249.347,8.25114,249.347,8.25114,256.516C8.25114,263.686,0.5,263.686,0.5,270.856C0.5,278.026,8.25114,278.026,8.25114,285.196C8.25114,292.365,0.5,292.365,0.5,299.535C0.5,306.705,8.25114,306.705,8.25114,313.875C8.25114,321.045,0.5,321.045,0.5,328.279C0.5,335.449,8.25114,335.449,8.25114,342.683C8.25114,349.853,0.5,349.853,0.5,357.087C0.5,364.257,8.25114,364.257,8.25114,371.492C8.25114,378.661,0.5,378.661,0.5,385.896C0.5,393.13,8.25114,393.066,8.25114,400.3" stroke="#ffffff" stroke-miterlimit="10" fill="none" transform="translate(-0.5,-141.735)"/>
                <path class="st0" d="M8.25114,141.735C8.25114,148.905,0.5,148.905,0.5,156.075C0.5,163.244,8.25114,163.244,8.25114,170.414C8.25114,177.584,0.5,177.584,0.5,184.818C0.5,191.988,8.25114,191.988,8.25114,199.158C8.25114,206.328,0.5,206.328,0.5,213.498C0.5,220.667,8.25114,220.667,8.25114,227.837C8.25114,235.007,0.5,235.007,0.5,242.177C0.5,249.347,8.25114,249.347,8.25114,256.516C8.25114,263.686,0.5,263.686,0.5,270.856C0.5,278.026,8.25114,278.026,8.25114,285.196C8.25114,292.365,0.5,292.365,0.5,299.535C0.5,306.705,8.25114,306.705,8.25114,313.875C8.25114,321.045,0.5,321.045,0.5,328.279C0.5,335.449,8.25114,335.449,8.25114,342.683C8.25114,349.853,0.5,349.853,0.5,357.087C0.5,364.257,8.25114,364.257,8.25114,371.492C8.25114,378.661,0.5,378.661,0.5,385.896C0.5,393.13,8.25114,393.066,8.25114,400.3" stroke="#ffffff" stroke-miterlimit="10" fill="none" transform="translate(13.0073,-141.735)"/>
            </g>
        </g>
        <g id="car-top" transform="translate(159.175,94.704) translate(-159.175,-94.704)" style="animation: 6s linear both car-top_t;">
            <path d="M289.206,147.96C289.206,149.788,287.413,152.669,284.925,153.151L287.59,157.551C287.59,157.551,289.887,154.052,295.493,155.563L297.896,155.563L297.896,147.947L289.206,147.96Z" fill="#1D883B" transform="translate(-1.70077e-08,-81)"/>
            <path d="M318.345,147.193C318.561,151.065,312.49,154.809,306.444,156.188C297.559,158.215,289.098,154.403,289.098,146.491C289.098,138.812,295.021,134.839,303.715,137.116C309.714,138.681,318.133,143.377,318.345,147.193Z" fill="#1D883B" transform="translate(-1.70077e-08,-81)"/>
            <path d="M29.1298,147.96C29.1298,149.788,30.9236,152.669,33.4113,153.151L30.746,157.551C30.746,157.551,28.4486,154.052,22.8429,155.563L20.4355,155.563L20.4355,147.947L29.1298,147.96Z" fill="#1D883B" transform="translate(-1.70077e-08,-81)"/>
            <path d="M0.00558628,147.193C-0.210183,151.065,5.86098,154.809,11.9068,156.188C20.7914,158.215,29.2529,154.403,29.2529,146.491C29.2529,138.812,23.3087,134.839,14.6356,137.116C8.63636,138.681,0.212894,143.377,0.00558628,147.193Z" fill="#1D883B" transform="translate(-1.70077e-08,-81)"/>
            <path d="M300.56,179.467C298.96,169.867,290.698,159.07,286.175,150.909C281.652,142.748,264.937,104.371,260.85,97.6396C256.763,90.9085,248.052,84.08,237.386,82.6415C226.72,81.2031,179.598,81,159.171,81C138.745,81,91.6271,81.1988,80.9655,82.6415C70.304,84.0842,61.5928,90.9212,57.5016,97.6396C53.4105,104.358,36.7074,142.752,32.1762,150.909C27.6451,159.066,19.3781,169.867,17.7916,179.467C16.205,189.067,16.7127,245.937,19.3781,255.295C22.0435,264.654,31.9097,270.408,39.6393,270.408L278.699,270.408C286.429,270.408,296.295,264.649,298.96,255.291C301.626,245.933,302.159,189.067,300.56,179.467Z" fill="url(#Gradient-0)" transform="translate(-1.70077e-08,-81)"/>
            <path d="M16.9912,218.187C17.2704,234.53,18.0616,250.683,19.3774,255.295C22.0428,264.653,31.9089,270.407,39.6386,270.407L278.699,270.407C286.428,270.407,296.294,264.649,298.96,255.291C300.275,250.679,301.075,234.526,301.346,218.183L16.9912,218.187Z" fill="url(#Gradient-1)" transform="translate(-1.70077e-08,-81)"/>
            <path d="M271.676,140.522C271.676,140.522,286.607,160.856,288.561,165.966C290.516,171.077,290.783,175.697,285.177,178.037C279.571,180.376,237.454,189.794,227.854,189.794L90.4723,189.794C80.8769,189.794,38.7511,180.355,33.1537,178.037C27.5564,175.718,27.8187,171.077,29.7691,165.966C31.7195,160.856,46.6626,140.522,46.6626,140.522" stroke="#1D883B" stroke-miterlimit="10" transform="translate(-1.70077e-08,-81)"/>
            <path d="M286.844,253.398C288.367,256.753,286.509,259.537,282.664,259.537L35.6708,259.537C31.825,259.537,29.9677,256.753,31.4908,253.398L36.8554,241.573C38.222,238.569,42.1693,236.174,45.702,236.174L272.632,236.174C276.165,236.174,280.117,238.569,281.479,241.573L286.844,253.398Z" fill="url(#Gradient-2)" transform="translate(-1.70077e-08,-81)"/>
            <path d="M215.958,199.388C214.358,195.068,207.428,191.717,200.494,191.717L117.829,191.717C110.899,191.717,103.965,195.077,102.366,199.396C100.766,203.716,107.98,221.485,110.637,224.717C113.294,227.95,116.234,228.745,124.763,228.745L193.56,228.745C202.089,228.745,205.021,227.945,207.691,224.717C210.36,221.489,217.557,203.707,215.958,199.388Z" fill="#D4E5D3" transform="translate(-1.70077e-08,-81)"/>
            <path d="M274.968,143.392C273.635,139.233,260.837,109.875,257.105,102.916C253.374,95.9561,248.305,93.5615,244.574,93.5615L73.7647,93.5615C70.0332,93.5615,64.969,95.9646,61.2332,102.92C57.4974,109.875,44.7035,139.254,43.3666,143.392C42.0297,147.529,44.1662,149.471,47.6355,149.471L270.703,149.471C274.168,149.471,276.3,147.55,274.968,143.392Z" fill="#E6F5EB" transform="translate(-1.70077e-08,-81)"/>
            <g id="shine" clip-path="url(#ClipPath-3)" transform="translate(-50.7086,52.2309) translate(-116.513,-140.921)">
                <path fill="#ffffff" stroke="none" d="M0,0L28.9931,0L28.9931,255.139L0,255.139ZM39.6239,0L50.2547,0L50.2547,255.139L39.6239,255.139ZM121.771,0L94.7108,0L94.7108,255.139L121.771,255.139Z" fill-rule="evenodd" transform="translate(116.513,140.921) rotate(-30) translate(-60.8855,-127.569)" style="animation: 6s linear both a2_t;"/>
            </g>
            <path d="M230.557,191.715C230.557,191.715,242.289,204.911,248.157,204.911L282.003,204.911C287.334,204.911,288.666,202.034,289.733,199.411C290.799,196.788,291.332,182.851,289.733,178.054C289.745,178.028,266.019,186.905,230.557,191.715Z" fill="white" transform="translate(-1.70077e-08,-81)"/>
            <path d="M87.7893,191.715C87.7893,191.715,76.0616,204.911,70.1935,204.911L36.3473,204.911C31.0166,204.911,29.6839,202.034,28.6177,199.411C27.5516,196.788,27.0185,182.851,28.6177,178.054C28.5923,178.028,52.3185,186.905,87.7893,191.715Z" fill="white" transform="translate(-1.70077e-08,-81)"/>
        </g>
    </g>
    <path class="st0" d="M95.1006,0L110.596,52.4877L153.893,19.0657L135.587,70.6419L190.201,69.1227L145.158,100.038L190.201,130.877L135.587,129.434L153.893,180.934L110.596,147.588L95.1006,200L79.681,147.588L36.3084,180.934L54.6905,129.434L0,130.877L45.1196,100.038L0,69.1227L54.6905,70.6419L36.3084,19.0657L79.681,52.4877Z" fill="#FFFFFF" opacity="1" transform="translate(246.02,329.66) scale(0,0) translate(-95.1005,-100)" style="animation: 6s linear both a3_t, 6s linear both a3_o;"/>
    <g transform="translate(581.052,328.721) translate(-347.656,-132.342)">
        <g clip-path="url(#ClipPath-4)" transform="translate(374.978,130.223) translate(-347.585,-134.46)">
            <g id="truck" transform="translate(1024.81,134.287) translate(-347.569,-134.659)" style="animation: 6s linear both truck_t;">
                <g id="truck-top" transform="translate(561.889,214.55) translate(-561.889,-214.55)" style="animation: 6s linear both truck-top_t;">
                    <path d="M240.976,377.657L238.773,360.338C238.127,355.234,240.423,351.091,243.877,351.091L250.172,351.091C250.172,351.091,257.777,293.246,289.456,288.933C313.053,285.726,433.804,271.503,443.902,260.861C483.432,219.051,507.089,191.771,529.308,191.771L627.134,191.771C628.969,191.771,630.787,192.132,632.482,192.834C634.178,193.537,635.719,194.566,637.017,195.864C638.315,197.162,639.344,198.703,640.046,200.398C640.749,202.094,641.11,203.911,641.11,205.747L641.11,269.41L898.861,269.41C900.148,269.442,901.384,269.919,902.36,270.76C903.335,271.6,903.989,272.753,904.211,274.021L916.648,356.45C916.648,356.45,931.628,350.572,933.661,371.132C935.694,391.693,915.134,388.716,915.134,388.716L863.711,405.091L284.207,407.881L274.85,407.881C269.746,407.881,262.421,405.091,258.585,401.663L249.075,393.156C245.255,389.668,241.623,382.761,240.976,377.657Z" fill="url(#Gradient-3)" transform="translate(-238.664,-191.771)"/>
                    <path d="M301.237,379.359L293.181,348.284L250.648,348.284C250.35,349.986,250.214,351.04,250.214,351.04L243.919,351.04C240.449,351.04,238.152,355.183,238.815,360.287L240.976,377.658C241.623,382.762,245.229,389.686,249.091,393.123L258.602,401.629C262.438,405.032,269.72,407.847,274.866,407.847L284.224,407.847L346.628,407.55L352.26,379.376L301.237,379.359Z" fill="#0B8735" transform="translate(-238.664,-191.771)"/>
                    <path d="M915.133,388.715C915.133,388.715,935.694,391.65,933.661,371.098C931.628,350.546,916.648,356.416,916.648,356.416L916.375,354.612C909.417,359.419,899.992,365.62,894.326,368.121C884.518,372.434,848.033,379.341,848.033,379.341C848.033,379.341,848.986,394.219,849.735,405.167L863.677,405.091L915.133,388.715Z" fill="#0B8735" transform="translate(-238.664,-191.771)"/>
                    <path d="M396.911,407.328L789.177,405.439L789.177,391.616L396.911,391.616L396.911,407.328Z" fill="#0B8735" transform="translate(-238.664,-191.771)"/>
                    <path d="M421.776,338.858C368.261,338.858,347.062,345.57,336.488,368.104L330.985,395.206C330.487,398.472,330.234,401.77,330.228,405.074L462.675,405.074C462.675,368.563,458.286,338.858,421.776,338.858Z" fill="#0B8735" transform="translate(-238.664,-191.771)"/>
                    <path d="M820.26,338.858C766.745,338.858,745.547,345.57,734.973,368.104L729.469,395.206C728.974,398.472,728.724,401.771,728.721,405.074L861.16,405.074C861.16,368.563,856.771,338.858,820.26,338.858Z" fill="#0B8735" transform="translate(-238.664,-191.771)"/>
                    <path d="M457.997,256.676C457.997,256.676,489.471,223.5,507.429,208.784C516.224,201.587,515.663,199.911,512.167,196.628C494.303,206.257,473.564,229.455,443.918,260.81C442.88,261.908,440.609,263.048,437.453,264.213C441.22,264.539,445.013,264.033,448.563,262.73C452.113,261.428,455.334,259.361,457.997,256.676L457.997,256.676Z" fill="#C8DFC7" transform="translate(-238.664,-191.771)"/>
                    <path d="M467.328,269.623L615.99,269.623L615.99,202.838L533.977,202.838L467.328,269.623Z" fill="#009C33" transform="translate(-238.664,-191.771)"/>
                    <path d="M485.346,268.024L606.429,268.024C608.008,268.024,609.523,267.397,610.64,266.28C611.756,265.163,612.384,263.649,612.384,262.069L612.384,210.434C612.384,208.855,611.756,207.34,610.64,206.224C609.523,205.107,608.008,204.48,606.429,204.48L536.836,204.48C536.047,204.475,535.264,204.628,534.534,204.928C533.803,205.229,533.14,205.672,532.583,206.232L481.084,257.842C480.242,258.677,479.669,259.744,479.437,260.907C479.205,262.069,479.326,263.275,479.784,264.369C480.242,265.463,481.016,266.395,482.007,267.046C482.997,267.697,484.16,268.038,485.346,268.024L485.346,268.024Z" fill="#C8DFC7" transform="translate(-238.664,-191.771)"/>
                    <path d="M907.724,297.218C898.996,293.433,882.944,288.363,882.051,292.114C881.158,295.866,895.909,312.683,911.978,325.46L907.724,297.218Z" fill="white" transform="translate(-238.664,-191.771)"/>
                    <path d="M267.116,328.497C267.967,322.16,269.49,313.492,271.123,310.838C277.154,301.047,291.896,295.347,311.648,295.126C311.648,296.674,310.636,300.74,306.834,306.338C302.589,312.59,290.416,326.89,267.116,328.497Z" fill="white" transform="translate(-238.664,-191.771)"/>
                    <path d="M474.227,392.27C469.06,385.437,458.727,361.87,458.727,322.27C458.727,282.67,458.727,275.77,458.727,277.27C458.393,275.77,459.227,271.271,465.227,265.271C471.227,259.271,514.664,217.604,532.664,198.271L620.664,198.271L620.664,392.27" stroke="#009C33" stroke-width="2" transform="translate(-238.664,-191.771)"/>
                    <path d="M484.529,255.094L476.873,263.362L481.722,268.024L492.21,264.579L484.529,255.094Z" fill="#009C33" transform="translate(-238.664,-191.771)"/>
                    <path d="M513.094,260.189L509.794,235.852C509.198,231.488,503.839,229.157,498.199,231.233C485.975,235.724,481.297,261.286,481.884,262.426C485.125,268.713,493.393,268.27,503.074,268.236C509.198,268.219,513.681,264.561,513.094,260.189Z" fill="#009C33" transform="translate(-238.664,-191.771)"/>
                    <g transform="translate(-238.664,-191.771)" style="mix-blend-mode: multiply;">
                        <path d="M513.094,260.189L509.794,235.852C509.198,231.488,503.839,229.157,498.199,231.233C485.975,235.724,481.297,261.286,481.884,262.426C485.125,268.713,493.393,268.27,503.074,268.236C509.198,268.219,513.681,264.561,513.094,260.189Z" fill="#009C33"/>
                    </g>
                    <g transform="translate(-238.664,-191.771)" style="mix-blend-mode: screen;">
                        <path d="M513.094,260.189L509.794,235.852C509.198,231.488,503.839,229.157,498.199,231.233C485.975,235.724,481.297,261.286,481.884,262.426C485.125,268.713,493.393,268.27,503.074,268.236C509.198,268.219,513.681,264.561,513.094,260.189Z" fill="#008C2E"/>
                    </g>
                    <path d="M568.778,315.559C579.664,315.559,588.488,312.828,588.488,309.46C588.488,306.091,579.664,303.36,568.778,303.36C557.893,303.36,549.068,306.091,549.068,309.46C549.068,312.828,557.893,315.559,568.778,315.559Z" fill="#59B267" transform="translate(-238.664,-191.771)"/>
                    <path d="M494.426,371.001C494.426,371.001,494.257,385.885,497.913,397.174C497.913,397.174,490.546,389.087,485.709,386.503" stroke="#C8DFC7" stroke-miterlimit="10" stroke-linecap="round" stroke-linejoin="round" transform="translate(-238.664,-191.771)"/>
                </g>
                <g id="wheel" transform="translate(156.794,213.372) translate(-59.9468,-55.9189)" style="animation: 6s linear both wheel_t;">
                    <path d="M395.83,460.997C427.677,459.518,452.332,433.312,450.899,402.464C449.466,371.617,422.487,347.81,390.64,349.29C358.793,350.769,334.138,376.975,335.571,407.822C337.005,438.67,363.983,462.477,395.83,460.997Z" fill="#009C33" transform="translate(-333.288,-349.225)"/>
                    <path d="M397.192,447.266C420.184,446.198,437.967,426.934,436.912,404.238C435.858,381.543,416.365,364.011,393.374,365.079C370.383,366.147,352.6,385.411,353.654,408.106C354.709,430.802,374.201,448.334,397.192,447.266Z" fill="#C8DFC7" transform="translate(-335.512,-349.225)"/>
                    <path d="M366.022,406.418C366.334,412.067,368.311,417.497,371.704,422.025C375.097,426.552,379.754,429.974,385.088,431.86C390.423,433.745,396.196,434.009,401.68,432.618C407.164,431.228,412.114,428.246,415.906,424.047C419.698,419.848,422.163,414.621,422.989,409.024C423.815,403.427,422.966,397.71,420.549,392.595C418.132,387.479,414.255,383.194,409.406,380.278C404.558,377.363,398.955,375.947,393.303,376.211C389.528,376.401,385.827,377.334,382.413,378.956C378.998,380.577,375.936,382.856,373.403,385.661C370.869,388.466,368.913,391.743,367.647,395.305C366.381,398.867,365.828,402.643,366.022,406.418L366.022,406.418Z" fill="#59B267" transform="translate(-335.512,-349.225)"/>
                    <path d="M359.507,413.317L358.324,402.394L380.824,401.22C380.943,400.811,381.082,400.408,381.241,400.012L363.624,386.912L370.429,378.312L387.119,393.164C387.493,392.943,387.868,392.748,388.259,392.561L384.746,370.35L395.677,369.235L397.208,391.353C397.784,391.445,398.352,391.579,398.909,391.752L412.673,373.888L420.984,381.077L406.344,396.941C407.041,397.891,407.613,398.926,408.045,400.021L430.163,398.081L430.511,409.063L408.309,409.063C408.198,409.412,408.079,409.761,407.943,410.101L425.501,424.664L418.032,432.72L402.048,416.898C401.447,417.253,400.818,417.56,400.168,417.817L404.847,439.789L394.035,441.729L391.041,418.489C390.618,418.386,390.2,418.261,389.79,418.114L390.045,418.31L377.09,437.076L368.251,430.543L382.832,412.968C382.215,412.111,381.699,411.186,381.292,410.212L359.507,413.317Z" fill="#C8DFC7" transform="translate(-335.512,-349.225)"/>
                    <path d="M397.25,397.682C397.278,398.3,397.488,398.897,397.855,399.396C398.221,399.895,398.728,400.274,399.31,400.485C399.892,400.696,400.524,400.73,401.125,400.582C401.726,400.435,402.27,400.112,402.688,399.655C403.106,399.198,403.379,398.627,403.472,398.015C403.565,397.402,403.475,396.776,403.213,396.216C402.95,395.655,402.527,395.184,401.997,394.864C401.468,394.543,400.855,394.387,400.236,394.415C399.407,394.453,398.627,394.818,398.067,395.431C397.507,396.043,397.213,396.853,397.25,397.682L397.25,397.682Z" fill="white" transform="translate(-335.512,-349.225)"/>
                    <path d="M383.87,399.775C383.898,400.393,384.108,400.99,384.475,401.489C384.841,401.988,385.348,402.367,385.93,402.578C386.512,402.789,387.144,402.823,387.745,402.675C388.346,402.527,388.89,402.204,389.308,401.747C389.726,401.29,389.999,400.72,390.092,400.107C390.186,399.495,390.095,398.869,389.833,398.308C389.57,397.748,389.147,397.277,388.618,396.957C388.088,396.636,387.475,396.48,386.856,396.508C386.027,396.546,385.247,396.911,384.687,397.523C384.127,398.136,383.833,398.946,383.87,399.775L383.87,399.775Z" fill="white" transform="translate(-335.512,-349.225)"/>
                    <path d="M386.261,413.036C386.292,413.652,386.504,414.245,386.872,414.74C387.24,415.236,387.746,415.611,388.326,415.819C388.907,416.027,389.536,416.058,390.135,415.909C390.733,415.759,391.274,415.436,391.689,414.98C392.104,414.523,392.374,413.954,392.466,413.344C392.558,412.734,392.467,412.111,392.205,411.553C391.942,410.994,391.521,410.526,390.993,410.207C390.465,409.889,389.854,409.733,389.238,409.761C388.827,409.78,388.424,409.879,388.052,410.054C387.68,410.229,387.345,410.475,387.069,410.78C386.792,411.084,386.578,411.44,386.44,411.827C386.301,412.214,386.24,412.625,386.261,413.036Z" fill="white" transform="translate(-335.512,-349.225)"/>
                    <path d="M399.778,410.91C399.809,411.526,400.022,412.119,400.389,412.614C400.757,413.11,401.263,413.485,401.844,413.693C402.425,413.901,403.054,413.932,403.652,413.783C404.251,413.633,404.791,413.31,405.206,412.854C405.621,412.397,405.892,411.828,405.984,411.218C406.075,410.609,405.984,409.985,405.722,409.427C405.46,408.868,405.038,408.4,404.51,408.081C403.982,407.763,403.372,407.607,402.756,407.635C402.345,407.654,401.942,407.753,401.569,407.928C401.197,408.103,400.863,408.349,400.586,408.654C400.31,408.958,400.096,409.314,399.957,409.701C399.818,410.088,399.758,410.499,399.778,410.91L399.778,410.91Z" fill="white" transform="translate(-335.512,-349.225)"/>
                </g>
                <g id="wheel-2" transform="translate(557.128,213.372) translate(-59.9468,-55.9189)" style="animation: 6s linear both wheel-2_t;">
                    <path d="M395.83,460.997C427.677,459.518,452.332,433.312,450.899,402.464C449.466,371.617,422.487,347.81,390.64,349.29C358.793,350.769,334.138,376.975,335.571,407.822C337.005,438.67,363.983,462.477,395.83,460.997Z" fill="#009C33" transform="translate(-333.288,-349.225)"/>
                    <path d="M397.192,447.266C420.184,446.198,437.967,426.934,436.912,404.238C435.858,381.543,416.365,364.011,393.374,365.079C370.383,366.147,352.6,385.411,353.654,408.106C354.709,430.802,374.201,448.334,397.192,447.266Z" fill="#C8DFC7" transform="translate(-335.512,-349.225)"/>
                    <path d="M366.022,406.418C366.334,412.067,368.311,417.497,371.704,422.025C375.097,426.552,379.754,429.974,385.088,431.86C390.423,433.745,396.196,434.009,401.68,432.618C407.164,431.228,412.114,428.246,415.906,424.047C419.698,419.848,422.163,414.621,422.989,409.024C423.815,403.427,422.966,397.71,420.549,392.595C418.132,387.479,414.255,383.194,409.406,380.278C404.558,377.363,398.955,375.947,393.303,376.211C389.528,376.401,385.827,377.334,382.413,378.956C378.998,380.577,375.936,382.856,373.403,385.661C370.869,388.466,368.913,391.743,367.647,395.305C366.381,398.867,365.828,402.643,366.022,406.418L366.022,406.418Z" fill="#59B267" transform="translate(-335.512,-349.225)"/>
                    <path d="M359.507,413.317L358.324,402.394L380.824,401.22C380.943,400.811,381.082,400.408,381.241,400.012L363.624,386.912L370.429,378.312L387.119,393.164C387.493,392.943,387.868,392.748,388.259,392.561L384.746,370.35L395.677,369.235L397.208,391.353C397.784,391.445,398.352,391.579,398.909,391.752L412.673,373.888L420.984,381.077L406.344,396.941C407.041,397.891,407.613,398.926,408.045,400.021L430.163,398.081L430.511,409.063L408.309,409.063C408.198,409.412,408.079,409.761,407.943,410.101L425.501,424.664L418.032,432.72L402.048,416.898C401.447,417.253,400.818,417.56,400.168,417.817L404.847,439.789L394.035,441.729L391.041,418.489C390.618,418.386,390.2,418.261,389.79,418.114L390.045,418.31L377.09,437.076L368.251,430.543L382.832,412.968C382.215,412.111,381.699,411.186,381.292,410.212L359.507,413.317Z" fill="#C8DFC7" transform="translate(-335.512,-349.225)"/>
                    <path d="M397.25,397.682C397.278,398.3,397.488,398.897,397.855,399.396C398.221,399.895,398.728,400.274,399.31,400.485C399.892,400.696,400.524,400.73,401.125,400.582C401.726,400.435,402.27,400.112,402.688,399.655C403.106,399.198,403.379,398.627,403.472,398.015C403.565,397.402,403.475,396.776,403.213,396.216C402.95,395.655,402.527,395.184,401.997,394.864C401.468,394.543,400.855,394.387,400.236,394.415C399.407,394.453,398.627,394.818,398.067,395.431C397.507,396.043,397.213,396.853,397.25,397.682L397.25,397.682Z" fill="white" transform="translate(-335.512,-349.225)"/>
                    <path d="M383.87,399.775C383.898,400.393,384.108,400.99,384.475,401.489C384.841,401.988,385.348,402.367,385.93,402.578C386.512,402.789,387.144,402.823,387.745,402.675C388.346,402.527,388.89,402.204,389.308,401.747C389.726,401.29,389.999,400.72,390.092,400.107C390.186,399.495,390.095,398.869,389.833,398.308C389.57,397.748,389.147,397.277,388.618,396.957C388.088,396.636,387.475,396.48,386.856,396.508C386.027,396.546,385.247,396.911,384.687,397.523C384.127,398.136,383.833,398.946,383.87,399.775L383.87,399.775Z" fill="white" transform="translate(-335.512,-349.225)"/>
                    <path d="M386.261,413.036C386.292,413.652,386.504,414.245,386.872,414.74C387.24,415.236,387.746,415.611,388.326,415.819C388.907,416.027,389.536,416.058,390.135,415.909C390.733,415.759,391.274,415.436,391.689,414.98C392.104,414.523,392.374,413.954,392.466,413.344C392.558,412.734,392.467,412.111,392.205,411.553C391.942,410.994,391.521,410.526,390.993,410.207C390.465,409.889,389.854,409.733,389.238,409.761C388.827,409.78,388.424,409.879,388.052,410.054C387.68,410.229,387.345,410.475,387.069,410.78C386.792,411.084,386.578,411.44,386.44,411.827C386.301,412.214,386.24,412.625,386.261,413.036Z" fill="white" transform="translate(-335.512,-349.225)"/>
                    <path d="M399.778,410.91C399.809,411.526,400.022,412.119,400.389,412.614C400.757,413.11,401.263,413.485,401.844,413.693C402.425,413.901,403.054,413.932,403.652,413.783C404.251,413.633,404.791,413.31,405.206,412.854C405.621,412.397,405.892,411.828,405.984,411.218C406.075,410.609,405.984,409.985,405.722,409.427C405.46,408.868,405.038,408.4,404.51,408.081C403.982,407.763,403.372,407.607,402.756,407.635C402.345,407.654,401.942,407.753,401.569,407.928C401.197,408.103,400.863,408.349,400.586,408.654C400.31,408.958,400.096,409.314,399.957,409.701C399.818,410.088,399.758,410.499,399.778,410.91L399.778,410.91Z" fill="white" transform="translate(-335.512,-349.225)"/>
                </g>
            </g>
        </g>
    </g>
    <g transform="translate(538.697,231.672) translate(-125.966,-230.198)">
        <path d="M577.999,460.143L580.122,155.012L592.673,154.901L592.723,460.013L577.999,460.143Z" fill="#1AA648" transform="translate(-412.731,-1.47376)"/>
        <path d="M586.156,154.958L585.824,117.446C585.824,117.446,586.7,80.0837,553.547,61.8616C520.395,43.6395,477.587,25.5029,477.587,25.5029" stroke="#007D29" stroke-width="7" stroke-miterlimit="10" transform="translate(-412.731,-1.47376)"/>
        <path d="M475.753,27.29L445.778,13.548C444.566,12.9952,444.071,11.5505,444.623,10.338L446.281,6.70064C446.833,5.48817,448.277,4.99234,449.489,5.54513L479.463,19.2067C480.675,19.7595,481.17,21.2042,480.618,22.4166L478.96,26.054C478.408,27.2665,476.965,27.8428,475.753,27.29Z" fill="#008C2E" transform="translate(-412.731,-1.47376)"/>
        <path d="M434.351,4.55206L490.908,30.6172C490.908,30.6172,498.584,34.1718,494.633,42.2573C492.262,47.1086,492.254,46.3036,492.254,46.3036L419.911,9.51036C419.911,9.51036,423.044,-0.177966,428.698,2.18705C434.351,4.55206,434.351,4.55206,434.351,4.55206Z" fill="#4DBA71" transform="translate(-412.731,-1.47376)"/>
        <path d="M417.577,18.387C417.577,18.387,409.502,15.1579,414.199,9.48091C417.862,5.10119,421.5,-0.534668,428.699,2.18745L417.577,18.387Z" fill="#33B05C" transform="translate(-412.731,-1.47376)"/>
        <path d="M487.374,49.3263C483.029,49.3648,476.803,45.9583,476.722,45.8785L418.05,17.3365C416.434,16.5458,415.461,15.6688,415.454,14.9444C415.367,14.1401,416.405,13.2453,416.725,13.001C418.245,12.0215,420.091,11.5221,422.183,11.5035C425.884,11.4707,429.035,12.8919,429.116,12.9716L488.92,42.2281C491.909,43.5702,492.005,45.3405,491.93,45.9047C491.454,46.6334,490.42,48.0917,489.862,48.6602C489.303,49.0676,488.42,49.317,487.374,49.3263Z" fill="#CCEBD6" transform="translate(-412.731,-1.47376)"/>
        <path d="M422.193,12.7106C425.412,12.6821,428.32,13.9444,428.562,14.0227L488.366,43.2792L488.446,43.2785C490.223,44.0678,490.634,44.9497,490.719,45.5125C490.164,46.403,489.447,47.2949,489.049,47.7814C488.649,48.0265,488.087,48.112,487.363,48.1184C484.064,48.1476,478.973,45.7776,477.356,44.8259L477.275,44.8266L477.195,44.8273L418.603,16.2041C417.068,15.4932,416.741,14.9326,416.66,14.8528C416.738,14.6106,417.057,14.2857,417.377,14.0414C418.737,13.1438,420.343,12.727,422.193,12.7106ZM422.172,10.2957C420.16,10.3135,417.992,10.7352,416.071,11.9598C416.071,11.9598,411.111,15.224,417.577,18.3869L476.167,46.9296C476.167,46.9296,482.637,50.5754,487.384,50.5333C488.671,50.5219,489.796,50.2704,490.674,49.5381C491.472,48.726,493.06,46.2968,493.06,46.2968C493.06,46.2968,493.836,43.0697,489.392,41.0965L429.588,11.84C429.588,11.84,426.114,10.2607,422.172,10.2957Z" fill="#009C33" transform="translate(-412.731,-1.47376)"/>
        <path d="M530.082,461.541C530.082,461.541,530.082,454.24,541.049,446.938C552.016,439.637,556.909,425.033,544.705,425.033C532.501,425.033,560.564,416.496,559.327,406.779C558.09,397.062,553.253,403.128,552.016,398.242C550.779,393.355,560.564,371.451,550.779,381.167C541.049,390.884,539.812,399.421,536.156,390.884C532.501,382.347,525.189,385.998,527.608,398.186C530.026,410.374,527.27,412.003,521.365,406.33C515.46,400.657,498.363,398.186,508.092,415.26C517.822,432.335,507.08,436.941,514.898,446.77C522.771,456.655,530.082,449.353,530.082,461.541Z" fill="#C8DFC7" transform="translate(-412.731,-1.47376)"/>
        <path d="M545.661,397.512C545.661,397.512,529.689,425.089,529.407,436.997C529.126,448.904,529.07,454.071,520.128,460.474" stroke="#009C33" stroke-miterlimit="10" stroke-linecap="round" stroke-linejoin="round" transform="translate(-412.731,-1.47376)"/>
        <path d="M535.649,403.858C535.649,403.858,536.099,412.901,534.412,419.978C534.412,419.978,538.911,414.698,541.723,412.901" stroke="#009C33" stroke-miterlimit="10" stroke-linecap="round" stroke-linejoin="round" transform="translate(-412.731,-1.47376)"/>
        <path d="M530.082,417.002C530.082,417.002,530.026,427.617,529.52,435.425C529.52,435.425,534.806,426.775,537.618,424.978" stroke="#009C33" stroke-miterlimit="10" stroke-linecap="round" stroke-linejoin="round" transform="translate(-412.731,-1.47376)"/>
        <path d="M526.933,461.317C526.933,461.317,515.966,455.251,519.622,433.29C523.277,411.329,516.585,386.896,505.112,373.023C491.727,356.904,469.625,348.029,469.625,348.029C469.625,348.029,458.658,377.236,475.699,407.734C492.739,438.232,518.385,461.317,526.933,461.317Z" fill="#4DBA71" transform="translate(-412.731,-1.47376)"/>
        <path d="M477.272,361.958C477.272,361.958,504.774,402.735,506.742,422.112C508.711,441.49,511.466,452.049,526.932,461.316" stroke="#C8DFC7" stroke-miterlimit="10" stroke-linecap="round" stroke-linejoin="round" transform="translate(-412.731,-1.47376)"/>
        <path d="M505.11,391.727C505.11,391.727,502.411,406.611,506.067,417.9C506.067,417.9,498.643,408.183,493.75,405.6" stroke="#C8DFC7" stroke-miterlimit="10" stroke-linecap="round" stroke-linejoin="round" transform="translate(-412.731,-1.47376)"/>
        <path d="M454.214,461.542C454.214,461.542,491.67,447.107,509.441,451.095C527.157,455.026,542.96,443.231,553.983,441.659C565.006,440.086,563.432,440.479,577.66,446.77C591.889,453.061,623.155,457.642,626.139,458.172C629.123,458.701,664.663,461.71,664.663,461.71L454.214,461.542Z" fill="#4DBA71" transform="translate(-412.731,-1.47376)"/>
        <path d="M473.167,400.321C473.223,400.265,473.223,400.265,473.223,400.265C473.223,400.265,493.919,405.039,506.461,413.745C517.203,421.215,523.502,434.414,520.071,446.265C518.103,453.005,520.633,456.993,523.164,459.127C498.475,445.085,474.967,403.466,473.167,400.321Z" fill="#80CE99" transform="translate(-412.731,-1.47376)"/>
        <path d="M478.96,432.447C463.606,416.721,472.436,401.556,473.223,400.32C474.967,403.466,498.531,445.085,523.164,459.126C525.076,460.755,526.932,461.373,526.932,461.373C518.946,461.317,494.932,448.848,478.96,432.447Z" fill="#009C33" transform="translate(-412.731,-1.47376)"/>
        <path d="M453.664,461.87C453.664,461.87,461.258,447.107,479.03,451.095C496.746,455.027,505.899,443.232,516.922,441.659C527.945,440.086,526.37,440.479,540.599,446.77C554.827,453.061,574.905,457.386,578.448,455.813C578.448,455.813,580.81,442.052,585.534,440.479C585.534,440.479,580.023,451.488,581.204,455.027C581.204,455.027,584.747,443.232,587.896,441.659C587.896,441.659,583.172,452.274,585.928,457.386C585.928,457.386,587.109,450.702,587.896,449.522C587.896,449.522,587.109,456.992,589.077,458.172L627.602,461.71L453.664,461.87Z" fill="#B3E1C2" transform="translate(-412.731,-1.47376)"/>
    </g>
    <g transform="translate(358.5,161.965) scale(0,0) translate(-69.5,-69.5001)" style="animation: 6s linear both a4_t;">
        <path d="M358.5,92.4648L367.766,100.709L379.043,95.5699L385.474,106.187L397.761,104.609L400.785,116.655L412.99,118.779L412.339,131.184L423.377,136.821L419.109,148.483L428,157.132L420.494,167.014L426.448,177.907L416.37,185.131L418.858,197.3L407.105,201.225L405.905,213.588L393.52,213.865L388.74,225.324L376.824,221.928L368.888,231.465L358.5,224.697L348.113,231.465L340.176,221.928L328.261,225.324L323.48,213.865L311.095,213.588L309.895,201.225L298.142,197.3L300.63,185.131L290.553,177.907L296.506,167.014L289,157.132L297.891,148.483L293.623,136.821L304.661,131.184L304.01,118.779L316.215,116.655L319.24,104.609L331.526,106.187L337.957,95.5699L349.234,100.709L358.5,92.4648Z" fill="#FF9632" transform="translate(-289,-92.4648)"/>
        <path d="M342.747,120.793L342.747,131.465L344.939,131.465C346.107,131.465,346.683,131.353,347.275,131.033C348.139,130.553,348.619,129.641,348.619,128.505C348.619,127.625,348.283,126.841,347.723,126.393C347.371,126.105,347.051,125.977,346.411,125.849C347.707,125.529,348.315,124.761,348.315,123.465C348.315,122.473,347.883,121.657,347.115,121.209C346.619,120.921,345.947,120.793,345.003,120.793L342.747,120.793ZM344.107,121.881L344.939,121.881C345.643,121.881,346.203,122.025,346.475,122.265C346.795,122.553,347.003,123.081,347.003,123.609C347.003,124.745,346.283,125.369,344.939,125.369L344.107,125.369L344.107,121.881ZM344.107,126.441L344.987,126.441C345.627,126.441,346.059,126.521,346.347,126.681C346.891,127.001,347.243,127.673,347.243,128.425C347.243,129.705,346.443,130.377,344.939,130.377L344.107,130.377L344.107,126.441ZM351.821,120.409L350.509,120.409L350.509,121.881L351.821,121.881L351.821,120.409ZM351.821,123.673L350.509,123.673L350.509,131.465L351.821,131.465L351.821,123.673ZM357.579,123.849C356.811,123.593,356.379,123.513,355.819,123.513C354.427,123.513,353.515,124.361,353.515,125.657C353.515,126.617,353.931,127.161,355.195,127.833C356.315,128.425,356.619,128.761,356.619,129.385C356.619,130.121,356.091,130.569,355.243,130.569C354.667,130.569,354.331,130.457,353.547,129.977L353.435,131.129C354.123,131.481,354.715,131.625,355.371,131.625C356.955,131.625,357.947,130.745,357.947,129.353C357.947,128.313,357.435,127.641,356.155,127.001C355.115,126.489,354.795,126.169,354.795,125.593C354.795,124.937,355.211,124.569,355.979,124.569C356.491,124.569,356.859,124.649,357.483,124.921L357.579,123.849ZM367.532,123.673L362.732,123.673L362.732,124.697L366.124,124.697L362.588,130.441L362.588,131.465L367.58,131.465L367.58,130.441L364.044,130.441L367.532,124.761L367.532,123.673ZM374.493,123.673L373.197,123.673L373.197,127.433C373.197,129.673,372.765,130.489,371.613,130.489C371.133,130.489,370.813,130.313,370.621,129.961C370.381,129.545,370.333,129.081,370.333,127.465L370.333,123.673L369.037,123.673L369.037,127.689C369.037,129.625,369.101,130.025,369.469,130.681C369.821,131.305,370.429,131.625,371.229,131.625C372.205,131.625,372.797,131.257,373.325,130.345L373.389,131.465L374.589,131.465C374.541,131.145,374.509,130.457,374.493,128.553L374.493,123.673ZM322.62,153.931L320.568,153.931L320.568,141.619L316.545,141.619L310.173,153.553L310.173,156.577L317.193,156.577L317.193,160.465L320.568,160.465L320.568,156.577L322.62,156.577L322.62,153.931ZM317.193,153.931L312.927,153.931L317.193,145.48L317.193,153.931ZM328.71,156.955L325.173,156.955L325.173,160.465L328.71,160.465L328.71,156.955ZM340.529,160.465L340.529,141.619L337.451,141.619L332.321,146.236L334.13,148.585L337.046,145.804L337.046,160.465L340.529,160.465ZM351.506,141.322C350.588,141.322,349.481,141.619,348.752,142.024C346.592,143.266,345.485,146.344,345.485,151.096C345.485,157.441,347.537,160.735,351.506,160.735C353.612,160.735,355.367,159.682,356.285,157.819C357.149,156.118,357.527,154.066,357.527,151.042C357.527,148.018,357.149,145.966,356.285,144.238C355.367,142.402,353.585,141.322,351.506,141.322ZM351.533,143.887C353.234,143.887,353.99,146.047,353.99,151.015C353.99,156.064,353.261,158.17,351.506,158.17C349.778,158.17,349.022,156.064,349.022,151.258C349.022,146.047,349.751,143.887,351.533,143.887ZM365.533,141.322C364.615,141.322,363.508,141.619,362.779,142.024C360.619,143.266,359.512,146.344,359.512,151.096C359.512,157.441,361.564,160.735,365.533,160.735C367.639,160.735,369.394,159.682,370.312,157.819C371.176,156.118,371.554,154.066,371.554,151.042C371.554,148.018,371.176,145.966,370.312,144.238C369.394,142.402,367.612,141.322,365.533,141.322ZM365.56,143.887C367.261,143.887,368.017,146.047,368.017,151.015C368.017,156.064,367.288,158.17,365.533,158.17C363.805,158.17,363.049,156.064,363.049,151.258C363.049,146.047,363.778,143.887,365.56,143.887ZM389.949,154.363L390.624,151.798L385.845,151.798C385.791,151.339,385.791,151.096,385.791,150.88C385.791,150.691,385.791,150.475,385.845,149.989L391.11,149.989L391.785,147.424L386.385,147.424C387.141,145.399,388.869,144.238,391.11,144.238C391.623,144.238,391.947,144.292,392.595,144.454L393.324,141.7C392.406,141.43,391.704,141.322,390.786,141.322C386.547,141.322,383.631,143.482,382.524,147.424L380.769,147.424L380.094,149.989L382.092,149.989C382.065,150.475,382.065,150.772,382.065,151.096C382.065,151.339,382.065,151.501,382.092,151.798L380.769,151.798L380.094,154.363L382.443,154.363C382.821,156.037,383.685,157.522,384.9,158.629C386.52,160.087,388.518,160.762,391.245,160.762C391.488,160.762,391.758,160.735,392.595,160.627L392.595,157.522C391.893,157.63,391.515,157.684,391.218,157.684C388.95,157.684,387.195,156.469,386.412,154.363L389.949,154.363ZM404.247,149.665L401.925,146.857L405.354,145.966L404.706,143.617L401.601,145.129L401.925,141.511L399.252,141.511L399.603,145.129L396.498,143.617L395.796,145.966L399.252,146.857L396.876,149.665L398.874,151.258L400.575,148.18L402.222,151.258L404.247,149.665ZM330.725,172.033C330.149,171.793,329.493,171.681,328.805,171.681C326.965,171.681,325.829,172.737,325.829,174.417C325.829,175.777,326.261,176.353,328.181,177.553C329.509,178.385,329.829,178.785,329.829,179.665C329.829,180.705,329.077,181.409,327.973,181.409C327.381,181.409,326.661,181.169,325.909,180.721L325.909,182.113C326.533,182.401,327.333,182.577,328.117,182.577C330.037,182.577,331.237,181.409,331.237,179.553C331.237,178.209,330.661,177.393,329.045,176.433C327.573,175.553,327.237,175.185,327.237,174.449C327.237,173.489,327.909,172.849,328.917,172.849C329.605,172.849,330.133,172.993,330.725,173.329L330.725,172.033ZM337.41,174.849C336.754,174.593,336.338,174.513,335.794,174.513C333.794,174.513,332.498,176.097,332.498,178.561C332.498,180.977,333.778,182.625,335.682,182.625C336.274,182.625,336.818,182.513,337.41,182.257L337.362,181.089C336.754,181.425,336.386,181.537,335.874,181.537C334.642,181.537,333.842,180.353,333.842,178.529C333.842,177.665,334.098,176.753,334.466,176.273C334.818,175.841,335.33,175.601,335.938,175.601C336.29,175.601,336.642,175.681,336.962,175.841C337.058,175.873,337.17,175.921,337.266,175.969L337.362,176.001L337.41,174.849ZM344.323,182.465L344.323,178.545C344.323,176.529,344.275,176.129,343.891,175.473C343.539,174.833,342.931,174.513,342.083,174.513C341.187,174.513,340.659,174.817,340.083,175.697L340.083,170.929L338.787,170.929L338.787,182.465L340.083,182.465L340.083,178.977C340.083,177.633,340.195,176.929,340.483,176.433C340.787,175.921,341.235,175.649,341.763,175.649C342.195,175.649,342.531,175.841,342.723,176.209C342.979,176.657,343.027,177.105,343.027,178.785L343.027,182.465L344.323,182.465ZM346.579,176.353C347.443,175.761,347.971,175.553,348.643,175.553C349.555,175.553,350.083,176.209,350.083,177.393L350.083,177.761C349.763,177.729,349.763,177.729,349.347,177.729C348.067,177.729,347.027,178.049,346.467,178.625C346.051,179.041,345.827,179.617,345.827,180.337C345.827,181.729,346.707,182.625,348.067,182.625C349.011,182.625,349.539,182.305,350.083,181.409C350.083,181.809,350.099,182.033,350.147,182.465L351.411,182.465C351.331,181.473,351.299,180.673,351.299,179.569L351.299,178.145C351.299,176.737,351.203,176.113,350.915,175.585C350.547,174.897,349.747,174.513,348.707,174.513C347.859,174.513,347.267,174.689,346.435,175.217L346.579,176.353ZM350.083,178.609L350.083,179.105C350.083,180.657,349.411,181.649,348.371,181.649C347.603,181.649,347.107,181.105,347.107,180.273C347.107,179.889,347.219,179.521,347.459,179.249C347.779,178.849,348.531,178.609,349.507,178.609L350.083,178.609ZM358.809,170.929L357.513,170.929L357.513,175.761C356.937,174.849,356.425,174.513,355.545,174.513C353.865,174.513,352.825,176.081,352.825,178.577C352.825,181.105,353.865,182.625,355.593,182.625C356.505,182.625,356.953,182.337,357.593,181.313L357.673,182.465L358.889,182.465C358.825,181.457,358.809,180.833,358.809,179.745L358.809,170.929ZM355.785,175.553C356.793,175.553,357.529,176.849,357.529,178.609C357.529,180.369,356.825,181.585,355.801,181.585C354.809,181.585,354.169,180.385,354.169,178.545C354.169,176.721,354.809,175.553,355.785,175.553ZM365.881,178.897C365.897,178.769,365.897,178.593,365.897,178.369C365.897,175.985,364.841,174.513,363.129,174.513C361.289,174.513,360.169,176.049,360.169,178.529C360.169,181.185,361.337,182.625,363.481,182.625C364.201,182.625,364.697,182.497,365.449,182.145L365.385,180.913C364.729,181.393,364.169,181.601,363.465,181.601C362.793,181.601,362.249,181.249,361.849,180.545C361.625,180.129,361.529,179.745,361.465,178.897L365.881,178.897ZM361.465,177.937C361.657,176.225,362.169,175.489,363.129,175.489C364.089,175.489,364.521,176.209,364.617,177.937L361.465,177.937ZM372.838,182.465L372.838,178.401C372.838,176.865,372.774,176.353,372.534,175.793C372.15,174.929,371.51,174.513,370.598,174.513C369.654,174.513,369.078,174.881,368.518,175.809L368.518,174.673L367.238,174.673C367.302,175.409,367.318,176.177,367.318,177.569L367.318,182.465L368.63,182.465L368.63,178.641C368.63,177.537,368.726,176.961,369.03,176.433C369.302,175.937,369.75,175.649,370.278,175.649C370.726,175.649,371.046,175.825,371.238,176.177C371.478,176.609,371.542,177.169,371.542,178.561L371.542,182.465L372.838,182.465ZM379.789,171.409L378.478,171.409L378.478,172.881L379.789,172.881L379.789,171.409ZM379.789,174.673L378.478,174.673L378.478,182.465L379.789,182.465L379.789,174.673ZM383.02,174.673L381.756,174.673C381.82,175.905,381.836,176.673,381.836,177.937L381.836,182.465L383.148,182.465L383.148,178.625C383.148,177.457,383.244,176.865,383.5,176.353C383.74,175.921,384.156,175.649,384.604,175.649C384.956,175.649,385.244,175.809,385.404,176.097C385.676,176.593,385.724,177.025,385.724,178.657L385.724,182.465L387.02,182.465L387.02,178.801C387.02,177.425,387.1,176.881,387.388,176.337C387.628,175.905,388.044,175.649,388.508,175.649C388.892,175.649,389.18,175.809,389.34,176.097C389.564,176.513,389.612,176.961,389.612,178.481L389.612,182.465L390.908,182.465L390.908,178.225C390.908,176.561,390.828,176.033,390.476,175.409C390.14,174.833,389.548,174.513,388.828,174.513C387.9,174.513,387.308,174.913,386.78,175.921C386.396,174.929,385.852,174.513,384.972,174.513C384.188,174.513,383.628,174.881,383.02,175.777L383.02,174.673ZM323.237,189.793L323.237,200.465L325.141,200.465C326.741,200.465,327.829,200.145,328.645,199.441C329.701,198.545,330.277,197.009,330.277,195.121C330.277,193.553,329.861,192.177,329.109,191.249C328.245,190.177,327.157,189.793,324.981,189.793L323.237,189.793ZM324.597,190.881L325.189,190.881C326.309,190.881,327.029,191.089,327.541,191.553C328.309,192.257,328.853,193.777,328.853,195.233C328.853,196.465,328.469,197.601,327.781,198.385C327.157,199.073,326.373,199.377,325.189,199.377L324.597,199.377L324.597,190.881ZM337.282,192.673L335.986,192.673L335.986,196.433C335.986,198.673,335.554,199.489,334.402,199.489C333.922,199.489,333.602,199.313,333.41,198.961C333.17,198.545,333.122,198.081,333.122,196.465L333.122,192.673L331.826,192.673L331.826,196.689C331.826,198.625,331.89,199.025,332.258,199.681C332.61,200.305,333.218,200.625,334.018,200.625C334.994,200.625,335.586,200.257,336.114,199.345L336.178,200.465L337.378,200.465C337.33,200.145,337.298,199.457,337.282,197.553L337.282,192.673ZM342.626,192.593C342.498,192.577,342.402,192.577,342.29,192.577C341.314,192.577,340.882,192.913,340.354,194.049L340.354,192.673L339.122,192.673C339.186,193.777,339.202,194.657,339.202,195.521L339.202,200.465L340.514,200.465L340.514,197.057C340.514,195.697,340.61,195.153,340.93,194.609C341.218,194.097,341.618,193.841,342.082,193.841C342.242,193.841,342.514,193.873,342.578,193.905L342.626,193.921L342.626,192.593ZM348.293,192.849C347.637,192.593,347.221,192.513,346.677,192.513C344.677,192.513,343.381,194.097,343.381,196.561C343.381,198.977,344.661,200.625,346.565,200.625C347.157,200.625,347.701,200.513,348.293,200.257L348.245,199.089C347.637,199.425,347.269,199.537,346.757,199.537C345.525,199.537,344.725,198.353,344.725,196.529C344.725,195.665,344.981,194.753,345.349,194.273C345.701,193.841,346.213,193.601,346.821,193.601C347.173,193.601,347.525,193.681,347.845,193.841C347.941,193.873,348.053,193.921,348.149,193.969L348.245,194.001L348.293,192.849ZM355.206,200.465L355.206,196.545C355.206,194.529,355.158,194.129,354.774,193.473C354.422,192.833,353.814,192.513,352.966,192.513C352.07,192.513,351.542,192.817,350.966,193.697L350.966,188.929L349.67,188.929L349.67,200.465L350.966,200.465L350.966,196.977C350.966,195.633,351.078,194.929,351.366,194.433C351.67,193.921,352.118,193.649,352.646,193.649C353.078,193.649,353.414,193.841,353.606,194.209C353.862,194.657,353.91,195.105,353.91,196.785L353.91,200.465L355.206,200.465ZM360.822,192.849C360.054,192.593,359.622,192.513,359.062,192.513C357.67,192.513,356.758,193.361,356.758,194.657C356.758,195.617,357.174,196.161,358.438,196.833C359.558,197.425,359.862,197.761,359.862,198.385C359.862,199.121,359.334,199.569,358.486,199.569C357.91,199.569,357.574,199.457,356.79,198.977L356.678,200.129C357.366,200.481,357.958,200.625,358.614,200.625C360.198,200.625,361.19,199.745,361.19,198.353C361.19,197.313,360.678,196.641,359.398,196.001C358.358,195.489,358.038,195.169,358.038,194.593C358.038,193.937,358.454,193.569,359.222,193.569C359.734,193.569,360.102,193.649,360.726,193.921L360.822,192.849ZM367.246,192.849C366.59,192.593,366.174,192.513,365.63,192.513C363.63,192.513,362.334,194.097,362.334,196.561C362.334,198.977,363.614,200.625,365.518,200.625C366.11,200.625,366.654,200.513,367.246,200.257L367.198,199.089C366.59,199.425,366.222,199.537,365.71,199.537C364.478,199.537,363.678,198.353,363.678,196.529C363.678,195.665,363.934,194.753,364.302,194.273C364.654,193.841,365.166,193.601,365.774,193.601C366.126,193.601,366.478,193.681,366.798,193.841C366.894,193.873,367.006,193.921,367.102,193.969L367.198,194.001L367.246,192.849ZM374.159,200.465L374.159,196.545C374.159,194.529,374.111,194.129,373.727,193.473C373.375,192.833,372.767,192.513,371.919,192.513C371.023,192.513,370.495,192.817,369.919,193.697L369.919,188.929L368.623,188.929L368.623,200.465L369.919,200.465L369.919,196.977C369.919,195.633,370.031,194.929,370.319,194.433C370.623,193.921,371.071,193.649,371.599,193.649C372.031,193.649,372.367,193.841,372.559,194.209C372.815,194.657,372.863,195.105,372.863,196.785L372.863,200.465L374.159,200.465ZM381.471,200.465L381.471,196.401C381.471,194.865,381.407,194.353,381.167,193.793C380.783,192.929,380.143,192.513,379.231,192.513C378.287,192.513,377.711,192.881,377.151,193.809L377.151,192.673L375.871,192.673C375.935,193.409,375.951,194.177,375.951,195.569L375.951,200.465L377.263,200.465L377.263,196.641C377.263,195.537,377.359,194.961,377.663,194.433C377.935,193.937,378.383,193.649,378.911,193.649C379.359,193.649,379.679,193.825,379.871,194.177C380.111,194.609,380.175,195.169,380.175,196.561L380.175,200.465L381.471,200.465ZM384.766,189.409L383.454,189.409L383.454,190.881L384.766,190.881L384.766,189.409ZM384.766,192.673L383.454,192.673L383.454,200.465L384.766,200.465L384.766,192.673ZM387.277,193.697L387.277,197.969C387.277,199.425,387.341,199.761,387.741,200.129C388.045,200.417,388.445,200.545,389.037,200.545C389.469,200.545,389.741,200.513,390.141,200.385L390.141,199.297C389.869,199.441,389.629,199.505,389.373,199.505C389.101,199.505,388.845,199.393,388.733,199.217C388.573,198.961,388.573,198.961,388.573,197.281L388.573,193.697L390.077,193.697L390.077,192.673L388.573,192.673L388.573,190.609L387.277,191.025L387.277,192.673L385.997,192.673L385.997,193.697L387.277,193.697ZM391.808,193.697L391.808,197.969C391.808,199.425,391.872,199.761,392.272,200.129C392.576,200.417,392.976,200.545,393.568,200.545C394,200.545,394.272,200.513,394.672,200.385L394.672,199.297C394.4,199.441,394.16,199.505,393.904,199.505C393.632,199.505,393.376,199.393,393.264,199.217C393.104,198.961,393.104,198.961,393.104,197.281L393.104,193.697L394.608,193.697L394.608,192.673L393.104,192.673L393.104,190.609L391.808,191.025L391.808,192.673L390.528,192.673L390.528,193.697L391.808,193.697Z" fill="white" transform="translate(-289,-92.4648)"/>
    </g>
</svg>
