<svg width="1382" height="2915" viewBox="0 0 1382 2915" fill="none" xmlns="http://www.w3.org/2000/svg">
<path d="M1357.76 25.5793C1357.76 25.5793 1087.75 25.5793 954.484 25.5793C821.221 25.5793 647.728 -5.83728 647.728 211.598C647.728 349.873 647.728 766.416 647.728 766.416C647.728 766.416 625.098 1023.31 809.956 1023.31C809.956 1023.31 970.174 1023.31 1051.34 1023.31C1132.5 1023.31 1296.84 1075.33 1296.84 1254.73C1296.84 1464.73 1296.84 1602.61 1296.84 1602.61C1296.84 1602.61 1307.1 1762.48 1092.47 1762.48C932.759 1762.48 345.8 1762.48 266.747 1762.48C187.695 1762.48 24.3596 1753.49 24.3596 1992.01C24.3596 2230.53 24.3596 2692.68 24.3596 2692.68C24.3596 2692.68 8.51611 2889.03 259.606 2889.03C642.699 2889.03 1351.28 2889.03 1351.28 2889.03" stroke="#E6F5EB" stroke-width="47" stroke-miterlimit="10" stroke-linecap="round" stroke-linejoin="round"/>
<path d="M1376.76 26.5792C1376.76 26.5792 1087.75 29.5792 954.483 26.5792C821.221 29.5792 647.727 -7.83731 647.727 209.598C647.727 347.873 647.727 764.416 647.727 764.416C647.727 764.416 625.098 1021.31 809.956 1021.31C809.956 1021.31 970.173 1021.31 1051.34 1021.31C1132.5 1021.31 1296.84 1073.33 1296.84 1252.73C1296.84 1462.73 1296.84 1600.61 1296.84 1600.61C1296.84 1600.61 1307.1 1760.48 1092.47 1760.48C932.759 1760.48 345.799 1760.48 266.747 1760.48C187.694 1760.48 24.3593 1751.49 24.3593 1990.01C24.3593 2228.53 24.3593 2690.68 24.3593 2690.68C24.3593 2690.68 4.52406 2888.04 259.606 2890.03C642.699 2893.03 1373.28 2890.03 1373.28 2890.03" stroke="#CCEBD6" stroke-width="7" stroke-miterlimit="10" stroke-dasharray="67 67"/>
<path d="M48.5166 1965.64L49.0166 1956L277.517 1956L277.517 1965.64L48.5166 1965.64Z" fill="#80CE99"/>
<path d="M198.405 2096.25L198.405 1969.17L230.449 1969.17L230.449 2096.25L214.486 2116L198.405 2096.25Z" fill="url(#paint0_linear)"/>
<path d="M239.37 2037.23L239.37 1969.17L271.413 1969.17L271.413 2037.23L255.333 2057.1L239.37 2037.23Z" fill="url(#paint1_linear)"/>
<path d="M208.516 1982.47L219.154 1982.47V1985.26H221.08V1977.38L219.154 1977.38V1980.13L208.516 1980.13L208.516 1982.47Z" fill="#E6F5EB"/>
<path d="M208.516 1984.31L208.516 1986.81L211.414 1987.71L211.414 1992.02L208.516 1992.92L208.516 1995.31L221.08 1991.17V1988.56L208.516 1984.31ZM213.34 1988.16L218.902 1989.77L213.34 1991.42V1988.16Z" fill="#E6F5EB"/>
<path d="M208.516 1998.9H213.808V1999.35C213.808 2000.28 213.466 2000.63 212.026 2001.09L208.516 2002.21L208.516 2004.77L212.89 2003.25C214.258 2002.77 214.294 2002.73 214.708 2001.99L214.816 2001.78C215.212 2003.47 216.112 2004.19 217.822 2004.19C218.956 2004.19 219.784 2003.83 220.36 2003.11C220.882 2002.46 221.08 2001.62 221.08 2000.16V1996.56H208.516L208.516 1998.9ZM215.59 1998.9H219.316V1999.98C219.316 2000.61 219.226 2000.93 218.956 2001.24C218.614 2001.62 218.128 2001.8 217.48 2001.8C216.238 2001.8 215.59 2001.09 215.59 1999.78V1998.9Z" fill="#E6F5EB"/>
<path d="M208.516 2009.01H221.08L221.08 2006.67H208.516L208.516 2009.01Z" fill="#E6F5EB"/>
<path d="M214.042 2014.05L214.042 2017.62H215.968V2014.05H219.154V2017.98H221.08V2011.7L208.516 2011.7L208.516 2014.05H214.042Z" fill="#E6F5EB"/>
<path d="M208.516 2022.24H213.808V2022.69C213.808 2023.63 213.466 2023.97 212.026 2024.44L208.516 2025.55L208.516 2028.11L212.89 2026.6C214.258 2026.11 214.294 2026.08 214.708 2025.34L214.816 2025.12C215.212 2026.81 216.112 2027.53 217.822 2027.53C218.956 2027.53 219.784 2027.17 220.36 2026.45C220.882 2025.81 221.08 2024.96 221.08 2023.5V2019.9H208.516L208.516 2022.24ZM215.59 2022.24H219.316V2023.32C219.316 2023.95 219.226 2024.28 218.956 2024.58C218.614 2024.96 218.128 2025.14 217.48 2025.14C216.238 2025.14 215.59 2024.44 215.59 2023.12V2022.24Z" fill="#E6F5EB"/>
<path d="M210.442 2036.73L210.442 2032.24H213.988V2036.31H215.914L215.914 2032.24H219.154V2036.73H221.08V2029.9H208.516L208.516 2036.73H210.442Z" fill="#E6F5EB"/>
<path d="M210.982 2046.95C210.514 2045.89 210.388 2045.35 210.388 2044.54C210.388 2042.32 212.116 2040.94 214.888 2040.94C217.66 2040.94 219.334 2042.27 219.334 2044.48C219.334 2045.29 219.118 2045.91 218.542 2046.81L220.648 2046.95C221.134 2045.8 221.278 2045.2 221.278 2044.29C221.278 2040.65 218.83 2038.45 214.816 2038.45C210.73 2038.45 208.336 2040.67 208.336 2044.45C208.336 2045.42 208.426 2045.87 208.84 2046.95H210.982Z" fill="#E6F5EB"/>
<path d="M208.516 2057.37H221.08V2055.03H215.914L215.914 2051.32H221.08V2048.98H208.516L208.516 2051.32H213.988V2055.03H208.516L208.516 2057.37Z" fill="#E6F5EB"/>
<path d="M208.516 2069.04H221.08V2066.8H214.33C212.764 2066.8 212.602 2066.8 211.522 2066.93C212.206 2066.73 212.89 2066.46 213.916 2065.99L221.08 2062.68V2060H208.516L208.516 2062.23H215.104C216.022 2062.23 217.066 2062.16 218.11 2062.05C217.372 2062.3 216.706 2062.57 216.112 2062.81L208.516 2066.35L208.516 2069.04Z" fill="#E6F5EB"/>
<path d="M210.442 2078.4V2073.92H213.988V2077.99H215.914L215.914 2073.92H219.154V2078.4H221.08L221.08 2071.58H208.516L208.516 2078.4H210.442Z" fill="#E6F5EB"/>
<path d="M208.516 2082.92H213.808V2083.37C213.808 2084.31 213.466 2084.65 212.026 2085.12L208.516 2086.23L208.516 2088.79L212.89 2087.28C214.258 2086.79 214.294 2086.76 214.708 2086.02L214.816 2085.8C215.212 2087.49 216.112 2088.21 217.822 2088.21C218.956 2088.21 219.784 2087.85 220.36 2087.13C220.882 2086.49 221.08 2085.64 221.08 2084.18V2080.58H208.516L208.516 2082.92ZM215.59 2082.92H219.316V2084C219.316 2084.63 219.226 2084.96 218.956 2085.26C218.614 2085.64 218.128 2085.82 217.48 2085.82C216.238 2085.82 215.59 2085.12 215.59 2083.8V2082.92Z" fill="#E6F5EB"/>
<path d="M249.517 1986.7L262.081 1986.7V1984.36L256.915 1984.36V1980.65L262.081 1980.65V1978.31L249.517 1978.31L249.517 1980.65L254.989 1980.65L254.989 1984.36L249.517 1984.36L249.517 1986.7Z" fill="#E6F5EB"/>
<path d="M249.517 1989.23L249.517 1992.41C249.517 1994.27 249.823 1995.44 250.561 1996.43C251.605 1997.85 253.405 1998.57 255.871 1998.57C260.029 1998.57 262.081 1996.48 262.081 1992.22V1989.23L249.517 1989.23ZM251.281 1991.57L260.317 1991.57V1991.96C260.317 1993.12 260.101 1993.93 259.687 1994.5C258.967 1995.49 257.473 1996.1 255.799 1996.1C254.431 1996.1 253.171 1995.67 252.325 1994.9C251.569 1994.21 251.281 1993.42 251.281 1991.96V1991.57Z" fill="#E6F5EB"/>
<path d="M249.517 2003.03L262.081 2003.03V2000.69L249.517 2000.69L249.517 2003.03Z" fill="#E6F5EB"/>
<path d="M253.639 2009.23H255.511V2005.13H253.639V2009.23Z" fill="#E6F5EB"/>
<rect x="1380.52" y="1" width="49" height="245" transform="rotate(90 1380.52 1)" fill="url(#paint2_linear)"/>
<rect x="1380.52" y="2863" width="52" height="245" transform="rotate(90 1380.52 2863)" fill="url(#paint3_linear)"/>
<defs>
<linearGradient id="paint0_linear" x1="214.428" y1="1969.2" x2="214.428" y2="2116.03" gradientUnits="userSpaceOnUse">
<stop offset="1.68566e-05" stop-color="#4DBA71"/>
<stop offset="0.9989" stop-color="#007D29"/>
</linearGradient>
<linearGradient id="paint1_linear" x1="255.367" y1="1969.2" x2="255.367" y2="2057.06" gradientUnits="userSpaceOnUse">
<stop offset="1.68566e-05" stop-color="#4DBA71"/>
<stop offset="0.9989" stop-color="#007D29"/>
</linearGradient>
<linearGradient id="paint2_linear" x1="1405.02" y1="1" x2="1405.02" y2="246" gradientUnits="userSpaceOnUse">
<stop stop-color="white"/>
<stop offset="1" stop-color="white" stop-opacity="0"/>
</linearGradient>
<linearGradient id="paint3_linear" x1="1406.52" y1="2863" x2="1406.52" y2="3108" gradientUnits="userSpaceOnUse">
<stop stop-color="white"/>
<stop offset="1" stop-color="white" stop-opacity="0"/>
</linearGradient>
</defs>
</svg>
