<svg width="1380" height="2913" viewBox="0 0 1380 2913" fill="none" xmlns="http://www.w3.org/2000/svg">
<path d="M1387.25 25.579C1387.25 25.579 1087.23 25.579 953.967 25.579C820.705 25.579 647.212 -5.83752 647.212 211.598C647.212 349.872 647.212 766.416 647.212 766.416C647.212 766.416 624.582 1023.31 809.44 1023.31C809.44 1023.31 969.657 1023.31 1050.82 1023.31C1131.99 1023.31 1296.33 1075.33 1296.33 1254.73C1296.33 1464.73 1296.33 1602.61 1296.33 1602.61C1296.33 1602.61 1306.59 1762.48 1091.96 1762.48C932.243 1762.48 345.283 1762.48 266.231 1762.48C187.178 1762.48 23.8435 1753.49 23.8435 1992.01C23.8435 2230.53 23.8435 2692.68 23.8435 2692.68C23.8435 2692.68 8 2889.03 259.09 2889.03C642.183 2889.03 1460.77 2889.03 1460.77 2889.03" stroke="#E6F5EB" stroke-width="47" stroke-miterlimit="10" stroke-linecap="round" stroke-linejoin="round"/>
<path d="M1387.25 26.5792C1387.25 26.5792 1087.23 29.5792 953.967 26.5792C820.704 29.5792 647.211 -7.83731 647.211 209.598C647.211 347.873 647.211 764.416 647.211 764.416C647.211 764.416 624.581 1021.31 809.439 1021.31C809.439 1021.31 969.657 1021.31 1050.82 1021.31C1131.99 1021.31 1296.33 1073.33 1296.33 1252.73C1296.33 1462.73 1296.33 1600.61 1296.33 1600.61C1296.33 1600.61 1306.59 1760.48 1091.96 1760.48C932.242 1760.48 345.283 1760.48 266.23 1760.48C187.178 1760.48 23.8427 1751.49 23.8427 1990.01C23.8427 2228.53 23.8427 2690.68 23.8427 2690.68C23.8427 2690.68 4.00746 2888.04 259.089 2890.03C642.182 2893.03 1460.77 2890.03 1460.77 2890.03" stroke="#CCEBD6" stroke-width="7" stroke-miterlimit="10" stroke-dasharray="67 67"/>
<path d="M48 1965.64L48.5 1956L277 1956L277 1965.64L48 1965.64Z" fill="#80CE99"/>
<path d="M197.889 2096.25L197.889 1969.17L229.933 1969.17L229.933 2096.25L213.97 2116L197.889 2096.25Z" fill="url(#paint0_linear)"/>
<path d="M238.853 2037.23L238.853 1969.17L270.896 1969.17L270.896 2037.23L254.816 2057.1L238.853 2037.23Z" fill="url(#paint1_linear)"/>
<path d="M208 1982.47L218.638 1982.47V1985.26H220.564V1977.38L218.638 1977.38V1980.13L208 1980.13L208 1982.47Z" fill="#E6F5EB"/>
<path d="M208 1984.31L208 1986.81L210.898 1987.71L210.898 1992.02L208 1992.92L208 1995.31L220.564 1991.17V1988.56L208 1984.31ZM212.824 1988.16L218.386 1989.77L212.824 1991.42V1988.16Z" fill="#E6F5EB"/>
<path d="M208 1998.9H213.292V1999.35C213.292 2000.28 212.95 2000.63 211.51 2001.09L208 2002.21L208 2004.77L212.374 2003.25C213.742 2002.77 213.778 2002.73 214.192 2001.99L214.3 2001.78C214.696 2003.47 215.596 2004.19 217.306 2004.19C218.44 2004.19 219.268 2003.83 219.844 2003.11C220.366 2002.46 220.564 2001.62 220.564 2000.16V1996.56H208L208 1998.9ZM215.074 1998.9H218.8V1999.98C218.8 2000.61 218.71 2000.93 218.44 2001.24C218.098 2001.62 217.612 2001.8 216.964 2001.8C215.722 2001.8 215.074 2001.09 215.074 1999.78V1998.9Z" fill="#E6F5EB"/>
<path d="M208 2009.01H220.564L220.564 2006.67H208L208 2009.01Z" fill="#E6F5EB"/>
<path d="M213.526 2014.05L213.526 2017.62H215.452V2014.05H218.638V2017.98H220.564V2011.7L208 2011.7L208 2014.05H213.526Z" fill="#E6F5EB"/>
<path d="M208 2022.24H213.292V2022.69C213.292 2023.63 212.95 2023.97 211.51 2024.44L208 2025.55L208 2028.11L212.374 2026.6C213.742 2026.11 213.778 2026.08 214.192 2025.34L214.3 2025.12C214.696 2026.81 215.596 2027.53 217.306 2027.53C218.44 2027.53 219.268 2027.17 219.844 2026.45C220.366 2025.81 220.564 2024.96 220.564 2023.5V2019.9H208L208 2022.24ZM215.074 2022.24H218.8V2023.32C218.8 2023.95 218.71 2024.28 218.44 2024.58C218.098 2024.96 217.612 2025.14 216.964 2025.14C215.722 2025.14 215.074 2024.44 215.074 2023.12V2022.24Z" fill="#E6F5EB"/>
<path d="M209.926 2036.73L209.926 2032.24H213.472V2036.31H215.398L215.398 2032.24H218.638V2036.73H220.564V2029.9H208L208 2036.73H209.926Z" fill="#E6F5EB"/>
<path d="M210.466 2046.95C209.998 2045.89 209.872 2045.35 209.872 2044.54C209.872 2042.32 211.6 2040.94 214.372 2040.94C217.144 2040.94 218.818 2042.27 218.818 2044.48C218.818 2045.29 218.602 2045.91 218.026 2046.81L220.132 2046.95C220.618 2045.8 220.762 2045.2 220.762 2044.29C220.762 2040.65 218.314 2038.45 214.3 2038.45C210.214 2038.45 207.82 2040.67 207.82 2044.45C207.82 2045.42 207.91 2045.87 208.324 2046.95H210.466Z" fill="#E6F5EB"/>
<path d="M208 2057.37H220.564V2055.03H215.398L215.398 2051.32H220.564V2048.98H208L208 2051.32H213.472V2055.03H208L208 2057.37Z" fill="#E6F5EB"/>
<path d="M208 2069.04H220.564V2066.8H213.814C212.248 2066.8 212.086 2066.8 211.006 2066.93C211.69 2066.73 212.374 2066.46 213.4 2065.99L220.564 2062.68V2060H208L208 2062.23H214.588C215.506 2062.23 216.55 2062.16 217.594 2062.05C216.856 2062.3 216.19 2062.57 215.596 2062.81L208 2066.35L208 2069.04Z" fill="#E6F5EB"/>
<path d="M209.926 2078.4V2073.92H213.472V2077.99H215.398L215.398 2073.92H218.638V2078.4H220.564L220.564 2071.58H208L208 2078.4H209.926Z" fill="#E6F5EB"/>
<path d="M208 2082.92H213.292V2083.37C213.292 2084.31 212.95 2084.65 211.51 2085.12L208 2086.23L208 2088.79L212.374 2087.28C213.742 2086.79 213.778 2086.76 214.192 2086.02L214.3 2085.8C214.696 2087.49 215.596 2088.21 217.306 2088.21C218.44 2088.21 219.268 2087.85 219.844 2087.13C220.366 2086.49 220.564 2085.64 220.564 2084.18V2080.58H208L208 2082.92ZM215.074 2082.92H218.8V2084C218.8 2084.63 218.71 2084.96 218.44 2085.26C218.098 2085.64 217.612 2085.82 216.964 2085.82C215.722 2085.82 215.074 2085.12 215.074 2083.8V2082.92Z" fill="#E6F5EB"/>
<path d="M249 1986.7L261.564 1986.7V1984.36L256.398 1984.36V1980.65L261.564 1980.65V1978.31L249 1978.31L249 1980.65L254.472 1980.65L254.472 1984.36L249 1984.36L249 1986.7Z" fill="#E6F5EB"/>
<path d="M249 1989.23L249 1992.41C249 1994.27 249.306 1995.44 250.044 1996.43C251.088 1997.85 252.888 1998.57 255.354 1998.57C259.512 1998.57 261.564 1996.48 261.564 1992.22V1989.23L249 1989.23ZM250.764 1991.57L259.8 1991.57V1991.96C259.8 1993.12 259.584 1993.93 259.17 1994.5C258.45 1995.49 256.956 1996.1 255.282 1996.1C253.914 1996.1 252.654 1995.67 251.808 1994.9C251.052 1994.21 250.764 1993.42 250.764 1991.96V1991.57Z" fill="#E6F5EB"/>
<path d="M249 2003.03L261.564 2003.03V2000.69L249 2000.69L249 2003.03Z" fill="#E6F5EB"/>
<path d="M253.122 2009.23H254.994V2005.13H253.122V2009.23Z" fill="#E6F5EB"/>
<defs>
<linearGradient id="paint0_linear" x1="213.912" y1="1969.2" x2="213.912" y2="2116.03" gradientUnits="userSpaceOnUse">
<stop offset="1.68566e-05" stop-color="#4DBA71"/>
<stop offset="0.9989" stop-color="#007D29"/>
</linearGradient>
<linearGradient id="paint1_linear" x1="254.851" y1="1969.2" x2="254.851" y2="2057.06" gradientUnits="userSpaceOnUse">
<stop offset="1.68566e-05" stop-color="#4DBA71"/>
<stop offset="0.9989" stop-color="#007D29"/>
</linearGradient>
</defs>
</svg>
