<svg width="1248" height="2627" viewBox="0 0 1248 2627" fill="none" xmlns="http://www.w3.org/2000/svg">
<path d="M1223.93 25.1213C1223.93 25.1213 981.007 25.1213 861.116 25.1213C741.225 25.1213 585.141 -3.15358 585.141 192.539C585.141 316.985 585.141 691.874 585.141 691.874C585.141 691.874 564.782 923.079 731.091 923.079C731.091 923.079 875.232 923.079 948.252 923.079C1021.27 923.079 1169.12 969.896 1169.12 1131.36C1169.12 1320.36 1169.12 1444.45 1169.12 1444.45C1169.12 1444.45 1178.35 1588.33 985.26 1588.33C841.572 1588.33 313.509 1588.33 242.389 1588.33C171.269 1588.33 24.3235 1580.24 24.3235 1794.91C24.3235 2009.57 24.3235 2425.51 24.3235 2425.51C24.3235 2425.51 10.0698 2602.23 235.965 2602.23C580.617 2602.23 1218.1 2602.23 1218.1 2602.23" stroke="#E6F5EB" stroke-width="47" stroke-miterlimit="10" stroke-linecap="round" stroke-linejoin="round"/>
<path d="M1241.02 26.0212C1241.02 26.0212 981.007 28.7212 861.116 26.0212C741.225 28.7212 585.141 -4.95373 585.141 190.738C585.141 315.185 585.141 690.074 585.141 690.074C585.141 690.074 564.782 921.279 731.091 921.279C731.091 921.279 875.232 921.279 948.252 921.279C1021.27 921.279 1169.12 968.095 1169.12 1129.56C1169.12 1318.56 1169.12 1442.65 1169.12 1442.65C1169.12 1442.65 1178.35 1586.53 985.26 1586.53C841.572 1586.53 313.509 1586.53 242.389 1586.53C171.269 1586.53 24.3232 1578.44 24.3232 1793.11C24.3232 2007.77 24.3232 2423.71 24.3232 2423.71C24.3232 2423.71 6.47833 2601.33 235.965 2603.13C580.617 2605.83 1237.89 2603.13 1237.89 2603.13" stroke="#CCEBD6" stroke-width="7" stroke-miterlimit="10" stroke-dasharray="67 67"/>
<rect x="1248" width="50" height="224" transform="rotate(90 1248 0)" fill="url(#paint0_linear)"/>
<rect x="1244" y="2577" width="50" height="220" transform="rotate(90 1244 2577)" fill="url(#paint1_linear)"/>
<defs>
<linearGradient id="paint0_linear" x1="1273" y1="0" x2="1273" y2="224" gradientUnits="userSpaceOnUse">
<stop stop-color="white"/>
<stop offset="1" stop-color="white" stop-opacity="0"/>
</linearGradient>
<linearGradient id="paint1_linear" x1="1269" y1="2577" x2="1269" y2="2797" gradientUnits="userSpaceOnUse">
<stop stop-color="white"/>
<stop offset="1" stop-color="white" stop-opacity="0"/>
</linearGradient>
</defs>
</svg>
